<?xml version="1.0" encoding="UTF-8" standalone="no"?>
<svg width="100px" height="40px" viewBox="0 0 100 40" version="1.1" xmlns="http://www.w3.org/2000/svg" xmlns:xlink="http://www.w3.org/1999/xlink">
    <!-- Generator: Sketch 3.8.1 (29687) - http://www.bohemiancoding.com/sketch -->
    <title>mute-button</title>
    <desc>Created with Sketch.</desc>
    <defs>
        <rect id="path-1" x="0" y="0" width="100" height="40" rx="4"></rect>
        <mask id="mask-2" maskContentUnits="userSpaceOnUse" maskUnits="objectBoundingBox" x="0" y="0" width="100" height="40" fill="white">
            <use xlink:href="#path-1"></use>
        </mask>
    </defs>
    <g id="02-machine" stroke="none" stroke-width="1" fill="none" fill-rule="evenodd">
        <g id="01-Lascom-Machine-mute-button-D-v.1" transform="translate(-1300.000000, -40.000000)">
            <g id="mute-button" transform="translate(1300.000000, 40.000000)">
                <use id="Rectangle-177" stroke="#FFFFFF" mask="url(#mask-2)" stroke-width="2" fill-opacity="0.5" fill="#000000" xlink:href="#path-1"></use>
                <g id="Group" transform="translate(40.000000, 11.000000)" fill="#FFFFFF">
                    <path d="M8.042,1.123 L4,5 L1,5 C0.447,5 0,5.464 0,6.006 L0,11.954 C0,12.496 0.447,13 1,13 L4,13 L8.063,16.889 C8.063,16.889 9,17.437 9,15.812 L9,2.083 C9,0.44 8.042,1.123 8.042,1.123 L8.042,1.123 Z M7,12.935 L5,11 L2,11 L2,7 L5,7 L7,5.024 L7,12.935 L7,12.935 Z" id="Fill-163"></path>
                    <g id="Fill-97" transform="translate(10.000000, 4.000000)">
                        <path d="M8.889,7.475 L6.414,5 L8.889,2.525 C9.085,2.33 9.085,2.014 8.889,1.818 L8.182,1.111 C7.986,0.916 7.67,0.916 7.475,1.111 L5,3.586 L2.525,1.111 C2.33,0.916 2.014,0.916 1.818,1.111 L1.111,1.818 C0.915,2.014 0.915,2.33 1.111,2.525 L3.586,5 L1.111,7.475 C0.915,7.67 0.915,7.986 1.111,8.182 L1.818,8.889 C2.014,9.084 2.33,9.084 2.525,8.889 L5,6.414 L7.475,8.889 C7.67,9.084 7.986,9.084 8.182,8.889 L8.889,8.182 C9.085,7.986 9.085,7.67 8.889,7.475"></path>
                    </g>
                </g>
            </g>
        </g>
    </g>
</svg>