<?xml version="1.0" encoding="utf-8"?>
<!-- Generator: Adobe Illustrator 19.2.0, SVG Export Plug-In . SVG Version: 6.00 Build 0)  -->
<svg version="1.1" id="Слой_1" xmlns="http://www.w3.org/2000/svg" xmlns:xlink="http://www.w3.org/1999/xlink" x="0px" y="0px"
	 viewBox="0 0 22 23" style="enable-background:new 0 0 22 23;" xml:space="preserve">
<style type="text/css">
	.st0{fill:#CECECE;}
</style>
<title>close</title>
<desc>Created with Sketch.</desc>
<g id="_x30_1-Index">
	<g id="_x30_1-Lascom-Home-menu-P-v.1" transform="translate(-358.000000, -49.000000)">
		
			<g id="close" transform="translate(369.000000, 60.414214) rotate(-315.000000) translate(-369.000000, -60.414214) translate(354.000000, 45.414214)">
			<path id="Rectangle-74" class="st0" d="M16,3v24c0,1.7-0.4,3-1,3l0,0c-0.6,0-1-1.3-1-3V3c0-1.7,0.4-3,1-3l0,0C15.6,0,16,1.3,16,3
				z"/>
			<path id="Rectangle-74_1_" class="st0" d="M3,14h24c1.7,0,3,0.4,3,1l0,0c0,0.6-1.3,1-3,1H3c-1.7,0-3-0.4-3-1l0,0
				C0,14.4,1.3,14,3,14z"/>
		</g>
	</g>
</g>
</svg>
