<svg xmlns="http://www.w3.org/2000/svg" xmlns:xlink="http://www.w3.org/1999/xlink" preserveAspectRatio="xMidYMid" width="25.97" height="25.97" viewBox="0 0 25.97 25.97">
  <defs>
    <style>
      .cls-1 {
        fill: #fff;
        fill-rule: evenodd;
      }
    </style>
  </defs>
  <path d="M16.431,12.970 L25.371,21.910 C26.167,22.707 26.167,23.998 25.371,24.794 L24.794,25.371 C23.998,26.167 22.706,26.167 21.910,25.371 L12.970,16.431 L4.030,25.371 C3.234,26.167 1.942,26.167 1.146,25.371 L0.569,24.794 C-0.227,23.998 -0.227,22.707 0.569,21.910 L9.509,12.970 L0.569,4.030 C-0.227,3.233 -0.227,1.942 0.569,1.146 L1.146,0.569 C1.942,-0.227 3.234,-0.227 4.030,0.569 L12.970,9.509 L21.910,0.569 C22.706,-0.227 23.998,-0.227 24.794,0.569 L25.371,1.146 C26.167,1.942 26.167,3.233 25.371,4.030 L16.431,12.970 Z" class="cls-1"/>
</svg>
