<?xml version="1.0" encoding="UTF-8" standalone="no"?>
<svg width="100px" height="40px" viewBox="0 0 100 40" version="1.1" xmlns="http://www.w3.org/2000/svg" xmlns:xlink="http://www.w3.org/1999/xlink">
    <!-- Generator: Sketch 3.8.1 (29687) - http://www.bohemiancoding.com/sketch -->
    <title>Group 5</title>
    <desc>Created with Sketch.</desc>
    <defs>
        <rect id="path-1" x="0" y="0" width="100" height="40" rx="4"></rect>
        <mask id="mask-2" maskContentUnits="userSpaceOnUse" maskUnits="objectBoundingBox" x="0" y="0" width="100" height="40" fill="white">
            <use xlink:href="#path-1"></use>
        </mask>
    </defs>
    <g id="02-machine" stroke="none" stroke-width="1" fill="none" fill-rule="evenodd">
        <g id="01-Lascom-Machine-D-v.1" transform="translate(-1300.000000, -3640.000000)">
            <g id="Group-5" transform="translate(1300.000000, 3640.000000)">
                <use id="Rectangle-177" stroke="#FFFFFF" mask="url(#mask-2)" stroke-width="2" fill-opacity="0.800000012" fill="#FFFFFF" xlink:href="#path-1"></use>
                <g id="Group-4" transform="translate(41.000000, 11.000000)" fill="#696969">
                    <path d="M8.042,1.123 L4,5 L1,5 C0.447,5 0,5.464 0,6.006 L0,11.954 C0,12.496 0.447,13 1,13 L4,13 L8.063,16.889 C8.063,16.889 9,17.437 9,15.812 L9,2.083 C9,0.44 8.042,1.123 8.042,1.123 L8.042,1.123 Z M7,12.935 L5,11 L2,11 L2,7 L5,7 L7,5.024 L7,12.935 L7,12.935 Z" id="Fill-163"></path>
                    <path d="M10.499,5.031 C10.225,4.998 10,5.225 10,5.501 L10,6.501 C10,6.777 10.228,6.995 10.495,7.063 C11.357,7.285 12,8.071 12,9 C12,9.929 11.357,10.715 10.495,10.936 C10.228,11.005 10,11.223 10,11.499 L10,12.499 C10,12.775 10.225,13.002 10.499,12.969 C12.473,12.723 14,11.04 14,9 C14,6.96 12.473,5.277 10.499,5.031" id="Fill-164"></path>
                    <path d="M10,1.502 L10,2.502 C10,2.778 10.224,3 10.499,3.023 C13.576,3.276 16,5.858 16,9 C16,12.142 13.576,14.724 10.499,14.977 C10.224,15 10,15.222 10,15.498 L10,16.497 C10,16.773 10.224,16.999 10.5,16.981 C14.687,16.724 18,13.251 18,9 C18,4.749 14.687,1.276 10.5,1.019 C10.224,1.001 10,1.227 10,1.502" id="Fill-165"></path>
                </g>
            </g>
        </g>
    </g>
</svg>