<?xml version="1.0" encoding="UTF-8" standalone="no"?>
<svg width="106px" height="30px" viewBox="0 0 106 30" version="1.1" xmlns="http://www.w3.org/2000/svg" xmlns:xlink="http://www.w3.org/1999/xlink">
    <!-- Generator: Sketch 3.7.2 (28276) - http://www.bohemiancoding.com/sketch -->
    <title>Group 3</title>
    <desc>Created with Sketch.</desc>
    <defs></defs>
    <g id="02-machine" stroke="none" stroke-width="1" fill="none" fill-rule="evenodd">
        <g id="01-Lascom-Machine-D-v.1" transform="translate(-20.000000, -20.000000)">
            <g id="Group-3" transform="translate(20.000000, 20.000000)">
                <path d="M26.233425,0.0825 C24.178425,0.0825 22.513425,1.74825 22.513425,3.80325 L29.954175,3.80325 C29.954175,1.74825 28.287675,0.0825 26.233425,0.0825" id="Fill-1" fill="#EB0029"></path>
                <path d="M11.353425,0.0825 C9.299175,0.0825 7.632675,1.74825 7.632675,3.80325 L15.072675,3.80325 C15.072675,1.74825 13.408425,0.0825 11.353425,0.0825" id="Fill-3" fill="#EB0029"></path>
                <path d="M3.912675,7.52325 C5.967675,7.52325 7.634175,5.8575 7.634175,3.8025 L0.193425,3.8025 C0.193425,5.8575 1.859175,7.52325 3.912675,7.52325" id="Fill-4" fill="#EB0029"></path>
                <path d="M18.792675,7.52325 C20.847675,7.52325 22.513425,5.8575 22.513425,3.8025 L15.072675,3.8025 C15.072675,5.8575 16.739175,7.52325 18.792675,7.52325" id="Fill-5" fill="#EB0029"></path>
                <path d="M15.072975,11.24385 C15.072975,13.2981 16.737975,14.9646 18.793725,14.9646 C20.847225,14.9646 22.512975,13.2981 22.512975,11.24385 L15.072975,11.24385 Z" id="Fill-6" fill="#EB0029"></path>
                <path d="M26.233425,7.52325 C24.178425,7.52325 22.513425,9.189 22.513425,11.244 L29.954175,11.244 C29.954175,9.189 28.287675,7.52325 26.233425,7.52325" id="Fill-7" fill="#EB0029"></path>
                <path d="M0.192525,11.24385 C0.192525,13.2981 1.858275,14.9646 3.912525,14.9646 C5.966775,14.9646 7.632525,13.2981 7.632525,11.24385 L0.193275,11.24385 L0.192525,11.24385 Z" id="Fill-8" fill="#EB0029"></path>
                <path d="M11.353425,7.52325 C9.297675,7.52325 7.632675,9.189 7.632675,11.244 L15.072675,11.244 C15.072675,9.189 13.406925,7.52325 11.353425,7.52325" id="Fill-9" fill="#EB0029"></path>
                <path d="M15.072975,18.68415 C15.072975,20.73915 16.738725,22.4049 18.793725,22.4049 C20.847975,22.4049 22.512975,20.73915 22.512975,18.68415 L15.072975,18.68415 Z" id="Fill-10" fill="#EB0029"></path>
                <path d="M26.233425,14.964225 C24.178425,14.964225 22.513425,16.629975 22.513425,18.684225 L29.954175,18.684225 C29.954175,16.629975 28.287675,14.964225 26.233425,14.964225" id="Fill-11" fill="#EB0029"></path>
                <path d="M0.192525,18.68415 C0.192525,20.73915 1.858275,22.4049 3.912525,22.4049 C5.967525,22.4049 7.632525,20.73915 7.632525,18.68415 L0.193275,18.68415 L0.192525,18.68415 Z" id="Fill-12" fill="#EB0029"></path>
                <path d="M11.353425,14.964225 C9.297675,14.964225 7.632675,16.629975 7.632675,18.684225 L15.072675,18.684225 C15.072675,16.629975 13.406925,14.964225 11.353425,14.964225" id="Fill-13" fill="#EB0029"></path>
                <path d="M26.233425,22.4055 C24.178425,22.4055 22.513425,24.0705 22.513425,26.12625 L29.954175,26.12625 C29.954175,24.0705 28.287675,22.4055 26.233425,22.4055" id="Fill-14" fill="#EB0029"></path>
                <path d="M11.353425,22.4055 C9.297675,22.4055 7.632675,24.0705 7.632675,26.12625 L15.072675,26.12625 C15.072675,24.0705 13.406925,22.4055 11.353425,22.4055" id="Fill-15" fill="#EB0029"></path>
                <path d="M3.912675,29.84625 C5.967675,29.84625 7.634175,28.1805 7.634175,26.12625 L0.193425,26.12625 C0.193425,28.1805 1.859175,29.84625 3.912675,29.84625" id="Fill-16" fill="#EB0029"></path>
                <path d="M18.79365,29.84625 C20.84715,29.84625 22.5129,28.1805 22.5129,26.12625 L15.0729,26.12625 C15.0729,28.1805 16.73865,29.84625 18.79365,29.84625" id="Fill-17" fill="#EB0029"></path>
                <path d="M72.123225,17.196 C70.234725,17.196 68.703225,15.63225 68.703225,13.7025 C68.703225,11.77275 70.234725,10.20825 72.123225,10.20825 C73.211475,10.20825 74.180475,10.72875 74.806725,11.538 L76.202475,10.1415 C75.210975,9.08625 73.782975,8.424 72.197475,8.424 C69.201225,8.424 66.771225,10.78725 66.771225,13.7025 C66.771225,16.61775 69.201225,18.98025 72.197475,18.98025 C73.785225,18.98025 75.213225,18.31725 76.206225,17.2605 L74.808975,15.864 C74.182725,16.67475 73.212975,17.196 72.123225,17.196" id="Fill-18" fill="#2E2A25"></path>
                <path d="M62.79165,13.0278 L61.2879,12.65955 C60.76515,12.50805 60.20415,12.26055 60.0069,11.8488 C59.89815,11.61105 59.89815,11.3718 59.98665,11.04705 C60.13815,10.50555 60.77415,10.06305 61.59165,10.06305 C62.4489,10.06305 63.1959,10.46055 63.3444,11.24955 L65.12865,11.24955 C64.93815,9.2178 63.2604,8.4243 61.54965,8.4243 C59.74065,8.4243 58.15815,9.5298 58.0059,11.0043 C57.83115,12.86805 58.8894,13.7703 60.7434,14.26905 L62.13765,14.5938 C62.87865,14.7678 63.4944,15.1653 63.4944,15.9033 C63.4944,16.75455 62.7114,17.34555 61.79565,17.34555 C60.70215,17.34555 59.67915,16.8768 59.4834,15.8583 L57.69915,15.8583 C57.83715,17.85855 59.70765,18.9813 61.5009,18.9813 C62.13615,18.9813 62.64915,18.92055 63.1389,18.7743 C64.54815,18.3528 65.42865,17.3373 65.42865,15.94605 C65.42865,14.79705 64.9059,13.5483 62.79165,13.0278" id="Fill-19" fill="#2E2A25"></path>
                <path d="M82.4961,8.4246 C79.4991,8.4246 77.0691,10.7871 77.0691,13.70235 C77.0691,16.6176 79.4991,18.9801 82.4961,18.9801 C85.4916,18.9801 87.9216,16.6176 87.9216,13.70235 C87.9216,10.7871 85.4916,8.4246 82.4961,8.4246 M82.4961,17.19585 C80.5671,17.19585 79.00185,15.6321 79.00185,13.70235 C79.00185,11.7726 80.5671,10.20885 82.4961,10.20885 C84.42585,10.20885 85.9896,11.7726 85.9896,13.70235 C85.9896,15.6321 84.42585,17.19585 82.4961,17.19585" id="Fill-20" fill="#2E2A25"></path>
                <path d="M54.04815,9.910575 C53.1564,9.018825 51.97365,8.424075 50.7039,8.424075 C47.7894,8.424075 45.4254,10.787325 45.4254,13.702575 C45.4254,16.617825 47.7894,18.980325 50.7039,18.980325 C51.97365,18.980325 53.1564,18.385575 54.04815,17.493075 L54.04815,18.682575 L55.9809,18.682575 L55.9809,8.721075 L54.04815,8.721075 L54.04815,9.910575 Z M54.04815,14.723325 C53.6214,16.155075 52.31865,17.196075 50.77815,17.196075 C48.8889,17.196075 47.35815,15.632325 47.35815,13.702575 C47.35815,11.772825 48.8889,10.208325 50.77815,10.208325 C52.31865,10.208325 53.6214,11.250075 54.04815,12.681075 C54.14565,13.004325 54.19665,13.347075 54.19665,13.702575 C54.19665,14.058075 54.14565,14.400825 54.04815,14.723325 L54.04815,14.723325 Z" id="Fill-21" fill="#2E2A25"></path>
                <path d="M43.04775,15.8517 L43.04775,3.7827 L41.11575,3.7827 L41.11575,15.85995 C41.11575,17.78595 42.00825,18.8322 43.6425,18.8322 L44.23725,18.8322 L44.23725,17.04795 L43.8525,17.04795 C43.1145,17.04795 43.04775,16.2192 43.04775,15.8517" id="Fill-22" fill="#2E2A25"></path>
                <path d="M101.686875,8.4192 C100.526625,8.4192 99.082125,8.9217 98.155875,10.3782 C97.406625,9.18345 96.071625,8.4192 94.618875,8.4192 C93.661875,8.4192 92.452125,8.8707 91.717125,9.9027 L91.717125,8.71695 L89.782875,8.71695 L89.782875,18.68745 L91.717125,18.68745 L91.717125,12.7347 C91.717125,11.3802 92.830875,10.1997 94.279875,10.1997 C95.449125,10.1997 96.853125,11.0817 96.853125,12.89445 L96.853125,18.68745 L98.015625,18.68745 L98.785875,18.68745 L98.785875,12.7347 C98.785875,11.3802 99.898875,10.1997 101.348625,10.1997 C102.517125,10.1997 103.921125,11.0817 103.921125,12.89445 L103.921125,18.68745 L105.853875,18.68745 L105.853875,12.5862 C105.853875,10.20495 103.907625,8.4192 101.686875,8.4192" id="Fill-23" fill="#2E2A25"></path>
            </g>
        </g>
    </g>
</svg>