<?xml version="1.0" encoding="UTF-8" standalone="no"?>
<svg width="7px" height="10px" viewBox="0 0 7 10" version="1.1" xmlns="http://www.w3.org/2000/svg" xmlns:xlink="http://www.w3.org/1999/xlink">
    <!-- Generator: Sketch 3.7.2 (28276) - http://www.bohemiancoding.com/sketch -->
    <title>Group 18</title>
    <desc>Created with Sketch.</desc>
    <defs></defs>
    <g id="02-machine" stroke="none" stroke-width="1" fill="none" fill-rule="evenodd">
        <g id="01-Lascom-Home-M-v.1" transform="translate(-20.000000, -1615.000000)" fill="#FFFFFF">
            <g id="Group-18" transform="translate(23.500000, 1620.000000) scale(-1, 1) translate(-23.500000, -1620.000000) translate(20.000000, 1615.000000)">
                <path d="M6.64041233,5.35958767 C6.83900712,5.16099288 6.84487712,4.84487712 6.64041233,4.64041233 L2.35958767,0.359587669 C2.16099288,0.160992883 1.84306335,0.156936646 1.65162659,0.348373413 L0.348373413,1.65162659 C0.15597209,1.84402791 0.16129303,2.16129303 0.355920196,2.3559202 L2.6440798,4.6440798 C2.8406491,4.8406491 2.83870697,5.16129303 2.6440798,5.3559202 L0.355920196,7.6440798 C0.159350899,7.8406491 0.156936646,8.15693665 0.348373413,8.34837341 L1.65162659,9.65162659 C1.84402791,9.84402791 2.15512288,9.84487712 2.35958767,9.64041233 L6.64041233,5.35958767 Z" id="Path-25"></path>
            </g>
        </g>
    </g>
</svg>