<?xml version="1.0" encoding="UTF-8" standalone="no"?>
<svg width="142px" height="40px" viewBox="0 0 142 40" version="1.1" xmlns="http://www.w3.org/2000/svg" xmlns:xlink="http://www.w3.org/1999/xlink">
    <!-- Generator: Sketch 3.7.2 (28276) - http://www.bohemiancoding.com/sketch -->
    <title>logo</title>
    <desc>Created with Sketch.</desc>
    <defs></defs>
    <g id="01-Index" stroke="none" stroke-width="1" fill="none" fill-rule="evenodd">
        <g id="01-Lascom-Home-D-v.1" transform="translate(-370.000000, -40.000000)">
            <g id="Group-10" transform="translate(370.000000, 40.000000)">
                <g id="logo">
                    <path d="M34.9779,0.11 C32.2379,0.11 30.0179,2.331 30.0179,5.071 L39.9389,5.071 C39.9389,2.331 37.7169,0.11 34.9779,0.11" id="Fill-1" fill="#EB0029"></path>
                    <path d="M15.1379,0.11 C12.3989,0.11 10.1769,2.331 10.1769,5.071 L20.0969,5.071 C20.0969,2.331 17.8779,0.11 15.1379,0.11" id="Fill-3" fill="#EB0029"></path>
                    <path d="M5.2169,10.031 C7.9569,10.031 10.1789,7.81 10.1789,5.07 L0.2579,5.07 C0.2579,7.81 2.4789,10.031 5.2169,10.031" id="Fill-4" fill="#EB0029"></path>
                    <path d="M25.0569,10.031 C27.7969,10.031 30.0179,7.81 30.0179,5.07 L20.0969,5.07 C20.0969,7.81 22.3189,10.031 25.0569,10.031" id="Fill-5" fill="#EB0029"></path>
                    <path d="M20.0973,14.9918 C20.0973,17.7308 22.3173,19.9528 25.0583,19.9528 C27.7963,19.9528 30.0173,17.7308 30.0173,14.9918 L20.0973,14.9918 Z" id="Fill-6" fill="#EB0029"></path>
                    <path d="M34.9779,10.031 C32.2379,10.031 30.0179,12.252 30.0179,14.992 L39.9389,14.992 C39.9389,12.252 37.7169,10.031 34.9779,10.031" id="Fill-7" fill="#EB0029"></path>
                    <path d="M0.2567,14.9918 C0.2567,17.7308 2.4777,19.9528 5.2167,19.9528 C7.9557,19.9528 10.1767,17.7308 10.1767,14.9918 L0.2577,14.9918 L0.2567,14.9918 Z" id="Fill-8" fill="#EB0029"></path>
                    <path d="M15.1379,10.031 C12.3969,10.031 10.1769,12.252 10.1769,14.992 L20.0969,14.992 C20.0969,12.252 17.8759,10.031 15.1379,10.031" id="Fill-9" fill="#EB0029"></path>
                    <path d="M20.0973,24.9122 C20.0973,27.6522 22.3183,29.8732 25.0583,29.8732 C27.7973,29.8732 30.0173,27.6522 30.0173,24.9122 L20.0973,24.9122 Z" id="Fill-10" fill="#EB0029"></path>
                    <path d="M34.9779,19.9523 C32.2379,19.9523 30.0179,22.1733 30.0179,24.9123 L39.9389,24.9123 C39.9389,22.1733 37.7169,19.9523 34.9779,19.9523" id="Fill-11" fill="#EB0029"></path>
                    <path d="M0.2567,24.9122 C0.2567,27.6522 2.4777,29.8732 5.2167,29.8732 C7.9567,29.8732 10.1767,27.6522 10.1767,24.9122 L0.2577,24.9122 L0.2567,24.9122 Z" id="Fill-12" fill="#EB0029"></path>
                    <path d="M15.1379,19.9523 C12.3969,19.9523 10.1769,22.1733 10.1769,24.9123 L20.0969,24.9123 C20.0969,22.1733 17.8759,19.9523 15.1379,19.9523" id="Fill-13" fill="#EB0029"></path>
                    <path d="M34.9779,29.874 C32.2379,29.874 30.0179,32.094 30.0179,34.835 L39.9389,34.835 C39.9389,32.094 37.7169,29.874 34.9779,29.874" id="Fill-14" fill="#EB0029"></path>
                    <path d="M15.1379,29.874 C12.3969,29.874 10.1769,32.094 10.1769,34.835 L20.0969,34.835 C20.0969,32.094 17.8759,29.874 15.1379,29.874" id="Fill-15" fill="#EB0029"></path>
                    <path d="M5.2169,39.795 C7.9569,39.795 10.1789,37.574 10.1789,34.835 L0.2579,34.835 C0.2579,37.574 2.4789,39.795 5.2169,39.795" id="Fill-16" fill="#EB0029"></path>
                    <path d="M25.0582,39.795 C27.7962,39.795 30.0172,37.574 30.0172,34.835 L20.0972,34.835 C20.0972,37.574 22.3182,39.795 25.0582,39.795" id="Fill-17" fill="#EB0029"></path>
                    <path d="M96.1643,22.928 C93.6463,22.928 91.6043,20.843 91.6043,18.27 C91.6043,15.697 93.6463,13.611 96.1643,13.611 C97.6153,13.611 98.9073,14.305 99.7423,15.384 L101.6033,13.522 C100.2813,12.115 98.3773,11.232 96.2633,11.232 C92.2683,11.232 89.0283,14.383 89.0283,18.27 C89.0283,22.157 92.2683,25.307 96.2633,25.307 C98.3803,25.307 100.2843,24.423 101.6083,23.014 L99.7453,21.152 C98.9103,22.233 97.6173,22.928 96.1643,22.928" id="Fill-18" fill="#2E2A25"></path>
                    <path d="M83.7222,17.3704 L81.7172,16.8794 C81.0202,16.6774 80.2722,16.3474 80.0092,15.7984 C79.8642,15.4814 79.8642,15.1624 79.9822,14.7294 C80.1842,14.0074 81.0322,13.4174 82.1222,13.4174 C83.2652,13.4174 84.2612,13.9474 84.4592,14.9994 L86.8382,14.9994 C86.5842,12.2904 84.3472,11.2324 82.0662,11.2324 C79.6542,11.2324 77.5442,12.7064 77.3412,14.6724 C77.1082,17.1574 78.5192,18.3604 80.9912,19.0254 L82.8502,19.4584 C83.8382,19.6904 84.6592,20.2204 84.6592,21.2044 C84.6592,22.3394 83.6152,23.1274 82.3942,23.1274 C80.9362,23.1274 79.5722,22.5024 79.3112,21.1444 L76.9322,21.1444 C77.1162,23.8114 79.6102,25.3084 82.0012,25.3084 C82.8482,25.3084 83.5322,25.2274 84.1852,25.0324 C86.0642,24.4704 87.2382,23.1164 87.2382,21.2614 C87.2382,19.7294 86.5412,18.0644 83.7222,17.3704" id="Fill-19" fill="#2E2A25"></path>
                    <path d="M109.9948,11.2328 C105.9988,11.2328 102.7588,14.3828 102.7588,18.2698 C102.7588,22.1568 105.9988,25.3068 109.9948,25.3068 C113.9888,25.3068 117.2288,22.1568 117.2288,18.2698 C117.2288,14.3828 113.9888,11.2328 109.9948,11.2328 M109.9948,22.9278 C107.4228,22.9278 105.3358,20.8428 105.3358,18.2698 C105.3358,15.6968 107.4228,13.6118 109.9948,13.6118 C112.5678,13.6118 114.6528,15.6968 114.6528,18.2698 C114.6528,20.8428 112.5678,22.9278 109.9948,22.9278" id="Fill-20" fill="#2E2A25"></path>
                    <path d="M72.0642,13.2141 C70.8752,12.0251 69.2982,11.2321 67.6052,11.2321 C63.7192,11.2321 60.5672,14.3831 60.5672,18.2701 C60.5672,22.1571 63.7192,25.3071 67.6052,25.3071 C69.2982,25.3071 70.8752,24.5141 72.0642,23.3241 L72.0642,24.9101 L74.6412,24.9101 L74.6412,11.6281 L72.0642,11.6281 L72.0642,13.2141 Z M72.0642,19.6311 C71.4952,21.5401 69.7582,22.9281 67.7042,22.9281 C65.1852,22.9281 63.1442,20.8431 63.1442,18.2701 C63.1442,15.6971 65.1852,13.6111 67.7042,13.6111 C69.7582,13.6111 71.4952,15.0001 72.0642,16.9081 C72.1942,17.3391 72.2622,17.7961 72.2622,18.2701 C72.2622,18.7441 72.1942,19.2011 72.0642,19.6311 L72.0642,19.6311 Z" id="Fill-21" fill="#2E2A25"></path>
                    <path d="M57.397,21.1356 L57.397,5.0436 L54.821,5.0436 L54.821,21.1466 C54.821,23.7146 56.011,25.1096 58.19,25.1096 L58.983,25.1096 L58.983,22.7306 L58.47,22.7306 C57.486,22.7306 57.397,21.6256 57.397,21.1356" id="Fill-22" fill="#2E2A25"></path>
                    <path d="M135.5825,11.2256 C134.0355,11.2256 132.1095,11.8956 130.8745,13.8376 C129.8755,12.2446 128.0955,11.2256 126.1585,11.2256 C124.8825,11.2256 123.2695,11.8276 122.2895,13.2036 L122.2895,11.6226 L119.7105,11.6226 L119.7105,24.9166 L122.2895,24.9166 L122.2895,16.9796 C122.2895,15.1736 123.7745,13.5996 125.7065,13.5996 C127.2655,13.5996 129.1375,14.7756 129.1375,17.1926 L129.1375,24.9166 L130.6875,24.9166 L131.7145,24.9166 L131.7145,16.9796 C131.7145,15.1736 133.1985,13.5996 135.1315,13.5996 C136.6895,13.5996 138.5615,14.7756 138.5615,17.1926 L138.5615,24.9166 L141.1385,24.9166 L141.1385,16.7816 C141.1385,13.6066 138.5435,11.2256 135.5825,11.2256" id="Fill-23" fill="#2E2A25"></path>
                </g>
            </g>
        </g>
    </g>
</svg>