<?xml version="1.0" encoding="UTF-8" standalone="no"?>
<svg width="144px" height="144px" viewBox="0 0 144 144" version="1.1" xmlns="http://www.w3.org/2000/svg" xmlns:xlink="http://www.w3.org/1999/xlink">
    <!-- Generator: Sketch 39.1 (31720) - http://www.bohemiancoding.com/sketch -->
    <title>navy</title>
    <desc>Created with Sketch.</desc>
    <defs></defs>
    <g id="Symbols" stroke="none" stroke-width="1" fill="none" fill-rule="evenodd">
        <g id="box-areas" transform="translate(-328.000000, -160.000000)" fill="#EB0029">
            <path d="M469.7558,294.9828 C468.5118,294.9828 467.5058,295.9898 467.5058,297.2328 L472.0058,297.2328 C472.0058,295.9898 470.9978,294.9828 469.7558,294.9828 L469.7558,294.9828 Z M463.0058,297.2328 C463.0058,298.4748 464.0128,299.4828 465.2558,299.4828 C466.4978,299.4828 467.5058,298.4748 467.5058,297.2328 L463.0058,297.2328 Z M465.2558,294.9938 C466.4978,294.9938 467.5058,293.9858 467.5058,292.7438 L463.0058,292.7438 C463.0058,293.9858 464.0128,294.9938 465.2558,294.9938 L465.2558,294.9938 Z M469.7558,290.4938 C468.5118,290.4938 467.5058,291.4998 467.5058,292.7438 L472.0058,292.7438 C472.0058,291.4998 470.9978,290.4938 469.7558,290.4938 L469.7558,290.4938 Z M460.7558,299.4998 C459.5118,299.4998 458.5048,300.5058 458.5048,301.7498 L463.0058,301.7498 C463.0058,300.5058 461.9988,299.4998 460.7558,299.4998 L460.7558,299.4998 Z M454.0048,301.7498 C454.0048,302.9938 455.0138,303.9998 456.2558,303.9998 C457.4968,303.9998 458.5058,302.9938 458.5058,301.7498 L454.0048,301.7498 Z M456.2568,299.5108 C457.4988,299.5108 458.5068,298.5018 458.5068,297.2598 L454.0048,297.2598 C454.0048,298.5018 455.0128,299.5108 456.2568,299.5108 L456.2568,299.5108 Z M460.7558,295.0098 C459.5138,295.0098 458.5048,296.0168 458.5048,297.2608 L463.0058,297.2608 C463.0058,296.0168 461.9988,295.0098 460.7558,295.0098 L460.7558,295.0098 Z M451.7548,294.9828 C450.5118,294.9828 449.5048,295.9898 449.5048,297.2328 L454.0048,297.2328 C454.0048,295.9898 452.9968,294.9828 451.7548,294.9828 L451.7548,294.9828 Z M445.0048,297.2328 C445.0048,298.4748 446.0118,299.4828 447.2548,299.4828 C448.4968,299.4828 449.5058,298.4748 449.5058,297.2328 L445.0048,297.2328 Z M447.2558,294.9938 C448.4978,294.9938 449.5058,293.9858 449.5058,292.7438 L445.0058,292.7438 C445.0058,293.9858 446.0118,294.9938 447.2558,294.9938 L447.2558,294.9938 Z M451.7548,290.4938 C450.5118,290.4938 449.5048,291.4998 449.5048,292.7438 L454.0048,292.7438 C454.0048,291.4998 452.9968,290.4938 451.7548,290.4938 L451.7548,290.4938 Z M442.7548,299.4998 C441.5118,299.4998 440.5048,300.5058 440.5048,301.7498 L445.0048,301.7498 C445.0048,300.5058 443.9988,299.4998 442.7548,299.4998 L442.7548,299.4998 Z M436.0048,301.7498 C436.0048,302.9938 437.0128,303.9998 438.2548,303.9998 C439.4968,303.9998 440.5048,302.9938 440.5048,301.7498 L436.0048,301.7498 Z M438.2558,299.5108 C439.4978,299.5108 440.5058,298.5018 440.5058,297.2598 L436.0038,297.2598 C436.0038,298.5018 437.0118,299.5108 438.2558,299.5108 L438.2558,299.5108 Z M442.7548,295.0098 C441.5138,295.0098 440.5048,296.0168 440.5048,297.2608 L445.0048,297.2608 C445.0048,296.0168 443.9988,295.0098 442.7548,295.0098 L442.7548,295.0098 Z M433.7548,294.9828 C432.5108,294.9828 431.5048,295.9898 431.5048,297.2328 L436.0048,297.2328 C436.0048,295.9898 434.9968,294.9828 433.7548,294.9828 L433.7548,294.9828 Z M427.0038,297.2328 C427.0038,298.4748 428.0128,299.4828 429.2548,299.4828 C430.4958,299.4828 431.5048,298.4748 431.5048,297.2328 L427.0038,297.2328 Z M429.2548,294.9938 C430.4968,294.9938 431.5048,293.9858 431.5048,292.7438 L427.0048,292.7438 C427.0048,293.9858 428.0108,294.9938 429.2548,294.9938 L429.2548,294.9938 Z M433.7548,290.4938 C432.5108,290.4938 431.5048,291.4998 431.5048,292.7438 L436.0048,292.7438 C436.0048,291.4998 434.9968,290.4938 433.7548,290.4938 L433.7548,290.4938 Z M424.7538,299.4998 C423.5108,299.4998 422.5038,300.5058 422.5038,301.7498 L427.0048,301.7498 C427.0048,300.5058 425.9978,299.4998 424.7538,299.4998 L424.7538,299.4998 Z M418.0038,301.7498 C418.0038,302.9938 419.0128,303.9998 420.2548,303.9998 C421.4958,303.9998 422.5048,302.9938 422.5048,301.7498 L418.0038,301.7498 Z M420.2548,299.5108 C421.4968,299.5108 422.5048,298.5018 422.5048,297.2598 L418.0048,297.2598 C418.0048,298.5018 419.0108,299.5108 420.2548,299.5108 L420.2548,299.5108 Z M424.7538,295.0098 C423.5128,295.0098 422.5038,296.0168 422.5038,297.2608 L427.0048,297.2608 C427.0048,296.0168 425.9978,295.0098 424.7538,295.0098 L424.7538,295.0098 Z M415.7538,294.9828 C414.5098,294.9828 413.5038,295.9898 413.5038,297.2328 L418.0038,297.2328 C418.0038,295.9898 416.9958,294.9828 415.7538,294.9828 L415.7538,294.9828 Z M409.0038,297.2328 C409.0038,298.4748 410.0108,299.4828 411.2538,299.4828 C412.4958,299.4828 413.5038,298.4748 413.5038,297.2328 L409.0038,297.2328 Z M411.2538,294.9938 C412.4958,294.9938 413.5038,293.9858 413.5038,292.7438 L409.0038,292.7438 C409.0038,293.9858 410.0108,294.9938 411.2538,294.9938 L411.2538,294.9938 Z M415.7538,290.4938 C414.5098,290.4938 413.5038,291.4998 413.5038,292.7438 L418.0038,292.7438 C418.0038,291.4998 416.9958,290.4938 415.7538,290.4938 L415.7538,290.4938 Z M406.7538,299.4998 C405.5098,299.4998 404.5038,300.5058 404.5038,301.7498 L409.0038,301.7498 C409.0038,300.5058 407.9968,299.4998 406.7538,299.4998 L406.7538,299.4998 Z M400.0038,301.7498 C400.0038,302.9938 401.0118,303.9998 402.2538,303.9998 C403.4958,303.9998 404.5038,302.9938 404.5038,301.7498 L400.0038,301.7498 Z M402.2548,299.5108 C403.4968,299.5108 404.5048,298.5018 404.5048,297.2598 L400.0028,297.2598 C400.0028,298.5018 401.0108,299.5108 402.2548,299.5108 L402.2548,299.5108 Z M406.7538,295.0098 C405.5118,295.0098 404.5038,296.0168 404.5038,297.2608 L409.0038,297.2608 C409.0038,296.0168 407.9968,295.0098 406.7538,295.0098 L406.7538,295.0098 Z M397.7538,294.9828 C396.5098,294.9828 395.5038,295.9898 395.5038,297.2328 L400.0038,297.2328 C400.0038,295.9898 398.9958,294.9828 397.7538,294.9828 L397.7538,294.9828 Z M391.0028,297.2328 C391.0028,298.4748 392.0098,299.4828 393.2528,299.4828 C394.4948,299.4828 395.5038,298.4748 395.5038,297.2328 L391.0028,297.2328 Z M393.2538,294.9938 C394.4958,294.9938 395.5038,293.9858 395.5038,292.7438 L391.0038,292.7438 C391.0038,293.9858 392.0098,294.9938 393.2538,294.9938 L393.2538,294.9938 Z M397.7538,290.4938 C396.5098,290.4938 395.5038,291.4998 395.5038,292.7438 L400.0038,292.7438 C400.0038,291.4998 398.9958,290.4938 397.7538,290.4938 L397.7538,290.4938 Z M388.7528,299.4998 C387.5098,299.4998 386.5028,300.5058 386.5028,301.7498 L391.0038,301.7498 C391.0038,300.5058 389.9968,299.4998 388.7528,299.4998 L388.7528,299.4998 Z M382.0028,301.7498 C382.0028,302.9938 383.0108,303.9998 384.2528,303.9998 C385.4948,303.9998 386.5028,302.9938 386.5028,301.7498 L382.0028,301.7498 Z M384.2538,299.5108 C385.4958,299.5108 386.5038,298.5018 386.5038,297.2598 L382.0018,297.2598 C382.0018,298.5018 383.0098,299.5108 384.2538,299.5108 L384.2538,299.5108 Z M388.7528,295.0098 C387.5118,295.0098 386.5028,296.0168 386.5028,297.2608 L391.0038,297.2608 C391.0038,296.0168 389.9968,295.0098 388.7528,295.0098 L388.7528,295.0098 Z M424.7538,245.5028 C423.5108,245.5028 422.5038,246.5088 422.5038,247.7528 L427.0048,247.7528 C427.0048,246.5088 425.9958,245.5028 424.7538,245.5028 L424.7538,245.5028 Z M418.0038,247.7528 C418.0038,248.9958 419.0108,250.0028 420.2548,250.0028 C421.4958,250.0028 422.5048,248.9958 422.5048,247.7528 L418.0038,247.7528 Z M420.2548,245.5128 C421.4968,245.5128 422.5048,244.5048 422.5048,243.2628 L418.0048,243.2628 C418.0048,244.5048 419.0108,245.5128 420.2548,245.5128 L420.2548,245.5128 Z M424.7538,241.0128 C423.5108,241.0128 422.5038,242.0198 422.5038,243.2638 L427.0048,243.2638 C427.0048,242.0198 425.9958,241.0128 424.7538,241.0128 L424.7538,241.0128 Z M406.7538,245.5028 C405.5098,245.5028 404.5038,246.5088 404.5038,247.7528 L409.0038,247.7528 C409.0038,246.5088 407.9958,245.5028 406.7538,245.5028 L406.7538,245.5028 Z M400.0038,247.7528 C400.0038,248.9958 401.0098,250.0028 402.2538,250.0028 C403.4958,250.0028 404.5038,248.9958 404.5038,247.7528 L400.0038,247.7528 Z M402.2538,245.5128 C403.4958,245.5128 404.5048,244.5048 404.5048,243.2628 L400.0038,243.2628 C400.0038,244.5048 401.0108,245.5128 402.2538,245.5128 L402.2538,245.5128 Z M406.7538,241.0128 C405.5098,241.0128 404.5038,242.0198 404.5038,243.2638 L409.0038,243.2638 C409.0038,242.0198 407.9958,241.0128 406.7538,241.0128 L406.7538,241.0128 Z M415.7538,245.5028 C414.5098,245.5028 413.5038,246.5088 413.5038,247.7528 L418.0038,247.7528 C418.0038,246.5088 416.9968,245.5028 415.7538,245.5028 L415.7538,245.5028 Z M409.0028,247.7528 C409.0028,248.9958 410.0118,250.0028 411.2528,250.0028 C412.4948,250.0028 413.5038,248.9958 413.5038,247.7528 L409.0028,247.7528 Z M411.2538,245.5128 C412.4958,245.5128 413.5038,244.5048 413.5038,243.2628 L409.0038,243.2628 C409.0038,244.5048 410.0098,245.5128 411.2538,245.5128 L411.2538,245.5128 Z M415.7538,241.0128 C414.5098,241.0128 413.5038,242.0198 413.5038,243.2638 L418.0038,243.2638 C418.0038,242.0198 416.9968,241.0128 415.7538,241.0128 L415.7538,241.0128 Z M388.7538,245.5028 C387.5098,245.5028 386.5038,246.5088 386.5038,247.7528 L391.0038,247.7528 C391.0038,246.5088 389.9968,245.5028 388.7538,245.5028 L388.7538,245.5028 Z M382.0028,247.7528 C382.0028,248.9958 383.0108,250.0028 384.2528,250.0028 C385.4968,250.0028 386.5028,248.9958 386.5028,247.7528 L382.0028,247.7528 Z M384.2538,245.5128 C385.4958,245.5128 386.5038,244.5048 386.5038,243.2628 L382.0038,243.2628 C382.0038,244.5048 383.0098,245.5128 384.2538,245.5128 L384.2538,245.5128 Z M388.7538,241.0128 C387.5098,241.0128 386.5038,242.0198 386.5038,243.2638 L391.0038,243.2638 C391.0038,242.0198 389.9968,241.0128 388.7538,241.0128 L388.7538,241.0128 Z M397.7538,245.5028 C396.5098,245.5028 395.5038,246.5088 395.5038,247.7528 L400.0038,247.7528 C400.0038,246.5088 398.9958,245.5028 397.7538,245.5028 L397.7538,245.5028 Z M391.0028,247.7528 C391.0028,248.9958 392.0098,250.0028 393.2528,250.0028 C394.4948,250.0028 395.5038,248.9958 395.5038,247.7528 L391.0028,247.7528 Z M393.2538,245.5128 C394.4958,245.5128 395.5038,244.5048 395.5038,243.2628 L391.0038,243.2628 C391.0038,244.5048 392.0098,245.5128 393.2538,245.5128 L393.2538,245.5128 Z M397.7538,241.0128 C396.5098,241.0128 395.5038,242.0198 395.5038,243.2638 L400.0038,243.2638 C400.0038,242.0198 398.9958,241.0128 397.7538,241.0128 L397.7538,241.0128 Z M379.7528,245.5028 C378.5088,245.5028 377.5028,246.5088 377.5028,247.7528 L382.0028,247.7528 C382.0028,246.5088 380.9948,245.5028 379.7528,245.5028 L379.7528,245.5028 Z M373.0028,247.7528 C373.0028,248.9958 374.0088,250.0028 375.2528,250.0028 C376.4948,250.0028 377.5028,248.9958 377.5028,247.7528 L373.0028,247.7528 Z M375.2528,245.5128 C376.4948,245.5128 377.5028,244.5048 377.5028,243.2628 L373.0028,243.2628 C373.0028,244.5048 374.0098,245.5128 375.2528,245.5128 L375.2528,245.5128 Z M379.7528,241.0128 C378.5088,241.0128 377.5028,242.0198 377.5028,243.2638 L382.0028,243.2638 C382.0028,242.0198 380.9948,241.0128 379.7528,241.0128 L379.7528,241.0128 Z M370.7528,236.4998 C369.5098,236.4998 368.5028,237.5058 368.5028,238.7498 L373.0038,238.7498 C373.0038,237.5058 371.9948,236.4998 370.7528,236.4998 L370.7528,236.4998 Z M364.0028,238.7498 C364.0028,239.9928 365.0088,240.9998 366.2528,240.9998 C367.4948,240.9998 368.5028,239.9928 368.5028,238.7498 L364.0028,238.7498 Z M366.2528,236.5108 C367.4948,236.5108 368.5028,235.5018 368.5028,234.2598 L364.0028,234.2598 C364.0028,235.5018 365.0108,236.5108 366.2528,236.5108 L366.2528,236.5108 Z M370.7528,232.0098 C369.5098,232.0098 368.5028,233.0168 368.5028,234.2608 L373.0038,234.2608 C373.0038,233.0168 371.9948,232.0098 370.7528,232.0098 L370.7528,232.0098 Z M361.7528,236.4968 C360.5088,236.4968 359.5018,237.5038 359.5018,238.7468 L364.0028,238.7468 C364.0028,237.5038 362.9958,236.4968 361.7528,236.4968 L361.7528,236.4968 Z M355.0018,238.7468 C355.0018,239.9908 356.0108,240.9968 357.2518,240.9968 C358.4958,240.9968 359.5028,239.9908 359.5028,238.7468 L355.0018,238.7468 Z M357.2528,236.5078 C358.4948,236.5078 359.5028,235.4998 359.5028,234.2578 L355.0028,234.2578 C355.0028,235.4998 356.0098,236.5078 357.2528,236.5078 L357.2528,236.5078 Z M361.7528,232.0078 C360.5088,232.0078 359.5018,233.0138 359.5018,234.2578 L364.0028,234.2578 C364.0028,233.0138 362.9958,232.0078 361.7528,232.0078 L361.7528,232.0078 Z M352.7528,236.4958 C351.5088,236.4958 350.5028,237.5018 350.5028,238.7458 L355.0028,238.7458 C355.0028,237.5018 353.9958,236.4958 352.7528,236.4958 L352.7528,236.4958 Z M346.0018,238.7458 C346.0018,239.9888 347.0098,240.9958 348.2518,240.9958 C349.4958,240.9958 350.5018,239.9888 350.5018,238.7458 L346.0018,238.7458 Z M370.7528,245.4968 C369.5098,245.4968 368.5028,246.5028 368.5028,247.7468 L373.0038,247.7468 C373.0038,246.5028 371.9948,245.4968 370.7528,245.4968 L370.7528,245.4968 Z M364.0028,247.7468 C364.0028,248.9908 365.0088,249.9968 366.2528,249.9968 C367.4948,249.9968 368.5028,248.9908 368.5028,247.7468 L364.0028,247.7468 Z M366.2528,245.5078 C367.4948,245.5078 368.5028,244.4988 368.5028,243.2578 L364.0028,243.2578 C364.0028,244.4988 365.0108,245.5078 366.2528,245.5078 L366.2528,245.5078 Z M370.7528,241.0078 C369.5098,241.0078 368.5028,242.0138 368.5028,243.2578 L373.0038,243.2578 C373.0038,242.0138 371.9948,241.0078 370.7528,241.0078 L370.7528,241.0078 Z M433.7538,236.4988 C432.5108,236.4988 431.5038,237.5058 431.5038,238.7488 L436.0048,238.7488 C436.0048,237.5058 434.9978,236.4988 433.7538,236.4988 L433.7538,236.4988 Z M427.0028,238.7488 C427.0028,239.9928 428.0118,240.9988 429.2538,240.9988 C430.4968,240.9988 431.5038,239.9928 431.5038,238.7488 L427.0028,238.7488 Z M429.2548,236.5098 C430.4958,236.5098 431.5048,235.5018 431.5048,234.2598 L427.0038,234.2598 C427.0038,235.5018 428.0108,236.5098 429.2548,236.5098 L429.2548,236.5098 Z M433.7538,232.0098 C432.5108,232.0098 431.5038,233.0158 431.5038,234.2598 L436.0048,234.2598 C436.0048,233.0158 434.9978,232.0098 433.7538,232.0098 L433.7538,232.0098 Z M445.0058,238.7448 C445.0058,239.9888 446.0118,240.9948 447.2558,240.9948 C448.4998,240.9948 449.5058,239.9888 449.5058,238.7448 L445.0058,238.7448 Z M442.7548,236.4998 C441.5118,236.4998 440.5048,237.5058 440.5048,238.7498 L445.0048,238.7498 C445.0048,237.5058 443.9988,236.4998 442.7548,236.4998 L442.7548,236.4998 Z M436.0048,238.7498 C436.0048,239.9928 437.0128,240.9998 438.2548,240.9998 C439.4968,240.9998 440.5048,239.9928 440.5048,238.7498 L436.0048,238.7498 Z M438.2558,236.5108 C439.4978,236.5108 440.5058,235.5018 440.5058,234.2598 L436.0038,234.2598 C436.0038,235.5018 437.0118,236.5108 438.2558,236.5108 L438.2558,236.5108 Z M433.7538,245.4968 C432.5108,245.4968 431.5038,246.5028 431.5038,247.7468 L436.0048,247.7468 C436.0048,246.5028 434.9978,245.4968 433.7538,245.4968 L433.7538,245.4968 Z M427.0028,247.7468 C427.0028,248.9908 428.0118,249.9968 429.2538,249.9968 C430.4968,249.9968 431.5038,248.9908 431.5038,247.7468 L427.0028,247.7468 Z M429.2548,245.5078 C430.4958,245.5078 431.5048,244.4988 431.5048,243.2578 L427.0038,243.2578 C427.0038,244.4988 428.0108,245.5078 429.2548,245.5078 L429.2548,245.5078 Z M433.7538,241.0078 C432.5108,241.0078 431.5038,242.0138 431.5038,243.2578 L436.0048,243.2578 C436.0048,242.0138 434.9978,241.0078 433.7538,241.0078 L433.7538,241.0078 Z M361.7528,245.4938 C360.5088,245.4938 359.5018,246.5008 359.5018,247.7448 L364.0028,247.7448 C364.0028,246.5008 362.9958,245.4938 361.7528,245.4938 L361.7528,245.4938 Z M355.0018,247.7438 C355.0018,248.9878 356.0108,249.9948 357.2518,249.9948 C358.4958,249.9948 359.5028,248.9878 359.5028,247.7438 L355.0018,247.7438 Z M357.2528,245.5048 C358.4948,245.5048 359.5028,244.4968 359.5028,243.2548 L355.0028,243.2548 C355.0028,244.4968 356.0098,245.5048 357.2528,245.5048 L357.2528,245.5048 Z M361.7528,241.0048 C360.5088,241.0048 359.5018,242.0118 359.5018,243.2548 L364.0028,243.2548 C364.0028,242.0118 362.9958,241.0048 361.7528,241.0048 L361.7528,241.0048 Z M352.7528,245.4928 C351.5088,245.4928 350.5028,246.4988 350.5028,247.7428 L355.0028,247.7428 C355.0028,246.4988 353.9958,245.4928 352.7528,245.4928 L352.7528,245.4928 Z M346.0018,247.7428 C346.0018,248.9868 347.0098,249.9928 348.2518,249.9928 C349.4958,249.9928 350.5018,248.9868 350.5018,247.7428 L346.0018,247.7428 Z M348.2528,245.5038 C349.4948,245.5038 350.5028,244.4948 350.5028,243.2528 L346.0028,243.2528 C346.0028,244.4948 347.0088,245.5038 348.2528,245.5038 L348.2528,245.5038 Z M352.7528,241.0038 C351.5088,241.0038 350.5028,242.0098 350.5028,243.2538 L355.0028,243.2538 C355.0028,242.0098 353.9958,241.0038 352.7528,241.0038 L352.7528,241.0038 Z M451.7568,245.4928 C450.5128,245.4928 449.5058,246.4988 449.5058,247.7428 L454.0068,247.7428 C454.0068,246.4988 452.9978,245.4928 451.7568,245.4928 L451.7568,245.4928 Z M445.0058,247.7428 C445.0058,248.9868 446.0118,249.9928 447.2558,249.9928 C448.4998,249.9928 449.5058,248.9868 449.5058,247.7428 L445.0058,247.7428 Z M447.2558,245.5038 C448.4978,245.5038 449.5068,244.4948 449.5068,243.2528 L445.0058,243.2528 C445.0058,244.4948 446.0148,245.5038 447.2558,245.5038 L447.2558,245.5038 Z M451.7568,241.0038 C450.5128,241.0038 449.5058,242.0098 449.5058,243.2538 L454.0068,243.2538 C454.0068,242.0098 452.9978,241.0038 451.7568,241.0038 L451.7568,241.0038 Z M442.7548,245.4978 C441.5118,245.4978 440.5048,246.5038 440.5048,247.7478 L445.0048,247.7478 C445.0048,246.5038 443.9988,245.4978 442.7548,245.4978 L442.7548,245.4978 Z M436.0048,247.7478 C436.0048,248.9908 437.0128,249.9978 438.2548,249.9978 C439.4968,249.9978 440.5048,248.9908 440.5048,247.7478 L436.0048,247.7478 Z M438.2558,245.5078 C439.4978,245.5078 440.5058,244.4998 440.5058,243.2578 L436.0038,243.2578 C436.0038,244.4998 437.0118,245.5078 438.2558,245.5078 L438.2558,245.5078 Z M442.7548,241.0078 C441.5138,241.0078 440.5048,242.0148 440.5048,243.2578 L445.0048,243.2578 C445.0048,242.0148 443.9988,241.0078 442.7548,241.0078 L442.7548,241.0078 Z M424.7538,254.5018 C423.5108,254.5018 422.5038,255.5078 422.5038,256.7518 L427.0048,256.7518 C427.0048,255.5078 425.9958,254.5018 424.7538,254.5018 L424.7538,254.5018 Z M418.0038,256.7518 C418.0038,257.9958 419.0108,259.0018 420.2548,259.0018 C421.4958,259.0018 422.5048,257.9958 422.5048,256.7518 L418.0038,256.7518 Z M420.2548,254.5128 C421.4968,254.5128 422.5048,253.5038 422.5048,252.2628 L418.0048,252.2628 C418.0048,253.5038 419.0108,254.5128 420.2548,254.5128 L420.2548,254.5128 Z M424.7538,250.0128 C423.5108,250.0128 422.5038,251.0188 422.5038,252.2628 L427.0048,252.2628 C427.0048,251.0188 425.9958,250.0128 424.7538,250.0128 L424.7538,250.0128 Z M406.7538,254.5018 C405.5098,254.5018 404.5038,255.5078 404.5038,256.7518 L409.0038,256.7518 C409.0038,255.5078 407.9958,254.5018 406.7538,254.5018 L406.7538,254.5018 Z M400.0038,256.7518 C400.0038,257.9958 401.0098,259.0018 402.2538,259.0018 C403.4958,259.0018 404.5038,257.9958 404.5038,256.7518 L400.0038,256.7518 Z M402.2538,254.5128 C403.4958,254.5128 404.5048,253.5038 404.5048,252.2628 L400.0038,252.2628 C400.0038,253.5038 401.0108,254.5128 402.2538,254.5128 L402.2538,254.5128 Z M406.7538,250.0128 C405.5098,250.0128 404.5038,251.0188 404.5038,252.2628 L409.0038,252.2628 C409.0038,251.0188 407.9958,250.0128 406.7538,250.0128 L406.7538,250.0128 Z M415.7538,254.5018 C414.5098,254.5018 413.5038,255.5078 413.5038,256.7518 L418.0038,256.7518 C418.0038,255.5078 416.9968,254.5018 415.7538,254.5018 L415.7538,254.5018 Z M409.0028,256.7518 C409.0028,257.9958 410.0118,259.0018 411.2528,259.0018 C412.4948,259.0018 413.5038,257.9958 413.5038,256.7518 L409.0028,256.7518 Z M411.2538,254.5128 C412.4958,254.5128 413.5038,253.5038 413.5038,252.2628 L409.0038,252.2628 C409.0038,253.5038 410.0098,254.5128 411.2538,254.5128 L411.2538,254.5128 Z M415.7538,250.0128 C414.5098,250.0128 413.5038,251.0188 413.5038,252.2628 L418.0038,252.2628 C418.0038,251.0188 416.9968,250.0128 415.7538,250.0128 L415.7538,250.0128 Z M388.7538,254.5018 C387.5098,254.5018 386.5038,255.5078 386.5038,256.7518 L391.0038,256.7518 C391.0038,255.5078 389.9968,254.5018 388.7538,254.5018 L388.7538,254.5018 Z M382.0028,256.7518 C382.0028,257.9958 383.0108,259.0018 384.2528,259.0018 C385.4968,259.0018 386.5028,257.9958 386.5028,256.7518 L382.0028,256.7518 Z M384.2538,254.5128 C385.4958,254.5128 386.5038,253.5038 386.5038,252.2628 L382.0038,252.2628 C382.0038,253.5038 383.0098,254.5128 384.2538,254.5128 L384.2538,254.5128 Z M388.7538,250.0128 C387.5098,250.0128 386.5038,251.0188 386.5038,252.2628 L391.0038,252.2628 C391.0038,251.0188 389.9968,250.0128 388.7538,250.0128 L388.7538,250.0128 Z M397.7538,254.5018 C396.5098,254.5018 395.5038,255.5078 395.5038,256.7518 L400.0038,256.7518 C400.0038,255.5078 398.9958,254.5018 397.7538,254.5018 L397.7538,254.5018 Z M391.0028,256.7518 C391.0028,257.9958 392.0098,259.0018 393.2528,259.0018 C394.4948,259.0018 395.5038,257.9958 395.5038,256.7518 L391.0028,256.7518 Z M393.2538,254.5128 C394.4958,254.5128 395.5038,253.5038 395.5038,252.2628 L391.0038,252.2628 C391.0038,253.5038 392.0098,254.5128 393.2538,254.5128 L393.2538,254.5128 Z M397.7538,250.0128 C396.5098,250.0128 395.5038,251.0188 395.5038,252.2628 L400.0038,252.2628 C400.0038,251.0188 398.9958,250.0128 397.7538,250.0128 L397.7538,250.0128 Z M379.7528,254.5018 C378.5088,254.5018 377.5028,255.5078 377.5028,256.7518 L382.0028,256.7518 C382.0028,255.5078 380.9948,254.5018 379.7528,254.5018 L379.7528,254.5018 Z M373.0028,256.7518 C373.0028,257.9958 374.0088,259.0018 375.2528,259.0018 C376.4948,259.0018 377.5028,257.9958 377.5028,256.7518 L373.0028,256.7518 Z M375.2528,254.5128 C376.4948,254.5128 377.5028,253.5038 377.5028,252.2628 L373.0028,252.2628 C373.0028,253.5038 374.0098,254.5128 375.2528,254.5128 L375.2528,254.5128 Z M379.7528,250.0128 C378.5088,250.0128 377.5028,251.0188 377.5028,252.2628 L382.0028,252.2628 C382.0028,251.0188 380.9948,250.0128 379.7528,250.0128 L379.7528,250.0128 Z M370.7528,254.4958 C369.5098,254.4958 368.5028,255.5028 368.5028,256.7458 L373.0038,256.7458 C373.0038,255.5028 371.9948,254.4958 370.7528,254.4958 L370.7528,254.4958 Z M364.0028,256.7458 C364.0028,257.9898 365.0088,258.9968 366.2528,258.9968 C367.4948,258.9968 368.5028,257.9898 368.5028,256.7458 L364.0028,256.7458 Z M366.2528,254.5068 C367.4948,254.5068 368.5028,253.4988 368.5028,252.2568 L364.0028,252.2568 C364.0028,253.4988 365.0108,254.5068 366.2528,254.5068 L366.2528,254.5068 Z M370.7528,250.0068 C369.5098,250.0068 368.5028,251.0128 368.5028,252.2568 L373.0038,252.2568 C373.0038,251.0128 371.9948,250.0068 370.7528,250.0068 L370.7528,250.0068 Z M433.7538,254.4958 C432.5108,254.4958 431.5038,255.5028 431.5038,256.7458 L436.0048,256.7458 C436.0048,255.5028 434.9978,254.4958 433.7538,254.4958 L433.7538,254.4958 Z M427.0028,256.7458 C427.0028,257.9898 428.0118,258.9968 429.2538,258.9968 C430.4968,258.9968 431.5038,257.9898 431.5038,256.7458 L427.0028,256.7458 Z M429.2548,254.5068 C430.4958,254.5068 431.5048,253.4988 431.5048,252.2568 L427.0038,252.2568 C427.0038,253.4988 428.0108,254.5068 429.2548,254.5068 L429.2548,254.5068 Z M433.7538,250.0068 C432.5108,250.0068 431.5038,251.0128 431.5038,252.2568 L436.0048,252.2568 C436.0048,251.0128 434.9978,250.0068 433.7538,250.0068 L433.7538,250.0068 Z M361.7528,254.4938 C360.5088,254.4938 359.5018,255.4998 359.5018,256.7438 L364.0028,256.7438 C364.0028,255.4998 362.9958,254.4938 361.7528,254.4938 L361.7528,254.4938 Z M355.0018,256.7438 C355.0018,257.9868 356.0108,258.9938 357.2518,258.9938 C358.4958,258.9938 359.5028,257.9868 359.5028,256.7438 L355.0018,256.7438 Z M357.2528,254.5038 C358.4948,254.5038 359.5028,253.4958 359.5028,252.2538 L355.0028,252.2538 C355.0028,253.4958 356.0098,254.5038 357.2528,254.5038 L357.2528,254.5038 Z M361.7528,250.0038 C360.5088,250.0038 359.5018,251.0108 359.5018,252.2548 L364.0028,252.2548 C364.0028,251.0108 362.9958,250.0038 361.7528,250.0038 L361.7528,250.0038 Z M424.7538,263.5008 C423.5108,263.5008 422.5038,264.5078 422.5038,265.7508 L427.0048,265.7508 C427.0048,264.5078 425.9958,263.5008 424.7538,263.5008 L424.7538,263.5008 Z M418.0038,265.7508 C418.0038,266.9948 419.0108,268.0008 420.2548,268.0008 C421.4958,268.0008 422.5048,266.9948 422.5048,265.7508 L418.0038,265.7508 Z M420.2548,263.5118 C421.4968,263.5118 422.5048,262.5038 422.5048,261.2618 L418.0048,261.2618 C418.0048,262.5038 419.0108,263.5118 420.2548,263.5118 L420.2548,263.5118 Z M424.7538,259.0118 C423.5108,259.0118 422.5038,260.0178 422.5038,261.2618 L427.0048,261.2618 C427.0048,260.0178 425.9958,259.0118 424.7538,259.0118 L424.7538,259.0118 Z M406.7538,263.5008 C405.5098,263.5008 404.5038,264.5078 404.5038,265.7508 L409.0038,265.7508 C409.0038,264.5078 407.9958,263.5008 406.7538,263.5008 L406.7538,263.5008 Z M400.0038,265.7508 C400.0038,266.9948 401.0098,268.0008 402.2538,268.0008 C403.4958,268.0008 404.5038,266.9948 404.5038,265.7508 L400.0038,265.7508 Z M402.2538,263.5118 C403.4958,263.5118 404.5048,262.5038 404.5048,261.2618 L400.0038,261.2618 C400.0038,262.5038 401.0108,263.5118 402.2538,263.5118 L402.2538,263.5118 Z M406.7538,259.0118 C405.5098,259.0118 404.5038,260.0178 404.5038,261.2618 L409.0038,261.2618 C409.0038,260.0178 407.9958,259.0118 406.7538,259.0118 L406.7538,259.0118 Z M415.7538,263.5008 C414.5098,263.5008 413.5038,264.5078 413.5038,265.7508 L418.0038,265.7508 C418.0038,264.5078 416.9968,263.5008 415.7538,263.5008 L415.7538,263.5008 Z M409.0028,265.7508 C409.0028,266.9948 410.0118,268.0008 411.2528,268.0008 C412.4948,268.0008 413.5038,266.9948 413.5038,265.7508 L409.0028,265.7508 Z M411.2538,263.5118 C412.4958,263.5118 413.5038,262.5038 413.5038,261.2618 L409.0038,261.2618 C409.0038,262.5038 410.0098,263.5118 411.2538,263.5118 L411.2538,263.5118 Z M415.7538,259.0118 C414.5098,259.0118 413.5038,260.0178 413.5038,261.2618 L418.0038,261.2618 C418.0038,260.0178 416.9968,259.0118 415.7538,259.0118 L415.7538,259.0118 Z M388.7538,263.5008 C387.5098,263.5008 386.5038,264.5078 386.5038,265.7508 L391.0038,265.7508 C391.0038,264.5078 389.9968,263.5008 388.7538,263.5008 L388.7538,263.5008 Z M382.0028,265.7508 C382.0028,266.9948 383.0108,268.0008 384.2528,268.0008 C385.4968,268.0008 386.5028,266.9948 386.5028,265.7508 L382.0028,265.7508 Z M384.2538,263.5118 C385.4958,263.5118 386.5038,262.5038 386.5038,261.2618 L382.0038,261.2618 C382.0038,262.5038 383.0098,263.5118 384.2538,263.5118 L384.2538,263.5118 Z M388.7538,259.0118 C387.5098,259.0118 386.5038,260.0178 386.5038,261.2618 L391.0038,261.2618 C391.0038,260.0178 389.9968,259.0118 388.7538,259.0118 L388.7538,259.0118 Z M397.7538,263.5008 C396.5098,263.5008 395.5038,264.5078 395.5038,265.7508 L400.0038,265.7508 C400.0038,264.5078 398.9958,263.5008 397.7538,263.5008 L397.7538,263.5008 Z M391.0028,265.7508 C391.0028,266.9948 392.0098,268.0008 393.2528,268.0008 C394.4948,268.0008 395.5038,266.9948 395.5038,265.7508 L391.0028,265.7508 Z M393.2538,263.5118 C394.4958,263.5118 395.5038,262.5038 395.5038,261.2618 L391.0038,261.2618 C391.0038,262.5038 392.0098,263.5118 393.2538,263.5118 L393.2538,263.5118 Z M397.7538,259.0118 C396.5098,259.0118 395.5038,260.0178 395.5038,261.2618 L400.0038,261.2618 C400.0038,260.0178 398.9958,259.0118 397.7538,259.0118 L397.7538,259.0118 Z M379.7528,263.5008 C378.5088,263.5008 377.5028,264.5078 377.5028,265.7508 L382.0028,265.7508 C382.0028,264.5078 380.9948,263.5008 379.7528,263.5008 L379.7528,263.5008 Z M373.0028,265.7508 C373.0028,266.9948 374.0088,268.0008 375.2528,268.0008 C376.4948,268.0008 377.5028,266.9948 377.5028,265.7508 L373.0028,265.7508 Z M375.2528,263.5118 C376.4948,263.5118 377.5028,262.5038 377.5028,261.2618 L373.0028,261.2618 C373.0028,262.5038 374.0098,263.5118 375.2528,263.5118 L375.2528,263.5118 Z M379.7528,259.0118 C378.5088,259.0118 377.5028,260.0178 377.5028,261.2618 L382.0028,261.2618 C382.0028,260.0178 380.9948,259.0118 379.7528,259.0118 L379.7528,259.0118 Z M370.7528,263.4948 C369.5098,263.4948 368.5028,264.5018 368.5028,265.7458 L373.0038,265.7458 C373.0038,264.5018 371.9948,263.4948 370.7528,263.4948 L370.7528,263.4948 Z M364.0028,265.7458 C364.0028,266.9888 365.0088,267.9958 366.2528,267.9958 C367.4948,267.9958 368.5028,266.9888 368.5028,265.7458 L364.0028,265.7458 Z M366.2528,263.5058 C367.4948,263.5058 368.5028,262.4978 368.5028,261.2558 L364.0028,261.2558 C364.0028,262.4978 365.0108,263.5058 366.2528,263.5058 L366.2528,263.5058 Z M370.7528,259.0058 C369.5098,259.0058 368.5028,260.0128 368.5028,261.2558 L373.0038,261.2558 C373.0038,260.0128 371.9948,259.0058 370.7528,259.0058 L370.7528,259.0058 Z M433.7538,263.4948 C432.5108,263.4948 431.5038,264.5018 431.5038,265.7458 L436.0048,265.7458 C436.0048,264.5018 434.9978,263.4948 433.7538,263.4948 L433.7538,263.4948 Z M427.0028,265.7458 C427.0028,266.9888 428.0118,267.9958 429.2538,267.9958 C430.4968,267.9958 431.5038,266.9888 431.5038,265.7458 L427.0028,265.7458 Z M429.2548,263.5058 C430.4958,263.5058 431.5048,262.4978 431.5048,261.2558 L427.0038,261.2558 C427.0038,262.4978 428.0108,263.5058 429.2548,263.5058 L429.2548,263.5058 Z M433.7538,259.0058 C432.5108,259.0058 431.5038,260.0128 431.5038,261.2558 L436.0048,261.2558 C436.0048,260.0128 434.9978,259.0058 433.7538,259.0058 L433.7538,259.0058 Z M424.7538,272.4978 C423.5108,272.4978 422.5038,273.5048 422.5038,274.7488 L427.0048,274.7488 C427.0048,273.5048 425.9958,272.4978 424.7538,272.4978 L424.7538,272.4978 Z M418.0038,274.7478 C418.0038,275.9918 419.0108,276.9988 420.2548,276.9988 C421.4958,276.9988 422.5048,275.9918 422.5048,274.7478 L418.0038,274.7478 Z M420.2548,272.5088 C421.4968,272.5088 422.5048,271.5008 422.5048,270.2588 L418.0048,270.2588 C418.0048,271.5008 419.0108,272.5088 420.2548,272.5088 L420.2548,272.5088 Z M424.7538,268.0088 C423.5108,268.0088 422.5038,269.0158 422.5038,270.2588 L427.0048,270.2588 C427.0048,269.0158 425.9958,268.0088 424.7538,268.0088 L424.7538,268.0088 Z M406.7538,272.4978 C405.5098,272.4978 404.5038,273.5048 404.5038,274.7488 L409.0038,274.7488 C409.0038,273.5048 407.9958,272.4978 406.7538,272.4978 L406.7538,272.4978 Z M400.0038,274.7478 C400.0038,275.9918 401.0098,276.9988 402.2538,276.9988 C403.4958,276.9988 404.5038,275.9918 404.5038,274.7478 L400.0038,274.7478 Z M402.2538,272.5088 C403.4958,272.5088 404.5048,271.5008 404.5048,270.2588 L400.0038,270.2588 C400.0038,271.5008 401.0108,272.5088 402.2538,272.5088 L402.2538,272.5088 Z M406.7538,268.0088 C405.5098,268.0088 404.5038,269.0158 404.5038,270.2588 L409.0038,270.2588 C409.0038,269.0158 407.9958,268.0088 406.7538,268.0088 L406.7538,268.0088 Z M415.7538,272.4978 C414.5098,272.4978 413.5038,273.5048 413.5038,274.7488 L418.0038,274.7488 C418.0038,273.5048 416.9968,272.4978 415.7538,272.4978 L415.7538,272.4978 Z M409.0028,274.7478 C409.0028,275.9918 410.0118,276.9988 411.2528,276.9988 C412.4948,276.9988 413.5038,275.9918 413.5038,274.7478 L409.0028,274.7478 Z M411.2538,272.5088 C412.4958,272.5088 413.5038,271.5008 413.5038,270.2588 L409.0038,270.2588 C409.0038,271.5008 410.0098,272.5088 411.2538,272.5088 L411.2538,272.5088 Z M415.7538,268.0088 C414.5098,268.0088 413.5038,269.0158 413.5038,270.2588 L418.0038,270.2588 C418.0038,269.0158 416.9968,268.0088 415.7538,268.0088 L415.7538,268.0088 Z M388.7538,272.4978 C387.5098,272.4978 386.5038,273.5048 386.5038,274.7488 L391.0038,274.7488 C391.0038,273.5048 389.9968,272.4978 388.7538,272.4978 L388.7538,272.4978 Z M382.0028,274.7478 C382.0028,275.9918 383.0108,276.9988 384.2528,276.9988 C385.4968,276.9988 386.5028,275.9918 386.5028,274.7478 L382.0028,274.7478 Z M384.2538,272.5088 C385.4958,272.5088 386.5038,271.5008 386.5038,270.2588 L382.0038,270.2588 C382.0038,271.5008 383.0098,272.5088 384.2538,272.5088 L384.2538,272.5088 Z M388.7538,268.0088 C387.5098,268.0088 386.5038,269.0158 386.5038,270.2588 L391.0038,270.2588 C391.0038,269.0158 389.9968,268.0088 388.7538,268.0088 L388.7538,268.0088 Z M397.7538,272.4978 C396.5098,272.4978 395.5038,273.5048 395.5038,274.7488 L400.0038,274.7488 C400.0038,273.5048 398.9958,272.4978 397.7538,272.4978 L397.7538,272.4978 Z M391.0028,274.7478 C391.0028,275.9918 392.0098,276.9988 393.2528,276.9988 C394.4948,276.9988 395.5038,275.9918 395.5038,274.7478 L391.0028,274.7478 Z M393.2538,272.5088 C394.4958,272.5088 395.5038,271.5008 395.5038,270.2588 L391.0038,270.2588 C391.0038,271.5008 392.0098,272.5088 393.2538,272.5088 L393.2538,272.5088 Z M397.7538,268.0088 C396.5098,268.0088 395.5038,269.0158 395.5038,270.2588 L400.0038,270.2588 C400.0038,269.0158 398.9958,268.0088 397.7538,268.0088 L397.7538,268.0088 Z M379.7528,272.4978 C378.5088,272.4978 377.5028,273.5048 377.5028,274.7488 L382.0028,274.7488 C382.0028,273.5048 380.9948,272.4978 379.7528,272.4978 L379.7528,272.4978 Z M373.0028,274.7478 C373.0028,275.9918 374.0088,276.9988 375.2528,276.9988 C376.4948,276.9988 377.5028,275.9918 377.5028,274.7478 L373.0028,274.7478 Z M375.2528,272.5088 C376.4948,272.5088 377.5028,271.5008 377.5028,270.2588 L373.0028,270.2588 C373.0028,271.5008 374.0098,272.5088 375.2528,272.5088 L375.2528,272.5088 Z M379.7528,268.0088 C378.5088,268.0088 377.5028,269.0158 377.5028,270.2588 L382.0028,270.2588 C382.0028,269.0158 380.9948,268.0088 379.7528,268.0088 L379.7528,268.0088 Z M415.7518,209.4858 C414.5088,209.4858 413.5018,210.4918 413.5018,211.7358 L418.0018,211.7358 C418.0018,210.4918 416.9938,209.4858 415.7518,209.4858 L415.7518,209.4858 Z M409.0008,211.7358 C409.0008,212.9778 410.0078,213.9858 411.2508,213.9858 C412.4948,213.9858 413.5018,212.9778 413.5018,211.7358 L409.0008,211.7358 Z M411.2518,209.4968 C412.4938,209.4968 413.5018,208.4878 413.5018,207.2458 L409.0018,207.2458 C409.0018,208.4878 410.0098,209.4968 411.2518,209.4968 L411.2518,209.4968 Z M415.7518,204.9958 C414.5088,204.9958 413.5018,206.0028 413.5018,207.2468 L418.0018,207.2468 C418.0018,206.0028 416.9938,204.9958 415.7518,204.9958 L415.7518,204.9958 Z M424.7538,209.4858 C423.5108,209.4858 422.5038,210.4918 422.5038,211.7358 L427.0048,211.7358 C427.0048,210.4918 425.9978,209.4858 424.7538,209.4858 L424.7538,209.4858 Z M418.0038,211.7358 C418.0038,212.9778 419.0128,213.9858 420.2548,213.9858 C421.4958,213.9858 422.5048,212.9778 422.5048,211.7358 L418.0038,211.7358 Z M420.2548,209.4968 C421.4968,209.4968 422.5048,208.4878 422.5048,207.2458 L418.0048,207.2458 C418.0048,208.4878 419.0108,209.4968 420.2548,209.4968 L420.2548,209.4968 Z M424.7538,204.9958 C423.5128,204.9958 422.5038,206.0028 422.5038,207.2468 L427.0048,207.2468 C427.0048,206.0028 425.9978,204.9958 424.7538,204.9958 L424.7538,204.9958 Z M433.7558,218.4818 C432.5118,218.4818 431.5058,219.4888 431.5058,220.7328 L436.0058,220.7328 C436.0058,219.4888 434.9968,218.4818 433.7558,218.4818 L433.7558,218.4818 Z M427.0058,220.7328 C427.0058,221.9758 428.0118,222.9828 429.2558,222.9828 C430.4978,222.9828 431.5058,221.9758 431.5058,220.7328 L427.0058,220.7328 Z M429.2558,218.4928 C430.4978,218.4928 431.5058,217.4848 431.5058,216.2428 L427.0058,216.2428 C427.0058,217.4848 428.0118,218.4928 429.2558,218.4928 L429.2558,218.4928 Z M433.7558,213.9928 C432.5118,213.9928 431.5058,214.9998 431.5058,216.2428 L436.0058,216.2428 C436.0058,214.9998 434.9968,213.9928 433.7558,213.9928 L433.7558,213.9928 Z M442.7558,218.4818 C441.5128,218.4818 440.5058,219.4888 440.5058,220.7328 L445.0058,220.7328 C445.0058,219.4888 443.9978,218.4818 442.7558,218.4818 L442.7558,218.4818 Z M436.0048,220.7328 C436.0048,221.9758 437.0138,222.9828 438.2548,222.9828 C439.4988,222.9828 440.5058,221.9758 440.5058,220.7328 L436.0048,220.7328 Z M438.2558,218.4928 C439.4978,218.4928 440.5058,217.4848 440.5058,216.2428 L436.0058,216.2428 C436.0058,217.4848 437.0138,218.4928 438.2558,218.4928 L438.2558,218.4928 Z M442.7558,213.9928 C441.5128,213.9928 440.5058,214.9998 440.5058,216.2428 L445.0058,216.2428 C445.0058,214.9998 443.9978,213.9928 442.7558,213.9928 L442.7558,213.9928 Z M433.7558,209.4858 C432.5118,209.4858 431.5058,210.4918 431.5058,211.7358 L436.0058,211.7358 C436.0058,210.4918 434.9968,209.4858 433.7558,209.4858 L433.7558,209.4858 Z M427.0058,211.7358 C427.0058,212.9778 428.0118,213.9858 429.2558,213.9858 C430.4978,213.9858 431.5058,212.9778 431.5058,211.7358 L427.0058,211.7358 Z M429.2558,209.4968 C430.4978,209.4968 431.5058,208.4878 431.5058,207.2458 L427.0058,207.2458 C427.0058,208.4878 428.0118,209.4968 429.2558,209.4968 L429.2558,209.4968 Z M433.7558,204.9958 C432.5118,204.9958 431.5058,206.0028 431.5058,207.2468 L436.0058,207.2468 C436.0058,206.0028 434.9968,204.9958 433.7558,204.9958 L433.7558,204.9958 Z M442.7558,209.4858 C441.5128,209.4858 440.5058,210.4918 440.5058,211.7358 L445.0058,211.7358 C445.0058,210.4918 443.9978,209.4858 442.7558,209.4858 L442.7558,209.4858 Z M436.0048,211.7358 C436.0048,212.9778 437.0138,213.9858 438.2548,213.9858 C439.4988,213.9858 440.5058,212.9778 440.5058,211.7358 L436.0048,211.7358 Z M438.2558,209.4968 C439.4978,209.4968 440.5058,208.4878 440.5058,207.2458 L436.0058,207.2458 C436.0058,208.4878 437.0138,209.4968 438.2558,209.4968 L438.2558,209.4968 Z M442.7558,204.9958 C441.5128,204.9958 440.5058,206.0028 440.5058,207.2468 L445.0058,207.2468 C445.0058,206.0028 443.9978,204.9958 442.7558,204.9958 L442.7558,204.9958 Z M442.7558,200.4858 C441.5128,200.4858 440.5058,201.4918 440.5058,202.7358 L445.0058,202.7358 C445.0058,201.4918 443.9978,200.4858 442.7558,200.4858 L442.7558,200.4858 Z M436.0048,202.7358 C436.0048,203.9788 437.0138,204.9858 438.2548,204.9858 C439.4988,204.9858 440.5058,203.9788 440.5058,202.7358 L436.0048,202.7358 Z M438.2558,200.4958 C439.4978,200.4958 440.5058,199.4878 440.5058,198.2458 L436.0058,198.2458 C436.0058,199.4878 437.0138,200.4958 438.2558,200.4958 L438.2558,200.4958 Z M442.7558,195.9958 C441.5128,195.9958 440.5058,197.0028 440.5058,198.2468 L445.0058,198.2468 C445.0058,197.0028 443.9978,195.9958 442.7558,195.9958 L442.7558,195.9958 Z M442.7558,191.4858 C441.5128,191.4858 440.5058,192.4918 440.5058,193.7358 L445.0058,193.7358 C445.0058,192.4918 443.9978,191.4858 442.7558,191.4858 L442.7558,191.4858 Z M436.0048,193.7358 C436.0048,194.9778 437.0138,195.9858 438.2548,195.9858 C439.4988,195.9858 440.5058,194.9778 440.5058,193.7358 L436.0048,193.7358 Z M438.2558,191.4968 C439.4978,191.4968 440.5058,190.4878 440.5058,189.2468 L436.0058,189.2468 C436.0058,190.4878 437.0138,191.4968 438.2558,191.4968 L438.2558,191.4968 Z M442.7558,186.9958 C441.5128,186.9958 440.5058,188.0028 440.5058,189.2468 L445.0058,189.2468 C445.0058,188.0028 443.9978,186.9958 442.7558,186.9958 L442.7558,186.9958 Z M442.7558,182.4838 C441.5128,182.4838 440.5058,183.4908 440.5058,184.7348 L445.0058,184.7348 C445.0058,183.4908 443.9978,182.4838 442.7558,182.4838 L442.7558,182.4838 Z M436.0048,184.7338 C436.0048,185.9778 437.0138,186.9848 438.2548,186.9848 C439.4988,186.9848 440.5058,185.9778 440.5058,184.7338 L436.0048,184.7338 Z M438.2558,182.4948 C439.4978,182.4948 440.5058,181.4868 440.5058,180.2448 L436.0058,180.2448 C436.0058,181.4868 437.0138,182.4948 438.2558,182.4948 L438.2558,182.4948 Z M442.7558,177.9948 C441.5128,177.9948 440.5058,179.0018 440.5058,180.2448 L445.0058,180.2448 C445.0058,179.0018 443.9978,177.9948 442.7558,177.9948 L442.7558,177.9948 Z M438.2558,227.4978 C439.4978,227.4978 440.5058,226.4898 440.5058,225.2478 L436.0058,225.2478 C436.0058,226.4898 437.0138,227.4978 438.2558,227.4978 L438.2558,227.4978 Z M442.7558,222.9978 C441.5128,222.9978 440.5058,224.0038 440.5058,225.2478 L445.0058,225.2478 C445.0058,224.0038 443.9978,222.9978 442.7558,222.9978 L442.7558,222.9978 Z M427.0028,229.7368 C427.0028,230.9788 428.0118,231.9868 429.2538,231.9868 C430.4948,231.9868 431.5038,230.9788 431.5038,229.7368 L427.0028,229.7368 Z M433.7538,222.9978 C432.5118,222.9978 431.5038,224.0038 431.5038,225.2478 L436.0038,225.2478 C436.0038,224.0038 434.9978,222.9978 433.7538,222.9978 L433.7538,222.9978 Z M424.7548,218.4878 C423.5108,218.4878 422.5048,219.4938 422.5048,220.7378 L427.0048,220.7378 C427.0048,219.4938 425.9988,218.4878 424.7548,218.4878 L424.7548,218.4878 Z M420.2548,218.4988 C421.4968,218.4988 422.5048,217.4898 422.5048,216.2478 L418.0048,216.2478 C418.0048,217.4898 419.0108,218.4988 420.2548,218.4988 L420.2548,218.4988 Z M424.7548,213.9978 C423.5108,213.9978 422.5048,215.0048 422.5048,216.2488 L427.0048,216.2488 C427.0048,215.0048 425.9988,213.9978 424.7548,213.9978 L424.7548,213.9978 Z M409.0008,220.7378 C409.0008,221.9818 410.0088,222.9878 411.2508,222.9878 C412.4948,222.9878 413.5008,221.9818 413.5008,220.7378 L409.0008,220.7378 Z M415.7518,213.9978 C414.5078,213.9978 413.5018,215.0048 413.5018,216.2488 L418.0018,216.2488 C418.0018,215.0048 416.9958,213.9978 415.7518,213.9978 L415.7518,213.9978 Z M406.7548,173.4898 C405.5108,173.4898 404.5048,174.4958 404.5048,175.7398 L409.0048,175.7398 C409.0048,174.4958 407.9968,173.4898 406.7548,173.4898 L406.7548,173.4898 Z M400.0038,175.7398 C400.0038,176.9838 401.0108,177.9898 402.2538,177.9898 C403.4978,177.9898 404.5048,176.9838 404.5048,175.7398 L400.0038,175.7398 Z M402.2548,173.5008 C403.4968,173.5008 404.5048,172.4918 404.5048,171.2508 L400.0048,171.2508 C400.0048,172.4918 401.0128,173.5008 402.2548,173.5008 L402.2548,173.5008 Z M406.7548,168.9998 C405.5108,168.9998 404.5048,170.0068 404.5048,171.2508 L409.0048,171.2508 C409.0048,170.0068 407.9968,168.9998 406.7548,168.9998 L406.7548,168.9998 Z M424.7538,173.4898 C423.5108,173.4898 422.5038,174.4958 422.5038,175.7398 L427.0048,175.7398 C427.0048,174.4958 425.9978,173.4898 424.7538,173.4898 L424.7538,173.4898 Z M418.0038,175.7398 C418.0038,176.9838 419.0128,177.9898 420.2548,177.9898 C421.4958,177.9898 422.5048,176.9838 422.5048,175.7398 L418.0038,175.7398 Z M420.2548,173.5008 C421.4968,173.5008 422.5048,172.4918 422.5048,171.2508 L418.0048,171.2508 C418.0048,172.4918 419.0108,173.5008 420.2548,173.5008 L420.2548,173.5008 Z M424.7538,168.9998 C423.5128,168.9998 422.5038,170.0068 422.5038,171.2508 L427.0048,171.2508 C427.0048,170.0068 425.9978,168.9998 424.7538,168.9998 L424.7538,168.9998 Z M433.7548,182.4898 C432.5118,182.4898 431.5048,183.4968 431.5048,184.7398 L436.0058,184.7398 C436.0058,183.4968 434.9988,182.4898 433.7548,182.4898 L433.7548,182.4898 Z M427.0038,184.7398 C427.0038,185.9818 428.0128,186.9898 429.2548,186.9898 C430.4978,186.9898 431.5048,185.9818 431.5048,184.7398 L427.0038,184.7398 Z M429.2558,182.5008 C430.4968,182.5008 431.5058,181.4918 431.5058,180.2508 L427.0048,180.2508 C427.0048,181.4918 428.0118,182.5008 429.2558,182.5008 L429.2558,182.5008 Z M433.7548,178.0008 C432.5118,178.0008 431.5048,179.0068 431.5048,180.2508 L436.0058,180.2508 C436.0058,179.0068 434.9988,178.0008 433.7548,178.0008 L433.7548,178.0008 Z M424.7558,182.4898 C423.5118,182.4898 422.5058,183.4968 422.5058,184.7398 L427.0058,184.7398 C427.0058,183.4968 425.9998,182.4898 424.7558,182.4898 L424.7558,182.4898 Z M418.0048,184.7398 C418.0048,185.9818 419.0138,186.9898 420.2558,186.9898 C421.4988,186.9898 422.5058,185.9818 422.5058,184.7398 L418.0048,184.7398 Z M420.2568,182.5008 C421.4978,182.5008 422.5068,181.4918 422.5068,180.2508 L418.0058,180.2508 C418.0058,181.4918 419.0128,182.5008 420.2568,182.5008 L420.2568,182.5008 Z M424.7558,178.0008 C423.5118,178.0008 422.5058,179.0068 422.5058,180.2508 L427.0058,180.2508 C427.0058,179.0068 425.9998,178.0008 424.7558,178.0008 L424.7558,178.0008 Z M415.7538,182.4898 C414.5098,182.4898 413.5038,183.4968 413.5038,184.7398 L418.0038,184.7398 C418.0038,183.4968 416.9978,182.4898 415.7538,182.4898 L415.7538,182.4898 Z M409.0038,184.7398 C409.0038,185.9818 410.0118,186.9898 411.2538,186.9898 C412.4958,186.9898 413.5038,185.9818 413.5038,184.7398 L409.0038,184.7398 Z M411.2548,182.5008 C412.4968,182.5008 413.5048,181.4918 413.5048,180.2508 L409.0028,180.2508 C409.0028,181.4918 410.0118,182.5008 411.2548,182.5008 L411.2548,182.5008 Z M415.7538,178.0008 C414.5118,178.0008 413.5038,179.0068 413.5038,180.2508 L418.0038,180.2508 C418.0038,179.0068 416.9978,178.0008 415.7538,178.0008 L415.7538,178.0008 Z M406.7538,182.4898 C405.5098,182.4898 404.5038,183.4968 404.5038,184.7398 L409.0038,184.7398 C409.0038,183.4968 407.9968,182.4898 406.7538,182.4898 L406.7538,182.4898 Z M400.0038,184.7398 C400.0038,185.9818 401.0118,186.9898 402.2538,186.9898 C403.4958,186.9898 404.5038,185.9818 404.5038,184.7398 L400.0038,184.7398 Z M402.2548,182.5008 C403.4968,182.5008 404.5048,181.4918 404.5048,180.2508 L400.0028,180.2508 C400.0028,181.4918 401.0108,182.5008 402.2548,182.5008 L402.2548,182.5008 Z M406.7538,178.0008 C405.5118,178.0008 404.5038,179.0068 404.5038,180.2508 L409.0038,180.2508 C409.0038,179.0068 407.9968,178.0008 406.7538,178.0008 L406.7538,178.0008 Z M397.7538,182.4898 C396.5098,182.4898 395.5038,183.4968 395.5038,184.7398 L400.0038,184.7398 C400.0038,183.4968 398.9958,182.4898 397.7538,182.4898 L397.7538,182.4898 Z M391.0028,184.7398 C391.0028,185.9818 392.0098,186.9898 393.2528,186.9898 C394.4948,186.9898 395.5038,185.9818 395.5038,184.7398 L391.0028,184.7398 Z M393.2538,182.5008 C394.4958,182.5008 395.5038,181.4918 395.5038,180.2508 L391.0038,180.2508 C391.0038,181.4918 392.0098,182.5008 393.2538,182.5008 L393.2538,182.5008 Z M397.7538,178.0008 C396.5098,178.0008 395.5038,179.0068 395.5038,180.2508 L400.0038,180.2508 C400.0038,179.0068 398.9958,178.0008 397.7538,178.0008 L397.7538,178.0008 Z M388.7538,182.4898 C387.5108,182.4898 386.5038,183.4968 386.5038,184.7398 L391.0048,184.7398 C391.0048,183.4968 389.9958,182.4898 388.7538,182.4898 L388.7538,182.4898 Z M382.0038,184.7398 C382.0038,185.9818 383.0108,186.9898 384.2538,186.9898 C385.4958,186.9898 386.5048,185.9818 386.5048,184.7398 L382.0038,184.7398 Z M384.2548,182.5008 C385.4958,182.5008 386.5048,181.4918 386.5048,180.2508 L382.0038,180.2508 C382.0038,181.4918 383.0108,182.5008 384.2548,182.5008 L384.2548,182.5008 Z M388.7538,178.0008 C387.5108,178.0008 386.5038,179.0068 386.5038,180.2508 L391.0048,180.2508 C391.0048,179.0068 389.9958,178.0008 388.7538,178.0008 L388.7538,178.0008 Z M379.7528,182.4898 C378.5088,182.4898 377.5028,183.4968 377.5028,184.7398 L382.0028,184.7398 C382.0028,183.4968 380.9948,182.4898 379.7528,182.4898 L379.7528,182.4898 Z M373.0028,184.7398 C373.0028,185.9818 374.0088,186.9898 375.2528,186.9898 C376.4948,186.9898 377.5028,185.9818 377.5028,184.7398 L373.0028,184.7398 Z M375.2528,182.5008 C376.4948,182.5008 377.5028,181.4918 377.5028,180.2508 L373.0028,180.2508 C373.0028,181.4918 374.0098,182.5008 375.2528,182.5008 L375.2528,182.5008 Z M379.7528,178.0008 C378.5088,178.0008 377.5028,179.0068 377.5028,180.2508 L382.0028,180.2508 C382.0028,179.0068 380.9948,178.0008 379.7528,178.0008 L379.7528,178.0008 Z M388.7528,209.4958 C387.5098,209.4958 386.5028,210.5028 386.5028,211.7458 L391.0038,211.7458 C391.0038,210.5028 389.9948,209.4958 388.7528,209.4958 L388.7528,209.4958 Z M382.0028,211.7458 C382.0028,212.9898 383.0108,213.9958 384.2528,213.9958 C385.4948,213.9958 386.5028,212.9898 386.5028,211.7458 L382.0028,211.7458 Z M384.2538,209.5068 C385.4948,209.5068 386.5038,208.4988 386.5038,207.2568 L382.0028,207.2568 C382.0028,208.4988 383.0098,209.5068 384.2538,209.5068 L384.2538,209.5068 Z M388.7528,205.0068 C387.5098,205.0068 386.5028,206.0128 386.5028,207.2568 L391.0038,207.2568 C391.0038,206.0128 389.9948,205.0068 388.7528,205.0068 L388.7528,205.0068 Z M379.7528,209.4958 C378.5088,209.4958 377.5028,210.5028 377.5028,211.7458 L382.0028,211.7458 C382.0028,210.5028 380.9968,209.4958 379.7528,209.4958 L379.7528,209.4958 Z M373.0028,211.7458 C373.0028,212.9898 374.0108,213.9958 375.2528,213.9958 C376.4948,213.9958 377.5028,212.9898 377.5028,211.7458 L373.0028,211.7458 Z M375.2538,209.5068 C376.4948,209.5068 377.5038,208.4988 377.5038,207.2568 L373.0028,207.2568 C373.0028,208.4988 374.0098,209.5068 375.2538,209.5068 L375.2538,209.5068 Z M379.7528,205.0068 C378.5108,205.0068 377.5028,206.0128 377.5028,207.2568 L382.0028,207.2568 C382.0028,206.0128 380.9968,205.0068 379.7528,205.0068 L379.7528,205.0068 Z M370.7528,209.4958 C369.5088,209.4958 368.5018,210.5028 368.5018,211.7458 L373.0028,211.7458 C373.0028,210.5028 371.9938,209.4958 370.7528,209.4958 L370.7528,209.4958 Z M364.0028,211.7458 C364.0028,212.9898 365.0088,213.9958 366.2528,213.9958 C367.4948,213.9958 368.5028,212.9898 368.5028,211.7458 L364.0028,211.7458 Z M366.2528,209.5068 C367.4948,209.5068 368.5028,208.4988 368.5028,207.2568 L364.0028,207.2568 C364.0028,208.4988 365.0088,209.5068 366.2528,209.5068 L366.2528,209.5068 Z M370.7528,205.0068 C369.5088,205.0068 368.5018,206.0128 368.5018,207.2568 L373.0028,207.2568 C373.0028,206.0128 371.9938,205.0068 370.7528,205.0068 L370.7528,205.0068 Z M361.7518,209.4958 C360.5078,209.4958 359.5018,210.5028 359.5018,211.7458 L364.0018,211.7458 C364.0018,210.5028 362.9958,209.4958 361.7518,209.4958 L361.7518,209.4958 Z M355.0018,211.7458 C355.0018,212.9898 356.0108,213.9958 357.2518,213.9958 C358.4938,213.9958 359.5028,212.9898 359.5028,211.7458 L355.0018,211.7458 Z M357.2528,209.5068 C358.4948,209.5068 359.5028,208.4988 359.5028,207.2568 L355.0008,207.2568 C355.0008,208.4988 356.0098,209.5068 357.2528,209.5068 L357.2528,209.5068 Z M361.7518,205.0068 C360.5098,205.0068 359.5018,206.0128 359.5018,207.2568 L364.0018,207.2568 C364.0018,206.0128 362.9958,205.0068 361.7518,205.0068 L361.7518,205.0068 Z M361.7518,200.4908 C360.5078,200.4908 359.5018,201.4978 359.5018,202.7408 L364.0018,202.7408 C364.0018,201.4978 362.9958,200.4908 361.7518,200.4908 L361.7518,200.4908 Z M355.0018,202.7408 C355.0018,203.9848 356.0108,204.9908 357.2518,204.9908 C358.4938,204.9908 359.5028,203.9848 359.5028,202.7408 L355.0018,202.7408 Z M357.2528,200.5018 C358.4948,200.5018 359.5028,199.4938 359.5028,198.2518 L355.0008,198.2518 C355.0008,199.4938 356.0098,200.5018 357.2528,200.5018 L357.2528,200.5018 Z M361.7518,196.0018 C360.5098,196.0018 359.5018,197.0078 359.5018,198.2518 L364.0018,198.2518 C364.0018,197.0078 362.9958,196.0018 361.7518,196.0018 L361.7518,196.0018 Z M361.7518,191.4958 C360.5078,191.4958 359.5018,192.5028 359.5018,193.7458 L364.0018,193.7458 C364.0018,192.5028 362.9958,191.4958 361.7518,191.4958 L361.7518,191.4958 Z M355.0018,193.7458 C355.0018,194.9898 356.0108,195.9958 357.2518,195.9958 C358.4938,195.9958 359.5028,194.9898 359.5028,193.7458 L355.0018,193.7458 Z M357.2528,191.5068 C358.4948,191.5068 359.5028,190.4988 359.5028,189.2568 L355.0008,189.2568 C355.0008,190.4988 356.0098,191.5068 357.2528,191.5068 L357.2528,191.5068 Z M361.7518,187.0068 C360.5098,187.0068 359.5018,188.0128 359.5018,189.2568 L364.0018,189.2568 C364.0018,188.0128 362.9958,187.0068 361.7518,187.0068 L361.7518,187.0068 Z M361.7518,182.4898 C360.5078,182.4898 359.5018,183.4968 359.5018,184.7398 L364.0018,184.7398 C364.0018,183.4968 362.9958,182.4898 361.7518,182.4898 L361.7518,182.4898 Z M355.0018,184.7398 C355.0018,185.9818 356.0108,186.9898 357.2518,186.9898 C358.4938,186.9898 359.5028,185.9818 359.5028,184.7398 L355.0018,184.7398 Z M357.2528,182.5008 C358.4948,182.5008 359.5028,181.4918 359.5028,180.2508 L355.0008,180.2508 C355.0008,181.4918 356.0098,182.5008 357.2528,182.5008 L357.2528,182.5008 Z M361.7518,178.0008 C360.5098,178.0008 359.5018,179.0068 359.5018,180.2508 L364.0018,180.2508 C364.0018,179.0068 362.9958,178.0008 361.7518,178.0008 L361.7518,178.0008 Z M370.7528,182.4898 C369.5088,182.4898 368.5028,183.4968 368.5028,184.7398 L373.0028,184.7398 C373.0028,183.4968 371.9968,182.4898 370.7528,182.4898 L370.7528,182.4898 Z M364.0028,184.7398 C364.0028,185.9818 365.0108,186.9898 366.2528,186.9898 C367.4948,186.9898 368.5028,185.9818 368.5028,184.7398 L364.0028,184.7398 Z M366.2528,182.5008 C367.4948,182.5008 368.5028,181.4918 368.5028,180.2508 L364.0028,180.2508 C364.0028,181.4918 365.0098,182.5008 366.2528,182.5008 L366.2528,182.5008 Z M370.7528,178.0008 C369.5088,178.0008 368.5028,179.0068 368.5028,180.2508 L373.0028,180.2508 C373.0028,179.0068 371.9968,178.0008 370.7528,178.0008 L370.7528,178.0008 Z M379.7528,173.4898 C378.5088,173.4898 377.5028,174.4958 377.5028,175.7398 L382.0028,175.7398 C382.0028,174.4958 380.9968,173.4898 379.7528,173.4898 L379.7528,173.4898 Z M373.0028,175.7398 C373.0028,176.9838 374.0108,177.9898 375.2528,177.9898 C376.4948,177.9898 377.5028,176.9838 377.5028,175.7398 L373.0028,175.7398 Z M375.2538,173.5008 C376.4948,173.5008 377.5038,172.4918 377.5038,171.2508 L373.0028,171.2508 C373.0028,172.4918 374.0098,173.5008 375.2538,173.5008 L375.2538,173.5008 Z M379.7528,168.9998 C378.5108,168.9998 377.5028,170.0068 377.5028,171.2508 L382.0028,171.2508 C382.0028,170.0068 380.9968,168.9998 379.7528,168.9998 L379.7528,168.9998 Z M397.7538,173.4898 C396.5098,173.4898 395.5038,174.4958 395.5038,175.7398 L400.0038,175.7398 C400.0038,174.4958 398.9958,173.4898 397.7538,173.4898 L397.7538,173.4898 Z M391.0028,175.7398 C391.0028,176.9838 392.0098,177.9898 393.2528,177.9898 C394.4948,177.9898 395.5038,176.9838 395.5038,175.7398 L391.0028,175.7398 Z M393.2538,173.5008 C394.4958,173.5008 395.5038,172.4918 395.5038,171.2508 L391.0038,171.2508 C391.0038,172.4918 392.0098,173.5008 393.2538,173.5008 L393.2538,173.5008 Z M397.7538,168.9998 C396.5098,168.9998 395.5038,170.0068 395.5038,171.2508 L400.0038,171.2508 C400.0038,170.0068 398.9958,168.9998 397.7538,168.9998 L397.7538,168.9998 Z M406.7548,164.4898 C405.5108,164.4898 404.5048,165.4958 404.5048,166.7398 L409.0048,166.7398 C409.0048,165.4958 407.9968,164.4898 406.7548,164.4898 L406.7548,164.4898 Z M400.0038,166.7398 C400.0038,167.9828 401.0108,168.9898 402.2538,168.9898 C403.4978,168.9898 404.5048,167.9828 404.5048,166.7398 L400.0038,166.7398 Z M402.2548,164.4998 C403.4968,164.4998 404.5048,163.4918 404.5048,162.2498 L400.0048,162.2498 C400.0048,163.4918 401.0128,164.4998 402.2548,164.4998 L402.2548,164.4998 Z M406.7548,159.9998 C405.5108,159.9998 404.5048,161.0068 404.5048,162.2498 L409.0048,162.2498 C409.0048,161.0068 407.9968,159.9998 406.7548,159.9998 L406.7548,159.9998 Z M397.7538,164.4898 C396.5098,164.4898 395.5038,165.4958 395.5038,166.7398 L400.0038,166.7398 C400.0038,165.4958 398.9958,164.4898 397.7538,164.4898 L397.7538,164.4898 Z M391.0028,166.7398 C391.0028,167.9828 392.0098,168.9898 393.2528,168.9898 C394.4948,168.9898 395.5038,167.9828 395.5038,166.7398 L391.0028,166.7398 Z M393.2538,164.4998 C394.4958,164.4998 395.5038,163.4918 395.5038,162.2498 L391.0038,162.2498 C391.0038,163.4918 392.0098,164.4998 393.2538,164.4998 L393.2538,164.4998 Z M397.7538,159.9998 C396.5098,159.9998 395.5038,161.0068 395.5038,162.2498 L400.0038,162.2498 C400.0038,161.0068 398.9958,159.9998 397.7538,159.9998 L397.7538,159.9998 Z M406.7548,209.4908 C405.5108,209.4908 404.5048,210.4978 404.5048,211.7408 L409.0048,211.7408 C409.0048,210.4978 407.9968,209.4908 406.7548,209.4908 L406.7548,209.4908 Z M400.0038,211.7408 C400.0038,212.9828 401.0108,213.9908 402.2538,213.9908 C403.4978,213.9908 404.5048,212.9828 404.5048,211.7408 L400.0038,211.7408 Z M402.2548,209.5018 C403.4968,209.5018 404.5048,208.4938 404.5048,207.2518 L400.0048,207.2518 C400.0048,208.4938 401.0128,209.5018 402.2548,209.5018 L402.2548,209.5018 Z M406.7548,205.0018 C405.5108,205.0018 404.5048,206.0078 404.5048,207.2518 L409.0048,207.2518 C409.0048,206.0078 407.9968,205.0018 406.7548,205.0018 L406.7548,205.0018 Z M397.7538,209.4908 C396.5098,209.4908 395.5038,210.4978 395.5038,211.7408 L400.0038,211.7408 C400.0038,210.4978 398.9958,209.4908 397.7538,209.4908 L397.7538,209.4908 Z M391.0028,211.7408 C391.0028,212.9828 392.0098,213.9908 393.2528,213.9908 C394.4948,213.9908 395.5038,212.9828 395.5038,211.7408 L391.0028,211.7408 Z M393.2538,209.5018 C394.4958,209.5018 395.5038,208.4938 395.5038,207.2518 L391.0038,207.2518 C391.0038,208.4938 392.0098,209.5018 393.2538,209.5018 L393.2538,209.5018 Z M397.7538,205.0018 C396.5098,205.0018 395.5038,206.0078 395.5038,207.2518 L400.0038,207.2518 C400.0038,206.0078 398.9958,205.0018 397.7538,205.0018 L397.7538,205.0018 Z M424.7538,236.4868 C423.5108,236.4868 422.5038,237.4928 422.5038,238.7368 L427.0048,238.7368 C427.0048,237.4928 425.9978,236.4868 424.7538,236.4868 L424.7538,236.4868 Z M418.0038,238.7368 C418.0038,239.9788 419.0128,240.9868 420.2548,240.9868 C421.4958,240.9868 422.5048,239.9788 422.5048,238.7368 L418.0038,238.7368 Z M420.2548,236.4978 C421.4968,236.4978 422.5048,235.4888 422.5048,234.2478 L418.0048,234.2478 C418.0048,235.4888 419.0108,236.4978 420.2548,236.4978 L420.2548,236.4978 Z M424.7538,231.9978 C423.5128,231.9978 422.5038,233.0038 422.5038,234.2478 L427.0048,234.2478 C427.0048,233.0038 425.9978,231.9978 424.7538,231.9978 L424.7538,231.9978 Z M400.0038,202.7358 C400.0038,203.9768 401.0118,204.9858 402.2538,204.9858 C403.4958,204.9858 404.5038,203.9768 404.5038,202.7358 L400.0038,202.7358 Z M402.2548,200.4958 C403.4968,200.4958 404.5048,199.4878 404.5048,198.2458 L400.0028,198.2458 C400.0028,199.4878 401.0108,200.4958 402.2548,200.4958 L402.2548,200.4958 Z M397.7538,200.4858 C396.5098,200.4858 395.5038,201.4918 395.5038,202.7358 L400.0038,202.7358 C400.0038,201.4918 398.9968,200.4858 397.7538,200.4858 L397.7538,200.4858 Z M397.7538,195.9958 C396.5118,195.9958 395.5038,197.0028 395.5038,198.2468 L400.0038,198.2468 C400.0038,197.0028 398.9968,195.9958 397.7538,195.9958 L397.7538,195.9958 Z M400.0038,193.7408 C400.0038,194.9828 401.0118,195.9908 402.2538,195.9908 C403.4958,195.9908 404.5038,194.9828 404.5038,193.7408 L400.0038,193.7408 Z M402.2548,191.5018 C403.4968,191.5018 404.5048,190.4928 404.5048,189.2518 L400.0028,189.2518 C400.0028,190.4928 401.0108,191.5018 402.2548,191.5018 L402.2548,191.5018 Z M397.7538,191.4908 C396.5098,191.4908 395.5038,192.4968 395.5038,193.7408 L400.0038,193.7408 C400.0038,192.4968 398.9968,191.4908 397.7538,191.4908 L397.7538,191.4908 Z M397.7538,187.0018 C396.5118,187.0018 395.5038,188.0078 395.5038,189.2518 L400.0038,189.2518 C400.0038,188.0078 398.9968,187.0018 397.7538,187.0018 L397.7538,187.0018 Z M379.7528,236.4868 C378.5098,236.4868 377.5028,237.4928 377.5028,238.7368 L382.0038,238.7368 C382.0038,237.4928 380.9968,236.4868 379.7528,236.4868 L379.7528,236.4868 Z M373.0028,238.7368 C373.0028,239.9788 374.0108,240.9868 375.2528,240.9868 C376.4948,240.9868 377.5028,239.9788 377.5028,238.7368 L373.0028,238.7368 Z M375.2538,236.4978 C376.4948,236.4978 377.5038,235.4888 377.5038,234.2478 L373.0028,234.2478 C373.0028,235.4888 374.0098,236.4978 375.2538,236.4978 L375.2538,236.4978 Z M379.7528,231.9978 C378.5098,231.9978 377.5028,233.0038 377.5028,234.2478 L382.0038,234.2478 C382.0038,233.0038 380.9968,231.9978 379.7528,231.9978 L379.7528,231.9978 Z M388.7528,218.4908 C387.5098,218.4908 386.5028,219.4978 386.5028,220.7408 L391.0038,220.7408 C391.0038,219.4978 389.9948,218.4908 388.7528,218.4908 L388.7528,218.4908 Z M382.0028,220.7408 C382.0028,221.9848 383.0108,222.9918 384.2528,222.9918 C385.4948,222.9918 386.5028,221.9848 386.5028,220.7408 L382.0028,220.7408 Z M375.2528,218.5018 C376.4948,218.5018 377.5028,217.4938 377.5028,216.2518 L373.0028,216.2518 C373.0028,217.4938 374.0098,218.5018 375.2528,218.5018 L375.2528,218.5018 Z M379.7528,214.0018 C378.5088,214.0018 377.5028,215.0088 377.5028,216.2518 L382.0028,216.2518 C382.0028,215.0088 380.9948,214.0018 379.7528,214.0018 L379.7528,214.0018 Z M370.7528,218.4968 C369.5088,218.4968 368.5018,219.5038 368.5018,220.7468 L373.0028,220.7468 C373.0028,219.5038 371.9958,218.4968 370.7528,218.4968 L370.7528,218.4968 Z M364.0028,220.7468 C364.0028,221.9908 365.0108,222.9968 366.2528,222.9968 C367.4948,222.9968 368.5028,221.9908 368.5028,220.7468 L364.0028,220.7468 Z M366.2528,218.5078 C367.4948,218.5078 368.5028,217.4988 368.5028,216.2578 L364.0028,216.2578 C364.0028,217.4988 365.0098,218.5078 366.2528,218.5078 L366.2528,218.5078 Z M370.7528,214.0078 C369.5108,214.0078 368.5018,215.0138 368.5018,216.2578 L373.0028,216.2578 C373.0028,215.0138 371.9958,214.0078 370.7528,214.0078 L370.7528,214.0078 Z M361.7518,218.4968 C360.5078,218.4968 359.5018,219.5038 359.5018,220.7468 L364.0018,220.7468 C364.0018,219.5038 362.9938,218.4968 361.7518,218.4968 L361.7518,218.4968 Z M355.0018,220.7468 C355.0018,221.9908 356.0088,222.9968 357.2518,222.9968 C358.4938,222.9968 359.5028,221.9908 359.5028,220.7468 L355.0018,220.7468 Z M357.2528,218.5078 C358.4948,218.5078 359.5028,217.4988 359.5028,216.2578 L355.0028,216.2578 C355.0028,217.4988 356.0088,218.5078 357.2528,218.5078 L357.2528,218.5078 Z M361.7518,214.0078 C360.5078,214.0078 359.5018,215.0138 359.5018,216.2578 L364.0018,216.2578 C364.0018,215.0138 362.9938,214.0078 361.7518,214.0078 L361.7518,214.0078 Z M424.7538,227.4918 C423.5108,227.4918 422.5038,228.4978 422.5038,229.7418 L427.0048,229.7418 C427.0048,228.4978 425.9958,227.4918 424.7538,227.4918 L424.7538,227.4918 Z M418.0038,229.7418 C418.0038,230.9848 419.0108,231.9918 420.2548,231.9918 C421.4958,231.9918 422.5048,230.9848 422.5048,229.7418 L418.0038,229.7418 Z M420.2548,227.5018 C421.4968,227.5018 422.5048,226.4938 422.5048,225.2518 L418.0048,225.2518 C418.0048,226.4938 419.0108,227.5018 420.2548,227.5018 L420.2548,227.5018 Z M406.7548,218.4968 C405.5108,218.4968 404.5048,219.5038 404.5048,220.7468 L409.0048,220.7468 C409.0048,219.5038 407.9968,218.4968 406.7548,218.4968 L406.7548,218.4968 Z M400.0038,220.7468 C400.0038,221.9908 401.0108,222.9968 402.2538,222.9968 C403.4978,222.9968 404.5048,221.9908 404.5048,220.7468 L400.0038,220.7468 Z M397.7538,218.4968 C396.5098,218.4968 395.5038,219.5038 395.5038,220.7468 L400.0038,220.7468 C400.0038,219.5038 398.9978,218.4968 397.7538,218.4968 L397.7538,218.4968 Z M391.0028,220.7468 C391.0028,221.9908 392.0118,222.9968 393.2528,222.9968 C394.4968,222.9968 395.5038,221.9908 395.5038,220.7468 L391.0028,220.7468 Z M406.7548,236.4868 C405.5108,236.4868 404.5048,237.4928 404.5048,238.7368 L409.0048,238.7368 C409.0048,237.4928 407.9968,236.4868 406.7548,236.4868 L406.7548,236.4868 Z M400.0038,238.7368 C400.0038,239.9808 401.0108,240.9868 402.2538,240.9868 C403.4978,240.9868 404.5048,239.9808 404.5048,238.7368 L400.0038,238.7368 Z M402.2548,236.4978 C403.4968,236.4978 404.5048,235.4888 404.5048,234.2478 L400.0048,234.2478 C400.0048,235.4888 401.0128,236.4978 402.2548,236.4978 L402.2548,236.4978 Z M406.7548,231.9978 C405.5108,231.9978 404.5048,233.0038 404.5048,234.2478 L409.0048,234.2478 C409.0048,233.0038 407.9968,231.9978 406.7548,231.9978 L406.7548,231.9978 Z M415.7538,236.4868 C414.5098,236.4868 413.5038,237.4928 413.5038,238.7368 L418.0038,238.7368 C418.0038,237.4928 416.9958,236.4868 415.7538,236.4868 L415.7538,236.4868 Z M409.0038,238.7368 C409.0038,239.9808 410.0098,240.9868 411.2538,240.9868 C412.4958,240.9868 413.5038,239.9808 413.5038,238.7368 L409.0038,238.7368 Z M411.2538,236.4978 C412.4958,236.4978 413.5038,235.4888 413.5038,234.2478 L409.0038,234.2478 C409.0038,235.4888 410.0118,236.4978 411.2538,236.4978 L411.2538,236.4978 Z M415.7538,231.9978 C414.5098,231.9978 413.5038,233.0038 413.5038,234.2478 L418.0038,234.2478 C418.0038,233.0038 416.9958,231.9978 415.7538,231.9978 L415.7538,231.9978 Z M397.7538,236.4868 C396.5098,236.4868 395.5038,237.4928 395.5038,238.7368 L400.0038,238.7368 C400.0038,237.4928 398.9978,236.4868 397.7538,236.4868 L397.7538,236.4868 Z M391.0028,238.7368 C391.0028,239.9808 392.0118,240.9868 393.2528,240.9868 C394.4968,240.9868 395.5038,239.9808 395.5038,238.7368 L391.0028,238.7368 Z M393.2548,236.4978 C394.4958,236.4978 395.5048,235.4888 395.5048,234.2478 L391.0038,234.2478 C391.0038,235.4888 392.0108,236.4978 393.2548,236.4978 L393.2548,236.4978 Z M397.7538,231.9978 C396.5098,231.9978 395.5038,233.0038 395.5038,234.2478 L400.0038,234.2478 C400.0038,233.0038 398.9978,231.9978 397.7538,231.9978 L397.7538,231.9978 Z M388.7528,236.4868 C387.5098,236.4868 386.5028,237.4928 386.5028,238.7368 L391.0038,238.7368 C391.0038,237.4928 389.9968,236.4868 388.7528,236.4868 L388.7528,236.4868 Z M382.0028,238.7368 C382.0028,239.9808 383.0108,240.9868 384.2528,240.9868 C385.4948,240.9868 386.5028,239.9808 386.5028,238.7368 L382.0028,238.7368 Z M384.2538,236.4978 C385.4958,236.4978 386.5038,235.4888 386.5038,234.2478 L382.0018,234.2478 C382.0018,235.4888 383.0098,236.4978 384.2538,236.4978 L384.2538,236.4978 Z M388.7528,231.9978 C387.5118,231.9978 386.5028,233.0038 386.5028,234.2478 L391.0038,234.2478 C391.0038,233.0038 389.9968,231.9978 388.7528,231.9978 L388.7528,231.9978 Z M406.7548,227.4918 C405.5108,227.4918 404.5048,228.4978 404.5048,229.7418 L409.0048,229.7418 C409.0048,228.4978 407.9968,227.4918 406.7548,227.4918 L406.7548,227.4918 Z M400.0038,229.7418 C400.0038,230.9848 401.0108,231.9918 402.2538,231.9918 C403.4978,231.9918 404.5048,230.9848 404.5048,229.7418 L400.0038,229.7418 Z M402.2548,227.5018 C403.4968,227.5018 404.5048,226.4938 404.5048,225.2518 L400.0048,225.2518 C400.0048,226.4938 401.0128,227.5018 402.2548,227.5018 L402.2548,227.5018 Z M406.7548,223.0018 C405.5108,223.0018 404.5048,224.0088 404.5048,225.2528 L409.0048,225.2528 C409.0048,224.0088 407.9968,223.0018 406.7548,223.0018 L406.7548,223.0018 Z M415.7538,227.4918 C414.5098,227.4918 413.5038,228.4978 413.5038,229.7418 L418.0038,229.7418 C418.0038,228.4978 416.9958,227.4918 415.7538,227.4918 L415.7538,227.4918 Z M409.0038,229.7418 C409.0038,230.9848 410.0098,231.9918 411.2538,231.9918 C412.4958,231.9918 413.5038,230.9848 413.5038,229.7418 L409.0038,229.7418 Z M411.2538,227.5018 C412.4958,227.5018 413.5038,226.4938 413.5038,225.2518 L409.0038,225.2518 C409.0038,226.4938 410.0118,227.5018 411.2538,227.5018 L411.2538,227.5018 Z M415.7538,223.0018 C414.5098,223.0018 413.5038,224.0088 413.5038,225.2528 L418.0038,225.2528 C418.0038,224.0088 416.9958,223.0018 415.7538,223.0018 L415.7538,223.0018 Z M397.7538,227.4918 C396.5098,227.4918 395.5038,228.4978 395.5038,229.7418 L400.0038,229.7418 C400.0038,228.4978 398.9978,227.4918 397.7538,227.4918 L397.7538,227.4918 Z M391.0028,229.7418 C391.0028,230.9848 392.0118,231.9918 393.2528,231.9918 C394.4968,231.9918 395.5038,230.9848 395.5038,229.7418 L391.0028,229.7418 Z M393.2548,227.5018 C394.4958,227.5018 395.5048,226.4938 395.5048,225.2518 L391.0038,225.2518 C391.0038,226.4938 392.0108,227.5018 393.2548,227.5018 L393.2548,227.5018 Z M397.7538,223.0018 C396.5098,223.0018 395.5038,224.0088 395.5038,225.2528 L400.0038,225.2528 C400.0038,224.0088 398.9978,223.0018 397.7538,223.0018 L397.7538,223.0018 Z M379.7538,227.4918 C378.5098,227.4918 377.5038,228.4978 377.5038,229.7418 L382.0038,229.7418 C382.0038,228.4978 380.9968,227.4918 379.7538,227.4918 L379.7538,227.4918 Z M373.0038,229.7418 C373.0038,230.9848 374.0118,231.9918 375.2538,231.9918 C376.4958,231.9918 377.5038,230.9848 377.5038,229.7418 L373.0038,229.7418 Z M375.2548,227.5018 C376.4968,227.5018 377.5048,226.4938 377.5048,225.2518 L373.0028,225.2518 C373.0028,226.4938 374.0108,227.5018 375.2548,227.5018 L375.2548,227.5018 Z M379.7538,223.0018 C378.5118,223.0018 377.5038,224.0088 377.5038,225.2528 L382.0038,225.2528 C382.0038,224.0088 380.9968,223.0018 379.7538,223.0018 L379.7538,223.0018 Z M388.7528,227.4918 C387.5098,227.4918 386.5028,228.4978 386.5028,229.7418 L391.0038,229.7418 C391.0038,228.4978 389.9968,227.4918 388.7528,227.4918 L388.7528,227.4918 Z M382.0028,229.7418 C382.0028,230.9848 383.0108,231.9918 384.2528,231.9918 C385.4948,231.9918 386.5028,230.9848 386.5028,229.7418 L382.0028,229.7418 Z M384.2538,227.5018 C385.4958,227.5018 386.5038,226.4938 386.5038,225.2518 L382.0018,225.2518 C382.0018,226.4938 383.0098,227.5018 384.2538,227.5018 L384.2538,227.5018 Z M388.7528,223.0018 C387.5118,223.0018 386.5028,224.0088 386.5028,225.2528 L391.0038,225.2528 C391.0038,224.0088 389.9968,223.0018 388.7528,223.0018 L388.7528,223.0018 Z M370.7528,227.4918 C369.5088,227.4918 368.5018,228.4978 368.5018,229.7418 L373.0028,229.7418 C373.0028,228.4978 371.9958,227.4918 370.7528,227.4918 L370.7528,227.4918 Z M364.0028,229.7418 C364.0028,230.9848 365.0108,231.9918 366.2528,231.9918 C367.4948,231.9918 368.5028,230.9848 368.5028,229.7418 L364.0028,229.7418 Z M357.2528,227.5018 C358.4948,227.5018 359.5028,226.4938 359.5028,225.2518 L355.0028,225.2518 C355.0028,226.4938 356.0088,227.5018 357.2528,227.5018 L357.2528,227.5018 Z M361.7518,223.0018 C360.5078,223.0018 359.5018,224.0088 359.5018,225.2528 L364.0018,225.2528 C364.0018,224.0088 362.9938,223.0018 361.7518,223.0018 L361.7518,223.0018 Z M343.7528,245.4918 C342.5088,245.4918 341.5028,246.4988 341.5028,247.7418 L346.0028,247.7418 C346.0028,246.4988 344.9948,245.4918 343.7528,245.4918 L343.7528,245.4918 Z M343.7528,241.0028 C342.5088,241.0028 341.5028,242.0088 341.5028,243.2528 L346.0028,243.2528 C346.0028,242.0088 344.9948,241.0028 343.7528,241.0028 L343.7528,241.0028 Z M454.0048,247.7418 C454.0048,248.9858 455.0138,249.9918 456.2558,249.9918 C457.4968,249.9918 458.5058,248.9858 458.5058,247.7418 L454.0048,247.7418 Z M456.2568,245.5028 C457.4988,245.5028 458.5068,244.4948 458.5068,243.2528 L454.0048,243.2528 C454.0048,244.4948 455.0128,245.5028 456.2568,245.5028 L456.2568,245.5028 Z M352.7528,254.4918 C351.5088,254.4918 350.5028,255.4988 350.5028,256.7418 L355.0028,256.7418 C355.0028,255.4988 353.9958,254.4918 352.7528,254.4918 L352.7528,254.4918 Z M346.0018,256.7418 C346.0018,257.9858 347.0098,258.9918 348.2518,258.9918 C349.4958,258.9918 350.5018,257.9858 350.5018,256.7418 L346.0018,256.7418 Z M348.2528,254.5028 C349.4948,254.5028 350.5028,253.4948 350.5028,252.2528 L346.0028,252.2528 C346.0028,253.4948 347.0088,254.5028 348.2528,254.5028 L348.2528,254.5028 Z M352.7528,250.0028 C351.5088,250.0028 350.5028,251.0088 350.5028,252.2528 L355.0028,252.2528 C355.0028,251.0088 353.9958,250.0028 352.7528,250.0028 L352.7528,250.0028 Z M451.7568,254.4918 C450.5128,254.4918 449.5058,255.4988 449.5058,256.7418 L454.0068,256.7418 C454.0068,255.4988 452.9978,254.4918 451.7568,254.4918 L451.7568,254.4918 Z M445.0058,256.7418 C445.0058,257.9858 446.0118,258.9918 447.2558,258.9918 C448.4998,258.9918 449.5058,257.9858 449.5058,256.7418 L445.0058,256.7418 Z M447.2558,254.5028 C448.4978,254.5028 449.5068,253.4948 449.5068,252.2528 L445.0058,252.2528 C445.0058,253.4948 446.0148,254.5028 447.2558,254.5028 L447.2558,254.5028 Z M451.7568,250.0028 C450.5128,250.0028 449.5058,251.0088 449.5058,252.2528 L454.0068,252.2528 C454.0068,251.0088 452.9978,250.0028 451.7568,250.0028 L451.7568,250.0028 Z M361.7528,263.4928 C360.5088,263.4928 359.5018,264.4988 359.5018,265.7428 L364.0028,265.7428 C364.0028,264.4988 362.9958,263.4928 361.7528,263.4928 L361.7528,263.4928 Z M355.0018,265.7428 C355.0018,266.9868 356.0108,267.9928 357.2518,267.9928 C358.4958,267.9928 359.5028,266.9868 359.5028,265.7428 L355.0018,265.7428 Z M357.2528,263.5038 C358.4948,263.5038 359.5028,262.4948 359.5028,261.2538 L355.0028,261.2538 C355.0028,262.4948 356.0098,263.5038 357.2528,263.5038 L357.2528,263.5038 Z M361.7528,259.0038 C360.5088,259.0038 359.5018,260.0098 359.5018,261.2538 L364.0028,261.2538 C364.0028,260.0098 362.9958,259.0038 361.7528,259.0038 L361.7528,259.0038 Z M442.7548,254.4968 C441.5118,254.4968 440.5048,255.5028 440.5048,256.7468 L445.0048,256.7468 C445.0048,255.5028 443.9988,254.4968 442.7548,254.4968 L442.7548,254.4968 Z M436.0048,256.7468 C436.0048,257.9898 437.0128,258.9968 438.2548,258.9968 C439.4968,258.9968 440.5048,257.9898 440.5048,256.7468 L436.0048,256.7468 Z M438.2558,254.5078 C439.4978,254.5078 440.5058,253.4988 440.5058,252.2568 L436.0038,252.2568 C436.0038,253.4988 437.0118,254.5078 438.2558,254.5078 L438.2558,254.5078 Z M442.7548,250.0068 C441.5138,250.0068 440.5048,251.0138 440.5048,252.2578 L445.0048,252.2578 C445.0048,251.0138 443.9988,250.0068 442.7548,250.0068 L442.7548,250.0068 Z M442.7548,263.4928 C441.5118,263.4928 440.5048,264.4988 440.5048,265.7428 L445.0048,265.7428 C445.0048,264.4988 443.9988,263.4928 442.7548,263.4928 L442.7548,263.4928 Z M436.0048,265.7428 C436.0048,266.9868 437.0128,267.9928 438.2548,267.9928 C439.4968,267.9928 440.5048,266.9868 440.5048,265.7428 L436.0048,265.7428 Z M438.2558,263.5038 C439.4978,263.5038 440.5058,262.4948 440.5058,261.2538 L436.0038,261.2538 C436.0038,262.4948 437.0118,263.5038 438.2558,263.5038 L438.2558,263.5038 Z M442.7548,259.0038 C441.5138,259.0038 440.5048,260.0098 440.5048,261.2538 L445.0048,261.2538 C445.0048,260.0098 443.9988,259.0038 442.7548,259.0038 L442.7548,259.0038 Z M370.7528,272.4928 C369.5098,272.4928 368.5028,273.4988 368.5028,274.7428 L373.0038,274.7428 C373.0038,273.4988 371.9948,272.4928 370.7528,272.4928 L370.7528,272.4928 Z M364.0028,274.7428 C364.0028,275.9858 365.0088,276.9928 366.2528,276.9928 C367.4948,276.9928 368.5028,275.9858 368.5028,274.7428 L364.0028,274.7428 Z M366.2528,272.5038 C367.4948,272.5038 368.5028,271.4948 368.5028,270.2528 L364.0028,270.2528 C364.0028,271.4948 365.0108,272.5038 366.2528,272.5038 L366.2528,272.5038 Z M370.7528,268.0028 C369.5098,268.0028 368.5028,269.0098 368.5028,270.2538 L373.0038,270.2538 C373.0038,269.0098 371.9948,268.0028 370.7528,268.0028 L370.7528,268.0028 Z M433.7538,272.4928 C432.5108,272.4928 431.5038,273.4988 431.5038,274.7428 L436.0048,274.7428 C436.0048,273.4988 434.9978,272.4928 433.7538,272.4928 L433.7538,272.4928 Z M427.0028,274.7428 C427.0028,275.9858 428.0118,276.9928 429.2538,276.9928 C430.4968,276.9928 431.5038,275.9858 431.5038,274.7428 L427.0028,274.7428 Z M429.2548,272.5038 C430.4958,272.5038 431.5048,271.4948 431.5048,270.2528 L427.0038,270.2528 C427.0038,271.4948 428.0108,272.5038 429.2548,272.5038 L429.2548,272.5038 Z M433.7538,268.0028 C432.5108,268.0028 431.5038,269.0098 431.5038,270.2538 L436.0048,270.2538 C436.0048,269.0098 434.9978,268.0028 433.7538,268.0028 L433.7538,268.0028 Z M406.7538,281.4928 C405.5098,281.4928 404.5038,282.4998 404.5038,283.7438 L409.0038,283.7438 C409.0038,282.4998 407.9958,281.4928 406.7538,281.4928 L406.7538,281.4928 Z M400.0038,283.7438 C400.0038,284.9868 401.0098,285.9938 402.2538,285.9938 C403.4958,285.9938 404.5038,284.9868 404.5038,283.7438 L400.0038,283.7438 Z M402.2538,281.5038 C403.4958,281.5038 404.5048,280.4958 404.5048,279.2538 L400.0038,279.2538 C400.0038,280.4958 401.0108,281.5038 402.2538,281.5038 L402.2538,281.5038 Z M406.7538,277.0038 C405.5098,277.0038 404.5038,278.0108 404.5038,279.2538 L409.0038,279.2538 C409.0038,278.0108 407.9958,277.0038 406.7538,277.0038 L406.7538,277.0038 Z M415.7538,281.4928 C414.5098,281.4928 413.5038,282.4998 413.5038,283.7438 L418.0038,283.7438 C418.0038,282.4998 416.9968,281.4928 415.7538,281.4928 L415.7538,281.4928 Z M409.0028,283.7438 C409.0028,284.9868 410.0118,285.9938 411.2528,285.9938 C412.4948,285.9938 413.5038,284.9868 413.5038,283.7438 L409.0028,283.7438 Z M411.2538,281.5038 C412.4958,281.5038 413.5038,280.4958 413.5038,279.2538 L409.0038,279.2538 C409.0038,280.4958 410.0098,281.5038 411.2538,281.5038 L411.2538,281.5038 Z M415.7538,277.0038 C414.5098,277.0038 413.5038,278.0108 413.5038,279.2538 L418.0038,279.2538 C418.0038,278.0108 416.9968,277.0038 415.7538,277.0038 L415.7538,277.0038 Z M388.7538,281.4928 C387.5098,281.4928 386.5038,282.4998 386.5038,283.7438 L391.0038,283.7438 C391.0038,282.4998 389.9968,281.4928 388.7538,281.4928 L388.7538,281.4928 Z M382.0028,283.7438 C382.0028,284.9868 383.0108,285.9938 384.2528,285.9938 C385.4968,285.9938 386.5028,284.9868 386.5028,283.7438 L382.0028,283.7438 Z M384.2538,281.5038 C385.4958,281.5038 386.5038,280.4958 386.5038,279.2538 L382.0038,279.2538 C382.0038,280.4958 383.0098,281.5038 384.2538,281.5038 L384.2538,281.5038 Z M388.7538,277.0038 C387.5098,277.0038 386.5038,278.0108 386.5038,279.2538 L391.0038,279.2538 C391.0038,278.0108 389.9968,277.0038 388.7538,277.0038 L388.7538,277.0038 Z M397.7538,281.4928 C396.5098,281.4928 395.5038,282.4998 395.5038,283.7438 L400.0038,283.7438 C400.0038,282.4998 398.9958,281.4928 397.7538,281.4928 L397.7538,281.4928 Z M391.0028,283.7438 C391.0028,284.9868 392.0098,285.9938 393.2528,285.9938 C394.4948,285.9938 395.5038,284.9868 395.5038,283.7438 L391.0028,283.7438 Z M393.2538,281.5038 C394.4958,281.5038 395.5038,280.4958 395.5038,279.2538 L391.0038,279.2538 C391.0038,280.4958 392.0098,281.5038 393.2538,281.5038 L393.2538,281.5038 Z M397.7538,277.0038 C396.5098,277.0038 395.5038,278.0108 395.5038,279.2538 L400.0038,279.2538 C400.0038,278.0108 398.9958,277.0038 397.7538,277.0038 L397.7538,277.0038 Z M379.7528,294.9828 C378.5088,294.9828 377.5028,295.9898 377.5028,297.2328 L382.0028,297.2328 C382.0028,295.9898 380.9948,294.9828 379.7528,294.9828 L379.7528,294.9828 Z M373.0028,297.2328 C373.0028,298.4748 374.0088,299.4828 375.2528,299.4828 C376.4948,299.4828 377.5028,298.4748 377.5028,297.2328 L373.0028,297.2328 Z M375.2528,294.9938 C376.4948,294.9938 377.5028,293.9858 377.5028,292.7438 L373.0028,292.7438 C373.0028,293.9858 374.0098,294.9938 375.2528,294.9938 L375.2528,294.9938 Z M379.7528,290.4938 C378.5088,290.4938 377.5028,291.4998 377.5028,292.7438 L382.0028,292.7438 C382.0028,291.4998 380.9948,290.4938 379.7528,290.4938 L379.7528,290.4938 Z M370.7528,299.4998 C369.5088,299.4998 368.5018,300.5058 368.5018,301.7498 L373.0028,301.7498 C373.0028,300.5058 371.9958,299.4998 370.7528,299.4998 L370.7528,299.4998 Z M364.0028,301.7498 C364.0028,302.9938 365.0108,303.9998 366.2528,303.9998 C367.4948,303.9998 368.5028,302.9938 368.5028,301.7498 L364.0028,301.7498 Z M366.2528,299.5108 C367.4948,299.5108 368.5028,298.5018 368.5028,297.2598 L364.0028,297.2598 C364.0028,298.5018 365.0098,299.5108 366.2528,299.5108 L366.2528,299.5108 Z M370.7528,295.0098 C369.5108,295.0098 368.5018,296.0168 368.5018,297.2608 L373.0028,297.2608 C373.0028,296.0168 371.9958,295.0098 370.7528,295.0098 L370.7528,295.0098 Z M361.7518,294.9828 C360.5078,294.9828 359.5018,295.9898 359.5018,297.2328 L364.0018,297.2328 C364.0018,295.9898 362.9938,294.9828 361.7518,294.9828 L361.7518,294.9828 Z M355.0018,297.2328 C355.0018,298.4748 356.0088,299.4828 357.2518,299.4828 C358.4938,299.4828 359.5028,298.4748 359.5028,297.2328 L355.0018,297.2328 Z M357.2528,294.9938 C358.4948,294.9938 359.5028,293.9858 359.5028,292.7438 L355.0028,292.7438 C355.0028,293.9858 356.0088,294.9938 357.2528,294.9938 L357.2528,294.9938 Z M361.7518,290.4938 C360.5078,290.4938 359.5018,291.4998 359.5018,292.7438 L364.0018,292.7438 C364.0018,291.4998 362.9938,290.4938 361.7518,290.4938 L361.7518,290.4938 Z M352.7518,299.4998 C351.5078,299.4998 350.5018,300.5058 350.5018,301.7498 L355.0018,301.7498 C355.0018,300.5058 353.9948,299.4998 352.7518,299.4998 L352.7518,299.4998 Z M346.0018,301.7498 C346.0018,302.9938 347.0098,303.9998 348.2518,303.9998 C349.4938,303.9998 350.5018,302.9938 350.5018,301.7498 L346.0018,301.7498 Z M348.2528,299.5108 C349.4948,299.5108 350.5028,298.5018 350.5028,297.2598 L346.0008,297.2598 C346.0008,298.5018 347.0088,299.5108 348.2528,299.5108 L348.2528,299.5108 Z M352.7518,295.0098 C351.5098,295.0098 350.5018,296.0168 350.5018,297.2608 L355.0018,297.2608 C355.0018,296.0168 353.9948,295.0098 352.7518,295.0098 L352.7518,295.0098 Z M343.7518,294.9828 C342.5078,294.9828 341.5018,295.9898 341.5018,297.2328 L346.0018,297.2328 C346.0018,295.9898 344.9938,294.9828 343.7518,294.9828 L343.7518,294.9828 Z M337.0008,297.2328 C337.0008,298.4748 338.0098,299.4828 339.2508,299.4828 C340.4928,299.4828 341.5018,298.4748 341.5018,297.2328 L337.0008,297.2328 Z M339.2518,294.9938 C340.4938,294.9938 341.5018,293.9858 341.5018,292.7438 L337.0018,292.7438 C337.0018,293.9858 338.0078,294.9938 339.2518,294.9938 L339.2518,294.9938 Z M343.7518,290.4938 C342.5078,290.4938 341.5018,291.4998 341.5018,292.7438 L346.0018,292.7438 C346.0018,291.4998 344.9938,290.4938 343.7518,290.4938 L343.7518,290.4938 Z M334.7508,299.4998 C333.5078,299.4998 332.5008,300.5058 332.5008,301.7498 L337.0018,301.7498 C337.0018,300.5058 335.9948,299.4998 334.7508,299.4998 L334.7508,299.4998 Z M328.0008,301.7498 C328.0008,302.9938 329.0088,303.9998 330.2508,303.9998 C331.4928,303.9998 332.5008,302.9938 332.5008,301.7498 L328.0008,301.7498 Z M330.2518,299.5108 C331.4938,299.5108 332.5018,298.5018 332.5018,297.2598 L327.9998,297.2598 C327.9998,298.5018 329.0088,299.5108 330.2518,299.5108 L330.2518,299.5108 Z M334.7508,295.0098 C335.9948,295.0098 337.0018,296.0168 337.0018,297.2608 L332.5008,297.2608 C332.5008,296.0168 333.5098,295.0098 334.7508,295.0098 L334.7508,295.0098 Z" id="navy"></path>
        </g>
    </g>
</svg>