<?xml version="1.0" encoding="UTF-8" standalone="no"?>
<svg width="144px" height="103px" viewBox="0 0 144 103" version="1.1" xmlns="http://www.w3.org/2000/svg" xmlns:xlink="http://www.w3.org/1999/xlink">
    <!-- Generator: Sketch 39.1 (31720) - http://www.bohemiancoding.com/sketch -->
    <title>avia</title>
    <desc>Created with Sketch.</desc>
    <defs></defs>
    <g id="Symbols" stroke="none" stroke-width="1" fill="none" fill-rule="evenodd">
        <g id="box-areas" transform="translate(-542.000000, -449.000000)" fill="#EB0029">
            <g id="avia" transform="translate(542.000000, 448.000000)">
                <path d="M6.7502,58.9424 C5.5062,58.9424 4.5002,59.9434 4.5002,61.1754 L9.0002,61.1754 C9.0002,59.9434 7.9922,58.9424 6.7502,58.9424 L6.7502,58.9424 Z M0.0002,61.1754 C0.0002,62.4074 1.0082,63.4084 2.2502,63.4084 C3.4922,63.4084 4.5002,62.4074 4.5002,61.1754 L0.0002,61.1754 Z M2.2512,58.9534 C3.4932,58.9534 4.5012,57.9524 4.5012,56.7204 L0.0012,56.7204 C0.0012,57.9524 1.0072,58.9534 2.2512,58.9534 L2.2512,58.9534 Z M6.7502,54.4884 C5.5082,54.4884 4.5002,55.4874 4.5002,56.7214 L9.0002,56.7214 C9.0002,55.4874 7.9922,54.4884 6.7502,54.4884 L6.7502,54.4884 Z M15.7502,58.9424 C14.5062,58.9424 13.5002,59.9434 13.5002,61.1754 L18.0002,61.1754 C18.0002,59.9434 16.9922,58.9424 15.7502,58.9424 L15.7502,58.9424 Z M9.0002,61.1754 C9.0002,62.4074 10.0082,63.4084 11.2502,63.4084 C12.4922,63.4084 13.5002,62.4074 13.5002,61.1754 L9.0002,61.1754 Z M11.2512,58.9534 C12.4932,58.9534 13.4992,57.9524 13.4992,56.7204 L8.9992,56.7204 C8.9992,57.9524 10.0072,58.9534 11.2512,58.9534 L11.2512,58.9534 Z M15.7502,54.4884 C14.5082,54.4884 13.5002,55.4874 13.5002,56.7214 L18.0002,56.7214 C18.0002,55.4874 16.9922,54.4884 15.7502,54.4884 L15.7502,54.4884 Z M24.7502,58.9424 C23.5062,58.9424 22.5002,59.9434 22.5002,61.1754 L27.0002,61.1754 C27.0002,59.9434 25.9922,58.9424 24.7502,58.9424 L24.7502,58.9424 Z M18.0002,61.1754 C18.0002,62.4074 19.0082,63.4084 20.2502,63.4084 C21.4922,63.4084 22.5002,62.4074 22.5002,61.1754 L18.0002,61.1754 Z M20.2512,58.9534 C21.4932,58.9534 22.4992,57.9524 22.4992,56.7204 L17.9992,56.7204 C17.9992,57.9524 19.0072,58.9534 20.2512,58.9534 L20.2512,58.9534 Z M24.7502,54.4884 C23.5082,54.4884 22.5002,55.4874 22.5002,56.7214 L27.0002,56.7214 C27.0002,55.4874 25.9922,54.4884 24.7502,54.4884 L24.7502,54.4884 Z M33.7502,58.9424 C32.5062,58.9424 31.4992,59.9434 31.4992,61.1754 L36.0002,61.1754 C36.0002,59.9434 34.9912,58.9424 33.7502,58.9424 L33.7502,58.9424 Z M27.0002,61.1754 C27.0002,62.4074 28.0082,63.4084 29.2502,63.4084 C30.4922,63.4084 31.5002,62.4074 31.5002,61.1754 L27.0002,61.1754 Z M29.2512,58.9534 C30.4932,58.9534 31.4992,57.9524 31.4992,56.7204 L26.9992,56.7204 C26.9992,57.9524 28.0072,58.9534 29.2512,58.9534 L29.2512,58.9534 Z M33.7502,54.4884 C32.5082,54.4884 31.4992,55.4874 31.4992,56.7214 L36.0002,56.7214 C36.0002,55.4874 34.9912,54.4884 33.7502,54.4884 L33.7502,54.4884 Z M42.7502,58.9424 C41.5072,58.9424 40.5002,59.9434 40.5002,61.1754 L45.0002,61.1754 C45.0002,59.9434 43.9922,58.9424 42.7502,58.9424 L42.7502,58.9424 Z M36.0002,61.1754 C36.0002,62.4074 37.0082,63.4084 38.2502,63.4084 C39.4922,63.4084 40.5002,62.4074 40.5002,61.1754 L36.0002,61.1754 Z M38.2502,58.9534 C39.4942,58.9534 40.5012,57.9524 40.5012,56.7204 L36.0002,56.7204 C36.0002,57.9524 37.0072,58.9534 38.2502,58.9534 L38.2502,58.9534 Z M42.7502,54.4884 C41.5082,54.4884 40.5002,55.4874 40.5002,56.7214 L45.0002,56.7214 C45.0002,55.4874 43.9922,54.4884 42.7502,54.4884 L42.7502,54.4884 Z M141.7502,58.9424 C140.5062,58.9424 139.5002,59.9434 139.5002,61.1754 L144.0002,61.1754 C144.0002,59.9434 142.9912,58.9424 141.7502,58.9424 L141.7502,58.9424 Z M135.0002,61.1754 C135.0002,62.4074 136.0082,63.4084 137.2502,63.4084 C138.4922,63.4084 139.5002,62.4074 139.5002,61.1754 L135.0002,61.1754 Z M137.2512,58.9534 C138.4932,58.9534 139.4992,57.9524 139.4992,56.7204 L135.0012,56.7204 C135.0012,57.9524 136.0072,58.9534 137.2512,58.9534 L137.2512,58.9534 Z M141.7502,54.4884 C140.5082,54.4884 139.5002,55.4874 139.5002,56.7214 L144.0002,56.7214 C144.0002,55.4874 142.9912,54.4884 141.7502,54.4884 L141.7502,54.4884 Z M114.7512,67.8634 C113.5072,67.8634 112.5012,68.8624 112.5012,70.0964 L117.0012,70.0964 C117.0012,68.8624 115.9932,67.8634 114.7512,67.8634 L114.7512,67.8634 Z M108.0002,70.0954 C108.0002,71.3284 109.0082,72.3294 110.2522,72.3294 C111.4942,72.3294 112.5002,71.3284 112.5002,70.0954 L108.0002,70.0954 Z M110.2512,67.8744 C111.4932,67.8744 112.5012,66.8734 112.5012,65.6414 L108.0012,65.6414 C108.0012,66.8734 109.0092,67.8744 110.2512,67.8744 L110.2512,67.8744 Z M114.7512,63.4094 C113.5072,63.4094 112.5012,64.4084 112.5012,65.6424 L117.0012,65.6424 C117.0012,64.4084 115.9932,63.4094 114.7512,63.4094 L114.7512,63.4094 Z M123.7512,76.8104 C122.5072,76.8104 121.5012,77.8094 121.5012,79.0434 L126.0012,79.0434 C126.0012,77.8094 124.9922,76.8104 123.7512,76.8104 L123.7512,76.8104 Z M117.0002,79.0434 C117.0002,80.2754 118.0082,81.2744 119.2522,81.2744 C120.4942,81.2744 121.5002,80.2754 121.5002,79.0434 L117.0002,79.0434 Z M119.2512,76.8204 C120.4932,76.8204 121.5012,75.8194 121.5012,74.5874 L117.0012,74.5874 C117.0012,75.8194 118.0092,76.8204 119.2512,76.8204 L119.2512,76.8204 Z M123.7512,72.3554 C122.5072,72.3554 121.5012,73.3544 121.5012,74.5884 L126.0012,74.5884 C126.0012,73.3544 124.9922,72.3554 123.7512,72.3554 L123.7512,72.3554 Z M132.7502,67.8684 C131.5062,67.8684 130.5002,68.8674 130.5002,70.1014 L135.0002,70.1014 C135.0002,68.8674 133.9922,67.8684 132.7502,67.8684 L132.7502,67.8684 Z M126.0002,70.1004 C126.0002,71.3334 127.0082,72.3344 128.2502,72.3344 C129.4922,72.3344 130.5002,71.3334 130.5002,70.1004 L126.0002,70.1004 Z M128.2512,67.8794 C129.4932,67.8794 130.4992,66.8784 130.4992,65.6464 L125.9992,65.6464 C125.9992,66.8784 127.0072,67.8794 128.2512,67.8794 L128.2512,67.8794 Z M132.7502,63.4144 C131.5082,63.4144 130.5002,64.4134 130.5002,65.6474 L135.0002,65.6474 C135.0002,64.4134 133.9922,63.4144 132.7502,63.4144 L132.7502,63.4144 Z M132.7502,58.9424 C131.5062,58.9424 130.5002,59.9434 130.5002,61.1754 L135.0002,61.1754 C135.0002,59.9434 133.9922,58.9424 132.7502,58.9424 L132.7502,58.9424 Z M126.0002,61.1754 C126.0002,62.4074 127.0082,63.4084 128.2502,63.4084 C129.4922,63.4084 130.5002,62.4074 130.5002,61.1754 L126.0002,61.1754 Z M128.2512,58.9534 C129.4932,58.9534 130.4992,57.9524 130.4992,56.7204 L125.9992,56.7204 C125.9992,57.9524 127.0072,58.9534 128.2512,58.9534 L128.2512,58.9534 Z M132.7502,54.4884 C131.5082,54.4884 130.5002,55.4874 130.5002,56.7214 L135.0002,56.7214 C135.0002,55.4874 133.9922,54.4884 132.7502,54.4884 L132.7502,54.4884 Z M123.7502,58.9424 C122.5062,58.9424 121.5002,59.9434 121.5002,61.1754 L126.0002,61.1754 C126.0002,59.9434 124.9922,58.9424 123.7502,58.9424 L123.7502,58.9424 Z M117.0002,61.1754 C117.0002,62.4074 118.0082,63.4084 119.2502,63.4084 C120.4922,63.4084 121.5002,62.4074 121.5002,61.1754 L117.0002,61.1754 Z M119.2512,58.9534 C120.4932,58.9534 121.4992,57.9524 121.4992,56.7204 L116.9992,56.7204 C116.9992,57.9524 118.0072,58.9534 119.2512,58.9534 L119.2512,58.9534 Z M123.7502,54.4884 C122.5082,54.4884 121.5002,55.4874 121.5002,56.7214 L126.0002,56.7214 C126.0002,55.4874 124.9922,54.4884 123.7502,54.4884 L123.7502,54.4884 Z M114.7502,58.9424 C113.5062,58.9424 112.5002,59.9434 112.5002,61.1754 L117.0002,61.1754 C117.0002,59.9434 115.9922,58.9424 114.7502,58.9424 L114.7502,58.9424 Z M108.0002,61.1754 C108.0002,62.4074 109.0082,63.4084 110.2502,63.4084 C111.4922,63.4084 112.5002,62.4074 112.5002,61.1754 L108.0002,61.1754 Z M110.2512,58.9534 C111.4932,58.9534 112.4992,57.9524 112.4992,56.7204 L107.9992,56.7204 C107.9992,57.9524 109.0072,58.9534 110.2512,58.9534 L110.2512,58.9534 Z M114.7502,54.4884 C113.5082,54.4884 112.5002,55.4874 112.5002,56.7214 L117.0002,56.7214 C117.0002,55.4874 115.9922,54.4884 114.7502,54.4884 L114.7502,54.4884 Z M105.7842,58.9424 C104.5412,58.9424 103.5342,59.9434 103.5342,61.1754 L108.0342,61.1754 C108.0342,59.9434 107.0262,58.9424 105.7842,58.9424 L105.7842,58.9424 Z M99.0332,61.1754 C99.0332,62.4074 100.0412,63.4084 101.2852,63.4084 C102.5272,63.4084 103.5332,62.4074 103.5332,61.1754 L99.0352,61.1754 L99.0332,61.1754 Z M101.2842,58.9534 C102.5262,58.9534 103.5342,57.9524 103.5342,56.7204 L99.0342,56.7204 C99.0342,57.9524 100.0422,58.9534 101.2842,58.9534 L101.2842,58.9534 Z M105.7842,54.4884 C104.5412,54.4884 103.5342,55.4874 103.5342,56.7214 L108.0342,56.7214 C108.0342,55.4874 107.0262,54.4884 105.7842,54.4884 L105.7842,54.4884 Z M51.7502,50.0174 C50.5082,50.0174 49.5002,51.0164 49.5002,52.2514 L54.0002,52.2514 C54.0002,51.0164 52.9942,50.0174 51.7502,50.0174 L51.7502,50.0174 Z M45.0002,52.2504 C45.0002,53.4834 46.0082,54.4824 47.2502,54.4824 C48.4922,54.4824 49.5002,53.4834 49.5002,52.2504 L45.0002,52.2504 Z M47.2512,50.0284 C48.4932,50.0284 49.5012,49.0294 49.5012,47.7944 L45.0012,47.7944 C45.0012,49.0294 46.0072,50.0284 47.2512,50.0284 L47.2512,50.0284 Z M51.7502,45.5624 C50.5082,45.5624 49.5002,46.5614 49.5002,47.7954 L54.0002,47.7954 C54.0002,46.5614 52.9942,45.5624 51.7502,45.5624 L51.7502,45.5624 Z M60.7502,41.0754 C59.5082,41.0754 58.5002,42.0744 58.5002,43.3094 L63.0002,43.3094 C63.0002,42.0744 61.9942,41.0754 60.7502,41.0754 L60.7502,41.0754 Z M54.0002,43.3084 C54.0002,44.5404 55.0062,45.5414 56.2502,45.5414 C57.4922,45.5414 58.5002,44.5404 58.5002,43.3084 L54.0002,43.3084 Z M56.2512,41.0864 C57.4932,41.0864 58.5012,40.0864 58.5012,38.8534 L53.9992,38.8534 C53.9992,40.0864 55.0072,41.0864 56.2512,41.0864 L56.2512,41.0864 Z M60.7502,36.6214 C59.5082,36.6214 58.5002,37.6204 58.5002,38.8544 L63.0002,38.8544 C63.0002,37.6204 61.9942,36.6214 60.7502,36.6214 L60.7502,36.6214 Z M132.7502,5.4544 C131.5082,5.4544 130.5002,6.4534 130.5002,7.6874 L135.0002,7.6874 C135.0002,6.4534 133.9932,5.4544 132.7502,5.4544 L132.7502,5.4544 Z M132.7502,0.9994 C131.5082,0.9994 130.5002,1.9994 130.5002,3.2334 L135.0002,3.2334 C135.0002,1.9994 133.9932,0.9994 132.7502,0.9994 L132.7502,0.9994 Z M135.0002,7.6924 C135.0002,8.9244 136.0072,9.9234 137.2502,9.9234 C138.4922,9.9234 139.5002,8.9244 139.5002,7.6924 L135.0002,7.6924 Z M137.2502,5.4704 C138.4922,5.4704 139.5002,4.4694 139.5002,3.2374 L135.0002,3.2374 C135.0002,4.4694 136.0082,5.4704 137.2502,5.4704 L137.2502,5.4704 Z M123.7502,5.4544 C122.5062,5.4544 121.5002,6.4534 121.5002,7.6874 L126.0002,7.6874 C126.0002,6.4534 124.9932,5.4544 123.7502,5.4544 L123.7502,5.4544 Z M123.7502,0.9994 C122.5062,0.9994 121.5002,1.9994 121.5002,3.2334 L126.0002,3.2334 C126.0002,1.9994 124.9932,0.9994 123.7502,0.9994 L123.7502,0.9994 Z M125.9992,7.6924 C125.9992,8.9244 127.0062,9.9234 128.2492,9.9234 C129.4912,9.9234 130.5002,8.9244 130.5002,7.6924 L125.9992,7.6924 Z M128.2502,5.4704 C129.4922,5.4704 130.5002,4.4694 130.5002,3.2374 L126.0002,3.2374 C126.0002,4.4694 127.0062,5.4704 128.2502,5.4704 L128.2502,5.4704 Z M114.7502,5.4544 C113.5062,5.4544 112.5002,6.4534 112.5002,7.6874 L117.0002,7.6874 C117.0002,6.4534 115.9932,5.4544 114.7502,5.4544 L114.7502,5.4544 Z M114.7502,0.9994 C113.5062,0.9994 112.5002,1.9994 112.5002,3.2334 L117.0002,3.2334 C117.0002,1.9994 115.9932,0.9994 114.7502,0.9994 L114.7502,0.9994 Z M116.9992,7.6924 C116.9992,8.9244 118.0062,9.9234 119.2492,9.9234 C120.4912,9.9234 121.5002,8.9244 121.5002,7.6924 L116.9992,7.6924 Z M119.2502,5.4704 C120.4922,5.4704 121.5002,4.4694 121.5002,3.2374 L117.0002,3.2374 C117.0002,4.4694 118.0062,5.4704 119.2502,5.4704 L119.2502,5.4704 Z M105.7502,5.4544 C104.5062,5.4544 103.5002,6.4534 103.5002,7.6874 L108.0002,7.6874 C108.0002,6.4534 106.9942,5.4544 105.7502,5.4544 L105.7502,5.4544 Z M105.7502,0.9994 C104.5062,0.9994 103.5002,1.9994 103.5002,3.2334 L108.0002,3.2334 C108.0002,1.9994 106.9942,0.9994 105.7502,0.9994 L105.7502,0.9994 Z M107.9992,7.6924 C107.9992,8.9244 109.0062,9.9234 110.2492,9.9234 C111.4912,9.9234 112.5002,8.9244 112.5002,7.6924 L107.9992,7.6924 Z M110.2502,5.4704 C111.4912,5.4704 112.5002,4.4694 112.5002,3.2374 L107.9992,3.2374 C107.9992,4.4694 109.0062,5.4704 110.2502,5.4704 L110.2502,5.4704 Z M96.7502,5.4544 C95.5062,5.4544 94.5002,6.4534 94.5002,7.6874 L99.0002,7.6874 C99.0002,6.4534 97.9942,5.4544 96.7502,5.4544 L96.7502,5.4544 Z M96.7502,0.9994 C95.5062,0.9994 94.5002,1.9994 94.5002,3.2334 L99.0002,3.2334 C99.0002,1.9994 97.9942,0.9994 96.7502,0.9994 L96.7502,0.9994 Z M99.0002,7.6924 C99.0002,8.9244 100.0062,9.9234 101.2502,9.9234 C102.4912,9.9234 103.5002,8.9244 103.5002,7.6924 L99.0002,7.6924 Z M101.2502,5.4704 C102.4912,5.4704 103.5002,4.4694 103.5002,3.2374 L99.0002,3.2374 C99.0002,4.4694 100.0062,5.4704 101.2502,5.4704 L101.2502,5.4704 Z M87.7502,5.4544 C86.5082,5.4544 85.5002,6.4534 85.5002,7.6874 L90.0002,7.6874 C90.0002,6.4534 88.9932,5.4544 87.7502,5.4544 L87.7502,5.4544 Z M87.7502,0.9994 C86.5082,0.9994 85.5002,1.9994 85.5002,3.2334 L90.0002,3.2334 C90.0002,1.9994 88.9932,0.9994 87.7502,0.9994 L87.7502,0.9994 Z M90.0002,7.6924 C90.0002,8.9244 91.0062,9.9234 92.2502,9.9234 C93.4922,9.9234 94.5002,8.9244 94.5002,7.6924 L90.0002,7.6924 Z M92.2502,5.4704 C93.4922,5.4704 94.5002,4.4694 94.5002,3.2374 L90.0002,3.2374 C90.0002,4.4694 91.0082,5.4704 92.2502,5.4704 L92.2502,5.4704 Z M78.7502,5.4544 C77.5082,5.4544 76.5002,6.4534 76.5002,7.6874 L81.0002,7.6874 C81.0002,6.4534 79.9932,5.4544 78.7502,5.4544 L78.7502,5.4544 Z M78.7502,0.9994 C77.5082,0.9994 76.5002,1.9994 76.5002,3.2334 L81.0002,3.2334 C81.0002,1.9994 79.9932,0.9994 78.7502,0.9994 L78.7502,0.9994 Z M81.0002,7.6924 C81.0002,8.9244 82.0072,9.9234 83.2502,9.9234 C84.4922,9.9234 85.5002,8.9244 85.5002,7.6924 L81.0002,7.6924 Z M83.2502,5.4704 C84.4922,5.4704 85.5002,4.4694 85.5002,3.2374 L81.0002,3.2374 C81.0002,4.4694 82.0082,5.4704 83.2502,5.4704 L83.2502,5.4704 Z M6.7502,5.4544 C5.5062,5.4544 4.5002,6.4534 4.5002,7.6874 L9.0002,7.6874 C9.0002,6.4534 7.9922,5.4544 6.7502,5.4544 L6.7502,5.4544 Z M6.7502,0.9994 C5.5062,0.9994 4.5002,1.9994 4.5002,3.2334 L9.0002,3.2334 C9.0002,1.9994 7.9922,0.9994 6.7502,0.9994 L6.7502,0.9994 Z M8.9992,7.6924 C8.9992,8.9244 10.0052,9.9234 11.2492,9.9234 C12.4912,9.9234 13.4992,8.9244 13.4992,7.6924 L8.9992,7.6924 Z M11.2502,5.4704 C12.4922,5.4704 13.5002,4.4694 13.5002,3.2374 L9.0002,3.2374 C9.0002,4.4694 10.0062,5.4704 11.2502,5.4704 L11.2502,5.4704 Z M15.7502,5.4544 C14.5062,5.4544 13.5002,6.4534 13.5002,7.6874 L18.0002,7.6874 C18.0002,6.4534 16.9942,5.4544 15.7502,5.4544 L15.7502,5.4544 Z M15.7502,0.9994 C14.5062,0.9994 13.5002,1.9994 13.5002,3.2334 L18.0002,3.2334 C18.0002,1.9994 16.9942,0.9994 15.7502,0.9994 L15.7502,0.9994 Z M17.9992,7.6924 C17.9992,8.9244 19.0062,9.9234 20.2502,9.9234 C21.4912,9.9234 22.5002,8.9244 22.5002,7.6924 L17.9992,7.6924 Z M20.2502,5.4704 C21.4922,5.4704 22.5002,4.4694 22.5002,3.2374 L18.0002,3.2374 C18.0002,4.4694 19.0062,5.4704 20.2502,5.4704 L20.2502,5.4704 Z M24.7502,5.4544 C23.5062,5.4544 22.5002,6.4534 22.5002,7.6874 L27.0002,7.6874 C27.0002,6.4534 25.9932,5.4544 24.7502,5.4544 L24.7502,5.4544 Z M24.7502,0.9994 C23.5062,0.9994 22.5002,1.9994 22.5002,3.2334 L27.0002,3.2334 C27.0002,1.9994 25.9932,0.9994 24.7502,0.9994 L24.7502,0.9994 Z M26.9992,7.6924 C26.9992,8.9244 28.0082,9.9234 29.2492,9.9234 C30.4912,9.9234 31.4992,8.9244 31.4992,7.6924 L26.9992,7.6924 Z M29.2502,5.4704 C30.4922,5.4704 31.5002,4.4694 31.5002,3.2374 L27.0002,3.2374 C27.0002,4.4694 28.0062,5.4704 29.2502,5.4704 L29.2502,5.4704 Z M33.7502,5.4544 C32.5062,5.4544 31.4992,6.4534 31.4992,7.6874 L36.0002,7.6874 C36.0002,6.4534 34.9932,5.4544 33.7502,5.4544 L33.7502,5.4544 Z M33.7502,0.9994 C32.5062,0.9994 31.4992,1.9994 31.4992,3.2334 L36.0002,3.2334 C36.0002,1.9994 34.9932,0.9994 33.7502,0.9994 L33.7502,0.9994 Z M36.0002,7.6924 C36.0002,8.9244 37.0062,9.9234 38.2502,9.9234 C39.4922,9.9234 40.5002,8.9244 40.5002,7.6924 L36.0002,7.6924 Z M38.2502,5.4704 C39.4922,5.4704 40.5002,4.4694 40.5002,3.2374 L36.0002,3.2374 C36.0002,4.4694 37.0062,5.4704 38.2502,5.4704 L38.2502,5.4704 Z M42.7502,5.4544 C41.5072,5.4544 40.5002,6.4534 40.5002,7.6874 L45.0002,7.6874 C45.0002,6.4534 43.9942,5.4544 42.7502,5.4544 L42.7502,5.4544 Z M42.7502,0.9994 C41.5072,0.9994 40.5002,1.9994 40.5002,3.2334 L45.0002,3.2334 C45.0002,1.9994 43.9942,0.9994 42.7502,0.9994 L42.7502,0.9994 Z M44.9992,7.6924 C44.9992,8.9244 46.0062,9.9234 47.2502,9.9234 C48.4912,9.9234 49.5002,8.9244 49.5002,7.6924 L44.9992,7.6924 Z M47.2502,5.4704 C48.4922,5.4704 49.5002,4.4694 49.5002,3.2374 L45.0002,3.2374 C45.0002,4.4694 46.0062,5.4704 47.2502,5.4704 L47.2502,5.4704 Z M51.7502,5.4544 C50.5082,5.4544 49.5002,6.4534 49.5002,7.6874 L54.0002,7.6874 C54.0002,6.4534 52.9942,5.4544 51.7502,5.4544 L51.7502,5.4544 Z M51.7502,0.9994 C50.5082,0.9994 49.5002,1.9994 49.5002,3.2334 L54.0002,3.2334 C54.0002,1.9994 52.9942,0.9994 51.7502,0.9994 L51.7502,0.9994 Z M54.0002,7.6924 C54.0002,8.9244 55.0062,9.9234 56.2502,9.9234 C57.4922,9.9234 58.5002,8.9244 58.5002,7.6924 L54.0002,7.6924 Z M56.2502,5.4704 C57.4922,5.4704 58.5002,4.4694 58.5002,3.2374 L54.0002,3.2374 C54.0002,4.4694 55.0062,5.4704 56.2502,5.4704 L56.2502,5.4704 Z M60.7512,5.4544 C59.5072,5.4544 58.5012,6.4534 58.5012,7.6874 L63.0012,7.6874 C63.0012,6.4534 61.9932,5.4544 60.7512,5.4544 L60.7512,5.4544 Z M60.7512,0.9994 C59.5072,0.9994 58.5012,1.9994 58.5012,3.2334 L63.0012,3.2334 C63.0012,1.9994 61.9932,0.9994 60.7512,0.9994 L60.7512,0.9994 Z M63.0002,7.6924 C63.0002,8.9244 64.0082,9.9234 65.2502,9.9234 C66.4922,9.9234 67.5002,8.9244 67.5002,7.6924 L63.0002,7.6924 Z M65.2512,5.4704 C66.4932,5.4704 67.5012,4.4694 67.5012,3.2374 L62.9992,3.2374 C62.9992,4.4694 64.0072,5.4704 65.2512,5.4704 L65.2512,5.4704 Z M69.7512,5.4544 C68.5072,5.4544 67.5012,6.4534 67.5012,7.6874 L72.0012,7.6874 C72.0012,6.4534 70.9932,5.4544 69.7512,5.4544 L69.7512,5.4544 Z M69.7512,0.9994 C68.5072,0.9994 67.5012,1.9994 67.5012,3.2334 L72.0012,3.2334 C72.0012,1.9994 70.9932,0.9994 69.7512,0.9994 L69.7512,0.9994 Z M72.0002,7.6924 C72.0002,8.9244 73.0082,9.9234 74.2502,9.9234 C75.4922,9.9234 76.5002,8.9244 76.5002,7.6924 L72.0002,7.6924 Z M74.2512,5.4704 C75.4932,5.4704 76.5012,4.4694 76.5012,3.2374 L71.9992,3.2374 C71.9992,4.4694 73.0072,5.4704 74.2512,5.4704 L74.2512,5.4704 Z M69.7512,14.3794 C68.5072,14.3794 67.5012,15.3784 67.5012,16.6124 L72.0012,16.6124 C72.0012,15.3784 70.9932,14.3794 69.7512,14.3794 L69.7512,14.3794 Z M69.7512,9.9244 C68.5072,9.9244 67.5012,10.9234 67.5012,12.1584 L72.0012,12.1584 C72.0012,10.9234 70.9932,9.9244 69.7512,9.9244 L69.7512,9.9244 Z M72.0002,16.6174 C72.0002,17.8494 73.0082,18.8484 74.2502,18.8484 C75.4922,18.8484 76.5002,17.8494 76.5002,16.6174 L72.0002,16.6174 Z M74.2512,14.3954 C75.4932,14.3954 76.5012,13.3944 76.5012,12.1614 L71.9992,12.1614 C71.9992,13.3944 73.0072,14.3954 74.2512,14.3954 L74.2512,14.3954 Z M69.7512,23.3044 C68.5072,23.3044 67.5012,24.3034 67.5012,25.5374 L72.0012,25.5374 C72.0012,24.3034 70.9932,23.3044 69.7512,23.3044 L69.7512,23.3044 Z M69.7512,18.8494 C68.5072,18.8494 67.5012,19.8484 67.5012,21.0824 L72.0012,21.0824 C72.0012,19.8484 70.9932,18.8494 69.7512,18.8494 L69.7512,18.8494 Z M72.0002,25.5424 C72.0002,26.7744 73.0082,27.7734 74.2502,27.7734 C75.4922,27.7734 76.5002,26.7744 76.5002,25.5424 L72.0002,25.5424 Z M74.2512,23.3194 C75.4932,23.3194 76.5012,22.3184 76.5012,21.0864 L71.9992,21.0864 C71.9992,22.3184 73.0072,23.3194 74.2512,23.3194 L74.2512,23.3194 Z M60.7502,32.1444 C59.5062,32.1444 58.5002,33.1454 58.5002,34.3784 L63.0002,34.3784 C63.0002,33.1454 61.9942,32.1444 60.7502,32.1444 L60.7502,32.1444 Z M54.0002,34.3774 C54.0002,35.6094 55.0062,36.6104 56.2502,36.6104 C57.4922,36.6104 58.5002,35.6094 58.5002,34.3774 L54.0002,34.3774 Z M56.2502,32.1564 C57.4922,32.1564 58.5002,31.1554 58.5002,29.9224 L54.0002,29.9224 C54.0002,31.1554 55.0062,32.1564 56.2502,32.1564 L56.2502,32.1564 Z M60.7502,27.6904 C59.5062,27.6904 58.5002,28.6894 58.5002,29.9244 L63.0002,29.9244 C63.0002,28.6894 61.9942,27.6904 60.7502,27.6904 L60.7502,27.6904 Z M69.7512,32.1444 C68.5072,32.1444 67.5012,33.1454 67.5012,34.3784 L72.0012,34.3784 C72.0012,33.1454 70.9932,32.1444 69.7512,32.1444 L69.7512,32.1444 Z M63.0012,34.3774 C63.0012,35.6094 64.0072,36.6104 65.2512,36.6104 C66.4932,36.6104 67.5012,35.6094 67.5012,34.3774 L63.0012,34.3774 Z M65.2512,32.1564 C66.4932,32.1564 67.5012,31.1554 67.5012,29.9224 L63.0012,29.9224 C63.0012,31.1554 64.0092,32.1564 65.2512,32.1564 L65.2512,32.1564 Z M69.7512,27.6904 C68.5072,27.6904 67.5012,28.6894 67.5012,29.9244 L72.0012,29.9244 C72.0012,28.6894 70.9932,27.6904 69.7512,27.6904 L69.7512,27.6904 Z M87.7502,32.1494 C86.5062,32.1494 85.5002,33.1504 85.5002,34.3834 L90.0002,34.3834 C90.0002,33.1504 88.9932,32.1494 87.7502,32.1494 L87.7502,32.1494 Z M81.0002,34.3824 C81.0002,35.6144 82.0072,36.6154 83.2502,36.6154 C84.4922,36.6154 85.5002,35.6144 85.5002,34.3824 L81.0002,34.3824 Z M83.2502,32.1614 C84.4922,32.1614 85.5012,31.1604 85.5012,29.9274 L81.0002,29.9274 C81.0002,31.1604 82.0072,32.1614 83.2502,32.1614 L83.2502,32.1614 Z M87.7502,27.6954 C86.5062,27.6954 85.5002,28.6944 85.5002,29.9294 L90.0002,29.9294 C90.0002,28.6944 88.9932,27.6954 87.7502,27.6954 L87.7502,27.6954 Z M78.7502,32.1444 C77.5082,32.1444 76.5002,33.1454 76.5002,34.3794 L81.0002,34.3794 C81.0002,33.1454 79.9932,32.1444 78.7502,32.1444 L78.7502,32.1444 Z M72.0002,34.3794 C72.0002,35.6144 73.0082,36.6154 74.2502,36.6154 C75.4922,36.6154 76.5002,35.6144 76.5002,34.3794 L72.0002,34.3794 Z M74.2512,32.1554 C75.4932,32.1554 76.5012,31.1524 76.5012,29.9204 L71.9992,29.9204 C71.9992,31.1524 73.0072,32.1554 74.2512,32.1554 L74.2512,32.1554 Z M78.7502,27.6844 C77.5082,27.6844 76.5002,28.6854 76.5002,29.9194 L81.0002,29.9194 C81.0002,28.6854 79.9932,27.6844 78.7502,27.6844 L78.7502,27.6844 Z M87.7502,41.0804 C86.5082,41.0804 85.5002,42.0794 85.5002,43.3144 L90.0002,43.3144 C90.0002,42.0794 88.9932,41.0804 87.7502,41.0804 L87.7502,41.0804 Z M81.0002,43.3134 C81.0002,44.5454 82.0082,45.5464 83.2502,45.5464 C84.4922,45.5464 85.5002,44.5454 85.5002,43.3134 L81.0002,43.3134 Z M83.2512,41.0924 C84.4932,41.0924 85.5012,40.0914 85.5012,38.8584 L81.0012,38.8584 C81.0012,40.0914 82.0072,41.0924 83.2512,41.0924 L83.2512,41.0924 Z M87.7502,36.6264 C86.5082,36.6264 85.5002,37.6254 85.5002,38.8604 L90.0002,38.8604 C90.0002,37.6254 88.9932,36.6264 87.7502,36.6264 L87.7502,36.6264 Z M96.7832,50.0114 C95.5412,50.0114 94.5332,51.0104 94.5332,52.2444 L99.0332,52.2444 C99.0332,51.0104 98.0272,50.0114 96.7832,50.0114 L96.7832,50.0114 Z M90.0332,52.2444 C90.0332,53.4764 91.0412,54.4774 92.2832,54.4774 C93.5252,54.4774 94.5332,53.4764 94.5332,52.2444 L90.0332,52.2444 Z M92.2842,50.0224 C93.5262,50.0224 94.5342,49.0224 94.5342,47.7894 L90.0322,47.7894 C90.0322,49.0224 91.0402,50.0224 92.2842,50.0224 L92.2842,50.0224 Z M96.7832,45.5574 C95.5412,45.5574 94.5332,46.5564 94.5332,47.7904 L99.0332,47.7904 C99.0332,46.5564 98.0272,45.5574 96.7832,45.5574 L96.7832,45.5574 Z M96.7832,58.9424 C95.5412,58.9424 94.5332,59.9434 94.5332,61.1754 L99.0332,61.1754 C99.0332,59.9434 98.0272,58.9424 96.7832,58.9424 L96.7832,58.9424 Z M90.0332,61.1754 C90.0332,62.4074 91.0412,63.4084 92.2832,63.4084 C93.5252,63.4084 94.5332,62.4074 94.5332,61.1754 L90.0332,61.1754 Z M92.2842,58.9534 C93.5262,58.9534 94.5342,57.9524 94.5342,56.7204 L90.0322,56.7204 C90.0322,57.9524 91.0402,58.9534 92.2842,58.9534 L92.2842,58.9534 Z M96.7832,54.4884 C95.5412,54.4884 94.5332,55.4874 94.5332,56.7214 L99.0332,56.7214 C99.0332,55.4874 98.0272,54.4884 96.7832,54.4884 L96.7832,54.4884 Z M51.7502,58.9424 C50.5062,58.9424 49.5002,59.9434 49.5002,61.1754 L54.0002,61.1754 C54.0002,59.9434 52.9922,58.9424 51.7502,58.9424 L51.7502,58.9424 Z M45.0002,61.1754 C45.0002,62.4074 46.0082,63.4084 47.2502,63.4084 C48.4922,63.4084 49.5002,62.4074 49.5002,61.1754 L45.0002,61.1754 Z M47.2512,58.9534 C48.4932,58.9534 49.4992,57.9524 49.4992,56.7204 L45.0012,56.7204 C45.0012,57.9524 46.0072,58.9534 47.2512,58.9534 L47.2512,58.9534 Z M51.7502,54.4884 C50.5082,54.4884 49.5002,55.4874 49.5002,56.7214 L54.0002,56.7214 C54.0002,55.4874 52.9922,54.4884 51.7502,54.4884 L51.7502,54.4884 Z M24.7482,76.8024 C23.5042,76.8024 22.4982,77.8014 22.4982,79.0354 L26.9982,79.0354 C26.9982,77.8014 25.9902,76.8024 24.7482,76.8024 L24.7482,76.8024 Z M17.9972,79.0344 C17.9972,80.2674 19.0052,81.2664 20.2492,81.2664 C21.4902,81.2664 22.4972,80.2674 22.4972,79.0344 L17.9982,79.0344 L17.9972,79.0344 Z M20.2482,76.8124 C21.4902,76.8124 22.4982,75.8114 22.4982,74.5794 L17.9982,74.5794 C17.9982,75.8114 19.0062,76.8124 20.2482,76.8124 L20.2482,76.8124 Z M24.7482,72.3474 C23.5042,72.3474 22.4982,73.3464 22.4982,74.5804 L26.9982,74.5804 C26.9982,73.3464 25.9902,72.3474 24.7482,72.3474 L24.7482,72.3474 Z M15.7502,67.8734 C14.5062,67.8734 13.5002,68.8724 13.5002,70.1064 L18.0002,70.1064 C18.0002,68.8724 16.9922,67.8734 15.7502,67.8734 L15.7502,67.8734 Z M9.0002,70.1064 C9.0002,71.3384 10.0082,72.3394 11.2502,72.3394 C12.4922,72.3394 13.5002,71.3384 13.5002,70.1064 L9.0002,70.1064 Z M11.2512,67.8844 C12.4932,67.8844 13.4992,66.8834 13.4992,65.6514 L8.9992,65.6514 C8.9992,66.8834 10.0072,67.8844 11.2512,67.8844 L11.2512,67.8844 Z M15.7502,63.4194 C14.5082,63.4194 13.5002,64.4184 13.5002,65.6524 L18.0002,65.6524 C18.0002,64.4184 16.9922,63.4194 15.7502,63.4194 L15.7502,63.4194 Z M33.7512,67.8734 C32.5082,67.8734 31.5012,68.8724 31.5012,70.1064 L36.0012,70.1064 C36.0012,68.8724 34.9932,67.8734 33.7512,67.8734 L33.7512,67.8734 Z M27.0002,70.1064 C27.0002,71.3384 28.0082,72.3394 29.2522,72.3394 C30.4942,72.3394 31.5002,71.3384 31.5002,70.1064 L27.0022,70.1064 L27.0002,70.1064 Z M29.2512,67.8844 C30.4932,67.8844 31.5012,66.8834 31.5012,65.6514 L27.0012,65.6514 C27.0012,66.8834 28.0092,67.8844 29.2512,67.8844 L29.2512,67.8844 Z M33.7512,63.4194 C32.5082,63.4194 31.5012,64.4184 31.5012,65.6524 L36.0012,65.6524 C36.0012,64.4184 34.9932,63.4194 33.7512,63.4194 L33.7512,63.4194 Z M51.7502,67.8734 C50.5062,67.8734 49.5002,68.8724 49.5002,70.1064 L54.0002,70.1064 C54.0002,68.8724 52.9922,67.8734 51.7502,67.8734 L51.7502,67.8734 Z M45.0002,70.1064 C45.0002,71.3384 46.0082,72.3394 47.2502,72.3394 C48.4922,72.3394 49.5002,71.3384 49.5002,70.1064 L45.0002,70.1064 Z M47.2512,67.8844 C48.4932,67.8844 49.4992,66.8834 49.4992,65.6514 L45.0012,65.6514 C45.0012,66.8834 46.0072,67.8844 47.2512,67.8844 L47.2512,67.8844 Z M51.7502,63.4194 C50.5082,63.4194 49.5002,64.4184 49.5002,65.6524 L54.0002,65.6524 C54.0002,64.4184 52.9922,63.4194 51.7502,63.4194 L51.7502,63.4194 Z M96.7502,67.8734 C95.5062,67.8734 94.5002,68.8724 94.5002,70.1064 L99.0002,70.1064 C99.0002,68.8724 97.9922,67.8734 96.7502,67.8734 L96.7502,67.8734 Z M90.0002,70.1064 C90.0002,71.3384 91.0082,72.3394 92.2502,72.3394 C93.4922,72.3394 94.5002,71.3384 94.5002,70.1064 L90.0002,70.1064 Z M92.2512,67.8844 C93.4932,67.8844 94.4992,66.8834 94.4992,65.6514 L90.0012,65.6514 C90.0012,66.8834 91.0072,67.8844 92.2512,67.8844 L92.2512,67.8844 Z M96.7502,63.4194 C95.5082,63.4194 94.5002,64.4184 94.5002,65.6524 L99.0002,65.6524 C99.0002,64.4184 97.9922,63.4194 96.7502,63.4194 L96.7502,63.4194 Z M60.7502,58.9594 C59.5062,58.9594 58.5002,59.9584 58.5002,61.1924 L63.0002,61.1924 C63.0002,59.9584 61.9922,58.9594 60.7502,58.9594 L60.7502,58.9594 Z M54.0002,61.1914 C54.0002,62.4244 55.0062,63.4254 56.2502,63.4254 C57.4922,63.4254 58.5002,62.4244 58.5002,61.1914 L54.0002,61.1914 Z M56.2512,58.9694 C57.4932,58.9694 58.4992,57.9704 58.4992,56.7354 L53.9992,56.7354 C53.9992,57.9704 55.0072,58.9694 56.2512,58.9694 L56.2512,58.9694 Z M60.7502,54.5034 C59.5082,54.5034 58.5002,55.5044 58.5002,56.7374 L63.0002,56.7374 C63.0002,55.5044 61.9922,54.5034 60.7502,54.5034 L60.7502,54.5034 Z M87.7502,58.9594 C86.5062,58.9594 85.5002,59.9584 85.5002,61.1924 L90.0002,61.1924 C90.0002,59.9584 88.9922,58.9594 87.7502,58.9594 L87.7502,58.9594 Z M81.0002,61.1914 C81.0002,62.4244 82.0082,63.4254 83.2502,63.4254 C84.4922,63.4254 85.5002,62.4244 85.5002,61.1914 L81.0002,61.1914 Z M83.2512,58.9694 C84.4932,58.9694 85.4992,57.9704 85.4992,56.7354 L81.0012,56.7354 C81.0012,57.9704 82.0072,58.9694 83.2512,58.9694 L83.2512,58.9694 Z M87.7502,54.5034 C86.5082,54.5034 85.5002,55.5044 85.5002,56.7374 L90.0002,56.7374 C90.0002,55.5044 88.9922,54.5034 87.7502,54.5034 L87.7502,54.5034 Z M78.7502,58.9594 C77.5062,58.9594 76.5002,59.9584 76.5002,61.1924 L81.0002,61.1924 C81.0002,59.9584 79.9922,58.9594 78.7502,58.9594 L78.7502,58.9594 Z M72.0002,61.1914 C72.0002,62.4244 73.0082,63.4254 74.2502,63.4254 C75.4922,63.4254 76.5002,62.4244 76.5002,61.1914 L72.0002,61.1914 Z M74.2512,58.9694 C75.4932,58.9694 76.4992,57.9704 76.4992,56.7354 L71.9992,56.7354 C71.9992,57.9704 73.0072,58.9694 74.2512,58.9694 L74.2512,58.9694 Z M78.7502,54.5034 C77.5082,54.5034 76.5002,55.5044 76.5002,56.7374 L81.0002,56.7374 C81.0002,55.5044 79.9922,54.5034 78.7502,54.5034 L78.7502,54.5034 Z M69.7502,58.9594 C68.5082,58.9594 67.5002,59.9584 67.5002,61.1924 L72.0002,61.1924 C72.0002,59.9584 70.9942,58.9594 69.7502,58.9594 L69.7502,58.9594 Z M63.0002,61.1914 C63.0002,62.4244 64.0082,63.4254 65.2502,63.4254 C66.4922,63.4254 67.5002,62.4244 67.5002,61.1914 L63.0002,61.1914 Z M65.2512,58.9694 C66.4932,58.9694 67.5012,57.9704 67.5012,56.7354 L62.9992,56.7354 C62.9992,57.9704 64.0072,58.9694 65.2512,58.9694 L65.2512,58.9694 Z M69.7502,54.5034 C68.5082,54.5034 67.5002,55.5044 67.5002,56.7374 L72.0002,56.7374 C72.0002,55.5044 70.9942,54.5034 69.7502,54.5034 L69.7502,54.5034 Z M60.7502,67.8784 C59.5062,67.8784 58.5002,68.8774 58.5002,70.1114 L63.0002,70.1114 C63.0002,68.8774 61.9922,67.8784 60.7502,67.8784 L60.7502,67.8784 Z M54.0002,70.1114 C54.0002,71.3434 55.0062,72.3444 56.2502,72.3444 C57.4922,72.3444 58.5002,71.3434 58.5002,70.1114 L54.0002,70.1114 Z M56.2512,67.8894 C57.4932,67.8894 58.4992,66.8894 58.4992,65.6564 L53.9992,65.6564 C53.9992,66.8894 55.0072,67.8894 56.2512,67.8894 L56.2512,67.8894 Z M60.7502,63.4244 C59.5082,63.4244 58.5002,64.4234 58.5002,65.6574 L63.0002,65.6574 C63.0002,64.4234 61.9922,63.4244 60.7502,63.4244 L60.7502,63.4244 Z M87.7502,67.8784 C86.5062,67.8784 85.5002,68.8774 85.5002,70.1114 L90.0002,70.1114 C90.0002,68.8774 88.9922,67.8784 87.7502,67.8784 L87.7502,67.8784 Z M81.0002,70.1114 C81.0002,71.3434 82.0082,72.3444 83.2502,72.3444 C84.4922,72.3444 85.5002,71.3434 85.5002,70.1114 L81.0002,70.1114 Z M83.2512,67.8894 C84.4932,67.8894 85.4992,66.8894 85.4992,65.6564 L81.0012,65.6564 C81.0012,66.8894 82.0072,67.8894 83.2512,67.8894 L83.2512,67.8894 Z M87.7502,63.4244 C86.5082,63.4244 85.5002,64.4234 85.5002,65.6574 L90.0002,65.6574 C90.0002,64.4234 88.9922,63.4244 87.7502,63.4244 L87.7502,63.4244 Z M78.7502,67.8784 C77.5062,67.8784 76.5002,68.8774 76.5002,70.1114 L81.0002,70.1114 C81.0002,68.8774 79.9922,67.8784 78.7502,67.8784 L78.7502,67.8784 Z M72.0002,70.1114 C72.0002,71.3434 73.0082,72.3444 74.2502,72.3444 C75.4922,72.3444 76.5002,71.3434 76.5002,70.1114 L72.0002,70.1114 Z M74.2512,67.8894 C75.4932,67.8894 76.4992,66.8894 76.4992,65.6564 L71.9992,65.6564 C71.9992,66.8894 73.0072,67.8894 74.2512,67.8894 L74.2512,67.8894 Z M78.7502,63.4244 C77.5082,63.4244 76.5002,64.4234 76.5002,65.6574 L81.0002,65.6574 C81.0002,64.4234 79.9922,63.4244 78.7502,63.4244 L78.7502,63.4244 Z M69.7502,67.8784 C68.5082,67.8784 67.5002,68.8774 67.5002,70.1114 L72.0002,70.1114 C72.0002,68.8774 70.9942,67.8784 69.7502,67.8784 L69.7502,67.8784 Z M63.0002,70.1114 C63.0002,71.3434 64.0082,72.3444 65.2502,72.3444 C66.4922,72.3444 67.5002,71.3434 67.5002,70.1114 L63.0002,70.1114 Z M65.2512,67.8894 C66.4932,67.8894 67.5012,66.8894 67.5012,65.6564 L62.9992,65.6564 C62.9992,66.8894 64.0072,67.8894 65.2512,67.8894 L65.2512,67.8894 Z M69.7502,63.4244 C68.5082,63.4244 67.5002,64.4234 67.5002,65.6574 L72.0002,65.6574 C72.0002,64.4234 70.9942,63.4244 69.7502,63.4244 L69.7502,63.4244 Z M60.7502,76.8044 C59.5062,76.8044 58.5002,77.8034 58.5002,79.0374 L63.0002,79.0374 C63.0002,77.8034 61.9922,76.8044 60.7502,76.8044 L60.7502,76.8044 Z M54.0002,79.0374 C54.0002,80.2694 55.0062,81.2704 56.2502,81.2704 C57.4922,81.2704 58.5002,80.2694 58.5002,79.0374 L54.0002,79.0374 Z M56.2512,76.8154 C57.4932,76.8154 58.4992,75.8144 58.4992,74.5824 L53.9992,74.5824 C53.9992,75.8144 55.0072,76.8154 56.2512,76.8154 L56.2512,76.8154 Z M60.7502,72.3504 C59.5082,72.3504 58.5002,73.3494 58.5002,74.5834 L63.0002,74.5834 C63.0002,73.3494 61.9922,72.3504 60.7502,72.3504 L60.7502,72.3504 Z M87.7502,76.8044 C86.5062,76.8044 85.5002,77.8034 85.5002,79.0374 L90.0002,79.0374 C90.0002,77.8034 88.9922,76.8044 87.7502,76.8044 L87.7502,76.8044 Z M81.0002,79.0374 C81.0002,80.2694 82.0082,81.2704 83.2502,81.2704 C84.4922,81.2704 85.5002,80.2694 85.5002,79.0374 L81.0002,79.0374 Z M83.2512,76.8154 C84.4932,76.8154 85.4992,75.8144 85.4992,74.5824 L81.0012,74.5824 C81.0012,75.8144 82.0072,76.8154 83.2512,76.8154 L83.2512,76.8154 Z M87.7502,72.3504 C86.5082,72.3504 85.5002,73.3494 85.5002,74.5834 L90.0002,74.5834 C90.0002,73.3494 88.9922,72.3504 87.7502,72.3504 L87.7502,72.3504 Z M78.7502,76.8074 C77.5062,76.8074 76.5002,77.8064 76.5002,79.0404 L81.0002,79.0404 C81.0002,77.8064 79.9922,76.8074 78.7502,76.8074 L78.7502,76.8074 Z M72.0002,79.0404 C72.0002,80.2724 73.0082,81.2734 74.2502,81.2734 C75.4922,81.2734 76.5002,80.2724 76.5002,79.0404 L72.0002,79.0404 Z M74.2512,76.8184 C75.4932,76.8184 76.4992,75.8174 76.4992,74.5854 L71.9992,74.5854 C71.9992,75.8174 73.0072,76.8184 74.2512,76.8184 L74.2512,76.8184 Z M78.7502,72.3534 C77.5082,72.3534 76.5002,73.3524 76.5002,74.5864 L81.0002,74.5864 C81.0002,73.3524 79.9922,72.3534 78.7502,72.3534 L78.7502,72.3534 Z M69.7502,76.8024 C68.5082,76.8024 67.5002,77.8014 67.5002,79.0354 L72.0002,79.0354 C72.0002,77.8014 70.9942,76.8024 69.7502,76.8024 L69.7502,76.8024 Z M63.0002,79.0344 C63.0002,80.2674 64.0082,81.2684 65.2502,81.2684 C66.4922,81.2684 67.5002,80.2674 67.5002,79.0344 L63.0002,79.0344 Z M65.2512,76.8134 C66.4932,76.8134 67.5012,75.8124 67.5012,74.5804 L62.9992,74.5804 C62.9992,75.8124 64.0072,76.8134 65.2512,76.8134 L65.2512,76.8134 Z M69.7502,72.3484 C68.5082,72.3484 67.5002,73.3474 67.5002,74.5814 L72.0002,74.5814 C72.0002,73.3474 70.9942,72.3484 69.7502,72.3484 L69.7502,72.3484 Z M47.2512,103.7054 C48.4932,103.7054 49.4992,102.7044 49.4992,101.4714 L45.0012,101.4714 C45.0012,102.7044 46.0072,103.7054 47.2512,103.7054 L47.2512,103.7054 Z M51.7502,99.2394 C50.5082,99.2394 49.5002,100.2384 49.5002,101.4734 L54.0002,101.4734 C54.0002,100.2384 52.9922,99.2394 51.7502,99.2394 L51.7502,99.2394 Z M51.7502,94.7744 C50.5062,94.7744 49.5002,95.7734 49.5002,97.0084 L54.0002,97.0084 C54.0002,95.7734 52.9922,94.7744 51.7502,94.7744 L51.7502,94.7744 Z M45.0002,97.0074 C45.0002,98.2394 46.0082,99.2384 47.2502,99.2384 C48.4922,99.2384 49.5002,98.2394 49.5002,97.0074 L45.0002,97.0074 Z M47.2512,94.7854 C48.4932,94.7854 49.4992,93.7844 49.4992,92.5524 L45.0012,92.5524 C45.0012,93.7844 46.0072,94.7854 47.2512,94.7854 L47.2512,94.7854 Z M51.7502,90.3204 C50.5082,90.3204 49.5002,91.3194 49.5002,92.5534 L54.0002,92.5534 C54.0002,91.3194 52.9922,90.3204 51.7502,90.3204 L51.7502,90.3204 Z M92.2452,103.7054 C93.4872,103.7054 94.4952,102.7044 94.4952,101.4714 L89.9952,101.4714 C89.9952,102.7044 91.0022,103.7054 92.2452,103.7054 L92.2452,103.7054 Z M96.7442,99.2394 C95.5012,99.2394 94.4942,100.2384 94.4942,101.4734 L98.9952,101.4734 C98.9952,100.2384 97.9862,99.2394 96.7442,99.2394 L96.7442,99.2394 Z M96.7442,94.7744 C95.5012,94.7744 94.4942,95.7734 94.4942,97.0084 L98.9952,97.0084 C98.9952,95.7734 97.9862,94.7744 96.7442,94.7744 L96.7442,94.7744 Z M89.9942,97.0074 C89.9942,98.2394 91.0032,99.2384 92.2442,99.2384 C93.4882,99.2384 94.4942,98.2394 94.4942,97.0074 L89.9942,97.0074 Z M92.2452,94.7854 C93.4872,94.7854 94.4952,93.7844 94.4952,92.5524 L89.9952,92.5524 C89.9952,93.7844 91.0022,94.7854 92.2452,94.7854 L92.2452,94.7854 Z M96.7442,90.3204 C95.5012,90.3204 94.4942,91.3194 94.4942,92.5534 L98.9952,92.5534 C98.9952,91.3194 97.9862,90.3204 96.7442,90.3204 L96.7442,90.3204 Z M60.7502,90.3034 C59.5062,90.3034 58.5002,91.3024 58.5002,92.5364 L63.0002,92.5364 C63.0002,91.3024 61.9922,90.3034 60.7502,90.3034 L60.7502,90.3034 Z M54.0002,92.5364 C54.0002,93.7684 55.0062,94.7674 56.2502,94.7674 C57.4922,94.7674 58.5002,93.7684 58.5002,92.5364 L54.0002,92.5364 Z M56.2512,90.3144 C57.4932,90.3144 58.4992,89.3134 58.4992,88.0814 L53.9992,88.0814 C53.9992,89.3134 55.0072,90.3144 56.2512,90.3144 L56.2512,90.3144 Z M60.7502,85.8484 C59.5082,85.8484 58.5002,86.8484 58.5002,88.0824 L63.0002,88.0824 C63.0002,86.8484 61.9922,85.8484 60.7502,85.8484 L60.7502,85.8484 Z M87.7512,90.3034 C86.5072,90.3034 85.5002,91.3024 85.5002,92.5364 L90.0012,92.5364 C90.0012,91.3024 88.9922,90.3034 87.7512,90.3034 L87.7512,90.3034 Z M81.0002,92.5364 C81.0002,93.7684 82.0082,94.7674 83.2502,94.7674 C84.4922,94.7674 85.5002,93.7684 85.5002,92.5364 L81.0002,92.5364 Z M83.2512,90.3144 C84.4932,90.3144 85.5012,89.3134 85.5012,88.0814 L81.0012,88.0814 C81.0012,89.3134 82.0072,90.3144 83.2512,90.3144 L83.2512,90.3144 Z M87.7512,85.8484 C86.5072,85.8484 85.5002,86.8484 85.5002,88.0824 L90.0012,88.0824 C90.0012,86.8484 88.9922,85.8484 87.7512,85.8484 L87.7512,85.8484 Z M78.7502,85.7354 C77.5062,85.7354 76.5002,86.7354 76.5002,87.9684 L81.0002,87.9684 C81.0002,86.7354 79.9922,85.7354 78.7502,85.7354 L78.7502,85.7354 Z M72.0002,87.9674 C72.0002,89.2004 73.0082,90.2014 74.2502,90.2014 C75.4922,90.2014 76.5002,89.2004 76.5002,87.9674 L72.0002,87.9674 Z M74.2512,85.7464 C75.4932,85.7464 76.4992,84.7454 76.4992,83.5134 L71.9992,83.5134 C71.9992,84.7454 73.0072,85.7464 74.2512,85.7464 L74.2512,85.7464 Z M78.7502,81.2814 C77.5082,81.2814 76.5002,82.2804 76.5002,83.5144 L81.0002,83.5144 C81.0002,82.2804 79.9922,81.2814 78.7502,81.2814 L78.7502,81.2814 Z M69.7502,85.7304 C68.5082,85.7304 67.5002,86.7304 67.5002,87.9634 L72.0002,87.9634 C72.0002,86.7304 70.9942,85.7304 69.7502,85.7304 L69.7502,85.7304 Z M63.0002,87.9624 C63.0002,89.1954 64.0082,90.1964 65.2502,90.1964 C66.4922,90.1964 67.5002,89.1954 67.5002,87.9624 L63.0002,87.9624 Z M65.2512,85.7414 C66.4932,85.7414 67.5012,84.7404 67.5012,83.5074 L62.9992,83.5074 C62.9992,84.7404 64.0072,85.7414 65.2512,85.7414 L65.2512,85.7414 Z M69.7502,81.2754 C70.9942,81.2754 72.0002,82.2744 72.0002,83.5094 L67.5002,83.5094 C67.5002,82.2744 68.5082,81.2754 69.7502,81.2754 L69.7502,81.2754 Z"></path>
            </g>
        </g>
    </g>
</svg>