<?xml version="1.0" encoding="UTF-8" standalone="no"?>
<svg width="404px" height="318px" viewBox="0 0 404 318" version="1.1" xmlns="http://www.w3.org/2000/svg" xmlns:xlink="http://www.w3.org/1999/xlink">
    <!-- Generator: Sketch 3.7.2 (28276) - http://www.bohemiancoding.com/sketch -->
    <title>Group 6</title>
    <desc>Created with Sketch.</desc>
    <defs></defs>
    <g id="01-Index" stroke="none" stroke-width="1" fill="none" fill-rule="evenodd">
        <g id="01-Lascom-Home-D-parallax-v.1" transform="translate(-1798.000000, -145.000000)" fill="#FFFFFF">
            <g id="Group-3">
                <g id="Group-6" transform="translate(1798.000000, 145.000000)">
                    <path d="M79.926,259.6778 C75.954,259.6778 72.738,262.8938 72.738,266.8658 L87.114,266.8658 C87.114,262.8938 83.898,259.6778 79.926,259.6778" id="Fill-2220"></path>
                    <path d="M51.1668,259.6778 C47.1948,259.6778 43.9788,262.8938 43.9788,266.8658 L58.3548,266.8658 C58.3548,262.8938 55.1388,259.6778 51.1668,259.6778" id="Fill-2221"></path>
                    <path d="M36.7878,274.0574 C40.7598,274.0574 43.9758,270.8354 43.9758,266.8694 L29.5998,266.8694 C29.5998,270.8354 32.8158,274.0574 36.7878,274.0574" id="Fill-2222"></path>
                    <path d="M65.5446,274.0574 C69.5166,274.0574 72.7326,270.8354 72.7326,266.8694 L58.3566,266.8694 C58.3566,270.8354 61.5726,274.0574 65.5446,274.0574" id="Fill-2223"></path>
                    <path d="M58.3578,281.2112 C58.3578,285.1832 61.5738,288.3992 65.5458,288.3992 C69.5178,288.3992 72.7338,285.1832 72.7338,281.2112 L58.3578,281.2112 Z" id="Fill-2224"></path>
                    <path d="M79.926,274.0214 C75.954,274.0214 72.738,277.2434 72.738,281.2094 L87.114,281.2094 C87.114,277.2434 83.898,274.0214 79.926,274.0214" id="Fill-2225"></path>
                    <path d="M29.5944,281.2112 C29.5944,285.1832 32.8164,288.3992 36.7884,288.3992 C40.7604,288.3992 43.9764,285.1832 43.9764,281.2112 L29.6004,281.2112 L29.5944,281.2112 Z" id="Fill-2226"></path>
                    <path d="M51.1668,274.0214 C47.1948,274.0214 43.9788,277.2434 43.9788,281.2094 L58.3548,281.2094 C58.3548,277.2434 55.1388,274.0214 51.1668,274.0214" id="Fill-2227"></path>
                    <path d="M58.3578,295.6598 C58.3578,299.6318 61.5798,302.8538 65.5458,302.8538 C69.5178,302.8538 72.7338,299.6318 72.7338,295.6598 L58.3578,295.6598 Z" id="Fill-2228"></path>
                    <path d="M79.926,288.47 C75.954,288.47 72.738,291.692 72.738,295.658 L87.114,295.658 C87.114,291.692 83.898,288.47 79.926,288.47" id="Fill-2229"></path>
                    <path d="M29.5944,295.6598 C29.5944,299.6318 32.8164,302.8538 36.7884,302.8538 C40.7604,302.8538 43.9764,299.6318 43.9764,295.6598 L29.6004,295.6598 L29.5944,295.6598 Z" id="Fill-2230"></path>
                    <path d="M51.1668,288.47 C47.1948,288.47 43.9788,291.692 43.9788,295.658 L58.3548,295.658 C58.3548,291.692 55.1388,288.47 51.1668,288.47" id="Fill-2231"></path>
                    <path d="M79.926,302.8172 C75.954,302.8172 72.738,306.0332 72.738,310.0052 L87.114,310.0052 C87.114,306.0332 83.898,302.8172 79.926,302.8172" id="Fill-2232"></path>
                    <path d="M51.1668,302.8172 C47.1948,302.8172 43.9788,306.0332 43.9788,310.0052 L58.3548,310.0052 C58.3548,306.0332 55.1388,302.8172 51.1668,302.8172" id="Fill-2233"></path>
                    <path d="M36.7878,317.1968 C40.7598,317.1968 43.9758,313.9748 43.9758,310.0088 L29.5998,310.0088 C29.5998,313.9748 32.8158,317.1968 36.7878,317.1968" id="Fill-2234"></path>
                    <path d="M65.5476,317.1968 C69.5196,317.1968 72.7356,313.9748 72.7356,310.0088 L58.3596,310.0088 C58.3596,313.9748 61.5756,317.1968 65.5476,317.1968" id="Fill-2235"></path>
                    <path d="M51.1668,230.9084 C47.1948,230.9084 43.9788,234.1244 43.9788,238.0964 L58.3548,238.0964 C58.3548,234.1244 55.1388,230.9084 51.1668,230.9084" id="Fill-2236"></path>
                    <path d="M22.4076,230.9084 C18.4356,230.9084 15.2196,234.1244 15.2196,238.0964 L29.5956,238.0964 C29.5956,234.1244 26.3796,230.9084 22.4076,230.9084" id="Fill-2237"></path>
                    <path d="M8.0286,245.2886 C12.0006,245.2886 15.2166,242.0666 15.2166,238.1006 L0.8406,238.1006 C0.8406,242.0666 4.0566,245.2886 8.0286,245.2886" id="Fill-2238"></path>
                    <path d="M36.7854,245.2886 C40.7574,245.2886 43.9734,242.0666 43.9734,238.1006 L29.5974,238.1006 C29.5974,242.0666 32.8134,245.2886 36.7854,245.2886" id="Fill-2239"></path>
                    <path d="M29.5986,252.4418 C29.5986,256.4138 32.8146,259.6298 36.7866,259.6298 C40.7586,259.6298 43.9746,256.4138 43.9746,252.4418 L29.5986,252.4418 Z" id="Fill-2240"></path>
                    <path d="M51.1668,245.252 C47.1948,245.252 43.9788,248.474 43.9788,252.44 L58.3548,252.44 C58.3548,248.474 55.1388,245.252 51.1668,245.252" id="Fill-2241"></path>
                    <path d="M0.8352,252.4418 C0.8352,256.4138 4.0572,259.6298 8.0292,259.6298 C12.0012,259.6298 15.2172,256.4138 15.2172,252.4418 L0.8412,252.4418 L0.8352,252.4418 Z" id="Fill-2242"></path>
                    <path d="M22.4076,245.252 C18.4356,245.252 15.2196,248.474 15.2196,252.44 L29.5956,252.44 C29.5956,248.474 26.3796,245.252 22.4076,245.252" id="Fill-2243"></path>
                    <path d="M108.687,230.9084 C104.715,230.9084 101.499,234.1244 101.499,238.0964 L115.875,238.0964 C115.875,234.1244 112.659,230.9084 108.687,230.9084" id="Fill-2244"></path>
                    <path d="M79.926,230.9084 C75.954,230.9084 72.738,234.1244 72.738,238.0964 L87.114,238.0964 C87.114,234.1244 83.898,230.9084 79.926,230.9084" id="Fill-2245"></path>
                    <path d="M65.5476,245.2886 C69.5196,245.2886 72.7356,242.0666 72.7356,238.1006 L58.3596,238.1006 C58.3596,242.0666 61.5756,245.2886 65.5476,245.2886" id="Fill-2246"></path>
                    <path d="M94.3038,245.2886 C98.2758,245.2886 101.4918,242.0666 101.4918,238.1006 L87.1158,238.1006 C87.1158,242.0666 90.3318,245.2886 94.3038,245.2886" id="Fill-2247"></path>
                    <path d="M87.117,252.4418 C87.117,256.4138 90.333,259.6298 94.305,259.6298 C98.277,259.6298 101.493,256.4138 101.493,252.4418 L87.117,252.4418 Z" id="Fill-2248"></path>
                    <path d="M108.687,245.252 C104.715,245.252 101.499,248.474 101.499,252.44 L115.875,252.44 C115.875,248.474 112.659,245.252 108.687,245.252" id="Fill-2249"></path>
                    <path d="M58.3536,252.4418 C58.3536,256.4138 61.5756,259.6298 65.5476,259.6298 C69.5196,259.6298 72.7356,256.4138 72.7356,252.4418 L58.3596,252.4418 L58.3536,252.4418 Z" id="Fill-2250"></path>
                    <path d="M79.926,245.252 C75.954,245.252 72.738,248.474 72.738,252.44 L87.114,252.44 C87.114,248.474 83.898,245.252 79.926,245.252" id="Fill-2251"></path>
                    <path d="M166.2054,230.9084 C162.2334,230.9084 159.0174,234.1244 159.0174,238.0964 L173.3934,238.0964 C173.3934,234.1244 170.1774,230.9084 166.2054,230.9084" id="Fill-2252"></path>
                    <path d="M137.4462,230.9084 C133.4742,230.9084 130.2582,234.1244 130.2582,238.0964 L144.6342,238.0964 C144.6342,234.1244 141.4182,230.9084 137.4462,230.9084" id="Fill-2253"></path>
                    <path d="M123.066,245.2886 C127.038,245.2886 130.254,242.0666 130.254,238.1006 L115.878,238.1006 C115.878,242.0666 119.094,245.2886 123.066,245.2886" id="Fill-2254"></path>
                    <path d="M151.8222,245.2886 C155.7942,245.2886 159.0102,242.0666 159.0102,238.1006 L144.6342,238.1006 C144.6342,242.0666 147.8502,245.2886 151.8222,245.2886" id="Fill-2255"></path>
                    <path d="M144.636,252.4418 C144.636,256.4138 147.852,259.6298 151.824,259.6298 C155.796,259.6298 159.012,256.4138 159.012,252.4418 L144.636,252.4418 Z" id="Fill-2256"></path>
                    <path d="M166.2054,245.252 C162.2334,245.252 159.0174,248.474 159.0174,252.44 L173.3934,252.44 C173.3934,248.474 170.1774,245.252 166.2054,245.252" id="Fill-2257"></path>
                    <path d="M115.8738,252.4418 C115.8738,256.4138 119.0958,259.6298 123.0678,259.6298 C127.0338,259.6298 130.2558,256.4138 130.2558,252.4418 L115.8738,252.4418 L115.8738,252.4418 Z" id="Fill-2258"></path>
                    <path d="M137.4462,245.252 C133.4742,245.252 130.2582,248.474 130.2582,252.44 L144.6342,252.44 C144.6342,248.474 141.4182,245.252 137.4462,245.252" id="Fill-2259"></path>
                    <path d="M223.7244,230.9084 C219.7524,230.9084 216.5364,234.1244 216.5364,238.0964 L230.9124,238.0964 C230.9124,234.1244 227.6964,230.9084 223.7244,230.9084" id="Fill-2260"></path>
                    <path d="M194.9646,230.9084 C190.9926,230.9084 187.7766,234.1244 187.7766,238.0964 L202.1526,238.0964 C202.1526,234.1244 198.9366,230.9084 194.9646,230.9084" id="Fill-2261"></path>
                    <path d="M180.5844,245.2886 C184.5564,245.2886 187.7724,242.0666 187.7724,238.1006 L173.3964,238.1006 C173.3964,242.0666 176.6124,245.2886 180.5844,245.2886" id="Fill-2262"></path>
                    <path d="M209.3436,245.2886 C213.3156,245.2886 216.5316,242.0666 216.5316,238.1006 L202.1556,238.1006 C202.1556,242.0666 205.3716,245.2886 209.3436,245.2886" id="Fill-2263"></path>
                    <path d="M202.1544,252.4418 C202.1544,256.4138 205.3764,259.6298 209.3424,259.6298 C213.3144,259.6298 216.5364,256.4138 216.5364,252.4418 L202.1544,252.4418 Z" id="Fill-2264"></path>
                    <path d="M223.7244,245.252 C219.7524,245.252 216.5364,248.474 216.5364,252.44 L230.9124,252.44 C230.9124,248.474 227.6964,245.252 223.7244,245.252" id="Fill-2265"></path>
                    <path d="M173.3952,252.4418 C173.3952,256.4138 176.6112,259.6298 180.5832,259.6298 C184.5552,259.6298 187.7712,256.4138 187.7712,252.4418 L173.3952,252.4418 Z" id="Fill-2266"></path>
                    <path d="M194.9646,245.252 C190.9926,245.252 187.7766,248.474 187.7766,252.44 L202.1526,252.44 C202.1526,248.474 198.9366,245.252 194.9646,245.252" id="Fill-2267"></path>
                    <path d="M281.2428,230.9084 C277.2708,230.9084 274.0548,234.1244 274.0548,238.0964 L288.4308,238.0964 C288.4308,234.1244 285.2148,230.9084 281.2428,230.9084" id="Fill-2268"></path>
                    <path d="M252.4836,230.9084 C248.5116,230.9084 245.2956,234.1244 245.2956,238.0964 L259.6716,238.0964 C259.6716,234.1244 256.4556,230.9084 252.4836,230.9084" id="Fill-2269"></path>
                    <path d="M238.1028,245.2886 C242.0748,245.2886 245.2908,242.0666 245.2908,238.1006 L230.9148,238.1006 C230.9148,242.0666 234.1308,245.2886 238.1028,245.2886" id="Fill-2270"></path>
                    <path d="M266.8626,245.2886 C270.8346,245.2886 274.0506,242.0666 274.0506,238.1006 L259.6746,238.1006 C259.6746,242.0666 262.8906,245.2886 266.8626,245.2886" id="Fill-2271"></path>
                    <path d="M259.6728,252.4418 C259.6728,256.4138 262.8948,259.6298 266.8608,259.6298 C270.8328,259.6298 274.0548,256.4138 274.0548,252.4418 L259.6728,252.4418 Z" id="Fill-2272"></path>
                    <path d="M281.2428,245.252 C277.2708,245.252 274.0548,248.474 274.0548,252.44 L288.4308,252.44 C288.4308,248.474 285.2148,245.252 281.2428,245.252" id="Fill-2273"></path>
                    <path d="M230.9136,252.4418 C230.9136,256.4138 234.1296,259.6298 238.1016,259.6298 C242.0736,259.6298 245.2956,256.4138 245.2956,252.4418 L230.9136,252.4418 Z" id="Fill-2274"></path>
                    <path d="M252.4836,245.252 C248.5116,245.252 245.2956,248.474 245.2956,252.44 L259.6716,252.44 C259.6716,248.474 256.4556,245.252 252.4836,245.252" id="Fill-2275"></path>
                    <path d="M338.7612,230.9084 C334.7892,230.9084 331.5732,234.1244 331.5732,238.0964 L345.9492,238.0964 C345.9492,234.1244 342.7332,230.9084 338.7612,230.9084" id="Fill-2276"></path>
                    <path d="M310.002,230.9084 C306.03,230.9084 302.814,234.1244 302.814,238.0964 L317.19,238.0964 C317.19,234.1244 313.974,230.9084 310.002,230.9084" id="Fill-2277"></path>
                    <path d="M295.6218,245.2886 C299.5938,245.2886 302.8098,242.0666 302.8098,238.1006 L288.4338,238.1006 C288.4338,242.0666 291.6498,245.2886 295.6218,245.2886" id="Fill-2278"></path>
                    <path d="M324.3822,245.2886 C328.3542,245.2886 331.5702,242.0666 331.5702,238.1006 L317.1942,238.1006 C317.1942,242.0666 320.4102,245.2886 324.3822,245.2886" id="Fill-2279"></path>
                    <path d="M317.1912,252.4418 C317.1912,256.4138 320.4132,259.6298 324.3792,259.6298 C328.3512,259.6298 331.5732,256.4138 331.5732,252.4418 L317.1912,252.4418 Z" id="Fill-2280"></path>
                    <path d="M338.7612,245.252 C334.7892,245.252 331.5732,248.474 331.5732,252.44 L345.9492,252.44 C345.9492,248.474 342.7332,245.252 338.7612,245.252" id="Fill-2281"></path>
                    <path d="M288.432,252.4418 C288.432,256.4138 291.648,259.6298 295.62,259.6298 C299.592,259.6298 302.814,256.4138 302.814,252.4418 L288.432,252.4418 Z" id="Fill-2282"></path>
                    <path d="M310.002,245.252 C306.03,245.252 302.814,248.474 302.814,252.44 L317.19,252.44 C317.19,248.474 313.974,245.252 310.002,245.252" id="Fill-2283"></path>
                    <path d="M396.2796,230.9084 C392.3076,230.9084 389.0916,234.1244 389.0916,238.0964 L403.4736,238.0964 C403.4736,234.1244 400.2516,230.9084 396.2796,230.9084" id="Fill-2284"></path>
                    <path d="M367.5204,230.9084 C363.5484,230.9084 360.3324,234.1244 360.3324,238.0964 L374.7084,238.0964 C374.7084,234.1244 371.4924,230.9084 367.5204,230.9084" id="Fill-2285"></path>
                    <path d="M353.1444,245.2886 C357.1164,245.2886 360.3324,242.0666 360.3324,238.1006 L345.9504,238.1006 C345.9504,242.0666 349.1724,245.2886 353.1444,245.2886" id="Fill-2286"></path>
                    <path d="M381.9006,245.2886 C385.8726,245.2886 389.0886,242.0666 389.0886,238.1006 L374.7126,238.1006 C374.7126,242.0666 377.9286,245.2886 381.9006,245.2886" id="Fill-2287"></path>
                    <path d="M374.7102,252.4418 C374.7102,256.4138 377.9322,259.6298 381.8982,259.6298 C385.8762,259.6298 389.0922,256.4138 389.0922,252.4418 L374.7102,252.4418 Z" id="Fill-2288"></path>
                    <path d="M396.2796,245.252 C392.3076,245.252 389.0916,248.474 389.0916,252.44 L403.4736,252.44 C403.4736,248.474 400.2516,245.252 396.2796,245.252" id="Fill-2289"></path>
                    <path d="M345.9504,252.4418 C345.9504,256.4138 349.1724,259.6298 353.1384,259.6298 C357.1104,259.6298 360.3324,256.4138 360.3324,252.4418 L345.9504,252.4418 Z" id="Fill-2290"></path>
                    <path d="M367.5204,245.252 C363.5484,245.252 360.3324,248.474 360.3324,252.44 L374.7084,252.44 C374.7084,248.474 371.4924,245.252 367.5204,245.252" id="Fill-2291"></path>
                    <path d="M22.4076,173.39 C18.4356,173.39 15.2196,176.606 15.2196,180.578 L29.5956,180.578 C29.5956,176.606 26.3796,173.39 22.4076,173.39" id="Fill-2292"></path>
                    <path d="M8.0286,187.7696 C12.0006,187.7696 15.2166,184.5476 15.2166,180.5816 L0.8406,180.5816 C0.8406,184.5476 4.0566,187.7696 8.0286,187.7696" id="Fill-2293"></path>
                    <path d="M0.8352,194.9234 C0.8352,198.8954 4.0572,202.1114 8.0292,202.1114 C12.0012,202.1114 15.2172,198.8954 15.2172,194.9234 L0.8412,194.9234 L0.8352,194.9234 Z" id="Fill-2294"></path>
                    <path d="M22.4076,187.733 C18.4356,187.733 15.2196,190.955 15.2196,194.921 L29.5956,194.921 C29.5956,190.955 26.3796,187.733 22.4076,187.733" id="Fill-2295"></path>
                    <path d="M0.8352,209.372 C0.8352,213.344 4.0572,216.566 8.0292,216.566 C12.0012,216.566 15.2172,213.344 15.2172,209.372 L0.8412,209.372 L0.8352,209.372 Z" id="Fill-2296"></path>
                    <path d="M22.4076,202.1858 C18.4356,202.1858 15.2196,205.4018 15.2196,209.3738 L29.5956,209.3738 C29.5956,205.4018 26.3796,202.1858 22.4076,202.1858" id="Fill-2297"></path>
                    <path d="M51.1668,216.5288 C47.1948,216.5288 43.9788,219.7448 43.9788,223.7168 L58.3548,223.7168 C58.3548,219.7448 55.1388,216.5288 51.1668,216.5288" id="Fill-2298"></path>
                    <path d="M22.4076,216.5288 C18.4356,216.5288 15.2196,219.7448 15.2196,223.7168 L29.5956,223.7168 C29.5956,219.7448 26.3796,216.5288 22.4076,216.5288" id="Fill-2299"></path>
                    <path d="M8.0286,230.9084 C12.0006,230.9084 15.2166,227.6864 15.2166,223.7204 L0.8406,223.7204 C0.8406,227.6864 4.0566,230.9084 8.0286,230.9084" id="Fill-2300"></path>
                    <path d="M36.7878,230.9084 C40.7598,230.9084 43.9758,227.6864 43.9758,223.7204 L29.5998,223.7204 C29.5998,227.6864 32.8158,230.9084 36.7878,230.9084" id="Fill-2301"></path>
                    <path d="M166.2054,173.39 C162.2334,173.39 159.0174,176.606 159.0174,180.578 L173.3934,180.578 C173.3934,176.606 170.1774,173.39 166.2054,173.39" id="Fill-2302"></path>
                    <path d="M137.4462,173.39 C133.4742,173.39 130.2582,176.606 130.2582,180.578 L144.6342,180.578 C144.6342,176.606 141.4182,173.39 137.4462,173.39" id="Fill-2303"></path>
                    <path d="M123.066,187.7696 C127.038,187.7696 130.254,184.5476 130.254,180.5816 L115.878,180.5816 C115.878,184.5476 119.094,187.7696 123.066,187.7696" id="Fill-2304"></path>
                    <path d="M151.8222,187.7696 C155.7942,187.7696 159.0102,184.5476 159.0102,180.5816 L144.6342,180.5816 C144.6342,184.5476 147.8502,187.7696 151.8222,187.7696" id="Fill-2305"></path>
                    <path d="M144.636,194.9234 C144.636,198.8954 147.852,202.1114 151.824,202.1114 C155.796,202.1114 159.012,198.8954 159.012,194.9234 L144.636,194.9234 Z" id="Fill-2306"></path>
                    <path d="M166.2054,187.733 C162.2334,187.733 159.0174,190.955 159.0174,194.921 L173.3934,194.921 C173.3934,190.955 170.1774,187.733 166.2054,187.733" id="Fill-2307"></path>
                    <path d="M115.8738,194.9234 C115.8738,198.8954 119.0958,202.1114 123.0678,202.1114 C127.0338,202.1114 130.2558,198.8954 130.2558,194.9234 L115.8738,194.9234 L115.8738,194.9234 Z" id="Fill-2308"></path>
                    <path d="M137.4462,187.733 C133.4742,187.733 130.2582,190.955 130.2582,194.921 L144.6342,194.921 C144.6342,190.955 141.4182,187.733 137.4462,187.733" id="Fill-2309"></path>
                    <path d="M144.636,209.372 C144.636,213.344 147.858,216.566 151.824,216.566 C155.796,216.566 159.012,213.344 159.012,209.372 L144.636,209.372 Z" id="Fill-2310"></path>
                    <path d="M166.2054,202.1858 C162.2334,202.1858 159.0174,205.4018 159.0174,209.3738 L173.3934,209.3738 C173.3934,205.4018 170.1774,202.1858 166.2054,202.1858" id="Fill-2311"></path>
                    <path d="M115.8738,209.372 C115.8738,213.344 119.0958,216.566 123.0678,216.566 C127.0338,216.566 130.2558,213.344 130.2558,209.372 L115.8738,209.372 L115.8738,209.372 Z" id="Fill-2312"></path>
                    <path d="M137.4462,202.1858 C133.4742,202.1858 130.2582,205.4018 130.2582,209.3738 L144.6342,209.3738 C144.6342,205.4018 141.4182,202.1858 137.4462,202.1858" id="Fill-2313"></path>
                    <path d="M166.2054,216.5288 C162.2334,216.5288 159.0174,219.7448 159.0174,223.7168 L173.3934,223.7168 C173.3934,219.7448 170.1774,216.5288 166.2054,216.5288" id="Fill-2314"></path>
                    <path d="M137.4462,216.5288 C133.4742,216.5288 130.2582,219.7448 130.2582,223.7168 L144.6342,223.7168 C144.6342,219.7448 141.4182,216.5288 137.4462,216.5288" id="Fill-2315"></path>
                    <path d="M123.066,230.9084 C127.038,230.9084 130.254,227.6864 130.254,223.7204 L115.878,223.7204 C115.878,227.6864 119.094,230.9084 123.066,230.9084" id="Fill-2316"></path>
                    <path d="M151.8252,230.9084 C155.7972,230.9084 159.0132,227.6864 159.0132,223.7204 L144.6372,223.7204 C144.6372,227.6864 147.8532,230.9084 151.8252,230.9084" id="Fill-2317"></path>
                    <path d="M223.7244,173.39 C219.7524,173.39 216.5364,176.606 216.5364,180.578 L230.9124,180.578 C230.9124,176.606 227.6964,173.39 223.7244,173.39" id="Fill-2318"></path>
                    <path d="M194.9646,173.39 C190.9926,173.39 187.7766,176.606 187.7766,180.578 L202.1526,180.578 C202.1526,176.606 198.9366,173.39 194.9646,173.39" id="Fill-2319"></path>
                    <path d="M180.5844,187.7696 C184.5564,187.7696 187.7724,184.5476 187.7724,180.5816 L173.3964,180.5816 C173.3964,184.5476 176.6124,187.7696 180.5844,187.7696" id="Fill-2320"></path>
                    <path d="M209.3436,187.7696 C213.3156,187.7696 216.5316,184.5476 216.5316,180.5816 L202.1556,180.5816 C202.1556,184.5476 205.3716,187.7696 209.3436,187.7696" id="Fill-2321"></path>
                    <path d="M202.1544,194.9234 C202.1544,198.8954 205.3764,202.1114 209.3424,202.1114 C213.3144,202.1114 216.5364,198.8954 216.5364,194.9234 L202.1544,194.9234 Z" id="Fill-2322"></path>
                    <path d="M223.7244,187.733 C219.7524,187.733 216.5364,190.955 216.5364,194.921 L230.9124,194.921 C230.9124,190.955 227.6964,187.733 223.7244,187.733" id="Fill-2323"></path>
                    <path d="M173.3952,194.9234 C173.3952,198.8954 176.6112,202.1114 180.5832,202.1114 C184.5552,202.1114 187.7712,198.8954 187.7712,194.9234 L173.3952,194.9234 Z" id="Fill-2324"></path>
                    <path d="M194.9646,187.733 C190.9926,187.733 187.7766,190.955 187.7766,194.921 L202.1526,194.921 C202.1526,190.955 198.9366,187.733 194.9646,187.733" id="Fill-2325"></path>
                    <path d="M202.1544,209.372 C202.1544,213.344 205.3764,216.566 209.3424,216.566 C213.3204,216.566 216.5364,213.344 216.5364,209.372 L202.1544,209.372 Z" id="Fill-2326"></path>
                    <path d="M223.7244,202.1858 C219.7524,202.1858 216.5364,205.4018 216.5364,209.3738 L230.9124,209.3738 C230.9124,205.4018 227.6964,202.1858 223.7244,202.1858" id="Fill-2327"></path>
                    <path d="M173.3952,209.372 C173.3952,213.344 176.6172,216.566 180.5832,216.566 C184.5552,216.566 187.7712,213.344 187.7712,209.372 L173.3952,209.372 Z" id="Fill-2328"></path>
                    <path d="M194.9646,202.1858 C190.9926,202.1858 187.7766,205.4018 187.7766,209.3738 L202.1526,209.3738 C202.1526,205.4018 198.9366,202.1858 194.9646,202.1858" id="Fill-2329"></path>
                    <path d="M223.7244,216.5288 C219.7524,216.5288 216.5364,219.7448 216.5364,223.7168 L230.9124,223.7168 C230.9124,219.7448 227.6964,216.5288 223.7244,216.5288" id="Fill-2330"></path>
                    <path d="M194.9646,216.5288 C190.9926,216.5288 187.7766,219.7448 187.7766,223.7168 L202.1526,223.7168 C202.1526,219.7448 198.9366,216.5288 194.9646,216.5288" id="Fill-2331"></path>
                    <path d="M180.5844,230.9084 C184.5564,230.9084 187.7724,227.6864 187.7724,223.7204 L173.3964,223.7204 C173.3964,227.6864 176.6124,230.9084 180.5844,230.9084" id="Fill-2332"></path>
                    <path d="M209.3436,230.9084 C213.3156,230.9084 216.5316,227.6864 216.5316,223.7204 L202.1556,223.7204 C202.1556,227.6864 205.3716,230.9084 209.3436,230.9084" id="Fill-2333"></path>
                    <path d="M281.2428,173.39 C277.2708,173.39 274.0548,176.606 274.0548,180.578 L288.4308,180.578 C288.4308,176.606 285.2148,173.39 281.2428,173.39" id="Fill-2334"></path>
                    <path d="M252.4836,173.39 C248.5116,173.39 245.2956,176.606 245.2956,180.578 L259.6716,180.578 C259.6716,176.606 256.4556,173.39 252.4836,173.39" id="Fill-2335"></path>
                    <path d="M238.1028,187.7696 C242.0748,187.7696 245.2908,184.5476 245.2908,180.5816 L230.9148,180.5816 C230.9148,184.5476 234.1308,187.7696 238.1028,187.7696" id="Fill-2336"></path>
                    <path d="M266.8626,187.7696 C270.8346,187.7696 274.0506,184.5476 274.0506,180.5816 L259.6746,180.5816 C259.6746,184.5476 262.8906,187.7696 266.8626,187.7696" id="Fill-2337"></path>
                    <path d="M259.6728,194.9234 C259.6728,198.8954 262.8948,202.1114 266.8608,202.1114 C270.8328,202.1114 274.0548,198.8954 274.0548,194.9234 L259.6728,194.9234 Z" id="Fill-2338"></path>
                    <path d="M281.2428,187.733 C277.2708,187.733 274.0548,190.955 274.0548,194.921 L288.4308,194.921 C288.4308,190.955 285.2148,187.733 281.2428,187.733" id="Fill-2339"></path>
                    <path d="M230.9136,194.9234 C230.9136,198.8954 234.1296,202.1114 238.1016,202.1114 C242.0736,202.1114 245.2956,198.8954 245.2956,194.9234 L230.9136,194.9234 Z" id="Fill-2340"></path>
                    <path d="M252.4836,187.733 C248.5116,187.733 245.2956,190.955 245.2956,194.921 L259.6716,194.921 C259.6716,190.955 256.4556,187.733 252.4836,187.733" id="Fill-2341"></path>
                    <path d="M259.6728,209.372 C259.6728,213.344 262.8948,216.566 266.8608,216.566 C270.8388,216.566 274.0548,213.344 274.0548,209.372 L259.6728,209.372 Z" id="Fill-2342"></path>
                    <path d="M281.2428,202.1858 C277.2708,202.1858 274.0548,205.4018 274.0548,209.3738 L288.4308,209.3738 C288.4308,205.4018 285.2148,202.1858 281.2428,202.1858" id="Fill-2343"></path>
                    <path d="M230.9136,209.372 C230.9136,213.344 234.1356,216.566 238.1016,216.566 C242.0736,216.566 245.2956,213.344 245.2956,209.372 L230.9136,209.372 Z" id="Fill-2344"></path>
                    <path d="M252.4836,202.1858 C248.5116,202.1858 245.2956,205.4018 245.2956,209.3738 L259.6716,209.3738 C259.6716,205.4018 256.4556,202.1858 252.4836,202.1858" id="Fill-2345"></path>
                    <path d="M281.2428,216.5288 C277.2708,216.5288 274.0548,219.7448 274.0548,223.7168 L288.4308,223.7168 C288.4308,219.7448 285.2148,216.5288 281.2428,216.5288" id="Fill-2346"></path>
                    <path d="M252.4836,216.5288 C248.5116,216.5288 245.2956,219.7448 245.2956,223.7168 L259.6716,223.7168 C259.6716,219.7448 256.4556,216.5288 252.4836,216.5288" id="Fill-2347"></path>
                    <path d="M238.1028,230.9084 C242.0748,230.9084 245.2908,227.6864 245.2908,223.7204 L230.9148,223.7204 C230.9148,227.6864 234.1308,230.9084 238.1028,230.9084" id="Fill-2348"></path>
                    <path d="M266.8626,230.9084 C270.8346,230.9084 274.0506,227.6864 274.0506,223.7204 L259.6746,223.7204 C259.6746,227.6864 262.8906,230.9084 266.8626,230.9084" id="Fill-2349"></path>
                    <path d="M310.002,173.39 C306.03,173.39 302.814,176.606 302.814,180.578 L317.19,180.578 C317.19,176.606 313.974,173.39 310.002,173.39" id="Fill-2350"></path>
                    <path d="M295.6218,187.7696 C299.5938,187.7696 302.8098,184.5476 302.8098,180.5816 L288.4338,180.5816 C288.4338,184.5476 291.6498,187.7696 295.6218,187.7696" id="Fill-2351"></path>
                    <path d="M288.432,194.9234 C288.432,198.8954 291.648,202.1114 295.62,202.1114 C299.592,202.1114 302.814,198.8954 302.814,194.9234 L288.432,194.9234 Z" id="Fill-2352"></path>
                    <path d="M310.002,187.733 C306.03,187.733 302.814,190.955 302.814,194.921 L317.19,194.921 C317.19,190.955 313.974,187.733 310.002,187.733" id="Fill-2353"></path>
                    <path d="M288.432,209.372 C288.432,213.344 291.654,216.566 295.62,216.566 C299.592,216.566 302.814,213.344 302.814,209.372 L288.432,209.372 Z" id="Fill-2354"></path>
                    <path d="M310.002,202.1858 C306.03,202.1858 302.814,205.4018 302.814,209.3738 L317.19,209.3738 C317.19,205.4018 313.974,202.1858 310.002,202.1858" id="Fill-2355"></path>
                    <path d="M338.7612,216.5288 C334.7892,216.5288 331.5732,219.7448 331.5732,223.7168 L345.9492,223.7168 C345.9492,219.7448 342.7332,216.5288 338.7612,216.5288" id="Fill-2356"></path>
                    <path d="M310.002,216.5288 C306.03,216.5288 302.814,219.7448 302.814,223.7168 L317.19,223.7168 C317.19,219.7448 313.974,216.5288 310.002,216.5288" id="Fill-2357"></path>
                    <path d="M295.6218,230.9084 C299.5938,230.9084 302.8098,227.6864 302.8098,223.7204 L288.4338,223.7204 C288.4338,227.6864 291.6498,230.9084 295.6218,230.9084" id="Fill-2358"></path>
                    <path d="M324.3822,230.9084 C328.3542,230.9084 331.5702,227.6864 331.5702,223.7204 L317.1942,223.7204 C317.1942,227.6864 320.4102,230.9084 324.3822,230.9084" id="Fill-2359"></path>
                    <path d="M396.2796,173.39 C392.3076,173.39 389.0916,176.606 389.0916,180.578 L403.4736,180.578 C403.4736,176.606 400.2516,173.39 396.2796,173.39" id="Fill-2360"></path>
                    <path d="M381.9006,187.7696 C385.8726,187.7696 389.0886,184.5476 389.0886,180.5816 L374.7126,180.5816 C374.7126,184.5476 377.9286,187.7696 381.9006,187.7696" id="Fill-2361"></path>
                    <path d="M374.7102,194.9234 C374.7102,198.8954 377.9322,202.1114 381.8982,202.1114 C385.8762,202.1114 389.0922,198.8954 389.0922,194.9234 L374.7102,194.9234 Z" id="Fill-2362"></path>
                    <path d="M396.2796,187.733 C392.3076,187.733 389.0916,190.955 389.0916,194.921 L403.4736,194.921 C403.4736,190.955 400.2516,187.733 396.2796,187.733" id="Fill-2363"></path>
                    <path d="M374.7102,209.372 C374.7102,213.344 377.9322,216.566 381.8982,216.566 C385.8762,216.566 389.0922,213.344 389.0922,209.372 L374.7102,209.372 Z" id="Fill-2364"></path>
                    <path d="M396.2796,202.1858 C392.3076,202.1858 389.0916,205.4018 389.0916,209.3738 L403.4736,209.3738 C403.4736,205.4018 400.2516,202.1858 396.2796,202.1858" id="Fill-2365"></path>
                    <path d="M396.2796,216.5288 C392.3076,216.5288 389.0916,219.7448 389.0916,223.7168 L403.4736,223.7168 C403.4736,219.7448 400.2516,216.5288 396.2796,216.5288" id="Fill-2366"></path>
                    <path d="M367.5204,216.5288 C363.5484,216.5288 360.3324,219.7448 360.3324,223.7168 L374.7084,223.7168 C374.7084,219.7448 371.4924,216.5288 367.5204,216.5288" id="Fill-2367"></path>
                    <path d="M353.1444,230.9084 C357.1164,230.9084 360.3324,227.6864 360.3324,223.7204 L345.9504,223.7204 C345.9504,227.6864 349.1724,230.9084 353.1444,230.9084" id="Fill-2368"></path>
                    <path d="M381.9006,230.9084 C385.8726,230.9084 389.0886,227.6864 389.0886,223.7204 L374.7126,223.7204 C374.7126,227.6864 377.9286,230.9084 381.9006,230.9084" id="Fill-2369"></path>
                    <path d="M51.1668,115.871 C47.1948,115.871 43.9788,119.087 43.9788,123.059 L58.3548,123.059 C58.3548,119.087 55.1388,115.871 51.1668,115.871" id="Fill-2370"></path>
                    <path d="M22.4076,115.871 C18.4356,115.871 15.2196,119.087 15.2196,123.059 L29.5956,123.059 C29.5956,119.087 26.3796,115.871 22.4076,115.871" id="Fill-2371"></path>
                    <path d="M8.0286,130.2506 C12.0006,130.2506 15.2166,127.0286 15.2166,123.0626 L0.8406,123.0626 C0.8406,127.0286 4.0566,130.2506 8.0286,130.2506" id="Fill-2372"></path>
                    <path d="M36.7854,130.2506 C40.7574,130.2506 43.9734,127.0286 43.9734,123.0626 L29.5974,123.0626 C29.5974,127.0286 32.8134,130.2506 36.7854,130.2506" id="Fill-2373"></path>
                    <path d="M29.5986,137.4044 C29.5986,141.3764 32.8146,144.5924 36.7866,144.5924 C40.7586,144.5924 43.9746,141.3764 43.9746,137.4044 L29.5986,137.4044 Z" id="Fill-2374"></path>
                    <path d="M51.1668,130.2146 C47.1948,130.2146 43.9788,133.4366 43.9788,137.4026 L58.3548,137.4026 C58.3548,133.4366 55.1388,130.2146 51.1668,130.2146" id="Fill-2375"></path>
                    <path d="M0.8352,137.4044 C0.8352,141.3764 4.0572,144.5924 8.0292,144.5924 C12.0012,144.5924 15.2172,141.3764 15.2172,137.4044 L0.8412,137.4044 L0.8352,137.4044 Z" id="Fill-2376"></path>
                    <path d="M22.4076,130.2146 C18.4356,130.2146 15.2196,133.4366 15.2196,137.4026 L29.5956,137.4026 C29.5956,133.4366 26.3796,130.2146 22.4076,130.2146" id="Fill-2377"></path>
                    <path d="M29.5986,151.8536 C29.5986,155.8256 32.8206,159.0476 36.7866,159.0476 C40.7586,159.0476 43.9746,155.8256 43.9746,151.8536 L29.5986,151.8536 Z" id="Fill-2378"></path>
                    <path d="M51.1668,144.6668 C47.1948,144.6668 43.9788,147.8828 43.9788,151.8548 L58.3548,151.8548 C58.3548,147.8828 55.1388,144.6668 51.1668,144.6668" id="Fill-2379"></path>
                    <path d="M0.8352,151.8536 C0.8352,155.8256 4.0572,159.0476 8.0292,159.0476 C12.0012,159.0476 15.2172,155.8256 15.2172,151.8536 L0.8412,151.8536 L0.8352,151.8536 Z" id="Fill-2380"></path>
                    <path d="M22.4076,144.6668 C18.4356,144.6668 15.2196,147.8828 15.2196,151.8548 L29.5956,151.8548 C29.5956,147.8828 26.3796,144.6668 22.4076,144.6668" id="Fill-2381"></path>
                    <path d="M22.4076,159.0104 C18.4356,159.0104 15.2196,162.2264 15.2196,166.1984 L29.5956,166.1984 C29.5956,162.2264 26.3796,159.0104 22.4076,159.0104" id="Fill-2382"></path>
                    <path d="M8.0286,173.39 C12.0006,173.39 15.2166,170.168 15.2166,166.202 L0.8406,166.202 C0.8406,170.168 4.0566,173.39 8.0286,173.39" id="Fill-2383"></path>
                    <path d="M108.687,173.39 C104.715,173.39 101.499,176.606 101.499,180.578 L115.875,180.578 C115.875,176.606 112.659,173.39 108.687,173.39" id="Fill-2384"></path>
                    <path d="M94.3038,187.7696 C98.2758,187.7696 101.4918,184.5476 101.4918,180.5816 L87.1158,180.5816 C87.1158,184.5476 90.3318,187.7696 94.3038,187.7696" id="Fill-2385"></path>
                    <path d="M87.117,194.9234 C87.117,198.8954 90.333,202.1114 94.305,202.1114 C98.277,202.1114 101.493,198.8954 101.493,194.9234 L87.117,194.9234 Z" id="Fill-2386"></path>
                    <path d="M108.687,187.733 C104.715,187.733 101.499,190.955 101.499,194.921 L115.875,194.921 C115.875,190.955 112.659,187.733 108.687,187.733" id="Fill-2387"></path>
                    <path d="M87.117,209.372 C87.117,213.344 90.339,216.566 94.305,216.566 C98.277,216.566 101.493,213.344 101.493,209.372 L87.117,209.372 Z" id="Fill-2388"></path>
                    <path d="M108.687,202.1858 C104.715,202.1858 101.499,205.4018 101.499,209.3738 L115.875,209.3738 C115.875,205.4018 112.659,202.1858 108.687,202.1858" id="Fill-2389"></path>
                    <path d="M108.687,216.5288 C104.715,216.5288 101.499,219.7448 101.499,223.7168 L115.875,223.7168 C115.875,219.7448 112.659,216.5288 108.687,216.5288" id="Fill-2390"></path>
                    <path d="M79.926,216.5288 C75.954,216.5288 72.738,219.7448 72.738,223.7168 L87.114,223.7168 C87.114,219.7448 83.898,216.5288 79.926,216.5288" id="Fill-2391"></path>
                    <path d="M65.5476,230.9084 C69.5196,230.9084 72.7356,227.6864 72.7356,223.7204 L58.3596,223.7204 C58.3596,227.6864 61.5756,230.9084 65.5476,230.9084" id="Fill-2392"></path>
                    <path d="M94.3068,230.9084 C98.2788,230.9084 101.4948,227.6864 101.4948,223.7204 L87.1188,223.7204 C87.1188,227.6864 90.3348,230.9084 94.3068,230.9084" id="Fill-2393"></path>
                    <path d="M108.687,115.871 C104.715,115.871 101.499,119.087 101.499,123.059 L115.875,123.059 C115.875,119.087 112.659,115.871 108.687,115.871" id="Fill-2394"></path>
                    <path d="M79.926,115.871 C75.954,115.871 72.738,119.087 72.738,123.059 L87.114,123.059 C87.114,119.087 83.898,115.871 79.926,115.871" id="Fill-2395"></path>
                    <path d="M65.5476,130.2506 C69.5196,130.2506 72.7356,127.0286 72.7356,123.0626 L58.3596,123.0626 C58.3596,127.0286 61.5756,130.2506 65.5476,130.2506" id="Fill-2396"></path>
                    <path d="M94.3038,130.2506 C98.2758,130.2506 101.4918,127.0286 101.4918,123.0626 L87.1158,123.0626 C87.1158,127.0286 90.3318,130.2506 94.3038,130.2506" id="Fill-2397"></path>
                    <path d="M87.117,137.4044 C87.117,141.3764 90.333,144.5924 94.305,144.5924 C98.277,144.5924 101.493,141.3764 101.493,137.4044 L87.117,137.4044 Z" id="Fill-2398"></path>
                    <path d="M108.687,130.2146 C104.715,130.2146 101.499,133.4366 101.499,137.4026 L115.875,137.4026 C115.875,133.4366 112.659,130.2146 108.687,130.2146" id="Fill-2399"></path>
                    <path d="M58.3536,137.4044 C58.3536,141.3764 61.5756,144.5924 65.5476,144.5924 C69.5196,144.5924 72.7356,141.3764 72.7356,137.4044 L58.3596,137.4044 L58.3536,137.4044 Z" id="Fill-2400"></path>
                    <path d="M79.926,130.2146 C75.954,130.2146 72.738,133.4366 72.738,137.4026 L87.114,137.4026 C87.114,133.4366 83.898,130.2146 79.926,130.2146" id="Fill-2401"></path>
                    <path d="M87.117,151.8536 C87.117,155.8256 90.339,159.0476 94.305,159.0476 C98.277,159.0476 101.493,155.8256 101.493,151.8536 L87.117,151.8536 Z" id="Fill-2402"></path>
                    <path d="M108.687,144.6668 C104.715,144.6668 101.499,147.8828 101.499,151.8548 L115.875,151.8548 C115.875,147.8828 112.659,144.6668 108.687,144.6668" id="Fill-2403"></path>
                    <path d="M58.3536,151.8536 C58.3536,155.8256 61.5756,159.0476 65.5476,159.0476 C69.5196,159.0476 72.7356,155.8256 72.7356,151.8536 L58.3596,151.8536 L58.3536,151.8536 Z" id="Fill-2404"></path>
                    <path d="M79.926,144.6668 C75.954,144.6668 72.738,147.8828 72.738,151.8548 L87.114,151.8548 C87.114,147.8828 83.898,144.6668 79.926,144.6668" id="Fill-2405"></path>
                    <path d="M108.687,159.0104 C104.715,159.0104 101.499,162.2264 101.499,166.1984 L115.875,166.1984 C115.875,162.2264 112.659,159.0104 108.687,159.0104" id="Fill-2406"></path>
                    <path d="M94.3068,173.39 C98.2788,173.39 101.4948,170.168 101.4948,166.202 L87.1188,166.202 C87.1188,170.168 90.3348,173.39 94.3068,173.39" id="Fill-2407"></path>
                    <path d="M166.2054,115.871 C162.2334,115.871 159.0174,119.087 159.0174,123.059 L173.3934,123.059 C173.3934,119.087 170.1774,115.871 166.2054,115.871" id="Fill-2408"></path>
                    <path d="M137.4462,115.871 C133.4742,115.871 130.2582,119.087 130.2582,123.059 L144.6342,123.059 C144.6342,119.087 141.4182,115.871 137.4462,115.871" id="Fill-2409"></path>
                    <path d="M123.066,130.2506 C127.038,130.2506 130.254,127.0286 130.254,123.0626 L115.878,123.0626 C115.878,127.0286 119.094,130.2506 123.066,130.2506" id="Fill-2410"></path>
                    <path d="M151.8222,130.2506 C155.7942,130.2506 159.0102,127.0286 159.0102,123.0626 L144.6342,123.0626 C144.6342,127.0286 147.8502,130.2506 151.8222,130.2506" id="Fill-2411"></path>
                    <path d="M144.636,137.4044 C144.636,141.3764 147.852,144.5924 151.824,144.5924 C155.796,144.5924 159.012,141.3764 159.012,137.4044 L144.636,137.4044 Z" id="Fill-2412"></path>
                    <path d="M166.2054,130.2146 C162.2334,130.2146 159.0174,133.4366 159.0174,137.4026 L173.3934,137.4026 C173.3934,133.4366 170.1774,130.2146 166.2054,130.2146" id="Fill-2413"></path>
                    <path d="M115.8738,137.4044 C115.8738,141.3764 119.0958,144.5924 123.0678,144.5924 C127.0338,144.5924 130.2558,141.3764 130.2558,137.4044 L115.8738,137.4044 L115.8738,137.4044 Z" id="Fill-2414"></path>
                    <path d="M137.4462,130.2146 C133.4742,130.2146 130.2582,133.4366 130.2582,137.4026 L144.6342,137.4026 C144.6342,133.4366 141.4182,130.2146 137.4462,130.2146" id="Fill-2415"></path>
                    <path d="M144.636,151.8536 C144.636,155.8256 147.858,159.0476 151.824,159.0476 C155.796,159.0476 159.012,155.8256 159.012,151.8536 L144.636,151.8536 Z" id="Fill-2416"></path>
                    <path d="M166.2054,144.6668 C162.2334,144.6668 159.0174,147.8828 159.0174,151.8548 L173.3934,151.8548 C173.3934,147.8828 170.1774,144.6668 166.2054,144.6668" id="Fill-2417"></path>
                    <path d="M115.8738,151.8536 C115.8738,155.8256 119.0958,159.0476 123.0678,159.0476 C127.0338,159.0476 130.2558,155.8256 130.2558,151.8536 L115.8738,151.8536 L115.8738,151.8536 Z" id="Fill-2418"></path>
                    <path d="M137.4462,144.6668 C133.4742,144.6668 130.2582,147.8828 130.2582,151.8548 L144.6342,151.8548 C144.6342,147.8828 141.4182,144.6668 137.4462,144.6668" id="Fill-2419"></path>
                    <path d="M166.2054,159.0104 C162.2334,159.0104 159.0174,162.2264 159.0174,166.1984 L173.3934,166.1984 C173.3934,162.2264 170.1774,159.0104 166.2054,159.0104" id="Fill-2420"></path>
                    <path d="M137.4462,159.0104 C133.4742,159.0104 130.2582,162.2264 130.2582,166.1984 L144.6342,166.1984 C144.6342,162.2264 141.4182,159.0104 137.4462,159.0104" id="Fill-2421"></path>
                    <path d="M123.066,173.39 C127.038,173.39 130.254,170.168 130.254,166.202 L115.878,166.202 C115.878,170.168 119.094,173.39 123.066,173.39" id="Fill-2422"></path>
                    <path d="M151.8252,173.39 C155.7972,173.39 159.0132,170.168 159.0132,166.202 L144.6372,166.202 C144.6372,170.168 147.8532,173.39 151.8252,173.39" id="Fill-2423"></path>
                    <path d="M223.7244,115.871 C219.7524,115.871 216.5364,119.087 216.5364,123.059 L230.9124,123.059 C230.9124,119.087 227.6964,115.871 223.7244,115.871" id="Fill-2424"></path>
                    <path d="M194.9646,115.871 C190.9926,115.871 187.7766,119.087 187.7766,123.059 L202.1526,123.059 C202.1526,119.087 198.9366,115.871 194.9646,115.871" id="Fill-2425"></path>
                    <path d="M180.5844,130.2506 C184.5564,130.2506 187.7724,127.0286 187.7724,123.0626 L173.3964,123.0626 C173.3964,127.0286 176.6124,130.2506 180.5844,130.2506" id="Fill-2426"></path>
                    <path d="M209.3436,130.2506 C213.3156,130.2506 216.5316,127.0286 216.5316,123.0626 L202.1556,123.0626 C202.1556,127.0286 205.3716,130.2506 209.3436,130.2506" id="Fill-2427"></path>
                    <path d="M202.1544,137.4044 C202.1544,141.3764 205.3764,144.5924 209.3424,144.5924 C213.3144,144.5924 216.5364,141.3764 216.5364,137.4044 L202.1544,137.4044 Z" id="Fill-2428"></path>
                    <path d="M223.7244,130.2146 C219.7524,130.2146 216.5364,133.4366 216.5364,137.4026 L230.9124,137.4026 C230.9124,133.4366 227.6964,130.2146 223.7244,130.2146" id="Fill-2429"></path>
                    <path d="M173.3952,137.4044 C173.3952,141.3764 176.6112,144.5924 180.5832,144.5924 C184.5552,144.5924 187.7712,141.3764 187.7712,137.4044 L173.3952,137.4044 Z" id="Fill-2430"></path>
                    <path d="M194.9646,130.2146 C190.9926,130.2146 187.7766,133.4366 187.7766,137.4026 L202.1526,137.4026 C202.1526,133.4366 198.9366,130.2146 194.9646,130.2146" id="Fill-2431"></path>
                    <path d="M202.1544,151.8536 C202.1544,155.8256 205.3764,159.0476 209.3424,159.0476 C213.3204,159.0476 216.5364,155.8256 216.5364,151.8536 L202.1544,151.8536 Z" id="Fill-2432"></path>
                    <path d="M223.7244,144.6668 C219.7524,144.6668 216.5364,147.8828 216.5364,151.8548 L230.9124,151.8548 C230.9124,147.8828 227.6964,144.6668 223.7244,144.6668" id="Fill-2433"></path>
                    <path d="M173.3952,151.8536 C173.3952,155.8256 176.6172,159.0476 180.5832,159.0476 C184.5552,159.0476 187.7712,155.8256 187.7712,151.8536 L173.3952,151.8536 Z" id="Fill-2434"></path>
                    <path d="M194.9646,144.6668 C190.9926,144.6668 187.7766,147.8828 187.7766,151.8548 L202.1526,151.8548 C202.1526,147.8828 198.9366,144.6668 194.9646,144.6668" id="Fill-2435"></path>
                    <path d="M223.7244,159.0104 C219.7524,159.0104 216.5364,162.2264 216.5364,166.1984 L230.9124,166.1984 C230.9124,162.2264 227.6964,159.0104 223.7244,159.0104" id="Fill-2436"></path>
                    <path d="M194.9646,159.0104 C190.9926,159.0104 187.7766,162.2264 187.7766,166.1984 L202.1526,166.1984 C202.1526,162.2264 198.9366,159.0104 194.9646,159.0104" id="Fill-2437"></path>
                    <path d="M180.5844,173.39 C184.5564,173.39 187.7724,170.168 187.7724,166.202 L173.3964,166.202 C173.3964,170.168 176.6124,173.39 180.5844,173.39" id="Fill-2438"></path>
                    <path d="M209.3436,173.39 C213.3156,173.39 216.5316,170.168 216.5316,166.202 L202.1556,166.202 C202.1556,170.168 205.3716,173.39 209.3436,173.39" id="Fill-2439"></path>
                    <path d="M281.2428,115.871 C277.2708,115.871 274.0548,119.087 274.0548,123.059 L288.4308,123.059 C288.4308,119.087 285.2148,115.871 281.2428,115.871" id="Fill-2440"></path>
                    <path d="M252.4836,115.871 C248.5116,115.871 245.2956,119.087 245.2956,123.059 L259.6716,123.059 C259.6716,119.087 256.4556,115.871 252.4836,115.871" id="Fill-2441"></path>
                    <path d="M238.1028,130.2506 C242.0748,130.2506 245.2908,127.0286 245.2908,123.0626 L230.9148,123.0626 C230.9148,127.0286 234.1308,130.2506 238.1028,130.2506" id="Fill-2442"></path>
                    <path d="M266.8626,130.2506 C270.8346,130.2506 274.0506,127.0286 274.0506,123.0626 L259.6746,123.0626 C259.6746,127.0286 262.8906,130.2506 266.8626,130.2506" id="Fill-2443"></path>
                    <path d="M259.6728,137.4044 C259.6728,141.3764 262.8948,144.5924 266.8608,144.5924 C270.8328,144.5924 274.0548,141.3764 274.0548,137.4044 L259.6728,137.4044 Z" id="Fill-2444"></path>
                    <path d="M281.2428,130.2146 C277.2708,130.2146 274.0548,133.4366 274.0548,137.4026 L288.4308,137.4026 C288.4308,133.4366 285.2148,130.2146 281.2428,130.2146" id="Fill-2445"></path>
                    <path d="M230.9136,137.4044 C230.9136,141.3764 234.1296,144.5924 238.1016,144.5924 C242.0736,144.5924 245.2956,141.3764 245.2956,137.4044 L230.9136,137.4044 Z" id="Fill-2446"></path>
                    <path d="M252.4836,130.2146 C248.5116,130.2146 245.2956,133.4366 245.2956,137.4026 L259.6716,137.4026 C259.6716,133.4366 256.4556,130.2146 252.4836,130.2146" id="Fill-2447"></path>
                    <path d="M259.6728,151.8536 C259.6728,155.8256 262.8948,159.0476 266.8608,159.0476 C270.8388,159.0476 274.0548,155.8256 274.0548,151.8536 L259.6728,151.8536 Z" id="Fill-2448"></path>
                    <path d="M281.2428,144.6668 C277.2708,144.6668 274.0548,147.8828 274.0548,151.8548 L288.4308,151.8548 C288.4308,147.8828 285.2148,144.6668 281.2428,144.6668" id="Fill-2449"></path>
                    <path d="M230.9136,151.8536 C230.9136,155.8256 234.1356,159.0476 238.1016,159.0476 C242.0736,159.0476 245.2956,155.8256 245.2956,151.8536 L230.9136,151.8536 Z" id="Fill-2450"></path>
                    <path d="M252.4836,144.6668 C248.5116,144.6668 245.2956,147.8828 245.2956,151.8548 L259.6716,151.8548 C259.6716,147.8828 256.4556,144.6668 252.4836,144.6668" id="Fill-2451"></path>
                    <path d="M281.2428,159.0104 C277.2708,159.0104 274.0548,162.2264 274.0548,166.1984 L288.4308,166.1984 C288.4308,162.2264 285.2148,159.0104 281.2428,159.0104" id="Fill-2452"></path>
                    <path d="M252.4836,159.0104 C248.5116,159.0104 245.2956,162.2264 245.2956,166.1984 L259.6716,166.1984 C259.6716,162.2264 256.4556,159.0104 252.4836,159.0104" id="Fill-2453"></path>
                    <path d="M238.1028,173.39 C242.0748,173.39 245.2908,170.168 245.2908,166.202 L230.9148,166.202 C230.9148,170.168 234.1308,173.39 238.1028,173.39" id="Fill-2454"></path>
                    <path d="M266.8626,173.39 C270.8346,173.39 274.0506,170.168 274.0506,166.202 L259.6746,166.202 C259.6746,170.168 262.8906,173.39 266.8626,173.39" id="Fill-2455"></path>
                    <path d="M338.7612,115.871 C334.7892,115.871 331.5732,119.087 331.5732,123.059 L345.9492,123.059 C345.9492,119.087 342.7332,115.871 338.7612,115.871" id="Fill-2456"></path>
                    <path d="M310.002,115.871 C306.03,115.871 302.814,119.087 302.814,123.059 L317.19,123.059 C317.19,119.087 313.974,115.871 310.002,115.871" id="Fill-2457"></path>
                    <path d="M295.6218,130.2506 C299.5938,130.2506 302.8098,127.0286 302.8098,123.0626 L288.4338,123.0626 C288.4338,127.0286 291.6498,130.2506 295.6218,130.2506" id="Fill-2458"></path>
                    <path d="M324.3822,130.2506 C328.3542,130.2506 331.5702,127.0286 331.5702,123.0626 L317.1942,123.0626 C317.1942,127.0286 320.4102,130.2506 324.3822,130.2506" id="Fill-2459"></path>
                    <path d="M317.1912,137.4044 C317.1912,141.3764 320.4132,144.5924 324.3792,144.5924 C328.3512,144.5924 331.5732,141.3764 331.5732,137.4044 L317.1912,137.4044 Z" id="Fill-2460"></path>
                    <path d="M338.7612,130.2146 C334.7892,130.2146 331.5732,133.4366 331.5732,137.4026 L345.9492,137.4026 C345.9492,133.4366 342.7332,130.2146 338.7612,130.2146" id="Fill-2461"></path>
                    <path d="M288.432,137.4044 C288.432,141.3764 291.648,144.5924 295.62,144.5924 C299.592,144.5924 302.814,141.3764 302.814,137.4044 L288.432,137.4044 Z" id="Fill-2462"></path>
                    <path d="M310.002,130.2146 C306.03,130.2146 302.814,133.4366 302.814,137.4026 L317.19,137.4026 C317.19,133.4366 313.974,130.2146 310.002,130.2146" id="Fill-2463"></path>
                    <path d="M317.1912,151.8536 C317.1912,155.8256 320.4132,159.0476 324.3792,159.0476 C328.3572,159.0476 331.5732,155.8256 331.5732,151.8536 L317.1912,151.8536 Z" id="Fill-2464"></path>
                    <path d="M338.7612,144.6668 C334.7892,144.6668 331.5732,147.8828 331.5732,151.8548 L345.9492,151.8548 C345.9492,147.8828 342.7332,144.6668 338.7612,144.6668" id="Fill-2465"></path>
                    <path d="M288.432,151.8536 C288.432,155.8256 291.654,159.0476 295.62,159.0476 C299.592,159.0476 302.814,155.8256 302.814,151.8536 L288.432,151.8536 Z" id="Fill-2466"></path>
                    <path d="M310.002,144.6668 C306.03,144.6668 302.814,147.8828 302.814,151.8548 L317.19,151.8548 C317.19,147.8828 313.974,144.6668 310.002,144.6668" id="Fill-2467"></path>
                    <path d="M310.002,159.0104 C306.03,159.0104 302.814,162.2264 302.814,166.1984 L317.19,166.1984 C317.19,162.2264 313.974,159.0104 310.002,159.0104" id="Fill-2468"></path>
                    <path d="M295.6218,173.39 C299.5938,173.39 302.8098,170.168 302.8098,166.202 L288.4338,166.202 C288.4338,170.168 291.6498,173.39 295.6218,173.39" id="Fill-2469"></path>
                    <path d="M396.2796,115.871 C392.3076,115.871 389.0916,119.087 389.0916,123.059 L403.4736,123.059 C403.4736,119.087 400.2516,115.871 396.2796,115.871" id="Fill-2470"></path>
                    <path d="M367.5204,115.871 C363.5484,115.871 360.3324,119.087 360.3324,123.059 L374.7084,123.059 C374.7084,119.087 371.4924,115.871 367.5204,115.871" id="Fill-2471"></path>
                    <path d="M353.1444,130.2506 C357.1164,130.2506 360.3324,127.0286 360.3324,123.0626 L345.9504,123.0626 C345.9504,127.0286 349.1724,130.2506 353.1444,130.2506" id="Fill-2472"></path>
                    <path d="M381.9006,130.2506 C385.8726,130.2506 389.0886,127.0286 389.0886,123.0626 L374.7126,123.0626 C374.7126,127.0286 377.9286,130.2506 381.9006,130.2506" id="Fill-2473"></path>
                    <path d="M374.7102,137.4044 C374.7102,141.3764 377.9322,144.5924 381.8982,144.5924 C385.8762,144.5924 389.0922,141.3764 389.0922,137.4044 L374.7102,137.4044 Z" id="Fill-2474"></path>
                    <path d="M396.2796,130.2146 C392.3076,130.2146 389.0916,133.4366 389.0916,137.4026 L403.4736,137.4026 C403.4736,133.4366 400.2516,130.2146 396.2796,130.2146" id="Fill-2475"></path>
                    <path d="M345.9504,137.4044 C345.9504,141.3764 349.1724,144.5924 353.1384,144.5924 C357.1104,144.5924 360.3324,141.3764 360.3324,137.4044 L345.9504,137.4044 Z" id="Fill-2476"></path>
                    <path d="M367.5204,130.2146 C363.5484,130.2146 360.3324,133.4366 360.3324,137.4026 L374.7084,137.4026 C374.7084,133.4366 371.4924,130.2146 367.5204,130.2146" id="Fill-2477"></path>
                    <path d="M374.7102,151.8536 C374.7102,155.8256 377.9322,159.0476 381.8982,159.0476 C385.8762,159.0476 389.0922,155.8256 389.0922,151.8536 L374.7102,151.8536 Z" id="Fill-2478"></path>
                    <path d="M396.2796,144.6668 C392.3076,144.6668 389.0916,147.8828 389.0916,151.8548 L403.4736,151.8548 C403.4736,147.8828 400.2516,144.6668 396.2796,144.6668" id="Fill-2479"></path>
                    <path d="M345.9504,151.8536 C345.9504,155.8256 349.1724,159.0476 353.1384,159.0476 C357.1164,159.0476 360.3324,155.8256 360.3324,151.8536 L345.9504,151.8536 Z" id="Fill-2480"></path>
                    <path d="M367.5204,144.6668 C363.5484,144.6668 360.3324,147.8828 360.3324,151.8548 L374.7084,151.8548 C374.7084,147.8828 371.4924,144.6668 367.5204,144.6668" id="Fill-2481"></path>
                    <path d="M396.2796,159.0104 C392.3076,159.0104 389.0916,162.2264 389.0916,166.1984 L403.4736,166.1984 C403.4736,162.2264 400.2516,159.0104 396.2796,159.0104" id="Fill-2482"></path>
                    <path d="M381.9006,173.39 C385.8726,173.39 389.0886,170.168 389.0886,166.202 L374.7126,166.202 C374.7126,170.168 377.9286,173.39 381.9006,173.39" id="Fill-2483"></path>
                    <path d="M367.5204,259.6778 C363.5484,259.6778 360.3324,262.8938 360.3324,266.8658 L374.7084,266.8658 C374.7084,262.8938 371.4924,259.6778 367.5204,259.6778" id="Fill-2484"></path>
                    <path d="M338.7612,259.6778 C334.7892,259.6778 331.5732,262.8938 331.5732,266.8658 L345.9492,266.8658 C345.9492,262.8938 342.7332,259.6778 338.7612,259.6778" id="Fill-2485"></path>
                    <path d="M324.3822,274.0574 C328.3542,274.0574 331.5702,270.8354 331.5702,266.8694 L317.1942,266.8694 C317.1942,270.8354 320.4102,274.0574 324.3822,274.0574" id="Fill-2486"></path>
                    <path d="M353.1372,274.0574 C357.1092,274.0574 360.3252,270.8354 360.3252,266.8694 L345.9492,266.8694 C345.9492,270.8354 349.1652,274.0574 353.1372,274.0574" id="Fill-2487"></path>
                    <path d="M345.9504,281.2112 C345.9504,285.1832 349.1664,288.3992 353.1384,288.3992 C357.1104,288.3992 360.3324,285.1832 360.3324,281.2112 L345.9504,281.2112 Z" id="Fill-2488"></path>
                    <path d="M367.5204,274.0214 C363.5484,274.0214 360.3324,277.2434 360.3324,281.2094 L374.7084,281.2094 C374.7084,277.2434 371.4924,274.0214 367.5204,274.0214" id="Fill-2489"></path>
                    <path d="M317.1882,281.2112 C317.1882,285.1832 320.4102,288.3992 324.3822,288.3992 C328.3542,288.3992 331.5702,285.1832 331.5702,281.2112 L317.1882,281.2112 L317.1882,281.2112 Z" id="Fill-2490"></path>
                    <path d="M338.7612,274.0214 C334.7892,274.0214 331.5732,277.2434 331.5732,281.2094 L345.9492,281.2094 C345.9492,277.2434 342.7332,274.0214 338.7612,274.0214" id="Fill-2491"></path>
                    <path d="M345.9504,295.6598 C345.9504,299.6318 349.1724,302.8538 353.1384,302.8538 C357.1104,302.8538 360.3324,299.6318 360.3324,295.6598 L345.9504,295.6598 Z" id="Fill-2492"></path>
                    <path d="M367.5204,288.47 C363.5484,288.47 360.3324,291.692 360.3324,295.658 L374.7084,295.658 C374.7084,291.692 371.4924,288.47 367.5204,288.47" id="Fill-2493"></path>
                    <path d="M317.1882,295.6598 C317.1882,299.6318 320.4102,302.8538 324.3822,302.8538 C328.3542,302.8538 331.5702,299.6318 331.5702,295.6598 L317.1882,295.6598 L317.1882,295.6598 Z" id="Fill-2494"></path>
                    <path d="M338.7612,288.47 C334.7892,288.47 331.5732,291.692 331.5732,295.658 L345.9492,295.658 C345.9492,291.692 342.7332,288.47 338.7612,288.47" id="Fill-2495"></path>
                    <path d="M367.5204,302.8172 C363.5484,302.8172 360.3324,306.0332 360.3324,310.0052 L374.7084,310.0052 C374.7084,306.0332 371.4924,302.8172 367.5204,302.8172" id="Fill-2496"></path>
                    <path d="M338.7612,302.8172 C334.7892,302.8172 331.5732,306.0332 331.5732,310.0052 L345.9492,310.0052 C345.9492,306.0332 342.7332,302.8172 338.7612,302.8172" id="Fill-2497"></path>
                    <path d="M324.3822,317.1968 C328.3542,317.1968 331.5702,313.9748 331.5702,310.0088 L317.1942,310.0088 C317.1942,313.9748 320.4102,317.1968 324.3822,317.1968" id="Fill-2498"></path>
                    <path d="M353.1414,317.1968 C357.1134,317.1968 360.3294,313.9748 360.3294,310.0088 L345.9534,310.0088 C345.9534,313.9748 349.1694,317.1968 353.1414,317.1968" id="Fill-2499"></path>
                    <path d="M51.1668,87.128 C47.1948,87.128 43.9788,90.35 43.9788,94.316 L58.3548,94.316 C58.3548,90.35 55.1388,87.128 51.1668,87.128" id="Fill-2500"></path>
                    <path d="M36.7878,101.5076 C40.7598,101.5076 43.9758,98.2856 43.9758,94.3196 L29.5998,94.3196 C29.5998,98.2856 32.8158,101.5076 36.7878,101.5076" id="Fill-2501"></path>
                    <path d="M29.5986,108.665 C29.5986,112.637 32.8146,115.853 36.7866,115.853 C40.7586,115.853 43.9746,112.637 43.9746,108.665 L29.5986,108.665 Z" id="Fill-2502"></path>
                    <path d="M51.1668,101.4746 C47.1948,101.4746 43.9788,104.6906 43.9788,108.6626 L58.3548,108.6626 C58.3548,104.6906 55.1388,101.4746 51.1668,101.4746" id="Fill-2503"></path>
                    <path d="M51.1668,58.3688 C47.1948,58.3688 43.9788,61.5908 43.9788,65.5568 L58.3548,65.5568 C58.3548,61.5908 55.1388,58.3688 51.1668,58.3688" id="Fill-2504"></path>
                    <path d="M36.7878,72.7484 C40.7598,72.7484 43.9758,69.5264 43.9758,65.5604 L29.5998,65.5604 C29.5998,69.5264 32.8158,72.7484 36.7878,72.7484" id="Fill-2505"></path>
                    <path d="M29.5944,79.9052 C29.5944,83.8772 32.8164,87.0932 36.7884,87.0932 C40.7604,87.0932 43.9764,83.8772 43.9764,79.9052 L29.6004,79.9052 L29.5944,79.9052 Z" id="Fill-2506"></path>
                    <path d="M51.1668,72.7154 C47.1948,72.7154 43.9788,75.9314 43.9788,79.9034 L58.3548,79.9034 C58.3548,75.9314 55.1388,72.7154 51.1668,72.7154" id="Fill-2507"></path>
                    <path d="M79.9236,29.6096 C75.9516,29.6096 72.7356,32.8316 72.7356,36.7976 L87.1116,36.7976 C87.1116,32.8316 83.8956,29.6096 79.9236,29.6096" id="Fill-2508"></path>
                    <path d="M65.5476,43.9892 C69.5196,43.9892 72.7356,40.7672 72.7356,36.8012 L58.3536,36.8012 C58.3536,40.7672 61.5756,43.9892 65.5476,43.9892" id="Fill-2509"></path>
                    <path d="M58.3536,51.146 C58.3536,55.118 61.5756,58.334 65.5416,58.334 C69.5136,58.334 72.7356,55.118 72.7356,51.146 L58.3536,51.146 Z" id="Fill-2510"></path>
                    <path d="M79.9236,43.9562 C75.9516,43.9562 72.7356,47.1722 72.7356,51.1442 L87.1116,51.1442 C87.1116,47.1722 83.8956,43.9562 79.9236,43.9562" id="Fill-2511"></path>
                    <path d="M108.687,0.8504 C104.715,0.8504 101.499,4.0724 101.499,8.0384 L115.875,8.0384 C115.875,4.0724 112.659,0.8504 108.687,0.8504" id="Fill-2512"></path>
                    <path d="M94.3068,15.23 C98.2788,15.23 101.4948,12.008 101.4948,8.042 L87.1188,8.042 C87.1188,12.008 90.3348,15.23 94.3068,15.23" id="Fill-2513"></path>
                    <path d="M87.117,22.3868 C87.117,26.3588 90.333,29.5748 94.305,29.5748 C98.277,29.5748 101.493,26.3588 101.493,22.3868 L87.117,22.3868 Z" id="Fill-2514"></path>
                    <path d="M108.687,15.197 C104.715,15.197 101.499,18.413 101.499,22.385 L115.875,22.385 C115.875,18.413 112.659,15.197 108.687,15.197" id="Fill-2515"></path>
                    <path d="M137.4462,0.8504 C133.4742,0.8504 130.2582,4.0724 130.2582,8.0384 L144.6342,8.0384 C144.6342,4.0724 141.4182,0.8504 137.4462,0.8504" id="Fill-2516"></path>
                    <path d="M123.066,15.23 C127.038,15.23 130.254,12.008 130.254,8.042 L115.878,8.042 C115.878,12.008 119.094,15.23 123.066,15.23" id="Fill-2517"></path>
                    <path d="M115.8762,22.3868 C115.8762,26.3588 119.0922,29.5748 123.0642,29.5748 C127.0362,29.5748 130.2522,26.3588 130.2522,22.3868 L115.8762,22.3868 Z" id="Fill-2518"></path>
                    <path d="M137.4462,15.197 C133.4742,15.197 130.2582,18.413 130.2582,22.385 L144.6342,22.385 C144.6342,18.413 141.4182,15.197 137.4462,15.197" id="Fill-2519"></path>
                    <path d="M166.2054,0.8504 C162.2334,0.8504 159.0174,4.0724 159.0174,8.0384 L173.3934,8.0384 C173.3934,4.0724 170.1774,0.8504 166.2054,0.8504" id="Fill-2520"></path>
                    <path d="M151.8282,15.23 C155.8002,15.23 159.0162,12.008 159.0162,8.042 L144.6342,8.042 C144.6342,12.008 147.8562,15.23 151.8282,15.23" id="Fill-2521"></path>
                    <path d="M144.636,22.3868 C144.636,26.3588 147.858,29.5748 151.824,29.5748 C155.796,29.5748 159.012,26.3588 159.012,22.3868 L144.636,22.3868 Z" id="Fill-2522"></path>
                    <path d="M166.2054,15.197 C162.2334,15.197 159.0174,18.413 159.0174,22.385 L173.3934,22.385 C173.3934,18.413 170.1774,15.197 166.2054,15.197" id="Fill-2523"></path>
                    <path d="M194.9646,0.8504 C190.9926,0.8504 187.7766,4.0724 187.7766,8.0384 L202.1526,8.0384 C202.1526,4.0724 198.9366,0.8504 194.9646,0.8504" id="Fill-2524"></path>
                    <path d="M180.5844,15.23 C184.5564,15.23 187.7724,12.008 187.7724,8.042 L173.3964,8.042 C173.3964,12.008 176.6124,15.23 180.5844,15.23" id="Fill-2525"></path>
                    <path d="M173.3922,22.3868 C173.3922,26.3588 176.6142,29.5748 180.5862,29.5748 C184.5522,29.5748 187.7742,26.3588 187.7742,22.3868 L173.3922,22.3868 L173.3922,22.3868 Z" id="Fill-2526"></path>
                    <path d="M194.9646,15.197 C190.9926,15.197 187.7766,18.413 187.7766,22.385 L202.1526,22.385 C202.1526,18.413 198.9366,15.197 194.9646,15.197" id="Fill-2527"></path>
                    <path d="M223.7244,0.8504 C219.7524,0.8504 216.5364,4.0724 216.5364,8.0384 L230.9124,8.0384 C230.9124,4.0724 227.6964,0.8504 223.7244,0.8504" id="Fill-2528"></path>
                    <path d="M209.3436,15.23 C213.3156,15.23 216.5316,12.008 216.5316,8.042 L202.1556,8.042 C202.1556,12.008 205.3716,15.23 209.3436,15.23" id="Fill-2529"></path>
                    <path d="M202.1514,22.3868 C202.1514,26.3588 205.3734,29.5748 209.3454,29.5748 C213.3114,29.5748 216.5334,26.3588 216.5334,22.3868 L202.1514,22.3868 L202.1514,22.3868 Z" id="Fill-2530"></path>
                    <path d="M223.7244,15.197 C219.7524,15.197 216.5364,18.413 216.5364,22.385 L230.9124,22.385 C230.9124,18.413 227.6964,15.197 223.7244,15.197" id="Fill-2531"></path>
                    <path d="M252.4836,0.8504 C248.5116,0.8504 245.2956,4.0724 245.2956,8.0384 L259.6716,8.0384 C259.6716,4.0724 256.4556,0.8504 252.4836,0.8504" id="Fill-2532"></path>
                    <path d="M238.1028,15.23 C242.0748,15.23 245.2908,12.008 245.2908,8.042 L230.9148,8.042 C230.9148,12.008 234.1308,15.23 238.1028,15.23" id="Fill-2533"></path>
                    <path d="M230.9106,22.3868 C230.9106,26.3588 234.1326,29.5748 238.1046,29.5748 C242.0706,29.5748 245.2926,26.3588 245.2926,22.3868 L230.9106,22.3868 L230.9106,22.3868 Z" id="Fill-2534"></path>
                    <path d="M252.4836,15.197 C248.5116,15.197 245.2956,18.413 245.2956,22.385 L259.6716,22.385 C259.6716,18.413 256.4556,15.197 252.4836,15.197" id="Fill-2535"></path>
                    <path d="M281.2428,0.8504 C277.2708,0.8504 274.0548,4.0724 274.0548,8.0384 L288.4308,8.0384 C288.4308,4.0724 285.2148,0.8504 281.2428,0.8504" id="Fill-2536"></path>
                    <path d="M266.8626,15.23 C270.8346,15.23 274.0506,12.008 274.0506,8.042 L259.6746,8.042 C259.6746,12.008 262.8906,15.23 266.8626,15.23" id="Fill-2537"></path>
                    <path d="M259.6698,22.3868 C259.6698,26.3588 262.8918,29.5748 266.8638,29.5748 C270.8298,29.5748 274.0518,26.3588 274.0518,22.3868 L259.6698,22.3868 L259.6698,22.3868 Z" id="Fill-2538"></path>
                    <path d="M281.2428,15.197 C277.2708,15.197 274.0548,18.413 274.0548,22.385 L288.4308,22.385 C288.4308,18.413 285.2148,15.197 281.2428,15.197" id="Fill-2539"></path>
                    <path d="M310.002,0.8504 C306.03,0.8504 302.814,4.0724 302.814,8.0384 L317.19,8.0384 C317.19,4.0724 313.974,0.8504 310.002,0.8504" id="Fill-2540"></path>
                    <path d="M295.626,15.23 C299.598,15.23 302.814,12.008 302.814,8.042 L288.432,8.042 C288.432,12.008 291.654,15.23 295.626,15.23" id="Fill-2541"></path>
                    <path d="M288.432,22.3868 C288.432,26.3588 291.654,29.5748 295.62,29.5748 C299.592,29.5748 302.814,26.3588 302.814,22.3868 L288.432,22.3868 Z" id="Fill-2542"></path>
                    <path d="M310.002,15.197 C306.03,15.197 302.814,18.413 302.814,22.385 L317.19,22.385 C317.19,18.413 313.974,15.197 310.002,15.197" id="Fill-2543"></path>
                    <path d="M338.7612,29.6294 C334.7892,29.6294 331.5732,32.8454 331.5732,36.8174 L345.9492,36.8174 C345.9492,32.8454 342.7332,29.6294 338.7612,29.6294" id="Fill-2544"></path>
                    <path d="M324.3822,44.009 C328.3542,44.009 331.5702,40.787 331.5702,36.821 L317.1942,36.821 C317.1942,40.787 320.4102,44.009 324.3822,44.009" id="Fill-2545"></path>
                    <path d="M317.1912,51.1622 C317.1912,55.1342 320.4072,58.3502 324.3792,58.3502 C328.3512,58.3502 331.5732,55.1342 331.5732,51.1622 L317.1912,51.1622 Z" id="Fill-2546"></path>
                    <path d="M338.7612,43.9724 C334.7892,43.9724 331.5732,47.1944 331.5732,51.1604 L345.9492,51.1604 C345.9492,47.1944 342.7332,43.9724 338.7612,43.9724" id="Fill-2547"></path>
                    <path d="M367.5204,58.3526 C363.5484,58.3526 360.3324,61.5746 360.3324,65.5406 L374.7084,65.5406 C374.7084,61.5746 371.4924,58.3526 367.5204,58.3526" id="Fill-2548"></path>
                    <path d="M353.1444,72.7322 C357.1164,72.7322 360.3324,69.5102 360.3324,65.5442 L345.9504,65.5442 C345.9504,69.5102 349.1724,72.7322 353.1444,72.7322" id="Fill-2549"></path>
                    <path d="M345.9504,79.889 C345.9504,83.861 349.1724,87.077 353.1384,87.077 C357.1104,87.077 360.3324,83.861 360.3324,79.889 L345.9504,79.889 Z" id="Fill-2550"></path>
                    <path d="M367.5204,72.6992 C363.5484,72.6992 360.3324,75.9152 360.3324,79.8872 L374.7084,79.8872 C374.7084,75.9152 371.4924,72.6992 367.5204,72.6992" id="Fill-2551"></path>
                    <path d="M367.5174,87.0788 C363.5454,87.0788 360.3294,90.2948 360.3294,94.2668 L374.7054,94.2668 C374.7054,90.2948 371.4894,87.0788 367.5174,87.0788" id="Fill-2552"></path>
                    <path d="M353.1414,101.4584 C357.1134,101.4584 360.3294,98.2364 360.3294,94.2704 L345.9474,94.2704 C345.9474,98.2364 349.1694,101.4584 353.1414,101.4584" id="Fill-2553"></path>
                    <path d="M345.948,108.6122 C345.948,112.5842 349.17,115.8002 353.136,115.8002 C357.108,115.8002 360.33,112.5842 360.33,108.6122 L345.948,108.6122 Z" id="Fill-2554"></path>
                    <path d="M367.5174,101.4224 C363.5454,101.4224 360.3294,104.6444 360.3294,108.6104 L374.7054,108.6104 C374.7054,104.6444 371.4894,101.4224 367.5174,101.4224" id="Fill-2555"></path>
                </g>
            </g>
        </g>
    </g>
</svg>