<?xml version="1.0" encoding="UTF-8" standalone="no"?>
<svg width="291px" height="463px" viewBox="0 0 291 463" version="1.1" xmlns="http://www.w3.org/2000/svg" xmlns:xlink="http://www.w3.org/1999/xlink">
    <!-- Generator: Sketch 3.7.2 (28276) - http://www.bohemiancoding.com/sketch -->
    <title>Group 2</title>
    <desc>Created with Sketch.</desc>
    <defs></defs>
    <g id="01-Index" stroke="none" stroke-width="1" fill="none" fill-rule="evenodd">
        <g id="01-Lascom-Home-D-parallax-v.1" transform="translate(-511.000000, 0.000000)" fill="#FFFFFF">
            <g id="Group-3">
                <g id="Group-2" transform="translate(511.000000, 0.000000)">
                    <path d="M22.6008,433.7958 C18.6048,433.7958 15.3708,437.0358 15.3708,441.0258 L29.8308,441.0258 C29.8308,437.0358 26.5968,433.7958 22.6008,433.7958" id="Fill-1476"></path>
                    <path d="M8.1432,448.2558 C12.1332,448.2558 15.3732,445.0158 15.3732,441.0258 L0.9132,441.0258 C0.9132,445.0158 4.1472,448.2558 8.1432,448.2558" id="Fill-1477"></path>
                    <path d="M0.9114,455.4522 C0.9114,459.4422 4.1514,462.6822 8.1414,462.6822 C12.1314,462.6822 15.3714,459.4422 15.3714,455.4522 L0.9114,455.4522 Z" id="Fill-1478"></path>
                    <path d="M22.6008,448.2222 C18.6048,448.2222 15.3708,451.4562 15.3708,455.4522 L29.8308,455.4522 C29.8308,451.4562 26.5968,448.2222 22.6008,448.2222" id="Fill-1479"></path>
                    <path d="M22.6008,404.8764 C18.6048,404.8764 15.3708,408.1164 15.3708,412.1064 L29.8308,412.1064 C29.8308,408.1164 26.5968,404.8764 22.6008,404.8764" id="Fill-1480"></path>
                    <path d="M8.1432,419.3358 C12.1332,419.3358 15.3732,416.0958 15.3732,412.1058 L0.9132,412.1058 C0.9132,416.0958 4.1472,419.3358 8.1432,419.3358" id="Fill-1481"></path>
                    <path d="M0.9114,426.5328 C0.9114,430.5228 4.1514,433.7628 8.1414,433.7628 C12.1314,433.7628 15.3714,430.5228 15.3714,426.5328 L0.9114,426.5328 Z" id="Fill-1482"></path>
                    <path d="M22.6008,419.3028 C18.6048,419.3028 15.3708,422.5368 15.3708,426.5328 L29.8308,426.5328 C29.8308,422.5368 26.5968,419.3028 22.6008,419.3028" id="Fill-1483"></path>
                    <path d="M22.6008,375.96 C18.6048,375.96 15.3708,379.194 15.3708,383.19 L29.8308,383.19 C29.8308,379.194 26.5968,375.96 22.6008,375.96" id="Fill-1484"></path>
                    <path d="M8.1432,390.4194 C12.1332,390.4194 15.3732,387.1794 15.3732,383.1894 L0.9132,383.1894 C0.9132,387.1794 4.1472,390.4194 8.1432,390.4194" id="Fill-1485"></path>
                    <path d="M0.9114,397.6128 C0.9114,401.6028 4.1514,404.8428 8.1414,404.8428 C12.1314,404.8428 15.3714,401.6028 15.3714,397.6128 L0.9114,397.6128 Z" id="Fill-1486"></path>
                    <path d="M22.6008,390.3828 C18.6048,390.3828 15.3708,393.6228 15.3708,397.6128 L29.8308,397.6128 C29.8308,393.6228 26.5968,390.3828 22.6008,390.3828" id="Fill-1487"></path>
                    <path d="M51.5214,433.7958 C47.5254,433.7958 44.2914,437.0358 44.2914,441.0258 L58.7514,441.0258 C58.7514,437.0358 55.5114,433.7958 51.5214,433.7958" id="Fill-1488"></path>
                    <path d="M37.0632,448.2558 C41.0532,448.2558 44.2932,445.0158 44.2932,441.0258 L29.8332,441.0258 C29.8332,445.0158 33.0672,448.2558 37.0632,448.2558" id="Fill-1489"></path>
                    <path d="M29.8302,455.4522 C29.8302,459.4422 33.0702,462.6822 37.0602,462.6822 C41.0562,462.6822 44.2902,459.4422 44.2902,455.4522 L29.8302,455.4522 L29.8302,455.4522 Z" id="Fill-1490"></path>
                    <path d="M51.5214,448.2222 C47.5254,448.2222 44.2914,451.4562 44.2914,455.4522 L58.7514,455.4522 C58.7514,451.4562 55.5114,448.2222 51.5214,448.2222" id="Fill-1491"></path>
                    <path d="M51.5214,404.8764 C47.5254,404.8764 44.2914,408.1164 44.2914,412.1064 L58.7514,412.1064 C58.7514,408.1164 55.5114,404.8764 51.5214,404.8764" id="Fill-1492"></path>
                    <path d="M37.0632,419.3358 C41.0532,419.3358 44.2932,416.0958 44.2932,412.1058 L29.8332,412.1058 C29.8332,416.0958 33.0672,419.3358 37.0632,419.3358" id="Fill-1493"></path>
                    <path d="M29.8302,426.5328 C29.8302,430.5228 33.0702,433.7628 37.0602,433.7628 C41.0562,433.7628 44.2902,430.5228 44.2902,426.5328 L29.8302,426.5328 L29.8302,426.5328 Z" id="Fill-1494"></path>
                    <path d="M51.5214,419.3028 C47.5254,419.3028 44.2914,422.5368 44.2914,426.5328 L58.7514,426.5328 C58.7514,422.5368 55.5114,419.3028 51.5214,419.3028" id="Fill-1495"></path>
                    <path d="M51.5214,375.96 C47.5254,375.96 44.2914,379.194 44.2914,383.19 L58.7514,383.19 C58.7514,379.194 55.5114,375.96 51.5214,375.96" id="Fill-1496"></path>
                    <path d="M37.0632,390.4194 C41.0532,390.4194 44.2932,387.1794 44.2932,383.1894 L29.8332,383.1894 C29.8332,387.1794 33.0672,390.4194 37.0632,390.4194" id="Fill-1497"></path>
                    <path d="M29.8302,397.6128 C29.8302,401.6028 33.0702,404.8428 37.0602,404.8428 C41.0562,404.8428 44.2902,401.6028 44.2902,397.6128 L29.8302,397.6128 L29.8302,397.6128 Z" id="Fill-1498"></path>
                    <path d="M51.5214,390.3828 C47.5254,390.3828 44.2914,393.6228 44.2914,397.6128 L58.7514,397.6128 C58.7514,393.6228 55.5114,390.3828 51.5214,390.3828" id="Fill-1499"></path>
                    <path d="M80.442,433.7958 C76.446,433.7958 73.212,437.0358 73.212,441.0258 L87.672,441.0258 C87.672,437.0358 84.432,433.7958 80.442,433.7958" id="Fill-1500"></path>
                    <path d="M65.9838,448.2558 C69.9738,448.2558 73.2138,445.0158 73.2138,441.0258 L58.7538,441.0258 C58.7538,445.0158 61.9878,448.2558 65.9838,448.2558" id="Fill-1501"></path>
                    <path d="M58.7502,455.4522 C58.7502,459.4422 61.9902,462.6822 65.9802,462.6822 C69.9762,462.6822 73.2102,459.4422 73.2102,455.4522 L58.7502,455.4522 L58.7502,455.4522 Z" id="Fill-1502"></path>
                    <path d="M80.442,448.2222 C76.446,448.2222 73.212,451.4562 73.212,455.4522 L87.672,455.4522 C87.672,451.4562 84.432,448.2222 80.442,448.2222" id="Fill-1503"></path>
                    <path d="M80.442,404.8764 C76.446,404.8764 73.212,408.1164 73.212,412.1064 L87.672,412.1064 C87.672,408.1164 84.432,404.8764 80.442,404.8764" id="Fill-1504"></path>
                    <path d="M65.9838,419.3358 C69.9738,419.3358 73.2138,416.0958 73.2138,412.1058 L58.7538,412.1058 C58.7538,416.0958 61.9878,419.3358 65.9838,419.3358" id="Fill-1505"></path>
                    <path d="M58.7502,426.5328 C58.7502,430.5228 61.9902,433.7628 65.9802,433.7628 C69.9762,433.7628 73.2102,430.5228 73.2102,426.5328 L58.7502,426.5328 L58.7502,426.5328 Z" id="Fill-1506"></path>
                    <path d="M80.442,419.3028 C76.446,419.3028 73.212,422.5368 73.212,426.5328 L87.672,426.5328 C87.672,422.5368 84.432,419.3028 80.442,419.3028" id="Fill-1507"></path>
                    <path d="M80.442,375.96 C76.446,375.96 73.212,379.194 73.212,383.19 L87.672,383.19 C87.672,379.194 84.432,375.96 80.442,375.96" id="Fill-1508"></path>
                    <path d="M65.9838,390.4194 C69.9738,390.4194 73.2138,387.1794 73.2138,383.1894 L58.7538,383.1894 C58.7538,387.1794 61.9878,390.4194 65.9838,390.4194" id="Fill-1509"></path>
                    <path d="M58.7502,397.6128 C58.7502,401.6028 61.9902,404.8428 65.9802,404.8428 C69.9762,404.8428 73.2102,401.6028 73.2102,397.6128 L58.7502,397.6128 L58.7502,397.6128 Z" id="Fill-1510"></path>
                    <path d="M80.442,390.3828 C76.446,390.3828 73.212,393.6228 73.212,397.6128 L87.672,397.6128 C87.672,393.6228 84.432,390.3828 80.442,390.3828" id="Fill-1511"></path>
                    <path d="M225.0426,404.8764 C221.0466,404.8764 217.8126,408.1164 217.8126,412.1064 L232.2726,412.1064 C232.2726,408.1164 229.0326,404.8764 225.0426,404.8764" id="Fill-1512"></path>
                    <path d="M210.5844,419.3358 C214.5744,419.3358 217.8144,416.0958 217.8144,412.1058 L203.3544,412.1058 C203.3544,416.0958 206.5884,419.3358 210.5844,419.3358" id="Fill-1513"></path>
                    <path d="M203.3508,426.5328 C203.3508,430.5228 206.5908,433.7628 210.5808,433.7628 C214.5768,433.7628 217.8108,430.5228 217.8108,426.5328 L203.3508,426.5328 L203.3508,426.5328 Z" id="Fill-1514"></path>
                    <path d="M225.0426,419.3028 C221.0466,419.3028 217.8126,422.5368 217.8126,426.5328 L232.2726,426.5328 C232.2726,422.5368 229.0326,419.3028 225.0426,419.3028" id="Fill-1515"></path>
                    <path d="M225.0426,375.96 C221.0466,375.96 217.8126,379.194 217.8126,383.19 L232.2726,383.19 C232.2726,379.194 229.0326,375.96 225.0426,375.96" id="Fill-1516"></path>
                    <path d="M210.5844,390.4194 C214.5744,390.4194 217.8144,387.1794 217.8144,383.1894 L203.3544,383.1894 C203.3544,387.1794 206.5884,390.4194 210.5844,390.4194" id="Fill-1517"></path>
                    <path d="M203.3508,397.6128 C203.3508,401.6028 206.5908,404.8428 210.5808,404.8428 C214.5768,404.8428 217.8108,401.6028 217.8108,397.6128 L203.3508,397.6128 L203.3508,397.6128 Z" id="Fill-1518"></path>
                    <path d="M225.0426,390.3828 C221.0466,390.3828 217.8126,393.6228 217.8126,397.6128 L232.2726,397.6128 C232.2726,393.6228 229.0326,390.3828 225.0426,390.3828" id="Fill-1519"></path>
                    <path d="M253.9644,404.8764 C249.9684,404.8764 246.7344,408.1164 246.7344,412.1064 L261.1944,412.1064 C261.1944,408.1164 257.9544,404.8764 253.9644,404.8764" id="Fill-1520"></path>
                    <path d="M239.5062,419.3358 C243.4962,419.3358 246.7362,416.0958 246.7362,412.1058 L232.2762,412.1058 C232.2762,416.0958 235.5102,419.3358 239.5062,419.3358" id="Fill-1521"></path>
                    <path d="M232.2732,426.5328 C232.2732,430.5228 235.5132,433.7628 239.5032,433.7628 C243.4992,433.7628 246.7332,430.5228 246.7332,426.5328 L232.2732,426.5328 L232.2732,426.5328 Z" id="Fill-1522"></path>
                    <path d="M253.9644,419.3028 C249.9684,419.3028 246.7344,422.5368 246.7344,426.5328 L261.1944,426.5328 C261.1944,422.5368 257.9544,419.3028 253.9644,419.3028" id="Fill-1523"></path>
                    <path d="M253.9644,375.96 C249.9684,375.96 246.7344,379.194 246.7344,383.19 L261.1944,383.19 C261.1944,379.194 257.9544,375.96 253.9644,375.96" id="Fill-1524"></path>
                    <path d="M239.5062,390.4194 C243.4962,390.4194 246.7362,387.1794 246.7362,383.1894 L232.2762,383.1894 C232.2762,387.1794 235.5102,390.4194 239.5062,390.4194" id="Fill-1525"></path>
                    <path d="M232.2732,397.6128 C232.2732,401.6028 235.5132,404.8428 239.5032,404.8428 C243.4992,404.8428 246.7332,401.6028 246.7332,397.6128 L232.2732,397.6128 L232.2732,397.6128 Z" id="Fill-1526"></path>
                    <path d="M253.9644,390.3828 C249.9684,390.3828 246.7344,393.6228 246.7344,397.6128 L261.1944,397.6128 C261.1944,393.6228 257.9544,390.3828 253.9644,390.3828" id="Fill-1527"></path>
                    <path d="M196.1208,433.7958 C192.1248,433.7958 188.8908,437.0358 188.8908,441.0258 L203.3508,441.0258 C203.3508,437.0358 200.1168,433.7958 196.1208,433.7958" id="Fill-1528"></path>
                    <path d="M181.6626,448.2558 C185.6526,448.2558 188.8926,445.0158 188.8926,441.0258 L174.4326,441.0258 C174.4326,445.0158 177.6666,448.2558 181.6626,448.2558" id="Fill-1529"></path>
                    <path d="M174.432,455.4522 C174.432,459.4422 177.666,462.6822 181.662,462.6822 C185.652,462.6822 188.892,459.4422 188.892,455.4522 L174.432,455.4522 Z" id="Fill-1530"></path>
                    <path d="M196.1208,448.2222 C192.1248,448.2222 188.8908,451.4562 188.8908,455.4522 L203.3508,455.4522 C203.3508,451.4562 200.1168,448.2222 196.1208,448.2222" id="Fill-1531"></path>
                    <path d="M196.1208,404.8764 C192.1248,404.8764 188.8908,408.1164 188.8908,412.1064 L203.3508,412.1064 C203.3508,408.1164 200.1168,404.8764 196.1208,404.8764" id="Fill-1532"></path>
                    <path d="M181.6626,419.3358 C185.6526,419.3358 188.8926,416.0958 188.8926,412.1058 L174.4326,412.1058 C174.4326,416.0958 177.6666,419.3358 181.6626,419.3358" id="Fill-1533"></path>
                    <path d="M174.432,426.5328 C174.432,430.5228 177.666,433.7628 181.662,433.7628 C185.652,433.7628 188.892,430.5228 188.892,426.5328 L174.432,426.5328 Z" id="Fill-1534"></path>
                    <path d="M196.1208,419.3028 C192.1248,419.3028 188.8908,422.5368 188.8908,426.5328 L203.3508,426.5328 C203.3508,422.5368 200.1168,419.3028 196.1208,419.3028" id="Fill-1535"></path>
                    <path d="M196.1208,375.96 C192.1248,375.96 188.8908,379.194 188.8908,383.19 L203.3508,383.19 C203.3508,379.194 200.1168,375.96 196.1208,375.96" id="Fill-1536"></path>
                    <path d="M181.6626,390.4194 C185.6526,390.4194 188.8926,387.1794 188.8926,383.1894 L174.4326,383.1894 C174.4326,387.1794 177.6666,390.4194 181.6626,390.4194" id="Fill-1537"></path>
                    <path d="M174.432,397.6128 C174.432,401.6028 177.666,404.8428 181.662,404.8428 C185.652,404.8428 188.892,401.6028 188.892,397.6128 L174.432,397.6128 Z" id="Fill-1538"></path>
                    <path d="M196.1208,390.3828 C192.1248,390.3828 188.8908,393.6228 188.8908,397.6128 L203.3508,397.6128 C203.3508,393.6228 200.1168,390.3828 196.1208,390.3828" id="Fill-1539"></path>
                    <path d="M22.6008,347.04 C18.6048,347.04 15.3708,350.274 15.3708,354.27 L29.8308,354.27 C29.8308,350.274 26.5968,347.04 22.6008,347.04" id="Fill-1540"></path>
                    <path d="M8.1432,361.5 C12.1332,361.5 15.3732,358.26 15.3732,354.27 L0.9132,354.27 C0.9132,358.26 4.1472,361.5 8.1432,361.5" id="Fill-1541"></path>
                    <path d="M0.9114,368.6934 C0.9114,372.6834 4.1514,375.9234 8.1414,375.9234 C12.1314,375.9234 15.3714,372.6834 15.3714,368.6934 L0.9114,368.6934 Z" id="Fill-1542"></path>
                    <path d="M22.6008,361.4634 C18.6048,361.4634 15.3708,364.7034 15.3708,368.6934 L29.8308,368.6934 C29.8308,364.7034 26.5968,361.4634 22.6008,361.4634" id="Fill-1543"></path>
                    <path d="M22.6008,318.1368 C18.6048,318.1368 15.3708,321.3708 15.3708,325.3668 L29.8308,325.3668 C29.8308,321.3708 26.5968,318.1368 22.6008,318.1368" id="Fill-1544"></path>
                    <path d="M8.1432,332.5968 C12.1332,332.5968 15.3732,329.3568 15.3732,325.3668 L0.9132,325.3668 C0.9132,329.3568 4.1472,332.5968 8.1432,332.5968" id="Fill-1545"></path>
                    <path d="M0.9114,339.7902 C0.9114,343.7802 4.1514,347.0202 8.1414,347.0202 C12.1314,347.0202 15.3714,343.7802 15.3714,339.7902 L0.9114,339.7902 Z" id="Fill-1546"></path>
                    <path d="M22.6008,332.5602 C18.6048,332.5602 15.3708,335.8002 15.3708,339.7902 L29.8308,339.7902 C29.8308,335.8002 26.5968,332.5602 22.6008,332.5602" id="Fill-1547"></path>
                    <path d="M22.6008,289.2174 C18.6048,289.2174 15.3708,292.4514 15.3708,296.4474 L29.8308,296.4474 C29.8308,292.4514 26.5968,289.2174 22.6008,289.2174" id="Fill-1548"></path>
                    <path d="M8.1432,303.6768 C12.1332,303.6768 15.3732,300.4368 15.3732,296.4468 L0.9132,296.4468 C0.9132,300.4368 4.1472,303.6768 8.1432,303.6768" id="Fill-1549"></path>
                    <path d="M0.9114,310.8708 C0.9114,314.8608 4.1514,318.1008 8.1414,318.1008 C12.1314,318.1008 15.3714,314.8608 15.3714,310.8708 L0.9114,310.8708 Z" id="Fill-1550"></path>
                    <path d="M22.6008,303.6402 C18.6048,303.6402 15.3708,306.8802 15.3708,310.8702 L29.8308,310.8702 C29.8308,306.8802 26.5968,303.6402 22.6008,303.6402" id="Fill-1551"></path>
                    <path d="M22.6008,260.2776 C18.6048,260.2776 15.3708,263.5176 15.3708,267.5076 L29.8308,267.5076 C29.8308,263.5176 26.5968,260.2776 22.6008,260.2776" id="Fill-1552"></path>
                    <path d="M8.1432,274.737 C12.1332,274.737 15.3732,271.497 15.3732,267.507 L0.9132,267.507 C0.9132,271.497 4.1472,274.737 8.1432,274.737" id="Fill-1553"></path>
                    <path d="M0.9114,281.934 C0.9114,285.924 4.1514,289.164 8.1414,289.164 C12.1314,289.164 15.3714,285.924 15.3714,281.934 L0.9114,281.934 Z" id="Fill-1554"></path>
                    <path d="M22.6008,274.704 C18.6048,274.704 15.3708,277.938 15.3708,281.934 L29.8308,281.934 C29.8308,277.938 26.5968,274.704 22.6008,274.704" id="Fill-1555"></path>
                    <path d="M22.6008,231.3576 C18.6048,231.3576 15.3708,234.5976 15.3708,238.5876 L29.8308,238.5876 C29.8308,234.5976 26.5968,231.3576 22.6008,231.3576" id="Fill-1556"></path>
                    <path d="M8.1432,245.8176 C12.1332,245.8176 15.3732,242.5776 15.3732,238.5876 L0.9132,238.5876 C0.9132,242.5776 4.1472,245.8176 8.1432,245.8176" id="Fill-1557"></path>
                    <path d="M0.9114,253.0146 C0.9114,257.0046 4.1514,260.2446 8.1414,260.2446 C12.1314,260.2446 15.3714,257.0046 15.3714,253.0146 L0.9114,253.0146 Z" id="Fill-1558"></path>
                    <path d="M22.6008,245.7846 C18.6048,245.7846 15.3708,249.0186 15.3708,253.0146 L29.8308,253.0146 C29.8308,249.0186 26.5968,245.7846 22.6008,245.7846" id="Fill-1559"></path>
                    <path d="M22.6008,202.458 C18.6048,202.458 15.3708,205.692 15.3708,209.688 L29.8308,209.688 C29.8308,205.692 26.5968,202.458 22.6008,202.458" id="Fill-1560"></path>
                    <path d="M8.1432,216.9174 C12.1332,216.9174 15.3732,213.6774 15.3732,209.6874 L0.9132,209.6874 C0.9132,213.6774 4.1472,216.9174 8.1432,216.9174" id="Fill-1561"></path>
                    <path d="M0.9114,224.1114 C0.9114,228.1074 4.1514,231.3414 8.1414,231.3414 C12.1314,231.3414 15.3714,228.1074 15.3714,224.1114 L0.9114,224.1114 Z" id="Fill-1562"></path>
                    <path d="M22.6008,216.8814 C18.6048,216.8814 15.3708,220.1214 15.3708,224.1114 L29.8308,224.1114 C29.8308,220.1214 26.5968,216.8814 22.6008,216.8814" id="Fill-1563"></path>
                    <path d="M22.6008,173.538 C18.6048,173.538 15.3708,176.772 15.3708,180.768 L29.8308,180.768 C29.8308,176.772 26.5968,173.538 22.6008,173.538" id="Fill-1564"></path>
                    <path d="M8.1432,187.998 C12.1332,187.998 15.3732,184.758 15.3732,180.768 L0.9132,180.768 C0.9132,184.758 4.1472,187.998 8.1432,187.998" id="Fill-1565"></path>
                    <path d="M0.9114,195.1914 C0.9114,199.1874 4.1514,202.4214 8.1414,202.4214 C12.1314,202.4214 15.3714,199.1874 15.3714,195.1914 L0.9114,195.1914 Z" id="Fill-1566"></path>
                    <path d="M22.6008,187.962 C18.6048,187.962 15.3708,191.202 15.3708,195.192 L29.8308,195.192 C29.8308,191.202 26.5968,187.962 22.6008,187.962" id="Fill-1567"></path>
                    <path d="M22.6008,144.6186 C18.6048,144.6186 15.3708,147.8526 15.3708,151.8486 L29.8308,151.8486 C29.8308,147.8526 26.5968,144.6186 22.6008,144.6186" id="Fill-1568"></path>
                    <path d="M8.1432,159.078 C12.1332,159.078 15.3732,155.838 15.3732,151.848 L0.9132,151.848 C0.9132,155.838 4.1472,159.078 8.1432,159.078" id="Fill-1569"></path>
                    <path d="M0.9114,166.272 C0.9114,170.268 4.1514,173.502 8.1414,173.502 C12.1314,173.502 15.3714,170.268 15.3714,166.272 L0.9114,166.272 Z" id="Fill-1570"></path>
                    <path d="M22.6008,159.0414 C18.6048,159.0414 15.3708,162.2814 15.3708,166.2714 L29.8308,166.2714 C29.8308,162.2814 26.5968,159.0414 22.6008,159.0414" id="Fill-1571"></path>
                    <path d="M22.6008,115.6968 C18.6048,115.6968 15.3708,118.9308 15.3708,122.9268 L29.8308,122.9268 C29.8308,118.9308 26.5968,115.6968 22.6008,115.6968" id="Fill-1572"></path>
                    <path d="M8.1432,130.1586 C12.1332,130.1586 15.3732,126.9186 15.3732,122.9286 L0.9132,122.9286 C0.9132,126.9186 4.1472,130.1586 8.1432,130.1586" id="Fill-1573"></path>
                    <path d="M0.9114,137.352 C0.9114,141.348 4.1514,144.582 8.1414,144.582 C12.1314,144.582 15.3714,141.348 15.3714,137.352 L0.9114,137.352 Z" id="Fill-1574"></path>
                    <path d="M22.6008,130.1226 C18.6048,130.1226 15.3708,133.3626 15.3708,137.3526 L29.8308,137.3526 C29.8308,133.3626 26.5968,130.1226 22.6008,130.1226" id="Fill-1575"></path>
                    <path d="M22.6008,86.7774 C18.6048,86.7774 15.3708,90.0114 15.3708,94.0074 L29.8308,94.0074 C29.8308,90.0114 26.5968,86.7774 22.6008,86.7774" id="Fill-1576"></path>
                    <path d="M8.1432,101.2374 C12.1332,101.2374 15.3732,97.9974 15.3732,94.0074 L0.9132,94.0074 C0.9132,97.9974 4.1472,101.2374 8.1432,101.2374" id="Fill-1577"></path>
                    <path d="M0.9114,108.4326 C0.9114,112.4286 4.1514,115.6626 8.1414,115.6626 C12.1314,115.6626 15.3714,112.4286 15.3714,108.4326 L0.9114,108.4326 Z" id="Fill-1578"></path>
                    <path d="M22.6008,101.2026 C18.6048,101.2026 15.3708,104.4366 15.3708,108.4326 L29.8308,108.4326 C29.8308,104.4366 26.5968,101.2026 22.6008,101.2026" id="Fill-1579"></path>
                    <path d="M22.6008,57.8574 C18.6048,57.8574 15.3708,61.0914 15.3708,65.0874 L29.8308,65.0874 C29.8308,61.0914 26.5968,57.8574 22.6008,57.8574" id="Fill-1580"></path>
                    <path d="M8.1432,72.318 C12.1332,72.318 15.3732,69.078 15.3732,65.088 L0.9132,65.088 C0.9132,69.078 4.1472,72.318 8.1432,72.318" id="Fill-1581"></path>
                    <path d="M0.9114,79.5126 C0.9114,83.5086 4.1514,86.7426 8.1414,86.7426 C12.1314,86.7426 15.3714,83.5086 15.3714,79.5126 L0.9114,79.5126 Z" id="Fill-1582"></path>
                    <path d="M22.6008,72.2826 C18.6048,72.2826 15.3708,75.5166 15.3708,79.5126 L29.8308,79.5126 C29.8308,75.5166 26.5968,72.2826 22.6008,72.2826" id="Fill-1583"></path>
                    <path d="M22.6008,28.9194 C18.6048,28.9194 15.3708,32.1534 15.3708,36.1494 L29.8308,36.1494 C29.8308,32.1534 26.5968,28.9194 22.6008,28.9194" id="Fill-1584"></path>
                    <path d="M8.1432,43.3794 C12.1332,43.3794 15.3732,40.1394 15.3732,36.1494 L0.9132,36.1494 C0.9132,40.1394 4.1472,43.3794 8.1432,43.3794" id="Fill-1585"></path>
                    <path d="M0.9114,50.5746 C0.9114,54.5706 4.1514,57.8046 8.1414,57.8046 C12.1314,57.8046 15.3714,54.5706 15.3714,50.5746 L0.9114,50.5746 Z" id="Fill-1586"></path>
                    <path d="M22.6008,43.3446 C18.6048,43.3446 15.3708,46.5786 15.3708,50.5746 L29.8308,50.5746 C29.8308,46.5786 26.5968,43.3446 22.6008,43.3446" id="Fill-1587"></path>
                    <path d="M22.6008,0 C18.6048,0 15.3708,3.234 15.3708,7.23 L29.8308,7.23 C29.8308,3.234 26.5968,0 22.6008,0" id="Fill-1588"></path>
                    <path d="M8.1432,14.46 C12.1332,14.46 15.3732,11.22 15.3732,7.23 L0.9132,7.23 C0.9132,11.22 4.1472,14.46 8.1432,14.46" id="Fill-1589"></path>
                    <path d="M0.9114,21.6546 C0.9114,25.6506 4.1514,28.8846 8.1414,28.8846 C12.1314,28.8846 15.3714,25.6506 15.3714,21.6546 L0.9114,21.6546 Z" id="Fill-1590"></path>
                    <path d="M22.6008,14.4252 C18.6048,14.4252 15.3708,17.6592 15.3708,21.6552 L29.8308,21.6552 C29.8308,17.6592 26.5968,14.4252 22.6008,14.4252" id="Fill-1591"></path>
                    <path d="M51.5214,0 C47.5254,0 44.2914,3.234 44.2914,7.23 L58.7514,7.23 C58.7514,3.234 55.5174,0 51.5214,0" id="Fill-1592"></path>
                    <path d="M37.0632,14.46 C41.0532,14.46 44.2932,11.22 44.2932,7.23 L29.8332,7.23 C29.8332,11.22 33.0672,14.46 37.0632,14.46" id="Fill-1593"></path>
                    <path d="M29.8314,21.6546 C29.8314,25.6506 33.0654,28.8846 37.0614,28.8846 C41.0514,28.8846 44.2914,25.6506 44.2914,21.6546 L29.8314,21.6546 Z" id="Fill-1594"></path>
                    <path d="M51.5214,14.4252 C47.5254,14.4252 44.2914,17.6592 44.2914,21.6552 L58.7514,21.6552 C58.7514,17.6592 55.5174,14.4252 51.5214,14.4252" id="Fill-1595"></path>
                    <path d="M80.4402,0 C76.4442,0 73.2102,3.234 73.2102,7.23 L87.6702,7.23 C87.6702,3.234 84.4302,0 80.4402,0" id="Fill-1596"></path>
                    <path d="M65.9826,14.46 C69.9726,14.46 73.2126,11.22 73.2126,7.23 L58.7526,7.23 C58.7526,11.22 61.9866,14.46 65.9826,14.46" id="Fill-1597"></path>
                    <path d="M58.749,21.6546 C58.749,25.6506 61.989,28.8846 65.979,28.8846 C69.975,28.8846 73.209,25.6506 73.209,21.6546 L58.749,21.6546 L58.749,21.6546 Z" id="Fill-1598"></path>
                    <path d="M80.4402,14.4252 C76.4442,14.4252 73.2102,17.6592 73.2102,21.6552 L87.6702,21.6552 C87.6702,17.6592 84.4302,14.4252 80.4402,14.4252" id="Fill-1599"></path>
                    <path d="M138.2796,0 C134.2836,0 131.0496,3.234 131.0496,7.23 L145.5096,7.23 C145.5096,3.234 142.2696,0 138.2796,0" id="Fill-1600"></path>
                    <path d="M123.822,14.46 C127.812,14.46 131.052,11.22 131.052,7.23 L116.592,7.23 C116.592,11.22 119.826,14.46 123.822,14.46" id="Fill-1601"></path>
                    <path d="M116.5884,21.6546 C116.5884,25.6506 119.8284,28.8846 123.8184,28.8846 C127.8144,28.8846 131.0484,25.6506 131.0484,21.6546 L116.5884,21.6546 L116.5884,21.6546 Z" id="Fill-1602"></path>
                    <path d="M138.2796,14.4252 C134.2836,14.4252 131.0496,17.6592 131.0496,21.6552 L145.5096,21.6552 C145.5096,17.6592 142.2696,14.4252 138.2796,14.4252" id="Fill-1603"></path>
                    <path d="M167.2002,0 C163.2042,0 159.9702,3.234 159.9702,7.23 L174.4302,7.23 C174.4302,3.234 171.1902,0 167.2002,0" id="Fill-1604"></path>
                    <path d="M152.742,14.46 C156.732,14.46 159.972,11.22 159.972,7.23 L145.512,7.23 C145.512,11.22 148.746,14.46 152.742,14.46" id="Fill-1605"></path>
                    <path d="M145.509,21.6546 C145.509,25.6506 148.749,28.8846 152.739,28.8846 C156.735,28.8846 159.969,25.6506 159.969,21.6546 L145.509,21.6546 L145.509,21.6546 Z" id="Fill-1606"></path>
                    <path d="M167.2002,14.4252 C163.2042,14.4252 159.9702,17.6592 159.9702,21.6552 L174.4302,21.6552 C174.4302,17.6592 171.1902,14.4252 167.2002,14.4252" id="Fill-1607"></path>
                    <path d="M51.5214,347.0202 C47.5254,347.0202 44.2914,350.2602 44.2914,354.2502 L58.7514,354.2502 C58.7514,350.2602 55.5174,347.0202 51.5214,347.0202" id="Fill-1608"></path>
                    <path d="M37.0632,361.4802 C41.0532,361.4802 44.2932,358.2402 44.2932,354.2502 L29.8332,354.2502 C29.8332,358.2402 33.0672,361.4802 37.0632,361.4802" id="Fill-1609"></path>
                    <path d="M29.8314,368.6766 C29.8314,372.6666 33.0654,375.9066 37.0614,375.9066 C41.0514,375.9066 44.2914,372.6666 44.2914,368.6766 L29.8314,368.6766 Z" id="Fill-1610"></path>
                    <path d="M51.5214,361.4466 C47.5254,361.4466 44.2914,364.6806 44.2914,368.6766 L58.7514,368.6766 C58.7514,364.6806 55.5174,361.4466 51.5214,361.4466" id="Fill-1611"></path>
                    <path d="M80.4402,347.0202 C76.4442,347.0202 73.2102,350.2602 73.2102,354.2502 L87.6702,354.2502 C87.6702,350.2602 84.4302,347.0202 80.4402,347.0202" id="Fill-1612"></path>
                    <path d="M65.9826,361.4802 C69.9726,361.4802 73.2126,358.2402 73.2126,354.2502 L58.7526,354.2502 C58.7526,358.2402 61.9866,361.4802 65.9826,361.4802" id="Fill-1613"></path>
                    <path d="M58.749,368.6766 C58.749,372.6666 61.989,375.9066 65.979,375.9066 C69.975,375.9066 73.209,372.6666 73.209,368.6766 L58.749,368.6766 L58.749,368.6766 Z" id="Fill-1614"></path>
                    <path d="M80.4402,361.4466 C76.4442,361.4466 73.2102,364.6806 73.2102,368.6766 L87.6702,368.6766 C87.6702,364.6806 84.4302,361.4466 80.4402,361.4466" id="Fill-1615"></path>
                    <path d="M138.2796,347.0202 C134.2836,347.0202 131.0496,350.2602 131.0496,354.2502 L145.5096,354.2502 C145.5096,350.2602 142.2696,347.0202 138.2796,347.0202" id="Fill-1616"></path>
                    <path d="M123.822,361.4802 C127.812,361.4802 131.052,358.2402 131.052,354.2502 L116.592,354.2502 C116.592,358.2402 119.826,361.4802 123.822,361.4802" id="Fill-1617"></path>
                    <path d="M116.5884,368.6766 C116.5884,372.6666 119.8284,375.9066 123.8184,375.9066 C127.8144,375.9066 131.0484,372.6666 131.0484,368.6766 L116.5884,368.6766 L116.5884,368.6766 Z" id="Fill-1618"></path>
                    <path d="M138.2796,361.4466 C134.2836,361.4466 131.0496,364.6806 131.0496,368.6766 L145.5096,368.6766 C145.5096,364.6806 142.2696,361.4466 138.2796,361.4466" id="Fill-1619"></path>
                    <path d="M167.2002,347.0202 C163.2042,347.0202 159.9702,350.2602 159.9702,354.2502 L174.4302,354.2502 C174.4302,350.2602 171.1902,347.0202 167.2002,347.0202" id="Fill-1620"></path>
                    <path d="M152.742,361.4802 C156.732,361.4802 159.972,358.2402 159.972,354.2502 L145.512,354.2502 C145.512,358.2402 148.746,361.4802 152.742,361.4802" id="Fill-1621"></path>
                    <path d="M145.509,368.6766 C145.509,372.6666 148.749,375.9066 152.739,375.9066 C156.735,375.9066 159.969,372.6666 159.969,368.6766 L145.509,368.6766 L145.509,368.6766 Z" id="Fill-1622"></path>
                    <path d="M167.2002,361.4466 C163.2042,361.4466 159.9702,364.6806 159.9702,368.6766 L174.4302,368.6766 C174.4302,364.6806 171.1902,361.4466 167.2002,361.4466" id="Fill-1623"></path>
                    <path d="M109.3608,347.04 C105.3648,347.04 102.1308,350.274 102.1308,354.27 L116.5908,354.27 C116.5908,350.274 113.3568,347.04 109.3608,347.04" id="Fill-1624"></path>
                    <path d="M94.9026,361.5 C98.8926,361.5 102.1326,358.26 102.1326,354.27 L87.6726,354.27 C87.6726,358.26 90.9066,361.5 94.9026,361.5" id="Fill-1625"></path>
                    <path d="M87.6708,368.6934 C87.6708,372.6834 90.9048,375.9234 94.9008,375.9234 C98.8908,375.9234 102.1308,372.6834 102.1308,368.6934 L87.6708,368.6934 Z" id="Fill-1626"></path>
                    <path d="M109.3608,361.4634 C105.3648,361.4634 102.1308,364.7034 102.1308,368.6934 L116.5908,368.6934 C116.5908,364.7034 113.3568,361.4634 109.3608,361.4634" id="Fill-1627"></path>
                    <path d="M109.3608,318.1368 C105.3648,318.1368 102.1308,321.3708 102.1308,325.3668 L116.5908,325.3668 C116.5908,321.3708 113.3568,318.1368 109.3608,318.1368" id="Fill-1628"></path>
                    <path d="M94.9026,332.5968 C98.8926,332.5968 102.1326,329.3568 102.1326,325.3668 L87.6726,325.3668 C87.6726,329.3568 90.9066,332.5968 94.9026,332.5968" id="Fill-1629"></path>
                    <path d="M87.6708,339.7902 C87.6708,343.7802 90.9048,347.0202 94.9008,347.0202 C98.8908,347.0202 102.1308,343.7802 102.1308,339.7902 L87.6708,339.7902 Z" id="Fill-1630"></path>
                    <path d="M109.3608,332.5602 C105.3648,332.5602 102.1308,335.8002 102.1308,339.7902 L116.5908,339.7902 C116.5908,335.8002 113.3568,332.5602 109.3608,332.5602" id="Fill-1631"></path>
                    <path d="M109.3608,289.2174 C105.3648,289.2174 102.1308,292.4514 102.1308,296.4474 L116.5908,296.4474 C116.5908,292.4514 113.3568,289.2174 109.3608,289.2174" id="Fill-1632"></path>
                    <path d="M94.9026,303.6768 C98.8926,303.6768 102.1326,300.4368 102.1326,296.4468 L87.6726,296.4468 C87.6726,300.4368 90.9066,303.6768 94.9026,303.6768" id="Fill-1633"></path>
                    <path d="M87.6708,310.8708 C87.6708,314.8608 90.9048,318.1008 94.9008,318.1008 C98.8908,318.1008 102.1308,314.8608 102.1308,310.8708 L87.6708,310.8708 Z" id="Fill-1634"></path>
                    <path d="M109.3608,303.6402 C105.3648,303.6402 102.1308,306.8802 102.1308,310.8702 L116.5908,310.8702 C116.5908,306.8802 113.3568,303.6402 109.3608,303.6402" id="Fill-1635"></path>
                    <path d="M109.3608,260.2776 C105.3648,260.2776 102.1308,263.5176 102.1308,267.5076 L116.5908,267.5076 C116.5908,263.5176 113.3568,260.2776 109.3608,260.2776" id="Fill-1636"></path>
                    <path d="M94.9026,274.737 C98.8926,274.737 102.1326,271.497 102.1326,267.507 L87.6726,267.507 C87.6726,271.497 90.9066,274.737 94.9026,274.737" id="Fill-1637"></path>
                    <path d="M87.6708,281.934 C87.6708,285.924 90.9048,289.164 94.9008,289.164 C98.8908,289.164 102.1308,285.924 102.1308,281.934 L87.6708,281.934 Z" id="Fill-1638"></path>
                    <path d="M109.3608,274.704 C105.3648,274.704 102.1308,277.938 102.1308,281.934 L116.5908,281.934 C116.5908,277.938 113.3568,274.704 109.3608,274.704" id="Fill-1639"></path>
                    <path d="M109.3608,231.3576 C105.3648,231.3576 102.1308,234.5976 102.1308,238.5876 L116.5908,238.5876 C116.5908,234.5976 113.3568,231.3576 109.3608,231.3576" id="Fill-1640"></path>
                    <path d="M94.9026,245.8176 C98.8926,245.8176 102.1326,242.5776 102.1326,238.5876 L87.6726,238.5876 C87.6726,242.5776 90.9066,245.8176 94.9026,245.8176" id="Fill-1641"></path>
                    <path d="M87.6708,253.0146 C87.6708,257.0046 90.9048,260.2446 94.9008,260.2446 C98.8908,260.2446 102.1308,257.0046 102.1308,253.0146 L87.6708,253.0146 Z" id="Fill-1642"></path>
                    <path d="M109.3608,245.7846 C105.3648,245.7846 102.1308,249.0186 102.1308,253.0146 L116.5908,253.0146 C116.5908,249.0186 113.3568,245.7846 109.3608,245.7846" id="Fill-1643"></path>
                    <path d="M109.3608,202.458 C105.3648,202.458 102.1308,205.692 102.1308,209.688 L116.5908,209.688 C116.5908,205.692 113.3568,202.458 109.3608,202.458" id="Fill-1644"></path>
                    <path d="M94.9026,216.9174 C98.8926,216.9174 102.1326,213.6774 102.1326,209.6874 L87.6726,209.6874 C87.6726,213.6774 90.9066,216.9174 94.9026,216.9174" id="Fill-1645"></path>
                    <path d="M87.6708,224.1114 C87.6708,228.1074 90.9048,231.3414 94.9008,231.3414 C98.8908,231.3414 102.1308,228.1074 102.1308,224.1114 L87.6708,224.1114 Z" id="Fill-1646"></path>
                    <path d="M109.3608,216.8814 C105.3648,216.8814 102.1308,220.1214 102.1308,224.1114 L116.5908,224.1114 C116.5908,220.1214 113.3568,216.8814 109.3608,216.8814" id="Fill-1647"></path>
                    <path d="M109.3608,173.538 C105.3648,173.538 102.1308,176.772 102.1308,180.768 L116.5908,180.768 C116.5908,176.772 113.3568,173.538 109.3608,173.538" id="Fill-1648"></path>
                    <path d="M94.9026,187.998 C98.8926,187.998 102.1326,184.758 102.1326,180.768 L87.6726,180.768 C87.6726,184.758 90.9066,187.998 94.9026,187.998" id="Fill-1649"></path>
                    <path d="M87.6708,195.1914 C87.6708,199.1874 90.9048,202.4214 94.9008,202.4214 C98.8908,202.4214 102.1308,199.1874 102.1308,195.1914 L87.6708,195.1914 Z" id="Fill-1650"></path>
                    <path d="M109.3608,187.962 C105.3648,187.962 102.1308,191.202 102.1308,195.192 L116.5908,195.192 C116.5908,191.202 113.3568,187.962 109.3608,187.962" id="Fill-1651"></path>
                    <path d="M109.3608,144.6186 C105.3648,144.6186 102.1308,147.8526 102.1308,151.8486 L116.5908,151.8486 C116.5908,147.8526 113.3568,144.6186 109.3608,144.6186" id="Fill-1652"></path>
                    <path d="M94.9026,159.078 C98.8926,159.078 102.1326,155.838 102.1326,151.848 L87.6726,151.848 C87.6726,155.838 90.9066,159.078 94.9026,159.078" id="Fill-1653"></path>
                    <path d="M87.6708,166.272 C87.6708,170.268 90.9048,173.502 94.9008,173.502 C98.8908,173.502 102.1308,170.268 102.1308,166.272 L87.6708,166.272 Z" id="Fill-1654"></path>
                    <path d="M109.3608,159.0414 C105.3648,159.0414 102.1308,162.2814 102.1308,166.2714 L116.5908,166.2714 C116.5908,162.2814 113.3568,159.0414 109.3608,159.0414" id="Fill-1655"></path>
                    <path d="M109.3608,115.6968 C105.3648,115.6968 102.1308,118.9308 102.1308,122.9268 L116.5908,122.9268 C116.5908,118.9308 113.3568,115.6968 109.3608,115.6968" id="Fill-1656"></path>
                    <path d="M94.9026,130.1586 C98.8926,130.1586 102.1326,126.9186 102.1326,122.9286 L87.6726,122.9286 C87.6726,126.9186 90.9066,130.1586 94.9026,130.1586" id="Fill-1657"></path>
                    <path d="M87.6708,137.352 C87.6708,141.348 90.9048,144.582 94.9008,144.582 C98.8908,144.582 102.1308,141.348 102.1308,137.352 L87.6708,137.352 Z" id="Fill-1658"></path>
                    <path d="M109.3608,130.1226 C105.3648,130.1226 102.1308,133.3626 102.1308,137.3526 L116.5908,137.3526 C116.5908,133.3626 113.3568,130.1226 109.3608,130.1226" id="Fill-1659"></path>
                    <path d="M109.3608,86.7774 C105.3648,86.7774 102.1308,90.0114 102.1308,94.0074 L116.5908,94.0074 C116.5908,90.0114 113.3568,86.7774 109.3608,86.7774" id="Fill-1660"></path>
                    <path d="M94.9026,101.2374 C98.8926,101.2374 102.1326,97.9974 102.1326,94.0074 L87.6726,94.0074 C87.6726,97.9974 90.9066,101.2374 94.9026,101.2374" id="Fill-1661"></path>
                    <path d="M87.6708,108.4326 C87.6708,112.4286 90.9048,115.6626 94.9008,115.6626 C98.8908,115.6626 102.1308,112.4286 102.1308,108.4326 L87.6708,108.4326 Z" id="Fill-1662"></path>
                    <path d="M109.3608,101.2026 C105.3648,101.2026 102.1308,104.4366 102.1308,108.4326 L116.5908,108.4326 C116.5908,104.4366 113.3568,101.2026 109.3608,101.2026" id="Fill-1663"></path>
                    <path d="M109.3608,57.8574 C105.3648,57.8574 102.1308,61.0914 102.1308,65.0874 L116.5908,65.0874 C116.5908,61.0914 113.3568,57.8574 109.3608,57.8574" id="Fill-1664"></path>
                    <path d="M94.9026,72.318 C98.8926,72.318 102.1326,69.078 102.1326,65.088 L87.6726,65.088 C87.6726,69.078 90.9066,72.318 94.9026,72.318" id="Fill-1665"></path>
                    <path d="M87.6708,79.5126 C87.6708,83.5086 90.9048,86.7426 94.9008,86.7426 C98.8908,86.7426 102.1308,83.5086 102.1308,79.5126 L87.6708,79.5126 Z" id="Fill-1666"></path>
                    <path d="M109.3608,72.2826 C105.3648,72.2826 102.1308,75.5166 102.1308,79.5126 L116.5908,79.5126 C116.5908,75.5166 113.3568,72.2826 109.3608,72.2826" id="Fill-1667"></path>
                    <path d="M109.3608,28.9194 C105.3648,28.9194 102.1308,32.1534 102.1308,36.1494 L116.5908,36.1494 C116.5908,32.1534 113.3568,28.9194 109.3608,28.9194" id="Fill-1668"></path>
                    <path d="M94.9026,43.3794 C98.8926,43.3794 102.1326,40.1394 102.1326,36.1494 L87.6726,36.1494 C87.6726,40.1394 90.9066,43.3794 94.9026,43.3794" id="Fill-1669"></path>
                    <path d="M87.6708,50.5746 C87.6708,54.5706 90.9048,57.8046 94.9008,57.8046 C98.8908,57.8046 102.1308,54.5706 102.1308,50.5746 L87.6708,50.5746 Z" id="Fill-1670"></path>
                    <path d="M109.3608,43.3446 C105.3648,43.3446 102.1308,46.5786 102.1308,50.5746 L116.5908,50.5746 C116.5908,46.5786 113.3568,43.3446 109.3608,43.3446" id="Fill-1671"></path>
                    <path d="M109.3608,0 C105.3648,0 102.1308,3.234 102.1308,7.23 L116.5908,7.23 C116.5908,3.234 113.3568,0 109.3608,0" id="Fill-1672"></path>
                    <path d="M94.9026,14.46 C98.8926,14.46 102.1326,11.22 102.1326,7.23 L87.6726,7.23 C87.6726,11.22 90.9066,14.46 94.9026,14.46" id="Fill-1673"></path>
                    <path d="M87.6708,21.6546 C87.6708,25.6506 90.9048,28.8846 94.9008,28.8846 C98.8908,28.8846 102.1308,25.6506 102.1308,21.6546 L87.6708,21.6546 Z" id="Fill-1674"></path>
                    <path d="M109.3608,14.4252 C105.3648,14.4252 102.1308,17.6592 102.1308,21.6552 L116.5908,21.6552 C116.5908,17.6592 113.3568,14.4252 109.3608,14.4252" id="Fill-1675"></path>
                    <path d="M109.3626,433.7958 C105.3666,433.7958 102.1326,437.0358 102.1326,441.0258 L116.5926,441.0258 C116.5926,437.0358 113.3526,433.7958 109.3626,433.7958" id="Fill-1676"></path>
                    <path d="M94.9044,448.2558 C98.8944,448.2558 102.1344,445.0158 102.1344,441.0258 L87.6744,441.0258 C87.6744,445.0158 90.9084,448.2558 94.9044,448.2558" id="Fill-1677"></path>
                    <path d="M87.6708,455.4522 C87.6708,459.4422 90.9108,462.6822 94.9008,462.6822 C98.8968,462.6822 102.1308,459.4422 102.1308,455.4522 L87.6708,455.4522 L87.6708,455.4522 Z" id="Fill-1678"></path>
                    <path d="M109.3626,448.2222 C105.3666,448.2222 102.1326,451.4562 102.1326,455.4522 L116.5926,455.4522 C116.5926,451.4562 113.3526,448.2222 109.3626,448.2222" id="Fill-1679"></path>
                    <path d="M109.3626,404.8764 C105.3666,404.8764 102.1326,408.1164 102.1326,412.1064 L116.5926,412.1064 C116.5926,408.1164 113.3526,404.8764 109.3626,404.8764" id="Fill-1680"></path>
                    <path d="M94.9044,419.3358 C98.8944,419.3358 102.1344,416.0958 102.1344,412.1058 L87.6744,412.1058 C87.6744,416.0958 90.9084,419.3358 94.9044,419.3358" id="Fill-1681"></path>
                    <path d="M87.6708,426.5328 C87.6708,430.5228 90.9108,433.7628 94.9008,433.7628 C98.8968,433.7628 102.1308,430.5228 102.1308,426.5328 L87.6708,426.5328 L87.6708,426.5328 Z" id="Fill-1682"></path>
                    <path d="M109.3626,419.3028 C105.3666,419.3028 102.1326,422.5368 102.1326,426.5328 L116.5926,426.5328 C116.5926,422.5368 113.3526,419.3028 109.3626,419.3028" id="Fill-1683"></path>
                    <path d="M109.3626,375.96 C105.3666,375.96 102.1326,379.194 102.1326,383.19 L116.5926,383.19 C116.5926,379.194 113.3526,375.96 109.3626,375.96" id="Fill-1684"></path>
                    <path d="M94.9044,390.4194 C98.8944,390.4194 102.1344,387.1794 102.1344,383.1894 L87.6744,383.1894 C87.6744,387.1794 90.9084,390.4194 94.9044,390.4194" id="Fill-1685"></path>
                    <path d="M87.6708,397.6128 C87.6708,401.6028 90.9108,404.8428 94.9008,404.8428 C98.8968,404.8428 102.1308,401.6028 102.1308,397.6128 L87.6708,397.6128 L87.6708,397.6128 Z" id="Fill-1686"></path>
                    <path d="M109.3626,390.3828 C105.3666,390.3828 102.1326,393.6228 102.1326,397.6128 L116.5926,397.6128 C116.5926,393.6228 113.3526,390.3828 109.3626,390.3828" id="Fill-1687"></path>
                    <path d="M253.9626,433.7958 C249.9666,433.7958 246.7326,437.0358 246.7326,441.0258 L261.1926,441.0258 C261.1926,437.0358 257.9526,433.7958 253.9626,433.7958" id="Fill-1688"></path>
                    <path d="M239.502,448.2558 C243.492,448.2558 246.732,445.0158 246.732,441.0258 L232.272,441.0258 C232.272,445.0158 235.512,448.2558 239.502,448.2558" id="Fill-1689"></path>
                    <path d="M232.2714,455.4522 C232.2714,459.4422 235.5054,462.6822 239.5014,462.6822 C243.4914,462.6822 246.7314,459.4422 246.7314,455.4522 L232.2714,455.4522 L232.2714,455.4522 Z" id="Fill-1690"></path>
                    <path d="M253.9626,448.2222 C249.9666,448.2222 246.7326,451.4562 246.7326,455.4522 L261.1926,455.4522 C261.1926,451.4562 257.9526,448.2222 253.9626,448.2222" id="Fill-1691"></path>
                    <path d="M225.0408,433.7958 C221.0448,433.7958 217.8108,437.0358 217.8108,441.0258 L232.2708,441.0258 C232.2708,437.0358 229.0308,433.7958 225.0408,433.7958" id="Fill-1692"></path>
                    <path d="M210.5814,448.2558 C214.5714,448.2558 217.8114,445.0158 217.8114,441.0258 L203.3514,441.0258 C203.3514,445.0158 206.5914,448.2558 210.5814,448.2558" id="Fill-1693"></path>
                    <path d="M203.3484,455.4522 C203.3484,459.4422 206.5884,462.6822 210.5844,462.6822 C214.5744,462.6822 217.8084,459.4422 217.8084,455.4522 L203.3484,455.4522 L203.3484,455.4522 Z" id="Fill-1694"></path>
                    <path d="M225.0408,448.2222 C221.0448,448.2222 217.8108,451.4562 217.8108,455.4522 L232.2708,455.4522 C232.2708,451.4562 229.0308,448.2222 225.0408,448.2222" id="Fill-1695"></path>
                    <path d="M282.882,433.7958 C278.886,433.7958 275.652,437.0358 275.652,441.0258 L290.112,441.0258 C290.112,437.0358 286.872,433.7958 282.882,433.7958" id="Fill-1696"></path>
                    <path d="M268.4226,448.2558 C272.4126,448.2558 275.6526,445.0158 275.6526,441.0258 L261.1926,441.0258 C261.1926,445.0158 264.4326,448.2558 268.4226,448.2558" id="Fill-1697"></path>
                    <path d="M261.1902,455.4522 C261.1902,459.4422 264.4242,462.6822 268.4202,462.6822 C272.4162,462.6822 275.6502,459.4422 275.6502,455.4522 L261.1902,455.4522 L261.1902,455.4522 Z" id="Fill-1698"></path>
                    <path d="M282.882,448.2222 C278.886,448.2222 275.652,451.4562 275.652,455.4522 L290.112,455.4522 C290.112,451.4562 286.872,448.2222 282.882,448.2222" id="Fill-1699"></path>
                    <path d="M282.882,404.8764 C278.886,404.8764 275.652,408.1164 275.652,412.1064 L290.112,412.1064 C290.112,408.1164 286.872,404.8764 282.882,404.8764" id="Fill-1700"></path>
                    <path d="M268.4226,419.3358 C272.4126,419.3358 275.6526,416.0958 275.6526,412.1058 L261.1926,412.1058 C261.1926,416.0958 264.4326,419.3358 268.4226,419.3358" id="Fill-1701"></path>
                    <path d="M261.1902,426.5328 C261.1902,430.5228 264.4242,433.7628 268.4202,433.7628 C272.4162,433.7628 275.6502,430.5228 275.6502,426.5328 L261.1902,426.5328 L261.1902,426.5328 Z" id="Fill-1702"></path>
                    <path d="M282.882,419.3028 C278.886,419.3028 275.652,422.5368 275.652,426.5328 L290.112,426.5328 C290.112,422.5368 286.872,419.3028 282.882,419.3028" id="Fill-1703"></path>
                    <path d="M282.882,375.96 C278.886,375.96 275.652,379.194 275.652,383.19 L290.112,383.19 C290.112,379.194 286.872,375.96 282.882,375.96" id="Fill-1704"></path>
                    <path d="M268.4226,390.4194 C272.4126,390.4194 275.6526,387.1794 275.6526,383.1894 L261.1926,383.1894 C261.1926,387.1794 264.4326,390.4194 268.4226,390.4194" id="Fill-1705"></path>
                    <path d="M261.1902,397.6128 C261.1902,401.6028 264.4242,404.8428 268.4202,404.8428 C272.4162,404.8428 275.6502,401.6028 275.6502,397.6128 L261.1902,397.6128 L261.1902,397.6128 Z" id="Fill-1706"></path>
                    <path d="M282.882,390.3828 C278.886,390.3828 275.652,393.6228 275.652,397.6128 L290.112,397.6128 C290.112,393.6228 286.872,390.3828 282.882,390.3828" id="Fill-1707"></path>
                    <path d="M196.119,347.04 C192.123,347.04 188.889,350.274 188.889,354.27 L203.349,354.27 C203.349,350.274 200.109,347.04 196.119,347.04" id="Fill-1708"></path>
                    <path d="M181.6614,361.5 C185.6514,361.5 188.8914,358.26 188.8914,354.27 L174.4314,354.27 C174.4314,358.26 177.6654,361.5 181.6614,361.5" id="Fill-1709"></path>
                    <path d="M174.429,368.6934 C174.429,372.6834 177.669,375.9234 181.659,375.9234 C185.649,375.9234 188.889,372.6834 188.889,368.6934 L174.429,368.6934 Z" id="Fill-1710"></path>
                    <path d="M196.119,361.4634 C192.123,361.4634 188.889,364.7034 188.889,368.6934 L203.349,368.6934 C203.349,364.7034 200.109,361.4634 196.119,361.4634" id="Fill-1711"></path>
                    <path d="M196.119,318.1368 C192.123,318.1368 188.889,321.3708 188.889,325.3668 L203.349,325.3668 C203.349,321.3708 200.109,318.1368 196.119,318.1368" id="Fill-1712"></path>
                    <path d="M181.6614,332.5968 C185.6514,332.5968 188.8914,329.3568 188.8914,325.3668 L174.4314,325.3668 C174.4314,329.3568 177.6654,332.5968 181.6614,332.5968" id="Fill-1713"></path>
                    <path d="M174.429,339.7902 C174.429,343.7802 177.669,347.0202 181.659,347.0202 C185.649,347.0202 188.889,343.7802 188.889,339.7902 L174.429,339.7902 Z" id="Fill-1714"></path>
                    <path d="M196.119,332.5602 C192.123,332.5602 188.889,335.8002 188.889,339.7902 L203.349,339.7902 C203.349,335.8002 200.109,332.5602 196.119,332.5602" id="Fill-1715"></path>
                    <path d="M196.119,289.2174 C192.123,289.2174 188.889,292.4514 188.889,296.4474 L203.349,296.4474 C203.349,292.4514 200.109,289.2174 196.119,289.2174" id="Fill-1716"></path>
                    <path d="M181.6614,303.6768 C185.6514,303.6768 188.8914,300.4368 188.8914,296.4468 L174.4314,296.4468 C174.4314,300.4368 177.6654,303.6768 181.6614,303.6768" id="Fill-1717"></path>
                    <path d="M174.429,310.8708 C174.429,314.8608 177.669,318.1008 181.659,318.1008 C185.649,318.1008 188.889,314.8608 188.889,310.8708 L174.429,310.8708 Z" id="Fill-1718"></path>
                    <path d="M196.119,303.6402 C192.123,303.6402 188.889,306.8802 188.889,310.8702 L203.349,310.8702 C203.349,306.8802 200.109,303.6402 196.119,303.6402" id="Fill-1719"></path>
                    <path d="M196.119,260.2776 C192.123,260.2776 188.889,263.5176 188.889,267.5076 L203.349,267.5076 C203.349,263.5176 200.109,260.2776 196.119,260.2776" id="Fill-1720"></path>
                    <path d="M181.6614,274.737 C185.6514,274.737 188.8914,271.497 188.8914,267.507 L174.4314,267.507 C174.4314,271.497 177.6654,274.737 181.6614,274.737" id="Fill-1721"></path>
                    <path d="M174.429,281.934 C174.429,285.924 177.669,289.164 181.659,289.164 C185.649,289.164 188.889,285.924 188.889,281.934 L174.429,281.934 Z" id="Fill-1722"></path>
                    <path d="M196.119,274.704 C192.123,274.704 188.889,277.938 188.889,281.934 L203.349,281.934 C203.349,277.938 200.109,274.704 196.119,274.704" id="Fill-1723"></path>
                    <path d="M196.119,231.3576 C192.123,231.3576 188.889,234.5976 188.889,238.5876 L203.349,238.5876 C203.349,234.5976 200.109,231.3576 196.119,231.3576" id="Fill-1724"></path>
                    <path d="M181.6614,245.8176 C185.6514,245.8176 188.8914,242.5776 188.8914,238.5876 L174.4314,238.5876 C174.4314,242.5776 177.6654,245.8176 181.6614,245.8176" id="Fill-1725"></path>
                    <path d="M174.429,253.0146 C174.429,257.0046 177.669,260.2446 181.659,260.2446 C185.649,260.2446 188.889,257.0046 188.889,253.0146 L174.429,253.0146 Z" id="Fill-1726"></path>
                    <path d="M196.119,245.7846 C192.123,245.7846 188.889,249.0186 188.889,253.0146 L203.349,253.0146 C203.349,249.0186 200.109,245.7846 196.119,245.7846" id="Fill-1727"></path>
                    <path d="M196.119,202.458 C192.123,202.458 188.889,205.692 188.889,209.688 L203.349,209.688 C203.349,205.692 200.109,202.458 196.119,202.458" id="Fill-1728"></path>
                    <path d="M181.6614,216.9174 C185.6514,216.9174 188.8914,213.6774 188.8914,209.6874 L174.4314,209.6874 C174.4314,213.6774 177.6654,216.9174 181.6614,216.9174" id="Fill-1729"></path>
                    <path d="M174.429,224.1114 C174.429,228.1074 177.669,231.3414 181.659,231.3414 C185.649,231.3414 188.889,228.1074 188.889,224.1114 L174.429,224.1114 Z" id="Fill-1730"></path>
                    <path d="M196.119,216.8814 C192.123,216.8814 188.889,220.1214 188.889,224.1114 L203.349,224.1114 C203.349,220.1214 200.109,216.8814 196.119,216.8814" id="Fill-1731"></path>
                    <path d="M196.119,173.538 C192.123,173.538 188.889,176.772 188.889,180.768 L203.349,180.768 C203.349,176.772 200.109,173.538 196.119,173.538" id="Fill-1732"></path>
                    <path d="M181.6614,187.998 C185.6514,187.998 188.8914,184.758 188.8914,180.768 L174.4314,180.768 C174.4314,184.758 177.6654,187.998 181.6614,187.998" id="Fill-1733"></path>
                    <path d="M174.429,195.1914 C174.429,199.1874 177.669,202.4214 181.659,202.4214 C185.649,202.4214 188.889,199.1874 188.889,195.1914 L174.429,195.1914 Z" id="Fill-1734"></path>
                    <path d="M196.119,187.962 C192.123,187.962 188.889,191.202 188.889,195.192 L203.349,195.192 C203.349,191.202 200.109,187.962 196.119,187.962" id="Fill-1735"></path>
                    <path d="M196.119,144.6186 C192.123,144.6186 188.889,147.8526 188.889,151.8486 L203.349,151.8486 C203.349,147.8526 200.109,144.6186 196.119,144.6186" id="Fill-1736"></path>
                    <path d="M181.6614,159.078 C185.6514,159.078 188.8914,155.838 188.8914,151.848 L174.4314,151.848 C174.4314,155.838 177.6654,159.078 181.6614,159.078" id="Fill-1737"></path>
                    <path d="M174.429,166.272 C174.429,170.268 177.669,173.502 181.659,173.502 C185.649,173.502 188.889,170.268 188.889,166.272 L174.429,166.272 Z" id="Fill-1738"></path>
                    <path d="M196.119,159.0414 C192.123,159.0414 188.889,162.2814 188.889,166.2714 L203.349,166.2714 C203.349,162.2814 200.109,159.0414 196.119,159.0414" id="Fill-1739"></path>
                    <path d="M196.119,115.6968 C192.123,115.6968 188.889,118.9308 188.889,122.9268 L203.349,122.9268 C203.349,118.9308 200.109,115.6968 196.119,115.6968" id="Fill-1740"></path>
                    <path d="M181.6614,130.1586 C185.6514,130.1586 188.8914,126.9186 188.8914,122.9286 L174.4314,122.9286 C174.4314,126.9186 177.6654,130.1586 181.6614,130.1586" id="Fill-1741"></path>
                    <path d="M174.429,137.352 C174.429,141.348 177.669,144.582 181.659,144.582 C185.649,144.582 188.889,141.348 188.889,137.352 L174.429,137.352 Z" id="Fill-1742"></path>
                    <path d="M196.119,130.1226 C192.123,130.1226 188.889,133.3626 188.889,137.3526 L203.349,137.3526 C203.349,133.3626 200.109,130.1226 196.119,130.1226" id="Fill-1743"></path>
                    <path d="M196.119,86.7774 C192.123,86.7774 188.889,90.0114 188.889,94.0074 L203.349,94.0074 C203.349,90.0114 200.109,86.7774 196.119,86.7774" id="Fill-1744"></path>
                    <path d="M181.6614,101.2374 C185.6514,101.2374 188.8914,97.9974 188.8914,94.0074 L174.4314,94.0074 C174.4314,97.9974 177.6654,101.2374 181.6614,101.2374" id="Fill-1745"></path>
                    <path d="M174.429,108.4326 C174.429,112.4286 177.669,115.6626 181.659,115.6626 C185.649,115.6626 188.889,112.4286 188.889,108.4326 L174.429,108.4326 Z" id="Fill-1746"></path>
                    <path d="M196.119,101.2026 C192.123,101.2026 188.889,104.4366 188.889,108.4326 L203.349,108.4326 C203.349,104.4366 200.109,101.2026 196.119,101.2026" id="Fill-1747"></path>
                    <path d="M196.119,57.8574 C192.123,57.8574 188.889,61.0914 188.889,65.0874 L203.349,65.0874 C203.349,61.0914 200.109,57.8574 196.119,57.8574" id="Fill-1748"></path>
                    <path d="M181.6614,72.318 C185.6514,72.318 188.8914,69.078 188.8914,65.088 L174.4314,65.088 C174.4314,69.078 177.6654,72.318 181.6614,72.318" id="Fill-1749"></path>
                    <path d="M174.429,79.5126 C174.429,83.5086 177.669,86.7426 181.659,86.7426 C185.649,86.7426 188.889,83.5086 188.889,79.5126 L174.429,79.5126 Z" id="Fill-1750"></path>
                    <path d="M196.119,72.2826 C192.123,72.2826 188.889,75.5166 188.889,79.5126 L203.349,79.5126 C203.349,75.5166 200.109,72.2826 196.119,72.2826" id="Fill-1751"></path>
                    <path d="M196.119,28.9194 C192.123,28.9194 188.889,32.1534 188.889,36.1494 L203.349,36.1494 C203.349,32.1534 200.109,28.9194 196.119,28.9194" id="Fill-1752"></path>
                    <path d="M181.6614,43.3794 C185.6514,43.3794 188.8914,40.1394 188.8914,36.1494 L174.4314,36.1494 C174.4314,40.1394 177.6654,43.3794 181.6614,43.3794" id="Fill-1753"></path>
                    <path d="M174.429,50.5746 C174.429,54.5706 177.669,57.8046 181.659,57.8046 C185.649,57.8046 188.889,54.5706 188.889,50.5746 L174.429,50.5746 Z" id="Fill-1754"></path>
                    <path d="M196.119,43.3446 C192.123,43.3446 188.889,46.5786 188.889,50.5746 L203.349,50.5746 C203.349,46.5786 200.109,43.3446 196.119,43.3446" id="Fill-1755"></path>
                    <path d="M196.119,0 C192.123,0 188.889,3.234 188.889,7.23 L203.349,7.23 C203.349,3.234 200.109,0 196.119,0" id="Fill-1756"></path>
                    <path d="M181.6614,14.46 C185.6514,14.46 188.8914,11.22 188.8914,7.23 L174.4314,7.23 C174.4314,11.22 177.6654,14.46 181.6614,14.46" id="Fill-1757"></path>
                    <path d="M174.429,21.6546 C174.429,25.6506 177.669,28.8846 181.659,28.8846 C185.649,28.8846 188.889,25.6506 188.889,21.6546 L174.429,21.6546 Z" id="Fill-1758"></path>
                    <path d="M196.119,14.4252 C192.123,14.4252 188.889,17.6592 188.889,21.6552 L203.349,21.6552 C203.349,17.6592 200.109,14.4252 196.119,14.4252" id="Fill-1759"></path>
                    <path d="M225.0396,347.0034 C221.0496,347.0034 217.8096,350.2434 217.8096,354.2334 L232.2696,354.2334 C232.2696,350.2434 229.0356,347.0034 225.0396,347.0034" id="Fill-1760"></path>
                    <path d="M210.5832,361.4634 C214.5732,361.4634 217.8132,358.2234 217.8132,354.2334 L203.3472,354.2334 C203.3472,358.2234 206.5872,361.4634 210.5832,361.4634" id="Fill-1761"></path>
                    <path d="M203.3496,368.6598 C203.3496,372.6498 206.5896,375.8838 210.5796,375.8838 C214.5696,375.8838 217.8096,372.6498 217.8096,368.6598 L203.3496,368.6598 Z" id="Fill-1762"></path>
                    <path d="M225.0396,361.4298 C221.0436,361.4298 217.8096,364.6638 217.8096,368.6598 L232.2696,368.6598 C232.2696,364.6638 229.0356,361.4298 225.0396,361.4298" id="Fill-1763"></path>
                    <path d="M253.9584,347.0034 C249.9684,347.0034 246.7284,350.2434 246.7284,354.2334 L261.1884,354.2334 C261.1884,350.2434 257.9544,347.0034 253.9584,347.0034" id="Fill-1764"></path>
                    <path d="M239.502,361.4634 C243.492,361.4634 246.732,358.2234 246.732,354.2334 L232.266,354.2334 C232.266,358.2234 235.506,361.4634 239.502,361.4634" id="Fill-1765"></path>
                    <path d="M232.2684,368.6598 C232.2684,372.6498 235.5084,375.8838 239.4984,375.8838 C243.4884,375.8838 246.7284,372.6498 246.7284,368.6598 L232.2684,368.6598 Z" id="Fill-1766"></path>
                    <path d="M253.9584,361.4298 C249.9624,361.4298 246.7284,364.6638 246.7284,368.6598 L261.1884,368.6598 C261.1884,364.6638 257.9544,361.4298 253.9584,361.4298" id="Fill-1767"></path>
                    <path d="M282.879,347.04 C278.889,347.04 275.649,350.274 275.649,354.27 L290.109,354.27 C290.109,350.274 286.875,347.04 282.879,347.04" id="Fill-1768"></path>
                    <path d="M268.4226,361.5 C272.4126,361.5 275.6526,358.26 275.6526,354.27 L261.1866,354.27 C261.1866,358.26 264.4266,361.5 268.4226,361.5" id="Fill-1769"></path>
                    <path d="M261.189,368.6934 C261.189,372.6834 264.429,375.9234 268.419,375.9234 C272.409,375.9234 275.649,372.6834 275.649,368.6934 L261.189,368.6934 Z" id="Fill-1770"></path>
                    <path d="M282.879,361.4634 C278.883,361.4634 275.649,364.7034 275.649,368.6934 L290.109,368.6934 C290.109,364.7034 286.875,361.4634 282.879,361.4634" id="Fill-1771"></path>
                    <path d="M282.879,318.1368 C278.889,318.1368 275.649,321.3708 275.649,325.3668 L290.109,325.3668 C290.109,321.3708 286.875,318.1368 282.879,318.1368" id="Fill-1772"></path>
                    <path d="M268.4226,332.5968 C272.4126,332.5968 275.6526,329.3568 275.6526,325.3668 L261.1866,325.3668 C261.1866,329.3568 264.4266,332.5968 268.4226,332.5968" id="Fill-1773"></path>
                    <path d="M261.189,339.7902 C261.189,343.7802 264.429,347.0202 268.419,347.0202 C272.409,347.0202 275.649,343.7802 275.649,339.7902 L261.189,339.7902 Z" id="Fill-1774"></path>
                    <path d="M282.879,332.5602 C278.883,332.5602 275.649,335.8002 275.649,339.7902 L290.109,339.7902 C290.109,335.8002 286.875,332.5602 282.879,332.5602" id="Fill-1775"></path>
                    <path d="M282.879,289.2174 C278.889,289.2174 275.649,292.4514 275.649,296.4474 L290.109,296.4474 C290.109,292.4514 286.875,289.2174 282.879,289.2174" id="Fill-1776"></path>
                    <path d="M268.4226,303.6768 C272.4126,303.6768 275.6526,300.4368 275.6526,296.4468 L261.1866,296.4468 C261.1866,300.4368 264.4266,303.6768 268.4226,303.6768" id="Fill-1777"></path>
                    <path d="M261.189,310.8708 C261.189,314.8608 264.429,318.1008 268.419,318.1008 C272.409,318.1008 275.649,314.8608 275.649,310.8708 L261.189,310.8708 Z" id="Fill-1778"></path>
                    <path d="M282.879,303.6402 C278.883,303.6402 275.649,306.8802 275.649,310.8702 L290.109,310.8702 C290.109,306.8802 286.875,303.6402 282.879,303.6402" id="Fill-1779"></path>
                    <path d="M282.879,260.2776 C278.889,260.2776 275.649,263.5176 275.649,267.5076 L290.109,267.5076 C290.109,263.5176 286.875,260.2776 282.879,260.2776" id="Fill-1780"></path>
                    <path d="M268.4226,274.737 C272.4126,274.737 275.6526,271.497 275.6526,267.507 L261.1866,267.507 C261.1866,271.497 264.4266,274.737 268.4226,274.737" id="Fill-1781"></path>
                    <path d="M261.189,281.934 C261.189,285.924 264.429,289.164 268.419,289.164 C272.409,289.164 275.649,285.924 275.649,281.934 L261.189,281.934 Z" id="Fill-1782"></path>
                    <path d="M282.879,274.704 C278.883,274.704 275.649,277.938 275.649,281.934 L290.109,281.934 C290.109,277.938 286.875,274.704 282.879,274.704" id="Fill-1783"></path>
                    <path d="M282.879,231.3576 C278.889,231.3576 275.649,234.5976 275.649,238.5876 L290.109,238.5876 C290.109,234.5976 286.875,231.3576 282.879,231.3576" id="Fill-1784"></path>
                    <path d="M268.4226,245.8176 C272.4126,245.8176 275.6526,242.5776 275.6526,238.5876 L261.1866,238.5876 C261.1866,242.5776 264.4266,245.8176 268.4226,245.8176" id="Fill-1785"></path>
                    <path d="M261.189,253.0146 C261.189,257.0046 264.429,260.2446 268.419,260.2446 C272.409,260.2446 275.649,257.0046 275.649,253.0146 L261.189,253.0146 Z" id="Fill-1786"></path>
                    <path d="M282.879,245.7846 C278.883,245.7846 275.649,249.0186 275.649,253.0146 L290.109,253.0146 C290.109,249.0186 286.875,245.7846 282.879,245.7846" id="Fill-1787"></path>
                    <path d="M282.879,202.458 C278.889,202.458 275.649,205.692 275.649,209.688 L290.109,209.688 C290.109,205.692 286.875,202.458 282.879,202.458" id="Fill-1788"></path>
                    <path d="M268.4226,216.9174 C272.4126,216.9174 275.6526,213.6774 275.6526,209.6874 L261.1866,209.6874 C261.1866,213.6774 264.4266,216.9174 268.4226,216.9174" id="Fill-1789"></path>
                    <path d="M261.189,224.1114 C261.189,228.1074 264.429,231.3414 268.419,231.3414 C272.409,231.3414 275.649,228.1074 275.649,224.1114 L261.189,224.1114 Z" id="Fill-1790"></path>
                    <path d="M282.879,216.8814 C278.883,216.8814 275.649,220.1214 275.649,224.1114 L290.109,224.1114 C290.109,220.1214 286.875,216.8814 282.879,216.8814" id="Fill-1791"></path>
                    <path d="M282.879,173.538 C278.889,173.538 275.649,176.772 275.649,180.768 L290.109,180.768 C290.109,176.772 286.875,173.538 282.879,173.538" id="Fill-1792"></path>
                    <path d="M268.4226,187.998 C272.4126,187.998 275.6526,184.758 275.6526,180.768 L261.1866,180.768 C261.1866,184.758 264.4266,187.998 268.4226,187.998" id="Fill-1793"></path>
                    <path d="M261.189,195.1914 C261.189,199.1874 264.429,202.4214 268.419,202.4214 C272.409,202.4214 275.649,199.1874 275.649,195.1914 L261.189,195.1914 Z" id="Fill-1794"></path>
                    <path d="M282.879,187.962 C278.883,187.962 275.649,191.202 275.649,195.192 L290.109,195.192 C290.109,191.202 286.875,187.962 282.879,187.962" id="Fill-1795"></path>
                    <path d="M282.879,144.6186 C278.889,144.6186 275.649,147.8526 275.649,151.8486 L290.109,151.8486 C290.109,147.8526 286.875,144.6186 282.879,144.6186" id="Fill-1796"></path>
                    <path d="M268.4226,159.078 C272.4126,159.078 275.6526,155.838 275.6526,151.848 L261.1866,151.848 C261.1866,155.838 264.4266,159.078 268.4226,159.078" id="Fill-1797"></path>
                    <path d="M261.189,166.272 C261.189,170.268 264.429,173.502 268.419,173.502 C272.409,173.502 275.649,170.268 275.649,166.272 L261.189,166.272 Z" id="Fill-1798"></path>
                    <path d="M282.879,159.0414 C278.883,159.0414 275.649,162.2814 275.649,166.2714 L290.109,166.2714 C290.109,162.2814 286.875,159.0414 282.879,159.0414" id="Fill-1799"></path>
                    <path d="M282.879,115.6968 C278.889,115.6968 275.649,118.9308 275.649,122.9268 L290.109,122.9268 C290.109,118.9308 286.875,115.6968 282.879,115.6968" id="Fill-1800"></path>
                    <path d="M268.4226,130.1586 C272.4126,130.1586 275.6526,126.9186 275.6526,122.9286 L261.1866,122.9286 C261.1866,126.9186 264.4266,130.1586 268.4226,130.1586" id="Fill-1801"></path>
                    <path d="M261.189,137.352 C261.189,141.348 264.429,144.582 268.419,144.582 C272.409,144.582 275.649,141.348 275.649,137.352 L261.189,137.352 Z" id="Fill-1802"></path>
                    <path d="M282.879,130.1226 C278.883,130.1226 275.649,133.3626 275.649,137.3526 L290.109,137.3526 C290.109,133.3626 286.875,130.1226 282.879,130.1226" id="Fill-1803"></path>
                    <path d="M80.4402,86.7588 C76.4442,86.7588 73.2102,89.9928 73.2102,93.9888 L87.6702,93.9888 C87.6702,89.9928 84.4302,86.7588 80.4402,86.7588" id="Fill-1804"></path>
                    <path d="M65.9826,101.2194 C69.9726,101.2194 73.2126,97.9794 73.2126,93.9894 L58.7526,93.9894 C58.7526,97.9794 61.9866,101.2194 65.9826,101.2194" id="Fill-1805"></path>
                    <path d="M58.749,108.414 C58.749,112.41 61.989,115.644 65.979,115.644 C69.975,115.644 73.209,112.41 73.209,108.414 L58.749,108.414 L58.749,108.414 Z" id="Fill-1806"></path>
                    <path d="M80.4402,101.184 C76.4442,101.184 73.2102,104.418 73.2102,108.414 L87.6702,108.414 C87.6702,104.418 84.4302,101.184 80.4402,101.184" id="Fill-1807"></path>
                    <path d="M138.2796,86.7588 C134.2836,86.7588 131.0496,89.9928 131.0496,93.9888 L145.5096,93.9888 C145.5096,89.9928 142.2756,86.7588 138.2796,86.7588" id="Fill-1808"></path>
                    <path d="M123.822,101.2194 C127.812,101.2194 131.052,97.9794 131.052,93.9894 L116.592,93.9894 C116.592,97.9794 119.826,101.2194 123.822,101.2194" id="Fill-1809"></path>
                    <path d="M116.5896,108.414 C116.5896,112.41 119.8296,115.644 123.8196,115.644 C127.8096,115.644 131.0496,112.41 131.0496,108.414 L116.5896,108.414 Z" id="Fill-1810"></path>
                    <path d="M138.2796,101.184 C134.2836,101.184 131.0496,104.418 131.0496,108.414 L145.5096,108.414 C145.5096,104.418 142.2756,101.184 138.2796,101.184" id="Fill-1811"></path>
                    <path d="M167.2002,86.7588 C163.2042,86.7588 159.9702,89.9928 159.9702,93.9888 L174.4302,93.9888 C174.4302,89.9928 171.1962,86.7588 167.2002,86.7588" id="Fill-1812"></path>
                    <path d="M152.742,101.2194 C156.732,101.2194 159.972,97.9794 159.972,93.9894 L145.512,93.9894 C145.512,97.9794 148.746,101.2194 152.742,101.2194" id="Fill-1813"></path>
                    <path d="M145.5102,108.414 C145.5102,112.41 148.7442,115.644 152.7402,115.644 C156.7302,115.644 159.9702,112.41 159.9702,108.414 L145.5102,108.414 Z" id="Fill-1814"></path>
                    <path d="M167.2002,101.184 C163.2042,101.184 159.9702,104.418 159.9702,108.414 L174.4302,108.414 C174.4302,104.418 171.1962,101.184 167.2002,101.184" id="Fill-1815"></path>
                    <path d="M225.0408,0 C221.0448,0 217.8108,3.234 217.8108,7.23 L232.2708,7.23 C232.2708,3.234 229.0368,0 225.0408,0" id="Fill-1816"></path>
                    <path d="M210.5832,14.46 C214.5732,14.46 217.8132,11.22 217.8132,7.23 L203.3532,7.23 C203.3532,11.22 206.5872,14.46 210.5832,14.46" id="Fill-1817"></path>
                    <path d="M203.3496,21.6546 C203.3496,25.6506 206.5896,28.8846 210.5796,28.8846 C214.5756,28.8846 217.8096,25.6506 217.8096,21.6546 L203.3496,21.6546 L203.3496,21.6546 Z" id="Fill-1818"></path>
                    <path d="M225.0408,14.4252 C221.0448,14.4252 217.8108,17.6592 217.8108,21.6552 L232.2708,21.6552 C232.2708,17.6592 229.0368,14.4252 225.0408,14.4252" id="Fill-1819"></path>
                    <path d="M253.9584,0 C249.9684,0 246.7284,3.234 246.7284,7.23 L261.1884,7.23 C261.1884,3.234 257.9544,0 253.9584,0" id="Fill-1820"></path>
                    <path d="M239.502,14.46 C243.492,14.46 246.732,11.22 246.732,7.23 L232.266,7.23 C232.266,11.22 235.506,14.46 239.502,14.46" id="Fill-1821"></path>
                    <path d="M232.2684,21.6546 C232.2684,25.6506 235.5084,28.8846 239.4984,28.8846 C243.4884,28.8846 246.7284,25.6506 246.7284,21.6546 L232.2684,21.6546 Z" id="Fill-1822"></path>
                    <path d="M253.9584,14.4252 C249.9624,14.4252 246.7284,17.6592 246.7284,21.6552 L261.1884,21.6552 C261.1884,17.6592 257.9544,14.4252 253.9584,14.4252" id="Fill-1823"></path>
                    <path d="M282.8802,86.7774 C278.8842,86.7774 275.6502,90.0114 275.6502,94.0074 L290.1102,94.0074 C290.1102,90.0114 286.8762,86.7774 282.8802,86.7774" id="Fill-1824"></path>
                    <path d="M268.4226,101.2374 C272.4126,101.2374 275.6526,97.9974 275.6526,94.0074 L261.1926,94.0074 C261.1926,97.9974 264.4266,101.2374 268.4226,101.2374" id="Fill-1825"></path>
                    <path d="M261.189,108.4326 C261.189,112.4286 264.429,115.6626 268.419,115.6626 C272.415,115.6626 275.649,112.4286 275.649,108.4326 L261.189,108.4326 L261.189,108.4326 Z" id="Fill-1826"></path>
                    <path d="M282.8802,101.2026 C278.8842,101.2026 275.6502,104.4366 275.6502,108.4326 L290.1102,108.4326 C290.1102,104.4366 286.8762,101.2026 282.8802,101.2026" id="Fill-1827"></path>
                    <path d="M282.8802,57.8574 C278.8842,57.8574 275.6502,61.0914 275.6502,65.0874 L290.1102,65.0874 C290.1102,61.0914 286.8762,57.8574 282.8802,57.8574" id="Fill-1828"></path>
                    <path d="M268.4226,72.318 C272.4126,72.318 275.6526,69.078 275.6526,65.088 L261.1926,65.088 C261.1926,69.078 264.4266,72.318 268.4226,72.318" id="Fill-1829"></path>
                    <path d="M261.189,79.5126 C261.189,83.5086 264.429,86.7426 268.419,86.7426 C272.415,86.7426 275.649,83.5086 275.649,79.5126 L261.189,79.5126 L261.189,79.5126 Z" id="Fill-1830"></path>
                    <path d="M282.8802,72.2826 C278.8842,72.2826 275.6502,75.5166 275.6502,79.5126 L290.1102,79.5126 C290.1102,75.5166 286.8762,72.2826 282.8802,72.2826" id="Fill-1831"></path>
                    <path d="M282.8802,28.9194 C278.8842,28.9194 275.6502,32.1534 275.6502,36.1494 L290.1102,36.1494 C290.1102,32.1534 286.8762,28.9194 282.8802,28.9194" id="Fill-1832"></path>
                    <path d="M268.4226,43.3794 C272.4126,43.3794 275.6526,40.1394 275.6526,36.1494 L261.1926,36.1494 C261.1926,40.1394 264.4266,43.3794 268.4226,43.3794" id="Fill-1833"></path>
                    <path d="M261.189,50.5746 C261.189,54.5706 264.429,57.8046 268.419,57.8046 C272.415,57.8046 275.649,54.5706 275.649,50.5746 L261.189,50.5746 L261.189,50.5746 Z" id="Fill-1834"></path>
                    <path d="M282.8802,43.3446 C278.8842,43.3446 275.6502,46.5786 275.6502,50.5746 L290.1102,50.5746 C290.1102,46.5786 286.8762,43.3446 282.8802,43.3446" id="Fill-1835"></path>
                    <path d="M282.8802,0 C278.8842,0 275.6502,3.234 275.6502,7.23 L290.1102,7.23 C290.1102,3.234 286.8762,0 282.8802,0" id="Fill-1836"></path>
                    <path d="M268.4226,14.46 C272.4126,14.46 275.6526,11.22 275.6526,7.23 L261.1926,7.23 C261.1926,11.22 264.4266,14.46 268.4226,14.46" id="Fill-1837"></path>
                    <path d="M261.189,21.6546 C261.189,25.6506 264.429,28.8846 268.419,28.8846 C272.415,28.8846 275.649,25.6506 275.649,21.6546 L261.189,21.6546 L261.189,21.6546 Z" id="Fill-1838"></path>
                    <path d="M282.8802,14.4252 C278.8842,14.4252 275.6502,17.6592 275.6502,21.6552 L290.1102,21.6552 C290.1102,17.6592 286.8762,14.4252 282.8802,14.4252" id="Fill-1839"></path>
                    <path d="M225.0396,86.7588 C221.0496,86.7588 217.8096,89.9928 217.8096,93.9888 L232.2696,93.9888 C232.2696,89.9928 229.0356,86.7588 225.0396,86.7588" id="Fill-1840"></path>
                    <path d="M210.5832,101.2194 C214.5732,101.2194 217.8132,97.9794 217.8132,93.9894 L203.3472,93.9894 C203.3472,97.9794 206.5872,101.2194 210.5832,101.2194" id="Fill-1841"></path>
                    <path d="M203.3496,108.414 C203.3496,112.41 206.5896,115.644 210.5796,115.644 C214.5696,115.644 217.8096,112.41 217.8096,108.414 L203.3496,108.414 Z" id="Fill-1842"></path>
                    <path d="M225.0396,101.184 C221.0436,101.184 217.8096,104.418 217.8096,108.414 L232.2696,108.414 C232.2696,104.418 229.0356,101.184 225.0396,101.184" id="Fill-1843"></path>
                    <path d="M253.9584,86.7588 C249.9684,86.7588 246.7284,89.9928 246.7284,93.9888 L261.1884,93.9888 C261.1884,89.9928 257.9544,86.7588 253.9584,86.7588" id="Fill-1844"></path>
                    <path d="M239.502,101.2194 C243.492,101.2194 246.732,97.9794 246.732,93.9894 L232.266,93.9894 C232.266,97.9794 235.506,101.2194 239.502,101.2194" id="Fill-1845"></path>
                    <path d="M232.2684,108.414 C232.2684,112.41 235.5084,115.644 239.4984,115.644 C243.4884,115.644 246.7284,112.41 246.7284,108.414 L232.2684,108.414 Z" id="Fill-1846"></path>
                    <path d="M253.9584,101.184 C249.9624,101.184 246.7284,104.418 246.7284,108.414 L261.1884,108.414 C261.1884,104.418 257.9544,101.184 253.9584,101.184" id="Fill-1847"></path>
                    <path d="M51.5214,173.4852 C47.5254,173.4852 44.2914,176.7192 44.2914,180.7152 L58.7514,180.7152 C58.7514,176.7192 55.5114,173.4852 51.5214,173.4852" id="Fill-1848"></path>
                    <path d="M37.0632,187.9446 C41.0532,187.9446 44.2932,184.7046 44.2932,180.7146 L29.8332,180.7146 C29.8332,184.7046 33.0672,187.9446 37.0632,187.9446" id="Fill-1849"></path>
                    <path d="M29.8302,195.1386 C29.8302,199.1346 33.0702,202.3686 37.0602,202.3686 C41.0562,202.3686 44.2902,199.1346 44.2902,195.1386 L29.8302,195.1386 L29.8302,195.1386 Z" id="Fill-1850"></path>
                    <path d="M51.5214,187.908 C47.5254,187.908 44.2914,191.148 44.2914,195.138 L58.7514,195.138 C58.7514,191.148 55.5114,187.908 51.5214,187.908" id="Fill-1851"></path>
                    <path d="M80.4402,173.4852 C76.4442,173.4852 73.2102,176.7192 73.2102,180.7152 L87.6702,180.7152 C87.6702,176.7192 84.4302,173.4852 80.4402,173.4852" id="Fill-1852"></path>
                    <path d="M65.9826,187.9446 C69.9726,187.9446 73.2126,184.7046 73.2126,180.7146 L58.7526,180.7146 C58.7526,184.7046 61.9866,187.9446 65.9826,187.9446" id="Fill-1853"></path>
                    <path d="M58.749,195.1386 C58.749,199.1346 61.989,202.3686 65.979,202.3686 C69.975,202.3686 73.209,199.1346 73.209,195.1386 L58.749,195.1386 L58.749,195.1386 Z" id="Fill-1854"></path>
                    <path d="M80.4402,187.908 C76.4442,187.908 73.2102,191.148 73.2102,195.138 L87.6702,195.138 C87.6702,191.148 84.4302,187.908 80.4402,187.908" id="Fill-1855"></path>
                    <path d="M138.2796,173.4852 C134.2836,173.4852 131.0496,176.7192 131.0496,180.7152 L145.5096,180.7152 C145.5096,176.7192 142.2756,173.4852 138.2796,173.4852" id="Fill-1856"></path>
                    <path d="M123.822,187.9446 C127.812,187.9446 131.052,184.7046 131.052,180.7146 L116.592,180.7146 C116.592,184.7046 119.826,187.9446 123.822,187.9446" id="Fill-1857"></path>
                    <path d="M116.5896,195.1386 C116.5896,199.1346 119.8296,202.3686 123.8196,202.3686 C127.8096,202.3686 131.0496,199.1346 131.0496,195.1386 L116.5896,195.1386 Z" id="Fill-1858"></path>
                    <path d="M138.2796,187.908 C134.2836,187.908 131.0496,191.148 131.0496,195.138 L145.5096,195.138 C145.5096,191.148 142.2756,187.908 138.2796,187.908" id="Fill-1859"></path>
                    <path d="M167.2002,173.4852 C163.2042,173.4852 159.9702,176.7192 159.9702,180.7152 L174.4302,180.7152 C174.4302,176.7192 171.1962,173.4852 167.2002,173.4852" id="Fill-1860"></path>
                    <path d="M152.742,187.9446 C156.732,187.9446 159.972,184.7046 159.972,180.7146 L145.512,180.7146 C145.512,184.7046 148.746,187.9446 152.742,187.9446" id="Fill-1861"></path>
                    <path d="M145.5102,195.1386 C145.5102,199.1346 148.7442,202.3686 152.7402,202.3686 C156.7302,202.3686 159.9702,199.1346 159.9702,195.1386 L145.5102,195.1386 Z" id="Fill-1862"></path>
                    <path d="M167.2002,187.908 C163.2042,187.908 159.9702,191.148 159.9702,195.138 L174.4302,195.138 C174.4302,191.148 171.1962,187.908 167.2002,187.908" id="Fill-1863"></path>
                    <path d="M51.5214,260.2806 C47.5254,260.2806 44.2914,263.5146 44.2914,267.5106 L58.7514,267.5106 C58.7514,263.5146 55.5114,260.2806 51.5214,260.2806" id="Fill-1864"></path>
                    <path d="M37.0632,274.7406 C41.0532,274.7406 44.2932,271.5006 44.2932,267.5106 L29.8332,267.5106 C29.8332,271.5006 33.0672,274.7406 37.0632,274.7406" id="Fill-1865"></path>
                    <path d="M29.8302,281.934 C29.8302,285.924 33.0702,289.164 37.0602,289.164 C41.0562,289.164 44.2902,285.924 44.2902,281.934 L29.8302,281.934 L29.8302,281.934 Z" id="Fill-1866"></path>
                    <path d="M51.5214,274.704 C47.5254,274.704 44.2914,277.944 44.2914,281.934 L58.7514,281.934 C58.7514,277.944 55.5114,274.704 51.5214,274.704" id="Fill-1867"></path>
                    <path d="M80.4402,260.2806 C76.4442,260.2806 73.2102,263.5146 73.2102,267.5106 L87.6702,267.5106 C87.6702,263.5146 84.4302,260.2806 80.4402,260.2806" id="Fill-1868"></path>
                    <path d="M65.9826,274.7406 C69.9726,274.7406 73.2126,271.5006 73.2126,267.5106 L58.7526,267.5106 C58.7526,271.5006 61.9866,274.7406 65.9826,274.7406" id="Fill-1869"></path>
                    <path d="M58.749,281.934 C58.749,285.924 61.989,289.164 65.979,289.164 C69.975,289.164 73.209,285.924 73.209,281.934 L58.749,281.934 L58.749,281.934 Z" id="Fill-1870"></path>
                    <path d="M80.4402,274.704 C76.4442,274.704 73.2102,277.944 73.2102,281.934 L87.6702,281.934 C87.6702,277.944 84.4302,274.704 80.4402,274.704" id="Fill-1871"></path>
                    <path d="M138.2796,260.2806 C134.2836,260.2806 131.0496,263.5146 131.0496,267.5106 L145.5096,267.5106 C145.5096,263.5146 142.2756,260.2806 138.2796,260.2806" id="Fill-1872"></path>
                    <path d="M123.822,274.7406 C127.812,274.7406 131.052,271.5006 131.052,267.5106 L116.592,267.5106 C116.592,271.5006 119.826,274.7406 123.822,274.7406" id="Fill-1873"></path>
                    <path d="M116.5896,281.934 C116.5896,285.924 119.8296,289.164 123.8196,289.164 C127.8096,289.164 131.0496,285.924 131.0496,281.934 L116.5896,281.934 Z" id="Fill-1874"></path>
                    <path d="M138.2796,274.704 C134.2836,274.704 131.0496,277.944 131.0496,281.934 L145.5096,281.934 C145.5096,277.944 142.2756,274.704 138.2796,274.704" id="Fill-1875"></path>
                    <path d="M167.2002,260.2806 C163.2042,260.2806 159.9702,263.5146 159.9702,267.5106 L174.4302,267.5106 C174.4302,263.5146 171.1962,260.2806 167.2002,260.2806" id="Fill-1876"></path>
                    <path d="M152.742,274.7406 C156.732,274.7406 159.972,271.5006 159.972,267.5106 L145.512,267.5106 C145.512,271.5006 148.746,274.7406 152.742,274.7406" id="Fill-1877"></path>
                    <path d="M145.5102,281.934 C145.5102,285.924 148.7442,289.164 152.7402,289.164 C156.7302,289.164 159.9702,285.924 159.9702,281.934 L145.5102,281.934 Z" id="Fill-1878"></path>
                    <path d="M167.2002,274.704 C163.2042,274.704 159.9702,277.944 159.9702,281.934 L174.4302,281.934 C174.4302,277.944 171.1962,274.704 167.2002,274.704" id="Fill-1879"></path>
                    <path d="M225.0396,173.4852 C221.0436,173.4852 217.8096,176.7192 217.8096,180.7152 L232.2696,180.7152 C232.2696,176.7192 229.0296,173.4852 225.0396,173.4852" id="Fill-1880"></path>
                    <path d="M210.5814,187.9446 C214.5714,187.9446 217.8114,184.7046 217.8114,180.7146 L203.3514,180.7146 C203.3514,184.7046 206.5854,187.9446 210.5814,187.9446" id="Fill-1881"></path>
                    <path d="M203.3496,195.1386 C203.3496,199.1346 206.5836,202.3686 210.5796,202.3686 C214.5696,202.3686 217.8096,199.1346 217.8096,195.1386 L203.3496,195.1386 Z" id="Fill-1882"></path>
                    <path d="M225.0396,187.908 C221.0436,187.908 217.8096,191.148 217.8096,195.138 L232.2696,195.138 C232.2696,191.148 229.0296,187.908 225.0396,187.908" id="Fill-1883"></path>
                    <path d="M253.9584,173.4852 C249.9624,173.4852 246.7284,176.7192 246.7284,180.7152 L261.1884,180.7152 C261.1884,176.7192 257.9484,173.4852 253.9584,173.4852" id="Fill-1884"></path>
                    <path d="M239.5002,187.9446 C243.4902,187.9446 246.7302,184.7046 246.7302,180.7146 L232.2702,180.7146 C232.2702,184.7046 235.5042,187.9446 239.5002,187.9446" id="Fill-1885"></path>
                    <path d="M232.2684,195.1386 C232.2684,199.1346 235.5084,202.3686 239.4984,202.3686 C243.4884,202.3686 246.7284,199.1346 246.7284,195.1386 L232.2684,195.1386 Z" id="Fill-1886"></path>
                    <path d="M253.9584,187.908 C249.9624,187.908 246.7284,191.148 246.7284,195.138 L261.1884,195.138 C261.1884,191.148 257.9484,187.908 253.9584,187.908" id="Fill-1887"></path>
                    <path d="M225.0396,260.2806 C221.0436,260.2806 217.8096,263.5146 217.8096,267.5106 L232.2696,267.5106 C232.2696,263.5146 229.0296,260.2806 225.0396,260.2806" id="Fill-1888"></path>
                    <path d="M210.5814,274.7406 C214.5714,274.7406 217.8114,271.5006 217.8114,267.5106 L203.3514,267.5106 C203.3514,271.5006 206.5854,274.7406 210.5814,274.7406" id="Fill-1889"></path>
                    <path d="M203.3496,281.934 C203.3496,285.924 206.5836,289.164 210.5796,289.164 C214.5696,289.164 217.8096,285.924 217.8096,281.934 L203.3496,281.934 Z" id="Fill-1890"></path>
                    <path d="M225.0396,274.704 C221.0436,274.704 217.8096,277.944 217.8096,281.934 L232.2696,281.934 C232.2696,277.944 229.0296,274.704 225.0396,274.704" id="Fill-1891"></path>
                    <path d="M253.9584,260.2806 C249.9624,260.2806 246.7284,263.5146 246.7284,267.5106 L261.1884,267.5106 C261.1884,263.5146 257.9484,260.2806 253.9584,260.2806" id="Fill-1892"></path>
                    <path d="M239.5002,274.7406 C243.4902,274.7406 246.7302,271.5006 246.7302,267.5106 L232.2702,267.5106 C232.2702,271.5006 235.5042,274.7406 239.5002,274.7406" id="Fill-1893"></path>
                    <path d="M232.2684,281.934 C232.2684,285.924 235.5084,289.164 239.4984,289.164 C243.4884,289.164 246.7284,285.924 246.7284,281.934 L232.2684,281.934 Z" id="Fill-1894"></path>
                    <path d="M253.9584,274.704 C249.9624,274.704 246.7284,277.944 246.7284,281.934 L261.1884,281.934 C261.1884,277.944 257.9484,274.704 253.9584,274.704" id="Fill-1895"></path>
                    <path d="M51.5214,86.7588 C47.5254,86.7588 44.2914,89.9928 44.2914,93.9888 L58.7514,93.9888 C58.7514,89.9928 55.5114,86.7588 51.5214,86.7588" id="Fill-1896"></path>
                    <path d="M37.0632,101.2194 C41.0532,101.2194 44.2932,97.9794 44.2932,93.9894 L29.8332,93.9894 C29.8332,97.9794 33.0672,101.2194 37.0632,101.2194" id="Fill-1897"></path>
                    <path d="M29.8302,108.414 C29.8302,112.41 33.0702,115.644 37.0602,115.644 C41.0562,115.644 44.2902,112.41 44.2902,108.414 L29.8302,108.414 L29.8302,108.414 Z" id="Fill-1898"></path>
                    <path d="M51.5214,101.184 C47.5254,101.184 44.2914,104.418 44.2914,108.414 L58.7514,108.414 C58.7514,104.418 55.5114,101.184 51.5214,101.184" id="Fill-1899"></path>
                </g>
            </g>
        </g>
    </g>
</svg>