<?xml version="1.0" encoding="UTF-8" standalone="no"?>
<svg width="126px" height="199px" viewBox="0 0 126 199" version="1.1" xmlns="http://www.w3.org/2000/svg" xmlns:xlink="http://www.w3.org/1999/xlink">
    <!-- Generator: Sketch 39.1 (31720) - http://www.bohemiancoding.com/sketch -->
    <title>railway</title>
    <desc>Created with Sketch.</desc>
    <defs></defs>
    <g id="Symbols" stroke="none" stroke-width="1" fill="none" fill-rule="evenodd">
        <g id="box-areas" transform="translate(-973.000000, -160.000000)">
            <g id="railway" transform="translate(968.000000, 160.000000)">
                <path d="M110.767,121.4962 C109.523,121.4962 108.517,122.5042 108.517,123.7462 L113.017,123.7462 C113.017,122.5042 112.009,121.4962 110.767,121.4962 L110.767,121.4962 Z M104.015,123.7462 C104.015,124.9902 105.024,125.9972 106.267,125.9972 C107.509,125.9972 108.517,124.9902 108.517,123.7462 L104.015,123.7462 Z M106.266,121.5072 C107.508,121.5072 108.516,120.4992 108.516,119.2572 L104.016,119.2572 C104.016,120.4992 105.024,121.5072 106.266,121.5072 L106.266,121.5072 Z M110.767,117.0072 C109.523,117.0072 108.517,118.0132 108.517,119.2572 L113.017,119.2572 C113.017,118.0132 112.009,117.0072 110.767,117.0072 L110.767,117.0072 Z M119.768,130.4972 C118.525,130.4972 117.518,131.5062 117.518,132.7482 L122.018,132.7482 C122.018,131.5062 121.012,130.4972 119.768,130.4972 L119.768,130.4972 Z M113.017,132.7482 C113.017,133.9912 114.024,134.9982 115.268,134.9982 C116.511,134.9982 117.518,133.9912 117.518,132.7482 L113.017,132.7482 Z M115.268,130.5092 C116.511,130.5092 117.518,129.5002 117.518,128.2582 L113.017,128.2582 C113.017,129.5002 114.026,130.5092 115.268,130.5092 L115.268,130.5092 Z M119.768,126.0082 C118.525,126.0082 117.518,127.0152 117.518,128.2582 L122.018,128.2582 C122.018,127.0152 121.012,126.0082 119.768,126.0082 L119.768,126.0082 Z M128.77,139.4992 C127.526,139.4992 126.52,140.5062 126.52,141.7492 L131.02,141.7492 C131.02,140.5062 130.012,139.4992 128.77,139.4992 L128.77,139.4992 Z M122.019,141.7502 C122.019,142.9932 123.025,144.0002 124.269,144.0002 C125.512,144.0002 126.519,142.9932 126.519,141.7502 L122.019,141.7502 Z M124.269,139.5102 C125.513,139.5102 126.519,138.5022 126.519,137.2602 L122.019,137.2602 C122.019,138.5022 123.027,139.5102 124.269,139.5102 L124.269,139.5102 Z M128.77,135.0092 C127.526,135.0092 126.52,136.0162 126.52,137.2602 L131.02,137.2602 C131.02,136.0162 130.012,135.0092 128.77,135.0092 L128.77,135.0092 Z M110.767,85.5242 C109.523,85.5242 108.517,86.5302 108.517,87.7742 L113.017,87.7742 C113.017,86.5302 112.009,85.5242 110.767,85.5242 L110.767,85.5242 Z M104.015,87.7742 C104.015,89.0182 105.024,90.0252 106.267,90.0252 C107.509,90.0252 108.517,89.0182 108.517,87.7742 L104.015,87.7742 Z M106.266,85.5352 C107.508,85.5352 108.516,84.5262 108.516,83.2852 L104.016,83.2852 C104.016,84.5262 105.024,85.5352 106.266,85.5352 L106.266,85.5352 Z M110.767,81.0342 C109.523,81.0342 108.517,82.0412 108.517,83.2842 L113.017,83.2842 C113.017,82.0412 112.009,81.0342 110.767,81.0342 L110.767,81.0342 Z M110.767,94.5142 C109.523,94.5142 108.517,95.5212 108.517,96.7652 L113.017,96.7652 C113.017,95.5212 112.009,94.5142 110.767,94.5142 L110.767,94.5142 Z M104.015,96.7652 C104.015,98.0072 105.024,99.0152 106.267,99.0152 C107.509,99.0152 108.517,98.0072 108.517,96.7652 L104.015,96.7652 Z M106.266,94.5252 C107.508,94.5252 108.516,93.5162 108.516,92.2752 L104.016,92.2752 C104.016,93.5162 105.024,94.5252 106.266,94.5252 L106.266,94.5252 Z M110.767,90.0242 C109.523,90.0242 108.517,91.0332 108.517,92.2742 L113.017,92.2742 C113.017,91.0332 112.009,90.0242 110.767,90.0242 L110.767,90.0242 Z M110.767,103.5162 C109.523,103.5162 108.517,104.5222 108.517,105.7662 L113.017,105.7662 C113.017,104.5222 112.009,103.5162 110.767,103.5162 L110.767,103.5162 Z M104.016,105.7662 C104.016,107.0082 105.024,108.0162 106.266,108.0162 C107.508,108.0162 108.516,107.0082 108.516,105.7662 L104.016,105.7662 Z M106.267,103.5262 C107.511,103.5262 108.517,102.5182 108.517,101.2762 L104.015,101.2762 C104.015,102.5182 105.024,103.5262 106.267,103.5262 L106.267,103.5262 Z M110.767,99.0262 C109.525,99.0262 108.517,100.0342 108.517,101.2762 L113.017,101.2762 C113.017,100.0342 112.009,99.0262 110.767,99.0262 L110.767,99.0262 Z M101.766,103.5162 C100.522,103.5162 99.516,104.5222 99.516,105.7662 L104.016,105.7662 C104.016,104.5222 103.008,103.5162 101.766,103.5162 L101.766,103.5162 Z M95.013,105.7662 C95.013,107.0082 96.022,108.0162 97.265,108.0162 C98.507,108.0162 99.516,107.0082 99.516,105.7662 L95.015,105.7662 L95.013,105.7662 Z M97.265,103.5262 C98.507,103.5262 99.515,102.5182 99.515,101.2762 L95.015,101.2762 C95.015,102.5182 96.021,103.5262 97.265,103.5262 L97.265,103.5262 Z M101.766,99.0262 C100.522,99.0262 99.516,100.0342 99.516,101.2762 L104.016,101.2762 C104.016,100.0342 103.008,99.0262 101.766,99.0262 L101.766,99.0262 Z M29.754,130.4862 C28.511,130.4862 27.504,131.4932 27.504,132.7372 L32.005,132.7372 C32.005,131.4932 30.996,130.4862 29.754,130.4862 L29.754,130.4862 Z M23.003,132.7372 C23.003,133.9802 24.012,134.9872 25.254,134.9872 C26.495,134.9872 27.504,133.9802 27.504,132.7372 L23.003,132.7372 Z M25.255,130.4972 C26.498,130.4972 27.505,129.4892 27.505,128.2472 L23.003,128.2472 C23.003,129.4892 24.011,130.4972 25.255,130.4972 L25.255,130.4972 Z M29.754,125.9972 C28.513,125.9972 27.504,127.0032 27.504,128.2472 L32.005,128.2472 C32.005,127.0032 30.996,125.9972 29.754,125.9972 L29.754,125.9972 Z M110.767,130.4862 C109.523,130.4862 108.517,131.4932 108.517,132.7372 L113.017,132.7372 C113.017,131.4932 112.009,130.4862 110.767,130.4862 L110.767,130.4862 Z M104.015,132.7372 C104.015,133.9802 105.024,134.9872 106.267,134.9872 C107.509,134.9872 108.517,133.9802 108.517,132.7372 L104.015,132.7372 Z M106.266,130.4972 C107.508,130.4972 108.516,129.4892 108.516,128.2472 L104.016,128.2472 C104.016,129.4892 105.024,130.4972 106.266,130.4972 L106.266,130.4972 Z M110.767,125.9972 C109.523,125.9972 108.517,127.0032 108.517,128.2472 L113.017,128.2472 C113.017,127.0032 112.009,125.9972 110.767,125.9972 L110.767,125.9972 Z M101.766,130.4862 C100.522,130.4862 99.516,131.4932 99.516,132.7372 L104.016,132.7372 C104.016,131.4932 103.008,130.4862 101.766,130.4862 L101.766,130.4862 Z M95.013,132.7372 C95.013,133.9802 96.022,134.9872 97.265,134.9872 C98.507,134.9872 99.516,133.9802 99.516,132.7372 L95.015,132.7372 L95.013,132.7372 Z M97.265,130.4972 C98.507,130.4972 99.515,129.4892 99.515,128.2472 L95.015,128.2472 C95.015,129.4892 96.021,130.4972 97.265,130.4972 L97.265,130.4972 Z M101.766,125.9972 C100.522,125.9972 99.516,127.0032 99.516,128.2472 L104.016,128.2472 C104.016,127.0032 103.008,125.9972 101.766,125.9972 L101.766,125.9972 Z M92.764,130.4862 C91.521,130.4862 90.514,131.4932 90.514,132.7372 L95.015,132.7372 C95.015,131.4932 94.006,130.4862 92.764,130.4862 L92.764,130.4862 Z M86.012,132.7372 C86.012,133.9802 87.02,134.9872 88.264,134.9872 C89.506,134.9872 90.514,133.9802 90.514,132.7372 L86.012,132.7372 Z M88.264,130.4972 C89.506,130.4972 90.514,129.4892 90.514,128.2472 L86.014,128.2472 C86.014,129.4892 87.02,130.4972 88.264,130.4972 L88.264,130.4972 Z M92.764,125.9972 C91.521,125.9972 90.514,127.0032 90.514,128.2472 L95.015,128.2472 C95.015,127.0032 94.006,125.9972 92.764,125.9972 L92.764,125.9972 Z M83.763,130.4862 C82.519,130.4862 81.512,131.4932 81.512,132.7372 L86.013,132.7372 C86.013,131.4932 85.006,130.4862 83.763,130.4862 L83.763,130.4862 Z M77.011,132.7372 C77.011,133.9802 78.019,134.9872 79.263,134.9872 C80.505,134.9872 81.513,133.9802 81.513,132.7372 L77.011,132.7372 Z M79.262,130.4972 C80.506,130.4972 81.512,129.4892 81.512,128.2472 L77.012,128.2472 C77.012,129.4892 78.02,130.4972 79.262,130.4972 L79.262,130.4972 Z M83.763,125.9972 C82.519,125.9972 81.512,127.0032 81.512,128.2472 L86.013,128.2472 C86.013,127.0032 85.006,125.9972 83.763,125.9972 L83.763,125.9972 Z M74.761,130.4862 C73.518,130.4862 72.511,131.4932 72.511,132.7372 L77.012,132.7372 C77.012,131.4932 76.005,130.4862 74.761,130.4862 L74.761,130.4862 Z M68.01,132.7372 C68.01,133.9802 69.017,134.9872 70.261,134.9872 C71.502,134.9872 72.511,133.9802 72.511,132.7372 L68.01,132.7372 Z M70.261,130.4972 C71.502,130.4972 72.511,129.4892 72.511,128.2472 L68.01,128.2472 C68.01,129.4892 69.019,130.4972 70.261,130.4972 L70.261,130.4972 Z M74.761,125.9972 C73.518,125.9972 72.511,127.0032 72.511,128.2472 L77.012,128.2472 C77.012,127.0032 76.005,125.9972 74.761,125.9972 L74.761,125.9972 Z M65.76,130.4862 C64.516,130.4862 63.51,131.4932 63.51,132.7372 L68.01,132.7372 C68.01,131.4932 67.002,130.4862 65.76,130.4862 L65.76,130.4862 Z M59.009,132.7372 C59.009,133.9802 60.016,134.9872 61.259,134.9872 C62.501,134.9872 63.509,133.9802 63.509,132.7372 L59.009,132.7372 Z M61.259,130.4972 C62.501,130.4972 63.51,129.4892 63.51,128.2472 L59.009,128.2472 C59.009,129.4892 60.016,130.4972 61.259,130.4972 L61.259,130.4972 Z M65.76,125.9972 C64.516,125.9972 63.51,127.0032 63.51,128.2472 L68.01,128.2472 C68.01,127.0032 67.002,125.9972 65.76,125.9972 L65.76,125.9972 Z M56.759,130.4862 C55.515,130.4862 54.509,131.4932 54.509,132.7372 L59.009,132.7372 C59.009,131.4932 58.001,130.4862 56.759,130.4862 L56.759,130.4862 Z M50.008,132.7372 C50.008,133.9802 51.014,134.9872 52.258,134.9872 C53.5,134.9872 54.508,133.9802 54.508,132.7372 L50.008,132.7372 Z M52.258,130.4972 C53.5,130.4972 54.508,129.4892 54.508,128.2472 L50.008,128.2472 C50.008,129.4892 51.014,130.4972 52.258,130.4972 L52.258,130.4972 Z M56.759,125.9972 C55.515,125.9972 54.509,127.0032 54.509,128.2472 L59.009,128.2472 C59.009,127.0032 58.001,125.9972 56.759,125.9972 L56.759,125.9972 Z M47.757,130.4862 C46.513,130.4862 45.507,131.4932 45.507,132.7372 L50.007,132.7372 C50.007,131.4932 49.001,130.4862 47.757,130.4862 L47.757,130.4862 Z M41.006,132.7372 C41.006,133.9802 42.013,134.9872 43.256,134.9872 C44.5,134.9872 45.506,133.9802 45.506,132.7372 L41.006,132.7372 Z M43.256,130.4972 C44.5,130.4972 45.506,129.4892 45.506,128.2472 L41.006,128.2472 C41.006,129.4892 42.014,130.4972 43.256,130.4972 L43.256,130.4972 Z M47.757,125.9972 C46.513,125.9972 45.507,127.0032 45.507,128.2472 L50.007,128.2472 C50.007,127.0032 49.001,125.9972 47.757,125.9972 L47.757,125.9972 Z M38.756,130.4862 C37.512,130.4862 36.506,131.4932 36.506,132.7372 L41.006,132.7372 C41.006,131.4932 39.999,130.4862 38.756,130.4862 L38.756,130.4862 Z M32.005,132.7372 C32.005,133.9802 33.011,134.9872 34.255,134.9872 C35.499,134.9872 36.505,133.9802 36.505,132.7372 L32.005,132.7372 Z M34.255,130.4972 C35.499,130.4972 36.505,129.4892 36.505,128.2472 L32.005,128.2472 C32.005,129.4892 33.013,130.4972 34.255,130.4972 L34.255,130.4972 Z M38.756,125.9972 C37.512,125.9972 36.506,127.0032 36.506,128.2472 L41.006,128.2472 C41.006,127.0032 39.999,125.9972 38.756,125.9972 L38.756,125.9972 Z M101.766,112.4952 C100.522,112.4952 99.516,113.5032 99.516,114.7452 L104.016,114.7452 C104.016,113.5032 103.008,112.4952 101.766,112.4952 L101.766,112.4952 Z M95.013,114.7452 C95.013,115.9892 96.022,116.9952 97.265,116.9952 C98.507,116.9952 99.516,115.9892 99.516,114.7452 L95.015,114.7452 L95.013,114.7452 Z M97.265,112.5062 C98.507,112.5062 99.515,111.4982 99.515,110.2562 L95.015,110.2562 C95.015,111.4982 96.021,112.5062 97.265,112.5062 L97.265,112.5062 Z M101.766,108.0052 C100.522,108.0052 99.516,109.0122 99.516,110.2552 L104.016,110.2552 C104.016,109.0122 103.008,108.0052 101.766,108.0052 L101.766,108.0052 Z M92.764,103.5162 C91.521,103.5162 90.514,104.5222 90.514,105.7662 L95.015,105.7662 C95.015,104.5222 94.006,103.5162 92.764,103.5162 L92.764,103.5162 Z M86.012,105.7662 C86.012,107.0082 87.02,108.0162 88.264,108.0162 C89.506,108.0162 90.514,107.0082 90.514,105.7662 L86.012,105.7662 Z M88.264,103.5262 C89.506,103.5262 90.514,102.5182 90.514,101.2762 L86.014,101.2762 C86.014,102.5182 87.02,103.5262 88.264,103.5262 L88.264,103.5262 Z M92.764,99.0262 C91.521,99.0262 90.514,100.0342 90.514,101.2762 L95.015,101.2762 C95.015,100.0342 94.006,99.0262 92.764,99.0262 L92.764,99.0262 Z M92.764,112.4952 C91.521,112.4952 90.514,113.5032 90.514,114.7452 L95.015,114.7452 C95.015,113.5032 94.006,112.4952 92.764,112.4952 L92.764,112.4952 Z M86.012,114.7452 C86.012,115.9892 87.02,116.9952 88.264,116.9952 C89.506,116.9952 90.514,115.9892 90.514,114.7452 L86.012,114.7452 Z M88.264,112.5062 C89.506,112.5062 90.514,111.4982 90.514,110.2562 L86.014,110.2562 C86.014,111.4982 87.02,112.5062 88.264,112.5062 L88.264,112.5062 Z M92.764,108.0052 C91.521,108.0052 90.514,109.0122 90.514,110.2552 L95.015,110.2552 C95.015,109.0122 94.006,108.0052 92.764,108.0052 L92.764,108.0052 Z M83.763,103.5162 C82.519,103.5162 81.512,104.5222 81.512,105.7662 L86.013,105.7662 C86.013,104.5222 85.006,103.5162 83.763,103.5162 L83.763,103.5162 Z M77.011,105.7662 C77.011,107.0082 78.019,108.0162 79.263,108.0162 C80.505,108.0162 81.513,107.0082 81.513,105.7662 L77.011,105.7662 Z M79.262,103.5262 C80.506,103.5262 81.512,102.5182 81.512,101.2762 L77.012,101.2762 C77.012,102.5182 78.02,103.5262 79.262,103.5262 L79.262,103.5262 Z M83.763,99.0262 C82.519,99.0262 81.512,100.0342 81.512,101.2762 L86.013,101.2762 C86.013,100.0342 85.006,99.0262 83.763,99.0262 L83.763,99.0262 Z M83.763,112.4952 C82.519,112.4952 81.512,113.5032 81.512,114.7452 L86.013,114.7452 C86.013,113.5032 85.006,112.4952 83.763,112.4952 L83.763,112.4952 Z M77.011,114.7452 C77.011,115.9892 78.019,116.9952 79.263,116.9952 C80.505,116.9952 81.513,115.9892 81.513,114.7452 L77.011,114.7452 Z M79.262,112.5062 C80.506,112.5062 81.512,111.4982 81.512,110.2562 L77.012,110.2562 C77.012,111.4982 78.02,112.5062 79.262,112.5062 L79.262,112.5062 Z M83.763,108.0052 C82.519,108.0052 81.512,109.0122 81.512,110.2552 L86.013,110.2552 C86.013,109.0122 85.006,108.0052 83.763,108.0052 L83.763,108.0052 Z M74.761,103.5162 C73.518,103.5162 72.511,104.5222 72.511,105.7662 L77.012,105.7662 C77.012,104.5222 76.005,103.5162 74.761,103.5162 L74.761,103.5162 Z M68.01,105.7662 C68.01,107.0082 69.017,108.0162 70.261,108.0162 C71.502,108.0162 72.511,107.0082 72.511,105.7662 L68.01,105.7662 Z M70.261,103.5262 C71.502,103.5262 72.511,102.5182 72.511,101.2762 L68.01,101.2762 C68.01,102.5182 69.019,103.5262 70.261,103.5262 L70.261,103.5262 Z M74.761,99.0262 C73.518,99.0262 72.511,100.0342 72.511,101.2762 L77.012,101.2762 C77.012,100.0342 76.005,99.0262 74.761,99.0262 L74.761,99.0262 Z M74.761,112.4952 C73.518,112.4952 72.511,113.5032 72.511,114.7452 L77.012,114.7452 C77.012,113.5032 76.005,112.4952 74.761,112.4952 L74.761,112.4952 Z M68.01,114.7452 C68.01,115.9892 69.017,116.9952 70.261,116.9952 C71.502,116.9952 72.511,115.9892 72.511,114.7452 L68.01,114.7452 Z M70.261,112.5062 C71.502,112.5062 72.511,111.4982 72.511,110.2562 L68.01,110.2562 C68.01,111.4982 69.019,112.5062 70.261,112.5062 L70.261,112.5062 Z M74.761,108.0052 C73.518,108.0052 72.511,109.0122 72.511,110.2552 L77.012,110.2552 C77.012,109.0122 76.005,108.0052 74.761,108.0052 L74.761,108.0052 Z M65.76,103.5162 C64.516,103.5162 63.51,104.5222 63.51,105.7662 L68.01,105.7662 C68.01,104.5222 67.002,103.5162 65.76,103.5162 L65.76,103.5162 Z M59.009,105.7662 C59.009,107.0082 60.016,108.0162 61.259,108.0162 C62.501,108.0162 63.509,107.0082 63.509,105.7662 L59.009,105.7662 Z M61.259,103.5262 C62.501,103.5262 63.51,102.5182 63.51,101.2762 L59.009,101.2762 C59.009,102.5182 60.016,103.5262 61.259,103.5262 L61.259,103.5262 Z M65.76,99.0262 C64.516,99.0262 63.51,100.0342 63.51,101.2762 L68.01,101.2762 C68.01,100.0342 67.002,99.0262 65.76,99.0262 L65.76,99.0262 Z M65.76,112.4952 C64.516,112.4952 63.51,113.5032 63.51,114.7452 L68.01,114.7452 C68.01,113.5032 67.002,112.4952 65.76,112.4952 L65.76,112.4952 Z M59.009,114.7452 C59.009,115.9892 60.016,116.9952 61.259,116.9952 C62.501,116.9952 63.509,115.9892 63.509,114.7452 L59.009,114.7452 Z M61.259,112.5062 C62.501,112.5062 63.51,111.4982 63.51,110.2562 L59.009,110.2562 C59.009,111.4982 60.016,112.5062 61.259,112.5062 L61.259,112.5062 Z M65.76,108.0052 C64.516,108.0052 63.51,109.0122 63.51,110.2552 L68.01,110.2552 C68.01,109.0122 67.002,108.0052 65.76,108.0052 L65.76,108.0052 Z M56.759,103.5162 C55.515,103.5162 54.509,104.5222 54.509,105.7662 L59.009,105.7662 C59.009,104.5222 58.001,103.5162 56.759,103.5162 L56.759,103.5162 Z M50.008,105.7662 C50.008,107.0082 51.014,108.0162 52.258,108.0162 C53.5,108.0162 54.508,107.0082 54.508,105.7662 L50.008,105.7662 Z M52.258,103.5262 C53.5,103.5262 54.508,102.5182 54.508,101.2762 L50.008,101.2762 C50.008,102.5182 51.014,103.5262 52.258,103.5262 L52.258,103.5262 Z M56.759,99.0262 C55.515,99.0262 54.509,100.0342 54.509,101.2762 L59.009,101.2762 C59.009,100.0342 58.001,99.0262 56.759,99.0262 L56.759,99.0262 Z M56.759,112.4952 C55.515,112.4952 54.509,113.5032 54.509,114.7452 L59.009,114.7452 C59.009,113.5032 58.001,112.4952 56.759,112.4952 L56.759,112.4952 Z M50.008,114.7452 C50.008,115.9892 51.014,116.9952 52.258,116.9952 C53.5,116.9952 54.508,115.9892 54.508,114.7452 L50.008,114.7452 Z M52.258,112.5062 C53.5,112.5062 54.508,111.4982 54.508,110.2562 L50.008,110.2562 C50.008,111.4982 51.014,112.5062 52.258,112.5062 L52.258,112.5062 Z M56.759,108.0052 C55.515,108.0052 54.509,109.0122 54.509,110.2552 L59.009,110.2552 C59.009,109.0122 58.001,108.0052 56.759,108.0052 L56.759,108.0052 Z M47.757,103.5162 C46.513,103.5162 45.507,104.5222 45.507,105.7662 L50.007,105.7662 C50.007,104.5222 49.001,103.5162 47.757,103.5162 L47.757,103.5162 Z M41.006,105.7662 C41.006,107.0082 42.013,108.0162 43.256,108.0162 C44.5,108.0162 45.506,107.0082 45.506,105.7662 L41.006,105.7662 Z M43.256,103.5262 C44.5,103.5262 45.506,102.5182 45.506,101.2762 L41.006,101.2762 C41.006,102.5182 42.014,103.5262 43.256,103.5262 L43.256,103.5262 Z M47.757,99.0262 C46.513,99.0262 45.507,100.0342 45.507,101.2762 L50.007,101.2762 C50.007,100.0342 49.001,99.0262 47.757,99.0262 L47.757,99.0262 Z M47.757,112.4952 C46.513,112.4952 45.507,113.5032 45.507,114.7452 L50.007,114.7452 C50.007,113.5032 49.001,112.4952 47.757,112.4952 L47.757,112.4952 Z M41.006,114.7452 C41.006,115.9892 42.013,116.9952 43.256,116.9952 C44.5,116.9952 45.506,115.9892 45.506,114.7452 L41.006,114.7452 Z M43.256,112.5062 C44.5,112.5062 45.506,111.4982 45.506,110.2562 L41.006,110.2562 C41.006,111.4982 42.014,112.5062 43.256,112.5062 L43.256,112.5062 Z M47.757,108.0052 C46.513,108.0052 45.507,109.0122 45.507,110.2552 L50.007,110.2552 C50.007,109.0122 49.001,108.0052 47.757,108.0052 L47.757,108.0052 Z M110.768,13.4902 C109.524,13.4902 108.518,14.4992 108.518,15.7412 L113.018,15.7412 C113.018,14.4992 112.012,13.4902 110.768,13.4902 L110.768,13.4902 Z M104.017,15.7412 C104.017,16.9852 105.023,17.9912 106.267,17.9912 C107.511,17.9912 108.517,16.9852 108.517,15.7412 L104.017,15.7412 Z M106.267,13.5022 C107.511,13.5022 108.517,12.4932 108.517,11.2522 L104.017,11.2522 C104.017,12.4932 105.025,13.5022 106.267,13.5022 L106.267,13.5022 Z M110.768,9.0012 C109.524,9.0012 108.518,10.0082 108.518,11.2522 L113.018,11.2522 C113.018,10.0082 112.012,9.0012 110.768,9.0012 L110.768,9.0012 Z M29.754,13.4902 C28.511,13.4902 27.504,14.4992 27.504,15.7412 L32.005,15.7412 C32.005,14.4992 30.996,13.4902 29.754,13.4902 L29.754,13.4902 Z M23.003,15.7412 C23.003,16.9852 24.01,17.9912 25.254,17.9912 C26.495,17.9912 27.504,16.9852 27.504,15.7412 L23.003,15.7412 Z M25.254,13.5022 C26.496,13.5022 27.504,12.4932 27.504,11.2522 L23.004,11.2522 C23.004,12.4932 24.012,13.5022 25.254,13.5022 L25.254,13.5022 Z M29.754,9.0012 C28.511,9.0012 27.504,10.0082 27.504,11.2522 L32.005,11.2522 C32.005,10.0082 30.996,9.0012 29.754,9.0012 L29.754,9.0012 Z M92.764,4.4892 C91.521,4.4892 90.514,5.4982 90.514,6.7392 L95.015,6.7392 C95.015,5.4982 94.006,4.4892 92.764,4.4892 L92.764,4.4892 Z M86.013,6.7402 C86.013,7.9832 87.02,8.9902 88.263,8.9902 C89.507,8.9902 90.513,7.9832 90.513,6.7402 L86.013,6.7402 Z M88.264,4.5012 C89.506,4.5012 90.514,3.4922 90.514,2.2502 L86.014,2.2502 C86.014,3.4922 87.02,4.5012 88.264,4.5012 L88.264,4.5012 Z M92.764,0.0002 C91.521,0.0002 90.514,1.0062 90.514,2.2502 L95.015,2.2502 C95.015,1.0062 94.006,0.0002 92.764,0.0002 L92.764,0.0002 Z M101.766,4.4892 C100.522,4.4892 99.516,5.4982 99.516,6.7392 L104.016,6.7392 C104.016,5.4982 103.008,4.4892 101.766,4.4892 L101.766,4.4892 Z M95.013,6.7402 C95.013,7.9832 96.022,8.9902 97.265,8.9902 C98.507,8.9902 99.516,7.9832 99.516,6.7402 L95.015,6.7402 L95.013,6.7402 Z M97.265,4.5012 C98.507,4.5012 99.515,3.4922 99.515,2.2502 L95.015,2.2502 C95.015,3.4922 96.021,4.5012 97.265,4.5012 L97.265,4.5012 Z M101.766,0.0002 C100.522,0.0002 99.516,1.0062 99.516,2.2502 L104.016,2.2502 C104.016,1.0062 103.008,0.0002 101.766,0.0002 L101.766,0.0002 Z M74.761,4.4892 C73.518,4.4892 72.511,5.4982 72.511,6.7392 L77.012,6.7392 C77.012,5.4982 76.005,4.4892 74.761,4.4892 L74.761,4.4892 Z M68.01,6.7402 C68.01,7.9832 69.017,8.9902 70.261,8.9902 C71.502,8.9902 72.511,7.9832 72.511,6.7402 L68.01,6.7402 Z M70.261,4.5012 C71.502,4.5012 72.511,3.4922 72.511,2.2502 L68.01,2.2502 C68.01,3.4922 69.019,4.5012 70.261,4.5012 L70.261,4.5012 Z M74.761,0.0002 C73.518,0.0002 72.511,1.0062 72.511,2.2502 L77.012,2.2502 C77.012,1.0062 76.005,0.0002 74.761,0.0002 L74.761,0.0002 Z M83.762,4.4892 C82.52,4.4892 81.511,5.4982 81.511,6.7392 L86.012,6.7392 C86.012,5.4982 85.005,4.4892 83.762,4.4892 L83.762,4.4892 Z M77.011,6.7402 C77.011,7.9832 78.019,8.9902 79.261,8.9902 C80.503,8.9902 81.511,7.9832 81.511,6.7402 L77.011,6.7402 Z M79.262,4.5012 C80.506,4.5012 81.512,3.4922 81.512,2.2502 L77.01,2.2502 C77.01,3.4922 78.018,4.5012 79.262,4.5012 L79.262,4.5012 Z M83.762,0.0002 C82.52,0.0002 81.511,1.0062 81.511,2.2502 L86.012,2.2502 C86.012,1.0062 85.005,0.0002 83.762,0.0002 L83.762,0.0002 Z M56.759,4.4892 C55.515,4.4892 54.509,5.4982 54.509,6.7392 L59.009,6.7392 C59.009,5.4982 58.001,4.4892 56.759,4.4892 L56.759,4.4892 Z M50.008,6.7402 C50.008,7.9832 51.016,8.9902 52.258,8.9902 C53.5,8.9902 54.508,7.9832 54.508,6.7402 L50.008,6.7402 Z M52.259,4.5012 C53.501,4.5012 54.509,3.4922 54.509,2.2502 L50.007,2.2502 C50.007,3.4922 51.015,4.5012 52.259,4.5012 L52.259,4.5012 Z M56.759,0.0002 C55.515,0.0002 54.509,1.0062 54.509,2.2502 L59.009,2.2502 C59.009,1.0062 58.001,0.0002 56.759,0.0002 L56.759,0.0002 Z M65.76,4.4892 C64.516,4.4892 63.51,5.4982 63.51,6.7392 L68.01,6.7392 C68.01,5.4982 67.002,4.4892 65.76,4.4892 L65.76,4.4892 Z M59.009,6.7402 C59.009,7.9832 60.016,8.9902 61.259,8.9902 C62.501,8.9902 63.509,7.9832 63.509,6.7402 L59.009,6.7402 Z M61.259,4.5012 C62.501,4.5012 63.51,3.4922 63.51,2.2502 L59.009,2.2502 C59.009,3.4922 60.016,4.5012 61.259,4.5012 L61.259,4.5012 Z M65.76,0.0002 C64.516,0.0002 63.51,1.0062 63.51,2.2502 L68.01,2.2502 C68.01,1.0062 67.002,0.0002 65.76,0.0002 L65.76,0.0002 Z M38.756,4.4892 C37.512,4.4892 36.506,5.4982 36.506,6.7392 L41.006,6.7392 C41.006,5.4982 39.999,4.4892 38.756,4.4892 L38.756,4.4892 Z M32.005,6.7402 C32.005,7.9832 33.011,8.9902 34.255,8.9902 C35.499,8.9902 36.505,7.9832 36.505,6.7402 L32.005,6.7402 Z M34.255,4.5012 C35.499,4.5012 36.505,3.4922 36.505,2.2502 L32.005,2.2502 C32.005,3.4922 33.013,4.5012 34.255,4.5012 L34.255,4.5012 Z M38.756,0.0002 C37.512,0.0002 36.506,1.0062 36.506,2.2502 L41.006,2.2502 C41.006,1.0062 39.999,0.0002 38.756,0.0002 L38.756,0.0002 Z M47.757,4.4892 C46.513,4.4892 45.507,5.4982 45.507,6.7392 L50.007,6.7392 C50.007,5.4982 49.001,4.4892 47.757,4.4892 L47.757,4.4892 Z M41.005,6.7402 C41.005,7.9832 42.013,8.9902 43.257,8.9902 C44.499,8.9902 45.507,7.9832 45.507,6.7402 L41.005,6.7402 Z M43.256,4.5012 C44.5,4.5012 45.506,3.4922 45.506,2.2502 L41.006,2.2502 C41.006,3.4922 42.014,4.5012 43.256,4.5012 L43.256,4.5012 Z M47.757,0.0002 C46.513,0.0002 45.507,1.0062 45.507,2.2502 L50.007,2.2502 C50.007,1.0062 49.001,0.0002 47.757,0.0002 L47.757,0.0002 Z M110.768,22.5032 C109.524,22.5032 108.518,23.5102 108.518,24.7532 L113.018,24.7532 C113.018,23.5102 112.012,22.5032 110.768,22.5032 L110.768,22.5032 Z M104.017,24.7542 C104.017,25.9952 105.023,27.0042 106.267,27.0042 C107.511,27.0042 108.517,25.9952 108.517,24.7542 L104.017,24.7542 Z M106.267,22.5142 C107.511,22.5142 108.517,21.5062 108.517,20.2642 L104.017,20.2642 C104.017,21.5062 105.025,22.5142 106.267,22.5142 L106.267,22.5142 Z M110.768,18.0132 C109.524,18.0132 108.518,19.0202 108.518,20.2642 L113.018,20.2642 C113.018,19.0202 112.012,18.0132 110.768,18.0132 L110.768,18.0132 Z M101.766,13.5022 C100.522,13.5022 99.516,14.5082 99.516,15.7522 L104.016,15.7522 C104.016,14.5082 103.008,13.5022 101.766,13.5022 L101.766,13.5022 Z M95.013,15.7522 C95.013,16.9942 96.022,18.0032 97.265,18.0032 C98.507,18.0032 99.516,16.9942 99.516,15.7522 L95.015,15.7522 L95.013,15.7522 Z M97.265,13.5132 C98.507,13.5132 99.515,12.5042 99.515,11.2622 L95.015,11.2622 C95.015,12.5042 96.021,13.5132 97.265,13.5132 L97.265,13.5132 Z M101.766,9.0122 C100.522,9.0122 99.516,10.0192 99.516,11.2622 L104.016,11.2622 C104.016,10.0192 103.008,9.0122 101.766,9.0122 L101.766,9.0122 Z M38.756,13.5022 C37.512,13.5022 36.506,14.5082 36.506,15.7522 L41.006,15.7522 C41.006,14.5082 39.999,13.5022 38.756,13.5022 L38.756,13.5022 Z M32.005,15.7522 C32.005,16.9942 33.011,18.0032 34.255,18.0032 C35.499,18.0032 36.505,16.9942 36.505,15.7522 L32.005,15.7522 Z M34.255,13.5132 C35.499,13.5132 36.505,12.5042 36.505,11.2622 L32.005,11.2622 C32.005,12.5042 33.013,13.5132 34.255,13.5132 L34.255,13.5132 Z M38.756,9.0122 C37.512,9.0122 36.506,10.0192 36.506,11.2622 L41.006,11.2622 C41.006,10.0192 39.999,9.0122 38.756,9.0122 L38.756,9.0122 Z M29.754,22.5032 C28.511,22.5032 27.504,23.5102 27.504,24.7532 L32.005,24.7532 C32.005,23.5102 30.996,22.5032 29.754,22.5032 L29.754,22.5032 Z M23.003,24.7542 C23.003,25.9952 24.01,27.0042 25.254,27.0042 C26.495,27.0042 27.504,25.9952 27.504,24.7542 L23.003,24.7542 Z M25.254,22.5142 C26.496,22.5142 27.504,21.5062 27.504,20.2642 L23.004,20.2642 C23.004,21.5062 24.012,22.5142 25.254,22.5142 L25.254,22.5142 Z M29.754,18.0132 C28.511,18.0132 27.504,19.0202 27.504,20.2642 L32.005,20.2642 C32.005,19.0202 30.996,18.0132 29.754,18.0132 L29.754,18.0132 Z M110.768,31.5052 C109.524,31.5052 108.518,32.5112 108.518,33.7552 L113.018,33.7552 C113.018,32.5112 112.012,31.5052 110.768,31.5052 L110.768,31.5052 Z M104.017,33.7552 C104.017,34.9972 105.023,36.0052 106.267,36.0052 C107.511,36.0052 108.517,34.9972 108.517,33.7552 L104.017,33.7552 Z M106.267,31.5162 C107.511,31.5162 108.517,30.5072 108.517,29.2652 L104.017,29.2652 C104.017,30.5072 105.025,31.5162 106.267,31.5162 L106.267,31.5162 Z M110.768,27.0152 C109.524,27.0152 108.518,28.0212 108.518,29.2652 L113.018,29.2652 C113.018,28.0212 112.012,27.0152 110.768,27.0152 L110.768,27.0152 Z M29.754,31.5052 C28.511,31.5052 27.504,32.5112 27.504,33.7552 L32.005,33.7552 C32.005,32.5112 30.996,31.5052 29.754,31.5052 L29.754,31.5052 Z M23.003,33.7552 C23.003,34.9972 24.01,36.0052 25.254,36.0052 C26.495,36.0052 27.504,34.9972 27.504,33.7552 L23.003,33.7552 Z M25.254,31.5162 C26.496,31.5162 27.504,30.5072 27.504,29.2652 L23.004,29.2652 C23.004,30.5072 24.012,31.5162 25.254,31.5162 L25.254,31.5162 Z M29.754,27.0152 C28.511,27.0152 27.504,28.0212 27.504,29.2652 L32.005,29.2652 C32.005,28.0212 30.996,27.0152 29.754,27.0152 L29.754,27.0152 Z M110.768,40.5062 C109.524,40.5062 108.518,41.5132 108.518,42.7562 L113.018,42.7562 C113.018,41.5132 112.012,40.5062 110.768,40.5062 L110.768,40.5062 Z M104.017,42.7562 C104.017,43.9982 105.023,45.0072 106.267,45.0072 C107.511,45.0072 108.517,43.9982 108.517,42.7562 L104.017,42.7562 Z M106.267,40.5172 C107.511,40.5172 108.517,39.5092 108.517,38.2672 L104.017,38.2672 C104.017,39.5092 105.025,40.5172 106.267,40.5172 L106.267,40.5172 Z M110.768,36.0162 C109.524,36.0162 108.518,37.0232 108.518,38.2662 L113.018,38.2662 C113.018,37.0232 112.012,36.0162 110.768,36.0162 L110.768,36.0162 Z M29.754,40.5062 C28.511,40.5062 27.504,41.5132 27.504,42.7562 L32.005,42.7562 C32.005,41.5132 30.996,40.5062 29.754,40.5062 L29.754,40.5062 Z M23.003,42.7562 C23.003,43.9982 24.01,45.0072 25.254,45.0072 C26.495,45.0072 27.504,43.9982 27.504,42.7562 L23.003,42.7562 Z M25.254,40.5172 C26.496,40.5172 27.504,39.5092 27.504,38.2672 L23.004,38.2672 C23.004,39.5092 24.012,40.5172 25.254,40.5172 L25.254,40.5172 Z M29.754,36.0162 C28.511,36.0162 27.504,37.0232 27.504,38.2662 L32.005,38.2662 C32.005,37.0232 30.996,36.0162 29.754,36.0162 L29.754,36.0162 Z M110.768,49.5072 C109.524,49.5072 108.518,50.5142 108.518,51.7582 L113.018,51.7582 C113.018,50.5142 112.012,49.5072 110.768,49.5072 L110.768,49.5072 Z M104.017,51.7582 C104.017,53.0002 105.023,54.0082 106.267,54.0082 C107.511,54.0082 108.517,53.0002 108.517,51.7582 L104.017,51.7582 Z M106.267,49.5182 C107.511,49.5182 108.517,48.5102 108.517,47.2682 L104.017,47.2682 C104.017,48.5102 105.025,49.5182 106.267,49.5182 L106.267,49.5182 Z M110.768,45.0182 C109.524,45.0182 108.518,46.0242 108.518,47.2682 L113.018,47.2682 C113.018,46.0242 112.012,45.0182 110.768,45.0182 L110.768,45.0182 Z M29.754,49.5072 C28.511,49.5072 27.504,50.5142 27.504,51.7582 L32.005,51.7582 C32.005,50.5142 30.996,49.5072 29.754,49.5072 L29.754,49.5072 Z M23.003,51.7582 C23.003,53.0002 24.01,54.0082 25.254,54.0082 C26.495,54.0082 27.504,53.0002 27.504,51.7582 L23.003,51.7582 Z M25.254,49.5182 C26.496,49.5182 27.504,48.5102 27.504,47.2682 L23.004,47.2682 C23.004,48.5102 24.012,49.5182 25.254,49.5182 L25.254,49.5182 Z M29.754,45.0182 C28.511,45.0182 27.504,46.0242 27.504,47.2682 L32.005,47.2682 C32.005,46.0242 30.996,45.0182 29.754,45.0182 L29.754,45.0182 Z M110.768,58.5092 C109.524,58.5092 108.518,59.5152 108.518,60.7592 L113.018,60.7592 C113.018,59.5152 112.012,58.5092 110.768,58.5092 L110.768,58.5092 Z M104.017,60.7592 C104.017,62.0012 105.023,63.0092 106.267,63.0092 C107.511,63.0092 108.517,62.0012 108.517,60.7592 L104.017,60.7592 Z M106.267,58.5202 C107.511,58.5202 108.517,57.5112 108.517,56.2702 L104.017,56.2702 C104.017,57.5112 105.025,58.5202 106.267,58.5202 L106.267,58.5202 Z M110.768,54.0192 C109.524,54.0192 108.518,55.0262 108.518,56.2692 L113.018,56.2692 C113.018,55.0262 112.012,54.0192 110.768,54.0192 L110.768,54.0192 Z M29.754,58.5092 C28.511,58.5092 27.504,59.5152 27.504,60.7592 L32.005,60.7592 C32.005,59.5152 30.996,58.5092 29.754,58.5092 L29.754,58.5092 Z M23.003,60.7592 C23.003,62.0012 24.01,63.0092 25.254,63.0092 C26.495,63.0092 27.504,62.0012 27.504,60.7592 L23.003,60.7592 Z M25.254,58.5202 C26.496,58.5202 27.504,57.5112 27.504,56.2702 L23.004,56.2702 C23.004,57.5112 24.012,58.5202 25.254,58.5202 L25.254,58.5202 Z M29.754,54.0192 C28.511,54.0192 27.504,55.0262 27.504,56.2692 L32.005,56.2692 C32.005,55.0262 30.996,54.0192 29.754,54.0192 L29.754,54.0192 Z M110.768,67.5102 C109.524,67.5102 108.518,68.5172 108.518,69.7612 L113.018,69.7612 C113.018,68.5172 112.012,67.5102 110.768,67.5102 L110.768,67.5102 Z M104.017,69.7612 C104.017,71.0022 105.023,72.0112 106.267,72.0112 C107.511,72.0112 108.517,71.0022 108.517,69.7612 L104.017,69.7612 Z M106.267,67.5212 C107.511,67.5212 108.517,66.5122 108.517,65.2702 L104.017,65.2702 C104.017,66.5122 105.025,67.5212 106.267,67.5212 L106.267,67.5212 Z M110.768,63.0202 C109.524,63.0202 108.518,64.0282 108.518,65.2702 L113.018,65.2702 C113.018,64.0282 112.012,63.0202 110.768,63.0202 L110.768,63.0202 Z M92.764,67.5102 C91.521,67.5102 90.514,68.5172 90.514,69.7612 L95.015,69.7612 C95.015,68.5172 94.006,67.5102 92.764,67.5102 L92.764,67.5102 Z M86.013,69.7612 C86.013,71.0022 87.02,72.0112 88.263,72.0112 C89.507,72.0112 90.513,71.0022 90.513,69.7612 L86.013,69.7612 Z M88.264,67.5212 C89.506,67.5212 90.514,66.5122 90.514,65.2702 L86.014,65.2702 C86.014,66.5122 87.02,67.5212 88.264,67.5212 L88.264,67.5212 Z M92.764,63.0202 C91.521,63.0202 90.514,64.0282 90.514,65.2702 L95.015,65.2702 C95.015,64.0282 94.006,63.0202 92.764,63.0202 L92.764,63.0202 Z M101.766,67.5102 C100.522,67.5102 99.516,68.5172 99.516,69.7612 L104.016,69.7612 C104.016,68.5172 103.008,67.5102 101.766,67.5102 L101.766,67.5102 Z M95.013,69.7612 C95.013,71.0022 96.022,72.0112 97.265,72.0112 C98.507,72.0112 99.516,71.0022 99.516,69.7612 L95.015,69.7612 L95.013,69.7612 Z M97.265,67.5212 C98.507,67.5212 99.515,66.5122 99.515,65.2702 L95.015,65.2702 C95.015,66.5122 96.021,67.5212 97.265,67.5212 L97.265,67.5212 Z M101.766,63.0202 C100.522,63.0202 99.516,64.0282 99.516,65.2702 L104.016,65.2702 C104.016,64.0282 103.008,63.0202 101.766,63.0202 L101.766,63.0202 Z M74.761,67.5102 C73.518,67.5102 72.511,68.5172 72.511,69.7612 L77.012,69.7612 C77.012,68.5172 76.005,67.5102 74.761,67.5102 L74.761,67.5102 Z M68.01,69.7612 C68.01,71.0022 69.017,72.0112 70.261,72.0112 C71.502,72.0112 72.511,71.0022 72.511,69.7612 L68.01,69.7612 Z M70.261,67.5212 C71.502,67.5212 72.511,66.5122 72.511,65.2702 L68.01,65.2702 C68.01,66.5122 69.019,67.5212 70.261,67.5212 L70.261,67.5212 Z M74.761,63.0202 C73.518,63.0202 72.511,64.0282 72.511,65.2702 L77.012,65.2702 C77.012,64.0282 76.005,63.0202 74.761,63.0202 L74.761,63.0202 Z M83.762,67.5102 C82.52,67.5102 81.511,68.5172 81.511,69.7612 L86.012,69.7612 C86.012,68.5172 85.005,67.5102 83.762,67.5102 L83.762,67.5102 Z M77.011,69.7612 C77.011,71.0022 78.019,72.0112 79.261,72.0112 C80.503,72.0112 81.511,71.0022 81.511,69.7612 L77.011,69.7612 Z M79.262,67.5212 C80.506,67.5212 81.512,66.5122 81.512,65.2702 L77.01,65.2702 C77.01,66.5122 78.018,67.5212 79.262,67.5212 L79.262,67.5212 Z M83.762,63.0202 C82.52,63.0202 81.511,64.0282 81.511,65.2702 L86.012,65.2702 C86.012,64.0282 85.005,63.0202 83.762,63.0202 L83.762,63.0202 Z M56.759,67.5102 C55.515,67.5102 54.509,68.5172 54.509,69.7612 L59.009,69.7612 C59.009,68.5172 58.001,67.5102 56.759,67.5102 L56.759,67.5102 Z M50.008,69.7612 C50.008,71.0022 51.016,72.0112 52.258,72.0112 C53.5,72.0112 54.508,71.0022 54.508,69.7612 L50.008,69.7612 Z M52.259,67.5212 C53.501,67.5212 54.509,66.5122 54.509,65.2702 L50.007,65.2702 C50.007,66.5122 51.015,67.5212 52.259,67.5212 L52.259,67.5212 Z M56.759,63.0202 C55.515,63.0202 54.509,64.0282 54.509,65.2702 L59.009,65.2702 C59.009,64.0282 58.001,63.0202 56.759,63.0202 L56.759,63.0202 Z M65.76,67.5102 C64.516,67.5102 63.51,68.5172 63.51,69.7612 L68.01,69.7612 C68.01,68.5172 67.002,67.5102 65.76,67.5102 L65.76,67.5102 Z M59.009,69.7612 C59.009,71.0022 60.016,72.0112 61.259,72.0112 C62.501,72.0112 63.509,71.0022 63.509,69.7612 L59.009,69.7612 Z M61.259,67.5212 C62.501,67.5212 63.51,66.5122 63.51,65.2702 L59.009,65.2702 C59.009,66.5122 60.016,67.5212 61.259,67.5212 L61.259,67.5212 Z M65.76,63.0202 C64.516,63.0202 63.51,64.0282 63.51,65.2702 L68.01,65.2702 C68.01,64.0282 67.002,63.0202 65.76,63.0202 L65.76,63.0202 Z M38.756,67.5102 C37.512,67.5102 36.506,68.5172 36.506,69.7612 L41.006,69.7612 C41.006,68.5172 39.999,67.5102 38.756,67.5102 L38.756,67.5102 Z M32.005,69.7612 C32.005,71.0022 33.011,72.0112 34.255,72.0112 C35.499,72.0112 36.505,71.0022 36.505,69.7612 L32.005,69.7612 Z M34.255,67.5212 C35.499,67.5212 36.505,66.5122 36.505,65.2702 L32.005,65.2702 C32.005,66.5122 33.013,67.5212 34.255,67.5212 L34.255,67.5212 Z M38.756,63.0202 C37.512,63.0202 36.506,64.0282 36.506,65.2702 L41.006,65.2702 C41.006,64.0282 39.999,63.0202 38.756,63.0202 L38.756,63.0202 Z M47.757,67.5102 C46.513,67.5102 45.507,68.5172 45.507,69.7612 L50.007,69.7612 C50.007,68.5172 49.001,67.5102 47.757,67.5102 L47.757,67.5102 Z M41.005,69.7612 C41.005,71.0022 42.013,72.0112 43.257,72.0112 C44.499,72.0112 45.507,71.0022 45.507,69.7612 L41.005,69.7612 Z M43.256,67.5212 C44.5,67.5212 45.506,66.5122 45.506,65.2702 L41.006,65.2702 C41.006,66.5122 42.014,67.5212 43.256,67.5212 L43.256,67.5212 Z M47.757,63.0202 C46.513,63.0202 45.507,64.0282 45.507,65.2702 L50.007,65.2702 C50.007,64.0282 49.001,63.0202 47.757,63.0202 L47.757,63.0202 Z M29.754,67.5102 C28.511,67.5102 27.504,68.5172 27.504,69.7612 L32.005,69.7612 C32.005,68.5172 30.996,67.5102 29.754,67.5102 L29.754,67.5102 Z M23.003,69.7612 C23.003,71.0022 24.01,72.0112 25.254,72.0112 C26.495,72.0112 27.504,71.0022 27.504,69.7612 L23.003,69.7612 Z M25.254,67.5212 C26.496,67.5212 27.504,66.5122 27.504,65.2702 L23.004,65.2702 C23.004,66.5122 24.012,67.5212 25.254,67.5212 L25.254,67.5212 Z M29.754,63.0202 C28.511,63.0202 27.504,64.0282 27.504,65.2702 L32.005,65.2702 C32.005,64.0282 30.996,63.0202 29.754,63.0202 L29.754,63.0202 Z M110.768,76.5122 C109.524,76.5122 108.518,77.5182 108.518,78.7622 L113.018,78.7622 C113.018,77.5182 112.012,76.5122 110.768,76.5122 L110.768,76.5122 Z M104.017,78.7622 C104.017,80.0042 105.023,81.0122 106.267,81.0122 C107.511,81.0122 108.517,80.0042 108.517,78.7622 L104.017,78.7622 Z M106.267,76.5222 C107.511,76.5222 108.517,75.5142 108.517,74.2722 L104.017,74.2722 C104.017,75.5142 105.025,76.5222 106.267,76.5222 L106.267,76.5222 Z M110.768,72.0212 C109.524,72.0212 108.518,73.0302 108.518,74.2722 L113.018,74.2722 C113.018,73.0302 112.012,72.0212 110.768,72.0212 L110.768,72.0212 Z M92.764,76.5122 C91.521,76.5122 90.514,77.5182 90.514,78.7622 L95.015,78.7622 C95.015,77.5182 94.006,76.5122 92.764,76.5122 L92.764,76.5122 Z M86.013,78.7622 C86.013,80.0042 87.02,81.0122 88.263,81.0122 C89.507,81.0122 90.513,80.0042 90.513,78.7622 L86.013,78.7622 Z M88.264,76.5222 C89.506,76.5222 90.514,75.5142 90.514,74.2722 L86.014,74.2722 C86.014,75.5142 87.02,76.5222 88.264,76.5222 L88.264,76.5222 Z M92.764,72.0212 C91.521,72.0212 90.514,73.0302 90.514,74.2722 L95.015,74.2722 C95.015,73.0302 94.006,72.0212 92.764,72.0212 L92.764,72.0212 Z M101.766,76.5122 C100.522,76.5122 99.516,77.5182 99.516,78.7622 L104.016,78.7622 C104.016,77.5182 103.008,76.5122 101.766,76.5122 L101.766,76.5122 Z M95.013,78.7622 C95.013,80.0042 96.022,81.0122 97.265,81.0122 C98.507,81.0122 99.516,80.0042 99.516,78.7622 L95.015,78.7622 L95.013,78.7622 Z M97.265,76.5222 C98.507,76.5222 99.515,75.5142 99.515,74.2722 L95.015,74.2722 C95.015,75.5142 96.021,76.5222 97.265,76.5222 L97.265,76.5222 Z M101.766,72.0212 C100.522,72.0212 99.516,73.0302 99.516,74.2722 L104.016,74.2722 C104.016,73.0302 103.008,72.0212 101.766,72.0212 L101.766,72.0212 Z M74.761,94.5092 C73.518,94.5092 72.511,95.5162 72.511,96.7602 L77.012,96.7602 C77.012,95.5162 76.005,94.5092 74.761,94.5092 L74.761,94.5092 Z M68.01,96.7602 C68.01,98.0022 69.017,99.0102 70.261,99.0102 C71.502,99.0102 72.511,98.0022 72.511,96.7602 L68.01,96.7602 Z M70.261,94.5202 C71.502,94.5202 72.511,93.5112 72.511,92.2692 L68.01,92.2692 C68.01,93.5112 69.019,94.5202 70.261,94.5202 L70.261,94.5202 Z M74.761,90.0192 C73.518,90.0192 72.511,91.0272 72.511,92.2692 L77.012,92.2692 C77.012,91.0272 76.005,90.0192 74.761,90.0192 L74.761,90.0192 Z M83.762,94.5092 C82.52,94.5092 81.511,95.5162 81.511,96.7602 L86.012,96.7602 C86.012,95.5162 85.005,94.5092 83.762,94.5092 L83.762,94.5092 Z M77.011,96.7602 C77.011,98.0022 78.019,99.0102 79.261,99.0102 C80.503,99.0102 81.511,98.0022 81.511,96.7602 L77.011,96.7602 Z M79.262,94.5202 C80.506,94.5202 81.512,93.5112 81.512,92.2692 L77.01,92.2692 C77.01,93.5112 78.018,94.5202 79.262,94.5202 L79.262,94.5202 Z M83.762,90.0192 C82.52,90.0192 81.511,91.0272 81.511,92.2692 L86.012,92.2692 C86.012,91.0272 85.005,90.0192 83.762,90.0192 L83.762,90.0192 Z M56.759,94.5092 C55.515,94.5092 54.509,95.5162 54.509,96.7602 L59.009,96.7602 C59.009,95.5162 58.001,94.5092 56.759,94.5092 L56.759,94.5092 Z M50.008,96.7602 C50.008,98.0022 51.016,99.0102 52.258,99.0102 C53.5,99.0102 54.508,98.0022 54.508,96.7602 L50.008,96.7602 Z M52.259,94.5202 C53.501,94.5202 54.509,93.5112 54.509,92.2692 L50.007,92.2692 C50.007,93.5112 51.015,94.5202 52.259,94.5202 L52.259,94.5202 Z M56.759,90.0192 C55.515,90.0192 54.509,91.0272 54.509,92.2692 L59.009,92.2692 C59.009,91.0272 58.001,90.0192 56.759,90.0192 L56.759,90.0192 Z M65.76,94.5092 C64.516,94.5092 63.51,95.5162 63.51,96.7602 L68.01,96.7602 C68.01,95.5162 67.002,94.5092 65.76,94.5092 L65.76,94.5092 Z M59.009,96.7602 C59.009,98.0022 60.016,99.0102 61.259,99.0102 C62.501,99.0102 63.509,98.0022 63.509,96.7602 L59.009,96.7602 Z M61.259,94.5202 C62.501,94.5202 63.51,93.5112 63.51,92.2692 L59.009,92.2692 C59.009,93.5112 60.016,94.5202 61.259,94.5202 L61.259,94.5202 Z M65.76,90.0192 C64.516,90.0192 63.51,91.0272 63.51,92.2692 L68.01,92.2692 C68.01,91.0272 67.002,90.0192 65.76,90.0192 L65.76,90.0192 Z M74.761,85.5132 C73.518,85.5132 72.511,86.5202 72.511,87.7632 L77.012,87.7632 C77.012,86.5202 76.005,85.5132 74.761,85.5132 L74.761,85.5132 Z M68.01,87.7632 C68.01,89.0052 69.017,90.0142 70.261,90.0142 C71.502,90.0142 72.511,89.0052 72.511,87.7632 L68.01,87.7632 Z M70.261,85.5232 C71.502,85.5232 72.511,84.5152 72.511,83.2732 L68.01,83.2732 C68.01,84.5152 69.019,85.5232 70.261,85.5232 L70.261,85.5232 Z M74.761,81.0232 C73.518,81.0232 72.511,82.0312 72.511,83.2732 L77.012,83.2732 C77.012,82.0312 76.005,81.0232 74.761,81.0232 L74.761,81.0232 Z M83.762,85.5132 C82.52,85.5132 81.511,86.5202 81.511,87.7632 L86.012,87.7632 C86.012,86.5202 85.005,85.5132 83.762,85.5132 L83.762,85.5132 Z M77.011,87.7632 C77.011,89.0052 78.019,90.0142 79.261,90.0142 C80.503,90.0142 81.511,89.0052 81.511,87.7632 L77.011,87.7632 Z M79.262,85.5232 C80.506,85.5232 81.512,84.5152 81.512,83.2732 L77.01,83.2732 C77.01,84.5152 78.018,85.5232 79.262,85.5232 L79.262,85.5232 Z M83.762,81.0232 C82.52,81.0232 81.511,82.0312 81.511,83.2732 L86.012,83.2732 C86.012,82.0312 85.005,81.0232 83.762,81.0232 L83.762,81.0232 Z M56.759,85.5132 C55.515,85.5132 54.509,86.5202 54.509,87.7632 L59.009,87.7632 C59.009,86.5202 58.001,85.5132 56.759,85.5132 L56.759,85.5132 Z M50.008,87.7632 C50.008,89.0052 51.016,90.0142 52.258,90.0142 C53.5,90.0142 54.508,89.0052 54.508,87.7632 L50.008,87.7632 Z M52.259,85.5232 C53.501,85.5232 54.509,84.5152 54.509,83.2732 L50.007,83.2732 C50.007,84.5152 51.015,85.5232 52.259,85.5232 L52.259,85.5232 Z M56.759,81.0232 C55.515,81.0232 54.509,82.0312 54.509,83.2732 L59.009,83.2732 C59.009,82.0312 58.001,81.0232 56.759,81.0232 L56.759,81.0232 Z M65.76,85.5132 C64.516,85.5132 63.51,86.5202 63.51,87.7632 L68.01,87.7632 C68.01,86.5202 67.002,85.5132 65.76,85.5132 L65.76,85.5132 Z M59.009,87.7632 C59.009,89.0052 60.016,90.0142 61.259,90.0142 C62.501,90.0142 63.509,89.0052 63.509,87.7632 L59.009,87.7632 Z M61.259,85.5232 C62.501,85.5232 63.51,84.5152 63.51,83.2732 L59.009,83.2732 C59.009,84.5152 60.016,85.5232 61.259,85.5232 L61.259,85.5232 Z M65.76,81.0232 C64.516,81.0232 63.51,82.0312 63.51,83.2732 L68.01,83.2732 C68.01,82.0312 67.002,81.0232 65.76,81.0232 L65.76,81.0232 Z M74.761,76.5122 C73.518,76.5122 72.511,77.5182 72.511,78.7622 L77.012,78.7622 C77.012,77.5182 76.005,76.5122 74.761,76.5122 L74.761,76.5122 Z M68.01,78.7622 C68.01,80.0042 69.017,81.0122 70.261,81.0122 C71.502,81.0122 72.511,80.0042 72.511,78.7622 L68.01,78.7622 Z M70.261,76.5222 C71.502,76.5222 72.511,75.5142 72.511,74.2722 L68.01,74.2722 C68.01,75.5142 69.019,76.5222 70.261,76.5222 L70.261,76.5222 Z M74.761,72.0212 C73.518,72.0212 72.511,73.0302 72.511,74.2722 L77.012,74.2722 C77.012,73.0302 76.005,72.0212 74.761,72.0212 L74.761,72.0212 Z M83.762,76.5122 C82.52,76.5122 81.511,77.5182 81.511,78.7622 L86.012,78.7622 C86.012,77.5182 85.005,76.5122 83.762,76.5122 L83.762,76.5122 Z M77.011,78.7622 C77.011,80.0042 78.019,81.0122 79.261,81.0122 C80.503,81.0122 81.511,80.0042 81.511,78.7622 L77.011,78.7622 Z M79.262,76.5222 C80.506,76.5222 81.512,75.5142 81.512,74.2722 L77.01,74.2722 C77.01,75.5142 78.018,76.5222 79.262,76.5222 L79.262,76.5222 Z M83.762,72.0212 C82.52,72.0212 81.511,73.0302 81.511,74.2722 L86.012,74.2722 C86.012,73.0302 85.005,72.0212 83.762,72.0212 L83.762,72.0212 Z M56.759,76.5122 C55.515,76.5122 54.509,77.5182 54.509,78.7622 L59.009,78.7622 C59.009,77.5182 58.001,76.5122 56.759,76.5122 L56.759,76.5122 Z M50.008,78.7622 C50.008,80.0042 51.016,81.0122 52.258,81.0122 C53.5,81.0122 54.508,80.0042 54.508,78.7622 L50.008,78.7622 Z M52.259,76.5222 C53.501,76.5222 54.509,75.5142 54.509,74.2722 L50.007,74.2722 C50.007,75.5142 51.015,76.5222 52.259,76.5222 L52.259,76.5222 Z M56.759,72.0212 C55.515,72.0212 54.509,73.0302 54.509,74.2722 L59.009,74.2722 C59.009,73.0302 58.001,72.0212 56.759,72.0212 L56.759,72.0212 Z M65.76,76.5122 C64.516,76.5122 63.51,77.5182 63.51,78.7622 L68.01,78.7622 C68.01,77.5182 67.002,76.5122 65.76,76.5122 L65.76,76.5122 Z M59.009,78.7622 C59.009,80.0042 60.016,81.0122 61.259,81.0122 C62.501,81.0122 63.509,80.0042 63.509,78.7622 L59.009,78.7622 Z M61.259,76.5222 C62.501,76.5222 63.51,75.5142 63.51,74.2722 L59.009,74.2722 C59.009,75.5142 60.016,76.5222 61.259,76.5222 L61.259,76.5222 Z M65.76,72.0212 C64.516,72.0212 63.51,73.0302 63.51,74.2722 L68.01,74.2722 C68.01,73.0302 67.002,72.0212 65.76,72.0212 L65.76,72.0212 Z M38.756,76.5122 C37.512,76.5122 36.506,77.5182 36.506,78.7622 L41.006,78.7622 C41.006,77.5182 39.999,76.5122 38.756,76.5122 L38.756,76.5122 Z M32.005,78.7622 C32.005,80.0042 33.011,81.0122 34.255,81.0122 C35.499,81.0122 36.505,80.0042 36.505,78.7622 L32.005,78.7622 Z M34.255,76.5222 C35.499,76.5222 36.505,75.5142 36.505,74.2722 L32.005,74.2722 C32.005,75.5142 33.013,76.5222 34.255,76.5222 L34.255,76.5222 Z M38.756,72.0212 C37.512,72.0212 36.506,73.0302 36.506,74.2722 L41.006,74.2722 C41.006,73.0302 39.999,72.0212 38.756,72.0212 L38.756,72.0212 Z M47.757,76.5122 C46.513,76.5122 45.507,77.5182 45.507,78.7622 L50.007,78.7622 C50.007,77.5182 49.001,76.5122 47.757,76.5122 L47.757,76.5122 Z M41.005,78.7622 C41.005,80.0042 42.013,81.0122 43.257,81.0122 C44.499,81.0122 45.507,80.0042 45.507,78.7622 L41.005,78.7622 Z M43.256,76.5222 C44.5,76.5222 45.506,75.5142 45.506,74.2722 L41.006,74.2722 C41.006,75.5142 42.014,76.5222 43.256,76.5222 L43.256,76.5222 Z M47.757,72.0212 C46.513,72.0212 45.507,73.0302 45.507,74.2722 L50.007,74.2722 C50.007,73.0302 49.001,72.0212 47.757,72.0212 L47.757,72.0212 Z M29.754,76.5122 C28.511,76.5122 27.504,77.5182 27.504,78.7622 L32.005,78.7622 C32.005,77.5182 30.996,76.5122 29.754,76.5122 L29.754,76.5122 Z M23.003,78.7622 C23.003,80.0042 24.01,81.0122 25.254,81.0122 C26.495,81.0122 27.504,80.0042 27.504,78.7622 L23.003,78.7622 Z M25.254,76.5222 C26.496,76.5222 27.504,75.5142 27.504,74.2722 L23.004,74.2722 C23.004,75.5142 24.012,76.5222 25.254,76.5222 L25.254,76.5222 Z M29.754,72.0212 C28.511,72.0212 27.504,73.0302 27.504,74.2722 L32.005,74.2722 C32.005,73.0302 30.996,72.0212 29.754,72.0212 L29.754,72.0212 Z M29.754,85.5302 C28.511,85.5302 27.504,86.5362 27.504,87.7802 L32.005,87.7802 C32.005,86.5362 30.996,85.5302 29.754,85.5302 L29.754,85.5302 Z M23.003,87.7802 C23.003,89.0222 24.01,90.0302 25.254,90.0302 C26.495,90.0302 27.504,89.0222 27.504,87.7802 L23.003,87.7802 Z M25.254,85.5402 C26.496,85.5402 27.504,84.5322 27.504,83.2902 L23.004,83.2902 C23.004,84.5322 24.012,85.5402 25.254,85.5402 L25.254,85.5402 Z M29.754,81.0392 C28.511,81.0392 27.504,82.0482 27.504,83.2892 L32.005,83.2892 C32.005,82.0482 30.996,81.0392 29.754,81.0392 L29.754,81.0392 Z M29.754,94.5202 C28.511,94.5202 27.504,95.5282 27.504,96.7702 L32.005,96.7702 C32.005,95.5282 30.996,94.5202 29.754,94.5202 L29.754,94.5202 Z M23.003,96.7702 C23.003,98.0142 24.01,99.0202 25.254,99.0202 C26.495,99.0202 27.504,98.0142 27.504,96.7702 L23.003,96.7702 Z M25.254,94.5312 C26.496,94.5312 27.504,93.5232 27.504,92.2812 L23.004,92.2812 C23.004,93.5232 24.012,94.5312 25.254,94.5312 L25.254,94.5312 Z M29.754,90.0302 C28.511,90.0302 27.504,91.0372 27.504,92.2802 L32.005,92.2802 C32.005,91.0372 30.996,90.0302 29.754,90.0302 L29.754,90.0302 Z M29.754,103.5162 C28.511,103.5162 27.504,104.5222 27.504,105.7662 L32.005,105.7662 C32.005,104.5222 30.996,103.5162 29.754,103.5162 L29.754,103.5162 Z M23.003,105.7662 C23.003,107.0082 24.01,108.0162 25.254,108.0162 C26.495,108.0162 27.504,107.0082 27.504,105.7662 L23.003,105.7662 Z M25.254,103.5262 C26.496,103.5262 27.504,102.5182 27.504,101.2762 L23.004,101.2762 C23.004,102.5182 24.012,103.5262 25.254,103.5262 L25.254,103.5262 Z M29.754,99.0262 C28.511,99.0262 27.504,100.0342 27.504,101.2762 L32.005,101.2762 C32.005,100.0342 30.996,99.0262 29.754,99.0262 L29.754,99.0262 Z M38.756,103.5162 C37.512,103.5162 36.506,104.5222 36.506,105.7662 L41.006,105.7662 C41.006,104.5222 39.999,103.5162 38.756,103.5162 L38.756,103.5162 Z M32.005,105.7662 C32.005,107.0082 33.011,108.0162 34.255,108.0162 C35.499,108.0162 36.505,107.0082 36.505,105.7662 L32.005,105.7662 Z M34.255,103.5262 C35.499,103.5262 36.505,102.5182 36.505,101.2762 L32.005,101.2762 C32.005,102.5182 33.013,103.5262 34.255,103.5262 L34.255,103.5262 Z M38.756,99.0262 C37.512,99.0262 36.506,100.0342 36.506,101.2762 L41.006,101.2762 C41.006,100.0342 39.999,99.0262 38.756,99.0262 L38.756,99.0262 Z M38.756,112.4952 C37.512,112.4952 36.506,113.5032 36.506,114.7452 L41.006,114.7452 C41.006,113.5032 39.999,112.4952 38.756,112.4952 L38.756,112.4952 Z M32.005,114.7452 C32.005,115.9892 33.011,116.9952 34.255,116.9952 C35.499,116.9952 36.505,115.9892 36.505,114.7452 L32.005,114.7452 Z M34.255,112.5062 C35.499,112.5062 36.505,111.4982 36.505,110.2562 L32.005,110.2562 C32.005,111.4982 33.013,112.5062 34.255,112.5062 L34.255,112.5062 Z M38.756,108.0052 C37.512,108.0052 36.506,109.0122 36.506,110.2552 L41.006,110.2552 C41.006,109.0122 39.999,108.0052 38.756,108.0052 L38.756,108.0052 Z M29.754,121.4962 C28.511,121.4962 27.504,122.5042 27.504,123.7462 L32.005,123.7462 C32.005,122.5042 30.996,121.4962 29.754,121.4962 L29.754,121.4962 Z M23.003,123.7462 C23.003,124.9902 24.01,125.9972 25.254,125.9972 C26.495,125.9972 27.504,124.9902 27.504,123.7462 L23.003,123.7462 Z M25.254,121.5072 C26.496,121.5072 27.504,120.4992 27.504,119.2572 L23.004,119.2572 C23.004,120.4992 24.012,121.5072 25.254,121.5072 L25.254,121.5072 Z M29.754,117.0072 C28.511,117.0072 27.504,118.0132 27.504,119.2572 L32.005,119.2572 C32.005,118.0132 30.996,117.0072 29.754,117.0072 L29.754,117.0072 Z M20.753,130.4972 C19.51,130.4972 18.503,131.5062 18.503,132.7482 L23.003,132.7482 C23.003,131.5062 21.995,130.4972 20.753,130.4972 L20.753,130.4972 Z M14.002,132.7482 C14.002,133.9912 15.01,134.9982 16.252,134.9982 C17.494,134.9982 18.502,133.9912 18.502,132.7482 L14.002,132.7482 Z M16.253,130.5092 C17.495,130.5092 18.504,129.5002 18.504,128.2582 L14.001,128.2582 C14.001,129.5002 15.01,130.5092 16.253,130.5092 L16.253,130.5092 Z M20.753,126.0082 C19.51,126.0082 18.503,127.0152 18.503,128.2582 L23.003,128.2582 C23.003,127.0152 21.995,126.0082 20.753,126.0082 L20.753,126.0082 Z M11.752,139.4992 C10.508,139.4992 9.502,140.5062 9.502,141.7492 L14.002,141.7492 C14.002,140.5062 12.994,139.4992 11.752,139.4992 L11.752,139.4992 Z M5,141.7502 C5,142.9932 6.009,144.0002 7.251,144.0002 C8.494,144.0002 9.501,142.9932 9.501,141.7502 L5,141.7502 Z M7.252,139.5102 C8.494,139.5102 9.502,138.5022 9.502,137.2602 L5,137.2602 C5,138.5022 6.008,139.5102 7.252,139.5102 L7.252,139.5102 Z M11.752,135.0092 C12.994,135.0092 14.002,136.0162 14.002,137.2602 L9.502,137.2602 C9.502,136.0162 10.508,135.0092 11.752,135.0092 L11.752,135.0092 Z" fill="#EB0029"></path>
                <text id="/-" font-family="AvenirNextLTWGL-Regular, Avenir Next LT WGL" font-size="16" font-weight="normal" line-spacing="24" fill="#262626">
                    <tspan x="13.52" y="188">/ </tspan>
                </text>
            </g>
        </g>
    </g>
</svg>