<?xml version="1.0" encoding="UTF-8" standalone="no"?>
<svg width="464px" height="331px" viewBox="0 0 464 331" version="1.1" xmlns="http://www.w3.org/2000/svg" xmlns:xlink="http://www.w3.org/1999/xlink">
    <!-- Generator: Sketch 3.7.2 (28276) - http://www.bohemiancoding.com/sketch -->
    <title>Group 4</title>
    <desc>Created with Sketch.</desc>
    <defs></defs>
    <g id="01-Index" stroke="none" stroke-width="1" fill="none" fill-rule="evenodd">
        <g id="01-Lascom-Home-D-parallax-v.1" transform="translate(-842.000000, -133.000000)" fill="#FFFFFF">
            <g id="Group-3">
                <g id="Group-4" transform="translate(842.000000, 133.000000)">
                    <path d="M224.94,258.6344 C220.95,258.6344 217.71,261.8444 217.71,265.8104 L232.17,265.8104 C232.17,261.8444 228.936,258.6344 224.94,258.6344" id="Fill-1028"></path>
                    <path d="M210.4848,272.9822 C214.4748,272.9822 217.7148,269.7662 217.7148,265.8062 L203.2488,265.8062 C203.2488,269.7662 206.4888,272.9822 210.4848,272.9822" id="Fill-1029"></path>
                    <path d="M203.2512,280.1198 C203.2512,284.0798 206.4912,287.2958 210.4812,287.2958 C214.4712,287.2958 217.7112,284.0798 217.7112,280.1198 L203.2512,280.1198 Z" id="Fill-1030"></path>
                    <path d="M224.94,272.9462 C220.95,272.9462 217.71,276.1622 217.71,280.1222 L232.17,280.1222 C232.17,276.1622 228.936,272.9462 224.94,272.9462" id="Fill-1031"></path>
                    <path d="M253.8576,258.6512 C249.8676,258.6512 246.6276,261.8612 246.6276,265.8272 L261.0876,265.8272 C261.0876,261.8612 257.8476,258.6512 253.8576,258.6512" id="Fill-1032"></path>
                    <path d="M239.4024,272.999 C243.3924,272.999 246.6264,269.783 246.6264,265.823 L232.1664,265.823 C232.1664,269.783 235.4064,272.999 239.4024,272.999" id="Fill-1033"></path>
                    <path d="M232.1688,280.1366 C232.1688,284.0966 235.4088,287.3126 239.3988,287.3126 C243.3888,287.3126 246.6288,284.0966 246.6288,280.1366 L232.1688,280.1366 Z" id="Fill-1034"></path>
                    <path d="M253.8576,272.9624 C249.8616,272.9624 246.6276,276.1784 246.6276,280.1384 L261.0876,280.1384 C261.0876,276.1784 257.8476,272.9624 253.8576,272.9624" id="Fill-1035"></path>
                    <path d="M282.7776,273.3284 C278.7816,273.3284 275.5476,276.5384 275.5476,280.5044 L290.0076,280.5044 C290.0076,276.5384 286.7676,273.3284 282.7776,273.3284" id="Fill-1036"></path>
                    <path d="M268.32,287.6762 C272.31,287.6762 275.55,284.4602 275.55,280.5002 L261.09,280.5002 C261.09,284.4602 264.324,287.6762 268.32,287.6762" id="Fill-1037"></path>
                    <path d="M261.0876,294.8156 C261.0876,298.7756 264.3276,301.9856 268.3176,301.9856 C272.3076,301.9856 275.5476,298.7756 275.5476,294.8156 L261.0876,294.8156 L261.0876,294.8156 Z" id="Fill-1038"></path>
                    <path d="M282.7776,287.6414 C278.7816,287.6414 275.5476,290.8514 275.5476,294.8174 L290.0076,294.8174 C290.0076,290.8514 286.7676,287.6414 282.7776,287.6414" id="Fill-1039"></path>
                    <path d="M196.0224,273.3284 C192.0324,273.3284 188.7924,276.5384 188.7924,280.5044 L203.2524,280.5044 C203.2524,276.5384 200.0124,273.3284 196.0224,273.3284" id="Fill-1040"></path>
                    <path d="M181.5672,287.6762 C185.5572,287.6762 188.7912,284.4602 188.7912,280.5002 L174.3312,280.5002 C174.3312,284.4602 177.5712,287.6762 181.5672,287.6762" id="Fill-1041"></path>
                    <path d="M174.3342,294.8156 C174.3342,298.7756 177.5682,301.9856 181.5642,301.9856 C185.5542,301.9856 188.7942,298.7756 188.7942,294.8156 L174.3342,294.8156 Z" id="Fill-1042"></path>
                    <path d="M196.0224,287.6414 C192.0264,287.6414 188.7924,290.8514 188.7924,294.8174 L203.2524,294.8174 C203.2524,290.8514 200.0124,287.6414 196.0224,287.6414" id="Fill-1043"></path>
                    <path d="M311.676,287.6948 C307.68,287.6948 304.446,290.9048 304.446,294.8708 L318.906,294.8708 C318.906,290.9048 315.666,287.6948 311.676,287.6948" id="Fill-1044"></path>
                    <path d="M297.2196,302.0426 C301.2096,302.0426 304.4496,298.8266 304.4496,294.8666 L289.9896,294.8666 C289.9896,298.8266 293.2236,302.0426 297.2196,302.0426" id="Fill-1045"></path>
                    <path d="M289.9866,309.1814 C289.9866,313.1414 293.2266,316.3514 297.2166,316.3514 C301.2126,316.3514 304.4466,313.1414 304.4466,309.1814 L289.9866,309.1814 L289.9866,309.1814 Z" id="Fill-1046"></path>
                    <path d="M311.676,302.0078 C307.68,302.0078 304.446,305.2178 304.446,309.1838 L318.906,309.1838 C318.906,305.2178 315.666,302.0078 311.676,302.0078" id="Fill-1047"></path>
                    <path d="M311.676,316.3538 C307.68,316.3538 304.446,319.5638 304.446,323.5298 L318.906,323.5298 C318.906,319.5638 315.666,316.3538 311.676,316.3538" id="Fill-1048"></path>
                    <path d="M297.2196,330.7016 C301.2096,330.7016 304.4496,327.4856 304.4496,323.5256 L289.9896,323.5256 C289.9896,327.4856 293.2236,330.7016 297.2196,330.7016" id="Fill-1049"></path>
                    <path d="M167.1048,287.6948 C163.1148,287.6948 159.8748,290.9048 159.8748,294.8708 L174.3348,294.8708 C174.3348,290.9048 171.0948,287.6948 167.1048,287.6948" id="Fill-1050"></path>
                    <path d="M152.6484,302.0426 C156.6384,302.0426 159.8724,298.8266 159.8724,294.8666 L145.4184,294.8666 C145.4184,298.8266 148.6524,302.0426 152.6484,302.0426" id="Fill-1051"></path>
                    <path d="M145.4166,309.1814 C145.4166,313.1414 148.6566,316.3514 152.6466,316.3514 C156.6366,316.3514 159.8766,313.1414 159.8766,309.1814 L145.4166,309.1814 Z" id="Fill-1052"></path>
                    <path d="M167.1048,302.0078 C163.1088,302.0078 159.8748,305.2178 159.8748,309.1838 L174.3348,309.1838 C174.3348,305.2178 171.0948,302.0078 167.1048,302.0078" id="Fill-1053"></path>
                    <path d="M167.1048,316.3538 C163.1148,316.3538 159.8748,319.5638 159.8748,323.5298 L174.3348,323.5298 C174.3348,319.5638 171.0948,316.3538 167.1048,316.3538" id="Fill-1054"></path>
                    <path d="M152.6484,330.7016 C156.6384,330.7016 159.8724,327.4856 159.8724,323.5256 L145.4184,323.5256 C145.4184,327.4856 148.6524,330.7016 152.6484,330.7016" id="Fill-1055"></path>
                    <path d="M224.94,229.949 C220.95,229.949 217.71,233.159 217.71,237.125 L232.17,237.125 C232.17,233.159 228.936,229.949 224.94,229.949" id="Fill-1056"></path>
                    <path d="M210.4848,244.2968 C214.4748,244.2968 217.7148,241.0808 217.7148,237.1208 L203.2488,237.1208 C203.2488,241.0808 206.4888,244.2968 210.4848,244.2968" id="Fill-1057"></path>
                    <path d="M203.2512,251.4344 C203.2512,255.3944 206.4912,258.6104 210.4812,258.6104 C214.4712,258.6104 217.7112,255.3944 217.7112,251.4344 L203.2512,251.4344 Z" id="Fill-1058"></path>
                    <path d="M224.94,244.2608 C220.95,244.2608 217.71,247.4708 217.71,251.4368 L232.17,251.4368 C232.17,247.4708 228.936,244.2608 224.94,244.2608" id="Fill-1059"></path>
                    <path d="M253.8576,229.9652 C249.8676,229.9652 246.6276,233.1752 246.6276,237.1412 L261.0876,237.1412 C261.0876,233.1752 257.8476,229.9652 253.8576,229.9652" id="Fill-1060"></path>
                    <path d="M239.4024,244.313 C243.3924,244.313 246.6264,241.097 246.6264,237.137 L232.1664,237.137 C232.1664,241.097 235.4064,244.313 239.4024,244.313" id="Fill-1061"></path>
                    <path d="M232.1688,251.4512 C232.1688,255.4112 235.4088,258.6272 239.3988,258.6272 C243.3888,258.6272 246.6288,255.4112 246.6288,251.4512 L232.1688,251.4512 Z" id="Fill-1062"></path>
                    <path d="M253.8576,244.277 C249.8616,244.277 246.6276,247.487 246.6276,251.453 L261.0876,251.453 C261.0876,247.487 257.8476,244.277 253.8576,244.277" id="Fill-1063"></path>
                    <path d="M282.7752,229.9556 C278.7852,229.9556 275.5452,233.1656 275.5452,237.1316 L290.0052,237.1316 C290.0052,233.1656 286.7652,229.9556 282.7752,229.9556" id="Fill-1064"></path>
                    <path d="M268.32,244.3034 C272.31,244.3034 275.544,241.0874 275.544,237.1274 L261.09,237.1274 C261.09,241.0874 264.324,244.3034 268.32,244.3034" id="Fill-1065"></path>
                    <path d="M261.0876,251.441 C261.0876,255.401 264.3276,258.617 268.3176,258.617 C272.3076,258.617 275.5476,255.401 275.5476,251.441 L261.0876,251.441 Z" id="Fill-1066"></path>
                    <path d="M282.7752,244.2674 C278.7792,244.2674 275.5452,247.4774 275.5452,251.4434 L290.0052,251.4434 C290.0052,247.4774 286.7652,244.2674 282.7752,244.2674" id="Fill-1067"></path>
                    <path d="M196.0224,229.9556 C192.0324,229.9556 188.7924,233.1656 188.7924,237.1316 L203.2524,237.1316 C203.2524,233.1656 200.0124,229.9556 196.0224,229.9556" id="Fill-1068"></path>
                    <path d="M181.5672,244.3034 C185.5572,244.3034 188.7912,241.0874 188.7912,237.1274 L174.3312,237.1274 C174.3312,241.0874 177.5712,244.3034 181.5672,244.3034" id="Fill-1069"></path>
                    <path d="M174.3342,251.441 C174.3342,255.401 177.5682,258.617 181.5642,258.617 C185.5542,258.617 188.7942,255.401 188.7942,251.441 L174.3342,251.441 Z" id="Fill-1070"></path>
                    <path d="M196.0224,244.2674 C192.0264,244.2674 188.7924,247.4774 188.7924,251.4434 L203.2524,251.4434 C203.2524,247.4774 200.0124,244.2674 196.0224,244.2674" id="Fill-1071"></path>
                    <path d="M224.94,201.2762 C220.95,201.2762 217.71,204.4862 217.71,208.4522 L232.17,208.4522 C232.17,204.4862 228.936,201.2762 224.94,201.2762" id="Fill-1072"></path>
                    <path d="M210.4848,215.6246 C214.4748,215.6246 217.7148,212.4086 217.7148,208.4486 L203.2488,208.4486 C203.2488,212.4086 206.4888,215.6246 210.4848,215.6246" id="Fill-1073"></path>
                    <path d="M203.2512,222.7616 C203.2512,226.7216 206.4912,229.9376 210.4812,229.9376 C214.4712,229.9376 217.7112,226.7216 217.7112,222.7616 L203.2512,222.7616 Z" id="Fill-1074"></path>
                    <path d="M224.94,215.588 C220.95,215.588 217.71,218.798 217.71,222.764 L232.17,222.764 C232.17,218.798 228.936,215.588 224.94,215.588" id="Fill-1075"></path>
                    <path d="M253.8576,201.2762 C249.8676,201.2762 246.6276,204.4862 246.6276,208.4522 L261.0876,208.4522 C261.0876,204.4862 257.8476,201.2762 253.8576,201.2762" id="Fill-1076"></path>
                    <path d="M239.4024,215.6246 C243.3924,215.6246 246.6264,212.4086 246.6264,208.4486 L232.1664,208.4486 C232.1664,212.4086 235.4064,215.6246 239.4024,215.6246" id="Fill-1077"></path>
                    <path d="M232.1688,222.7616 C232.1688,226.7216 235.4088,229.9376 239.3988,229.9376 C243.3888,229.9376 246.6288,226.7216 246.6288,222.7616 L232.1688,222.7616 Z" id="Fill-1078"></path>
                    <path d="M253.8576,215.588 C249.8616,215.588 246.6276,218.798 246.6276,222.764 L261.0876,222.764 C261.0876,218.798 257.8476,215.588 253.8576,215.588" id="Fill-1079"></path>
                    <path d="M282.7752,201.2762 C278.7852,201.2762 275.5452,204.4862 275.5452,208.4522 L290.0052,208.4522 C290.0052,204.4862 286.7652,201.2762 282.7752,201.2762" id="Fill-1080"></path>
                    <path d="M268.32,215.6246 C272.31,215.6246 275.544,212.4086 275.544,208.4486 L261.09,208.4486 C261.09,212.4086 264.324,215.6246 268.32,215.6246" id="Fill-1081"></path>
                    <path d="M261.0876,222.7616 C261.0876,226.7216 264.3276,229.9376 268.3176,229.9376 C272.3076,229.9376 275.5476,226.7216 275.5476,222.7616 L261.0876,222.7616 Z" id="Fill-1082"></path>
                    <path d="M282.7752,215.588 C278.7792,215.588 275.5452,218.798 275.5452,222.764 L290.0052,222.764 C290.0052,218.798 286.7652,215.588 282.7752,215.588" id="Fill-1083"></path>
                    <path d="M196.0224,201.2762 C192.0324,201.2762 188.7924,204.4862 188.7924,208.4522 L203.2524,208.4522 C203.2524,204.4862 200.0124,201.2762 196.0224,201.2762" id="Fill-1084"></path>
                    <path d="M181.5672,215.6246 C185.5572,215.6246 188.7912,212.4086 188.7912,208.4486 L174.3312,208.4486 C174.3312,212.4086 177.5712,215.6246 181.5672,215.6246" id="Fill-1085"></path>
                    <path d="M174.3342,222.7616 C174.3342,226.7216 177.5682,229.9376 181.5642,229.9376 C185.5542,229.9376 188.7942,226.7216 188.7942,222.7616 L174.3342,222.7616 Z" id="Fill-1086"></path>
                    <path d="M196.0224,215.588 C192.0264,215.588 188.7924,218.798 188.7924,222.764 L203.2524,222.764 C203.2524,218.798 200.0124,215.588 196.0224,215.588" id="Fill-1087"></path>
                    <path d="M224.94,172.6136 C220.95,172.6136 217.71,175.8296 217.71,179.7896 L232.17,179.7896 C232.17,175.8296 228.936,172.6136 224.94,172.6136" id="Fill-1088"></path>
                    <path d="M210.4848,186.9614 C214.4748,186.9614 217.7148,183.7514 217.7148,179.7854 L203.2488,179.7854 C203.2488,183.7514 206.4888,186.9614 210.4848,186.9614" id="Fill-1089"></path>
                    <path d="M203.2512,194.1026 C203.2512,198.0626 206.4912,201.2786 210.4812,201.2786 C214.4712,201.2786 217.7112,198.0626 217.7112,194.1026 L203.2512,194.1026 Z" id="Fill-1090"></path>
                    <path d="M224.94,186.929 C220.95,186.929 217.71,190.139 217.71,194.105 L232.17,194.105 C232.17,190.139 228.936,186.929 224.94,186.929" id="Fill-1091"></path>
                    <path d="M253.8576,172.6136 C249.8676,172.6136 246.6276,175.8296 246.6276,179.7896 L261.0876,179.7896 C261.0876,175.8296 257.8476,172.6136 253.8576,172.6136" id="Fill-1092"></path>
                    <path d="M239.4024,186.9614 C243.3924,186.9614 246.6264,183.7514 246.6264,179.7854 L232.1664,179.7854 C232.1664,183.7514 235.4064,186.9614 239.4024,186.9614" id="Fill-1093"></path>
                    <path d="M232.1688,194.1026 C232.1688,198.0626 235.4088,201.2786 239.3988,201.2786 C243.3888,201.2786 246.6288,198.0626 246.6288,194.1026 L232.1688,194.1026 Z" id="Fill-1094"></path>
                    <path d="M253.8576,186.929 C249.8616,186.929 246.6276,190.139 246.6276,194.105 L261.0876,194.105 C261.0876,190.139 257.8476,186.929 253.8576,186.929" id="Fill-1095"></path>
                    <path d="M282.7752,172.6136 C278.7852,172.6136 275.5452,175.8296 275.5452,179.7896 L290.0052,179.7896 C290.0052,175.8296 286.7652,172.6136 282.7752,172.6136" id="Fill-1096"></path>
                    <path d="M268.32,186.9614 C272.31,186.9614 275.544,183.7514 275.544,179.7854 L261.09,179.7854 C261.09,183.7514 264.324,186.9614 268.32,186.9614" id="Fill-1097"></path>
                    <path d="M261.0876,194.1026 C261.0876,198.0626 264.3276,201.2786 268.3176,201.2786 C272.3076,201.2786 275.5476,198.0626 275.5476,194.1026 L261.0876,194.1026 Z" id="Fill-1098"></path>
                    <path d="M282.7752,186.929 C278.7792,186.929 275.5452,190.139 275.5452,194.105 L290.0052,194.105 C290.0052,190.139 286.7652,186.929 282.7752,186.929" id="Fill-1099"></path>
                    <path d="M196.0224,172.6136 C192.0324,172.6136 188.7924,175.8296 188.7924,179.7896 L203.2524,179.7896 C203.2524,175.8296 200.0124,172.6136 196.0224,172.6136" id="Fill-1100"></path>
                    <path d="M181.5672,186.9614 C185.5572,186.9614 188.7912,183.7514 188.7912,179.7854 L174.3312,179.7854 C174.3312,183.7514 177.5712,186.9614 181.5672,186.9614" id="Fill-1101"></path>
                    <path d="M174.3342,194.1026 C174.3342,198.0626 177.5682,201.2786 181.5642,201.2786 C185.5542,201.2786 188.7942,198.0626 188.7942,194.1026 L174.3342,194.1026 Z" id="Fill-1102"></path>
                    <path d="M196.0224,186.929 C192.0264,186.929 188.7924,190.139 188.7924,194.105 L203.2524,194.105 C203.2524,190.139 200.0124,186.929 196.0224,186.929" id="Fill-1103"></path>
                    <path d="M311.694,201.2594 C307.704,201.2594 304.464,204.4694 304.464,208.4354 L318.924,208.4354 C318.924,204.4694 315.684,201.2594 311.694,201.2594" id="Fill-1104"></path>
                    <path d="M297.2376,215.6078 C301.2276,215.6078 304.4616,212.3918 304.4616,208.4318 L290.0076,208.4318 C290.0076,212.3918 293.2416,215.6078 297.2376,215.6078" id="Fill-1105"></path>
                    <path d="M290.0052,222.7454 C290.0052,226.7054 293.2452,229.9214 297.2352,229.9214 C301.2252,229.9214 304.4652,226.7054 304.4652,222.7454 L290.0052,222.7454 Z" id="Fill-1106"></path>
                    <path d="M311.694,215.5718 C307.698,215.5718 304.464,218.7818 304.464,222.7478 L318.924,222.7478 C318.924,218.7818 315.684,215.5718 311.694,215.5718" id="Fill-1107"></path>
                    <path d="M167.1048,201.2594 C163.1148,201.2594 159.8748,204.4694 159.8748,208.4354 L174.3348,208.4354 C174.3348,204.4694 171.0948,201.2594 167.1048,201.2594" id="Fill-1108"></path>
                    <path d="M152.6484,215.6078 C156.6384,215.6078 159.8724,212.3918 159.8724,208.4318 L145.4184,208.4318 C145.4184,212.3918 148.6524,215.6078 152.6484,215.6078" id="Fill-1109"></path>
                    <path d="M145.4166,222.7454 C145.4166,226.7054 148.6566,229.9214 152.6466,229.9214 C156.6366,229.9214 159.8766,226.7054 159.8766,222.7454 L145.4166,222.7454 Z" id="Fill-1110"></path>
                    <path d="M167.1048,215.5718 C163.1088,215.5718 159.8748,218.7818 159.8748,222.7478 L174.3348,222.7478 C174.3348,218.7818 171.0948,215.5718 167.1048,215.5718" id="Fill-1111"></path>
                    <path d="M109.2732,201.2594 C105.2772,201.2594 102.0432,204.4694 102.0432,208.4354 L116.5032,208.4354 C116.5032,204.4694 113.2632,201.2594 109.2732,201.2594" id="Fill-1112"></path>
                    <path d="M94.8132,215.6078 C98.8032,215.6078 102.0432,212.3918 102.0432,208.4318 L87.5832,208.4318 C87.5832,212.3918 90.8232,215.6078 94.8132,215.6078" id="Fill-1113"></path>
                    <path d="M87.5802,222.7454 C87.5802,226.7054 90.8202,229.9214 94.8162,229.9214 C98.8062,229.9214 102.0402,226.7054 102.0402,222.7454 L87.5862,222.7454 L87.5802,222.7454 Z" id="Fill-1114"></path>
                    <path d="M109.2732,215.5718 C105.2772,215.5718 102.0432,218.7818 102.0432,222.7478 L116.5032,222.7478 C116.5032,218.7818 113.2632,215.5718 109.2732,215.5718" id="Fill-1115"></path>
                    <path d="M51.4338,201.2594 C47.4438,201.2594 44.2038,204.4694 44.2038,208.4354 L58.6638,208.4354 C58.6638,204.4694 55.4238,201.2594 51.4338,201.2594" id="Fill-1116"></path>
                    <path d="M36.9786,215.6078 C40.9686,215.6078 44.2026,212.3918 44.2026,208.4318 L29.7426,208.4318 C29.7426,212.3918 32.9826,215.6078 36.9786,215.6078" id="Fill-1117"></path>
                    <path d="M29.745,222.7454 C29.745,226.7054 32.985,229.9214 36.975,229.9214 C40.965,229.9214 44.205,226.7054 44.205,222.7454 L29.745,222.7454 Z" id="Fill-1118"></path>
                    <path d="M51.4338,215.5718 C47.4378,215.5718 44.2038,218.7818 44.2038,222.7478 L58.6638,222.7478 C58.6638,218.7818 55.4238,215.5718 51.4338,215.5718" id="Fill-1119"></path>
                    <path d="M80.3454,229.946 C76.3494,229.946 73.1154,233.156 73.1154,237.122 L87.5754,237.122 C87.5754,233.156 84.3354,229.946 80.3454,229.946" id="Fill-1120"></path>
                    <path d="M65.886,244.2932 C69.876,244.2932 73.116,241.0772 73.116,237.1172 L58.656,237.1172 C58.656,241.0772 61.896,244.2932 65.886,244.2932" id="Fill-1121"></path>
                    <path d="M58.6524,251.4344 C58.6524,255.3944 61.8924,258.6044 65.8884,258.6044 C69.8784,258.6044 73.1124,255.3944 73.1124,251.4344 L58.6584,251.4344 L58.6524,251.4344 Z" id="Fill-1122"></path>
                    <path d="M80.3454,244.2608 C76.3494,244.2608 73.1154,247.4708 73.1154,251.4368 L87.5754,251.4368 C87.5754,247.4708 84.3354,244.2608 80.3454,244.2608" id="Fill-1123"></path>
                    <path d="M167.1048,172.5644 C163.1148,172.5644 159.8748,175.7744 159.8748,179.7404 L174.3348,179.7404 C174.3348,175.7744 171.0948,172.5644 167.1048,172.5644" id="Fill-1124"></path>
                    <path d="M152.6484,186.9116 C156.6384,186.9116 159.8724,183.6956 159.8724,179.7356 L145.4184,179.7356 C145.4184,183.6956 148.6524,186.9116 152.6484,186.9116" id="Fill-1125"></path>
                    <path d="M145.4166,194.0498 C145.4166,198.0098 148.6566,201.2258 152.6466,201.2258 C156.6366,201.2258 159.8766,198.0098 159.8766,194.0498 L145.4166,194.0498 Z" id="Fill-1126"></path>
                    <path d="M167.1048,186.8756 C163.1088,186.8756 159.8748,190.0916 159.8748,194.0516 L174.3348,194.0516 C174.3348,190.0916 171.0948,186.8756 167.1048,186.8756" id="Fill-1127"></path>
                    <path d="M311.7996,172.5644 C307.8096,172.5644 304.5696,175.7744 304.5696,179.7404 L319.0296,179.7404 C319.0296,175.7744 315.7956,172.5644 311.7996,172.5644" id="Fill-1128"></path>
                    <path d="M297.3444,186.9116 C301.3344,186.9116 304.5744,183.6956 304.5744,179.7356 L290.1084,179.7356 C290.1084,183.6956 293.3484,186.9116 297.3444,186.9116" id="Fill-1129"></path>
                    <path d="M290.1108,194.0498 C290.1108,198.0098 293.3508,201.2258 297.3408,201.2258 C301.3308,201.2258 304.5708,198.0098 304.5708,194.0498 L290.1108,194.0498 Z" id="Fill-1130"></path>
                    <path d="M311.7996,186.8756 C307.8096,186.8756 304.5696,190.0916 304.5696,194.0516 L319.0296,194.0516 C319.0296,190.0916 315.7956,186.8756 311.7996,186.8756" id="Fill-1131"></path>
                    <path d="M311.7996,143.8688 C307.8096,143.8688 304.5696,147.0788 304.5696,151.0448 L319.0296,151.0448 C319.0296,147.0788 315.7956,143.8688 311.7996,143.8688" id="Fill-1132"></path>
                    <path d="M297.3444,158.2166 C301.3344,158.2166 304.5744,155.0006 304.5744,151.0406 L290.1084,151.0406 C290.1084,155.0006 293.3484,158.2166 297.3444,158.2166" id="Fill-1133"></path>
                    <path d="M290.1108,165.3542 C290.1108,169.3142 293.3508,172.5302 297.3408,172.5302 C301.3308,172.5302 304.5708,169.3142 304.5708,165.3542 L290.1108,165.3542 Z" id="Fill-1134"></path>
                    <path d="M311.7996,158.18 C307.8096,158.18 304.5696,161.39 304.5696,165.356 L319.0296,165.356 C319.0296,161.39 315.7956,158.18 311.7996,158.18" id="Fill-1135"></path>
                    <path d="M282.7752,115.1732 C278.7852,115.1732 275.5452,118.3832 275.5452,122.3492 L290.0052,122.3492 C290.0052,118.3832 286.7712,115.1732 282.7752,115.1732" id="Fill-1136"></path>
                    <path d="M268.32,129.521 C272.31,129.521 275.55,126.305 275.55,122.345 L261.09,122.345 C261.09,126.305 264.324,129.521 268.32,129.521" id="Fill-1137"></path>
                    <path d="M261.0876,136.658 C261.0876,140.618 264.3276,143.834 268.3176,143.834 C272.3076,143.834 275.5476,140.618 275.5476,136.658 L261.0876,136.658 Z" id="Fill-1138"></path>
                    <path d="M282.7752,129.4844 C278.7852,129.4844 275.5452,132.6944 275.5452,136.6604 L290.0052,136.6604 C290.0052,132.6944 286.7712,129.4844 282.7752,129.4844" id="Fill-1139"></path>
                    <path d="M253.8576,86.441 C249.8676,86.441 246.6276,89.657 246.6276,93.623 L261.0876,93.623 C261.0876,89.657 257.8536,86.441 253.8576,86.441" id="Fill-1140"></path>
                    <path d="M239.4024,100.8068 C243.3924,100.8068 246.6324,97.5848 246.6324,93.6248 L232.1664,93.6248 C232.1664,97.5848 235.4064,100.8068 239.4024,100.8068" id="Fill-1141"></path>
                    <path d="M232.1688,107.954 C232.1688,111.92 235.4088,115.136 239.3988,115.136 C243.3888,115.136 246.6288,111.92 246.6288,107.954 L232.1688,107.954 Z" id="Fill-1142"></path>
                    <path d="M253.8576,100.7708 C249.8676,100.7708 246.6276,103.9868 246.6276,107.9528 L261.0876,107.9528 C261.0876,103.9868 257.8536,100.7708 253.8576,100.7708" id="Fill-1143"></path>
                    <path d="M282.7752,86.4776 C278.7792,86.4776 275.5452,89.6876 275.5452,93.6536 L290.0052,93.6536 C290.0052,89.6876 286.7712,86.4776 282.7752,86.4776" id="Fill-1144"></path>
                    <path d="M268.3182,100.8254 C272.3082,100.8254 275.5482,97.6094 275.5482,93.6494 L261.0882,93.6494 C261.0882,97.6094 264.3222,100.8254 268.3182,100.8254" id="Fill-1145"></path>
                    <path d="M261.0876,107.9624 C261.0876,111.9224 264.3216,115.1384 268.3176,115.1384 C272.3076,115.1384 275.5476,111.9224 275.5476,107.9624 L261.0876,107.9624 Z" id="Fill-1146"></path>
                    <path d="M282.7752,100.7888 C278.7792,100.7888 275.5452,104.0048 275.5452,107.9648 L290.0052,107.9648 C290.0052,104.0048 286.7712,100.7888 282.7752,100.7888" id="Fill-1147"></path>
                    <path d="M224.943,86.4608 C220.947,86.4608 217.713,89.6708 217.713,93.6368 L232.173,93.6368 C232.173,89.6708 228.933,86.4608 224.943,86.4608" id="Fill-1148"></path>
                    <path d="M210.4848,100.8086 C214.4748,100.8086 217.7148,97.5926 217.7148,93.6326 L203.2548,93.6326 C203.2548,97.5926 206.4948,100.8086 210.4848,100.8086" id="Fill-1149"></path>
                    <path d="M203.2542,107.9462 C203.2542,111.9062 206.4882,115.1222 210.4842,115.1222 C214.4742,115.1222 217.7142,111.9062 217.7142,107.9462 L203.2542,107.9462 Z" id="Fill-1150"></path>
                    <path d="M224.943,100.772 C220.947,100.772 217.713,103.988 217.713,107.948 L232.173,107.948 C232.173,103.988 228.933,100.772 224.943,100.772" id="Fill-1151"></path>
                    <path d="M196.0224,86.4608 C192.0264,86.4608 188.7924,89.6708 188.7924,93.6368 L203.2524,93.6368 C203.2524,89.6708 200.0184,86.4608 196.0224,86.4608" id="Fill-1152"></path>
                    <path d="M181.5642,100.8086 C185.5542,100.8086 188.7942,97.5926 188.7942,93.6326 L174.3342,93.6326 C174.3342,97.5926 177.5682,100.8086 181.5642,100.8086" id="Fill-1153"></path>
                    <path d="M174.3342,107.9462 C174.3342,111.9062 177.5682,115.1222 181.5642,115.1222 C185.5542,115.1222 188.7942,111.9062 188.7942,107.9462 L174.3342,107.9462 Z" id="Fill-1154"></path>
                    <path d="M196.0224,100.772 C192.0264,100.772 188.7924,103.988 188.7924,107.948 L203.2524,107.948 C203.2524,103.988 200.0184,100.772 196.0224,100.772" id="Fill-1155"></path>
                    <path d="M239.4024,72.416 C243.3924,72.416 246.6324,69.2 246.6324,65.24 L232.1664,65.24 C232.1664,69.2 235.4064,72.416 239.4024,72.416" id="Fill-1156"></path>
                    <path d="M232.1688,79.5572 C232.1688,83.5172 235.4088,86.7272 239.3988,86.7272 C243.3888,86.7272 246.6288,83.5172 246.6288,79.5572 L232.1688,79.5572 Z" id="Fill-1157"></path>
                    <path d="M224.943,58.052 C220.947,58.052 217.713,61.262 217.713,65.228 L232.173,65.228 C232.173,61.262 228.933,58.052 224.943,58.052" id="Fill-1158"></path>
                    <path d="M224.943,72.3668 C220.947,72.3668 217.713,75.5768 217.713,79.5428 L232.173,79.5428 C232.173,75.5768 228.933,72.3668 224.943,72.3668" id="Fill-1159"></path>
                    <path d="M239.4024,43.742 C243.3924,43.742 246.6324,40.526 246.6324,36.566 L232.1664,36.566 C232.1664,40.526 235.4064,43.742 239.4024,43.742" id="Fill-1160"></path>
                    <path d="M232.1688,50.8808 C232.1688,54.8408 235.4088,58.0508 239.3988,58.0508 C243.3888,58.0508 246.6288,54.8408 246.6288,50.8808 L232.1688,50.8808 Z" id="Fill-1161"></path>
                    <path d="M224.943,29.3774 C220.947,29.3774 217.713,32.5874 217.713,36.5534 L232.173,36.5534 C232.173,32.5874 228.933,29.3774 224.943,29.3774" id="Fill-1162"></path>
                    <path d="M224.943,43.691 C220.947,43.691 217.713,46.901 217.713,50.867 L232.173,50.867 C232.173,46.901 228.933,43.691 224.943,43.691" id="Fill-1163"></path>
                    <path d="M239.4024,15.0662 C243.3924,15.0662 246.6324,11.8502 246.6324,7.8902 L232.1664,7.8902 C232.1664,11.8502 235.4064,15.0662 239.4024,15.0662" id="Fill-1164"></path>
                    <path d="M232.1688,22.205 C232.1688,26.165 235.4088,29.375 239.3988,29.375 C243.3888,29.375 246.6288,26.165 246.6288,22.205 L232.1688,22.205 Z" id="Fill-1165"></path>
                    <path d="M224.943,0.7016 C220.947,0.7016 217.713,3.9116 217.713,7.8776 L232.173,7.8776 C232.173,3.9116 228.933,0.7016 224.943,0.7016" id="Fill-1166"></path>
                    <path d="M224.943,15.0146 C220.947,15.0146 217.713,18.2246 217.713,22.1906 L232.173,22.1906 C232.173,18.2246 228.933,15.0146 224.943,15.0146" id="Fill-1167"></path>
                    <path d="M210.4848,15.0662 C214.4748,15.0662 217.7148,11.8502 217.7148,7.8902 L203.2488,7.8902 C203.2488,11.8502 206.4888,15.0662 210.4848,15.0662" id="Fill-1168"></path>
                    <path d="M203.2512,22.205 C203.2512,26.165 206.4912,29.375 210.4812,29.375 C214.4712,29.375 217.7112,26.165 217.7112,22.205 L203.2512,22.205 Z" id="Fill-1169"></path>
                    <path d="M196.0254,0.7016 C192.0294,0.7016 188.7954,3.9116 188.7954,7.8776 L203.2554,7.8776 C203.2554,3.9116 200.0154,0.7016 196.0254,0.7016" id="Fill-1170"></path>
                    <path d="M196.0254,15.0146 C192.0294,15.0146 188.7954,18.2246 188.7954,22.1906 L203.2554,22.1906 C203.2554,18.2246 200.0154,15.0146 196.0254,15.0146" id="Fill-1171"></path>
                    <path d="M181.563,15.0662 C185.553,15.0662 188.793,11.8502 188.793,7.8902 L174.333,7.8902 C174.333,11.8502 177.567,15.0662 181.563,15.0662" id="Fill-1172"></path>
                    <path d="M174.3342,22.205 C174.3342,26.165 177.5682,29.375 181.5642,29.375 C185.5542,29.375 188.7942,26.165 188.7942,22.205 L174.3342,22.205 Z" id="Fill-1173"></path>
                    <path d="M167.1048,0.7016 C163.1148,0.7016 159.8748,3.9116 159.8748,7.8776 L174.3348,7.8776 C174.3348,3.9116 171.1008,0.7016 167.1048,0.7016" id="Fill-1174"></path>
                    <path d="M167.1048,15.0146 C163.1148,15.0146 159.8748,18.2246 159.8748,22.1906 L174.3348,22.1906 C174.3348,18.2246 171.1008,15.0146 167.1048,15.0146" id="Fill-1175"></path>
                    <path d="M152.6454,15.0662 C156.6354,15.0662 159.8754,11.8502 159.8754,7.8902 L145.4154,7.8902 C145.4154,11.8502 148.6494,15.0662 152.6454,15.0662" id="Fill-1176"></path>
                    <path d="M145.4148,22.205 C145.4148,26.165 148.6488,29.375 152.6448,29.375 C156.6348,29.375 159.8748,26.165 159.8748,22.205 L145.4148,22.205 Z" id="Fill-1177"></path>
                    <path d="M138.1878,0.7016 C134.1918,0.7016 130.9578,3.9116 130.9578,7.8776 L145.4178,7.8776 C145.4178,3.9116 142.1838,0.7016 138.1878,0.7016" id="Fill-1178"></path>
                    <path d="M138.1878,15.0146 C134.1918,15.0146 130.9578,18.2246 130.9578,22.1906 L145.4178,22.1906 C145.4178,18.2246 142.1838,15.0146 138.1878,15.0146" id="Fill-1179"></path>
                    <path d="M123.7278,15.0662 C127.7178,15.0662 130.9578,11.8502 130.9578,7.8902 L116.4978,7.8902 C116.4978,11.8502 119.7318,15.0662 123.7278,15.0662" id="Fill-1180"></path>
                    <path d="M116.4978,22.205 C116.4978,26.165 119.7318,29.375 123.7278,29.375 C127.7178,29.375 130.9578,26.165 130.9578,22.205 L116.4978,22.205 Z" id="Fill-1181"></path>
                    <path d="M109.2684,0.7016 C105.2724,0.7016 102.0384,3.9116 102.0384,7.8776 L116.4984,7.8776 C116.4984,3.9116 113.2644,0.7016 109.2684,0.7016" id="Fill-1182"></path>
                    <path d="M109.2684,15.0146 C105.2724,15.0146 102.0384,18.2246 102.0384,22.1906 L116.4984,22.1906 C116.4984,18.2246 113.2644,15.0146 109.2684,15.0146" id="Fill-1183"></path>
                    <path d="M94.8108,15.0662 C98.8008,15.0662 102.0408,11.8502 102.0408,7.8902 L87.5808,7.8902 C87.5808,11.8502 90.8148,15.0662 94.8108,15.0662" id="Fill-1184"></path>
                    <path d="M87.5784,22.205 C87.5784,26.165 90.8184,29.375 94.8084,29.375 C98.7984,29.375 102.0384,26.165 102.0384,22.205 L87.5784,22.205 Z" id="Fill-1185"></path>
                    <path d="M80.3508,0.7016 C76.3548,0.7016 73.1208,3.9116 73.1208,7.8776 L87.5808,7.8776 C87.5808,3.9116 84.3468,0.7016 80.3508,0.7016" id="Fill-1186"></path>
                    <path d="M80.3508,15.0146 C76.3548,15.0146 73.1208,18.2246 73.1208,22.1906 L87.5808,22.1906 C87.5808,18.2246 84.3468,15.0146 80.3508,15.0146" id="Fill-1187"></path>
                    <path d="M65.8932,15.0662 C69.8832,15.0662 73.1232,11.8502 73.1232,7.8902 L58.6632,7.8902 C58.6632,11.8502 61.8972,15.0662 65.8932,15.0662" id="Fill-1188"></path>
                    <path d="M58.6614,22.205 C58.6614,26.165 61.8954,29.375 65.8914,29.375 C69.8814,29.375 73.1214,26.165 73.1214,22.205 L58.6614,22.205 Z" id="Fill-1189"></path>
                    <path d="M51.4338,0.7016 C47.4378,0.7016 44.2038,3.9116 44.2038,7.8776 L58.6638,7.8776 C58.6638,3.9116 55.4298,0.7016 51.4338,0.7016" id="Fill-1190"></path>
                    <path d="M51.4338,15.0146 C47.4378,15.0146 44.2038,18.2246 44.2038,22.1906 L58.6638,22.1906 C58.6638,18.2246 55.4298,15.0146 51.4338,15.0146" id="Fill-1191"></path>
                    <path d="M36.9744,15.0662 C40.9644,15.0662 44.2044,11.8502 44.2044,7.8902 L29.7444,7.8902 C29.7444,11.8502 32.9784,15.0662 36.9744,15.0662" id="Fill-1192"></path>
                    <path d="M29.742,22.205 C29.742,26.165 32.976,29.375 36.972,29.375 C40.962,29.375 44.202,26.165 44.202,22.205 L29.742,22.205 Z" id="Fill-1193"></path>
                    <path d="M22.5162,0.7016 C18.5202,0.7016 15.2862,3.9116 15.2862,7.8776 L29.7462,7.8776 C29.7462,3.9116 26.5062,0.7016 22.5162,0.7016" id="Fill-1194"></path>
                    <path d="M22.5162,15.0146 C18.5202,15.0146 15.2862,18.2246 15.2862,22.1906 L29.7462,22.1906 C29.7462,18.2246 26.5062,15.0146 22.5162,15.0146" id="Fill-1195"></path>
                    <path d="M268.317,15.0662 C272.307,15.0662 275.547,11.8502 275.547,7.8902 L261.087,7.8902 C261.087,11.8502 264.327,15.0662 268.317,15.0662" id="Fill-1196"></path>
                    <path d="M261.0876,22.205 C261.0876,26.165 264.3216,29.375 268.3176,29.375 C272.3076,29.375 275.5476,26.165 275.5476,22.205 L261.0876,22.205 Z" id="Fill-1197"></path>
                    <path d="M253.8576,0.7016 C249.8676,0.7016 246.6276,3.9116 246.6276,7.8776 L261.0876,7.8776 C261.0876,3.9116 257.8536,0.7016 253.8576,0.7016" id="Fill-1198"></path>
                    <path d="M253.8576,15.0146 C249.8676,15.0146 246.6276,18.2246 246.6276,22.1906 L261.0876,22.1906 C261.0876,18.2246 257.8536,15.0146 253.8576,15.0146" id="Fill-1199"></path>
                    <path d="M297.2346,15.0662 C301.2246,15.0662 304.4646,11.8502 304.4646,7.8902 L290.0046,7.8902 C290.0046,11.8502 293.2446,15.0662 297.2346,15.0662" id="Fill-1200"></path>
                    <path d="M290.0052,22.205 C290.0052,26.165 293.2392,29.375 297.2352,29.375 C301.2252,29.375 304.4652,26.165 304.4652,22.205 L290.0052,22.205 Z" id="Fill-1201"></path>
                    <path d="M282.7752,0.7016 C278.7852,0.7016 275.5452,3.9116 275.5452,7.8776 L290.0052,7.8776 C290.0052,3.9116 286.7712,0.7016 282.7752,0.7016" id="Fill-1202"></path>
                    <path d="M282.7752,15.0146 C278.7852,15.0146 275.5452,18.2246 275.5452,22.1906 L290.0052,22.1906 C290.0052,18.2246 286.7712,15.0146 282.7752,15.0146" id="Fill-1203"></path>
                    <path d="M326.1516,15.0662 C330.1416,15.0662 333.3816,11.8502 333.3816,7.8902 L318.9216,7.8902 C318.9216,11.8502 322.1556,15.0662 326.1516,15.0662" id="Fill-1204"></path>
                    <path d="M318.9216,22.205 C318.9216,26.165 322.1556,29.375 326.1516,29.375 C330.1416,29.375 333.3816,26.165 333.3816,22.205 L318.9216,22.205 Z" id="Fill-1205"></path>
                    <path d="M311.694,0.7016 C307.698,0.7016 304.464,3.9116 304.464,7.8776 L318.924,7.8776 C318.924,3.9116 315.69,0.7016 311.694,0.7016" id="Fill-1206"></path>
                    <path d="M311.694,15.0146 C307.698,15.0146 304.464,18.2246 304.464,22.1906 L318.924,22.1906 C318.924,18.2246 315.69,15.0146 311.694,15.0146" id="Fill-1207"></path>
                    <path d="M355.0692,15.0662 C359.0592,15.0662 362.2992,11.8502 362.2992,7.8902 L347.8392,7.8902 C347.8392,11.8502 351.0732,15.0662 355.0692,15.0662" id="Fill-1208"></path>
                    <path d="M347.8386,22.205 C347.8386,26.165 351.0726,29.375 355.0686,29.375 C359.0586,29.375 362.2986,26.165 362.2986,22.205 L347.8386,22.205 Z" id="Fill-1209"></path>
                    <path d="M340.6116,0.7016 C336.6156,0.7016 333.3816,3.9116 333.3816,7.8776 L347.8416,7.8776 C347.8416,3.9116 344.6076,0.7016 340.6116,0.7016" id="Fill-1210"></path>
                    <path d="M340.6116,15.0146 C336.6156,15.0146 333.3816,18.2246 333.3816,22.1906 L347.8416,22.1906 C347.8416,18.2246 344.6076,15.0146 340.6116,15.0146" id="Fill-1211"></path>
                    <path d="M383.988,15.0662 C387.978,15.0662 391.218,11.8502 391.218,7.8902 L376.758,7.8902 C376.758,11.8502 379.992,15.0662 383.988,15.0662" id="Fill-1212"></path>
                    <path d="M376.7562,22.205 C376.7562,26.165 379.9902,29.375 383.9862,29.375 C387.9762,29.375 391.2162,26.165 391.2162,22.205 L376.7562,22.205 Z" id="Fill-1213"></path>
                    <path d="M369.5286,0.7016 C365.5326,0.7016 362.2986,3.9116 362.2986,7.8776 L376.7586,7.8776 C376.7586,3.9116 373.5246,0.7016 369.5286,0.7016" id="Fill-1214"></path>
                    <path d="M369.5286,15.0146 C365.5326,15.0146 362.2986,18.2246 362.2986,22.1906 L376.7586,22.1906 C376.7586,18.2246 373.5246,15.0146 369.5286,15.0146" id="Fill-1215"></path>
                    <path d="M412.9056,15.0662 C416.8956,15.0662 420.1356,11.8502 420.1356,7.8902 L405.6756,7.8902 C405.6756,11.8502 408.9096,15.0662 412.9056,15.0662" id="Fill-1216"></path>
                    <path d="M405.6738,22.205 C405.6738,26.165 408.9078,29.375 412.9038,29.375 C416.8938,29.375 420.1338,26.165 420.1338,22.205 L405.6738,22.205 Z" id="Fill-1217"></path>
                    <path d="M398.4462,0.7016 C394.4502,0.7016 391.2162,3.9116 391.2162,7.8776 L405.6762,7.8776 C405.6762,3.9116 402.4422,0.7016 398.4462,0.7016" id="Fill-1218"></path>
                    <path d="M398.4462,15.0146 C394.4502,15.0146 391.2162,18.2246 391.2162,22.1906 L405.6762,22.1906 C405.6762,18.2246 402.4422,15.0146 398.4462,15.0146" id="Fill-1219"></path>
                    <path d="M441.8232,15.0662 C445.8132,15.0662 449.0532,11.8502 449.0532,7.8902 L434.5932,7.8902 C434.5932,11.8502 437.8332,15.0662 441.8232,15.0662" id="Fill-1220"></path>
                    <path d="M434.5944,22.205 C434.5944,26.165 437.8284,29.375 441.8244,29.375 C445.8144,29.375 449.0544,26.165 449.0544,22.205 L434.5944,22.205 Z" id="Fill-1221"></path>
                    <path d="M427.3638,0.7016 C423.3738,0.7016 420.1338,3.9116 420.1338,7.8776 L434.5938,7.8776 C434.5938,3.9116 431.3598,0.7016 427.3638,0.7016" id="Fill-1222"></path>
                    <path d="M427.3638,15.0146 C423.3738,15.0146 420.1338,18.2246 420.1338,22.1906 L434.5938,22.1906 C434.5938,18.2246 431.3598,15.0146 427.3638,15.0146" id="Fill-1223"></path>
                    <path d="M196.0224,115.1564 C192.0324,115.1564 188.7924,118.3664 188.7924,122.3324 L203.2524,122.3324 C203.2524,118.3664 200.0184,115.1564 196.0224,115.1564" id="Fill-1224"></path>
                    <path d="M181.5672,129.5042 C185.5572,129.5042 188.7972,126.2882 188.7972,122.3282 L174.3312,122.3282 C174.3312,126.2882 177.5712,129.5042 181.5672,129.5042" id="Fill-1225"></path>
                    <path d="M174.3342,136.6418 C174.3342,140.6018 177.5682,143.8178 181.5642,143.8178 C185.5542,143.8178 188.7942,140.6018 188.7942,136.6418 L174.3342,136.6418 Z" id="Fill-1226"></path>
                    <path d="M196.0224,129.4682 C192.0324,129.4682 188.7924,132.6782 188.7924,136.6442 L203.2524,136.6442 C203.2524,132.6782 200.0184,129.4682 196.0224,129.4682" id="Fill-1227"></path>
                    <path d="M167.1048,143.885 C163.1148,143.885 159.8748,147.095 159.8748,151.061 L174.3348,151.061 C174.3348,147.095 171.1008,143.885 167.1048,143.885" id="Fill-1228"></path>
                    <path d="M152.6484,158.2328 C156.6384,158.2328 159.8784,155.0228 159.8784,151.0568 L145.4184,151.0568 C145.4184,155.0228 148.6524,158.2328 152.6484,158.2328" id="Fill-1229"></path>
                    <path d="M145.4166,165.374 C145.4166,169.334 148.6566,172.544 152.6466,172.544 C156.6366,172.544 159.8766,169.334 159.8766,165.374 L145.4166,165.374 Z" id="Fill-1230"></path>
                    <path d="M167.1048,158.1998 C163.1148,158.1998 159.8748,161.4098 159.8748,165.3758 L174.3348,165.3758 C174.3348,161.4098 171.1008,158.1998 167.1048,158.1998" id="Fill-1231"></path>
                    <path d="M340.7214,172.5644 C336.7254,172.5644 333.4914,175.7744 333.4914,179.7404 L347.9514,179.7404 C347.9514,175.7744 344.7114,172.5644 340.7214,172.5644" id="Fill-1232"></path>
                    <path d="M326.262,186.9116 C330.252,186.9116 333.492,183.6956 333.492,179.7356 L319.032,179.7356 C319.032,183.6956 322.272,186.9116 326.262,186.9116" id="Fill-1233"></path>
                    <path d="M319.0284,194.0498 C319.0284,198.0098 322.2684,201.2258 326.2644,201.2258 C330.2544,201.2258 333.4884,198.0098 333.4884,194.0498 L319.0344,194.0498 L319.0284,194.0498 Z" id="Fill-1234"></path>
                    <path d="M340.7214,186.8756 C336.7254,186.8756 333.4914,190.0916 333.4914,194.0516 L347.9514,194.0516 C347.9514,190.0916 344.7114,186.8756 340.7214,186.8756" id="Fill-1235"></path>
                    <path d="M369.5286,172.5644 C365.5386,172.5644 362.2986,175.7744 362.2986,179.7404 L376.7586,179.7404 C376.7586,175.7744 373.5186,172.5644 369.5286,172.5644" id="Fill-1236"></path>
                    <path d="M355.074,186.9116 C359.064,186.9116 362.298,183.6956 362.298,179.7356 L347.838,179.7356 C347.838,183.6956 351.078,186.9116 355.074,186.9116" id="Fill-1237"></path>
                    <path d="M347.8404,194.0498 C347.8404,198.0098 351.0804,201.2258 355.0704,201.2258 C359.0604,201.2258 362.3004,198.0098 362.3004,194.0498 L347.8404,194.0498 Z" id="Fill-1238"></path>
                    <path d="M369.5286,186.8756 C365.5326,186.8756 362.2986,190.0916 362.2986,194.0516 L376.7586,194.0516 C376.7586,190.0916 373.5186,186.8756 369.5286,186.8756" id="Fill-1239"></path>
                    <path d="M398.4462,172.5644 C394.4562,172.5644 391.2162,175.7744 391.2162,179.7404 L405.6762,179.7404 C405.6762,175.7744 402.4362,172.5644 398.4462,172.5644" id="Fill-1240"></path>
                    <path d="M383.991,186.9116 C387.981,186.9116 391.215,183.6956 391.215,179.7356 L376.755,179.7356 C376.755,183.6956 379.995,186.9116 383.991,186.9116" id="Fill-1241"></path>
                    <path d="M376.758,194.0498 C376.758,198.0098 379.998,201.2258 383.988,201.2258 C387.978,201.2258 391.218,198.0098 391.218,194.0498 L376.758,194.0498 Z" id="Fill-1242"></path>
                    <path d="M398.4462,186.8756 C394.4502,186.8756 391.2162,190.0916 391.2162,194.0516 L405.6762,194.0516 C405.6762,190.0916 402.4362,186.8756 398.4462,186.8756" id="Fill-1243"></path>
                    <path d="M427.3638,172.5644 C423.3738,172.5644 420.1338,175.7744 420.1338,179.7404 L434.5938,179.7404 C434.5938,175.7744 431.3538,172.5644 427.3638,172.5644" id="Fill-1244"></path>
                    <path d="M412.9086,186.9116 C416.8986,186.9116 420.1326,183.6956 420.1326,179.7356 L405.6726,179.7356 C405.6726,183.6956 408.9126,186.9116 412.9086,186.9116" id="Fill-1245"></path>
                    <path d="M405.675,194.0498 C405.675,198.0098 408.915,201.2258 412.905,201.2258 C416.895,201.2258 420.135,198.0098 420.135,194.0498 L405.675,194.0498 Z" id="Fill-1246"></path>
                    <path d="M427.3638,186.8756 C423.3678,186.8756 420.1338,190.0916 420.1338,194.0516 L434.5938,194.0516 C434.5938,190.0916 431.3538,186.8756 427.3638,186.8756" id="Fill-1247"></path>
                    <path d="M427.3638,201.2432 C423.3738,201.2432 420.1338,204.4532 420.1338,208.4192 L434.5938,208.4192 C434.5938,204.4532 431.3538,201.2432 427.3638,201.2432" id="Fill-1248"></path>
                    <path d="M412.9086,215.591 C416.8986,215.591 420.1326,212.375 420.1326,208.415 L405.6726,208.415 C405.6726,212.375 408.9126,215.591 412.9086,215.591" id="Fill-1249"></path>
                    <path d="M405.675,222.7286 C405.675,226.6886 408.915,229.9046 412.905,229.9046 C416.895,229.9046 420.135,226.6886 420.135,222.7286 L405.675,222.7286 Z" id="Fill-1250"></path>
                    <path d="M427.3638,215.555 C423.3678,215.555 420.1338,218.765 420.1338,222.731 L434.5938,222.731 C434.5938,218.765 431.3538,215.555 427.3638,215.555" id="Fill-1251"></path>
                    <path d="M398.4492,229.9718 C394.4532,229.9718 391.2192,233.1818 391.2192,237.1478 L405.6792,237.1478 C405.6792,233.1818 402.4392,229.9718 398.4492,229.9718" id="Fill-1252"></path>
                    <path d="M383.991,244.3196 C387.981,244.3196 391.221,241.1036 391.221,237.1436 L376.761,237.1436 C376.761,241.1036 380.001,244.3196 383.991,244.3196" id="Fill-1253"></path>
                    <path d="M376.758,251.4608 C376.758,255.4208 379.998,258.6308 383.994,258.6308 C387.984,258.6308 391.218,255.4208 391.218,251.4608 L376.758,251.4608 L376.758,251.4608 Z" id="Fill-1254"></path>
                    <path d="M398.4492,244.2866 C394.4532,244.2866 391.2192,247.4966 391.2192,251.4626 L405.6792,251.4626 C405.6792,247.4966 402.4392,244.2866 398.4492,244.2866" id="Fill-1255"></path>
                    <path d="M369.5316,201.227 C365.5356,201.227 362.3016,204.437 362.3016,208.403 L376.7616,208.403 C376.7616,204.437 373.5216,201.227 369.5316,201.227" id="Fill-1256"></path>
                    <path d="M355.074,215.5748 C359.064,215.5748 362.304,212.3588 362.304,208.3988 L347.844,208.3988 C347.844,212.3588 351.084,215.5748 355.074,215.5748" id="Fill-1257"></path>
                    <path d="M347.8404,222.7124 C347.8404,226.6724 351.0804,229.8884 355.0764,229.8884 C359.0664,229.8884 362.3004,226.6724 362.3004,222.7124 L347.8404,222.7124 L347.8404,222.7124 Z" id="Fill-1258"></path>
                    <path d="M369.5316,215.5388 C365.5356,215.5388 362.3016,218.7488 362.3016,222.7148 L376.7616,222.7148 C376.7616,218.7488 373.5216,215.5388 369.5316,215.5388" id="Fill-1259"></path>
                    <path d="M456.2814,172.5644 C452.2914,172.5644 449.0514,175.7744 449.0514,179.7404 L463.5114,179.7404 C463.5114,175.7744 460.2714,172.5644 456.2814,172.5644" id="Fill-1260"></path>
                    <path d="M441.8262,186.9116 C445.8162,186.9116 449.0502,183.6956 449.0502,179.7356 L434.5962,179.7356 C434.5962,183.6956 437.8302,186.9116 441.8262,186.9116" id="Fill-1261"></path>
                    <path d="M434.5944,194.0498 C434.5944,198.0098 437.8344,201.2258 441.8244,201.2258 C445.8144,201.2258 449.0544,198.0098 449.0544,194.0498 L434.5944,194.0498 Z" id="Fill-1262"></path>
                    <path d="M456.2814,186.8756 C452.2854,186.8756 449.0514,190.0916 449.0514,194.0516 L463.5114,194.0516 C463.5114,190.0916 460.2714,186.8756 456.2814,186.8756" id="Fill-1263"></path>
                    <path d="M138.1878,172.5644 C134.1978,172.5644 130.9578,175.7744 130.9578,179.7404 L145.4178,179.7404 C145.4178,175.7744 142.1778,172.5644 138.1878,172.5644" id="Fill-1264"></path>
                    <path d="M123.7296,186.9116 C127.7256,186.9116 130.9596,183.6956 130.9596,179.7356 L116.4996,179.7356 C116.4996,183.6956 119.7336,186.9116 123.7296,186.9116" id="Fill-1265"></path>
                    <path d="M116.499,194.0498 C116.499,198.0098 119.739,201.2258 123.729,201.2258 C127.719,201.2258 130.959,198.0098 130.959,194.0498 L116.499,194.0498 Z" id="Fill-1266"></path>
                    <path d="M138.1878,186.8756 C134.1918,186.8756 130.9578,190.0916 130.9578,194.0516 L145.4178,194.0516 C145.4178,190.0916 142.1778,186.8756 138.1878,186.8756" id="Fill-1267"></path>
                    <path d="M109.2684,172.5644 C105.2784,172.5644 102.0384,175.7744 102.0384,179.7404 L116.4984,179.7404 C116.4984,175.7744 113.2584,172.5644 109.2684,172.5644" id="Fill-1268"></path>
                    <path d="M94.8132,186.9116 C98.8032,186.9116 102.0372,183.6956 102.0372,179.7356 L87.5772,179.7356 C87.5772,183.6956 90.8172,186.9116 94.8132,186.9116" id="Fill-1269"></path>
                    <path d="M87.5802,194.0498 C87.5802,198.0098 90.8202,201.2258 94.8102,201.2258 C98.8002,201.2258 102.0402,198.0098 102.0402,194.0498 L87.5802,194.0498 Z" id="Fill-1270"></path>
                    <path d="M109.2684,186.8756 C105.2724,186.8756 102.0384,190.0916 102.0384,194.0516 L116.4984,194.0516 C116.4984,190.0916 113.2584,186.8756 109.2684,186.8756" id="Fill-1271"></path>
                    <path d="M80.3508,172.5644 C76.3608,172.5644 73.1208,175.7744 73.1208,179.7404 L87.5808,179.7404 C87.5808,175.7744 84.3408,172.5644 80.3508,172.5644" id="Fill-1272"></path>
                    <path d="M65.8962,186.9116 C69.8862,186.9116 73.1202,183.6956 73.1202,179.7356 L58.6602,179.7356 C58.6602,183.6956 61.9002,186.9116 65.8962,186.9116" id="Fill-1273"></path>
                    <path d="M58.6626,194.0498 C58.6626,198.0098 61.9026,201.2258 65.8926,201.2258 C69.8826,201.2258 73.1226,198.0098 73.1226,194.0498 L58.6626,194.0498 Z" id="Fill-1274"></path>
                    <path d="M80.3508,186.8756 C76.3548,186.8756 73.1208,190.0916 73.1208,194.0516 L87.5808,194.0516 C87.5808,190.0916 84.3408,186.8756 80.3508,186.8756" id="Fill-1275"></path>
                    <path d="M51.4338,172.5644 C47.4438,172.5644 44.2038,175.7744 44.2038,179.7404 L58.6638,179.7404 C58.6638,175.7744 55.4238,172.5644 51.4338,172.5644" id="Fill-1276"></path>
                    <path d="M36.9786,186.9116 C40.9686,186.9116 44.2026,183.6956 44.2026,179.7356 L29.7426,179.7356 C29.7426,183.6956 32.9826,186.9116 36.9786,186.9116" id="Fill-1277"></path>
                    <path d="M29.745,194.0498 C29.745,198.0098 32.985,201.2258 36.975,201.2258 C40.965,201.2258 44.205,198.0098 44.205,194.0498 L29.745,194.0498 Z" id="Fill-1278"></path>
                    <path d="M51.4338,186.8756 C47.4378,186.8756 44.2038,190.0916 44.2038,194.0516 L58.6638,194.0516 C58.6638,190.0916 55.4238,186.8756 51.4338,186.8756" id="Fill-1279"></path>
                    <path d="M22.5162,172.5644 C18.5262,172.5644 15.2862,175.7744 15.2862,179.7404 L29.7462,179.7404 C29.7462,175.7744 26.5062,172.5644 22.5162,172.5644" id="Fill-1280"></path>
                    <path d="M8.0598,186.9116 C12.0498,186.9116 15.2898,183.6956 15.2898,179.7356 L0.8298,179.7356 C0.8298,183.6956 4.0638,186.9116 8.0598,186.9116" id="Fill-1281"></path>
                    <path d="M0.8274,194.0498 C0.8274,198.0098 4.0674,201.2258 8.0574,201.2258 C12.0474,201.2258 15.2874,198.0098 15.2874,194.0498 L0.8274,194.0498 Z" id="Fill-1282"></path>
                    <path d="M22.5162,186.8756 C18.5202,186.8756 15.2862,190.0916 15.2862,194.0516 L29.7462,194.0516 C29.7462,190.0916 26.5062,186.8756 22.5162,186.8756" id="Fill-1283"></path>
                </g>
            </g>
        </g>
    </g>
</svg>