<?xml version="1.0" encoding="utf-8"?>
<!-- Generator: Adobe Illustrator 19.2.0, SVG Export Plug-In . SVG Version: 6.00 Build 0)  -->
<svg version="1.1" id="Layer_1" xmlns="http://www.w3.org/2000/svg" xmlns:xlink="http://www.w3.org/1999/xlink" x="0px" y="0px"
	 viewBox="0 0 204.1 272.1" style="enable-background:new 0 0 204.1 272.1;" xml:space="preserve">
<style type="text/css">
	.st0{fill:#EB0029;}
</style>
<title>space_ico</title>
<path class="st0" d="M106.3,0c-2.3,0-4.2,1.9-4.2,4.2c0,0,0,0,0,0h8.5C110.5,1.9,108.6,0,106.3,0C106.3,0,106.3,0,106.3,0z"/>
<path class="st0" d="M97.8,8.5c2.3,0,4.2-1.9,4.2-4.3h-8.5C93.6,6.6,95.5,8.5,97.8,8.5z"/>
<path class="st0" d="M93.5,12.8c0,2.3,1.9,4.3,4.2,4.3c0,0,0,0,0,0c2.3,0,4.2-1.9,4.2-4.2c0,0,0,0,0,0H93.5z"/>
<path class="st0" d="M106.3,8.5c-2.3,0-4.2,1.9-4.2,4.2c0,0,0,0,0,0h8.5C110.5,10.4,108.6,8.5,106.3,8.5
	C106.3,8.5,106.3,8.5,106.3,8.5z"/>
<path class="st0" d="M89.3,17c-2.3,0-4.2,1.9-4.2,4.2c0,0,0,0,0,0h8.5C93.5,18.9,91.6,17,89.3,17C89.3,17,89.3,17,89.3,17z"/>
<path class="st0" d="M89.3,25.5c-2.3,0-4.2,1.9-4.2,4.2c0,0,0,0,0,0h8.5C93.5,27.4,91.6,25.5,89.3,25.5
	C89.3,25.5,89.3,25.5,89.3,25.5z"/>
<path class="st0" d="M106.3,17c-2.3,0-4.2,1.9-4.2,4.2c0,0,0,0,0,0h8.5C110.5,18.9,108.6,17,106.3,17C106.3,17,106.3,17,106.3,17z"
	/>
<path class="st0" d="M97.8,25.5c2.3,0,4.2-1.9,4.2-4.3h-8.5C93.6,23.6,95.5,25.5,97.8,25.5z"/>
<path class="st0" d="M93.5,29.8c0,2.3,1.9,4.3,4.2,4.3c0,0,0,0,0,0c2.3,0,4.2-1.9,4.2-4.2c0,0,0,0,0,0H93.5z"/>
<path class="st0" d="M106.3,25.5c-2.3,0-4.2,1.9-4.2,4.2c0,0,0,0,0,0h8.5C110.5,27.4,108.6,25.5,106.3,25.5
	C106.3,25.5,106.3,25.5,106.3,25.5z"/>
<path class="st0" d="M114.8,25.5c2.3,0,4.2-1.9,4.2-4.3h-8.5C110.6,23.6,112.5,25.5,114.8,25.5z"/>
<path class="st0" d="M110.6,29.8c0,2.3,1.9,4.3,4.2,4.3c0,0,0,0,0,0c2.3,0,4.2-1.9,4.2-4.2c0,0,0,0,0,0H110.6z"/>
<path class="st0" d="M89.3,34c-2.3,0-4.2,1.9-4.2,4.2c0,0,0,0,0,0h8.5C93.5,35.9,91.6,34,89.3,34C89.3,34,89.3,34,89.3,34z"/>
<path class="st0" d="M80.8,42.5c2.3,0,4.2-1.9,4.2-4.3h-8.5C76.5,40.6,78.4,42.5,80.8,42.5z"/>
<path class="st0" d="M76.5,46.8c0,2.3,1.9,4.3,4.2,4.3c0,0,0,0,0,0c2.3,0,4.2-1.9,4.2-4.2c0,0,0,0,0,0H76.5z"/>
<path class="st0" d="M89.3,42.5c-2.3,0-4.2,1.9-4.2,4.2c0,0,0,0,0,0h8.5C93.5,44.4,91.6,42.5,89.3,42.5
	C89.3,42.5,89.3,42.5,89.3,42.5z"/>
<path class="st0" d="M106.3,34c-2.3,0-4.2,1.9-4.2,4.2c0,0,0,0,0,0h8.5C110.5,35.9,108.6,34,106.3,34C106.3,34,106.3,34,106.3,34z"
	/>
<path class="st0" d="M97.8,42.5c2.3,0,4.2-1.9,4.2-4.3h-8.5C93.6,40.6,95.5,42.5,97.8,42.5z"/>
<path class="st0" d="M93.5,46.8c0,2.3,1.9,4.3,4.2,4.3c0,0,0,0,0,0c2.3,0,4.2-1.9,4.2-4.2c0,0,0,0,0,0H93.5z"/>
<path class="st0" d="M106.3,42.5c-2.3,0-4.2,1.9-4.2,4.2c0,0,0,0,0,0h8.5C110.5,44.4,108.6,42.5,106.3,42.5
	C106.3,42.5,106.3,42.5,106.3,42.5z"/>
<path class="st0" d="M123.3,34c-2.3,0-4.2,1.9-4.2,4.2c0,0,0,0,0,0h8.5C127.5,35.9,125.6,34,123.3,34C123.3,34,123.3,34,123.3,34z"
	/>
<path class="st0" d="M114.8,42.5c2.3,0,4.2-1.9,4.2-4.3h-8.5C110.6,40.6,112.5,42.5,114.8,42.5z"/>
<path class="st0" d="M110.6,46.8c0,2.3,1.9,4.3,4.2,4.3c0,0,0,0,0,0c2.3,0,4.2-1.9,4.2-4.2c0,0,0,0,0,0H110.6z"/>
<path class="st0" d="M123.3,42.5c-2.3,0-4.2,1.9-4.2,4.2c0,0,0,0,0,0h8.5C127.5,44.4,125.6,42.5,123.3,42.5
	C123.3,42.5,123.3,42.5,123.3,42.5z"/>
<path class="st0" d="M89.3,51c-2.3,0-4.2,1.9-4.2,4.2c0,0,0,0,0,0h8.5C93.5,52.9,91.6,51,89.3,51C89.3,51,89.3,51,89.3,51z"/>
<path class="st0" d="M80.8,59.5c2.3,0,4.2-1.9,4.2-4.3h-8.5C76.5,57.6,78.4,59.5,80.8,59.5z"/>
<path class="st0" d="M76.5,63.8c0,2.3,1.9,4.3,4.2,4.3c0,0,0,0,0,0c2.3,0,4.2-1.9,4.2-4.2c0,0,0,0,0,0H76.5z"/>
<path class="st0" d="M89.3,59.5c-2.3,0-4.2,1.9-4.2,4.2c0,0,0,0,0,0h8.5C93.5,61.4,91.6,59.5,89.3,59.5
	C89.3,59.5,89.3,59.5,89.3,59.5z"/>
<path class="st0" d="M72.3,51c-2.3,0-4.2,1.9-4.2,4.2c0,0,0,0,0,0h8.5C76.5,52.9,74.6,51,72.3,51C72.3,51,72.3,51,72.3,51z"/>
<path class="st0" d="M72.3,59.5c-2.3,0-4.2,1.9-4.2,4.2c0,0,0,0,0,0h8.5C76.5,61.4,74.6,59.5,72.3,59.5
	C72.3,59.5,72.3,59.5,72.3,59.5z"/>
<path class="st0" d="M106.3,51c-2.3,0-4.2,1.9-4.2,4.2c0,0,0,0,0,0h8.5C110.5,52.9,108.6,51,106.3,51C106.3,51,106.3,51,106.3,51z"
	/>
<path class="st0" d="M97.8,59.5c2.3,0,4.2-1.9,4.2-4.3h-8.5C93.6,57.6,95.5,59.5,97.8,59.5z"/>
<path class="st0" d="M93.5,63.8c0,2.3,1.9,4.3,4.2,4.3c0,0,0,0,0,0c2.3,0,4.2-1.9,4.2-4.2c0,0,0,0,0,0H93.5z"/>
<path class="st0" d="M106.3,59.5c-2.3,0-4.2,1.9-4.2,4.2c0,0,0,0,0,0h8.5C110.5,61.4,108.6,59.5,106.3,59.5
	C106.3,59.5,106.3,59.5,106.3,59.5z"/>
<path class="st0" d="M123.3,51c-2.3,0-4.2,1.9-4.2,4.2c0,0,0,0,0,0h8.5C127.5,52.9,125.6,51,123.3,51C123.3,51,123.3,51,123.3,51z"
	/>
<path class="st0" d="M114.8,59.5c2.3,0,4.2-1.9,4.2-4.3h-8.5C110.6,57.6,112.5,59.5,114.8,59.5z"/>
<path class="st0" d="M110.6,63.8c0,2.3,1.9,4.3,4.2,4.3c0,0,0,0,0,0c2.3,0,4.2-1.9,4.2-4.2c0,0,0,0,0,0H110.6z"/>
<path class="st0" d="M123.3,59.5c-2.3,0-4.2,1.9-4.2,4.2c0,0,0,0,0,0h8.5C127.5,61.4,125.6,59.5,123.3,59.5
	C123.3,59.5,123.3,59.5,123.3,59.5z"/>
<path class="st0" d="M131.8,59.5c2.3,0,4.2-1.9,4.2-4.3h-8.5C127.6,57.6,129.5,59.5,131.8,59.5z"/>
<path class="st0" d="M127.6,63.8c0,2.3,1.9,4.3,4.2,4.3c0,0,0,0,0,0c2.3,0,4.2-1.9,4.2-4.2c0,0,0,0,0,0H127.6z"/>
<path class="st0" d="M80.8,76.5c2.3,0,4.2-1.9,4.2-4.3h-8.5C76.5,74.6,78.4,76.5,80.8,76.5z"/>
<path class="st0" d="M76.5,80.8c0,2.3,1.9,4.3,4.2,4.3c0,0,0,0,0,0c2.3,0,4.2-1.9,4.2-4.2c0,0,0,0,0,0H76.5z"/>
<path class="st0" d="M72.3,68c-2.3,0-4.2,1.9-4.2,4.2c0,0,0,0,0,0h8.5C76.5,69.9,74.6,68,72.3,68C72.3,68,72.3,68,72.3,68z"/>
<path class="st0" d="M72.3,76.5c-2.3,0-4.2,1.9-4.2,4.2c0,0,0,0,0,0h8.5C76.5,78.4,74.6,76.5,72.3,76.5
	C72.3,76.5,72.3,76.5,72.3,76.5z"/>
<path class="st0" d="M123.3,68c-2.3,0-4.2,1.9-4.2,4.2c0,0,0,0,0,0h8.5C127.5,69.9,125.6,68,123.3,68C123.3,68,123.3,68,123.3,68z"
	/>
<path class="st0" d="M123.3,76.5c-2.3,0-4.2,1.9-4.2,4.2c0,0,0,0,0,0h8.5C127.5,78.4,125.6,76.5,123.3,76.5
	C123.3,76.5,123.3,76.5,123.3,76.5z"/>
<path class="st0" d="M131.8,76.5c2.3,0,4.2-1.9,4.2-4.3h-8.5C127.6,74.6,129.5,76.5,131.8,76.5z"/>
<path class="st0" d="M127.6,80.8c0,2.3,1.9,4.3,4.2,4.3c0,0,0,0,0,0c2.3,0,4.2-1.9,4.2-4.2c0,0,0,0,0,0H127.6z"/>
<path class="st0" d="M80.8,93.6c2.3,0,4.2-1.9,4.2-4.3h-8.5C76.5,91.6,78.4,93.6,80.8,93.6z"/>
<path class="st0" d="M76.5,97.8c0,2.3,1.9,4.3,4.2,4.3c0,0,0,0,0,0c2.3,0,4.2-1.9,4.2-4.2c0,0,0,0,0,0H76.5z"/>
<path class="st0" d="M72.3,85c-2.3,0-4.2,1.9-4.2,4.2c0,0,0,0,0,0h8.5C76.5,87,74.6,85,72.3,85C72.3,85,72.3,85,72.3,85z"/>
<path class="st0" d="M72.3,93.5c-2.3,0-4.2,1.9-4.2,4.2c0,0,0,0,0,0h8.5C76.5,95.5,74.6,93.5,72.3,93.5
	C72.3,93.5,72.3,93.5,72.3,93.5z"/>
<path class="st0" d="M123.3,85c-2.3,0-4.2,1.9-4.2,4.2c0,0,0,0,0,0h8.5C127.5,87,125.6,85,123.3,85C123.3,85,123.3,85,123.3,85z"/>
<path class="st0" d="M123.3,93.5c-2.3,0-4.2,1.9-4.2,4.2c0,0,0,0,0,0h8.5C127.5,95.5,125.6,93.5,123.3,93.5
	C123.3,93.5,123.3,93.5,123.3,93.5z"/>
<path class="st0" d="M131.8,93.6c2.3,0,4.2-1.9,4.2-4.3h-8.5C127.6,91.6,129.5,93.6,131.8,93.6z"/>
<path class="st0" d="M127.6,97.8c0,2.3,1.9,4.3,4.2,4.3c0,0,0,0,0,0c2.3,0,4.2-1.9,4.2-4.2c0,0,0,0,0,0H127.6z"/>
<path class="st0" d="M89.3,102c-2.3,0-4.2,1.9-4.2,4.2c0,0,0,0,0,0h8.5C93.5,104,91.6,102.1,89.3,102C89.3,102,89.3,102,89.3,102z"
	/>
<path class="st0" d="M80.8,110.6c2.3,0,4.2-1.9,4.2-4.3h-8.5C76.5,108.6,78.4,110.6,80.8,110.6z"/>
<path class="st0" d="M76.5,114.8c0,2.3,1.9,4.3,4.2,4.3c0,0,0,0,0,0c2.3,0,4.2-1.9,4.2-4.2c0,0,0,0,0,0H76.5z"/>
<path class="st0" d="M89.3,110.5c-2.3,0-4.2,1.9-4.2,4.2c0,0,0,0,0,0h8.5C93.5,112.5,91.6,110.5,89.3,110.5
	C89.3,110.5,89.3,110.5,89.3,110.5z"/>
<path class="st0" d="M72.3,102c-2.3,0-4.2,1.9-4.2,4.2c0,0,0,0,0,0h8.5C76.5,104,74.6,102.1,72.3,102C72.3,102,72.3,102,72.3,102z"
	/>
<path class="st0" d="M72.3,110.5c-2.3,0-4.2,1.9-4.2,4.2c0,0,0,0,0,0h8.5C76.5,112.5,74.6,110.5,72.3,110.5
	C72.3,110.5,72.3,110.5,72.3,110.5z"/>
<path class="st0" d="M106.3,102c-2.3,0-4.2,1.9-4.2,4.2c0,0,0,0,0,0h8.5C110.5,104,108.6,102.1,106.3,102
	C106.3,102,106.3,102,106.3,102z"/>
<path class="st0" d="M97.8,110.6c2.3,0,4.2-1.9,4.2-4.3h-8.5C93.6,108.6,95.5,110.6,97.8,110.6z"/>
<path class="st0" d="M93.5,114.8c0,2.3,1.9,4.3,4.2,4.3c0,0,0,0,0,0c2.3,0,4.2-1.9,4.2-4.2c0,0,0,0,0,0H93.5z"/>
<path class="st0" d="M106.3,110.5c-2.3,0-4.2,1.9-4.2,4.2c0,0,0,0,0,0h8.5C110.5,112.5,108.6,110.5,106.3,110.5
	C106.3,110.5,106.3,110.5,106.3,110.5z"/>
<path class="st0" d="M123.3,102c-2.3,0-4.2,1.9-4.2,4.2c0,0,0,0,0,0h8.5C127.5,104,125.6,102.1,123.3,102
	C123.3,102,123.3,102,123.3,102z"/>
<path class="st0" d="M114.8,110.6c2.3,0,4.2-1.9,4.2-4.3h-8.5C110.6,108.6,112.5,110.6,114.8,110.6z"/>
<path class="st0" d="M110.6,114.8c0,2.3,1.9,4.3,4.2,4.3c0,0,0,0,0,0c2.3,0,4.2-1.9,4.2-4.2c0,0,0,0,0,0H110.6z"/>
<path class="st0" d="M123.3,110.5c-2.3,0-4.2,1.9-4.2,4.2c0,0,0,0,0,0h8.5C127.5,112.5,125.6,110.5,123.3,110.5
	C123.3,110.5,123.3,110.5,123.3,110.5z"/>
<path class="st0" d="M131.8,110.6c2.3,0,4.2-1.9,4.2-4.3h-8.5C127.6,108.6,129.5,110.6,131.8,110.6z"/>
<path class="st0" d="M127.6,114.8c0,2.3,1.9,4.3,4.2,4.3c0,0,0,0,0,0c2.3,0,4.2-1.9,4.2-4.2c0,0,0,0,0,0H127.6z"/>
<path class="st0" d="M89.3,119.1c-2.3,0-4.2,1.9-4.2,4.2c0,0,0,0,0,0h8.5C93.5,121,91.6,119.1,89.3,119.1
	C89.3,119.1,89.3,119.1,89.3,119.1z"/>
<path class="st0" d="M80.8,127.6c2.3,0,4.2-1.9,4.2-4.3h-8.5C76.5,125.7,78.4,127.6,80.8,127.6z"/>
<path class="st0" d="M76.5,131.8c0,2.3,1.9,4.3,4.2,4.3c0,0,0,0,0,0c2.3,0,4.2-1.9,4.2-4.2c0,0,0,0,0,0H76.5z"/>
<path class="st0" d="M89.3,127.5c-2.3,0-4.2,1.9-4.2,4.2c0,0,0,0,0,0h8.5C93.5,129.5,91.6,127.6,89.3,127.5
	C89.3,127.5,89.3,127.5,89.3,127.5z"/>
<path class="st0" d="M72.3,119.1c-2.3,0-4.2,1.9-4.2,4.2c0,0,0,0,0,0h8.5C76.5,121,74.6,119.1,72.3,119.1
	C72.3,119.1,72.3,119.1,72.3,119.1z"/>
<path class="st0" d="M72.3,127.5c-2.3,0-4.2,1.9-4.2,4.2c0,0,0,0,0,0h8.5C76.5,129.5,74.6,127.6,72.3,127.5
	C72.3,127.5,72.3,127.5,72.3,127.5z"/>
<path class="st0" d="M106.3,119.1c-2.3,0-4.2,1.9-4.2,4.2c0,0,0,0,0,0h8.5C110.5,121,108.6,119.1,106.3,119.1
	C106.3,119.1,106.3,119.1,106.3,119.1z"/>
<path class="st0" d="M97.8,127.6c2.3,0,4.2-1.9,4.2-4.3h-8.5C93.6,125.7,95.5,127.6,97.8,127.6z"/>
<path class="st0" d="M93.5,131.8c0,2.3,1.9,4.3,4.2,4.3c0,0,0,0,0,0c2.3,0,4.2-1.9,4.2-4.2c0,0,0,0,0,0H93.5z"/>
<path class="st0" d="M106.3,127.5c-2.3,0-4.2,1.9-4.2,4.2c0,0,0,0,0,0h8.5C110.5,129.5,108.6,127.6,106.3,127.5
	C106.3,127.5,106.3,127.5,106.3,127.5z"/>
<path class="st0" d="M123.3,119.1c-2.3,0-4.2,1.9-4.2,4.2c0,0,0,0,0,0h8.5C127.5,121,125.6,119.1,123.3,119.1
	C123.3,119.1,123.3,119.1,123.3,119.1z"/>
<path class="st0" d="M114.8,127.6c2.3,0,4.2-1.9,4.2-4.3h-8.5C110.6,125.7,112.5,127.6,114.8,127.6z"/>
<path class="st0" d="M110.6,131.8c0,2.3,1.9,4.3,4.2,4.3c0,0,0,0,0,0c2.3,0,4.2-1.9,4.2-4.2c0,0,0,0,0,0H110.6z"/>
<path class="st0" d="M123.3,127.5c-2.3,0-4.2,1.9-4.2,4.2c0,0,0,0,0,0h8.5C127.5,129.5,125.6,127.6,123.3,127.5
	C123.3,127.5,123.3,127.5,123.3,127.5z"/>
<path class="st0" d="M131.8,127.6c2.3,0,4.2-1.9,4.2-4.3h-8.5C127.6,125.7,129.5,127.6,131.8,127.6z"/>
<path class="st0" d="M127.6,131.8c0,2.3,1.9,4.3,4.2,4.3c0,0,0,0,0,0c2.3,0,4.2-1.9,4.2-4.2c0,0,0,0,0,0H127.6z"/>
<path class="st0" d="M89.3,136.1c-2.3,0-4.2,1.9-4.2,4.2c0,0,0,0,0,0h8.5C93.5,138,91.6,136.1,89.3,136.1
	C89.3,136.1,89.3,136.1,89.3,136.1z"/>
<path class="st0" d="M80.8,144.6c2.3,0,4.2-1.9,4.2-4.3h-8.5C76.5,142.7,78.4,144.6,80.8,144.6z"/>
<path class="st0" d="M76.5,148.8c0,2.3,1.9,4.3,4.2,4.3c0,0,0,0,0,0c2.3,0,4.2-1.9,4.2-4.2c0,0,0,0,0,0H76.5z"/>
<path class="st0" d="M89.3,144.6c-2.3,0-4.2,1.9-4.2,4.2c0,0,0,0,0,0h8.5C93.5,146.5,91.6,144.6,89.3,144.6
	C89.3,144.6,89.3,144.6,89.3,144.6z"/>
<path class="st0" d="M72.3,136.1c-2.3,0-4.2,1.9-4.2,4.2c0,0,0,0,0,0h8.5C76.5,138,74.6,136.1,72.3,136.1
	C72.3,136.1,72.3,136.1,72.3,136.1z"/>
<path class="st0" d="M59.5,148.8c0,2.3,1.9,4.3,4.2,4.3c0,0,0,0,0,0c2.3,0,4.2-1.9,4.2-4.2c0,0,0,0,0,0H59.5z"/>
<path class="st0" d="M72.3,144.6c-2.3,0-4.2,1.9-4.2,4.2c0,0,0,0,0,0h8.5C76.5,146.5,74.6,144.6,72.3,144.6
	C72.3,144.6,72.3,144.6,72.3,144.6z"/>
<path class="st0" d="M106.3,136.1c-2.3,0-4.2,1.9-4.2,4.2c0,0,0,0,0,0h8.5C110.5,138,108.6,136.1,106.3,136.1
	C106.3,136.1,106.3,136.1,106.3,136.1z"/>
<path class="st0" d="M97.8,144.6c2.3,0,4.2-1.9,4.2-4.3h-8.5C93.6,142.7,95.5,144.6,97.8,144.6z"/>
<path class="st0" d="M93.5,148.8c0,2.3,1.9,4.3,4.2,4.3c0,0,0,0,0,0c2.3,0,4.2-1.9,4.2-4.2c0,0,0,0,0,0H93.5z"/>
<path class="st0" d="M106.3,144.6c-2.3,0-4.2,1.9-4.2,4.2c0,0,0,0,0,0h8.5C110.5,146.5,108.6,144.6,106.3,144.6
	C106.3,144.6,106.3,144.6,106.3,144.6z"/>
<path class="st0" d="M123.3,136.1c-2.3,0-4.2,1.9-4.2,4.2c0,0,0,0,0,0h8.5C127.5,138,125.6,136.1,123.3,136.1
	C123.3,136.1,123.3,136.1,123.3,136.1z"/>
<path class="st0" d="M114.8,144.6c2.3,0,4.2-1.9,4.2-4.3h-8.5C110.6,142.7,112.5,144.6,114.8,144.6z"/>
<path class="st0" d="M110.6,148.8c0,2.3,1.9,4.3,4.2,4.3c0,0,0,0,0,0c2.3,0,4.2-1.9,4.2-4.2c0,0,0,0,0,0H110.6z"/>
<path class="st0" d="M123.3,144.6c-2.3,0-4.2,1.9-4.2,4.2c0,0,0,0,0,0h8.5C127.5,146.5,125.6,144.6,123.3,144.6
	C123.3,144.6,123.3,144.6,123.3,144.6z"/>
<path class="st0" d="M131.8,144.6c2.3,0,4.2-1.9,4.2-4.3h-8.5C127.6,142.7,129.5,144.6,131.8,144.6z"/>
<path class="st0" d="M127.6,148.8c0,2.3,1.9,4.3,4.2,4.3c0,0,0,0,0,0c2.3,0,4.2-1.9,4.2-4.2c0,0,0,0,0,0H127.6z"/>
<path class="st0" d="M89.3,153.1c-2.3,0-4.2,1.9-4.2,4.2c0,0,0,0,0,0h8.5C93.5,155,91.6,153.1,89.3,153.1
	C89.3,153.1,89.3,153.1,89.3,153.1z"/>
<path class="st0" d="M80.8,161.6c2.3,0,4.2-1.9,4.2-4.3h-8.5C76.5,159.7,78.4,161.6,80.8,161.6z"/>
<path class="st0" d="M76.5,165.8c0,2.3,1.9,4.3,4.2,4.3c0,0,0,0,0,0c2.3,0,4.2-1.9,4.2-4.2c0,0,0,0,0,0H76.5z"/>
<path class="st0" d="M89.3,161.6c-2.3,0-4.2,1.9-4.2,4.2c0,0,0,0,0,0h8.5C93.5,163.5,91.6,161.6,89.3,161.6
	C89.3,161.6,89.3,161.6,89.3,161.6z"/>
<path class="st0" d="M72.3,153.1c-2.3,0-4.2,1.9-4.2,4.2c0,0,0,0,0,0h8.5C76.5,155,74.6,153.1,72.3,153.1
	C72.3,153.1,72.3,153.1,72.3,153.1z"/>
<path class="st0" d="M63.8,161.6c2.3,0,4.2-1.9,4.2-4.3h-8.5C59.5,159.7,61.4,161.6,63.8,161.6z"/>
<path class="st0" d="M59.5,165.8c0,2.3,1.9,4.3,4.2,4.3c0,0,0,0,0,0c2.3,0,4.2-1.9,4.2-4.2c0,0,0,0,0,0H59.5z"/>
<path class="st0" d="M72.3,161.6c-2.3,0-4.2,1.9-4.2,4.2c0,0,0,0,0,0h8.5C76.5,163.5,74.6,161.6,72.3,161.6
	C72.3,161.6,72.3,161.6,72.3,161.6z"/>
<path class="st0" d="M106.3,153.1c-2.3,0-4.2,1.9-4.2,4.2c0,0,0,0,0,0h8.5C110.5,155,108.6,153.1,106.3,153.1
	C106.3,153.1,106.3,153.1,106.3,153.1z"/>
<path class="st0" d="M97.8,161.6c2.3,0,4.2-1.9,4.2-4.3h-8.5C93.6,159.7,95.5,161.6,97.8,161.6z"/>
<path class="st0" d="M93.5,165.8c0,2.3,1.9,4.3,4.2,4.3c0,0,0,0,0,0c2.3,0,4.2-1.9,4.2-4.2c0,0,0,0,0,0H93.5z"/>
<path class="st0" d="M106.3,161.6c-2.3,0-4.2,1.9-4.2,4.2c0,0,0,0,0,0h8.5C110.5,163.5,108.6,161.6,106.3,161.6
	C106.3,161.6,106.3,161.6,106.3,161.6z"/>
<path class="st0" d="M123.3,153.1c-2.3,0-4.2,1.9-4.2,4.2c0,0,0,0,0,0h8.5C127.5,155,125.6,153.1,123.3,153.1
	C123.3,153.1,123.3,153.1,123.3,153.1z"/>
<path class="st0" d="M114.8,161.6c2.3,0,4.2-1.9,4.2-4.3h-8.5C110.6,159.7,112.5,161.6,114.8,161.6z"/>
<path class="st0" d="M110.6,165.8c0,2.3,1.9,4.3,4.2,4.3c0,0,0,0,0,0c2.3,0,4.2-1.9,4.2-4.2c0,0,0,0,0,0H110.6z"/>
<path class="st0" d="M123.3,161.6c-2.3,0-4.2,1.9-4.2,4.2c0,0,0,0,0,0h8.5C127.5,163.5,125.6,161.6,123.3,161.6
	C123.3,161.6,123.3,161.6,123.3,161.6z"/>
<path class="st0" d="M140.3,153.1c-2.3,0-4.2,1.9-4.2,4.2c0,0,0,0,0,0h8.5C144.5,155,142.6,153.1,140.3,153.1
	C140.3,153.1,140.3,153.1,140.3,153.1z"/>
<path class="st0" d="M131.8,161.6c2.3,0,4.2-1.9,4.2-4.3h-8.5C127.6,159.7,129.5,161.6,131.8,161.6z"/>
<path class="st0" d="M127.6,165.8c0,2.3,1.9,4.3,4.2,4.3c0,0,0,0,0,0c2.3,0,4.2-1.9,4.2-4.2c0,0,0,0,0,0H127.6z"/>
<path class="st0" d="M140.3,161.6c-2.3,0-4.2,1.9-4.2,4.2c0,0,0,0,0,0h8.5C144.5,163.5,142.6,161.6,140.3,161.6
	C140.3,161.6,140.3,161.6,140.3,161.6z"/>
<path class="st0" d="M89.3,170.1c-2.3,0-4.2,1.9-4.2,4.2c0,0,0,0,0,0h8.5C93.5,172,91.6,170.1,89.3,170.1
	C89.3,170.1,89.3,170.1,89.3,170.1z"/>
<path class="st0" d="M80.8,178.6c2.3,0,4.2-1.9,4.2-4.3h-8.5C76.5,176.7,78.4,178.6,80.8,178.6z"/>
<path class="st0" d="M76.5,182.8c0,2.3,1.9,4.3,4.2,4.3c0,0,0,0,0,0c2.3,0,4.2-1.9,4.2-4.2c0,0,0,0,0,0H76.5z"/>
<path class="st0" d="M89.3,178.6c-2.3,0-4.2,1.9-4.2,4.2c0,0,0,0,0,0h8.5C93.5,180.5,91.6,178.6,89.3,178.6
	C89.3,178.6,89.3,178.6,89.3,178.6z"/>
<path class="st0" d="M72.3,170.1c-2.3,0-4.2,1.9-4.2,4.2c0,0,0,0,0,0h8.5C76.5,172,74.6,170.1,72.3,170.1
	C72.3,170.1,72.3,170.1,72.3,170.1z"/>
<path class="st0" d="M63.8,178.6c2.3,0,4.2-1.9,4.2-4.3h-8.5C59.5,176.7,61.4,178.6,63.8,178.6z"/>
<path class="st0" d="M59.5,182.8c0,2.3,1.9,4.3,4.2,4.3c0,0,0,0,0,0c2.3,0,4.2-1.9,4.2-4.2c0,0,0,0,0,0H59.5z"/>
<path class="st0" d="M72.3,178.6c-2.3,0-4.2,1.9-4.2,4.2c0,0,0,0,0,0h8.5C76.5,180.5,74.6,178.6,72.3,178.6
	C72.3,178.6,72.3,178.6,72.3,178.6z"/>
<path class="st0" d="M106.3,170.1c-2.3,0-4.2,1.9-4.2,4.2c0,0,0,0,0,0h8.5C110.5,172,108.6,170.1,106.3,170.1
	C106.3,170.1,106.3,170.1,106.3,170.1z"/>
<path class="st0" d="M97.8,178.6c2.3,0,4.2-1.9,4.2-4.3h-8.5C93.6,176.7,95.5,178.6,97.8,178.6z"/>
<path class="st0" d="M93.5,182.8c0,2.3,1.9,4.3,4.2,4.3c0,0,0,0,0,0c2.3,0,4.2-1.9,4.2-4.2c0,0,0,0,0,0H93.5z"/>
<path class="st0" d="M106.3,178.6c-2.3,0-4.2,1.9-4.2,4.2c0,0,0,0,0,0h8.5C110.5,180.5,108.6,178.6,106.3,178.6
	C106.3,178.6,106.3,178.6,106.3,178.6z"/>
<path class="st0" d="M123.3,170.1c-2.3,0-4.2,1.9-4.2,4.2c0,0,0,0,0,0h8.5C127.5,172,125.6,170.1,123.3,170.1
	C123.3,170.1,123.3,170.1,123.3,170.1z"/>
<path class="st0" d="M114.8,178.6c2.3,0,4.2-1.9,4.2-4.3h-8.5C110.6,176.7,112.5,178.6,114.8,178.6z"/>
<path class="st0" d="M110.6,182.8c0,2.3,1.9,4.3,4.2,4.3c0,0,0,0,0,0c2.3,0,4.2-1.9,4.2-4.2c0,0,0,0,0,0H110.6z"/>
<path class="st0" d="M123.3,178.6c-2.3,0-4.2,1.9-4.2,4.2c0,0,0,0,0,0h8.5C127.5,180.5,125.6,178.6,123.3,178.6
	C123.3,178.6,123.3,178.6,123.3,178.6z"/>
<path class="st0" d="M140.3,170.1c-2.3,0-4.2,1.9-4.2,4.2c0,0,0,0,0,0h8.5C144.5,172,142.6,170.1,140.3,170.1
	C140.3,170.1,140.3,170.1,140.3,170.1z"/>
<path class="st0" d="M131.8,178.6c2.3,0,4.2-1.9,4.2-4.3h-8.5C127.6,176.7,129.5,178.6,131.8,178.6z"/>
<path class="st0" d="M127.6,182.8c0,2.3,1.9,4.3,4.2,4.3c0,0,0,0,0,0c2.3,0,4.2-1.9,4.2-4.2c0,0,0,0,0,0H127.6z"/>
<path class="st0" d="M140.3,178.6c-2.3,0-4.2,1.9-4.2,4.2c0,0,0,0,0,0h8.5C144.5,180.5,142.6,178.6,140.3,178.6
	C140.3,178.6,140.3,178.6,140.3,178.6z"/>
<path class="st0" d="M148.8,178.6c2.3,0,4.2-1.9,4.2-4.3h-8.5C144.6,176.7,146.5,178.6,148.8,178.6z"/>
<path class="st0" d="M144.6,182.8c0,2.3,1.9,4.3,4.2,4.3c0,0,0,0,0,0c2.3,0,4.2-1.9,4.2-4.2c0,0,0,0,0,0H144.6z"/>
<path class="st0" d="M55.3,170.1c-2.3,0-4.2,1.9-4.2,4.2c0,0,0,0,0,0h8.5C59.5,172,57.6,170.1,55.3,170.1
	C55.3,170.1,55.3,170.1,55.3,170.1z"/>
<path class="st0" d="M55.3,178.6c-2.3,0-4.2,1.9-4.2,4.2c0,0,0,0,0,0h8.5C59.5,180.5,57.6,178.6,55.3,178.6
	C55.3,178.6,55.3,178.6,55.3,178.6z"/>
<path class="st0" d="M89.3,187.1c-2.3,0-4.2,1.9-4.2,4.2c0,0,0,0,0,0h8.5C93.5,189,91.6,187.1,89.3,187.1
	C89.3,187.1,89.3,187.1,89.3,187.1z"/>
<path class="st0" d="M80.8,195.6c2.3,0,4.2-1.9,4.2-4.3h-8.5C76.5,193.7,78.4,195.6,80.8,195.6z"/>
<path class="st0" d="M76.5,199.8c0,2.3,1.9,4.3,4.2,4.3c0,0,0,0,0,0c2.3,0,4.2-1.9,4.2-4.2c0,0,0,0,0,0H76.5z"/>
<path class="st0" d="M89.3,195.6c-2.3,0-4.2,1.9-4.2,4.2c0,0,0,0,0,0h8.5C93.5,197.5,91.6,195.6,89.3,195.6
	C89.3,195.6,89.3,195.6,89.3,195.6z"/>
<path class="st0" d="M72.3,187.1c-2.3,0-4.2,1.9-4.2,4.2c0,0,0,0,0,0h8.5C76.5,189,74.6,187.1,72.3,187.1
	C72.3,187.1,72.3,187.1,72.3,187.1z"/>
<path class="st0" d="M63.8,195.6c2.3,0,4.2-1.9,4.2-4.3h-8.5C59.5,193.7,61.4,195.6,63.8,195.6z"/>
<path class="st0" d="M59.5,199.8c0,2.3,1.9,4.3,4.2,4.3c0,0,0,0,0,0c2.3,0,4.2-1.9,4.2-4.2c0,0,0,0,0,0H59.5z"/>
<path class="st0" d="M72.3,195.6c-2.3,0-4.2,1.9-4.2,4.2c0,0,0,0,0,0h8.5C76.5,197.5,74.6,195.6,72.3,195.6
	C72.3,195.6,72.3,195.6,72.3,195.6z"/>
<path class="st0" d="M106.3,187.1c-2.3,0-4.2,1.9-4.2,4.2c0,0,0,0,0,0h8.5C110.5,189,108.6,187.1,106.3,187.1
	C106.3,187.1,106.3,187.1,106.3,187.1z"/>
<path class="st0" d="M97.8,195.6c2.3,0,4.2-1.9,4.2-4.3h-8.5C93.6,193.7,95.5,195.6,97.8,195.6z"/>
<path class="st0" d="M93.5,199.8c0,2.3,1.9,4.3,4.2,4.3c0,0,0,0,0,0c2.3,0,4.2-1.9,4.2-4.2c0,0,0,0,0,0H93.5z"/>
<path class="st0" d="M106.3,195.6c-2.3,0-4.2,1.9-4.2,4.2c0,0,0,0,0,0h8.5C110.5,197.5,108.6,195.6,106.3,195.6
	C106.3,195.6,106.3,195.6,106.3,195.6z"/>
<path class="st0" d="M123.3,187.1c-2.3,0-4.2,1.9-4.2,4.2c0,0,0,0,0,0h8.5C127.5,189,125.6,187.1,123.3,187.1
	C123.3,187.1,123.3,187.1,123.3,187.1z"/>
<path class="st0" d="M114.8,195.6c2.3,0,4.2-1.9,4.2-4.3h-8.5C110.6,193.7,112.5,195.6,114.8,195.6z"/>
<path class="st0" d="M110.6,199.8c0,2.3,1.9,4.3,4.2,4.3c0,0,0,0,0,0c2.3,0,4.2-1.9,4.2-4.2c0,0,0,0,0,0H110.6z"/>
<path class="st0" d="M123.3,195.6c-2.3,0-4.2,1.9-4.2,4.2c0,0,0,0,0,0h8.5C127.5,197.5,125.6,195.6,123.3,195.6
	C123.3,195.6,123.3,195.6,123.3,195.6z"/>
<path class="st0" d="M140.3,187.1c-2.3,0-4.2,1.9-4.2,4.2c0,0,0,0,0,0h8.5C144.5,189,142.6,187.1,140.3,187.1
	C140.3,187.1,140.3,187.1,140.3,187.1z"/>
<path class="st0" d="M131.8,195.6c2.3,0,4.2-1.9,4.2-4.3h-8.5C127.6,193.7,129.5,195.6,131.8,195.6z"/>
<path class="st0" d="M127.6,199.8c0,2.3,1.9,4.3,4.2,4.3c0,0,0,0,0,0c2.3,0,4.2-1.9,4.2-4.2c0,0,0,0,0,0H127.6z"/>
<path class="st0" d="M140.3,195.6c-2.3,0-4.2,1.9-4.2,4.2c0,0,0,0,0,0h8.5C144.5,197.5,142.6,195.6,140.3,195.6
	C140.3,195.6,140.3,195.6,140.3,195.6z"/>
<path class="st0" d="M157.3,187.1c-2.3,0-4.2,1.9-4.2,4.2c0,0,0,0,0,0h8.5C161.5,189,159.6,187.1,157.3,187.1
	C157.3,187.1,157.3,187.1,157.3,187.1z"/>
<path class="st0" d="M148.8,195.6c2.3,0,4.2-1.9,4.2-4.3h-8.5C144.6,193.7,146.5,195.6,148.8,195.6z"/>
<path class="st0" d="M144.6,199.8c0,2.3,1.9,4.3,4.2,4.3c0,0,0,0,0,0c2.3,0,4.2-1.9,4.2-4.2c0,0,0,0,0,0H144.6z"/>
<path class="st0" d="M157.3,195.6c-2.3,0-4.2,1.9-4.2,4.2c0,0,0,0,0,0h8.5C161.5,197.5,159.6,195.6,157.3,195.6
	C157.3,195.6,157.3,195.6,157.3,195.6z"/>
<path class="st0" d="M55.3,187.1c-2.3,0-4.2,1.9-4.2,4.2c0,0,0,0,0,0h8.5C59.5,189,57.6,187.1,55.3,187.1
	C55.3,187.1,55.3,187.1,55.3,187.1z"/>
<path class="st0" d="M46.8,195.6c2.3,0,4.2-1.9,4.2-4.3h-8.5C42.5,193.7,44.4,195.6,46.8,195.6z"/>
<path class="st0" d="M42.5,199.8c0,2.3,1.9,4.3,4.2,4.3c0,0,0,0,0,0c2.3,0,4.2-1.9,4.2-4.2c0,0,0,0,0,0H42.5z"/>
<path class="st0" d="M55.3,195.6c-2.3,0-4.2,1.9-4.2,4.2c0,0,0,0,0,0h8.5C59.5,197.5,57.6,195.6,55.3,195.6
	C55.3,195.6,55.3,195.6,55.3,195.6z"/>
<path class="st0" d="M89.3,204.1c-2.3,0-4.2,1.9-4.2,4.2c0,0,0,0,0,0h8.5C93.5,206,91.6,204.1,89.3,204.1
	C89.3,204.1,89.3,204.1,89.3,204.1z"/>
<path class="st0" d="M80.8,212.6c2.3,0,4.2-1.9,4.2-4.3h-8.5C76.5,210.7,78.4,212.6,80.8,212.6z"/>
<path class="st0" d="M76.5,216.8c0,2.3,1.9,4.3,4.2,4.3c0,0,0,0,0,0c2.3,0,4.2-1.9,4.2-4.2c0,0,0,0,0,0H76.5z"/>
<path class="st0" d="M89.3,212.6c-2.3,0-4.2,1.9-4.2,4.2c0,0,0,0,0,0h8.5C93.5,214.5,91.6,212.6,89.3,212.6
	C89.3,212.6,89.3,212.6,89.3,212.6z"/>
<path class="st0" d="M72.3,204.1c-2.3,0-4.2,1.9-4.2,4.2c0,0,0,0,0,0h8.5C76.5,206,74.6,204.1,72.3,204.1
	C72.3,204.1,72.3,204.1,72.3,204.1z"/>
<path class="st0" d="M63.8,212.6c2.3,0,4.2-1.9,4.2-4.3h-8.5C59.5,210.7,61.4,212.6,63.8,212.6z"/>
<path class="st0" d="M59.5,216.8c0,2.3,1.9,4.3,4.2,4.3c0,0,0,0,0,0c2.3,0,4.2-1.9,4.2-4.2c0,0,0,0,0,0H59.5z"/>
<path class="st0" d="M72.3,212.6c-2.3,0-4.2,1.9-4.2,4.2c0,0,0,0,0,0h8.5C76.5,214.5,74.6,212.6,72.3,212.6
	C72.3,212.6,72.3,212.6,72.3,212.6z"/>
<path class="st0" d="M106.3,204.1c-2.3,0-4.2,1.9-4.2,4.2c0,0,0,0,0,0h8.5C110.5,206,108.6,204.1,106.3,204.1
	C106.3,204.1,106.3,204.1,106.3,204.1z"/>
<path class="st0" d="M97.8,212.6c2.3,0,4.2-1.9,4.2-4.3h-8.5C93.6,210.7,95.5,212.6,97.8,212.6z"/>
<path class="st0" d="M93.5,216.8c0,2.3,1.9,4.3,4.2,4.3c0,0,0,0,0,0c2.3,0,4.2-1.9,4.2-4.2c0,0,0,0,0,0H93.5z"/>
<path class="st0" d="M106.3,212.6c-2.3,0-4.2,1.9-4.2,4.2c0,0,0,0,0,0h8.5C110.5,214.5,108.6,212.6,106.3,212.6
	C106.3,212.6,106.3,212.6,106.3,212.6z"/>
<path class="st0" d="M123.3,204.1c-2.3,0-4.2,1.9-4.2,4.2c0,0,0,0,0,0h8.5C127.5,206,125.6,204.1,123.3,204.1
	C123.3,204.1,123.3,204.1,123.3,204.1z"/>
<path class="st0" d="M114.8,212.6c2.3,0,4.2-1.9,4.2-4.3h-8.5C110.6,210.7,112.5,212.6,114.8,212.6z"/>
<path class="st0" d="M110.6,216.8c0,2.3,1.9,4.3,4.2,4.3c0,0,0,0,0,0c2.3,0,4.2-1.9,4.2-4.2c0,0,0,0,0,0H110.6z"/>
<path class="st0" d="M123.3,212.6c-2.3,0-4.2,1.9-4.2,4.2c0,0,0,0,0,0h8.5C127.5,214.5,125.6,212.6,123.3,212.6
	C123.3,212.6,123.3,212.6,123.3,212.6z"/>
<path class="st0" d="M140.3,204.1c-2.3,0-4.2,1.9-4.2,4.2c0,0,0,0,0,0h8.5C144.5,206,142.6,204.1,140.3,204.1
	C140.3,204.1,140.3,204.1,140.3,204.1z"/>
<path class="st0" d="M131.8,212.6c2.3,0,4.2-1.9,4.2-4.3h-8.5C127.6,210.7,129.5,212.6,131.8,212.6z"/>
<path class="st0" d="M127.6,216.8c0,2.3,1.9,4.3,4.2,4.3c0,0,0,0,0,0c2.3,0,4.2-1.9,4.2-4.2c0,0,0,0,0,0H127.6z"/>
<path class="st0" d="M140.3,212.6c-2.3,0-4.2,1.9-4.2,4.2c0,0,0,0,0,0h8.5C144.5,214.5,142.6,212.6,140.3,212.6
	C140.3,212.6,140.3,212.6,140.3,212.6z"/>
<path class="st0" d="M157.3,204.1c-2.3,0-4.2,1.9-4.2,4.2c0,0,0,0,0,0h8.5C161.5,206,159.6,204.1,157.3,204.1
	C157.3,204.1,157.3,204.1,157.3,204.1z"/>
<path class="st0" d="M148.8,212.6c2.3,0,4.2-1.9,4.2-4.3h-8.5C144.6,210.7,146.5,212.6,148.8,212.6z"/>
<path class="st0" d="M144.6,216.8c0,2.3,1.9,4.3,4.2,4.3c0,0,0,0,0,0c2.3,0,4.2-1.9,4.2-4.2c0,0,0,0,0,0H144.6z"/>
<path class="st0" d="M157.3,212.6c-2.3,0-4.2,1.9-4.2,4.2c0,0,0,0,0,0h8.5C161.5,214.5,159.6,212.6,157.3,212.6
	C157.3,212.6,157.3,212.6,157.3,212.6z"/>
<path class="st0" d="M165.8,212.6c2.3,0,4.2-1.9,4.2-4.3h-8.5C161.6,210.7,163.5,212.6,165.8,212.6z"/>
<path class="st0" d="M161.6,216.8c0,2.3,1.9,4.3,4.2,4.3c0,0,0,0,0,0c2.3,0,4.2-1.9,4.2-4.2c0,0,0,0,0,0H161.6z"/>
<path class="st0" d="M174.3,212.6c-2.3,0-4.2,1.9-4.2,4.2c0,0,0,0,0,0h8.5C178.5,214.5,176.6,212.6,174.3,212.6
	C174.3,212.6,174.3,212.6,174.3,212.6z"/>
<path class="st0" d="M38.3,204.1c-2.3,0-4.2,1.9-4.2,4.2c0,0,0,0,0,0h8.5C42.5,206,40.6,204.1,38.3,204.1
	C38.3,204.1,38.3,204.1,38.3,204.1z"/>
<path class="st0" d="M25.5,216.8c0,2.3,1.9,4.3,4.2,4.3c0,0,0,0,0,0c2.3,0,4.2-1.9,4.2-4.2c0,0,0,0,0,0H25.5z"/>
<path class="st0" d="M38.3,212.6c-2.3,0-4.2,1.9-4.2,4.2c0,0,0,0,0,0h8.5C42.5,214.5,40.6,212.6,38.3,212.6
	C38.3,212.6,38.3,212.6,38.3,212.6z"/>
<path class="st0" d="M55.3,204.1c-2.3,0-4.2,1.9-4.2,4.2c0,0,0,0,0,0h8.5C59.5,206,57.6,204.1,55.3,204.1
	C55.3,204.1,55.3,204.1,55.3,204.1z"/>
<path class="st0" d="M46.8,212.6c2.3,0,4.2-1.9,4.2-4.3h-8.5C42.5,210.7,44.4,212.6,46.8,212.6z"/>
<path class="st0" d="M42.5,216.8c0,2.3,1.9,4.3,4.2,4.3c0,0,0,0,0,0c2.3,0,4.2-1.9,4.2-4.2c0,0,0,0,0,0H42.5z"/>
<path class="st0" d="M55.3,212.6c-2.3,0-4.2,1.9-4.2,4.2c0,0,0,0,0,0h8.5C59.5,214.5,57.6,212.6,55.3,212.6
	C55.3,212.6,55.3,212.6,55.3,212.6z"/>
<path class="st0" d="M89.3,221.1c-2.3,0-4.2,1.9-4.2,4.2c0,0,0,0,0,0h8.5C93.5,223,91.6,221.1,89.3,221.1
	C89.3,221.1,89.3,221.1,89.3,221.1z"/>
<path class="st0" d="M80.8,229.6c2.3,0,4.2-1.9,4.2-4.2c0,0,0,0,0,0h-8.5C76.5,227.7,78.4,229.6,80.8,229.6z"/>
<path class="st0" d="M76.5,233.8c0,2.3,1.9,4.3,4.2,4.3c0,0,0,0,0,0c2.3,0,4.2-1.9,4.2-4.3H76.5z"/>
<path class="st0" d="M89.3,229.6c-2.3,0-4.2,1.9-4.2,4.2c0,0,0,0,0,0h8.5C93.5,231.5,91.6,229.6,89.3,229.6
	C89.3,229.6,89.3,229.6,89.3,229.6z"/>
<path class="st0" d="M72.3,221.1c-2.3,0-4.2,1.9-4.2,4.2c0,0,0,0,0,0h8.5C76.5,223,74.6,221.1,72.3,221.1
	C72.3,221.1,72.3,221.1,72.3,221.1z"/>
<path class="st0" d="M63.8,229.6c2.3,0,4.2-1.9,4.2-4.2c0,0,0,0,0,0h-8.5C59.5,227.7,61.4,229.6,63.8,229.6z"/>
<path class="st0" d="M59.5,233.8c0,2.3,1.9,4.3,4.2,4.3c0,0,0,0,0,0c2.3,0,4.2-1.9,4.2-4.3H59.5z"/>
<path class="st0" d="M72.3,229.6c-2.3,0-4.2,1.9-4.2,4.2c0,0,0,0,0,0h8.5C76.5,231.5,74.6,229.6,72.3,229.6
	C72.3,229.6,72.3,229.6,72.3,229.6z"/>
<path class="st0" d="M106.3,221.1c-2.3,0-4.2,1.9-4.2,4.2c0,0,0,0,0,0h8.5C110.5,223,108.6,221.1,106.3,221.1
	C106.3,221.1,106.3,221.1,106.3,221.1z"/>
<path class="st0" d="M97.8,229.6c2.3,0,4.2-1.9,4.2-4.2c0,0,0,0,0,0h-8.5C93.6,227.7,95.5,229.6,97.8,229.6z"/>
<path class="st0" d="M93.5,233.8c0,2.3,1.9,4.3,4.2,4.3c0,0,0,0,0,0c2.3,0,4.2-1.9,4.2-4.3H93.5z"/>
<path class="st0" d="M106.3,229.6c-2.3,0-4.2,1.9-4.2,4.2c0,0,0,0,0,0h8.5C110.5,231.5,108.6,229.6,106.3,229.6
	C106.3,229.6,106.3,229.6,106.3,229.6z"/>
<path class="st0" d="M123.3,221.1c-2.3,0-4.2,1.9-4.2,4.2c0,0,0,0,0,0h8.5C127.5,223,125.6,221.1,123.3,221.1
	C123.3,221.1,123.3,221.1,123.3,221.1z"/>
<path class="st0" d="M114.8,229.6c2.3,0,4.2-1.9,4.2-4.2c0,0,0,0,0,0h-8.5C110.6,227.7,112.5,229.6,114.8,229.6z"/>
<path class="st0" d="M110.6,233.8c0,2.3,1.9,4.3,4.2,4.3c0,0,0,0,0,0c2.3,0,4.2-1.9,4.2-4.3H110.6z"/>
<path class="st0" d="M123.3,229.6c-2.3,0-4.2,1.9-4.2,4.2c0,0,0,0,0,0h8.5C127.5,231.5,125.6,229.6,123.3,229.6
	C123.3,229.6,123.3,229.6,123.3,229.6z"/>
<path class="st0" d="M140.3,221.1c-2.3,0-4.2,1.9-4.2,4.2c0,0,0,0,0,0h8.5C144.5,223,142.6,221.1,140.3,221.1
	C140.3,221.1,140.3,221.1,140.3,221.1z"/>
<path class="st0" d="M131.8,229.6c2.3,0,4.2-1.9,4.2-4.2c0,0,0,0,0,0h-8.5C127.6,227.7,129.5,229.6,131.8,229.6z"/>
<path class="st0" d="M127.6,233.8c0,2.3,1.9,4.3,4.2,4.3c0,0,0,0,0,0c2.3,0,4.2-1.9,4.2-4.3H127.6z"/>
<path class="st0" d="M140.3,229.6c-2.3,0-4.2,1.9-4.2,4.2c0,0,0,0,0,0h8.5C144.5,231.5,142.6,229.6,140.3,229.6
	C140.3,229.6,140.3,229.6,140.3,229.6z"/>
<path class="st0" d="M157.3,221.1c-2.3,0-4.2,1.9-4.2,4.2c0,0,0,0,0,0h8.5C161.5,223,159.6,221.1,157.3,221.1
	C157.3,221.1,157.3,221.1,157.3,221.1z"/>
<path class="st0" d="M148.8,229.6c2.3,0,4.2-1.9,4.2-4.2c0,0,0,0,0,0h-8.5C144.6,227.7,146.5,229.6,148.8,229.6z"/>
<path class="st0" d="M144.6,233.8c0,2.3,1.9,4.3,4.2,4.3c0,0,0,0,0,0c2.3,0,4.2-1.9,4.2-4.3H144.6z"/>
<path class="st0" d="M157.3,229.6c-2.3,0-4.2,1.9-4.2,4.2c0,0,0,0,0,0h8.5C161.5,231.5,159.6,229.6,157.3,229.6
	C157.3,229.6,157.3,229.6,157.3,229.6z"/>
<path class="st0" d="M174.3,221.1c-2.3,0-4.2,1.9-4.2,4.2c0,0,0,0,0,0h8.5C178.5,223,176.6,221.1,174.3,221.1
	C174.3,221.1,174.3,221.1,174.3,221.1z"/>
<path class="st0" d="M165.8,229.6c2.3,0,4.2-1.9,4.2-4.2c0,0,0,0,0,0h-8.5C161.6,227.7,163.5,229.6,165.8,229.6z"/>
<path class="st0" d="M161.6,233.8c0,2.3,1.9,4.3,4.2,4.3c0,0,0,0,0,0c2.3,0,4.2-1.9,4.2-4.3H161.6z"/>
<path class="st0" d="M174.3,229.6c-2.3,0-4.2,1.9-4.2,4.2c0,0,0,0,0,0h8.5C178.5,231.5,176.6,229.6,174.3,229.6
	C174.3,229.6,174.3,229.6,174.3,229.6z"/>
<path class="st0" d="M182.8,229.6c2.3,0,4.2-1.9,4.2-4.2c0,0,0,0,0,0h-8.5C178.6,227.7,180.5,229.6,182.8,229.6z"/>
<path class="st0" d="M178.6,233.8c0,2.3,1.9,4.3,4.2,4.3c0,0,0,0,0,0c2.3,0,4.2-1.9,4.2-4.3H178.6z"/>
<path class="st0" d="M191.3,229.6c-2.3,0-4.2,1.9-4.2,4.2c0,0,0,0,0,0h8.5C195.6,231.5,193.7,229.6,191.3,229.6
	C191.3,229.6,191.3,229.6,191.3,229.6z"/>
<path class="st0" d="M195.6,233.8c0,2.3,1.9,4.3,4.2,4.3c2.3,0,4.2-1.9,4.2-4.3H195.6z"/>
<path class="st0" d="M21.3,221.1c-2.3,0-4.2,1.9-4.2,4.2c0,0,0,0,0,0h8.5C25.5,223,23.6,221.1,21.3,221.1
	C21.3,221.1,21.3,221.1,21.3,221.1z"/>
<path class="st0" d="M12.8,229.6c2.3,0,4.2-1.9,4.2-4.3H8.5C8.5,227.7,10.4,229.6,12.8,229.6z"/>
<path class="st0" d="M8.5,233.8c0,2.3,1.9,4.3,4.2,4.3c0,0,0,0,0,0c2.3,0,4.2-1.9,4.2-4.3H8.5z"/>
<path class="st0" d="M21.3,229.6c-2.3,0-4.2,1.9-4.2,4.2c0,0,0,0,0,0h8.5C25.5,231.5,23.6,229.6,21.3,229.6
	C21.3,229.6,21.3,229.6,21.3,229.6z"/>
<path class="st0" d="M4.3,229.6c-2.3,0-4.2,1.9-4.2,4.2c0,0,0,0,0,0h8.5C8.5,231.5,6.6,229.6,4.3,229.6
	C4.3,229.6,4.3,229.6,4.3,229.6z"/>
<path class="st0" d="M38.3,221.1c-2.3,0-4.2,1.9-4.2,4.2c0,0,0,0,0,0h8.5C42.5,223,40.6,221.1,38.3,221.1
	C38.3,221.1,38.3,221.1,38.3,221.1z"/>
<path class="st0" d="M29.8,229.6c2.3,0,4.2-1.9,4.2-4.2c0,0,0,0,0,0h-8.5C25.5,227.7,27.4,229.6,29.8,229.6z"/>
<path class="st0" d="M25.5,233.8c0,2.3,1.9,4.3,4.2,4.3c2.3,0,4.2-1.9,4.2-4.3H25.5z"/>
<path class="st0" d="M38.3,229.6c-2.3,0-4.2,1.9-4.2,4.2c0,0,0,0,0,0h8.5C42.5,231.5,40.6,229.6,38.3,229.6
	C38.3,229.6,38.3,229.6,38.3,229.6z"/>
<path class="st0" d="M55.3,221.1c-2.3,0-4.2,1.9-4.2,4.2c0,0,0,0,0,0h8.5C59.5,223,57.6,221.1,55.3,221.1
	C55.3,221.1,55.3,221.1,55.3,221.1z"/>
<path class="st0" d="M46.8,229.6c2.3,0,4.2-1.9,4.2-4.2c0,0,0,0,0,0h-8.5C42.5,227.7,44.4,229.6,46.8,229.6z"/>
<path class="st0" d="M42.5,233.8c0,2.3,1.9,4.3,4.2,4.3c2.3,0,4.2-1.9,4.2-4.3H42.5z"/>
<path class="st0" d="M55.3,229.6c-2.3,0-4.2,1.9-4.2,4.2c0,0,0,0,0,0h8.5C59.5,231.5,57.6,229.6,55.3,229.6
	C55.3,229.6,55.3,229.6,55.3,229.6z"/>
<path class="st0" d="M89.3,238.1c-2.3,0-4.2,1.9-4.2,4.2c0,0,0,0,0,0h8.5C93.5,240,91.6,238.1,89.3,238.1
	C89.3,238.1,89.3,238.1,89.3,238.1z"/>
<path class="st0" d="M80.8,246.6c2.3,0,4.2-1.9,4.2-4.3h-8.5C76.5,244.7,78.4,246.6,80.8,246.6z"/>
<path class="st0" d="M76.5,250.8c0,2.3,1.9,4.3,4.2,4.3c0,0,0,0,0,0c2.3,0,4.2-1.9,4.2-4.2c0,0,0,0,0,0H76.5z"/>
<path class="st0" d="M89.3,246.6c-2.3,0-4.2,1.9-4.2,4.2c0,0,0,0,0,0h8.5C93.5,248.5,91.6,246.6,89.3,246.6
	C89.3,246.6,89.3,246.6,89.3,246.6z"/>
<path class="st0" d="M72.3,238.1c-2.3,0-4.2,1.9-4.2,4.2c0,0,0,0,0,0h8.5C76.5,240,74.6,238.1,72.3,238.1
	C72.3,238.1,72.3,238.1,72.3,238.1z"/>
<path class="st0" d="M63.8,246.6c2.3,0,4.2-1.9,4.2-4.3h-8.5C59.5,244.7,61.4,246.6,63.8,246.6z"/>
<path class="st0" d="M59.5,250.8c0,2.3,1.9,4.3,4.2,4.3c0,0,0,0,0,0c2.3,0,4.2-1.9,4.2-4.2c0,0,0,0,0,0H59.5z"/>
<path class="st0" d="M72.3,246.6c-2.3,0-4.2,1.9-4.2,4.2c0,0,0,0,0,0h8.5C76.5,248.5,74.6,246.6,72.3,246.6
	C72.3,246.6,72.3,246.6,72.3,246.6z"/>
<path class="st0" d="M106.3,238.1c-2.3,0-4.2,1.9-4.2,4.2c0,0,0,0,0,0h8.5C110.5,240,108.6,238.1,106.3,238.1
	C106.3,238.1,106.3,238.1,106.3,238.1z"/>
<path class="st0" d="M97.8,246.6c2.3,0,4.2-1.9,4.2-4.3h-8.5C93.6,244.7,95.5,246.6,97.8,246.6z"/>
<path class="st0" d="M93.5,250.8c0,2.3,1.9,4.3,4.2,4.3c0,0,0,0,0,0c2.3,0,4.2-1.9,4.2-4.2c0,0,0,0,0,0H93.5z"/>
<path class="st0" d="M106.3,246.6c-2.3,0-4.2,1.9-4.2,4.2c0,0,0,0,0,0h8.5C110.5,248.5,108.6,246.6,106.3,246.6
	C106.3,246.6,106.3,246.6,106.3,246.6z"/>
<path class="st0" d="M123.3,238.1c-2.3,0-4.2,1.9-4.2,4.2c0,0,0,0,0,0h8.5C127.5,240,125.6,238.1,123.3,238.1
	C123.3,238.1,123.3,238.1,123.3,238.1z"/>
<path class="st0" d="M114.8,246.6c2.3,0,4.2-1.9,4.2-4.3h-8.5C110.6,244.7,112.5,246.6,114.8,246.6z"/>
<path class="st0" d="M110.6,250.8c0,2.3,1.9,4.3,4.2,4.3c0,0,0,0,0,0c2.3,0,4.2-1.9,4.2-4.2c0,0,0,0,0,0H110.6z"/>
<path class="st0" d="M123.3,246.6c-2.3,0-4.2,1.9-4.2,4.2c0,0,0,0,0,0h8.5C127.5,248.5,125.6,246.6,123.3,246.6
	C123.3,246.6,123.3,246.6,123.3,246.6z"/>
<path class="st0" d="M140.3,238.1c-2.3,0-4.2,1.9-4.2,4.2c0,0,0,0,0,0h8.5C144.5,240,142.6,238.1,140.3,238.1
	C140.3,238.1,140.3,238.1,140.3,238.1z"/>
<path class="st0" d="M131.8,246.6c2.3,0,4.2-1.9,4.2-4.3h-8.5C127.6,244.7,129.5,246.6,131.8,246.6z"/>
<path class="st0" d="M127.6,250.8c0,2.3,1.9,4.3,4.2,4.3c0,0,0,0,0,0c2.3,0,4.2-1.9,4.2-4.2c0,0,0,0,0,0H127.6z"/>
<path class="st0" d="M140.3,246.6c-2.3,0-4.2,1.9-4.2,4.2c0,0,0,0,0,0h8.5C144.5,248.5,142.6,246.6,140.3,246.6
	C140.3,246.6,140.3,246.6,140.3,246.6z"/>
<path class="st0" d="M157.3,238.1c-2.3,0-4.2,1.9-4.2,4.2c0,0,0,0,0,0h8.5C161.5,240,159.6,238.1,157.3,238.1
	C157.3,238.1,157.3,238.1,157.3,238.1z"/>
<path class="st0" d="M148.8,246.6c2.3,0,4.2-1.9,4.2-4.3h-8.5C144.6,244.7,146.5,246.6,148.8,246.6z"/>
<path class="st0" d="M144.6,250.8c0,2.3,1.9,4.3,4.2,4.3c0,0,0,0,0,0c2.3,0,4.2-1.9,4.2-4.2c0,0,0,0,0,0H144.6z"/>
<path class="st0" d="M157.3,246.6c-2.3,0-4.2,1.9-4.2,4.2c0,0,0,0,0,0h8.5C161.5,248.5,159.6,246.6,157.3,246.6
	C157.3,246.6,157.3,246.6,157.3,246.6z"/>
<path class="st0" d="M174.3,238.1c-2.3,0-4.2,1.9-4.2,4.2c0,0,0,0,0,0h8.5C178.5,240,176.6,238.1,174.3,238.1
	C174.3,238.1,174.3,238.1,174.3,238.1z"/>
<path class="st0" d="M165.8,246.6c2.3,0,4.2-1.9,4.2-4.3h-8.5C161.6,244.7,163.5,246.6,165.8,246.6z"/>
<path class="st0" d="M161.6,250.8c0,2.3,1.9,4.3,4.2,4.3c0,0,0,0,0,0c2.3,0,4.2-1.9,4.2-4.2c0,0,0,0,0,0H161.6z"/>
<path class="st0" d="M174.3,246.6c-2.3,0-4.2,1.9-4.2,4.2c0,0,0,0,0,0h8.5C178.5,248.5,176.6,246.6,174.3,246.6
	C174.3,246.6,174.3,246.6,174.3,246.6z"/>
<path class="st0" d="M191.3,238.1c-2.3,0-4.2,1.9-4.2,4.2c0,0,0,0,0,0h8.5C195.6,240,193.7,238.1,191.3,238.1
	C191.3,238.1,191.3,238.1,191.3,238.1z"/>
<path class="st0" d="M182.8,246.6c2.3,0,4.2-1.9,4.2-4.3h-8.5C178.6,244.7,180.5,246.6,182.8,246.6z"/>
<path class="st0" d="M178.6,250.8c0,2.3,1.9,4.3,4.2,4.3c0,0,0,0,0,0c2.3,0,4.2-1.9,4.2-4.2c0,0,0,0,0,0H178.6z"/>
<path class="st0" d="M191.3,246.6c-2.3,0-4.2,1.9-4.2,4.2c0,0,0,0,0,0h8.5C195.6,248.5,193.7,246.6,191.3,246.6
	C191.3,246.6,191.3,246.6,191.3,246.6z"/>
<path class="st0" d="M199.8,246.6c2.3,0,4.2-1.9,4.2-4.3h-8.5C195.6,244.7,197.5,246.6,199.8,246.6z"/>
<path class="st0" d="M195.6,250.8c0,2.3,1.9,4.3,4.2,4.3c0,0,0,0,0,0c2.3,0,4.2-1.9,4.2-4.2c0,0,0,0,0,0H195.6z"/>
<path class="st0" d="M21.3,238.1c-2.3,0-4.2,1.9-4.2,4.2c0,0,0,0,0,0h8.5C25.5,240,23.6,238.1,21.3,238.1
	C21.3,238.1,21.3,238.1,21.3,238.1z"/>
<path class="st0" d="M12.8,246.6c2.3,0,4.2-1.9,4.2-4.3H8.5C8.5,244.7,10.4,246.6,12.8,246.6z"/>
<path class="st0" d="M8.5,250.8c0,2.3,1.9,4.3,4.2,4.3c0,0,0,0,0,0c2.3,0,4.2-1.9,4.2-4.2c0,0,0,0,0,0H8.5z"/>
<path class="st0" d="M21.3,246.6c-2.3,0-4.2,1.9-4.2,4.2c0,0,0,0,0,0h8.5C25.5,248.5,23.6,246.6,21.3,246.6
	C21.3,246.6,21.3,246.6,21.3,246.6z"/>
<path class="st0" d="M4.3,238.1c-2.3,0-4.2,1.9-4.2,4.2c0,0,0,0,0,0h8.5C8.5,240,6.6,238.1,4.3,238.1C4.3,238.1,4.3,238.1,4.3,238.1
	z"/>
<path class="st0" d="M4.3,246.6c-2.3,0-4.2,1.9-4.2,4.2c0,0,0,0,0,0h8.5C8.5,248.5,6.6,246.6,4.3,246.6
	C4.3,246.6,4.3,246.6,4.3,246.6z"/>
<path class="st0" d="M38.3,238.1c-2.3,0-4.2,1.9-4.2,4.2c0,0,0,0,0,0h8.5C42.5,240,40.6,238.1,38.3,238.1
	C38.3,238.1,38.3,238.1,38.3,238.1z"/>
<path class="st0" d="M29.8,246.6c2.3,0,4.2-1.9,4.2-4.3h-8.5C25.5,244.7,27.4,246.6,29.8,246.6z"/>
<path class="st0" d="M25.5,250.8c0,2.3,1.9,4.3,4.2,4.3c0,0,0,0,0,0c2.3,0,4.2-1.9,4.2-4.2c0,0,0,0,0,0H25.5z"/>
<path class="st0" d="M38.3,246.6c-2.3,0-4.2,1.9-4.2,4.2c0,0,0,0,0,0h8.5C42.5,248.5,40.6,246.6,38.3,246.6
	C38.3,246.6,38.3,246.6,38.3,246.6z"/>
<path class="st0" d="M55.3,238.1c-2.3,0-4.2,1.9-4.2,4.2c0,0,0,0,0,0h8.5C59.5,240,57.6,238.1,55.3,238.1
	C55.3,238.1,55.3,238.1,55.3,238.1z"/>
<path class="st0" d="M46.8,246.6c2.3,0,4.2-1.9,4.2-4.3h-8.5C42.5,244.7,44.4,246.6,46.8,246.6z"/>
<path class="st0" d="M42.5,250.8c0,2.3,1.9,4.3,4.2,4.3c0,0,0,0,0,0c2.3,0,4.2-1.9,4.2-4.2c0,0,0,0,0,0H42.5z"/>
<path class="st0" d="M55.3,246.6c-2.3,0-4.2,1.9-4.2,4.2c0,0,0,0,0,0h8.5C59.5,248.5,57.6,246.6,55.3,246.6
	C55.3,246.6,55.3,246.6,55.3,246.6z"/>
<path class="st0" d="M72.3,255.1c-2.3,0-4.2,1.9-4.2,4.2c0,0,0,0,0,0h8.5C76.5,257,74.6,255.1,72.3,255.1z"/>
<path class="st0" d="M63.8,263.6c2.3,0,4.2-1.9,4.2-4.3h-8.5C59.5,261.7,61.4,263.6,63.8,263.6z"/>
<path class="st0" d="M59.5,267.9c0,2.3,1.9,4.3,4.2,4.3c0,0,0,0,0,0c2.3,0,4.2-1.9,4.2-4.2c0,0,0,0,0,0H59.5z"/>
<path class="st0" d="M80.8,263.6c2.3,0,4.2-1.9,4.2-4.3h-8.5C76.5,261.7,78.4,263.6,80.8,263.6z"/>
<path class="st0" d="M76.5,267.9c0,2.3,1.9,4.3,4.2,4.3c0,0,0,0,0,0c2.3,0,4.2-1.9,4.2-4.2c0,0,0,0,0,0H76.5z"/>
<path class="st0" d="M72.3,263.6c-2.3,0-4.2,1.9-4.2,4.2c0,0,0,0,0,0h8.5C76.5,265.5,74.6,263.6,72.3,263.6z"/>
<path class="st0" d="M55.3,255.1c-2.3,0-4.2,1.9-4.2,4.3h8.5C59.5,257,57.6,255.1,55.3,255.1C55.3,255.1,55.3,255.1,55.3,255.1z"/>
<path class="st0" d="M55.3,263.6c-2.3,0-4.2,1.9-4.2,4.2c0,0,0,0,0,0h8.5C59.5,265.5,57.6,263.6,55.3,263.6
	C55.3,263.6,55.3,263.6,55.3,263.6z"/>
<path class="st0" d="M148.8,263.6c2.3,0,4.2-1.9,4.2-4.3h-8.5C144.6,261.7,146.5,263.6,148.8,263.6z"/>
<path class="st0" d="M144.6,267.9c0,2.3,1.9,4.3,4.2,4.3c0,0,0,0,0,0c2.3,0,4.2-1.9,4.2-4.2c0,0,0,0,0,0H144.6z"/>
<path class="st0" d="M140.3,255.1c-2.3,0-4.2,1.9-4.2,4.2c0,0,0,0,0,0h8.5C144.5,257,142.6,255.1,140.3,255.1z"/>
<path class="st0" d="M131.8,263.6c2.3,0,4.2-1.9,4.2-4.3h-8.5C127.6,261.7,129.5,263.6,131.8,263.6z"/>
<path class="st0" d="M127.6,267.9c0,2.3,1.9,4.3,4.2,4.3c0,0,0,0,0,0c2.3,0,4.2-1.9,4.2-4.2c0,0,0,0,0,0H127.6z"/>
<path class="st0" d="M140.3,263.6c-2.3,0-4.2,1.9-4.2,4.2c0,0,0,0,0,0h8.5C144.5,265.5,142.6,263.6,140.3,263.6z"/>
<path class="st0" d="M123.3,255.1c-2.3,0-4.2,1.9-4.2,4.2c0,0,0,0,0,0h8.5C127.5,257,125.6,255.1,123.3,255.1z"/>
<path class="st0" d="M123.3,263.6c-2.3,0-4.2,1.9-4.2,4.2c0,0,0,0,0,0h8.5C127.5,265.5,125.6,263.6,123.3,263.6z"/>
</svg>
