<?xml version="1.0" encoding="UTF-8" standalone="no"?>
<svg width="144px" height="196px" viewBox="0 0 144 196" version="1.1" xmlns="http://www.w3.org/2000/svg" xmlns:xlink="http://www.w3.org/1999/xlink">
    <!-- Generator: Sketch 39.1 (31720) - http://www.bohemiancoding.com/sketch -->
    <title>army</title>
    <desc>Created with Sketch.</desc>
    <defs></defs>
    <g id="Symbols" stroke="none" stroke-width="1" fill="none" fill-rule="evenodd">
        <g id="box-areas" transform="translate(-755.000000, -408.000000)">
            <g id="army" transform="translate(755.000000, 408.000000)">
                <path d="M69.7494,58.4941 C68.5054,58.4941 67.4994,59.5021 67.4994,60.7461 L71.9994,60.7461 C71.9994,59.5021 70.9934,58.4941 69.7494,58.4941 L69.7494,58.4941 Z M69.7494,53.9991 C68.5054,53.9991 67.4994,55.0071 67.4994,56.2511 L71.9994,56.2511 C71.9994,55.0071 70.9934,53.9991 69.7494,53.9991 L69.7494,53.9991 Z M71.9994,60.7461 C71.9994,61.9901 73.0064,62.9981 74.2494,62.9981 C75.4914,62.9981 76.4994,61.9901 76.4994,60.7461 L71.9994,60.7461 Z M74.2504,58.5041 C75.4914,58.5041 76.5004,57.4961 76.5004,56.2521 L71.9994,56.2521 C71.9994,57.4961 73.0064,58.5041 74.2504,58.5041 L74.2504,58.5041 Z M69.7494,49.4941 C68.5054,49.4941 67.4994,50.5021 67.4994,51.7461 L71.9994,51.7461 C71.9994,50.5021 70.9934,49.4941 69.7494,49.4941 L69.7494,49.4941 Z M69.7494,44.9991 C68.5054,44.9991 67.4994,46.0081 67.4994,47.2511 L71.9994,47.2511 C71.9994,46.0081 70.9934,44.9991 69.7494,44.9991 L69.7494,44.9991 Z M71.9994,51.7461 C71.9994,52.9901 73.0064,53.9991 74.2494,53.9991 C75.4914,53.9991 76.4994,52.9901 76.4994,51.7461 L71.9994,51.7461 Z M74.2504,49.5041 C75.4914,49.5041 76.5004,48.4961 76.5004,47.2521 L71.9994,47.2521 C71.9994,48.4961 73.0064,49.5041 74.2504,49.5041 L74.2504,49.5041 Z M69.7494,40.4941 C68.5054,40.4941 67.4994,41.5031 67.4994,42.7461 L71.9994,42.7461 C71.9994,41.5031 70.9934,40.4941 69.7494,40.4941 L69.7494,40.4941 Z M69.7494,35.9991 C68.5054,35.9991 67.4994,37.0081 67.4994,38.2511 L71.9994,38.2511 C71.9994,37.0081 70.9934,35.9991 69.7494,35.9991 L69.7494,35.9991 Z M71.9994,42.7471 C71.9994,43.9901 73.0064,44.9991 74.2494,44.9991 C75.4914,44.9991 76.4994,43.9901 76.4994,42.7471 L71.9994,42.7471 Z M74.2504,40.5041 C75.4914,40.5041 76.5004,39.4961 76.5004,38.2521 L71.9994,38.2521 C71.9994,39.4961 73.0064,40.5041 74.2504,40.5041 L74.2504,40.5041 Z M114.7494,31.4941 C113.5064,31.4941 112.4994,32.5031 112.4994,33.7461 L116.9994,33.7461 C116.9994,32.5031 115.9934,31.4941 114.7494,31.4941 L114.7494,31.4941 Z M107.9994,33.7471 C107.9994,34.9901 109.0064,35.9991 110.2494,35.9991 C111.4914,35.9991 112.5004,34.9901 112.5004,33.7471 L107.9994,33.7471 Z M110.2504,31.5041 C111.4924,31.5041 112.5004,30.4961 112.5004,29.2521 L108.0004,29.2521 C108.0004,30.4961 109.0064,31.5041 110.2504,31.5041 L110.2504,31.5041 Z M114.7494,26.9991 C113.5064,26.9991 112.4994,28.0081 112.4994,29.2511 L116.9994,29.2511 C116.9994,28.0081 115.9934,26.9991 114.7494,26.9991 L114.7494,26.9991 Z M87.7494,22.4941 C86.5054,22.4941 85.4994,23.5021 85.4994,24.7461 L89.9994,24.7461 C89.9994,23.5021 88.9934,22.4941 87.7494,22.4941 L87.7494,22.4941 Z M80.9994,24.7471 C80.9994,25.9901 82.0054,26.9991 83.2494,26.9991 C84.4914,26.9991 85.4994,25.9901 85.4994,24.7471 L80.9994,24.7471 Z M83.2494,22.5051 C84.4914,22.5051 85.5004,21.4961 85.5004,20.2531 L80.9994,20.2531 C80.9994,21.4961 82.0064,22.5051 83.2494,22.5051 L83.2494,22.5051 Z M87.7494,17.9991 C86.5054,17.9991 85.4994,19.0081 85.4994,20.2511 L89.9994,20.2511 C89.9994,19.0081 88.9934,17.9991 87.7494,17.9991 L87.7494,17.9991 Z M60.7494,22.4941 C59.5054,22.4941 58.4994,23.5021 58.4994,24.7461 L62.9994,24.7461 C62.9994,23.5021 61.9934,22.4941 60.7494,22.4941 L60.7494,22.4941 Z M53.9994,24.7471 C53.9994,25.9901 55.0064,26.9991 56.2494,26.9991 C57.4914,26.9991 58.4994,25.9901 58.4994,24.7471 L53.9994,24.7471 Z M56.2504,22.5051 C57.4914,22.5051 58.5004,21.4961 58.5004,20.2531 L54.0004,20.2531 C54.0004,21.4961 55.0064,22.5051 56.2504,22.5051 L56.2504,22.5051 Z M60.7494,17.9991 C59.5054,17.9991 58.4994,19.0081 58.4994,20.2511 L62.9994,20.2511 C62.9994,19.0081 61.9934,17.9991 60.7494,17.9991 L60.7494,17.9991 Z M105.7494,8.9941 C104.5064,8.9941 103.4994,10.0031 103.4994,11.2461 L107.9994,11.2461 C107.9994,10.0031 106.9914,8.9941 105.7494,8.9941 L105.7494,8.9941 Z M98.9994,11.2471 C98.9994,12.4901 100.0074,13.4991 101.2494,13.4991 C102.4914,13.4991 103.4994,12.4901 103.4994,11.2471 L98.9994,11.2471 Z M101.2504,9.0051 C102.4914,9.0051 103.5004,7.9961 103.5004,6.7531 L99.0004,6.7531 C99.0004,7.9961 100.0064,9.0051 101.2504,9.0051 L101.2504,9.0051 Z M105.7494,4.4991 C104.5064,4.4991 103.4994,5.5081 103.4994,6.7521 L107.9994,6.7521 C107.9994,5.5081 106.9914,4.4991 105.7494,4.4991 L105.7494,4.4991 Z M114.7494,8.9941 C113.5064,8.9941 112.4994,10.0031 112.4994,11.2461 L116.9994,11.2461 C116.9994,10.0031 115.9914,8.9941 114.7494,8.9941 L114.7494,8.9941 Z M107.9994,11.2471 C107.9994,12.4901 109.0074,13.4991 110.2494,13.4991 C111.4914,13.4991 112.4994,12.4901 112.4994,11.2471 L107.9994,11.2471 Z M110.2504,9.0051 C111.4924,9.0051 112.5004,7.9961 112.5004,6.7531 L108.0004,6.7531 C108.0004,7.9961 109.0064,9.0051 110.2504,9.0051 L110.2504,9.0051 Z M114.7494,4.4991 C113.5064,4.4991 112.4994,5.5081 112.4994,6.7521 L116.9994,6.7521 C116.9994,5.5081 115.9914,4.4991 114.7494,4.4991 L114.7494,4.4991 Z M87.7494,8.9941 C86.5054,8.9941 85.4994,10.0031 85.4994,11.2461 L89.9994,11.2461 C89.9994,10.0031 88.9914,8.9941 87.7494,8.9941 L87.7494,8.9941 Z M80.9984,11.2471 C80.9984,12.4901 82.0074,13.4991 83.2494,13.4991 C84.4904,13.4991 85.4994,12.4901 85.4994,11.2471 L80.9984,11.2471 Z M83.2494,9.0051 C84.4914,9.0051 85.5004,7.9961 85.5004,6.7531 L80.9994,6.7531 C80.9994,7.9961 82.0064,9.0051 83.2494,9.0051 L83.2494,9.0051 Z M87.7494,4.4991 C86.5054,4.4991 85.4994,5.5081 85.4994,6.7521 L89.9994,6.7521 C89.9994,5.5081 88.9914,4.4991 87.7494,4.4991 L87.7494,4.4991 Z M96.7494,8.9941 C95.5054,8.9941 94.4994,10.0031 94.4994,11.2461 L98.9994,11.2461 C98.9994,10.0031 97.9914,8.9941 96.7494,8.9941 L96.7494,8.9941 Z M89.9984,11.2471 C89.9984,12.4901 91.0074,13.4991 92.2484,13.4991 C93.4904,13.4991 94.4994,12.4901 94.4994,11.2471 L89.9984,11.2471 Z M92.2494,9.0051 C93.4914,9.0051 94.5004,7.9961 94.5004,6.7531 L89.9994,6.7531 C89.9994,7.9961 91.0064,9.0051 92.2494,9.0051 L92.2494,9.0051 Z M96.7494,4.4991 C95.5054,4.4991 94.4994,5.5081 94.4994,6.7521 L98.9994,6.7521 C98.9994,5.5081 97.9914,4.4991 96.7494,4.4991 L96.7494,4.4991 Z M69.7494,4.4941 C68.5054,4.4941 67.4994,5.5031 67.4994,6.7461 L71.9994,6.7461 C71.9994,5.5031 70.9934,4.4941 69.7494,4.4941 L69.7494,4.4941 Z M62.9994,6.7471 C62.9994,7.9911 64.0064,8.9991 65.2494,8.9991 C66.4914,8.9991 67.4994,7.9911 67.4994,6.7471 L62.9994,6.7471 Z M65.2494,4.5051 C66.4914,4.5051 67.5004,3.4961 67.5004,2.2531 L62.9994,2.2531 C62.9994,3.4961 64.0064,4.5051 65.2494,4.5051 L65.2494,4.5051 Z M69.7494,0.0001 C68.5054,0.0001 67.4994,1.0081 67.4994,2.2521 L71.9994,2.2521 C71.9994,1.0081 70.9934,0.0001 69.7494,0.0001 L69.7494,0.0001 Z M78.7494,4.4941 C77.5054,4.4941 76.4994,5.5031 76.4994,6.7461 L80.9994,6.7461 C80.9994,5.5031 79.9934,4.4941 78.7494,4.4941 L78.7494,4.4941 Z M71.9994,6.7471 C71.9994,7.9911 73.0064,8.9991 74.2494,8.9991 C75.4914,8.9991 76.4994,7.9911 76.4994,6.7471 L71.9994,6.7471 Z M74.2504,4.5051 C75.4914,4.5051 76.5004,3.4961 76.5004,2.2531 L71.9994,2.2531 C71.9994,3.4961 73.0064,4.5051 74.2504,4.5051 L74.2504,4.5051 Z M78.7494,0.0001 C77.5054,0.0001 76.4994,1.0081 76.4994,2.2521 L80.9994,2.2521 C80.9994,1.0081 79.9934,0.0001 78.7494,0.0001 L78.7494,0.0001 Z M69.7494,13.4941 C68.5054,13.4941 67.4994,14.5031 67.4994,15.7461 L71.9994,15.7461 C71.9994,14.5031 70.9934,13.4941 69.7494,13.4941 L69.7494,13.4941 Z M62.9994,15.7471 C62.9994,16.9901 64.0064,17.9991 65.2494,17.9991 C66.4914,17.9991 67.4994,16.9901 67.4994,15.7471 L62.9994,15.7471 Z M65.2494,13.5051 C66.4914,13.5051 67.5004,12.4961 67.5004,11.2531 L62.9994,11.2531 C62.9994,12.4961 64.0064,13.5051 65.2494,13.5051 L65.2494,13.5051 Z M69.7494,8.9991 C68.5054,8.9991 67.4994,10.0081 67.4994,11.2521 L71.9994,11.2521 C71.9994,10.0081 70.9934,8.9991 69.7494,8.9991 L69.7494,8.9991 Z M78.7494,13.4941 C77.5054,13.4941 76.4994,14.5031 76.4994,15.7461 L80.9994,15.7461 C80.9994,14.5031 79.9934,13.4941 78.7494,13.4941 L78.7494,13.4941 Z M71.9994,15.7471 C71.9994,16.9901 73.0064,17.9991 74.2494,17.9991 C75.4914,17.9991 76.4994,16.9901 76.4994,15.7471 L71.9994,15.7471 Z M74.2504,13.5051 C75.4914,13.5051 76.5004,12.4961 76.5004,11.2531 L71.9994,11.2531 C71.9994,12.4961 73.0064,13.5051 74.2504,13.5051 L74.2504,13.5051 Z M78.7494,8.9991 C77.5054,8.9991 76.4994,10.0081 76.4994,11.2521 L80.9994,11.2521 C80.9994,10.0081 79.9934,8.9991 78.7494,8.9991 L78.7494,8.9991 Z M69.7494,22.4941 C68.5054,22.4941 67.4994,23.5021 67.4994,24.7461 L71.9994,24.7461 C71.9994,23.5021 70.9934,22.4941 69.7494,22.4941 L69.7494,22.4941 Z M62.9994,24.7471 C62.9994,25.9901 64.0064,26.9991 65.2494,26.9991 C66.4914,26.9991 67.4994,25.9901 67.4994,24.7471 L62.9994,24.7471 Z M65.2494,22.5051 C66.4914,22.5051 67.5004,21.4961 67.5004,20.2531 L62.9994,20.2531 C62.9994,21.4961 64.0064,22.5051 65.2494,22.5051 L65.2494,22.5051 Z M69.7494,17.9991 C68.5054,17.9991 67.4994,19.0081 67.4994,20.2511 L71.9994,20.2511 C71.9994,19.0081 70.9934,17.9991 69.7494,17.9991 L69.7494,17.9991 Z M78.7494,22.4941 C77.5054,22.4941 76.4994,23.5021 76.4994,24.7461 L80.9994,24.7461 C80.9994,23.5021 79.9934,22.4941 78.7494,22.4941 L78.7494,22.4941 Z M71.9994,24.7471 C71.9994,25.9901 73.0064,26.9991 74.2494,26.9991 C75.4914,26.9991 76.4994,25.9901 76.4994,24.7471 L71.9994,24.7471 Z M74.2504,22.5051 C75.4914,22.5051 76.5004,21.4961 76.5004,20.2531 L71.9994,20.2531 C71.9994,21.4961 73.0064,22.5051 74.2504,22.5051 L74.2504,22.5051 Z M78.7494,17.9991 C77.5054,17.9991 76.4994,19.0081 76.4994,20.2511 L80.9994,20.2511 C80.9994,19.0081 79.9934,17.9991 78.7494,17.9991 L78.7494,17.9991 Z M87.7494,31.4941 C86.5054,31.4941 85.4994,32.5031 85.4994,33.7461 L89.9994,33.7461 C89.9994,32.5031 88.9934,31.4941 87.7494,31.4941 L87.7494,31.4941 Z M80.9994,33.7471 C80.9994,34.9901 82.0054,35.9991 83.2494,35.9991 C84.4914,35.9991 85.4994,34.9901 85.4994,33.7471 L80.9994,33.7471 Z M83.2494,31.5041 C84.4914,31.5041 85.5004,30.4961 85.5004,29.2521 L80.9994,29.2521 C80.9994,30.4961 82.0064,31.5041 83.2494,31.5041 L83.2494,31.5041 Z M87.7494,26.9991 C86.5054,26.9991 85.4994,28.0081 85.4994,29.2511 L89.9994,29.2511 C89.9994,28.0081 88.9934,26.9991 87.7494,26.9991 L87.7494,26.9991 Z M96.7494,31.4941 C95.5054,31.4941 94.4994,32.5031 94.4994,33.7461 L98.9994,33.7461 C98.9994,32.5031 97.9924,31.4941 96.7494,31.4941 L96.7494,31.4941 Z M89.9994,33.7471 C89.9994,34.9901 91.0054,35.9991 92.2494,35.9991 C93.4914,35.9991 94.4994,34.9901 94.4994,33.7471 L89.9994,33.7471 Z M92.2494,31.5041 C93.4914,31.5041 94.5004,30.4961 94.5004,29.2521 L89.9994,29.2521 C89.9994,30.4961 91.0064,31.5041 92.2494,31.5041 L92.2494,31.5041 Z M96.7494,26.9991 C95.5054,26.9991 94.4994,28.0081 94.4994,29.2511 L98.9994,29.2511 C98.9994,28.0081 97.9924,26.9991 96.7494,26.9991 L96.7494,26.9991 Z M105.7494,31.4941 C104.5054,31.4941 103.4994,32.5031 103.4994,33.7461 L107.9994,33.7461 C107.9994,32.5031 106.9924,31.4941 105.7494,31.4941 L105.7494,31.4941 Z M98.9994,33.7471 C98.9994,34.9901 100.0054,35.9991 101.2494,35.9991 C102.4914,35.9991 103.4994,34.9901 103.4994,33.7471 L98.9994,33.7471 Z M101.2494,31.5041 C102.4914,31.5041 103.4994,30.4961 103.4994,29.2521 L98.9994,29.2521 C98.9994,30.4961 100.0064,31.5041 101.2494,31.5041 L101.2494,31.5041 Z M105.7494,26.9991 C104.5054,26.9991 103.4994,28.0081 103.4994,29.2511 L107.9994,29.2511 C107.9994,28.0081 106.9924,26.9991 105.7494,26.9991 L105.7494,26.9991 Z M60.7494,31.4941 C59.5054,31.4941 58.4994,32.5031 58.4994,33.7461 L62.9994,33.7461 C62.9994,32.5031 61.9934,31.4941 60.7494,31.4941 L60.7494,31.4941 Z M53.9994,33.7471 C53.9994,34.9901 55.0064,35.9991 56.2494,35.9991 C57.4914,35.9991 58.4994,34.9901 58.4994,33.7471 L53.9994,33.7471 Z M56.2504,31.5041 C57.4914,31.5041 58.5004,30.4961 58.5004,29.2521 L54.0004,29.2521 C54.0004,30.4961 55.0064,31.5041 56.2504,31.5041 L56.2504,31.5041 Z M60.7494,26.9991 C59.5054,26.9991 58.4994,28.0081 58.4994,29.2511 L62.9994,29.2511 C62.9994,28.0081 61.9934,26.9991 60.7494,26.9991 L60.7494,26.9991 Z M69.7494,31.4941 C68.5054,31.4941 67.4994,32.5031 67.4994,33.7461 L71.9994,33.7461 C71.9994,32.5031 70.9934,31.4941 69.7494,31.4941 L69.7494,31.4941 Z M62.9994,33.7471 C62.9994,34.9901 64.0064,35.9991 65.2494,35.9991 C66.4914,35.9991 67.4994,34.9901 67.4994,33.7471 L62.9994,33.7471 Z M65.2494,31.5041 C66.4914,31.5041 67.5004,30.4961 67.5004,29.2521 L62.9994,29.2521 C62.9994,30.4961 64.0064,31.5041 65.2494,31.5041 L65.2494,31.5041 Z M69.7494,26.9991 C68.5054,26.9991 67.4994,28.0081 67.4994,29.2511 L71.9994,29.2511 C71.9994,28.0081 70.9934,26.9991 69.7494,26.9991 L69.7494,26.9991 Z M78.7494,31.4941 C77.5054,31.4941 76.4994,32.5031 76.4994,33.7461 L80.9994,33.7461 C80.9994,32.5031 79.9934,31.4941 78.7494,31.4941 L78.7494,31.4941 Z M71.9994,33.7471 C71.9994,34.9901 73.0064,35.9991 74.2494,35.9991 C75.4914,35.9991 76.4994,34.9901 76.4994,33.7471 L71.9994,33.7471 Z M74.2504,31.5041 C75.4914,31.5041 76.5004,30.4961 76.5004,29.2521 L71.9994,29.2521 C71.9994,30.4961 73.0064,31.5041 74.2504,31.5041 L74.2504,31.5041 Z M78.7494,26.9991 C77.5054,26.9991 76.4994,28.0081 76.4994,29.2511 L80.9994,29.2511 C80.9994,28.0081 79.9934,26.9991 78.7494,26.9991 L78.7494,26.9991 Z M33.7494,31.4941 C32.5064,31.4941 31.4994,32.5031 31.4994,33.7461 L35.9994,33.7461 C35.9994,32.5031 34.9934,31.4941 33.7494,31.4941 L33.7494,31.4941 Z M26.9994,33.7471 C26.9994,34.9901 28.0064,35.9991 29.2504,35.9991 C30.4914,35.9991 31.5004,34.9901 31.5004,33.7471 L26.9994,33.7471 Z M29.2504,31.5041 C30.4924,31.5041 31.5004,30.4961 31.5004,29.2521 L27.0004,29.2521 C27.0004,30.4961 28.0064,31.5041 29.2504,31.5041 L29.2504,31.5041 Z M33.7494,26.9991 C32.5064,26.9991 31.4994,28.0081 31.4994,29.2511 L35.9994,29.2511 C35.9994,28.0081 34.9934,26.9991 33.7494,26.9991 L33.7494,26.9991 Z M42.7494,31.4941 C41.5064,31.4941 40.4994,32.5031 40.4994,33.7461 L44.9994,33.7461 C44.9994,32.5031 43.9934,31.4941 42.7494,31.4941 L42.7494,31.4941 Z M35.9994,33.7471 C35.9994,34.9901 37.0064,35.9991 38.2494,35.9991 C39.4914,35.9991 40.5004,34.9901 40.5004,33.7471 L35.9994,33.7471 Z M38.2504,31.5041 C39.4914,31.5041 40.5004,30.4961 40.5004,29.2521 L36.0004,29.2521 C36.0004,30.4961 37.0064,31.5041 38.2504,31.5041 L38.2504,31.5041 Z M42.7494,26.9991 C41.5064,26.9991 40.4994,28.0081 40.4994,29.2511 L44.9994,29.2511 C44.9994,28.0081 43.9934,26.9991 42.7494,26.9991 L42.7494,26.9991 Z M51.7494,31.4941 C50.5064,31.4941 49.4994,32.5031 49.4994,33.7461 L53.9994,33.7461 C53.9994,32.5031 52.9934,31.4941 51.7494,31.4941 L51.7494,31.4941 Z M44.9994,33.7471 C44.9994,34.9901 46.0064,35.9991 47.2494,35.9991 C48.4914,35.9991 49.5004,34.9901 49.5004,33.7471 L44.9994,33.7471 Z M47.2504,31.5041 C48.4914,31.5041 49.5004,30.4961 49.5004,29.2521 L44.9994,29.2521 C44.9994,30.4961 46.0064,31.5041 47.2504,31.5041 L47.2504,31.5041 Z M51.7494,26.9991 C50.5064,26.9991 49.4994,28.0081 49.4994,29.2511 L53.9994,29.2511 C53.9994,28.0081 52.9934,26.9991 51.7494,26.9991 L51.7494,26.9991 Z M123.7494,31.4881 C122.5054,31.4881 121.4984,32.4971 121.4984,33.7401 L125.9994,33.7401 C125.9994,32.4971 124.9924,31.4881 123.7494,31.4881 L123.7494,31.4881 Z M116.9994,33.7411 C116.9994,34.9851 118.0054,35.9951 119.2494,35.9951 C120.4914,35.9951 121.4994,34.9851 121.4994,33.7411 L116.9994,33.7411 Z M119.2494,31.4991 C120.4914,31.4991 121.4994,30.4911 121.4994,29.2451 L116.9994,29.2451 C116.9994,30.4911 118.0054,31.4991 119.2494,31.4991 L119.2494,31.4991 Z M123.7494,26.9941 C122.5054,26.9941 121.4984,28.0031 121.4984,29.2461 L125.9994,29.2461 C125.9994,28.0031 124.9924,26.9941 123.7494,26.9941 L123.7494,26.9941 Z M24.7504,31.4831 C23.5064,31.4831 22.5004,32.4911 22.5004,33.7371 L27.0004,33.7371 C27.0004,32.4911 25.9924,31.4831 24.7504,31.4831 L24.7504,31.4831 Z M17.9994,33.7361 C17.9994,34.9791 19.0084,35.9881 20.2494,35.9881 C21.4914,35.9881 22.5004,34.9791 22.5004,33.7361 L17.9994,33.7361 Z M20.2504,31.4941 C21.4924,31.4941 22.5014,30.4841 22.5014,29.2401 L18.0004,29.2401 C18.0004,30.4841 19.0074,31.4941 20.2504,31.4941 L20.2504,31.4941 Z M24.7504,26.9881 C23.5064,26.9881 22.5004,27.9971 22.5004,29.2411 L27.0004,29.2411 C27.0004,27.9971 25.9924,26.9881 24.7504,26.9881 L24.7504,26.9881 Z M114.7494,67.4991 C113.5064,67.4991 112.4994,68.5071 112.4994,69.7531 L116.9994,69.7531 C116.9994,68.5071 115.9934,67.4991 114.7494,67.4991 L114.7494,67.4991 Z M107.9994,69.7521 C107.9994,70.9961 109.0064,72.0041 110.2494,72.0041 C111.4914,72.0041 112.5004,70.9961 112.5004,69.7521 L107.9994,69.7521 Z M110.2504,67.5101 C111.4924,67.5101 112.5004,66.5011 112.5004,65.2581 L108.0004,65.2581 C108.0004,66.5011 109.0064,67.5101 110.2504,67.5101 L110.2504,67.5101 Z M114.7494,63.0041 C113.5064,63.0041 112.4994,64.0131 112.4994,65.2581 L116.9994,65.2581 C116.9994,64.0131 115.9934,63.0041 114.7494,63.0041 L114.7494,63.0041 Z M87.7494,85.4991 C86.5054,85.4991 85.4994,86.5071 85.4994,87.7531 L89.9994,87.7531 C89.9994,86.5071 88.9934,85.4991 87.7494,85.4991 L87.7494,85.4991 Z M80.9994,87.7521 C80.9994,88.9961 82.0054,90.0041 83.2494,90.0041 C84.4914,90.0041 85.4994,88.9961 85.4994,87.7521 L80.9994,87.7521 Z M83.2494,85.5101 C84.4914,85.5101 85.5004,84.5011 85.5004,83.2581 L80.9994,83.2581 C80.9994,84.5011 82.0064,85.5101 83.2494,85.5101 L83.2494,85.5101 Z M87.7494,81.0041 C86.5054,81.0041 85.4994,82.0121 85.4994,83.2581 L89.9994,83.2581 C89.9994,82.0121 88.9934,81.0041 87.7494,81.0041 L87.7494,81.0041 Z M96.7494,85.4991 C95.5054,85.4991 94.4994,86.5071 94.4994,87.7531 L98.9994,87.7531 C98.9994,86.5071 97.9924,85.4991 96.7494,85.4991 L96.7494,85.4991 Z M89.9994,87.7521 C89.9994,88.9961 91.0054,90.0041 92.2494,90.0041 C93.4914,90.0041 94.4994,88.9961 94.4994,87.7521 L89.9994,87.7521 Z M92.2494,85.5101 C93.4914,85.5101 94.5004,84.5011 94.5004,83.2581 L89.9994,83.2581 C89.9994,84.5011 91.0064,85.5101 92.2494,85.5101 L92.2494,85.5101 Z M96.7494,81.0041 C95.5054,81.0041 94.4994,82.0121 94.4994,83.2581 L98.9994,83.2581 C98.9994,82.0121 97.9924,81.0041 96.7494,81.0041 L96.7494,81.0041 Z M60.7494,85.4991 C59.5054,85.4991 58.4994,86.5071 58.4994,87.7531 L62.9994,87.7531 C62.9994,86.5071 61.9934,85.4991 60.7494,85.4991 L60.7494,85.4991 Z M53.9994,87.7521 C53.9994,88.9961 55.0064,90.0041 56.2494,90.0041 C57.4914,90.0041 58.4994,88.9961 58.4994,87.7521 L53.9994,87.7521 Z M56.2504,85.5101 C57.4914,85.5101 58.5004,84.5011 58.5004,83.2581 L54.0004,83.2581 C54.0004,84.5011 55.0064,85.5101 56.2504,85.5101 L56.2504,85.5101 Z M60.7494,81.0041 C59.5054,81.0041 58.4994,82.0121 58.4994,83.2581 L62.9994,83.2581 C62.9994,82.0121 61.9934,81.0041 60.7494,81.0041 L60.7494,81.0041 Z M69.7494,85.4991 C68.5054,85.4991 67.4994,86.5071 67.4994,87.7531 L71.9994,87.7531 C71.9994,86.5071 70.9934,85.4991 69.7494,85.4991 L69.7494,85.4991 Z M62.9994,87.7521 C62.9994,88.9961 64.0064,90.0041 65.2494,90.0041 C66.4914,90.0041 67.4994,88.9961 67.4994,87.7521 L62.9994,87.7521 Z M65.2494,85.5101 C66.4914,85.5101 67.5004,84.5011 67.5004,83.2581 L62.9994,83.2581 C62.9994,84.5011 64.0064,85.5101 65.2494,85.5101 L65.2494,85.5101 Z M69.7494,81.0041 C68.5054,81.0041 67.4994,82.0121 67.4994,83.2581 L71.9994,83.2581 C71.9994,82.0121 70.9934,81.0041 69.7494,81.0041 L69.7494,81.0041 Z M78.7494,85.4991 C77.5054,85.4991 76.4994,86.5071 76.4994,87.7531 L80.9994,87.7531 C80.9994,86.5071 79.9934,85.4991 78.7494,85.4991 L78.7494,85.4991 Z M71.9994,87.7521 C71.9994,88.9961 73.0064,90.0041 74.2494,90.0041 C75.4914,90.0041 76.4994,88.9961 76.4994,87.7521 L71.9994,87.7521 Z M74.2504,85.5101 C75.4914,85.5101 76.5004,84.5011 76.5004,83.2581 L71.9994,83.2581 C71.9994,84.5011 73.0064,85.5101 74.2504,85.5101 L74.2504,85.5101 Z M78.7494,81.0041 C77.5054,81.0041 76.4994,82.0121 76.4994,83.2581 L80.9994,83.2581 C80.9994,82.0121 79.9934,81.0041 78.7494,81.0041 L78.7494,81.0041 Z M51.7494,85.4991 C50.5064,85.4991 49.4994,86.5071 49.4994,87.7531 L53.9994,87.7531 C53.9994,86.5071 52.9934,85.4991 51.7494,85.4991 L51.7494,85.4991 Z M44.9994,87.7521 C44.9994,88.9961 46.0064,90.0041 47.2494,90.0041 C48.4914,90.0041 49.5004,88.9961 49.5004,87.7521 L44.9994,87.7521 Z M47.2504,85.5101 C48.4914,85.5101 49.5004,84.5011 49.5004,83.2581 L44.9994,83.2581 C44.9994,84.5011 46.0064,85.5101 47.2504,85.5101 L47.2504,85.5101 Z M51.7494,81.0041 C50.5064,81.0041 49.4994,82.0121 49.4994,83.2581 L53.9994,83.2581 C53.9994,82.0121 52.9934,81.0041 51.7494,81.0041 L51.7494,81.0041 Z M87.7494,76.4991 C86.5054,76.4991 85.4994,77.5071 85.4994,78.7531 L89.9994,78.7531 C89.9994,77.5071 88.9934,76.4991 87.7494,76.4991 L87.7494,76.4991 Z M80.9994,78.7521 C80.9994,79.9961 82.0054,81.0041 83.2494,81.0041 C84.4914,81.0041 85.4994,79.9961 85.4994,78.7521 L80.9994,78.7521 Z M83.2494,76.5101 C84.4914,76.5101 85.5004,75.5011 85.5004,74.2581 L80.9994,74.2581 C80.9994,75.5011 82.0064,76.5101 83.2494,76.5101 L83.2494,76.5101 Z M87.7494,72.0041 C86.5054,72.0041 85.4994,73.0121 85.4994,74.2581 L89.9994,74.2581 C89.9994,73.0121 88.9934,72.0041 87.7494,72.0041 L87.7494,72.0041 Z M96.7494,76.4991 C95.5054,76.4991 94.4994,77.5071 94.4994,78.7531 L98.9994,78.7531 C98.9994,77.5071 97.9924,76.4991 96.7494,76.4991 L96.7494,76.4991 Z M89.9994,78.7521 C89.9994,79.9961 91.0054,81.0041 92.2494,81.0041 C93.4914,81.0041 94.4994,79.9961 94.4994,78.7521 L89.9994,78.7521 Z M92.2494,76.5101 C93.4914,76.5101 94.5004,75.5011 94.5004,74.2581 L89.9994,74.2581 C89.9994,75.5011 91.0064,76.5101 92.2494,76.5101 L92.2494,76.5101 Z M96.7494,72.0041 C95.5054,72.0041 94.4994,73.0121 94.4994,74.2581 L98.9994,74.2581 C98.9994,73.0121 97.9924,72.0041 96.7494,72.0041 L96.7494,72.0041 Z M60.7494,76.4991 C59.5054,76.4991 58.4994,77.5071 58.4994,78.7531 L62.9994,78.7531 C62.9994,77.5071 61.9934,76.4991 60.7494,76.4991 L60.7494,76.4991 Z M53.9994,78.7521 C53.9994,79.9961 55.0064,81.0041 56.2494,81.0041 C57.4914,81.0041 58.4994,79.9961 58.4994,78.7521 L53.9994,78.7521 Z M56.2504,76.5101 C57.4914,76.5101 58.5004,75.5011 58.5004,74.2581 L54.0004,74.2581 C54.0004,75.5011 55.0064,76.5101 56.2504,76.5101 L56.2504,76.5101 Z M60.7494,72.0041 C59.5054,72.0041 58.4994,73.0121 58.4994,74.2581 L62.9994,74.2581 C62.9994,73.0121 61.9934,72.0041 60.7494,72.0041 L60.7494,72.0041 Z M69.7494,76.4991 C68.5054,76.4991 67.4994,77.5071 67.4994,78.7531 L71.9994,78.7531 C71.9994,77.5071 70.9934,76.4991 69.7494,76.4991 L69.7494,76.4991 Z M62.9994,78.7521 C62.9994,79.9961 64.0064,81.0041 65.2494,81.0041 C66.4914,81.0041 67.4994,79.9961 67.4994,78.7521 L62.9994,78.7521 Z M65.2494,76.5101 C66.4914,76.5101 67.5004,75.5011 67.5004,74.2581 L62.9994,74.2581 C62.9994,75.5011 64.0064,76.5101 65.2494,76.5101 L65.2494,76.5101 Z M69.7494,72.0041 C68.5054,72.0041 67.4994,73.0121 67.4994,74.2581 L71.9994,74.2581 C71.9994,73.0121 70.9934,72.0041 69.7494,72.0041 L69.7494,72.0041 Z M78.7494,76.4991 C77.5054,76.4991 76.4994,77.5071 76.4994,78.7531 L80.9994,78.7531 C80.9994,77.5071 79.9934,76.4991 78.7494,76.4991 L78.7494,76.4991 Z M71.9994,78.7521 C71.9994,79.9961 73.0064,81.0041 74.2494,81.0041 C75.4914,81.0041 76.4994,79.9961 76.4994,78.7521 L71.9994,78.7521 Z M74.2504,76.5101 C75.4914,76.5101 76.5004,75.5011 76.5004,74.2581 L71.9994,74.2581 C71.9994,75.5011 73.0064,76.5101 74.2504,76.5101 L74.2504,76.5101 Z M78.7494,72.0041 C77.5054,72.0041 76.4994,73.0121 76.4994,74.2581 L80.9994,74.2581 C80.9994,73.0121 79.9934,72.0041 78.7494,72.0041 L78.7494,72.0041 Z M51.7494,76.4991 C50.5064,76.4991 49.4994,77.5071 49.4994,78.7531 L53.9994,78.7531 C53.9994,77.5071 52.9934,76.4991 51.7494,76.4991 L51.7494,76.4991 Z M44.9994,78.7521 C44.9994,79.9961 46.0064,81.0041 47.2494,81.0041 C48.4914,81.0041 49.5004,79.9961 49.5004,78.7521 L44.9994,78.7521 Z M47.2504,76.5101 C48.4914,76.5101 49.5004,75.5011 49.5004,74.2581 L44.9994,74.2581 C44.9994,75.5011 46.0064,76.5101 47.2504,76.5101 L47.2504,76.5101 Z M51.7494,72.0041 C50.5064,72.0041 49.4994,73.0121 49.4994,74.2581 L53.9994,74.2581 C53.9994,73.0121 52.9934,72.0041 51.7494,72.0041 L51.7494,72.0041 Z M87.7494,67.4991 C86.5054,67.4991 85.4994,68.5071 85.4994,69.7531 L89.9994,69.7531 C89.9994,68.5071 88.9934,67.4991 87.7494,67.4991 L87.7494,67.4991 Z M80.9994,69.7521 C80.9994,70.9961 82.0054,72.0041 83.2494,72.0041 C84.4914,72.0041 85.4994,70.9961 85.4994,69.7521 L80.9994,69.7521 Z M83.2494,67.5101 C84.4914,67.5101 85.5004,66.5011 85.5004,65.2581 L80.9994,65.2581 C80.9994,66.5011 82.0064,67.5101 83.2494,67.5101 L83.2494,67.5101 Z M87.7494,63.0041 C86.5054,63.0041 85.4994,64.0131 85.4994,65.2581 L89.9994,65.2581 C89.9994,64.0131 88.9934,63.0041 87.7494,63.0041 L87.7494,63.0041 Z M96.7494,67.4991 C95.5054,67.4991 94.4994,68.5071 94.4994,69.7531 L98.9994,69.7531 C98.9994,68.5071 97.9924,67.4991 96.7494,67.4991 L96.7494,67.4991 Z M89.9994,69.7521 C89.9994,70.9961 91.0054,72.0041 92.2494,72.0041 C93.4914,72.0041 94.4994,70.9961 94.4994,69.7521 L89.9994,69.7521 Z M92.2494,67.5101 C93.4914,67.5101 94.5004,66.5011 94.5004,65.2581 L89.9994,65.2581 C89.9994,66.5011 91.0064,67.5101 92.2494,67.5101 L92.2494,67.5101 Z M96.7494,63.0041 C95.5054,63.0041 94.4994,64.0131 94.4994,65.2581 L98.9994,65.2581 C98.9994,64.0131 97.9924,63.0041 96.7494,63.0041 L96.7494,63.0041 Z M105.7494,67.4991 C104.5054,67.4991 103.4994,68.5071 103.4994,69.7531 L107.9994,69.7531 C107.9994,68.5071 106.9924,67.4991 105.7494,67.4991 L105.7494,67.4991 Z M98.9994,69.7521 C98.9994,70.9961 100.0054,72.0041 101.2494,72.0041 C102.4914,72.0041 103.4994,70.9961 103.4994,69.7521 L98.9994,69.7521 Z M101.2494,67.5101 C102.4914,67.5101 103.4994,66.5011 103.4994,65.2581 L98.9994,65.2581 C98.9994,66.5011 100.0064,67.5101 101.2494,67.5101 L101.2494,67.5101 Z M105.7494,63.0041 C104.5054,63.0041 103.4994,64.0131 103.4994,65.2581 L107.9994,65.2581 C107.9994,64.0131 106.9924,63.0041 105.7494,63.0041 L105.7494,63.0041 Z M60.7494,67.4991 C59.5054,67.4991 58.4994,68.5071 58.4994,69.7531 L62.9994,69.7531 C62.9994,68.5071 61.9934,67.4991 60.7494,67.4991 L60.7494,67.4991 Z M53.9994,69.7521 C53.9994,70.9961 55.0064,72.0041 56.2494,72.0041 C57.4914,72.0041 58.4994,70.9961 58.4994,69.7521 L53.9994,69.7521 Z M56.2504,67.5101 C57.4914,67.5101 58.5004,66.5011 58.5004,65.2581 L54.0004,65.2581 C54.0004,66.5011 55.0064,67.5101 56.2504,67.5101 L56.2504,67.5101 Z M60.7494,63.0041 C59.5054,63.0041 58.4994,64.0131 58.4994,65.2581 L62.9994,65.2581 C62.9994,64.0131 61.9934,63.0041 60.7494,63.0041 L60.7494,63.0041 Z M69.7494,67.4991 C68.5054,67.4991 67.4994,68.5071 67.4994,69.7531 L71.9994,69.7531 C71.9994,68.5071 70.9934,67.4991 69.7494,67.4991 L69.7494,67.4991 Z M62.9994,69.7521 C62.9994,70.9961 64.0064,72.0041 65.2494,72.0041 C66.4914,72.0041 67.4994,70.9961 67.4994,69.7521 L62.9994,69.7521 Z M65.2494,67.5101 C66.4914,67.5101 67.5004,66.5011 67.5004,65.2581 L62.9994,65.2581 C62.9994,66.5011 64.0064,67.5101 65.2494,67.5101 L65.2494,67.5101 Z M69.7494,63.0041 C68.5054,63.0041 67.4994,64.0131 67.4994,65.2581 L71.9994,65.2581 C71.9994,64.0131 70.9934,63.0041 69.7494,63.0041 L69.7494,63.0041 Z M78.7494,67.4991 C77.5054,67.4991 76.4994,68.5071 76.4994,69.7531 L80.9994,69.7531 C80.9994,68.5071 79.9934,67.4991 78.7494,67.4991 L78.7494,67.4991 Z M71.9994,69.7521 C71.9994,70.9961 73.0064,72.0041 74.2494,72.0041 C75.4914,72.0041 76.4994,70.9961 76.4994,69.7521 L71.9994,69.7521 Z M74.2504,67.5101 C75.4914,67.5101 76.5004,66.5011 76.5004,65.2581 L71.9994,65.2581 C71.9994,66.5011 73.0064,67.5101 74.2504,67.5101 L74.2504,67.5101 Z M78.7494,63.0041 C77.5054,63.0041 76.4994,64.0131 76.4994,65.2581 L80.9994,65.2581 C80.9994,64.0131 79.9934,63.0041 78.7494,63.0041 L78.7494,63.0041 Z M33.7494,67.4991 C32.5064,67.4991 31.4994,68.5071 31.4994,69.7531 L35.9994,69.7531 C35.9994,68.5071 34.9934,67.4991 33.7494,67.4991 L33.7494,67.4991 Z M26.9994,69.7521 C26.9994,70.9961 28.0064,72.0041 29.2504,72.0041 C30.4914,72.0041 31.5004,70.9961 31.5004,69.7521 L26.9994,69.7521 Z M29.2504,67.5101 C30.4924,67.5101 31.5004,66.5011 31.5004,65.2581 L27.0004,65.2581 C27.0004,66.5011 28.0064,67.5101 29.2504,67.5101 L29.2504,67.5101 Z M33.7494,63.0041 C32.5064,63.0041 31.4994,64.0131 31.4994,65.2581 L35.9994,65.2581 C35.9994,64.0131 34.9934,63.0041 33.7494,63.0041 L33.7494,63.0041 Z M42.7494,67.4991 C41.5064,67.4991 40.4994,68.5071 40.4994,69.7531 L44.9994,69.7531 C44.9994,68.5071 43.9934,67.4991 42.7494,67.4991 L42.7494,67.4991 Z M35.9994,69.7521 C35.9994,70.9961 37.0064,72.0041 38.2494,72.0041 C39.4914,72.0041 40.5004,70.9961 40.5004,69.7521 L35.9994,69.7521 Z M38.2504,67.5101 C39.4914,67.5101 40.5004,66.5011 40.5004,65.2581 L36.0004,65.2581 C36.0004,66.5011 37.0064,67.5101 38.2504,67.5101 L38.2504,67.5101 Z M42.7494,63.0041 C41.5064,63.0041 40.4994,64.0131 40.4994,65.2581 L44.9994,65.2581 C44.9994,64.0131 43.9934,63.0041 42.7494,63.0041 L42.7494,63.0041 Z M51.7494,67.4991 C50.5064,67.4991 49.4994,68.5071 49.4994,69.7531 L53.9994,69.7531 C53.9994,68.5071 52.9934,67.4991 51.7494,67.4991 L51.7494,67.4991 Z M44.9994,69.7521 C44.9994,70.9961 46.0064,72.0041 47.2494,72.0041 C48.4914,72.0041 49.5004,70.9961 49.5004,69.7521 L44.9994,69.7521 Z M47.2504,67.5101 C48.4914,67.5101 49.5004,66.5011 49.5004,65.2581 L44.9994,65.2581 C44.9994,66.5011 46.0064,67.5101 47.2504,67.5101 L47.2504,67.5101 Z M51.7494,63.0041 C50.5064,63.0041 49.4994,64.0131 49.4994,65.2581 L53.9994,65.2581 C53.9994,64.0131 52.9934,63.0041 51.7494,63.0041 L51.7494,63.0041 Z M114.7494,94.4961 C113.5064,94.4961 112.4994,95.5041 112.4994,96.7501 L116.9994,96.7501 C116.9994,95.5041 115.9934,94.4961 114.7494,94.4961 L114.7494,94.4961 Z M107.9994,96.7491 C107.9994,97.9921 109.0064,99.0011 110.2494,99.0011 C111.4914,99.0011 112.5004,97.9921 112.5004,96.7491 L107.9994,96.7491 Z M110.2504,94.5071 C111.4924,94.5071 112.5004,93.4971 112.5004,92.2531 L108.0004,92.2531 C108.0004,93.4971 109.0064,94.5071 110.2504,94.5071 L110.2504,94.5071 Z M114.7494,90.0011 C113.5064,90.0011 112.4994,91.0101 112.4994,92.2531 L116.9994,92.2531 C116.9994,91.0101 115.9934,90.0011 114.7494,90.0011 L114.7494,90.0011 Z M114.7494,103.4901 C113.5064,103.4901 112.4994,104.4991 112.4994,105.7441 L116.9994,105.7441 C116.9994,104.4991 115.9934,103.4901 114.7494,103.4901 L114.7494,103.4901 Z M107.9994,105.7441 C107.9994,106.9871 109.0064,107.9961 110.2494,107.9961 C111.4914,107.9961 112.5004,106.9871 112.5004,105.7441 L107.9994,105.7441 Z M110.2504,103.5011 C111.4924,103.5011 112.5004,102.4931 112.5004,101.2491 L108.0004,101.2491 C108.0004,102.4931 109.0064,103.5011 110.2504,103.5011 L110.2504,103.5011 Z M114.7494,98.9961 C113.5064,98.9961 112.4994,100.0041 112.4994,101.2501 L116.9994,101.2501 C116.9994,100.0041 115.9934,98.9961 114.7494,98.9961 L114.7494,98.9961 Z M87.7494,94.4961 C86.5054,94.4961 85.4994,95.5041 85.4994,96.7501 L89.9994,96.7501 C89.9994,95.5041 88.9934,94.4961 87.7494,94.4961 L87.7494,94.4961 Z M80.9994,96.7491 C80.9994,97.9921 82.0054,99.0011 83.2494,99.0011 C84.4914,99.0011 85.4994,97.9921 85.4994,96.7491 L80.9994,96.7491 Z M83.2494,94.5071 C84.4914,94.5071 85.5004,93.4971 85.5004,92.2531 L80.9994,92.2531 C80.9994,93.4971 82.0064,94.5071 83.2494,94.5071 L83.2494,94.5071 Z M87.7494,90.0011 C86.5054,90.0011 85.4994,91.0101 85.4994,92.2531 L89.9994,92.2531 C89.9994,91.0101 88.9934,90.0011 87.7494,90.0011 L87.7494,90.0011 Z M96.7494,94.4961 C95.5054,94.4961 94.4994,95.5041 94.4994,96.7501 L98.9994,96.7501 C98.9994,95.5041 97.9924,94.4961 96.7494,94.4961 L96.7494,94.4961 Z M89.9994,96.7491 C89.9994,97.9921 91.0054,99.0011 92.2494,99.0011 C93.4914,99.0011 94.4994,97.9921 94.4994,96.7491 L89.9994,96.7491 Z M92.2494,94.5071 C93.4914,94.5071 94.5004,93.4971 94.5004,92.2531 L89.9994,92.2531 C89.9994,93.4971 91.0064,94.5071 92.2494,94.5071 L92.2494,94.5071 Z M96.7494,90.0011 C95.5054,90.0011 94.4994,91.0101 94.4994,92.2531 L98.9994,92.2531 C98.9994,91.0101 97.9924,90.0011 96.7494,90.0011 L96.7494,90.0011 Z M105.7494,94.4961 C104.5054,94.4961 103.4994,95.5041 103.4994,96.7501 L107.9994,96.7501 C107.9994,95.5041 106.9924,94.4961 105.7494,94.4961 L105.7494,94.4961 Z M98.9994,96.7491 C98.9994,97.9921 100.0054,99.0011 101.2494,99.0011 C102.4914,99.0011 103.4994,97.9921 103.4994,96.7491 L98.9994,96.7491 Z M101.2494,94.5071 C102.4914,94.5071 103.4994,93.4971 103.4994,92.2531 L98.9994,92.2531 C98.9994,93.4971 100.0064,94.5071 101.2494,94.5071 L101.2494,94.5071 Z M105.7494,90.0011 C104.5054,90.0011 103.4994,91.0101 103.4994,92.2531 L107.9994,92.2531 C107.9994,91.0101 106.9924,90.0011 105.7494,90.0011 L105.7494,90.0011 Z M87.7494,103.4901 C86.5054,103.4901 85.4994,104.4991 85.4994,105.7441 L89.9994,105.7441 C89.9994,104.4991 88.9934,103.4901 87.7494,103.4901 L87.7494,103.4901 Z M80.9994,105.7441 C80.9994,106.9871 82.0054,107.9961 83.2494,107.9961 C84.4914,107.9961 85.4994,106.9871 85.4994,105.7441 L80.9994,105.7441 Z M83.2494,103.5011 C84.4914,103.5011 85.5004,102.4931 85.5004,101.2491 L80.9994,101.2491 C80.9994,102.4931 82.0064,103.5011 83.2494,103.5011 L83.2494,103.5011 Z M87.7494,98.9961 C86.5054,98.9961 85.4994,100.0041 85.4994,101.2501 L89.9994,101.2501 C89.9994,100.0041 88.9934,98.9961 87.7494,98.9961 L87.7494,98.9961 Z M96.7494,103.4901 C95.5054,103.4901 94.4994,104.4991 94.4994,105.7441 L98.9994,105.7441 C98.9994,104.4991 97.9924,103.4901 96.7494,103.4901 L96.7494,103.4901 Z M89.9994,105.7441 C89.9994,106.9871 91.0054,107.9961 92.2494,107.9961 C93.4914,107.9961 94.4994,106.9871 94.4994,105.7441 L89.9994,105.7441 Z M92.2494,103.5011 C93.4914,103.5011 94.5004,102.4931 94.5004,101.2491 L89.9994,101.2491 C89.9994,102.4931 91.0064,103.5011 92.2494,103.5011 L92.2494,103.5011 Z M96.7494,98.9961 C95.5054,98.9961 94.4994,100.0041 94.4994,101.2501 L98.9994,101.2501 C98.9994,100.0041 97.9924,98.9961 96.7494,98.9961 L96.7494,98.9961 Z M105.7494,103.4901 C104.5054,103.4901 103.4994,104.4991 103.4994,105.7441 L107.9994,105.7441 C107.9994,104.4991 106.9924,103.4901 105.7494,103.4901 L105.7494,103.4901 Z M98.9994,105.7441 C98.9994,106.9871 100.0054,107.9961 101.2494,107.9961 C102.4914,107.9961 103.4994,106.9871 103.4994,105.7441 L98.9994,105.7441 Z M101.2494,103.5011 C102.4914,103.5011 103.4994,102.4931 103.4994,101.2491 L98.9994,101.2491 C98.9994,102.4931 100.0064,103.5011 101.2494,103.5011 L101.2494,103.5011 Z M105.7494,98.9961 C104.5054,98.9961 103.4994,100.0041 103.4994,101.2501 L107.9994,101.2501 C107.9994,100.0041 106.9924,98.9961 105.7494,98.9961 L105.7494,98.9961 Z M60.7494,94.4961 C59.5054,94.4961 58.4994,95.5041 58.4994,96.7501 L62.9994,96.7501 C62.9994,95.5041 61.9934,94.4961 60.7494,94.4961 L60.7494,94.4961 Z M53.9994,96.7491 C53.9994,97.9921 55.0064,99.0011 56.2494,99.0011 C57.4914,99.0011 58.4994,97.9921 58.4994,96.7491 L53.9994,96.7491 Z M56.2504,94.5071 C57.4914,94.5071 58.5004,93.4971 58.5004,92.2531 L54.0004,92.2531 C54.0004,93.4971 55.0064,94.5071 56.2504,94.5071 L56.2504,94.5071 Z M60.7494,90.0011 C59.5054,90.0011 58.4994,91.0101 58.4994,92.2531 L62.9994,92.2531 C62.9994,91.0101 61.9934,90.0011 60.7494,90.0011 L60.7494,90.0011 Z M69.7494,94.4961 C68.5054,94.4961 67.4994,95.5041 67.4994,96.7501 L71.9994,96.7501 C71.9994,95.5041 70.9934,94.4961 69.7494,94.4961 L69.7494,94.4961 Z M62.9994,96.7491 C62.9994,97.9921 64.0064,99.0011 65.2494,99.0011 C66.4914,99.0011 67.4994,97.9921 67.4994,96.7491 L62.9994,96.7491 Z M65.2494,94.5071 C66.4914,94.5071 67.5004,93.4971 67.5004,92.2531 L62.9994,92.2531 C62.9994,93.4971 64.0064,94.5071 65.2494,94.5071 L65.2494,94.5071 Z M69.7494,90.0011 C68.5054,90.0011 67.4994,91.0101 67.4994,92.2531 L71.9994,92.2531 C71.9994,91.0101 70.9934,90.0011 69.7494,90.0011 L69.7494,90.0011 Z M78.7494,94.4961 C77.5054,94.4961 76.4994,95.5041 76.4994,96.7501 L80.9994,96.7501 C80.9994,95.5041 79.9934,94.4961 78.7494,94.4961 L78.7494,94.4961 Z M71.9994,96.7491 C71.9994,97.9921 73.0064,99.0011 74.2494,99.0011 C75.4914,99.0011 76.4994,97.9921 76.4994,96.7491 L71.9994,96.7491 Z M74.2504,94.5071 C75.4914,94.5071 76.5004,93.4971 76.5004,92.2531 L71.9994,92.2531 C71.9994,93.4971 73.0064,94.5071 74.2504,94.5071 L74.2504,94.5071 Z M78.7494,90.0011 C77.5054,90.0011 76.4994,91.0101 76.4994,92.2531 L80.9994,92.2531 C80.9994,91.0101 79.9934,90.0011 78.7494,90.0011 L78.7494,90.0011 Z M60.7494,103.4901 C59.5054,103.4901 58.4994,104.4991 58.4994,105.7441 L62.9994,105.7441 C62.9994,104.4991 61.9934,103.4901 60.7494,103.4901 L60.7494,103.4901 Z M53.9994,105.7441 C53.9994,106.9871 55.0064,107.9961 56.2494,107.9961 C57.4914,107.9961 58.4994,106.9871 58.4994,105.7441 L53.9994,105.7441 Z M56.2504,103.5011 C57.4914,103.5011 58.5004,102.4931 58.5004,101.2491 L54.0004,101.2491 C54.0004,102.4931 55.0064,103.5011 56.2504,103.5011 L56.2504,103.5011 Z M60.7494,98.9961 C59.5054,98.9961 58.4994,100.0041 58.4994,101.2501 L62.9994,101.2501 C62.9994,100.0041 61.9934,98.9961 60.7494,98.9961 L60.7494,98.9961 Z M69.7494,103.4901 C68.5054,103.4901 67.4994,104.4991 67.4994,105.7441 L71.9994,105.7441 C71.9994,104.4991 70.9934,103.4901 69.7494,103.4901 L69.7494,103.4901 Z M62.9994,105.7441 C62.9994,106.9871 64.0064,107.9961 65.2494,107.9961 C66.4914,107.9961 67.4994,106.9871 67.4994,105.7441 L62.9994,105.7441 Z M65.2494,103.5011 C66.4914,103.5011 67.5004,102.4931 67.5004,101.2491 L62.9994,101.2491 C62.9994,102.4931 64.0064,103.5011 65.2494,103.5011 L65.2494,103.5011 Z M69.7494,98.9961 C68.5054,98.9961 67.4994,100.0041 67.4994,101.2501 L71.9994,101.2501 C71.9994,100.0041 70.9934,98.9961 69.7494,98.9961 L69.7494,98.9961 Z M78.7494,103.4901 C77.5054,103.4901 76.4994,104.4991 76.4994,105.7441 L80.9994,105.7441 C80.9994,104.4991 79.9934,103.4901 78.7494,103.4901 L78.7494,103.4901 Z M71.9994,105.7441 C71.9994,106.9871 73.0064,107.9961 74.2494,107.9961 C75.4914,107.9961 76.4994,106.9871 76.4994,105.7441 L71.9994,105.7441 Z M74.2504,103.5011 C75.4914,103.5011 76.5004,102.4931 76.5004,101.2491 L71.9994,101.2491 C71.9994,102.4931 73.0064,103.5011 74.2504,103.5011 L74.2504,103.5011 Z M78.7494,98.9961 C77.5054,98.9961 76.4994,100.0041 76.4994,101.2501 L80.9994,101.2501 C80.9994,100.0041 79.9934,98.9961 78.7494,98.9961 L78.7494,98.9961 Z M33.7494,94.4961 C32.5064,94.4961 31.4994,95.5041 31.4994,96.7501 L35.9994,96.7501 C35.9994,95.5041 34.9934,94.4961 33.7494,94.4961 L33.7494,94.4961 Z M26.9994,96.7491 C26.9994,97.9921 28.0064,99.0011 29.2504,99.0011 C30.4914,99.0011 31.5004,97.9921 31.5004,96.7491 L26.9994,96.7491 Z M29.2504,94.5071 C30.4924,94.5071 31.5004,93.4971 31.5004,92.2531 L27.0004,92.2531 C27.0004,93.4971 28.0064,94.5071 29.2504,94.5071 L29.2504,94.5071 Z M33.7494,90.0011 C32.5064,90.0011 31.4994,91.0101 31.4994,92.2531 L35.9994,92.2531 C35.9994,91.0101 34.9934,90.0011 33.7494,90.0011 L33.7494,90.0011 Z M42.7494,94.4961 C41.5064,94.4961 40.4994,95.5041 40.4994,96.7501 L44.9994,96.7501 C44.9994,95.5041 43.9934,94.4961 42.7494,94.4961 L42.7494,94.4961 Z M35.9994,96.7491 C35.9994,97.9921 37.0064,99.0011 38.2494,99.0011 C39.4914,99.0011 40.5004,97.9921 40.5004,96.7491 L35.9994,96.7491 Z M38.2504,94.5071 C39.4914,94.5071 40.5004,93.4971 40.5004,92.2531 L36.0004,92.2531 C36.0004,93.4971 37.0064,94.5071 38.2504,94.5071 L38.2504,94.5071 Z M42.7494,90.0011 C41.5064,90.0011 40.4994,91.0101 40.4994,92.2531 L44.9994,92.2531 C44.9994,91.0101 43.9934,90.0011 42.7494,90.0011 L42.7494,90.0011 Z M51.7494,94.4961 C50.5064,94.4961 49.4994,95.5041 49.4994,96.7501 L53.9994,96.7501 C53.9994,95.5041 52.9934,94.4961 51.7494,94.4961 L51.7494,94.4961 Z M44.9994,96.7491 C44.9994,97.9921 46.0064,99.0011 47.2494,99.0011 C48.4914,99.0011 49.5004,97.9921 49.5004,96.7491 L44.9994,96.7491 Z M47.2504,94.5071 C48.4914,94.5071 49.5004,93.4971 49.5004,92.2531 L44.9994,92.2531 C44.9994,93.4971 46.0064,94.5071 47.2504,94.5071 L47.2504,94.5071 Z M51.7494,90.0011 C50.5064,90.0011 49.4994,91.0101 49.4994,92.2531 L53.9994,92.2531 C53.9994,91.0101 52.9934,90.0011 51.7494,90.0011 L51.7494,90.0011 Z M33.7494,103.4901 C32.5064,103.4901 31.4994,104.4991 31.4994,105.7441 L35.9994,105.7441 C35.9994,104.4991 34.9934,103.4901 33.7494,103.4901 L33.7494,103.4901 Z M26.9994,105.7441 C26.9994,106.9871 28.0064,107.9961 29.2504,107.9961 C30.4914,107.9961 31.5004,106.9871 31.5004,105.7441 L26.9994,105.7441 Z M29.2504,103.5011 C30.4924,103.5011 31.5004,102.4931 31.5004,101.2491 L27.0004,101.2491 C27.0004,102.4931 28.0064,103.5011 29.2504,103.5011 L29.2504,103.5011 Z M33.7494,98.9961 C32.5064,98.9961 31.4994,100.0041 31.4994,101.2501 L35.9994,101.2501 C35.9994,100.0041 34.9934,98.9961 33.7494,98.9961 L33.7494,98.9961 Z M42.7494,103.4901 C41.5064,103.4901 40.4994,104.4991 40.4994,105.7441 L44.9994,105.7441 C44.9994,104.4991 43.9934,103.4901 42.7494,103.4901 L42.7494,103.4901 Z M35.9994,105.7441 C35.9994,106.9871 37.0064,107.9961 38.2494,107.9961 C39.4914,107.9961 40.5004,106.9871 40.5004,105.7441 L35.9994,105.7441 Z M38.2504,103.5011 C39.4914,103.5011 40.5004,102.4931 40.5004,101.2491 L36.0004,101.2491 C36.0004,102.4931 37.0064,103.5011 38.2504,103.5011 L38.2504,103.5011 Z M42.7494,98.9961 C41.5064,98.9961 40.4994,100.0041 40.4994,101.2501 L44.9994,101.2501 C44.9994,100.0041 43.9934,98.9961 42.7494,98.9961 L42.7494,98.9961 Z M51.7494,103.4901 C50.5064,103.4901 49.4994,104.4991 49.4994,105.7441 L53.9994,105.7441 C53.9994,104.4991 52.9934,103.4901 51.7494,103.4901 L51.7494,103.4901 Z M44.9994,105.7441 C44.9994,106.9871 46.0064,107.9961 47.2494,107.9961 C48.4914,107.9961 49.5004,106.9871 49.5004,105.7441 L44.9994,105.7441 Z M47.2504,103.5011 C48.4914,103.5011 49.5004,102.4931 49.5004,101.2491 L44.9994,101.2491 C44.9994,102.4931 46.0064,103.5011 47.2504,103.5011 L47.2504,103.5011 Z M51.7494,98.9961 C50.5064,98.9961 49.4994,100.0041 49.4994,101.2501 L53.9994,101.2501 C53.9994,100.0041 52.9934,98.9961 51.7494,98.9961 L51.7494,98.9961 Z M114.7494,112.4961 C113.5064,112.4961 112.4994,113.5041 112.4994,114.7491 L116.9994,114.7491 C116.9994,113.5041 115.9934,112.4961 114.7494,112.4961 L114.7494,112.4961 Z M107.9994,114.7491 C107.9994,115.9921 109.0064,117.0011 110.2494,117.0011 C111.4914,117.0011 112.5004,115.9921 112.5004,114.7491 L107.9994,114.7491 Z M110.2504,112.5071 C111.4924,112.5071 112.5004,111.4971 112.5004,110.2531 L108.0004,110.2531 C108.0004,111.4971 109.0064,112.5071 110.2504,112.5071 L110.2504,112.5071 Z M114.7494,108.0011 C113.5064,108.0011 112.4994,109.0101 112.4994,110.2531 L116.9994,110.2531 C116.9994,109.0101 115.9934,108.0011 114.7494,108.0011 L114.7494,108.0011 Z M123.7494,94.4961 C122.5054,94.4961 121.4994,95.5041 121.4994,96.7501 L125.9994,96.7501 C125.9994,95.5041 124.9934,94.4961 123.7494,94.4961 L123.7494,94.4961 Z M116.9994,96.7491 C116.9994,97.9921 118.0064,99.0011 119.2494,99.0011 C120.4914,99.0011 121.5004,97.9921 121.5004,96.7491 L116.9994,96.7491 Z M119.2504,94.5071 C120.4914,94.5071 121.5004,93.4971 121.5004,92.2531 L116.9994,92.2531 C116.9994,93.4971 118.0064,94.5071 119.2504,94.5071 L119.2504,94.5071 Z M123.7494,90.0011 C122.5054,90.0011 121.4994,91.0101 121.4994,92.2531 L125.9994,92.2531 C125.9994,91.0101 124.9934,90.0011 123.7494,90.0011 L123.7494,90.0011 Z M135.0004,96.7491 C135.0004,97.9921 136.0064,99.0011 137.2504,99.0011 C138.4924,99.0011 139.5004,97.9921 139.5004,96.7491 L135.0004,96.7491 Z M137.2504,94.5071 C138.4924,94.5071 139.5004,93.4971 139.5004,92.2531 L135.0004,92.2531 C135.0004,93.4971 136.0064,94.5071 137.2504,94.5071 L137.2504,94.5071 Z M132.7494,94.4961 C131.5054,94.4961 130.4994,95.5041 130.4994,96.7501 L134.9994,96.7501 C134.9994,95.5041 133.9934,94.4961 132.7494,94.4961 L132.7494,94.4961 Z M125.9994,96.7491 C125.9994,97.9921 127.0064,99.0011 128.2494,99.0011 C129.4914,99.0011 130.4994,97.9921 130.4994,96.7491 L125.9994,96.7491 Z M128.2504,94.5071 C129.4914,94.5071 130.5004,93.4971 130.5004,92.2531 L125.9994,92.2531 C125.9994,93.4971 127.0064,94.5071 128.2504,94.5071 L128.2504,94.5071 Z M132.7494,90.0011 C131.5054,90.0011 130.4994,91.0101 130.4994,92.2531 L134.9994,92.2531 C134.9994,91.0101 133.9934,90.0011 132.7494,90.0011 L132.7494,90.0011 Z M123.7494,103.4991 C122.5054,103.4991 121.4994,104.5071 121.4994,105.7531 L125.9994,105.7531 C125.9994,104.5071 124.9934,103.4991 123.7494,103.4991 L123.7494,103.4991 Z M116.9994,105.7521 C116.9994,106.9951 118.0064,108.0041 119.2494,108.0041 C120.4914,108.0041 121.5004,106.9951 121.5004,105.7521 L116.9994,105.7521 Z M119.2504,103.5101 C120.4914,103.5101 121.5004,102.5011 121.5004,101.2581 L116.9994,101.2581 C116.9994,102.5011 118.0064,103.5101 119.2504,103.5101 L119.2504,103.5101 Z M123.7494,99.0041 C122.5054,99.0041 121.4994,100.0121 121.4994,101.2581 L125.9994,101.2581 C125.9994,100.0121 124.9934,99.0041 123.7494,99.0041 L123.7494,99.0041 Z M141.7494,103.4991 C140.5054,103.4991 139.4994,104.5071 139.4994,105.7531 L143.9994,105.7531 C143.9994,104.5071 142.9914,103.4991 141.7494,103.4991 L141.7494,103.4991 Z M134.9984,105.7521 C134.9984,106.9951 136.0074,108.0041 137.2494,108.0041 C138.4904,108.0041 139.4994,106.9951 139.4994,105.7521 L134.9984,105.7521 Z M137.2504,103.5101 C138.4914,103.5101 139.5004,102.5011 139.5004,101.2581 L134.9994,101.2581 C134.9994,102.5011 136.0064,103.5101 137.2504,103.5101 L137.2504,103.5101 Z M141.7494,99.0041 C140.5054,99.0041 139.4994,100.0121 139.4994,101.2581 L143.9994,101.2581 C143.9994,100.0121 142.9914,99.0041 141.7494,99.0041 L141.7494,99.0041 Z M132.7494,103.4991 C131.5054,103.4991 130.4994,104.5071 130.4994,105.7531 L134.9994,105.7531 C134.9994,104.5071 133.9934,103.4991 132.7494,103.4991 L132.7494,103.4991 Z M125.9994,105.7521 C125.9994,106.9951 127.0064,108.0041 128.2494,108.0041 C129.4914,108.0041 130.4994,106.9951 130.4994,105.7521 L125.9994,105.7521 Z M128.2504,103.5101 C129.4914,103.5101 130.5004,102.5011 130.5004,101.2581 L125.9994,101.2581 C125.9994,102.5011 127.0064,103.5101 128.2504,103.5101 L128.2504,103.5101 Z M132.7494,99.0041 C131.5054,99.0041 130.4994,100.0121 130.4994,101.2581 L134.9994,101.2581 C134.9994,100.0121 133.9934,99.0041 132.7494,99.0041 L132.7494,99.0041 Z M123.7494,112.4961 C122.5054,112.4961 121.4994,113.5041 121.4994,114.7491 L125.9994,114.7491 C125.9994,113.5041 124.9934,112.4961 123.7494,112.4961 L123.7494,112.4961 Z M116.9994,114.7491 C116.9994,115.9921 118.0064,117.0011 119.2494,117.0011 C120.4914,117.0011 121.5004,115.9921 121.5004,114.7491 L116.9994,114.7491 Z M119.2504,112.5071 C120.4914,112.5071 121.5004,111.4971 121.5004,110.2531 L116.9994,110.2531 C116.9994,111.4971 118.0064,112.5071 119.2504,112.5071 L119.2504,112.5071 Z M123.7494,108.0011 C122.5054,108.0011 121.4994,109.0101 121.4994,110.2531 L125.9994,110.2531 C125.9994,109.0101 124.9934,108.0011 123.7494,108.0011 L123.7494,108.0011 Z M141.7494,112.4961 C140.5054,112.4961 139.4994,113.5041 139.4994,114.7491 L143.9994,114.7491 C143.9994,113.5041 142.9914,112.4961 141.7494,112.4961 L141.7494,112.4961 Z M134.9984,114.7491 C134.9984,115.9921 136.0074,117.0011 137.2494,117.0011 C138.4904,117.0011 139.4994,115.9921 139.4994,114.7491 L134.9984,114.7491 Z M137.2504,112.5071 C138.4914,112.5071 139.5004,111.4971 139.5004,110.2531 L134.9994,110.2531 C134.9994,111.4971 136.0064,112.5071 137.2504,112.5071 L137.2504,112.5071 Z M141.7494,108.0011 C140.5054,108.0011 139.4994,109.0101 139.4994,110.2531 L143.9994,110.2531 C143.9994,109.0101 142.9914,108.0011 141.7494,108.0011 L141.7494,108.0011 Z M141.7494,121.4901 C140.5054,121.4901 139.4994,122.4991 139.4994,123.7441 L143.9994,123.7441 C143.9994,122.4991 142.9914,121.4901 141.7494,121.4901 L141.7494,121.4901 Z M134.9984,123.7431 C134.9984,124.9871 136.0074,125.9951 137.2494,125.9951 C138.4904,125.9951 139.4994,124.9871 139.4994,123.7431 L134.9984,123.7431 Z M137.2504,121.5011 C138.4914,121.5011 139.5004,120.4931 139.5004,119.2491 L134.9994,119.2491 C134.9994,120.4931 136.0064,121.5011 137.2504,121.5011 L137.2504,121.5011 Z M141.7494,116.9961 C140.5054,116.9961 139.4994,118.0041 139.4994,119.2491 L143.9994,119.2491 C143.9994,118.0041 142.9914,116.9961 141.7494,116.9961 L141.7494,116.9961 Z M132.7494,112.4961 C131.5054,112.4961 130.4994,113.5041 130.4994,114.7491 L134.9994,114.7491 C134.9994,113.5041 133.9934,112.4961 132.7494,112.4961 L132.7494,112.4961 Z M125.9994,114.7491 C125.9994,115.9921 127.0064,117.0011 128.2494,117.0011 C129.4914,117.0011 130.4994,115.9921 130.4994,114.7491 L125.9994,114.7491 Z M128.2504,112.5071 C129.4914,112.5071 130.5004,111.4971 130.5004,110.2531 L125.9994,110.2531 C125.9994,111.4971 127.0064,112.5071 128.2504,112.5071 L128.2504,112.5071 Z M132.7494,108.0011 C131.5054,108.0011 130.4994,109.0101 130.4994,110.2531 L134.9994,110.2531 C134.9994,109.0101 133.9934,108.0011 132.7494,108.0011 L132.7494,108.0011 Z M114.7494,121.4901 C113.5064,121.4901 112.4994,122.4991 112.4994,123.7441 L116.9994,123.7441 C116.9994,122.4991 115.9934,121.4901 114.7494,121.4901 L114.7494,121.4901 Z M107.9994,123.7431 C107.9994,124.9871 109.0064,125.9951 110.2494,125.9951 C111.4914,125.9951 112.5004,124.9871 112.5004,123.7431 L107.9994,123.7431 Z M110.2504,121.5011 C111.4924,121.5011 112.5004,120.4931 112.5004,119.2491 L108.0004,119.2491 C108.0004,120.4931 109.0064,121.5011 110.2504,121.5011 L110.2504,121.5011 Z M114.7494,116.9961 C113.5064,116.9961 112.4994,118.0041 112.4994,119.2491 L116.9994,119.2491 C116.9994,118.0041 115.9934,116.9961 114.7494,116.9961 L114.7494,116.9961 Z M123.7494,121.4901 C122.5054,121.4901 121.4994,122.4991 121.4994,123.7441 L125.9994,123.7441 C125.9994,122.4991 124.9934,121.4901 123.7494,121.4901 L123.7494,121.4901 Z M116.9994,123.7431 C116.9994,124.9871 118.0064,125.9951 119.2494,125.9951 C120.4914,125.9951 121.5004,124.9871 121.5004,123.7431 L116.9994,123.7431 Z M119.2504,121.5011 C120.4914,121.5011 121.5004,120.4931 121.5004,119.2491 L116.9994,119.2491 C116.9994,120.4931 118.0064,121.5011 119.2504,121.5011 L119.2504,121.5011 Z M123.7494,116.9961 C122.5054,116.9961 121.4994,118.0041 121.4994,119.2491 L125.9994,119.2491 C125.9994,118.0041 124.9934,116.9961 123.7494,116.9961 L123.7494,116.9961 Z M132.7494,121.4901 C131.5054,121.4901 130.4994,122.4991 130.4994,123.7441 L134.9994,123.7441 C134.9994,122.4991 133.9934,121.4901 132.7494,121.4901 L132.7494,121.4901 Z M125.9994,123.7431 C125.9994,124.9871 127.0064,125.9951 128.2494,125.9951 C129.4914,125.9951 130.4994,124.9871 130.4994,123.7431 L125.9994,123.7431 Z M128.2504,121.5011 C129.4914,121.5011 130.5004,120.4931 130.5004,119.2491 L125.9994,119.2491 C125.9994,120.4931 127.0064,121.5011 128.2504,121.5011 L128.2504,121.5011 Z M132.7494,116.9961 C131.5054,116.9961 130.4994,118.0041 130.4994,119.2491 L134.9994,119.2491 C134.9994,118.0041 133.9934,116.9961 132.7494,116.9961 L132.7494,116.9961 Z M87.7494,112.4961 C86.5054,112.4961 85.4994,113.5041 85.4994,114.7491 L89.9994,114.7491 C89.9994,113.5041 88.9934,112.4961 87.7494,112.4961 L87.7494,112.4961 Z M80.9994,114.7491 C80.9994,115.9921 82.0054,117.0011 83.2494,117.0011 C84.4914,117.0011 85.4994,115.9921 85.4994,114.7491 L80.9994,114.7491 Z M83.2494,112.5071 C84.4914,112.5071 85.5004,111.4971 85.5004,110.2531 L80.9994,110.2531 C80.9994,111.4971 82.0064,112.5071 83.2494,112.5071 L83.2494,112.5071 Z M87.7494,108.0011 C86.5054,108.0011 85.4994,109.0101 85.4994,110.2531 L89.9994,110.2531 C89.9994,109.0101 88.9934,108.0011 87.7494,108.0011 L87.7494,108.0011 Z M96.7494,112.4961 C95.5054,112.4961 94.4994,113.5041 94.4994,114.7491 L98.9994,114.7491 C98.9994,113.5041 97.9924,112.4961 96.7494,112.4961 L96.7494,112.4961 Z M89.9994,114.7491 C89.9994,115.9921 91.0054,117.0011 92.2494,117.0011 C93.4914,117.0011 94.4994,115.9921 94.4994,114.7491 L89.9994,114.7491 Z M92.2494,112.5071 C93.4914,112.5071 94.5004,111.4971 94.5004,110.2531 L89.9994,110.2531 C89.9994,111.4971 91.0064,112.5071 92.2494,112.5071 L92.2494,112.5071 Z M96.7494,108.0011 C95.5054,108.0011 94.4994,109.0101 94.4994,110.2531 L98.9994,110.2531 C98.9994,109.0101 97.9924,108.0011 96.7494,108.0011 L96.7494,108.0011 Z M105.7494,112.4961 C104.5054,112.4961 103.4994,113.5041 103.4994,114.7491 L107.9994,114.7491 C107.9994,113.5041 106.9924,112.4961 105.7494,112.4961 L105.7494,112.4961 Z M98.9994,114.7491 C98.9994,115.9921 100.0054,117.0011 101.2494,117.0011 C102.4914,117.0011 103.4994,115.9921 103.4994,114.7491 L98.9994,114.7491 Z M101.2494,112.5071 C102.4914,112.5071 103.4994,111.4971 103.4994,110.2531 L98.9994,110.2531 C98.9994,111.4971 100.0064,112.5071 101.2494,112.5071 L101.2494,112.5071 Z M105.7494,108.0011 C104.5054,108.0011 103.4994,109.0101 103.4994,110.2531 L107.9994,110.2531 C107.9994,109.0101 106.9924,108.0011 105.7494,108.0011 L105.7494,108.0011 Z M83.2494,130.5041 C84.4914,130.5041 85.5004,129.4951 85.5004,128.2521 L80.9994,128.2521 C80.9994,129.4951 82.0064,130.5041 83.2494,130.5041 L83.2494,130.5041 Z M87.7494,125.9991 C86.5054,125.9991 85.4994,127.0071 85.4994,128.2511 L89.9994,128.2511 C89.9994,127.0071 88.9934,125.9991 87.7494,125.9991 L87.7494,125.9991 Z M92.2494,130.5041 C93.4914,130.5041 94.5004,129.4951 94.5004,128.2521 L89.9994,128.2521 C89.9994,129.4951 91.0064,130.5041 92.2494,130.5041 L92.2494,130.5041 Z M96.7494,125.9991 C95.5054,125.9991 94.4994,127.0071 94.4994,128.2511 L98.9994,128.2511 C98.9994,127.0071 97.9924,125.9991 96.7494,125.9991 L96.7494,125.9991 Z M56.2504,130.5041 C57.4914,130.5041 58.5004,129.4951 58.5004,128.2521 L54.0004,128.2521 C54.0004,129.4951 55.0064,130.5041 56.2504,130.5041 L56.2504,130.5041 Z M60.7494,125.9991 C59.5054,125.9991 58.4994,127.0071 58.4994,128.2511 L62.9994,128.2511 C62.9994,127.0071 61.9934,125.9991 60.7494,125.9991 L60.7494,125.9991 Z M65.2494,130.5041 C66.4914,130.5041 67.5004,129.4951 67.5004,128.2521 L62.9994,128.2521 C62.9994,129.4951 64.0064,130.5041 65.2494,130.5041 L65.2494,130.5041 Z M69.7494,125.9991 C68.5054,125.9991 67.4994,127.0071 67.4994,128.2511 L71.9994,128.2511 C71.9994,127.0071 70.9934,125.9991 69.7494,125.9991 L69.7494,125.9991 Z M74.2504,130.5041 C75.4914,130.5041 76.5004,129.4951 76.5004,128.2521 L71.9994,128.2521 C71.9994,129.4951 73.0064,130.5041 74.2504,130.5041 L74.2504,130.5041 Z M78.7494,125.9991 C77.5054,125.9991 76.4994,127.0071 76.4994,128.2511 L80.9994,128.2511 C80.9994,127.0071 79.9934,125.9991 78.7494,125.9991 L78.7494,125.9991 Z M47.2504,130.5041 C48.4914,130.5041 49.5004,129.4951 49.5004,128.2521 L44.9994,128.2521 C44.9994,129.4951 46.0064,130.5041 47.2504,130.5041 L47.2504,130.5041 Z M51.7494,125.9991 C50.5064,125.9991 49.4994,127.0071 49.4994,128.2511 L53.9994,128.2511 C53.9994,127.0071 52.9934,125.9991 51.7494,125.9991 L51.7494,125.9991 Z M87.7494,121.4901 C86.5054,121.4901 85.4994,122.4991 85.4994,123.7441 L89.9994,123.7441 C89.9994,122.4991 88.9934,121.4901 87.7494,121.4901 L87.7494,121.4901 Z M80.9994,123.7431 C80.9994,124.9871 82.0054,125.9951 83.2494,125.9951 C84.4914,125.9951 85.4994,124.9871 85.4994,123.7431 L80.9994,123.7431 Z M83.2494,121.5011 C84.4914,121.5011 85.5004,120.4931 85.5004,119.2491 L80.9994,119.2491 C80.9994,120.4931 82.0064,121.5011 83.2494,121.5011 L83.2494,121.5011 Z M87.7494,116.9961 C86.5054,116.9961 85.4994,118.0041 85.4994,119.2491 L89.9994,119.2491 C89.9994,118.0041 88.9934,116.9961 87.7494,116.9961 L87.7494,116.9961 Z M96.7494,121.4901 C95.5054,121.4901 94.4994,122.4991 94.4994,123.7441 L98.9994,123.7441 C98.9994,122.4991 97.9924,121.4901 96.7494,121.4901 L96.7494,121.4901 Z M89.9994,123.7431 C89.9994,124.9871 91.0054,125.9951 92.2494,125.9951 C93.4914,125.9951 94.4994,124.9871 94.4994,123.7431 L89.9994,123.7431 Z M92.2494,121.5011 C93.4914,121.5011 94.5004,120.4931 94.5004,119.2491 L89.9994,119.2491 C89.9994,120.4931 91.0064,121.5011 92.2494,121.5011 L92.2494,121.5011 Z M96.7494,116.9961 C95.5054,116.9961 94.4994,118.0041 94.4994,119.2491 L98.9994,119.2491 C98.9994,118.0041 97.9924,116.9961 96.7494,116.9961 L96.7494,116.9961 Z M105.7494,121.4901 C104.5054,121.4901 103.4994,122.4991 103.4994,123.7441 L107.9994,123.7441 C107.9994,122.4991 106.9924,121.4901 105.7494,121.4901 L105.7494,121.4901 Z M98.9994,123.7431 C98.9994,124.9871 100.0054,125.9951 101.2494,125.9951 C102.4914,125.9951 103.4994,124.9871 103.4994,123.7431 L98.9994,123.7431 Z M101.2494,121.5011 C102.4914,121.5011 103.4994,120.4931 103.4994,119.2491 L98.9994,119.2491 C98.9994,120.4931 100.0064,121.5011 101.2494,121.5011 L101.2494,121.5011 Z M105.7494,116.9961 C104.5054,116.9961 103.4994,118.0041 103.4994,119.2491 L107.9994,119.2491 C107.9994,118.0041 106.9924,116.9961 105.7494,116.9961 L105.7494,116.9961 Z M60.7494,112.4961 C59.5054,112.4961 58.4994,113.5041 58.4994,114.7491 L62.9994,114.7491 C62.9994,113.5041 61.9934,112.4961 60.7494,112.4961 L60.7494,112.4961 Z M53.9994,114.7491 C53.9994,115.9921 55.0064,117.0011 56.2494,117.0011 C57.4914,117.0011 58.4994,115.9921 58.4994,114.7491 L53.9994,114.7491 Z M56.2504,112.5071 C57.4914,112.5071 58.5004,111.4971 58.5004,110.2531 L54.0004,110.2531 C54.0004,111.4971 55.0064,112.5071 56.2504,112.5071 L56.2504,112.5071 Z M60.7494,108.0011 C59.5054,108.0011 58.4994,109.0101 58.4994,110.2531 L62.9994,110.2531 C62.9994,109.0101 61.9934,108.0011 60.7494,108.0011 L60.7494,108.0011 Z M69.7494,112.4961 C68.5054,112.4961 67.4994,113.5041 67.4994,114.7491 L71.9994,114.7491 C71.9994,113.5041 70.9934,112.4961 69.7494,112.4961 L69.7494,112.4961 Z M62.9994,114.7491 C62.9994,115.9921 64.0064,117.0011 65.2494,117.0011 C66.4914,117.0011 67.4994,115.9921 67.4994,114.7491 L62.9994,114.7491 Z M65.2494,112.5071 C66.4914,112.5071 67.5004,111.4971 67.5004,110.2531 L62.9994,110.2531 C62.9994,111.4971 64.0064,112.5071 65.2494,112.5071 L65.2494,112.5071 Z M69.7494,108.0011 C68.5054,108.0011 67.4994,109.0101 67.4994,110.2531 L71.9994,110.2531 C71.9994,109.0101 70.9934,108.0011 69.7494,108.0011 L69.7494,108.0011 Z M78.7494,112.4961 C77.5054,112.4961 76.4994,113.5041 76.4994,114.7491 L80.9994,114.7491 C80.9994,113.5041 79.9934,112.4961 78.7494,112.4961 L78.7494,112.4961 Z M71.9994,114.7491 C71.9994,115.9921 73.0064,117.0011 74.2494,117.0011 C75.4914,117.0011 76.4994,115.9921 76.4994,114.7491 L71.9994,114.7491 Z M74.2504,112.5071 C75.4914,112.5071 76.5004,111.4971 76.5004,110.2531 L71.9994,110.2531 C71.9994,111.4971 73.0064,112.5071 74.2504,112.5071 L74.2504,112.5071 Z M78.7494,108.0011 C77.5054,108.0011 76.4994,109.0101 76.4994,110.2531 L80.9994,110.2531 C80.9994,109.0101 79.9934,108.0011 78.7494,108.0011 L78.7494,108.0011 Z M60.7494,121.4901 C59.5054,121.4901 58.4994,122.4991 58.4994,123.7441 L62.9994,123.7441 C62.9994,122.4991 61.9934,121.4901 60.7494,121.4901 L60.7494,121.4901 Z M53.9994,123.7431 C53.9994,124.9871 55.0064,125.9951 56.2494,125.9951 C57.4914,125.9951 58.4994,124.9871 58.4994,123.7431 L53.9994,123.7431 Z M56.2504,121.5011 C57.4914,121.5011 58.5004,120.4931 58.5004,119.2491 L54.0004,119.2491 C54.0004,120.4931 55.0064,121.5011 56.2504,121.5011 L56.2504,121.5011 Z M60.7494,116.9961 C59.5054,116.9961 58.4994,118.0041 58.4994,119.2491 L62.9994,119.2491 C62.9994,118.0041 61.9934,116.9961 60.7494,116.9961 L60.7494,116.9961 Z M69.7494,121.4901 C68.5054,121.4901 67.4994,122.4991 67.4994,123.7441 L71.9994,123.7441 C71.9994,122.4991 70.9934,121.4901 69.7494,121.4901 L69.7494,121.4901 Z M62.9994,123.7431 C62.9994,124.9871 64.0064,125.9951 65.2494,125.9951 C66.4914,125.9951 67.4994,124.9871 67.4994,123.7431 L62.9994,123.7431 Z M65.2494,121.5011 C66.4914,121.5011 67.5004,120.4931 67.5004,119.2491 L62.9994,119.2491 C62.9994,120.4931 64.0064,121.5011 65.2494,121.5011 L65.2494,121.5011 Z M69.7494,116.9961 C68.5054,116.9961 67.4994,118.0041 67.4994,119.2491 L71.9994,119.2491 C71.9994,118.0041 70.9934,116.9961 69.7494,116.9961 L69.7494,116.9961 Z M78.7494,121.4901 C77.5054,121.4901 76.4994,122.4991 76.4994,123.7441 L80.9994,123.7441 C80.9994,122.4991 79.9934,121.4901 78.7494,121.4901 L78.7494,121.4901 Z M71.9994,123.7431 C71.9994,124.9871 73.0064,125.9951 74.2494,125.9951 C75.4914,125.9951 76.4994,124.9871 76.4994,123.7431 L71.9994,123.7431 Z M74.2504,121.5011 C75.4914,121.5011 76.5004,120.4931 76.5004,119.2491 L71.9994,119.2491 C71.9994,120.4931 73.0064,121.5011 74.2504,121.5011 L74.2504,121.5011 Z M78.7494,116.9961 C77.5054,116.9961 76.4994,118.0041 76.4994,119.2491 L80.9994,119.2491 C80.9994,118.0041 79.9934,116.9961 78.7494,116.9961 L78.7494,116.9961 Z M33.7494,112.4961 C32.5064,112.4961 31.4994,113.5041 31.4994,114.7491 L35.9994,114.7491 C35.9994,113.5041 34.9934,112.4961 33.7494,112.4961 L33.7494,112.4961 Z M26.9994,114.7491 C26.9994,115.9921 28.0064,117.0011 29.2504,117.0011 C30.4914,117.0011 31.5004,115.9921 31.5004,114.7491 L26.9994,114.7491 Z M29.2504,112.5071 C30.4924,112.5071 31.5004,111.4971 31.5004,110.2531 L27.0004,110.2531 C27.0004,111.4971 28.0064,112.5071 29.2504,112.5071 L29.2504,112.5071 Z M33.7494,108.0011 C32.5064,108.0011 31.4994,109.0101 31.4994,110.2531 L35.9994,110.2531 C35.9994,109.0101 34.9934,108.0011 33.7494,108.0011 L33.7494,108.0011 Z M42.7494,112.4961 C41.5064,112.4961 40.4994,113.5041 40.4994,114.7491 L44.9994,114.7491 C44.9994,113.5041 43.9934,112.4961 42.7494,112.4961 L42.7494,112.4961 Z M35.9994,114.7491 C35.9994,115.9921 37.0064,117.0011 38.2494,117.0011 C39.4914,117.0011 40.5004,115.9921 40.5004,114.7491 L35.9994,114.7491 Z M38.2504,112.5071 C39.4914,112.5071 40.5004,111.4971 40.5004,110.2531 L36.0004,110.2531 C36.0004,111.4971 37.0064,112.5071 38.2504,112.5071 L38.2504,112.5071 Z M42.7494,108.0011 C41.5064,108.0011 40.4994,109.0101 40.4994,110.2531 L44.9994,110.2531 C44.9994,109.0101 43.9934,108.0011 42.7494,108.0011 L42.7494,108.0011 Z M51.7494,112.4961 C50.5064,112.4961 49.4994,113.5041 49.4994,114.7491 L53.9994,114.7491 C53.9994,113.5041 52.9934,112.4961 51.7494,112.4961 L51.7494,112.4961 Z M44.9994,114.7491 C44.9994,115.9921 46.0064,117.0011 47.2494,117.0011 C48.4914,117.0011 49.5004,115.9921 49.5004,114.7491 L44.9994,114.7491 Z M47.2504,112.5071 C48.4914,112.5071 49.5004,111.4971 49.5004,110.2531 L44.9994,110.2531 C44.9994,111.4971 46.0064,112.5071 47.2504,112.5071 L47.2504,112.5071 Z M51.7494,108.0011 C50.5064,108.0011 49.4994,109.0101 49.4994,110.2531 L53.9994,110.2531 C53.9994,109.0101 52.9934,108.0011 51.7494,108.0011 L51.7494,108.0011 Z M33.7494,121.4901 C32.5064,121.4901 31.4994,122.4991 31.4994,123.7441 L35.9994,123.7441 C35.9994,122.4991 34.9934,121.4901 33.7494,121.4901 L33.7494,121.4901 Z M26.9994,123.7431 C26.9994,124.9871 28.0064,125.9951 29.2504,125.9951 C30.4914,125.9951 31.5004,124.9871 31.5004,123.7431 L26.9994,123.7431 Z M29.2504,121.5011 C30.4924,121.5011 31.5004,120.4931 31.5004,119.2491 L27.0004,119.2491 C27.0004,120.4931 28.0064,121.5011 29.2504,121.5011 L29.2504,121.5011 Z M33.7494,116.9961 C32.5064,116.9961 31.4994,118.0041 31.4994,119.2491 L35.9994,119.2491 C35.9994,118.0041 34.9934,116.9961 33.7494,116.9961 L33.7494,116.9961 Z M42.7494,121.4901 C41.5064,121.4901 40.4994,122.4991 40.4994,123.7441 L44.9994,123.7441 C44.9994,122.4991 43.9934,121.4901 42.7494,121.4901 L42.7494,121.4901 Z M35.9994,123.7431 C35.9994,124.9871 37.0064,125.9951 38.2494,125.9951 C39.4914,125.9951 40.5004,124.9871 40.5004,123.7431 L35.9994,123.7431 Z M38.2504,121.5011 C39.4914,121.5011 40.5004,120.4931 40.5004,119.2491 L36.0004,119.2491 C36.0004,120.4931 37.0064,121.5011 38.2504,121.5011 L38.2504,121.5011 Z M42.7494,116.9961 C41.5064,116.9961 40.4994,118.0041 40.4994,119.2491 L44.9994,119.2491 C44.9994,118.0041 43.9934,116.9961 42.7494,116.9961 L42.7494,116.9961 Z M51.7494,121.4901 C50.5064,121.4901 49.4994,122.4991 49.4994,123.7441 L53.9994,123.7441 C53.9994,122.4991 52.9934,121.4901 51.7494,121.4901 L51.7494,121.4901 Z M44.9994,123.7431 C44.9994,124.9871 46.0064,125.9951 47.2494,125.9951 C48.4914,125.9951 49.5004,124.9871 49.5004,123.7431 L44.9994,123.7431 Z M47.2504,121.5011 C48.4914,121.5011 49.5004,120.4931 49.5004,119.2491 L44.9994,119.2491 C44.9994,120.4931 46.0064,121.5011 47.2504,121.5011 L47.2504,121.5011 Z M51.7494,116.9961 C50.5064,116.9961 49.4994,118.0041 49.4994,119.2491 L53.9994,119.2491 C53.9994,118.0041 52.9934,116.9961 51.7494,116.9961 L51.7494,116.9961 Z M123.7494,67.4941 C122.5054,67.4941 121.4984,68.5021 121.4984,69.7461 L125.9994,69.7461 C125.9994,68.5021 124.9924,67.4941 123.7494,67.4941 L123.7494,67.4941 Z M116.9994,69.7461 C116.9994,70.9901 118.0054,71.9991 119.2494,71.9991 C120.4914,71.9991 121.4994,70.9901 121.4994,69.7461 L116.9994,69.7461 Z M119.2494,67.5041 C120.4914,67.5041 121.4994,66.4961 121.4994,65.2521 L116.9994,65.2521 C116.9994,66.4961 118.0054,67.5041 119.2494,67.5041 L119.2494,67.5041 Z M123.7494,62.9991 C122.5054,62.9991 121.4984,64.0071 121.4984,65.2511 L125.9994,65.2511 C125.9994,64.0071 124.9924,62.9991 123.7494,62.9991 L123.7494,62.9991 Z M123.7494,76.4941 C122.5054,76.4941 121.4984,77.5021 121.4984,78.7461 L125.9994,78.7461 C125.9994,77.5021 124.9924,76.4941 123.7494,76.4941 L123.7494,76.4941 Z M116.9994,78.7461 C116.9994,79.9901 118.0054,80.9981 119.2494,80.9981 C120.4914,80.9981 121.4994,79.9901 121.4994,78.7461 L116.9994,78.7461 Z M119.2494,76.5041 C120.4914,76.5041 121.4994,75.4961 121.4994,74.2521 L116.9994,74.2521 C116.9994,75.4961 118.0054,76.5041 119.2494,76.5041 L119.2494,76.5041 Z M123.7494,71.9991 C122.5054,71.9991 121.4984,73.0071 121.4984,74.2511 L125.9994,74.2511 C125.9994,73.0071 124.9924,71.9991 123.7494,71.9991 L123.7494,71.9991 Z M123.7494,85.4941 C122.5054,85.4941 121.4984,86.5021 121.4984,87.7461 L125.9994,87.7461 C125.9994,86.5021 124.9924,85.4941 123.7494,85.4941 L123.7494,85.4941 Z M116.9994,87.7461 C116.9994,88.9901 118.0054,89.9981 119.2494,89.9981 C120.4914,89.9981 121.4994,88.9901 121.4994,87.7461 L116.9994,87.7461 Z M119.2494,85.5041 C120.4914,85.5041 121.4994,84.4961 121.4994,83.2521 L116.9994,83.2521 C116.9994,84.4961 118.0054,85.5041 119.2494,85.5041 L119.2494,85.5041 Z M123.7494,80.9991 C122.5054,80.9991 121.4984,82.0071 121.4984,83.2511 L125.9994,83.2511 C125.9994,82.0071 124.9924,80.9991 123.7494,80.9991 L123.7494,80.9991 Z M141.7484,76.4881 C140.5054,76.4881 139.4984,77.4961 139.4984,78.7401 L143.9994,78.7401 C143.9994,77.4961 142.9924,76.4881 141.7484,76.4881 L141.7484,76.4881 Z M134.9984,78.7411 C134.9984,79.9841 136.0054,80.9951 137.2494,80.9951 C138.4904,80.9951 139.4994,79.9841 139.4994,78.7411 L134.9984,78.7411 Z M137.2494,76.4991 C138.4914,76.4991 139.4994,75.4911 139.4994,74.2451 L134.9994,74.2451 C134.9994,75.4911 136.0054,76.4991 137.2494,76.4991 L137.2494,76.4991 Z M141.7484,71.9941 C140.5054,71.9941 139.4984,73.0021 139.4984,74.2461 L143.9994,74.2461 C143.9994,73.0021 142.9924,71.9941 141.7484,71.9941 L141.7484,71.9941 Z M141.7484,67.4881 C140.5054,67.4881 139.4984,68.4961 139.4984,69.7401 L143.9994,69.7401 C143.9994,68.4961 142.9924,67.4881 141.7484,67.4881 L141.7484,67.4881 Z M134.9984,69.7411 C134.9984,70.9841 136.0054,71.9951 137.2494,71.9951 C138.4904,71.9951 139.4994,70.9841 139.4994,69.7411 L134.9984,69.7411 Z M137.2494,67.4991 C138.4914,67.4991 139.4994,66.4911 139.4994,65.2451 L134.9994,65.2451 C134.9994,66.4911 136.0054,67.4991 137.2494,67.4991 L137.2494,67.4991 Z M141.7484,62.9941 C140.5054,62.9941 139.4984,64.0021 139.4984,65.2461 L143.9994,65.2461 C143.9994,64.0021 142.9924,62.9941 141.7484,62.9941 L141.7484,62.9941 Z M132.7484,67.4881 C131.5054,67.4881 130.4984,68.4961 130.4984,69.7401 L134.9994,69.7401 C134.9994,68.4961 133.9924,67.4881 132.7484,67.4881 L132.7484,67.4881 Z M125.9994,69.7411 C125.9994,70.9841 127.0054,71.9951 128.2494,71.9951 C129.4914,71.9951 130.4994,70.9841 130.4994,69.7411 L125.9994,69.7411 Z M128.2494,67.4991 C129.4914,67.4991 130.4994,66.4911 130.4994,65.2451 L125.9994,65.2451 C125.9994,66.4911 127.0054,67.4991 128.2494,67.4991 L128.2494,67.4991 Z M132.7484,62.9941 C131.5054,62.9941 130.4984,64.0021 130.4984,65.2461 L134.9994,65.2461 C134.9994,64.0021 133.9924,62.9941 132.7484,62.9941 L132.7484,62.9941 Z M132.7484,85.4941 C131.5054,85.4941 130.4984,86.5021 130.4984,87.7461 L134.9994,87.7461 C134.9994,86.5021 133.9924,85.4941 132.7484,85.4941 L132.7484,85.4941 Z M125.9994,87.7461 C125.9994,88.9901 127.0054,89.9981 128.2494,89.9981 C129.4914,89.9981 130.4994,88.9901 130.4994,87.7461 L125.9994,87.7461 Z M128.2494,85.5041 C129.4914,85.5041 130.4994,84.4961 130.4994,83.2521 L125.9994,83.2521 C125.9994,84.4961 127.0054,85.5041 128.2494,85.5041 L128.2494,85.5041 Z M132.7484,80.9991 C131.5054,80.9991 130.4984,82.0071 130.4984,83.2511 L134.9994,83.2511 C134.9994,82.0071 133.9924,80.9991 132.7484,80.9991 L132.7484,80.9991 Z M141.7484,85.4941 C140.5054,85.4941 139.4984,86.5021 139.4984,87.7461 L143.9994,87.7461 C143.9994,86.5021 142.9924,85.4941 141.7484,85.4941 L141.7484,85.4941 Z M134.9984,87.7461 C134.9984,88.9901 136.0054,89.9981 137.2494,89.9981 C138.4904,89.9981 139.4994,88.9901 139.4994,87.7461 L134.9984,87.7461 Z M137.2494,85.5041 C138.4914,85.5041 139.4994,84.4961 139.4994,83.2521 L134.9994,83.2521 C134.9994,84.4961 136.0054,85.5041 137.2494,85.5041 L137.2494,85.5041 Z M141.7484,80.9991 C140.5054,80.9991 139.4984,82.0071 139.4984,83.2511 L143.9994,83.2511 C143.9994,82.0071 142.9924,80.9991 141.7484,80.9991 L141.7484,80.9991 Z M6.7504,67.4941 C5.5064,67.4941 4.5004,68.5021 4.5004,69.7461 L9.0004,69.7461 C9.0004,68.5021 7.9924,67.4941 6.7504,67.4941 L6.7504,67.4941 Z M0.0004,69.7461 C0.0004,70.9901 1.0084,71.9991 2.2504,71.9991 C3.4924,71.9991 4.5004,70.9901 4.5004,69.7461 L0.0004,69.7461 Z M2.2514,67.5041 C3.4924,67.5041 4.5014,66.4961 4.5014,65.2521 L0.0004,65.2521 C0.0004,66.4961 1.0074,67.5041 2.2514,67.5041 L2.2514,67.5041 Z M6.7504,62.9991 C5.5064,62.9991 4.5004,64.0071 4.5004,65.2511 L9.0004,65.2511 C9.0004,64.0071 7.9924,62.9991 6.7504,62.9991 L6.7504,62.9991 Z M6.7504,76.4941 C5.5064,76.4941 4.5004,77.5021 4.5004,78.7461 L9.0004,78.7461 C9.0004,77.5021 7.9924,76.4941 6.7504,76.4941 L6.7504,76.4941 Z M0.0004,78.7461 C0.0004,79.9901 1.0084,80.9981 2.2504,80.9981 C3.4924,80.9981 4.5004,79.9901 4.5004,78.7461 L0.0004,78.7461 Z M2.2514,76.5041 C3.4924,76.5041 4.5014,75.4961 4.5014,74.2521 L0.0004,74.2521 C0.0004,75.4961 1.0074,76.5041 2.2514,76.5041 L2.2514,76.5041 Z M6.7504,71.9991 C5.5064,71.9991 4.5004,73.0071 4.5004,74.2511 L9.0004,74.2511 C9.0004,73.0071 7.9924,71.9991 6.7504,71.9991 L6.7504,71.9991 Z M6.7504,85.4941 C5.5064,85.4941 4.5004,86.5021 4.5004,87.7461 L9.0004,87.7461 C9.0004,86.5021 7.9924,85.4941 6.7504,85.4941 L6.7504,85.4941 Z M0.0004,87.7461 C0.0004,88.9901 1.0084,89.9981 2.2504,89.9981 C3.4924,89.9981 4.5004,88.9901 4.5004,87.7461 L0.0004,87.7461 Z M2.2514,85.5041 C3.4924,85.5041 4.5014,84.4961 4.5014,83.2521 L0.0004,83.2521 C0.0004,84.4961 1.0074,85.5041 2.2514,85.5041 L2.2514,85.5041 Z M6.7504,80.9991 C5.5064,80.9991 4.5004,82.0071 4.5004,83.2511 L9.0004,83.2511 C9.0004,82.0071 7.9924,80.9991 6.7504,80.9991 L6.7504,80.9991 Z M24.7504,76.4881 C23.5064,76.4881 22.5004,77.4961 22.5004,78.7401 L27.0004,78.7401 C27.0004,77.4961 25.9924,76.4881 24.7504,76.4881 L24.7504,76.4881 Z M17.9994,78.7411 C17.9994,79.9841 19.0084,80.9951 20.2494,80.9951 C21.4914,80.9951 22.5004,79.9841 22.5004,78.7411 L17.9994,78.7411 Z M20.2504,76.4991 C21.4924,76.4991 22.5014,75.4911 22.5014,74.2451 L18.0004,74.2451 C18.0004,75.4911 19.0074,76.4991 20.2504,76.4991 L20.2504,76.4991 Z M24.7504,71.9941 C23.5064,71.9941 22.5004,73.0021 22.5004,74.2461 L27.0004,74.2461 C27.0004,73.0021 25.9924,71.9941 24.7504,71.9941 L24.7504,71.9941 Z M24.7504,67.4881 C23.5064,67.4881 22.5004,68.4961 22.5004,69.7401 L27.0004,69.7401 C27.0004,68.4961 25.9924,67.4881 24.7504,67.4881 L24.7504,67.4881 Z M17.9994,69.7411 C17.9994,70.9841 19.0084,71.9951 20.2494,71.9951 C21.4914,71.9951 22.5004,70.9841 22.5004,69.7411 L17.9994,69.7411 Z M20.2504,67.4991 C21.4924,67.4991 22.5014,66.4911 22.5014,65.2451 L18.0004,65.2451 C18.0004,66.4911 19.0074,67.4991 20.2504,67.4991 L20.2504,67.4991 Z M24.7504,62.9941 C23.5064,62.9941 22.5004,64.0021 22.5004,65.2461 L27.0004,65.2461 C27.0004,64.0021 25.9924,62.9941 24.7504,62.9941 L24.7504,62.9941 Z M132.7494,31.4941 C131.5054,31.4941 130.4994,32.5031 130.4994,33.7461 L134.9994,33.7461 C134.9994,32.5031 133.9914,31.4941 132.7494,31.4941 L132.7494,31.4941 Z M125.9994,33.7471 C125.9994,34.9901 127.0074,35.9991 128.2494,35.9991 C129.4914,35.9991 130.4994,34.9901 130.4994,33.7471 L125.9994,33.7471 Z M128.2504,31.5041 C129.4914,31.5041 130.5004,30.4961 130.5004,29.2521 L125.9994,29.2521 C125.9994,30.4961 127.0064,31.5041 128.2504,31.5041 L128.2504,31.5041 Z M132.7494,26.9991 C131.5054,26.9991 130.4994,28.0081 130.4994,29.2511 L134.9994,29.2511 C134.9994,28.0081 133.9914,26.9991 132.7494,26.9991 L132.7494,26.9991 Z M132.7494,40.4941 C131.5054,40.4941 130.4994,41.5031 130.4994,42.7461 L134.9994,42.7461 C134.9994,41.5031 133.9914,40.4941 132.7494,40.4941 L132.7494,40.4941 Z M125.9994,42.7471 C125.9994,43.9901 127.0074,44.9991 128.2494,44.9991 C129.4914,44.9991 130.4994,43.9901 130.4994,42.7471 L125.9994,42.7471 Z M128.2504,40.5041 C129.4914,40.5041 130.5004,39.4961 130.5004,38.2521 L125.9994,38.2521 C125.9994,39.4961 127.0064,40.5041 128.2504,40.5041 L128.2504,40.5041 Z M132.7494,35.9991 C131.5054,35.9991 130.4994,37.0081 130.4994,38.2511 L134.9994,38.2511 C134.9994,37.0081 133.9914,35.9991 132.7494,35.9991 L132.7494,35.9991 Z M6.7514,49.4941 C5.5074,49.4941 4.5004,50.5021 4.5004,51.7461 L9.0014,51.7461 C9.0014,50.5021 7.9924,49.4941 6.7514,49.4941 L6.7514,49.4941 Z M0.0004,51.7461 C0.0004,52.9901 1.0084,53.9991 2.2504,53.9991 C3.4924,53.9991 4.5004,52.9901 4.5004,51.7461 L0.0004,51.7461 Z M2.2514,49.5041 C3.4934,49.5041 4.5014,48.4961 4.5014,47.2521 L0.0014,47.2521 C0.0014,48.4961 1.0074,49.5041 2.2514,49.5041 L2.2514,49.5041 Z M6.7514,44.9991 C5.5074,44.9991 4.5004,46.0081 4.5004,47.2511 L9.0014,47.2511 C9.0014,46.0081 7.9924,44.9991 6.7514,44.9991 L6.7514,44.9991 Z M141.7494,49.4941 C140.5064,49.4941 139.4994,50.5021 139.4994,51.7461 L144.0004,51.7461 C144.0004,50.5021 142.9914,49.4941 141.7494,49.4941 L141.7494,49.4941 Z M134.9994,51.7461 C134.9994,52.9901 136.0074,53.9991 137.2494,53.9991 C138.4914,53.9991 139.4994,52.9901 139.4994,51.7461 L134.9994,51.7461 Z M137.2504,49.5041 C138.4924,49.5041 139.5004,48.4961 139.5004,47.2521 L135.0004,47.2521 C135.0004,48.4961 136.0064,49.5041 137.2504,49.5041 L137.2504,49.5041 Z M141.7494,44.9991 C140.5064,44.9991 139.4994,46.0081 139.4994,47.2511 L144.0004,47.2511 C144.0004,46.0081 142.9914,44.9991 141.7494,44.9991 L141.7494,44.9991 Z M132.7494,49.4941 C131.5054,49.4941 130.4994,50.5021 130.4994,51.7461 L134.9994,51.7461 C134.9994,50.5021 133.9914,49.4941 132.7494,49.4941 L132.7494,49.4941 Z M125.9994,51.7461 C125.9994,52.9901 127.0074,53.9991 128.2494,53.9991 C129.4914,53.9991 130.4994,52.9901 130.4994,51.7461 L125.9994,51.7461 Z M128.2504,49.5041 C129.4914,49.5041 130.5004,48.4961 130.5004,47.2521 L125.9994,47.2521 C125.9994,48.4961 127.0064,49.5041 128.2504,49.5041 L128.2504,49.5041 Z M132.7494,44.9991 C131.5054,44.9991 130.4994,46.0081 130.4994,47.2511 L134.9994,47.2511 C134.9994,46.0081 133.9914,44.9991 132.7494,44.9991 L132.7494,44.9991 Z M132.7494,58.4941 C131.5054,58.4941 130.4994,59.5021 130.4994,60.7461 L134.9994,60.7461 C134.9994,59.5021 133.9914,58.4941 132.7494,58.4941 L132.7494,58.4941 Z M125.9994,60.7461 C125.9994,61.9901 127.0074,62.9981 128.2494,62.9981 C129.4914,62.9981 130.4994,61.9901 130.4994,60.7461 L125.9994,60.7461 Z M128.2504,58.5041 C129.4914,58.5041 130.5004,57.4961 130.5004,56.2521 L125.9994,56.2521 C125.9994,57.4961 127.0064,58.5041 128.2504,58.5041 L128.2504,58.5041 Z M132.7494,53.9991 C131.5054,53.9991 130.4994,55.0071 130.4994,56.2511 L134.9994,56.2511 C134.9994,55.0071 133.9914,53.9991 132.7494,53.9991 L132.7494,53.9991 Z M15.7504,31.4941 C14.5064,31.4941 13.5004,32.5031 13.5004,33.7461 L18.0004,33.7461 C18.0004,32.5031 16.9924,31.4941 15.7504,31.4941 L15.7504,31.4941 Z M8.9994,33.7471 C8.9994,34.9901 10.0084,35.9991 11.2504,35.9991 C12.4914,35.9991 13.5004,34.9901 13.5004,33.7471 L8.9994,33.7471 Z M11.2514,31.5041 C12.4924,31.5041 13.5014,30.4961 13.5014,29.2521 L9.0004,29.2521 C9.0004,30.4961 10.0074,31.5041 11.2514,31.5041 L11.2514,31.5041 Z M15.7504,26.9991 C14.5064,26.9991 13.5004,28.0081 13.5004,29.2511 L18.0004,29.2511 C18.0004,28.0081 16.9924,26.9991 15.7504,26.9991 L15.7504,26.9991 Z M15.7504,40.4941 C14.5064,40.4941 13.5004,41.5031 13.5004,42.7461 L18.0004,42.7461 C18.0004,41.5031 16.9924,40.4941 15.7504,40.4941 L15.7504,40.4941 Z M8.9994,42.7471 C8.9994,43.9901 10.0084,44.9991 11.2504,44.9991 C12.4914,44.9991 13.5004,43.9901 13.5004,42.7471 L8.9994,42.7471 Z M11.2514,40.5041 C12.4924,40.5041 13.5014,39.4961 13.5014,38.2521 L9.0004,38.2521 C9.0004,39.4961 10.0074,40.5041 11.2514,40.5041 L11.2514,40.5041 Z M15.7504,35.9991 C14.5064,35.9991 13.5004,37.0081 13.5004,38.2511 L18.0004,38.2511 C18.0004,37.0081 16.9924,35.9991 15.7504,35.9991 L15.7504,35.9991 Z M15.7504,49.4941 C14.5064,49.4941 13.5004,50.5021 13.5004,51.7461 L18.0004,51.7461 C18.0004,50.5021 16.9924,49.4941 15.7504,49.4941 L15.7504,49.4941 Z M8.9994,51.7461 C8.9994,52.9901 10.0084,53.9991 11.2504,53.9991 C12.4914,53.9991 13.5004,52.9901 13.5004,51.7461 L8.9994,51.7461 Z M11.2514,49.5041 C12.4924,49.5041 13.5014,48.4961 13.5014,47.2521 L9.0004,47.2521 C9.0004,48.4961 10.0074,49.5041 11.2514,49.5041 L11.2514,49.5041 Z M15.7504,44.9991 C14.5064,44.9991 13.5004,46.0081 13.5004,47.2511 L18.0004,47.2511 C18.0004,46.0081 16.9924,44.9991 15.7504,44.9991 L15.7504,44.9991 Z M15.7504,58.4941 C14.5064,58.4941 13.5004,59.5021 13.5004,60.7461 L18.0004,60.7461 C18.0004,59.5021 16.9924,58.4941 15.7504,58.4941 L15.7504,58.4941 Z M8.9994,60.7461 C8.9994,61.9901 10.0084,62.9981 11.2504,62.9981 C12.4914,62.9981 13.5004,61.9901 13.5004,60.7461 L8.9994,60.7461 Z M11.2514,58.5041 C12.4924,58.5041 13.5014,57.4961 13.5014,56.2521 L9.0004,56.2521 C9.0004,57.4961 10.0074,58.5041 11.2514,58.5041 L11.2514,58.5041 Z M15.7504,53.9991 C14.5064,53.9991 13.5004,55.0071 13.5004,56.2511 L18.0004,56.2511 C18.0004,55.0071 16.9924,53.9991 15.7504,53.9991 L15.7504,53.9991 Z M15.7504,67.4881 C14.5064,67.4881 13.5004,68.4961 13.5004,69.7401 L18.0004,69.7401 C18.0004,68.4961 16.9924,67.4881 15.7504,67.4881 L15.7504,67.4881 Z M8.9994,69.7411 C8.9994,70.9841 10.0084,71.9951 11.2504,71.9951 C12.4914,71.9951 13.5004,70.9841 13.5004,69.7411 L8.9994,69.7411 Z M11.2514,67.4991 C12.4924,67.4991 13.5014,66.4911 13.5014,65.2451 L9.0004,65.2451 C9.0004,66.4911 10.0074,67.4991 11.2514,67.4991 L11.2514,67.4991 Z M15.7504,62.9941 C14.5064,62.9941 13.5004,64.0021 13.5004,65.2461 L18.0004,65.2461 C18.0004,64.0021 16.9924,62.9941 15.7504,62.9941 L15.7504,62.9941 Z M15.7504,85.4941 C14.5064,85.4941 13.5004,86.5021 13.5004,87.7461 L18.0004,87.7461 C18.0004,86.5021 16.9924,85.4941 15.7504,85.4941 L15.7504,85.4941 Z M8.9994,87.7461 C8.9994,88.9901 10.0084,89.9981 11.2504,89.9981 C12.4914,89.9981 13.5004,88.9901 13.5004,87.7461 L8.9994,87.7461 Z M11.2514,85.5041 C12.4924,85.5041 13.5014,84.4961 13.5014,83.2521 L9.0004,83.2521 C9.0004,84.4961 10.0074,85.5041 11.2514,85.5041 L11.2514,85.5041 Z M15.7504,80.9991 C14.5064,80.9991 13.5004,82.0071 13.5004,83.2511 L18.0004,83.2511 C18.0004,82.0071 16.9924,80.9991 15.7504,80.9991 L15.7504,80.9991 Z M24.7504,85.4941 C23.5064,85.4941 22.5004,86.5021 22.5004,87.7461 L27.0004,87.7461 C27.0004,86.5021 25.9924,85.4941 24.7504,85.4941 L24.7504,85.4941 Z M17.9994,87.7461 C17.9994,88.9901 19.0084,89.9981 20.2494,89.9981 C21.4914,89.9981 22.5004,88.9901 22.5004,87.7461 L17.9994,87.7461 Z M20.2504,85.5041 C21.4924,85.5041 22.5014,84.4961 22.5014,83.2521 L18.0004,83.2521 C18.0004,84.4961 19.0074,85.5041 20.2504,85.5041 L20.2504,85.5041 Z M24.7504,80.9991 C23.5064,80.9991 22.5004,82.0071 22.5004,83.2511 L27.0004,83.2511 C27.0004,82.0071 25.9924,80.9991 24.7504,80.9991 L24.7504,80.9991 Z M6.7504,103.4941 C5.5064,103.4941 4.5004,104.5021 4.5004,105.7461 L9.0004,105.7461 C9.0004,104.5021 7.9924,103.4941 6.7504,103.4941 L6.7504,103.4941 Z M0.0004,105.7461 C0.0004,106.9901 1.0084,107.9981 2.2504,107.9981 C3.4924,107.9981 4.5004,106.9901 4.5004,105.7461 L0.0004,105.7461 Z M2.2514,103.5041 C3.4924,103.5041 4.5014,102.4951 4.5014,101.2521 L0.0004,101.2521 C0.0004,102.4951 1.0074,103.5041 2.2514,103.5041 L2.2514,103.5041 Z M6.7504,98.9991 C5.5064,98.9991 4.5004,100.0071 4.5004,101.2511 L9.0004,101.2511 C9.0004,100.0071 7.9924,98.9991 6.7504,98.9991 L6.7504,98.9991 Z M6.7514,94.4941 C5.5074,94.4941 4.5014,95.5021 4.5014,96.7461 L9.0014,96.7461 C9.0014,95.5021 7.9934,94.4941 6.7514,94.4941 L6.7514,94.4941 Z M6.7514,89.9991 C5.5074,89.9991 4.5014,91.0071 4.5014,92.2511 L9.0014,92.2511 C9.0014,91.0071 7.9934,89.9991 6.7514,89.9991 L6.7514,89.9991 Z M15.7504,94.4941 C14.5064,94.4941 13.5004,95.5021 13.5004,96.7461 L18.0004,96.7461 C18.0004,95.5021 16.9924,94.4941 15.7504,94.4941 L15.7504,94.4941 Z M8.9994,96.7461 C8.9994,97.9901 10.0084,98.9981 11.2504,98.9981 C12.4914,98.9981 13.5004,97.9901 13.5004,96.7461 L8.9994,96.7461 Z M11.2514,94.5041 C12.4924,94.5041 13.5014,93.4961 13.5014,92.2521 L9.0004,92.2521 C9.0004,93.4961 10.0074,94.5041 11.2514,94.5041 L11.2514,94.5041 Z M15.7504,89.9991 C14.5064,89.9991 13.5004,91.0071 13.5004,92.2511 L18.0004,92.2511 C18.0004,91.0071 16.9924,89.9991 15.7504,89.9991 L15.7504,89.9991 Z M24.7504,94.4941 C23.5064,94.4941 22.5004,95.5021 22.5004,96.7461 L27.0004,96.7461 C27.0004,95.5021 25.9924,94.4941 24.7504,94.4941 L24.7504,94.4941 Z M17.9994,96.7461 C17.9994,97.9901 19.0084,98.9981 20.2494,98.9981 C21.4914,98.9981 22.5004,97.9901 22.5004,96.7461 L17.9994,96.7461 Z M20.2504,94.5041 C21.4924,94.5041 22.5014,93.4961 22.5014,92.2521 L18.0004,92.2521 C18.0004,93.4961 19.0074,94.5041 20.2504,94.5041 L20.2504,94.5041 Z M24.7504,89.9991 C23.5064,89.9991 22.5004,91.0071 22.5004,92.2511 L27.0004,92.2511 C27.0004,91.0071 25.9924,89.9991 24.7504,89.9991 L24.7504,89.9991 Z M15.7504,103.4941 C14.5064,103.4941 13.5004,104.5021 13.5004,105.7461 L18.0004,105.7461 C18.0004,104.5021 16.9924,103.4941 15.7504,103.4941 L15.7504,103.4941 Z M8.9994,105.7461 C8.9994,106.9901 10.0084,107.9981 11.2504,107.9981 C12.4914,107.9981 13.5004,106.9901 13.5004,105.7461 L8.9994,105.7461 Z M11.2514,103.5041 C12.4924,103.5041 13.5014,102.4951 13.5014,101.2521 L9.0004,101.2521 C9.0004,102.4951 10.0074,103.5041 11.2514,103.5041 L11.2514,103.5041 Z M15.7504,98.9991 C14.5064,98.9991 13.5004,100.0071 13.5004,101.2511 L18.0004,101.2511 C18.0004,100.0071 16.9924,98.9991 15.7504,98.9991 L15.7504,98.9991 Z M24.7504,103.4941 C23.5064,103.4941 22.5004,104.5021 22.5004,105.7461 L27.0004,105.7461 C27.0004,104.5021 25.9924,103.4941 24.7504,103.4941 L24.7504,103.4941 Z M17.9994,105.7461 C17.9994,106.9901 19.0084,107.9981 20.2494,107.9981 C21.4914,107.9981 22.5004,106.9901 22.5004,105.7461 L17.9994,105.7461 Z M20.2504,103.5041 C21.4924,103.5041 22.5014,102.4951 22.5014,101.2521 L18.0004,101.2521 C18.0004,102.4951 19.0074,103.5041 20.2504,103.5041 L20.2504,103.5041 Z M24.7504,98.9991 C23.5064,98.9991 22.5004,100.0071 22.5004,101.2511 L27.0004,101.2511 C27.0004,100.0071 25.9924,98.9991 24.7504,98.9991 L24.7504,98.9991 Z M6.7504,112.4961 C5.5064,112.4961 4.5004,113.5041 4.5004,114.7491 L9.0004,114.7491 C9.0004,113.5041 7.9924,112.4961 6.7504,112.4961 L6.7504,112.4961 Z M0.0004,114.7491 C0.0004,115.9921 1.0084,117.0011 2.2504,117.0011 C3.4924,117.0011 4.5004,115.9921 4.5004,114.7491 L0.0004,114.7491 Z M2.2514,112.5071 C3.4924,112.5071 4.5014,111.4971 4.5014,110.2531 L0.0004,110.2531 C0.0004,111.4971 1.0074,112.5071 2.2514,112.5071 L2.2514,112.5071 Z M6.7504,108.0011 C5.5064,108.0011 4.5004,109.0101 4.5004,110.2531 L9.0004,110.2531 C9.0004,109.0101 7.9924,108.0011 6.7504,108.0011 L6.7504,108.0011 Z M15.7504,112.4961 C14.5064,112.4961 13.5004,113.5041 13.5004,114.7491 L18.0004,114.7491 C18.0004,113.5041 16.9924,112.4961 15.7504,112.4961 L15.7504,112.4961 Z M8.9994,114.7491 C8.9994,115.9921 10.0084,117.0011 11.2504,117.0011 C12.4914,117.0011 13.5004,115.9921 13.5004,114.7491 L8.9994,114.7491 Z M11.2514,112.5071 C12.4924,112.5071 13.5014,111.4971 13.5014,110.2531 L9.0004,110.2531 C9.0004,111.4971 10.0074,112.5071 11.2514,112.5071 L11.2514,112.5071 Z M15.7504,108.0011 C14.5064,108.0011 13.5004,109.0101 13.5004,110.2531 L18.0004,110.2531 C18.0004,109.0101 16.9924,108.0011 15.7504,108.0011 L15.7504,108.0011 Z M24.7504,112.4961 C23.5064,112.4961 22.5004,113.5041 22.5004,114.7491 L27.0004,114.7491 C27.0004,113.5041 25.9924,112.4961 24.7504,112.4961 L24.7504,112.4961 Z M17.9994,114.7491 C17.9994,115.9921 19.0084,117.0011 20.2494,117.0011 C21.4914,117.0011 22.5004,115.9921 22.5004,114.7491 L17.9994,114.7491 Z M20.2504,112.5071 C21.4924,112.5071 22.5014,111.4971 22.5014,110.2531 L18.0004,110.2531 C18.0004,111.4971 19.0074,112.5071 20.2504,112.5071 L20.2504,112.5071 Z M24.7504,108.0011 C23.5064,108.0011 22.5004,109.0101 22.5004,110.2531 L27.0004,110.2531 C27.0004,109.0101 25.9924,108.0011 24.7504,108.0011 L24.7504,108.0011 Z M6.7504,121.4901 C5.5064,121.4901 4.5004,122.4991 4.5004,123.7441 L9.0004,123.7441 C9.0004,122.4991 7.9924,121.4901 6.7504,121.4901 L6.7504,121.4901 Z M0.0004,123.7431 C0.0004,124.9871 1.0084,125.9951 2.2504,125.9951 C3.4924,125.9951 4.5004,124.9871 4.5004,123.7431 L0.0004,123.7431 Z M2.2514,121.5011 C3.4924,121.5011 4.5014,120.4931 4.5014,119.2491 L0.0004,119.2491 C0.0004,120.4931 1.0074,121.5011 2.2514,121.5011 L2.2514,121.5011 Z M6.7504,116.9961 C5.5064,116.9961 4.5004,118.0041 4.5004,119.2491 L9.0004,119.2491 C9.0004,118.0041 7.9924,116.9961 6.7504,116.9961 L6.7504,116.9961 Z M15.7504,121.4901 C14.5064,121.4901 13.5004,122.4991 13.5004,123.7441 L18.0004,123.7441 C18.0004,122.4991 16.9924,121.4901 15.7504,121.4901 L15.7504,121.4901 Z M8.9994,123.7431 C8.9994,124.9871 10.0084,125.9951 11.2504,125.9951 C12.4914,125.9951 13.5004,124.9871 13.5004,123.7431 L8.9994,123.7431 Z M11.2514,121.5011 C12.4924,121.5011 13.5014,120.4931 13.5014,119.2491 L9.0004,119.2491 C9.0004,120.4931 10.0074,121.5011 11.2514,121.5011 L11.2514,121.5011 Z M15.7504,116.9961 C14.5064,116.9961 13.5004,118.0041 13.5004,119.2491 L18.0004,119.2491 C18.0004,118.0041 16.9924,116.9961 15.7504,116.9961 L15.7504,116.9961 Z M24.7504,121.4901 C23.5064,121.4901 22.5004,122.4991 22.5004,123.7441 L27.0004,123.7441 C27.0004,122.4991 25.9924,121.4901 24.7504,121.4901 L24.7504,121.4901 Z M17.9994,123.7431 C17.9994,124.9871 19.0084,125.9951 20.2494,125.9951 C21.4914,125.9951 22.5004,124.9871 22.5004,123.7431 L17.9994,123.7431 Z M20.2504,121.5011 C21.4924,121.5011 22.5014,120.4931 22.5014,119.2491 L18.0004,119.2491 C18.0004,120.4931 19.0074,121.5011 20.2504,121.5011 L20.2504,121.5011 Z M24.7504,116.9961 C23.5064,116.9961 22.5004,118.0041 22.5004,119.2491 L27.0004,119.2491 C27.0004,118.0041 25.9924,116.9961 24.7504,116.9961 L24.7504,116.9961 Z M6.7504,130.4991 C5.5064,130.4991 4.5004,131.5071 4.5004,132.7521 L9.0004,132.7521 C9.0004,131.5071 7.9924,130.4991 6.7504,130.4991 L6.7504,130.4991 Z M0.0004,132.7521 C0.0004,133.9951 1.0084,135.0041 2.2504,135.0041 C3.4924,135.0041 4.5004,133.9951 4.5004,132.7521 L0.0004,132.7521 Z M2.2514,130.5091 C3.4924,130.5091 4.5014,129.5011 4.5014,128.2571 L0.0004,128.2571 C0.0004,129.5011 1.0074,130.5091 2.2514,130.5091 L2.2514,130.5091 Z M6.7504,126.0041 C5.5064,126.0041 4.5004,127.0121 4.5004,128.2581 L9.0004,128.2581 C9.0004,127.0121 7.9924,126.0041 6.7504,126.0041 L6.7504,126.0041 Z M15.7504,130.4991 C14.5064,130.4991 13.5004,131.5071 13.5004,132.7521 L18.0004,132.7521 C18.0004,131.5071 16.9924,130.4991 15.7504,130.4991 L15.7504,130.4991 Z M8.9994,132.7521 C8.9994,133.9951 10.0084,135.0041 11.2504,135.0041 C12.4914,135.0041 13.5004,133.9951 13.5004,132.7521 L8.9994,132.7521 Z M11.2514,130.5091 C12.4924,130.5091 13.5014,129.5011 13.5014,128.2571 L9.0004,128.2571 C9.0004,129.5011 10.0074,130.5091 11.2514,130.5091 L11.2514,130.5091 Z M15.7504,126.0041 C14.5064,126.0041 13.5004,127.0121 13.5004,128.2581 L18.0004,128.2581 C18.0004,127.0121 16.9924,126.0041 15.7504,126.0041 L15.7504,126.0041 Z M24.7504,130.4991 C23.5064,130.4991 22.5004,131.5071 22.5004,132.7521 L27.0004,132.7521 C27.0004,131.5071 25.9924,130.4991 24.7504,130.4991 L24.7504,130.4991 Z M17.9994,132.7521 C17.9994,133.9951 19.0084,135.0041 20.2494,135.0041 C21.4914,135.0041 22.5004,133.9951 22.5004,132.7521 L17.9994,132.7521 Z M20.2504,130.5091 C21.4924,130.5091 22.5014,129.5011 22.5014,128.2571 L18.0004,128.2571 C18.0004,129.5011 19.0074,130.5091 20.2504,130.5091 L20.2504,130.5091 Z M24.7504,126.0041 C23.5064,126.0041 22.5004,127.0121 22.5004,128.2581 L27.0004,128.2581 C27.0004,127.0121 25.9924,126.0041 24.7504,126.0041 L24.7504,126.0041 Z M6.7504,139.4931 C5.5064,139.4931 4.5004,140.5021 4.5004,141.7451 L9.0004,141.7451 C9.0004,140.5021 7.9924,139.4931 6.7504,139.4931 L6.7504,139.4931 Z M0.0004,141.7461 C0.0004,142.9901 1.0084,143.9981 2.2504,143.9981 C3.4924,143.9981 4.5004,142.9901 4.5004,141.7461 L0.0004,141.7461 Z M2.2514,139.5041 C3.4924,139.5041 4.5014,138.4951 4.5014,137.2521 L0.0004,137.2521 C0.0004,138.4951 1.0074,139.5041 2.2514,139.5041 L2.2514,139.5041 Z M6.7504,134.9991 C5.5064,134.9991 4.5004,136.0071 4.5004,137.2511 L9.0004,137.2511 C9.0004,136.0071 7.9924,134.9991 6.7504,134.9991 L6.7504,134.9991 Z M15.7504,139.4931 C14.5064,139.4931 13.5004,140.5021 13.5004,141.7451 L18.0004,141.7451 C18.0004,140.5021 16.9924,139.4931 15.7504,139.4931 L15.7504,139.4931 Z M8.9994,141.7461 C8.9994,142.9901 10.0084,143.9981 11.2504,143.9981 C12.4914,143.9981 13.5004,142.9901 13.5004,141.7461 L8.9994,141.7461 Z M11.2514,139.5041 C12.4924,139.5041 13.5014,138.4951 13.5014,137.2521 L9.0004,137.2521 C9.0004,138.4951 10.0074,139.5041 11.2514,139.5041 L11.2514,139.5041 Z M15.7504,134.9991 C14.5064,134.9991 13.5004,136.0071 13.5004,137.2511 L18.0004,137.2511 C18.0004,136.0071 16.9924,134.9991 15.7504,134.9991 L15.7504,134.9991 Z M24.7504,139.4931 C23.5064,139.4931 22.5004,140.5021 22.5004,141.7451 L27.0004,141.7451 C27.0004,140.5021 25.9924,139.4931 24.7504,139.4931 L24.7504,139.4931 Z M17.9994,141.7461 C17.9994,142.9901 19.0084,143.9981 20.2494,143.9981 C21.4914,143.9981 22.5004,142.9901 22.5004,141.7461 L17.9994,141.7461 Z M20.2504,139.5041 C21.4924,139.5041 22.5014,138.4951 22.5014,137.2521 L18.0004,137.2521 C18.0004,138.4951 19.0074,139.5041 20.2504,139.5041 L20.2504,139.5041 Z M24.7504,134.9991 C23.5064,134.9991 22.5004,136.0071 22.5004,137.2511 L27.0004,137.2511 C27.0004,136.0071 25.9924,134.9991 24.7504,134.9991 L24.7504,134.9991 Z M123.7494,130.4991 C122.5054,130.4991 121.4984,131.5071 121.4984,132.7521 L125.9994,132.7521 C125.9994,131.5071 124.9924,130.4991 123.7494,130.4991 L123.7494,130.4991 Z M116.9994,132.7521 C116.9994,133.9951 118.0054,135.0041 119.2494,135.0041 C120.4914,135.0041 121.4994,133.9951 121.4994,132.7521 L116.9994,132.7521 Z M119.2494,130.5091 C120.4914,130.5091 121.4994,129.5011 121.4994,128.2571 L116.9994,128.2571 C116.9994,129.5011 118.0054,130.5091 119.2494,130.5091 L119.2494,130.5091 Z M123.7494,126.0041 C122.5054,126.0041 121.4984,127.0121 121.4984,128.2581 L125.9994,128.2581 C125.9994,127.0121 124.9924,126.0041 123.7494,126.0041 L123.7494,126.0041 Z M132.7484,130.4991 C131.5054,130.4991 130.4984,131.5071 130.4984,132.7521 L134.9994,132.7521 C134.9994,131.5071 133.9924,130.4991 132.7484,130.4991 L132.7484,130.4991 Z M125.9994,132.7521 C125.9994,133.9951 127.0054,135.0041 128.2494,135.0041 C129.4914,135.0041 130.4994,133.9951 130.4994,132.7521 L125.9994,132.7521 Z M128.2494,130.5091 C129.4914,130.5091 130.4994,129.5011 130.4994,128.2571 L125.9994,128.2571 C125.9994,129.5011 127.0054,130.5091 128.2494,130.5091 L128.2494,130.5091 Z M132.7484,126.0041 C131.5054,126.0041 130.4984,127.0121 130.4984,128.2581 L134.9994,128.2581 C134.9994,127.0121 133.9924,126.0041 132.7484,126.0041 L132.7484,126.0041 Z M141.7484,130.4991 C140.5054,130.4991 139.4984,131.5071 139.4984,132.7521 L143.9994,132.7521 C143.9994,131.5071 142.9924,130.4991 141.7484,130.4991 L141.7484,130.4991 Z M134.9984,132.7521 C134.9984,133.9951 136.0054,135.0041 137.2494,135.0041 C138.4904,135.0041 139.4994,133.9951 139.4994,132.7521 L134.9984,132.7521 Z M137.2494,130.5091 C138.4914,130.5091 139.4994,129.5011 139.4994,128.2571 L134.9994,128.2571 C134.9994,129.5011 136.0054,130.5091 137.2494,130.5091 L137.2494,130.5091 Z M141.7484,126.0041 C140.5054,126.0041 139.4984,127.0121 139.4984,128.2581 L143.9994,128.2581 C143.9994,127.0121 142.9924,126.0041 141.7484,126.0041 L141.7484,126.0041 Z M123.7494,139.4931 C122.5054,139.4931 121.4984,140.5021 121.4984,141.7451 L125.9994,141.7451 C125.9994,140.5021 124.9924,139.4931 123.7494,139.4931 L123.7494,139.4931 Z M116.9994,141.7461 C116.9994,142.9901 118.0054,143.9981 119.2494,143.9981 C120.4914,143.9981 121.4994,142.9901 121.4994,141.7461 L116.9994,141.7461 Z M119.2494,139.5041 C120.4914,139.5041 121.4994,138.4951 121.4994,137.2521 L116.9994,137.2521 C116.9994,138.4951 118.0054,139.5041 119.2494,139.5041 L119.2494,139.5041 Z M123.7494,134.9991 C122.5054,134.9991 121.4984,136.0071 121.4984,137.2511 L125.9994,137.2511 C125.9994,136.0071 124.9924,134.9991 123.7494,134.9991 L123.7494,134.9991 Z M132.7484,139.4931 C131.5054,139.4931 130.4984,140.5021 130.4984,141.7451 L134.9994,141.7451 C134.9994,140.5021 133.9924,139.4931 132.7484,139.4931 L132.7484,139.4931 Z M125.9994,141.7461 C125.9994,142.9901 127.0054,143.9981 128.2494,143.9981 C129.4914,143.9981 130.4994,142.9901 130.4994,141.7461 L125.9994,141.7461 Z M128.2494,139.5041 C129.4914,139.5041 130.4994,138.4951 130.4994,137.2521 L125.9994,137.2521 C125.9994,138.4951 127.0054,139.5041 128.2494,139.5041 L128.2494,139.5041 Z M132.7484,134.9991 C131.5054,134.9991 130.4984,136.0071 130.4984,137.2511 L134.9994,137.2511 C134.9994,136.0071 133.9924,134.9991 132.7484,134.9991 L132.7484,134.9991 Z M141.7484,139.4931 C140.5054,139.4931 139.4984,140.5021 139.4984,141.7451 L143.9994,141.7451 C143.9994,140.5021 142.9924,139.4931 141.7484,139.4931 L141.7484,139.4931 Z M134.9984,141.7461 C134.9984,142.9901 136.0054,143.9981 137.2494,143.9981 C138.4904,143.9981 139.4994,142.9901 139.4994,141.7461 L134.9984,141.7461 Z M137.2494,139.5041 C138.4914,139.5041 139.4994,138.4951 139.4994,137.2521 L134.9994,137.2521 C134.9994,138.4951 136.0054,139.5041 137.2494,139.5041 L137.2494,139.5041 Z M141.7484,134.9991 C142.9924,134.9991 143.9994,136.0071 143.9994,137.2511 L139.4984,137.2511 C139.4984,136.0071 140.5054,134.9991 141.7484,134.9991 L141.7484,134.9991 Z" fill="#EB0029"></path>
                <text id="-" font-family="AvenirNextLTWGL-Regular, Avenir Next LT WGL" font-size="16" font-weight="normal" line-spacing="24" fill="#262626">
                    <tspan x="7.656" y="188"> </tspan>
                </text>
            </g>
        </g>
    </g>
</svg>