<?xml version="1.0" encoding="UTF-8" standalone="no"?>
<svg width="126px" height="99px" viewBox="0 0 126 99" version="1.1" xmlns="http://www.w3.org/2000/svg" xmlns:xlink="http://www.w3.org/1999/xlink">
    <!-- Generator: Sketch 39.1 (31720) - http://www.bohemiancoding.com/sketch -->
    <title>car</title>
    <desc>Created with Sketch.</desc>
    <defs></defs>
    <g id="Symbols" stroke="none" stroke-width="1" fill="none" fill-rule="evenodd">
        <g id="box-areas" transform="translate(-764.000000, -205.000000)" fill="#EB0029">
            <g id="car" transform="translate(755.000000, 205.000000)">
                <path d="M123.1222,31.3009 C121.8862,31.3009 120.8852,32.3039 120.8852,33.5379 L125.3592,33.5379 C125.3592,32.3039 124.3582,31.3009 123.1222,31.3009 L123.1222,31.3009 Z M116.4092,33.5389 C116.4092,34.7749 117.4122,35.7759 118.6462,35.7759 C119.8822,35.7759 120.8852,34.7749 120.8852,33.5389 L116.4092,33.5389 Z M118.6482,31.3119 C119.8842,31.3119 120.8852,30.3089 120.8852,29.0749 L116.4092,29.0749 C116.4092,30.3089 117.4122,31.3119 118.6482,31.3119 L118.6482,31.3119 Z M123.1222,26.8369 C121.8862,26.8369 120.8852,27.8379 120.8852,29.0739 L125.3592,29.0739 C125.3592,27.8379 124.3582,26.8369 123.1222,26.8369 L123.1222,26.8369 Z M123.1232,22.3609 C121.8872,22.3609 120.8862,23.3619 120.8862,24.5989 L125.3602,24.5989 C125.3602,23.3619 124.3592,22.3609 123.1232,22.3609 L123.1232,22.3609 Z M116.4102,24.5989 C116.4102,25.8349 117.4132,26.8359 118.6472,26.8359 C119.8832,26.8359 120.8862,25.8349 120.8862,24.5989 L116.4102,24.5989 Z M118.6492,22.3719 C119.8852,22.3719 120.8862,21.3689 120.8862,20.1349 L116.4102,20.1349 C116.4102,21.3689 117.4132,22.3719 118.6492,22.3719 L118.6492,22.3719 Z M123.1232,17.8959 C121.8872,17.8959 120.8862,18.8989 120.8862,20.1339 L125.3602,20.1339 C125.3602,18.8989 124.3592,17.8959 123.1232,17.8959 L123.1232,17.8959 Z M114.1722,13.4209 C112.9362,13.4209 111.9352,14.4239 111.9352,15.6579 L116.4092,15.6579 C116.4092,14.4239 115.4082,13.4209 114.1722,13.4209 L114.1722,13.4209 Z M107.4592,15.6589 C107.4592,16.8949 108.4602,17.8959 109.6962,17.8959 C110.9322,17.8959 111.9352,16.8949 111.9352,15.6589 L107.4592,15.6589 Z M109.6972,13.4319 C110.9332,13.4319 111.9342,12.4289 111.9342,11.1949 L107.4602,11.1949 C107.4602,12.4289 108.4612,13.4319 109.6972,13.4319 L109.6972,13.4319 Z M114.1722,8.9569 C112.9362,8.9569 111.9352,9.9579 111.9352,11.1939 L116.4092,11.1939 C116.4092,9.9579 115.4082,8.9569 114.1722,8.9569 L114.1722,8.9569 Z M105.2222,4.4649 C103.9852,4.4649 102.9842,5.4659 102.9842,6.7019 L107.4592,6.7019 C107.4592,5.4659 106.4582,4.4649 105.2222,4.4649 L105.2222,4.4649 Z M98.5082,6.7029 C98.5082,7.9389 99.5112,8.9399 100.7452,8.9399 C101.9822,8.9399 102.9842,7.9389 102.9842,6.7029 L98.5082,6.7029 Z M100.7472,4.4749 C101.9832,4.4749 102.9842,3.4729 102.9842,2.2379 L98.5082,2.2379 C98.5082,3.4729 99.5112,4.4749 100.7472,4.4749 L100.7472,4.4749 Z M105.2222,-0.0001 C103.9852,-0.0001 102.9842,1.0029 102.9842,2.2369 L107.4592,2.2369 C107.4592,1.0029 106.4582,-0.0001 105.2222,-0.0001 L105.2222,-0.0001 Z M96.2712,4.4649 C95.0352,4.4649 94.0342,5.4659 94.0342,6.7019 L98.5082,6.7019 C98.5082,5.4659 97.5072,4.4649 96.2712,4.4649 L96.2712,4.4649 Z M89.5572,6.7029 C89.5572,7.9389 90.5592,8.9399 91.7962,8.9399 C93.0302,8.9399 94.0332,7.9389 94.0332,6.7029 L89.5572,6.7029 Z M91.7952,4.4749 C93.0322,4.4749 94.0322,3.4729 94.0322,2.2379 L89.5582,2.2379 C89.5582,3.4729 90.5592,4.4749 91.7952,4.4749 L91.7952,4.4749 Z M96.2712,-0.0001 C95.0352,-0.0001 94.0342,1.0029 94.0342,2.2369 L98.5082,2.2369 C98.5082,1.0029 97.5072,-0.0001 96.2712,-0.0001 L96.2712,-0.0001 Z M87.3202,4.4649 C86.0842,4.4649 85.0832,5.4659 85.0832,6.7019 L89.5572,6.7019 C89.5572,5.4659 88.5562,4.4649 87.3202,4.4649 L87.3202,4.4649 Z M80.6062,6.7029 C80.6062,7.9389 81.6092,8.9399 82.8452,8.9399 C84.0792,8.9399 85.0822,7.9389 85.0822,6.7029 L80.6062,6.7029 Z M82.8442,4.4749 C84.0812,4.4749 85.0822,3.4729 85.0822,2.2379 L80.6072,2.2379 C80.6072,3.4729 81.6082,4.4749 82.8442,4.4749 L82.8442,4.4749 Z M87.3202,-0.0001 C86.0842,-0.0001 85.0832,1.0029 85.0832,2.2369 L89.5572,2.2369 C89.5572,1.0029 88.5562,-0.0001 87.3202,-0.0001 L87.3202,-0.0001 Z M78.3692,4.4649 C77.1332,4.4649 76.1322,5.4659 76.1322,6.7019 L80.6072,6.7019 C80.6072,5.4659 79.6062,4.4649 78.3692,4.4649 L78.3692,4.4649 Z M71.6552,6.7029 C71.6552,7.9389 72.6582,8.9399 73.8942,8.9399 C75.1292,8.9399 76.1312,7.9389 76.1312,6.7029 L71.6552,6.7029 Z M73.8942,4.4749 C75.1302,4.4749 76.1312,3.4729 76.1312,2.2379 L71.6572,2.2379 C71.6572,3.4729 72.6582,4.4749 73.8942,4.4749 L73.8942,4.4749 Z M78.3692,-0.0001 C77.1332,-0.0001 76.1322,1.0029 76.1322,2.2369 L80.6072,2.2369 C80.6072,1.0029 79.6062,-0.0001 78.3692,-0.0001 L78.3692,-0.0001 Z M69.4192,4.4649 C68.1822,4.4649 67.1812,5.4659 67.1812,6.7019 L71.6562,6.7019 C71.6562,5.4659 70.6552,4.4649 69.4192,4.4649 L69.4192,4.4649 Z M62.7052,6.7029 C62.7052,7.9389 63.7072,8.9399 64.9442,8.9399 C66.1782,8.9399 67.1812,7.9389 67.1812,6.7029 L62.7052,6.7029 Z M64.9432,4.4749 C66.1792,4.4749 67.1802,3.4729 67.1802,2.2379 L62.7062,2.2379 C62.7062,3.4729 63.7072,4.4749 64.9432,4.4749 L64.9432,4.4749 Z M69.4192,-0.0001 C68.1822,-0.0001 67.1812,1.0029 67.1812,2.2369 L71.6562,2.2369 C71.6562,1.0029 70.6552,-0.0001 69.4192,-0.0001 L69.4192,-0.0001 Z M60.4682,4.4649 C59.2322,4.4649 58.2312,5.4659 58.2312,6.7019 L62.7052,6.7019 C62.7052,5.4659 61.7042,4.4649 60.4682,4.4649 L60.4682,4.4649 Z M53.7552,6.7029 C53.7552,7.9389 54.7582,8.9399 55.9922,8.9399 C57.2282,8.9399 58.2292,7.9389 58.2292,6.7029 L53.7552,6.7029 Z M55.9932,4.4749 C57.2292,4.4749 58.2302,3.4729 58.2302,2.2379 L53.7542,2.2379 C53.7542,3.4729 54.7572,4.4749 55.9932,4.4749 L55.9932,4.4749 Z M60.4682,-0.0001 C59.2322,-0.0001 58.2312,1.0029 58.2312,2.2369 L62.7052,2.2369 C62.7052,1.0029 61.7042,-0.0001 60.4682,-0.0001 L60.4682,-0.0001 Z M51.5172,4.4649 C50.2812,4.4649 49.2802,5.4659 49.2802,6.7019 L53.7542,6.7019 C53.7542,5.4659 52.7532,4.4649 51.5172,4.4649 L51.5172,4.4649 Z M44.8042,6.7029 C44.8042,7.9389 45.8052,8.9399 47.0412,8.9399 C48.2772,8.9399 49.2782,7.9389 49.2782,6.7029 L44.8042,6.7029 Z M47.0422,4.4749 C48.2782,4.4749 49.2792,3.4729 49.2792,2.2379 L44.8042,2.2379 C44.8042,3.4729 45.8052,4.4749 47.0422,4.4749 L47.0422,4.4749 Z M51.5172,-0.0001 C50.2812,-0.0001 49.2802,1.0029 49.2802,2.2369 L53.7542,2.2369 C53.7542,1.0029 52.7532,-0.0001 51.5172,-0.0001 L51.5172,-0.0001 Z M42.5662,4.4649 C41.3302,4.4649 40.3292,5.4659 40.3292,6.7019 L44.8042,6.7019 C44.8042,5.4659 43.8032,4.4649 42.5662,4.4649 L42.5662,4.4649 Z M35.8532,6.7029 C35.8532,7.9389 36.8542,8.9399 38.0902,8.9399 C39.3272,8.9399 40.3272,7.9389 40.3272,6.7029 L35.8532,6.7029 Z M38.0912,4.4749 C39.3272,4.4749 40.3282,3.4729 40.3282,2.2379 L35.8542,2.2379 C35.8542,3.4729 36.8552,4.4749 38.0912,4.4749 L38.0912,4.4749 Z M42.5662,-0.0001 C41.3302,-0.0001 40.3292,1.0029 40.3292,2.2369 L44.8042,2.2369 C44.8042,1.0029 43.8032,-0.0001 42.5662,-0.0001 L42.5662,-0.0001 Z M33.6142,13.4159 C32.3782,13.4159 31.3772,14.4169 31.3772,15.6529 L35.8522,15.6529 C35.8522,14.4169 34.8512,13.4159 33.6142,13.4159 L33.6142,13.4159 Z M26.9012,15.6529 C26.9012,16.8899 27.9042,17.8909 29.1382,17.8909 C30.3752,17.8909 31.3772,16.8899 31.3772,15.6529 L26.9012,15.6529 Z M29.1402,13.4259 C30.3762,13.4259 31.3772,12.4229 31.3772,11.1889 L26.9012,11.1889 C26.9012,12.4229 27.9042,13.4259 29.1402,13.4259 L29.1402,13.4259 Z M33.6142,8.9509 C32.3782,8.9509 31.3772,9.9539 31.3772,11.1879 L35.8522,11.1879 C35.8522,9.9539 34.8512,8.9509 33.6142,8.9509 L33.6142,8.9509 Z M24.6642,22.3669 C23.4282,22.3669 22.4272,23.3669 22.4272,24.6039 L26.9022,24.6039 C26.9022,23.3669 25.9012,22.3669 24.6642,22.3669 L24.6642,22.3669 Z M17.9512,24.6039 C17.9512,25.8399 18.9532,26.8409 20.1892,26.8409 C21.4262,26.8409 22.4272,25.8399 22.4272,24.6039 L17.9522,24.6039 L17.9512,24.6039 Z M20.1892,22.3769 C21.4262,22.3769 22.4262,21.3739 22.4262,20.1399 L17.9522,20.1399 C17.9522,21.3739 18.9532,22.3769 20.1892,22.3769 L20.1892,22.3769 Z M24.6642,17.9009 C23.4282,17.9009 22.4272,18.9039 22.4272,20.1389 L26.9022,20.1389 C26.9022,18.9039 25.9012,17.9009 24.6642,17.9009 L24.6642,17.9009 Z M24.6642,31.3169 C23.4282,31.3169 22.4272,32.3179 22.4272,33.5539 L26.9022,33.5539 C26.9022,32.3179 25.9012,31.3169 24.6642,31.3169 L24.6642,31.3169 Z M17.9522,33.5549 C17.9522,34.7909 18.9532,35.7919 20.1892,35.7919 C21.4252,35.7919 22.4262,34.7909 22.4262,33.5549 L17.9522,33.5549 Z M20.1892,31.3279 C21.4262,31.3279 22.4262,30.3249 22.4262,29.0899 L17.9522,29.0899 C17.9522,30.3249 18.9532,31.3279 20.1892,31.3279 L20.1892,31.3279 Z M24.6642,26.8519 C23.4282,26.8519 22.4272,27.8549 22.4272,29.0889 L26.9022,29.0889 C26.9022,27.8549 25.9012,26.8519 24.6642,26.8519 L24.6642,26.8519 Z M118.6482,98.4559 C119.8842,98.4559 120.8852,97.4529 120.8852,96.2189 L116.4112,96.2189 C116.4112,97.4529 117.4122,98.4559 118.6482,98.4559 L118.6482,98.4559 Z M109.6972,98.4559 C110.9332,98.4559 111.9342,97.4529 111.9342,96.2189 L107.4602,96.2189 C107.4602,97.4529 108.4612,98.4559 109.6972,98.4559 L109.6972,98.4559 Z M114.1722,93.9809 C112.9362,93.9809 111.9352,94.9819 111.9352,96.2179 L116.4092,96.2179 C116.4092,94.9819 115.4082,93.9809 114.1722,93.9809 L114.1722,93.9809 Z M123.1232,93.9809 C121.8872,93.9809 120.8862,94.9819 120.8862,96.2179 L125.3602,96.2179 C125.3602,94.9819 124.3592,93.9809 123.1232,93.9809 L123.1232,93.9809 Z M114.1722,89.5159 C112.9362,89.5159 111.9352,90.5179 111.9352,91.7529 L116.4092,91.7529 C116.4092,90.5179 115.4082,89.5159 114.1722,89.5159 L114.1722,89.5159 Z M107.4582,91.7529 C107.4582,92.9899 108.4612,93.9919 109.6972,93.9919 C110.9332,93.9919 111.9342,92.9899 111.9342,91.7529 L107.4582,91.7529 Z M123.1232,89.5159 C121.8872,89.5159 120.8862,90.5179 120.8862,91.7529 L125.3602,91.7529 C125.3602,90.5179 124.3592,89.5159 123.1232,89.5159 L123.1232,89.5159 Z M116.4102,91.7529 C116.4102,92.9899 117.4132,93.9919 118.6472,93.9919 C119.8832,93.9919 120.8862,92.9899 120.8862,91.7529 L116.4102,91.7529 Z M114.1722,85.0189 C112.9362,85.0189 111.9352,86.0219 111.9352,87.2559 L116.4092,87.2559 C116.4092,86.0219 115.4082,85.0189 114.1722,85.0189 L114.1722,85.0189 Z M107.4582,87.2569 C107.4582,88.4929 108.4612,89.4939 109.6972,89.4939 C110.9332,89.4939 111.9342,88.4929 111.9342,87.2569 L107.4582,87.2569 Z M123.1232,85.0189 C121.8872,85.0189 120.8862,86.0219 120.8862,87.2559 L125.3602,87.2559 C125.3602,86.0219 124.3592,85.0189 123.1232,85.0189 L123.1232,85.0189 Z M116.4102,87.2569 C116.4102,88.4929 117.4112,89.4939 118.6472,89.4939 C119.8832,89.4939 120.8862,88.4929 120.8862,87.2569 L116.4102,87.2569 Z M118.6462,85.0299 C119.8832,85.0299 120.8842,84.0269 120.8842,82.7929 L116.4092,82.7929 C116.4092,84.0269 117.4102,85.0299 118.6462,85.0299 L118.6462,85.0299 Z M109.6972,85.0299 C110.9332,85.0299 111.9342,84.0269 111.9342,82.7929 L107.4602,82.7929 C107.4602,84.0269 108.4612,85.0299 109.6972,85.0299 L109.6972,85.0299 Z M114.1722,80.5549 C112.9362,80.5549 111.9352,81.5559 111.9352,82.7919 L116.4092,82.7919 C116.4092,81.5559 115.4082,80.5549 114.1722,80.5549 L114.1722,80.5549 Z M123.1232,80.5549 C121.8872,80.5549 120.8862,81.5559 120.8862,82.7919 L125.3602,82.7919 C125.3602,81.5559 124.3592,80.5549 123.1232,80.5549 L123.1232,80.5549 Z M127.5982,53.6989 C128.8352,53.6989 129.8362,52.6969 129.8362,51.4619 L125.3612,51.4619 C125.3612,52.6969 126.3622,53.6989 127.5982,53.6989 L127.5982,53.6989 Z M132.0742,49.2239 C130.8372,49.2239 129.8372,50.2249 129.8372,51.4609 L134.3132,51.4609 C134.3132,50.2249 133.3102,49.2239 132.0742,49.2239 L132.0742,49.2239 Z M123.1232,44.7599 C121.8872,44.7599 120.8862,45.7609 120.8862,46.9969 L125.3602,46.9969 C125.3602,45.7609 124.3592,44.7599 123.1232,44.7599 L123.1232,44.7599 Z M116.4102,46.9969 C116.4102,48.2329 117.4132,49.2359 118.6472,49.2359 C119.8852,49.2359 120.8862,48.2329 120.8862,46.9969 L116.4102,46.9969 Z M132.0742,44.7599 C130.8372,44.7599 129.8372,45.7609 129.8372,46.9969 L134.3132,46.9969 C134.3132,45.7609 133.3102,44.7599 132.0742,44.7599 L132.0742,44.7599 Z M125.3612,46.9969 C125.3612,48.2329 126.3632,49.2359 127.5982,49.2359 C128.8362,49.2359 129.8372,48.2329 129.8372,46.9969 L125.3612,46.9969 Z M123.1232,40.2619 C121.8872,40.2619 120.8862,41.2649 120.8862,42.4989 L125.3602,42.4989 C125.3602,41.2649 124.3592,40.2619 123.1232,40.2619 L123.1232,40.2619 Z M116.4102,42.4999 C116.4102,43.7359 117.4132,44.7369 118.6472,44.7369 C119.8832,44.7369 120.8862,43.7359 120.8862,42.4999 L116.4102,42.4999 Z M132.0742,40.2619 C130.8372,40.2619 129.8372,41.2649 129.8372,42.4989 L134.3132,42.4989 C134.3132,41.2649 133.3102,40.2619 132.0742,40.2619 L132.0742,40.2619 Z M125.3612,42.4999 C125.3612,43.7359 126.3632,44.7369 127.5982,44.7369 C128.8362,44.7369 129.8372,43.7359 129.8372,42.4999 L125.3612,42.4999 Z M127.5982,40.2729 C128.8352,40.2729 129.8362,39.2699 129.8362,38.0359 L125.3612,38.0359 C125.3612,39.2699 126.3622,40.2729 127.5982,40.2729 L127.5982,40.2729 Z M118.6492,40.2729 C119.8852,40.2729 120.8862,39.2699 120.8862,38.0359 L116.4102,38.0359 C116.4102,39.2699 117.4132,40.2729 118.6492,40.2729 L118.6492,40.2729 Z M123.1232,35.7979 C121.8872,35.7979 120.8862,36.7989 120.8862,38.0349 L125.3602,38.0349 C125.3602,36.7989 124.3592,35.7979 123.1232,35.7979 L123.1232,35.7979 Z M132.0742,35.7979 C130.8372,35.7979 129.8372,36.7989 129.8372,38.0349 L134.3132,38.0349 C134.3132,36.7989 133.3102,35.7979 132.0742,35.7979 L132.0742,35.7979 Z M100.7462,53.6989 C101.9822,53.6989 102.9832,52.6969 102.9832,51.4619 L98.5092,51.4619 C98.5092,52.6969 99.5102,53.6989 100.7462,53.6989 L100.7462,53.6989 Z M105.2222,49.2239 C103.9852,49.2239 102.9842,50.2249 102.9842,51.4609 L107.4592,51.4609 C107.4592,50.2249 106.4582,49.2239 105.2222,49.2239 L105.2222,49.2239 Z M105.2222,44.7599 C103.9852,44.7599 102.9842,45.7609 102.9842,46.9969 L107.4592,46.9969 C107.4592,45.7609 106.4582,44.7599 105.2222,44.7599 L105.2222,44.7599 Z M98.5082,46.9969 C98.5082,48.2329 99.5112,49.2359 100.7452,49.2359 C101.9822,49.2359 102.9842,48.2329 102.9842,46.9969 L98.5082,46.9969 Z M114.1722,44.7599 C112.9362,44.7599 111.9352,45.7609 111.9352,46.9969 L116.4092,46.9969 C116.4092,45.7609 115.4082,44.7599 114.1722,44.7599 L114.1722,44.7599 Z M107.4592,46.9969 C107.4592,48.2329 108.4622,49.2359 109.6962,49.2359 C110.9342,49.2359 111.9352,48.2329 111.9352,46.9969 L107.4592,46.9969 Z M105.2222,40.2619 C103.9852,40.2619 102.9842,41.2649 102.9842,42.4989 L107.4592,42.4989 C107.4592,41.2649 106.4582,40.2619 105.2222,40.2619 L105.2222,40.2619 Z M98.5082,42.4999 C98.5082,43.7359 99.5092,44.7369 100.7452,44.7369 C101.9822,44.7369 102.9842,43.7359 102.9842,42.4999 L98.5082,42.4999 Z M114.1722,40.2619 C112.9362,40.2619 111.9352,41.2649 111.9352,42.4989 L116.4092,42.4989 C116.4092,41.2649 115.4082,40.2619 114.1722,40.2619 L114.1722,40.2619 Z M107.4592,42.4999 C107.4592,43.7359 108.4622,44.7369 109.6962,44.7369 C110.9322,44.7369 111.9352,43.7359 111.9352,42.4999 L107.4592,42.4999 Z M109.6972,40.2729 C110.9332,40.2729 111.9342,39.2699 111.9342,38.0359 L107.4602,38.0359 C107.4602,39.2699 108.4612,40.2729 109.6972,40.2729 L109.6972,40.2729 Z M100.7462,40.2729 C101.9822,40.2729 102.9832,39.2699 102.9832,38.0359 L98.5092,38.0359 C98.5092,39.2699 99.5102,40.2729 100.7462,40.2729 L100.7462,40.2729 Z M105.2222,35.7979 C103.9852,35.7979 102.9842,36.7989 102.9842,38.0349 L107.4592,38.0349 C107.4592,36.7989 106.4582,35.7979 105.2222,35.7979 L105.2222,35.7979 Z M114.1722,35.7979 C112.9362,35.7979 111.9352,36.7989 111.9352,38.0349 L116.4092,38.0349 C116.4092,36.7989 115.4082,35.7979 114.1722,35.7979 L114.1722,35.7979 Z M91.7952,53.6989 C93.0322,53.6989 94.0322,52.6969 94.0322,51.4619 L89.5582,51.4619 C89.5582,52.6969 90.5592,53.6989 91.7952,53.6989 L91.7952,53.6989 Z M82.8442,53.6989 C84.0812,53.6989 85.0822,52.6969 85.0822,51.4619 L80.6072,51.4619 C80.6072,52.6969 81.6082,53.6989 82.8442,53.6989 L82.8442,53.6989 Z M87.3202,49.2239 C86.0842,49.2239 85.0832,50.2249 85.0832,51.4609 L89.5572,51.4609 C89.5572,50.2249 88.5562,49.2239 87.3202,49.2239 L87.3202,49.2239 Z M96.2712,49.2239 C95.0352,49.2239 94.0342,50.2249 94.0342,51.4609 L98.5082,51.4609 C98.5082,50.2249 97.5072,49.2239 96.2712,49.2239 L96.2712,49.2239 Z M87.3202,44.7599 C86.0842,44.7599 85.0832,45.7609 85.0832,46.9969 L89.5572,46.9969 C89.5572,45.7609 88.5562,44.7599 87.3202,44.7599 L87.3202,44.7599 Z M80.6072,46.9969 C80.6072,48.2329 81.6102,49.2359 82.8442,49.2359 C84.0802,49.2359 85.0832,48.2329 85.0832,46.9969 L80.6072,46.9969 Z M96.2712,44.7599 C95.0352,44.7599 94.0342,45.7609 94.0342,46.9969 L98.5082,46.9969 C98.5082,45.7609 97.5072,44.7599 96.2712,44.7599 L96.2712,44.7599 Z M89.5582,46.9969 C89.5582,48.2329 90.5602,49.2359 91.7952,49.2359 C93.0332,49.2359 94.0342,48.2329 94.0342,46.9969 L89.5582,46.9969 Z M87.3202,40.2619 C86.0842,40.2619 85.0832,41.2649 85.0832,42.4989 L89.5572,42.4989 C89.5572,41.2649 88.5562,40.2619 87.3202,40.2619 L87.3202,40.2619 Z M80.6072,42.4999 C80.6072,43.7359 81.6082,44.7369 82.8442,44.7369 C84.0802,44.7369 85.0832,43.7359 85.0832,42.4999 L80.6072,42.4999 Z M96.2712,40.2619 C95.0352,40.2619 94.0342,41.2649 94.0342,42.4989 L98.5082,42.4989 C98.5082,41.2649 97.5072,40.2619 96.2712,40.2619 L96.2712,40.2619 Z M89.5582,42.4999 C89.5582,43.7359 90.5602,44.7369 91.7952,44.7369 C93.0312,44.7369 94.0342,43.7359 94.0342,42.4999 L89.5582,42.4999 Z M91.7952,40.2729 C93.0322,40.2729 94.0322,39.2699 94.0322,38.0359 L89.5582,38.0359 C89.5582,39.2699 90.5592,40.2729 91.7952,40.2729 L91.7952,40.2729 Z M82.8442,40.2729 C84.0812,40.2729 85.0822,39.2699 85.0822,38.0359 L80.6072,38.0359 C80.6072,39.2699 81.6082,40.2729 82.8442,40.2729 L82.8442,40.2729 Z M87.3202,35.7979 C86.0842,35.7979 85.0832,36.7989 85.0832,38.0349 L89.5572,38.0349 C89.5572,36.7989 88.5562,35.7979 87.3202,35.7979 L87.3202,35.7979 Z M96.2712,35.7979 C95.0352,35.7979 94.0342,36.7989 94.0342,38.0349 L98.5082,38.0349 C98.5082,36.7989 97.5072,35.7979 96.2712,35.7979 L96.2712,35.7979 Z M73.8942,53.6989 C75.1302,53.6989 76.1312,52.6969 76.1312,51.4619 L71.6572,51.4619 C71.6572,52.6969 72.6582,53.6989 73.8942,53.6989 L73.8942,53.6989 Z M64.9432,53.6989 C66.1792,53.6989 67.1802,52.6969 67.1802,51.4619 L62.7062,51.4619 C62.7062,52.6969 63.7072,53.6989 64.9432,53.6989 L64.9432,53.6989 Z M69.4192,49.2239 C68.1822,49.2239 67.1812,50.2249 67.1812,51.4609 L71.6562,51.4609 C71.6562,50.2249 70.6552,49.2239 69.4192,49.2239 L69.4192,49.2239 Z M78.3692,49.2239 C77.1332,49.2239 76.1322,50.2249 76.1322,51.4609 L80.6072,51.4609 C80.6072,50.2249 79.6062,49.2239 78.3692,49.2239 L78.3692,49.2239 Z M69.4192,44.7599 C68.1822,44.7599 67.1812,45.7609 67.1812,46.9969 L71.6562,46.9969 C71.6562,45.7609 70.6552,44.7599 69.4192,44.7599 L69.4192,44.7599 Z M62.7062,46.9969 C62.7062,48.2329 63.7082,49.2359 64.9432,49.2359 C66.1792,49.2359 67.1802,48.2329 67.1802,46.9969 L62.7062,46.9969 Z M78.3692,44.7599 C77.1332,44.7599 76.1322,45.7609 76.1322,46.9969 L80.6072,46.9969 C80.6072,45.7609 79.6062,44.7599 78.3692,44.7599 L78.3692,44.7599 Z M71.6562,46.9969 C71.6562,48.2329 72.6592,49.2359 73.8932,49.2359 C75.1312,49.2359 76.1322,48.2329 76.1322,46.9969 L71.6562,46.9969 Z M69.4192,40.2619 C68.1822,40.2619 67.1812,41.2649 67.1812,42.4989 L71.6562,42.4989 C71.6562,41.2649 70.6552,40.2619 69.4192,40.2619 L69.4192,40.2619 Z M62.7062,42.4999 C62.7062,43.7359 63.7062,44.7369 64.9432,44.7369 C66.1792,44.7369 67.1802,43.7359 67.1802,42.4999 L62.7062,42.4999 Z M78.3692,40.2619 C77.1332,40.2619 76.1322,41.2649 76.1322,42.4989 L80.6072,42.4989 C80.6072,41.2649 79.6062,40.2619 78.3692,40.2619 L78.3692,40.2619 Z M71.6562,42.4999 C71.6562,43.7359 72.6592,44.7369 73.8932,44.7369 C75.1302,44.7369 76.1322,43.7359 76.1322,42.4999 L71.6562,42.4999 Z M73.8942,40.2729 C75.1302,40.2729 76.1312,39.2699 76.1312,38.0359 L71.6572,38.0359 C71.6572,39.2699 72.6582,40.2729 73.8942,40.2729 L73.8942,40.2729 Z M64.9432,40.2729 C66.1792,40.2729 67.1802,39.2699 67.1802,38.0359 L62.7062,38.0359 C62.7062,39.2699 63.7072,40.2729 64.9432,40.2729 L64.9432,40.2729 Z M69.4192,35.7979 C68.1822,35.7979 67.1812,36.7989 67.1812,38.0349 L71.6562,38.0349 C71.6562,36.7989 70.6552,35.7979 69.4192,35.7979 L69.4192,35.7979 Z M78.3692,35.7979 C77.1332,35.7979 76.1322,36.7989 76.1322,38.0349 L80.6072,38.0349 C80.6072,36.7989 79.6062,35.7979 78.3692,35.7979 L78.3692,35.7979 Z M55.9922,53.6989 C57.2292,53.6989 58.2292,52.6969 58.2292,51.4619 L53.7552,51.4619 C53.7552,52.6969 54.7562,53.6989 55.9922,53.6989 L55.9922,53.6989 Z M47.0422,53.6989 C48.2782,53.6989 49.2792,52.6969 49.2792,51.4619 L44.8042,51.4619 C44.8042,52.6969 45.8052,53.6989 47.0422,53.6989 L47.0422,53.6989 Z M51.5172,49.2239 C50.2812,49.2239 49.2802,50.2249 49.2802,51.4609 L53.7542,51.4609 C53.7542,50.2249 52.7532,49.2239 51.5172,49.2239 L51.5172,49.2239 Z M60.4682,49.2239 C59.2322,49.2239 58.2312,50.2249 58.2312,51.4609 L62.7052,51.4609 C62.7052,50.2249 61.7042,49.2239 60.4682,49.2239 L60.4682,49.2239 Z M51.5172,44.7599 C50.2812,44.7599 49.2802,45.7609 49.2802,46.9969 L53.7542,46.9969 C53.7542,45.7609 52.7532,44.7599 51.5172,44.7599 L51.5172,44.7599 Z M44.8032,46.9969 C44.8032,48.2329 45.8062,49.2359 47.0422,49.2359 C48.2762,49.2359 49.2792,48.2329 49.2792,46.9969 L44.8032,46.9969 Z M60.4682,44.7599 C59.2322,44.7599 58.2312,45.7609 58.2312,46.9969 L62.7052,46.9969 C62.7052,45.7609 61.7042,44.7599 60.4682,44.7599 L60.4682,44.7599 Z M53.7552,46.9969 C53.7552,48.2329 54.7582,49.2359 55.9922,49.2359 C57.2282,49.2359 58.2292,48.2329 58.2292,46.9969 L53.7552,46.9969 Z M51.5172,40.2619 C50.2812,40.2619 49.2802,41.2649 49.2802,42.4989 L53.7542,42.4989 C53.7542,41.2649 52.7532,40.2619 51.5172,40.2619 L51.5172,40.2619 Z M44.8032,42.4999 C44.8032,43.7359 45.8062,44.7369 47.0422,44.7369 C48.2762,44.7369 49.2792,43.7359 49.2792,42.4999 L44.8032,42.4999 Z M60.4682,40.2619 C59.2322,40.2619 58.2312,41.2649 58.2312,42.4989 L62.7052,42.4989 C62.7052,41.2649 61.7042,40.2619 60.4682,40.2619 L60.4682,40.2619 Z M53.7552,42.4999 C53.7552,43.7359 54.7562,44.7369 55.9922,44.7369 C57.2282,44.7369 58.2292,43.7359 58.2292,42.4999 L53.7552,42.4999 Z M55.9912,40.2729 C57.2282,40.2729 58.2282,39.2699 58.2282,38.0359 L53.7542,38.0359 C53.7542,39.2699 54.7552,40.2729 55.9912,40.2729 L55.9912,40.2729 Z M47.0422,40.2729 C48.2782,40.2729 49.2792,39.2699 49.2792,38.0359 L44.8042,38.0359 C44.8042,39.2699 45.8052,40.2729 47.0422,40.2729 L47.0422,40.2729 Z M51.5172,35.7979 C50.2812,35.7979 49.2802,36.7989 49.2802,38.0349 L53.7542,38.0349 C53.7542,36.7989 52.7532,35.7979 51.5172,35.7979 L51.5172,35.7979 Z M60.4682,35.7979 C59.2322,35.7979 58.2312,36.7989 58.2312,38.0349 L62.7052,38.0349 C62.7052,36.7989 61.7042,35.7979 60.4682,35.7979 L60.4682,35.7979 Z M38.0912,53.6989 C39.3272,53.6989 40.3282,52.6969 40.3282,51.4619 L35.8542,51.4619 C35.8542,52.6969 36.8552,53.6989 38.0912,53.6989 L38.0912,53.6989 Z M42.5662,49.2239 C41.3302,49.2239 40.3292,50.2249 40.3292,51.4609 L44.8042,51.4609 C44.8042,50.2249 43.8032,49.2239 42.5662,49.2239 L42.5662,49.2239 Z M33.6152,44.7599 C32.3792,44.7599 31.3782,45.7609 31.3782,46.9969 L35.8522,46.9969 C35.8522,45.7609 34.8512,44.7599 33.6152,44.7599 L33.6152,44.7599 Z M26.9012,46.9969 C26.9012,48.2329 27.9042,49.2359 29.1402,49.2359 C30.3762,49.2359 31.3772,48.2329 31.3772,46.9969 L26.9032,46.9969 L26.9012,46.9969 Z M42.5662,44.7599 C41.3302,44.7599 40.3292,45.7609 40.3292,46.9969 L44.8042,46.9969 C44.8042,45.7609 43.8032,44.7599 42.5662,44.7599 L42.5662,44.7599 Z M35.8532,46.9969 C35.8532,48.2329 36.8562,49.2359 38.0902,49.2359 C39.3272,49.2359 40.3272,48.2329 40.3272,46.9969 L35.8532,46.9969 Z M33.6152,40.2619 C32.3792,40.2619 31.3782,41.2649 31.3782,42.4989 L35.8522,42.4989 C35.8522,41.2649 34.8512,40.2619 33.6152,40.2619 L33.6152,40.2619 Z M26.9012,42.4999 C26.9012,43.7359 27.9042,44.7369 29.1402,44.7369 C30.3762,44.7369 31.3772,43.7359 31.3772,42.4999 L26.9032,42.4999 L26.9012,42.4999 Z M42.5662,40.2619 C41.3302,40.2619 40.3292,41.2649 40.3292,42.4989 L44.8042,42.4989 C44.8042,41.2649 43.8032,40.2619 42.5662,40.2619 L42.5662,40.2619 Z M35.8532,42.4999 C35.8532,43.7359 36.8542,44.7369 38.0902,44.7369 C39.3272,44.7369 40.3272,43.7359 40.3272,42.4999 L35.8532,42.4999 Z M38.0902,40.2729 C39.3262,40.2729 40.3272,39.2699 40.3272,38.0359 L35.8532,38.0359 C35.8532,39.2699 36.8542,40.2729 38.0902,40.2729 L38.0902,40.2729 Z M29.1402,40.2729 C30.3762,40.2729 31.3772,39.2699 31.3772,38.0359 L26.9032,38.0359 C26.9032,39.2699 27.9042,40.2729 29.1402,40.2729 L29.1402,40.2729 Z M33.6152,35.7979 C32.3792,35.7979 31.3782,36.7989 31.3782,38.0349 L35.8522,38.0349 C35.8522,36.7989 34.8512,35.7979 33.6152,35.7979 L33.6152,35.7979 Z M42.5662,35.7979 C41.3302,35.7979 40.3292,36.7989 40.3292,38.0349 L44.8042,38.0349 C44.8042,36.7989 43.8032,35.7979 42.5662,35.7979 L42.5662,35.7979 Z M38.0912,71.6009 C39.3272,71.6009 40.3282,70.5979 40.3282,69.3639 L35.8542,69.3639 C35.8542,70.5979 36.8552,71.6009 38.0912,71.6009 L38.0912,71.6009 Z M29.1402,71.6009 C30.3762,71.6009 31.3772,70.5979 31.3772,69.3639 L26.9032,69.3639 C26.9032,70.5979 27.9042,71.6009 29.1402,71.6009 L29.1402,71.6009 Z M33.6152,67.1249 C32.3792,67.1249 31.3782,68.1259 31.3782,69.3629 L35.8522,69.3629 C35.8522,68.1259 34.8512,67.1249 33.6152,67.1249 L33.6152,67.1249 Z M42.5662,67.1249 C41.3302,67.1249 40.3292,68.1259 40.3292,69.3629 L44.8042,69.3629 C44.8042,68.1259 43.8032,67.1249 42.5662,67.1249 L42.5662,67.1249 Z M42.5662,62.6619 C41.3302,62.6619 40.3292,63.6619 40.3292,64.8989 L44.8042,64.8989 C44.8042,63.6619 43.8032,62.6619 42.5662,62.6619 L42.5662,62.6619 Z M35.8532,64.8979 C35.8532,66.1339 36.8562,67.1369 38.0902,67.1369 C39.3272,67.1369 40.3272,66.1339 40.3272,64.8979 L35.8532,64.8979 Z M42.5662,58.1629 C41.3302,58.1629 40.3292,59.1659 40.3292,60.3999 L44.8042,60.3999 C44.8042,59.1659 43.8032,58.1629 42.5662,58.1629 L42.5662,58.1629 Z M35.8532,60.4009 C35.8532,61.6369 36.8542,62.6379 38.0902,62.6379 C39.3272,62.6379 40.3272,61.6369 40.3272,60.4009 L35.8532,60.4009 Z M38.0902,58.1749 C39.3262,58.1749 40.3272,57.1719 40.3272,55.9379 L35.8532,55.9379 C35.8532,57.1719 36.8542,58.1749 38.0902,58.1749 L38.0902,58.1749 Z M42.5662,53.6989 C41.3302,53.6989 40.3292,54.6999 40.3292,55.9369 L44.8042,55.9369 C44.8042,54.6999 43.8032,53.6989 42.5662,53.6989 L42.5662,53.6989 Z M11.2392,53.6989 C12.4752,53.6989 13.4762,52.6969 13.4762,51.4619 L9.0022,51.4619 C9.0022,52.6969 10.0022,53.6989 11.2392,53.6989 L11.2392,53.6989 Z M15.7142,49.2239 C14.4782,49.2239 13.4772,50.2249 13.4772,51.4609 L17.9512,51.4609 C17.9512,50.2249 16.9502,49.2239 15.7142,49.2239 L15.7142,49.2239 Z M15.7142,44.7599 C14.4782,44.7599 13.4772,45.7609 13.4772,46.9969 L17.9512,46.9969 C17.9512,45.7609 16.9502,44.7599 15.7142,44.7599 L15.7142,44.7599 Z M9.0002,46.9969 C9.0002,48.2329 10.0032,49.2359 11.2392,49.2359 C12.4752,49.2359 13.4762,48.2329 13.4762,46.9969 L9.0022,46.9969 L9.0002,46.9969 Z M24.6642,44.7599 C23.4282,44.7599 22.4272,45.7609 22.4272,46.9969 L26.9022,46.9969 C26.9022,45.7609 25.9012,44.7599 24.6642,44.7599 L24.6642,44.7599 Z M17.9522,46.9969 C17.9522,48.2329 18.9552,49.2359 20.1892,49.2359 C21.4252,49.2359 22.4262,48.2329 22.4262,46.9969 L17.9522,46.9969 Z M15.7142,40.2619 C14.4782,40.2619 13.4772,41.2649 13.4772,42.4989 L17.9512,42.4989 C17.9512,41.2649 16.9502,40.2619 15.7142,40.2619 L15.7142,40.2619 Z M9.0002,42.4999 C9.0002,43.7359 10.0032,44.7369 11.2392,44.7369 C12.4752,44.7369 13.4762,43.7359 13.4762,42.4999 L9.0022,42.4999 L9.0002,42.4999 Z M24.6642,40.2619 C23.4282,40.2619 22.4272,41.2649 22.4272,42.4989 L26.9022,42.4989 C26.9022,41.2649 25.9012,40.2619 24.6642,40.2619 L24.6642,40.2619 Z M17.9522,42.4999 C17.9522,43.7359 18.9532,44.7369 20.1892,44.7369 C21.4252,44.7369 22.4262,43.7359 22.4262,42.4999 L17.9522,42.4999 Z M20.1892,40.2729 C21.4252,40.2729 22.4262,39.2699 22.4262,38.0359 L17.9512,38.0359 C17.9512,39.2699 18.9522,40.2729 20.1892,40.2729 L20.1892,40.2729 Z M11.2392,40.2729 C12.4752,40.2729 13.4762,39.2699 13.4762,38.0359 L9.0022,38.0359 C9.0022,39.2699 10.0022,40.2729 11.2392,40.2729 L11.2392,40.2729 Z M15.7142,35.7979 C14.4782,35.7979 13.4772,36.7989 13.4772,38.0349 L17.9512,38.0349 C17.9512,36.7989 16.9502,35.7979 15.7142,35.7979 L15.7142,35.7979 Z M24.6642,35.7979 C23.4282,35.7979 22.4272,36.7989 22.4272,38.0349 L26.9022,38.0349 C26.9022,36.7989 25.9012,35.7979 24.6642,35.7979 L24.6642,35.7979 Z M127.5982,71.6009 C128.8352,71.6009 129.8362,70.5979 129.8362,69.3639 L125.3612,69.3639 C125.3612,70.5979 126.3622,71.6009 127.5982,71.6009 L127.5982,71.6009 Z M118.6492,71.6009 C119.8852,71.6009 120.8862,70.5979 120.8862,69.3639 L116.4102,69.3639 C116.4102,70.5979 117.4132,71.6009 118.6492,71.6009 L118.6492,71.6009 Z M123.1232,67.1249 C121.8872,67.1249 120.8862,68.1259 120.8862,69.3629 L125.3602,69.3629 C125.3602,68.1259 124.3592,67.1249 123.1232,67.1249 L123.1232,67.1249 Z M132.0742,67.1249 C130.8372,67.1249 129.8372,68.1259 129.8372,69.3629 L134.3132,69.3629 C134.3132,68.1259 133.3102,67.1249 132.0742,67.1249 L132.0742,67.1249 Z M132.0742,62.6619 C130.8372,62.6619 129.8372,63.6619 129.8372,64.8989 L134.3132,64.8989 C134.3132,63.6619 133.3102,62.6619 132.0742,62.6619 L132.0742,62.6619 Z M125.3612,64.8979 C125.3612,66.1339 126.3632,67.1369 127.5982,67.1369 C128.8362,67.1369 129.8372,66.1339 129.8372,64.8979 L125.3612,64.8979 Z M132.0742,58.1629 C130.8372,58.1629 129.8372,59.1659 129.8372,60.3999 L134.3132,60.3999 C134.3132,59.1659 133.3102,58.1629 132.0742,58.1629 L132.0742,58.1629 Z M125.3612,60.4009 C125.3612,61.6369 126.3632,62.6379 127.5982,62.6379 C128.8362,62.6379 129.8372,61.6369 129.8372,60.4009 L125.3612,60.4009 Z M127.5982,58.1749 C128.8352,58.1749 129.8362,57.1719 129.8362,55.9379 L125.3612,55.9379 C125.3612,57.1719 126.3622,58.1749 127.5982,58.1749 L127.5982,58.1749 Z M132.0742,53.6989 C130.8372,53.6989 129.8372,54.6999 129.8372,55.9369 L134.3132,55.9369 C134.3132,54.6999 133.3102,53.6989 132.0742,53.6989 L132.0742,53.6989 Z M109.6972,71.6009 C110.9332,71.6009 111.9342,70.5979 111.9342,69.3639 L107.4602,69.3639 C107.4602,70.5979 108.4612,71.6009 109.6972,71.6009 L109.6972,71.6009 Z M100.7462,71.6009 C101.9822,71.6009 102.9832,70.5979 102.9832,69.3639 L98.5092,69.3639 C98.5092,70.5979 99.5102,71.6009 100.7462,71.6009 L100.7462,71.6009 Z M105.2222,67.1249 C103.9852,67.1249 102.9842,68.1259 102.9842,69.3629 L107.4592,69.3629 C107.4592,68.1259 106.4582,67.1249 105.2222,67.1249 L105.2222,67.1249 Z M114.1722,67.1249 C112.9362,67.1249 111.9352,68.1259 111.9352,69.3629 L116.4092,69.3629 C116.4092,68.1259 115.4082,67.1249 114.1722,67.1249 L114.1722,67.1249 Z M105.2222,62.6619 C103.9852,62.6619 102.9842,63.6619 102.9842,64.8989 L107.4592,64.8989 C107.4592,63.6619 106.4582,62.6619 105.2222,62.6619 L105.2222,62.6619 Z M98.5082,64.8979 C98.5082,66.1339 99.5112,67.1369 100.7452,67.1369 C101.9822,67.1369 102.9842,66.1339 102.9842,64.8979 L98.5082,64.8979 Z M105.2222,58.1629 C103.9852,58.1629 102.9842,59.1659 102.9842,60.3999 L107.4592,60.3999 C107.4592,59.1659 106.4582,58.1629 105.2222,58.1629 L105.2222,58.1629 Z M98.5082,60.4009 C98.5082,61.6369 99.5092,62.6379 100.7452,62.6379 C101.9822,62.6379 102.9842,61.6369 102.9842,60.4009 L98.5082,60.4009 Z M100.7462,58.1749 C101.9822,58.1749 102.9832,57.1719 102.9832,55.9379 L98.5092,55.9379 C98.5092,57.1719 99.5102,58.1749 100.7462,58.1749 L100.7462,58.1749 Z M105.2222,53.6989 C103.9852,53.6989 102.9842,54.6999 102.9842,55.9369 L107.4592,55.9369 C107.4592,54.6999 106.4582,53.6989 105.2222,53.6989 L105.2222,53.6989 Z M91.7952,71.6009 C93.0322,71.6009 94.0322,70.5979 94.0322,69.3639 L89.5582,69.3639 C89.5582,70.5979 90.5592,71.6009 91.7952,71.6009 L91.7952,71.6009 Z M82.8442,71.6009 C84.0812,71.6009 85.0822,70.5979 85.0822,69.3639 L80.6072,69.3639 C80.6072,70.5979 81.6082,71.6009 82.8442,71.6009 L82.8442,71.6009 Z M87.3202,67.1249 C86.0842,67.1249 85.0832,68.1259 85.0832,69.3629 L89.5572,69.3629 C89.5572,68.1259 88.5562,67.1249 87.3202,67.1249 L87.3202,67.1249 Z M96.2712,67.1249 C95.0352,67.1249 94.0342,68.1259 94.0342,69.3629 L98.5082,69.3629 C98.5082,68.1259 97.5072,67.1249 96.2712,67.1249 L96.2712,67.1249 Z M87.3202,62.6619 C86.0842,62.6619 85.0832,63.6619 85.0832,64.8989 L89.5572,64.8989 C89.5572,63.6619 88.5562,62.6619 87.3202,62.6619 L87.3202,62.6619 Z M80.6072,64.8979 C80.6072,66.1339 81.6102,67.1369 82.8442,67.1369 C84.0802,67.1369 85.0832,66.1339 85.0832,64.8979 L80.6072,64.8979 Z M96.2712,62.6619 C95.0352,62.6619 94.0342,63.6619 94.0342,64.8989 L98.5082,64.8989 C98.5082,63.6619 97.5072,62.6619 96.2712,62.6619 L96.2712,62.6619 Z M89.5582,64.8979 C89.5582,66.1339 90.5602,67.1369 91.7952,67.1369 C93.0332,67.1369 94.0342,66.1339 94.0342,64.8979 L89.5582,64.8979 Z M87.3202,58.1629 C86.0842,58.1629 85.0832,59.1659 85.0832,60.3999 L89.5572,60.3999 C89.5572,59.1659 88.5562,58.1629 87.3202,58.1629 L87.3202,58.1629 Z M80.6072,60.4009 C80.6072,61.6369 81.6082,62.6379 82.8442,62.6379 C84.0802,62.6379 85.0832,61.6369 85.0832,60.4009 L80.6072,60.4009 Z M96.2712,58.1629 C95.0352,58.1629 94.0342,59.1659 94.0342,60.3999 L98.5082,60.3999 C98.5082,59.1659 97.5072,58.1629 96.2712,58.1629 L96.2712,58.1629 Z M89.5582,60.4009 C89.5582,61.6369 90.5602,62.6379 91.7952,62.6379 C93.0312,62.6379 94.0342,61.6369 94.0342,60.4009 L89.5582,60.4009 Z M91.7952,58.1749 C93.0322,58.1749 94.0322,57.1719 94.0322,55.9379 L89.5582,55.9379 C89.5582,57.1719 90.5592,58.1749 91.7952,58.1749 L91.7952,58.1749 Z M82.8442,58.1749 C84.0812,58.1749 85.0822,57.1719 85.0822,55.9379 L80.6072,55.9379 C80.6072,57.1719 81.6082,58.1749 82.8442,58.1749 L82.8442,58.1749 Z M87.3202,53.6989 C86.0842,53.6989 85.0832,54.6999 85.0832,55.9369 L89.5572,55.9369 C89.5572,54.6999 88.5562,53.6989 87.3202,53.6989 L87.3202,53.6989 Z M96.2712,53.6989 C95.0352,53.6989 94.0342,54.6999 94.0342,55.9369 L98.5082,55.9369 C98.5082,54.6999 97.5072,53.6989 96.2712,53.6989 L96.2712,53.6989 Z M73.8942,71.6009 C75.1302,71.6009 76.1312,70.5979 76.1312,69.3639 L71.6572,69.3639 C71.6572,70.5979 72.6582,71.6009 73.8942,71.6009 L73.8942,71.6009 Z M64.9432,71.6009 C66.1792,71.6009 67.1802,70.5979 67.1802,69.3639 L62.7062,69.3639 C62.7062,70.5979 63.7072,71.6009 64.9432,71.6009 L64.9432,71.6009 Z M69.4192,67.1249 C68.1822,67.1249 67.1812,68.1259 67.1812,69.3629 L71.6562,69.3629 C71.6562,68.1259 70.6552,67.1249 69.4192,67.1249 L69.4192,67.1249 Z M78.3692,67.1249 C77.1332,67.1249 76.1322,68.1259 76.1322,69.3629 L80.6072,69.3629 C80.6072,68.1259 79.6062,67.1249 78.3692,67.1249 L78.3692,67.1249 Z M69.4192,62.6619 C68.1822,62.6619 67.1812,63.6619 67.1812,64.8989 L71.6562,64.8989 C71.6562,63.6619 70.6552,62.6619 69.4192,62.6619 L69.4192,62.6619 Z M62.7062,64.8979 C62.7062,66.1339 63.7082,67.1369 64.9432,67.1369 C66.1792,67.1369 67.1802,66.1339 67.1802,64.8979 L62.7062,64.8979 Z M78.3692,62.6619 C77.1332,62.6619 76.1322,63.6619 76.1322,64.8989 L80.6072,64.8989 C80.6072,63.6619 79.6062,62.6619 78.3692,62.6619 L78.3692,62.6619 Z M71.6562,64.8979 C71.6562,66.1339 72.6592,67.1369 73.8932,67.1369 C75.1312,67.1369 76.1322,66.1339 76.1322,64.8979 L71.6562,64.8979 Z M69.4192,58.1629 C68.1822,58.1629 67.1812,59.1659 67.1812,60.3999 L71.6562,60.3999 C71.6562,59.1659 70.6552,58.1629 69.4192,58.1629 L69.4192,58.1629 Z M62.7062,60.4009 C62.7062,61.6369 63.7062,62.6379 64.9432,62.6379 C66.1792,62.6379 67.1802,61.6369 67.1802,60.4009 L62.7062,60.4009 Z M78.3692,58.1629 C77.1332,58.1629 76.1322,59.1659 76.1322,60.3999 L80.6072,60.3999 C80.6072,59.1659 79.6062,58.1629 78.3692,58.1629 L78.3692,58.1629 Z M71.6562,60.4009 C71.6562,61.6369 72.6592,62.6379 73.8932,62.6379 C75.1302,62.6379 76.1322,61.6369 76.1322,60.4009 L71.6562,60.4009 Z M73.8942,58.1749 C75.1302,58.1749 76.1312,57.1719 76.1312,55.9379 L71.6572,55.9379 C71.6572,57.1719 72.6582,58.1749 73.8942,58.1749 L73.8942,58.1749 Z M64.9432,58.1749 C66.1792,58.1749 67.1802,57.1719 67.1802,55.9379 L62.7062,55.9379 C62.7062,57.1719 63.7072,58.1749 64.9432,58.1749 L64.9432,58.1749 Z M69.4192,53.6989 C68.1822,53.6989 67.1812,54.6999 67.1812,55.9369 L71.6562,55.9369 C71.6562,54.6999 70.6552,53.6989 69.4192,53.6989 L69.4192,53.6989 Z M78.3692,53.6989 C77.1332,53.6989 76.1322,54.6999 76.1322,55.9369 L80.6072,55.9369 C80.6072,54.6999 79.6062,53.6989 78.3692,53.6989 L78.3692,53.6989 Z M55.9922,71.6009 C57.2292,71.6009 58.2292,70.5979 58.2292,69.3639 L53.7552,69.3639 C53.7552,70.5979 54.7562,71.6009 55.9922,71.6009 L55.9922,71.6009 Z M47.0422,71.6009 C48.2782,71.6009 49.2792,70.5979 49.2792,69.3639 L44.8042,69.3639 C44.8042,70.5979 45.8052,71.6009 47.0422,71.6009 L47.0422,71.6009 Z M51.5172,67.1249 C50.2812,67.1249 49.2802,68.1259 49.2802,69.3629 L53.7542,69.3629 C53.7542,68.1259 52.7532,67.1249 51.5172,67.1249 L51.5172,67.1249 Z M60.4682,67.1249 C59.2322,67.1249 58.2312,68.1259 58.2312,69.3629 L62.7052,69.3629 C62.7052,68.1259 61.7042,67.1249 60.4682,67.1249 L60.4682,67.1249 Z M51.5172,62.6619 C50.2812,62.6619 49.2802,63.6619 49.2802,64.8989 L53.7542,64.8989 C53.7542,63.6619 52.7532,62.6619 51.5172,62.6619 L51.5172,62.6619 Z M44.8032,64.8979 C44.8032,66.1339 45.8062,67.1369 47.0422,67.1369 C48.2762,67.1369 49.2792,66.1339 49.2792,64.8979 L44.8032,64.8979 Z M60.4682,62.6619 C59.2322,62.6619 58.2312,63.6619 58.2312,64.8989 L62.7052,64.8989 C62.7052,63.6619 61.7042,62.6619 60.4682,62.6619 L60.4682,62.6619 Z M53.7552,64.8979 C53.7552,66.1339 54.7582,67.1369 55.9922,67.1369 C57.2282,67.1369 58.2292,66.1339 58.2292,64.8979 L53.7552,64.8979 Z M51.5172,58.1629 C50.2812,58.1629 49.2802,59.1659 49.2802,60.3999 L53.7542,60.3999 C53.7542,59.1659 52.7532,58.1629 51.5172,58.1629 L51.5172,58.1629 Z M44.8032,60.4009 C44.8032,61.6369 45.8062,62.6379 47.0422,62.6379 C48.2762,62.6379 49.2792,61.6369 49.2792,60.4009 L44.8032,60.4009 Z M60.4682,58.1629 C59.2322,58.1629 58.2312,59.1659 58.2312,60.3999 L62.7052,60.3999 C62.7052,59.1659 61.7042,58.1629 60.4682,58.1629 L60.4682,58.1629 Z M53.7552,60.4009 C53.7552,61.6369 54.7562,62.6379 55.9922,62.6379 C57.2282,62.6379 58.2292,61.6369 58.2292,60.4009 L53.7552,60.4009 Z M55.9912,58.1749 C57.2282,58.1749 58.2282,57.1719 58.2282,55.9379 L53.7542,55.9379 C53.7542,57.1719 54.7552,58.1749 55.9912,58.1749 L55.9912,58.1749 Z M47.0422,58.1749 C48.2782,58.1749 49.2792,57.1719 49.2792,55.9379 L44.8042,55.9379 C44.8042,57.1719 45.8052,58.1749 47.0422,58.1749 L47.0422,58.1749 Z M51.5172,53.6989 C50.2812,53.6989 49.2802,54.6999 49.2802,55.9369 L53.7542,55.9369 C53.7542,54.6999 52.7532,53.6989 51.5172,53.6989 L51.5172,53.6989 Z M60.4682,53.6989 C59.2322,53.6989 58.2312,54.6999 58.2312,55.9369 L62.7052,55.9369 C62.7052,54.6999 61.7042,53.6989 60.4682,53.6989 L60.4682,53.6989 Z M20.1892,71.6009 C21.4262,71.6009 22.4262,70.5979 22.4262,69.3639 L17.9522,69.3639 C17.9522,70.5979 18.9532,71.6009 20.1892,71.6009 L20.1892,71.6009 Z M11.2392,71.6009 C12.4752,71.6009 13.4762,70.5979 13.4762,69.3639 L9.0022,69.3639 C9.0022,70.5979 10.0022,71.6009 11.2392,71.6009 L11.2392,71.6009 Z M15.7142,67.1249 C14.4782,67.1249 13.4772,68.1259 13.4772,69.3629 L17.9512,69.3629 C17.9512,68.1259 16.9502,67.1249 15.7142,67.1249 L15.7142,67.1249 Z M24.6642,67.1249 C23.4282,67.1249 22.4272,68.1259 22.4272,69.3629 L26.9022,69.3629 C26.9022,68.1259 25.9012,67.1249 24.6642,67.1249 L24.6642,67.1249 Z M15.7142,62.6619 C14.4782,62.6619 13.4772,63.6619 13.4772,64.8989 L17.9512,64.8989 C17.9512,63.6619 16.9502,62.6619 15.7142,62.6619 L15.7142,62.6619 Z M9.0002,64.8979 C9.0002,66.1339 10.0032,67.1369 11.2392,67.1369 C12.4752,67.1369 13.4762,66.1339 13.4762,64.8979 L9.0022,64.8979 L9.0002,64.8979 Z M15.7142,58.1629 C14.4782,58.1629 13.4772,59.1659 13.4772,60.3999 L17.9512,60.3999 C17.9512,59.1659 16.9502,58.1629 15.7142,58.1629 L15.7142,58.1629 Z M9.0002,60.4009 C9.0002,61.6369 10.0032,62.6379 11.2392,62.6379 C12.4752,62.6379 13.4762,61.6369 13.4762,60.4009 L9.0022,60.4009 L9.0002,60.4009 Z M11.2392,58.1749 C12.4752,58.1749 13.4762,57.1719 13.4762,55.9379 L9.0022,55.9379 C9.0022,57.1719 10.0022,58.1749 11.2392,58.1749 L11.2392,58.1749 Z M15.7142,53.6989 C14.4782,53.6989 13.4772,54.6999 13.4772,55.9369 L17.9512,55.9369 C17.9512,54.6999 16.9502,53.6989 15.7142,53.6989 L15.7142,53.6989 Z M123.1232,76.0649 C121.8872,76.0649 120.8862,77.0679 120.8862,78.3019 L125.3602,78.3019 C125.3602,77.0679 124.3592,76.0649 123.1232,76.0649 L123.1232,76.0649 Z M116.4102,78.3029 C116.4102,79.5389 117.4132,80.5399 118.6472,80.5399 C119.8832,80.5399 120.8862,79.5389 120.8862,78.3029 L116.4102,78.3029 Z M132.0742,76.0649 C130.8372,76.0649 129.8372,77.0679 129.8372,78.3019 L134.3132,78.3019 C134.3132,77.0679 133.3102,76.0649 132.0742,76.0649 L132.0742,76.0649 Z M125.3612,78.3029 C125.3612,79.5389 126.3632,80.5399 127.5982,80.5399 C128.8362,80.5399 129.8372,79.5389 129.8372,78.3029 L125.3612,78.3029 Z M127.5982,76.0759 C128.8352,76.0759 129.8362,75.0739 129.8362,73.8389 L125.3612,73.8389 C125.3612,75.0739 126.3622,76.0759 127.5982,76.0759 L127.5982,76.0759 Z M118.6492,76.0759 C119.8852,76.0759 120.8862,75.0739 120.8862,73.8389 L116.4102,73.8389 C116.4102,75.0739 117.4132,76.0759 118.6492,76.0759 L118.6492,76.0759 Z M123.1232,71.6009 C121.8872,71.6009 120.8862,72.6019 120.8862,73.8379 L125.3602,73.8379 C125.3602,72.6019 124.3592,71.6009 123.1232,71.6009 L123.1232,71.6009 Z M132.0742,71.6009 C130.8372,71.6009 129.8372,72.6019 129.8372,73.8379 L134.3132,73.8379 C134.3132,72.6019 133.3102,71.6009 132.0742,71.6009 L132.0742,71.6009 Z M105.2222,76.0649 C103.9852,76.0649 102.9842,77.0679 102.9842,78.3019 L107.4592,78.3019 C107.4592,77.0679 106.4582,76.0649 105.2222,76.0649 L105.2222,76.0649 Z M98.5082,78.3029 C98.5082,79.5389 99.5092,80.5399 100.7452,80.5399 C101.9822,80.5399 102.9842,79.5389 102.9842,78.3029 L98.5082,78.3029 Z M114.1722,76.0649 C112.9362,76.0649 111.9352,77.0679 111.9352,78.3019 L116.4092,78.3019 C116.4092,77.0679 115.4082,76.0649 114.1722,76.0649 L114.1722,76.0649 Z M107.4592,78.3029 C107.4592,79.5389 108.4622,80.5399 109.6962,80.5399 C110.9322,80.5399 111.9352,79.5389 111.9352,78.3029 L107.4592,78.3029 Z M109.6972,76.0759 C110.9332,76.0759 111.9342,75.0739 111.9342,73.8389 L107.4602,73.8389 C107.4602,75.0739 108.4612,76.0759 109.6972,76.0759 L109.6972,76.0759 Z M100.7462,76.0759 C101.9822,76.0759 102.9832,75.0739 102.9832,73.8389 L98.5092,73.8389 C98.5092,75.0739 99.5102,76.0759 100.7462,76.0759 L100.7462,76.0759 Z M105.2222,71.6009 C103.9852,71.6009 102.9842,72.6019 102.9842,73.8379 L107.4592,73.8379 C107.4592,72.6019 106.4582,71.6009 105.2222,71.6009 L105.2222,71.6009 Z M114.1722,71.6009 C112.9362,71.6009 111.9352,72.6019 111.9352,73.8379 L116.4092,73.8379 C116.4092,72.6019 115.4082,71.6009 114.1722,71.6009 L114.1722,71.6009 Z M87.3202,76.0649 C86.0842,76.0649 85.0832,77.0679 85.0832,78.3019 L89.5572,78.3019 C89.5572,77.0679 88.5562,76.0649 87.3202,76.0649 L87.3202,76.0649 Z M80.6072,78.3029 C80.6072,79.5389 81.6082,80.5399 82.8442,80.5399 C84.0802,80.5399 85.0832,79.5389 85.0832,78.3029 L80.6072,78.3029 Z M96.2712,76.0649 C95.0352,76.0649 94.0342,77.0679 94.0342,78.3019 L98.5082,78.3019 C98.5082,77.0679 97.5072,76.0649 96.2712,76.0649 L96.2712,76.0649 Z M89.5582,78.3029 C89.5582,79.5389 90.5602,80.5399 91.7952,80.5399 C93.0312,80.5399 94.0342,79.5389 94.0342,78.3029 L89.5582,78.3029 Z M91.7952,76.0759 C93.0322,76.0759 94.0322,75.0739 94.0322,73.8389 L89.5582,73.8389 C89.5582,75.0739 90.5592,76.0759 91.7952,76.0759 L91.7952,76.0759 Z M82.8442,76.0759 C84.0812,76.0759 85.0822,75.0739 85.0822,73.8389 L80.6072,73.8389 C80.6072,75.0739 81.6082,76.0759 82.8442,76.0759 L82.8442,76.0759 Z M87.3202,71.6009 C86.0842,71.6009 85.0832,72.6019 85.0832,73.8379 L89.5572,73.8379 C89.5572,72.6019 88.5562,71.6009 87.3202,71.6009 L87.3202,71.6009 Z M96.2712,71.6009 C95.0352,71.6009 94.0342,72.6019 94.0342,73.8379 L98.5082,73.8379 C98.5082,72.6019 97.5072,71.6009 96.2712,71.6009 L96.2712,71.6009 Z M69.4192,76.0649 C68.1822,76.0649 67.1812,77.0679 67.1812,78.3019 L71.6562,78.3019 C71.6562,77.0679 70.6552,76.0649 69.4192,76.0649 L69.4192,76.0649 Z M62.7062,78.3029 C62.7062,79.5389 63.7062,80.5399 64.9432,80.5399 C66.1792,80.5399 67.1802,79.5389 67.1802,78.3029 L62.7062,78.3029 Z M78.3692,76.0649 C77.1332,76.0649 76.1322,77.0679 76.1322,78.3019 L80.6072,78.3019 C80.6072,77.0679 79.6062,76.0649 78.3692,76.0649 L78.3692,76.0649 Z M71.6562,78.3029 C71.6562,79.5389 72.6592,80.5399 73.8932,80.5399 C75.1302,80.5399 76.1322,79.5389 76.1322,78.3029 L71.6562,78.3029 Z M73.8942,76.0759 C75.1302,76.0759 76.1312,75.0739 76.1312,73.8389 L71.6572,73.8389 C71.6572,75.0739 72.6582,76.0759 73.8942,76.0759 L73.8942,76.0759 Z M64.9432,76.0759 C66.1792,76.0759 67.1802,75.0739 67.1802,73.8389 L62.7062,73.8389 C62.7062,75.0739 63.7072,76.0759 64.9432,76.0759 L64.9432,76.0759 Z M69.4192,71.6009 C68.1822,71.6009 67.1812,72.6019 67.1812,73.8379 L71.6562,73.8379 C71.6562,72.6019 70.6552,71.6009 69.4192,71.6009 L69.4192,71.6009 Z M78.3692,71.6009 C77.1332,71.6009 76.1322,72.6019 76.1322,73.8379 L80.6072,73.8379 C80.6072,72.6019 79.6062,71.6009 78.3692,71.6009 L78.3692,71.6009 Z M51.5172,76.0649 C50.2812,76.0649 49.2802,77.0679 49.2802,78.3019 L53.7542,78.3019 C53.7542,77.0679 52.7532,76.0649 51.5172,76.0649 L51.5172,76.0649 Z M44.8032,78.3029 C44.8032,79.5389 45.8062,80.5399 47.0422,80.5399 C48.2762,80.5399 49.2792,79.5389 49.2792,78.3029 L44.8032,78.3029 Z M60.4682,76.0649 C59.2322,76.0649 58.2312,77.0679 58.2312,78.3019 L62.7052,78.3019 C62.7052,77.0679 61.7042,76.0649 60.4682,76.0649 L60.4682,76.0649 Z M53.7552,78.3029 C53.7552,79.5389 54.7562,80.5399 55.9922,80.5399 C57.2282,80.5399 58.2292,79.5389 58.2292,78.3029 L53.7552,78.3029 Z M55.9912,76.0759 C57.2282,76.0759 58.2282,75.0739 58.2282,73.8389 L53.7542,73.8389 C53.7542,75.0739 54.7552,76.0759 55.9912,76.0759 L55.9912,76.0759 Z M47.0422,76.0759 C48.2782,76.0759 49.2792,75.0739 49.2792,73.8389 L44.8042,73.8389 C44.8042,75.0739 45.8052,76.0759 47.0422,76.0759 L47.0422,76.0759 Z M51.5172,71.6009 C50.2812,71.6009 49.2802,72.6019 49.2802,73.8379 L53.7542,73.8379 C53.7542,72.6019 52.7532,71.6009 51.5172,71.6009 L51.5172,71.6009 Z M60.4682,71.6009 C59.2322,71.6009 58.2312,72.6019 58.2312,73.8379 L62.7052,73.8379 C62.7052,72.6019 61.7042,71.6009 60.4682,71.6009 L60.4682,71.6009 Z M33.6152,76.0649 C32.3792,76.0649 31.3782,77.0679 31.3782,78.3019 L35.8522,78.3019 C35.8522,77.0679 34.8512,76.0649 33.6152,76.0649 L33.6152,76.0649 Z M26.9012,78.3029 C26.9012,79.5389 27.9042,80.5399 29.1402,80.5399 C30.3762,80.5399 31.3772,79.5389 31.3772,78.3029 L26.9032,78.3029 L26.9012,78.3029 Z M42.5662,76.0649 C41.3302,76.0649 40.3292,77.0679 40.3292,78.3019 L44.8042,78.3019 C44.8042,77.0679 43.8032,76.0649 42.5662,76.0649 L42.5662,76.0649 Z M35.8532,78.3029 C35.8532,79.5389 36.8542,80.5399 38.0902,80.5399 C39.3272,80.5399 40.3272,79.5389 40.3272,78.3029 L35.8532,78.3029 Z M38.0902,76.0759 C39.3262,76.0759 40.3272,75.0739 40.3272,73.8389 L35.8532,73.8389 C35.8532,75.0739 36.8542,76.0759 38.0902,76.0759 L38.0902,76.0759 Z M29.1402,76.0759 C30.3762,76.0759 31.3772,75.0739 31.3772,73.8389 L26.9032,73.8389 C26.9032,75.0739 27.9042,76.0759 29.1402,76.0759 L29.1402,76.0759 Z M33.6152,71.6009 C32.3792,71.6009 31.3782,72.6019 31.3782,73.8379 L35.8522,73.8379 C35.8522,72.6019 34.8512,71.6009 33.6152,71.6009 L33.6152,71.6009 Z M42.5662,71.6009 C41.3302,71.6009 40.3292,72.6019 40.3292,73.8379 L44.8042,73.8379 C44.8042,72.6019 43.8032,71.6009 42.5662,71.6009 L42.5662,71.6009 Z M15.7142,76.0649 C14.4782,76.0649 13.4772,77.0679 13.4772,78.3019 L17.9512,78.3019 C17.9512,77.0679 16.9502,76.0649 15.7142,76.0649 L15.7142,76.0649 Z M9.0002,78.3029 C9.0002,79.5389 10.0032,80.5399 11.2392,80.5399 C12.4752,80.5399 13.4762,79.5389 13.4762,78.3029 L9.0022,78.3029 L9.0002,78.3029 Z M24.6642,76.0649 C23.4282,76.0649 22.4272,77.0679 22.4272,78.3019 L26.9022,78.3019 C26.9022,77.0679 25.9012,76.0649 24.6642,76.0649 L24.6642,76.0649 Z M17.9522,78.3029 C17.9522,79.5389 18.9532,80.5399 20.1892,80.5399 C21.4252,80.5399 22.4262,79.5389 22.4262,78.3029 L17.9522,78.3029 Z M20.1892,76.0759 C21.4252,76.0759 22.4262,75.0739 22.4262,73.8389 L17.9512,73.8389 C17.9512,75.0739 18.9522,76.0759 20.1892,76.0759 L20.1892,76.0759 Z M11.2392,76.0759 C12.4752,76.0759 13.4762,75.0739 13.4762,73.8389 L9.0022,73.8389 C9.0022,75.0739 10.0022,76.0759 11.2392,76.0759 L11.2392,76.0759 Z M15.7142,71.6009 C14.4782,71.6009 13.4772,72.6019 13.4772,73.8379 L17.9512,73.8379 C17.9512,72.6019 16.9502,71.6009 15.7142,71.6009 L15.7142,71.6009 Z M24.6642,71.6009 C23.4282,71.6009 22.4272,72.6019 22.4272,73.8379 L26.9022,73.8379 C26.9022,72.6019 25.9012,71.6009 24.6642,71.6009 L24.6642,71.6009 Z M29.1402,98.4559 C30.3762,98.4559 31.3772,97.4529 31.3772,96.2189 L26.9032,96.2189 C26.9032,97.4529 27.9042,98.4559 29.1402,98.4559 L29.1402,98.4559 Z M20.1892,98.4559 C21.4262,98.4559 22.4262,97.4529 22.4262,96.2189 L17.9522,96.2189 C17.9522,97.4529 18.9532,98.4559 20.1892,98.4559 L20.1892,98.4559 Z M24.6642,93.9809 C23.4282,93.9809 22.4272,94.9819 22.4272,96.2179 L26.9022,96.2179 C26.9022,94.9819 25.9012,93.9809 24.6642,93.9809 L24.6642,93.9809 Z M33.6152,93.9809 C32.3792,93.9809 31.3782,94.9819 31.3782,96.2179 L35.8522,96.2179 C35.8522,94.9819 34.8512,93.9809 33.6152,93.9809 L33.6152,93.9809 Z M24.6642,89.5159 C23.4282,89.5159 22.4272,90.5179 22.4272,91.7529 L26.9022,91.7529 C26.9022,90.5179 25.9012,89.5159 24.6642,89.5159 L24.6642,89.5159 Z M17.9512,91.7529 C17.9512,92.9899 18.9532,93.9919 20.1892,93.9919 C21.4262,93.9919 22.4272,92.9899 22.4272,91.7529 L17.9522,91.7529 L17.9512,91.7529 Z M33.6152,89.5159 C32.3792,89.5159 31.3782,90.5179 31.3782,91.7529 L35.8522,91.7529 C35.8522,90.5179 34.8512,89.5159 33.6152,89.5159 L33.6152,89.5159 Z M26.9032,91.7529 C26.9032,92.9899 27.9052,93.9919 29.1402,93.9919 C30.3762,93.9919 31.3772,92.9899 31.3772,91.7529 L26.9032,91.7529 Z M24.6642,85.0189 C23.4282,85.0189 22.4272,86.0219 22.4272,87.2559 L26.9022,87.2559 C26.9022,86.0219 25.9012,85.0189 24.6642,85.0189 L24.6642,85.0189 Z M17.9512,87.2569 C17.9512,88.4929 18.9532,89.4939 20.1892,89.4939 C21.4262,89.4939 22.4272,88.4929 22.4272,87.2569 L17.9522,87.2569 L17.9512,87.2569 Z M33.6152,85.0189 C32.3792,85.0189 31.3782,86.0219 31.3782,87.2559 L35.8522,87.2559 C35.8522,86.0219 34.8512,85.0189 33.6152,85.0189 L33.6152,85.0189 Z M26.9032,87.2569 C26.9032,88.4929 27.9032,89.4939 29.1402,89.4939 C30.3762,89.4939 31.3772,88.4929 31.3772,87.2569 L26.9032,87.2569 Z M29.1392,85.0299 C30.3752,85.0299 31.3762,84.0269 31.3762,82.7929 L26.9022,82.7929 C26.9022,84.0269 27.9032,85.0299 29.1392,85.0299 L29.1392,85.0299 Z M20.1892,85.0299 C21.4262,85.0299 22.4262,84.0269 22.4262,82.7929 L17.9522,82.7929 C17.9522,84.0269 18.9532,85.0299 20.1892,85.0299 L20.1892,85.0299 Z M24.6642,80.5549 C23.4282,80.5549 22.4272,81.5559 22.4272,82.7919 L26.9022,82.7919 C26.9022,81.5559 25.9012,80.5549 24.6642,80.5549 L24.6642,80.5549 Z M33.6152,80.5549 C34.8512,80.5549 35.8522,81.5559 35.8522,82.7919 L31.3782,82.7919 C31.3782,81.5559 32.3792,80.5549 33.6152,80.5549 L33.6152,80.5549 Z"></path>
            </g>
        </g>
    </g>
</svg>