<?xml version="1.0" encoding="UTF-8" standalone="no"?>
<svg width="405px" height="463px" viewBox="0 0 405 463" version="1.1" xmlns="http://www.w3.org/2000/svg" xmlns:xlink="http://www.w3.org/1999/xlink">
    <!-- Generator: Sketch 3.7.2 (28276) - http://www.bohemiancoding.com/sketch -->
    <title>Group 5</title>
    <desc>Created with Sketch.</desc>
    <defs></defs>
    <g id="01-Index" stroke="none" stroke-width="1" fill="none" fill-rule="evenodd">
        <g id="01-Lascom-Home-D-parallax-v.1" transform="translate(-1350.000000, 0.000000)" fill="#FFFFFF">
            <g id="Group-3">
                <g id="Group-5" transform="translate(1350.000000, 0.000000)">
                    <path d="M21.7488,433.7964 C17.7528,433.7964 14.5188,437.0304 14.5188,441.0264 L28.9788,441.0264 C28.9788,437.0304 25.7388,433.7964 21.7488,433.7964" id="Fill-2556"></path>
                    <path d="M7.2906,448.2576 C11.2806,448.2576 14.5206,445.0176 14.5206,441.0276 L0.0546,441.0276 C0.0546,445.0176 3.2946,448.2576 7.2906,448.2576" id="Fill-2557"></path>
                    <path d="M0.0558,455.4534 C0.0558,459.4494 3.2958,462.6834 7.2858,462.6834 C11.2818,462.6834 14.5158,459.4494 14.5158,455.4534 L0.0558,455.4534 Z" id="Fill-2558"></path>
                    <path d="M21.7488,448.2228 C17.7528,448.2228 14.5188,451.4568 14.5188,455.4528 L28.9788,455.4528 C28.9788,451.4568 25.7388,448.2228 21.7488,448.2228" id="Fill-2559"></path>
                    <path d="M50.6706,404.8746 C46.6746,404.8746 43.4406,408.1086 43.4406,412.1046 L57.9006,412.1046 C57.9006,408.1086 54.6606,404.8746 50.6706,404.8746" id="Fill-2560"></path>
                    <path d="M36.2124,419.3352 C40.2024,419.3352 43.4424,416.0952 43.4424,412.1052 L28.9764,412.1052 C28.9764,416.0952 32.2164,419.3352 36.2124,419.3352" id="Fill-2561"></path>
                    <path d="M28.9788,426.5298 C28.9788,430.5258 32.2188,433.7598 36.2088,433.7598 C40.1988,433.7598 43.4388,430.5258 43.4388,426.5298 L28.9788,426.5298 Z" id="Fill-2562"></path>
                    <path d="M50.6706,419.2992 C46.6746,419.2992 43.4406,422.5392 43.4406,426.5292 L57.9006,426.5292 C57.9006,422.5392 54.6606,419.2992 50.6706,419.2992" id="Fill-2563"></path>
                    <path d="M79.5924,375.9522 C75.5964,375.9522 72.3624,379.1862 72.3624,383.1822 L86.8224,383.1822 C86.8224,379.1862 83.5824,375.9522 79.5924,375.9522" id="Fill-2564"></path>
                    <path d="M65.1312,390.4134 C69.1212,390.4134 72.3612,387.1734 72.3612,383.1834 L57.9012,383.1834 C57.9012,387.1734 61.1412,390.4134 65.1312,390.4134" id="Fill-2565"></path>
                    <path d="M57.9006,397.6074 C57.9006,401.6034 61.1346,404.8374 65.1306,404.8374 C69.1206,404.8374 72.3606,401.6034 72.3606,397.6074 L57.9006,397.6074 Z" id="Fill-2566"></path>
                    <path d="M79.5924,390.3768 C75.5964,390.3768 72.3624,393.6168 72.3624,397.6068 L86.8224,397.6068 C86.8224,393.6168 83.5824,390.3768 79.5924,390.3768" id="Fill-2567"></path>
                    <path d="M108.5142,347.0298 C104.5182,347.0298 101.2842,350.2638 101.2842,354.2598 L115.7442,354.2598 C115.7442,350.2638 112.5102,347.0298 108.5142,347.0298" id="Fill-2568"></path>
                    <path d="M94.053,361.491 C98.049,361.491 101.283,358.251 101.283,354.261 L86.823,354.261 C86.823,358.251 90.063,361.491 94.053,361.491" id="Fill-2569"></path>
                    <path d="M86.823,368.685 C86.823,372.681 90.057,375.915 94.053,375.915 C98.049,375.915 101.283,372.681 101.283,368.685 L86.823,368.685 Z" id="Fill-2570"></path>
                    <path d="M108.5142,361.4544 C104.5182,361.4544 101.2842,364.6944 101.2842,368.6844 L115.7442,368.6844 C115.7442,364.6944 112.5102,361.4544 108.5142,361.4544" id="Fill-2571"></path>
                    <path d="M108.5142,318.1776 C104.5182,318.1776 101.2842,321.4176 101.2842,325.4076 L115.7442,325.4076 C115.7442,321.4176 112.5102,318.1776 108.5142,318.1776" id="Fill-2572"></path>
                    <path d="M94.053,332.6388 C98.049,332.6388 101.283,329.3988 101.283,325.4088 L86.823,325.4088 C86.823,329.3988 90.063,332.6388 94.053,332.6388" id="Fill-2573"></path>
                    <path d="M86.823,339.8358 C86.823,343.8258 90.057,347.0658 94.053,347.0658 C98.049,347.0658 101.283,343.8258 101.283,339.8358 L86.823,339.8358 Z" id="Fill-2574"></path>
                    <path d="M108.5142,332.6052 C104.5182,332.6052 101.2842,335.8392 101.2842,339.8352 L115.7442,339.8352 C115.7442,335.8392 112.5102,332.6052 108.5142,332.6052" id="Fill-2575"></path>
                    <path d="M79.5924,318.1776 C75.5964,318.1776 72.3624,321.4176 72.3624,325.4076 L86.8224,325.4076 C86.8224,321.4176 83.5824,318.1776 79.5924,318.1776" id="Fill-2576"></path>
                    <path d="M65.1312,332.6388 C69.1212,332.6388 72.3612,329.3988 72.3612,325.4088 L57.9012,325.4088 C57.9012,329.3988 61.1412,332.6388 65.1312,332.6388" id="Fill-2577"></path>
                    <path d="M57.9006,339.8358 C57.9006,343.8258 61.1346,347.0658 65.1306,347.0658 C69.1206,347.0658 72.3606,343.8258 72.3606,339.8358 L57.9006,339.8358 Z" id="Fill-2578"></path>
                    <path d="M79.5924,332.6052 C75.5964,332.6052 72.3624,335.8392 72.3624,339.8352 L86.8224,339.8352 C86.8224,335.8392 83.5824,332.6052 79.5924,332.6052" id="Fill-2579"></path>
                    <path d="M79.5924,289.275 C75.5964,289.275 72.3624,292.509 72.3624,296.505 L86.8224,296.505 C86.8224,292.509 83.5824,289.275 79.5924,289.275" id="Fill-2580"></path>
                    <path d="M65.1312,303.7362 C69.1212,303.7362 72.3612,300.4962 72.3612,296.5062 L57.9012,296.5062 C57.9012,300.4962 61.1412,303.7362 65.1312,303.7362" id="Fill-2581"></path>
                    <path d="M57.9006,310.9302 C57.9006,314.9262 61.1346,318.1602 65.1306,318.1602 C69.1206,318.1602 72.3606,314.9262 72.3606,310.9302 L57.9006,310.9302 Z" id="Fill-2582"></path>
                    <path d="M79.5924,303.6996 C75.5964,303.6996 72.3624,306.9396 72.3624,310.9296 L86.8224,310.9296 C86.8224,306.9396 83.5824,303.6996 79.5924,303.6996" id="Fill-2583"></path>
                    <path d="M79.5924,260.3862 C75.5964,260.3862 72.3624,263.6262 72.3624,267.6162 L86.8224,267.6162 C86.8224,263.6262 83.5824,260.3862 79.5924,260.3862" id="Fill-2584"></path>
                    <path d="M65.1312,274.8474 C69.1212,274.8474 72.3612,271.6074 72.3612,267.6174 L57.9012,267.6174 C57.9012,271.6074 61.1412,274.8474 65.1312,274.8474" id="Fill-2585"></path>
                    <path d="M57.9006,282.0444 C57.9006,286.0344 61.1346,289.2744 65.1306,289.2744 C69.1206,289.2744 72.3606,286.0344 72.3606,282.0444 L57.9006,282.0444 Z" id="Fill-2586"></path>
                    <path d="M79.5924,274.8144 C75.5964,274.8144 72.3624,278.0484 72.3624,282.0444 L86.8224,282.0444 C86.8224,278.0484 83.5824,274.8144 79.5924,274.8144" id="Fill-2587"></path>
                    <path d="M79.5924,231.411 C75.5964,231.411 72.3624,234.651 72.3624,238.641 L86.8224,238.641 C86.8224,234.651 83.5824,231.411 79.5924,231.411" id="Fill-2588"></path>
                    <path d="M65.1312,245.8722 C69.1212,245.8722 72.3612,242.6322 72.3612,238.6422 L57.9012,238.6422 C57.9012,242.6322 61.1412,245.8722 65.1312,245.8722" id="Fill-2589"></path>
                    <path d="M57.9006,253.0692 C57.9006,257.0592 61.1346,260.2992 65.1306,260.2992 C69.1206,260.2992 72.3606,257.0592 72.3606,253.0692 L57.9006,253.0692 Z" id="Fill-2590"></path>
                    <path d="M79.5924,245.8386 C75.5964,245.8386 72.3624,249.0726 72.3624,253.0686 L86.8224,253.0686 C86.8224,249.0726 83.5824,245.8386 79.5924,245.8386" id="Fill-2591"></path>
                    <path d="M137.436,231.411 C133.44,231.411 130.206,234.651 130.206,238.641 L144.666,238.641 C144.666,234.651 141.432,231.411 137.436,231.411" id="Fill-2592"></path>
                    <path d="M122.9748,245.8722 C126.9708,245.8722 130.2048,242.6322 130.2048,238.6422 L115.7448,238.6422 C115.7448,242.6322 118.9848,245.8722 122.9748,245.8722" id="Fill-2593"></path>
                    <path d="M115.7418,253.0692 C115.7418,257.0592 118.9818,260.2992 122.9778,260.2992 C126.9678,260.2992 130.2078,257.0592 130.2078,253.0692 L115.7418,253.0692 L115.7418,253.0692 Z" id="Fill-2594"></path>
                    <path d="M137.436,245.8386 C133.44,245.8386 130.206,249.0726 130.206,253.0686 L144.666,253.0686 C144.666,249.0726 141.432,245.8386 137.436,245.8386" id="Fill-2595"></path>
                    <path d="M108.5142,231.411 C104.5182,231.411 101.2842,234.651 101.2842,238.641 L115.7442,238.641 C115.7442,234.651 112.5102,231.411 108.5142,231.411" id="Fill-2596"></path>
                    <path d="M94.053,245.8722 C98.049,245.8722 101.283,242.6322 101.283,238.6422 L86.823,238.6422 C86.823,242.6322 90.063,245.8722 94.053,245.8722" id="Fill-2597"></path>
                    <path d="M86.823,253.0692 C86.823,257.0592 90.057,260.2992 94.053,260.2992 C98.049,260.2992 101.283,257.0592 101.283,253.0692 L86.823,253.0692 Z" id="Fill-2598"></path>
                    <path d="M108.5142,245.8386 C104.5182,245.8386 101.2842,249.0726 101.2842,253.0686 L115.7442,253.0686 C115.7442,249.0726 112.5102,245.8386 108.5142,245.8386" id="Fill-2599"></path>
                    <path d="M195.2814,231.411 C191.2854,231.411 188.0514,234.651 188.0514,238.641 L202.5114,238.641 C202.5114,234.651 199.2714,231.411 195.2814,231.411" id="Fill-2600"></path>
                    <path d="M180.8202,245.8722 C184.8102,245.8722 188.0502,242.6322 188.0502,238.6422 L173.5902,238.6422 C173.5902,242.6322 176.8242,245.8722 180.8202,245.8722" id="Fill-2601"></path>
                    <path d="M173.5896,253.0692 C173.5896,257.0592 176.8236,260.2992 180.8196,260.2992 C184.8096,260.2992 188.0496,257.0592 188.0496,253.0692 L173.5896,253.0692 Z" id="Fill-2602"></path>
                    <path d="M195.2814,245.8386 C191.2854,245.8386 188.0514,249.0726 188.0514,253.0686 L202.5114,253.0686 C202.5114,249.0726 199.2714,245.8386 195.2814,245.8386" id="Fill-2603"></path>
                    <path d="M166.3596,231.411 C162.3636,231.411 159.1296,234.651 159.1296,238.641 L173.5896,238.641 C173.5896,234.651 170.3496,231.411 166.3596,231.411" id="Fill-2604"></path>
                    <path d="M151.9014,245.8722 C155.8914,245.8722 159.1314,242.6322 159.1314,238.6422 L144.6654,238.6422 C144.6654,242.6322 147.9054,245.8722 151.9014,245.8722" id="Fill-2605"></path>
                    <path d="M144.6678,253.0692 C144.6678,257.0592 147.9078,260.2992 151.8978,260.2992 C155.8878,260.2992 159.1278,257.0592 159.1278,253.0692 L144.6678,253.0692 Z" id="Fill-2606"></path>
                    <path d="M166.3596,245.8386 C162.3636,245.8386 159.1296,249.0726 159.1296,253.0686 L173.5896,253.0686 C173.5896,249.0726 170.3496,245.8386 166.3596,245.8386" id="Fill-2607"></path>
                    <path d="M253.122,231.411 C249.132,231.411 245.892,234.651 245.892,238.641 L260.352,238.641 C260.352,234.651 257.118,231.411 253.122,231.411" id="Fill-2608"></path>
                    <path d="M238.6638,245.8722 C242.6598,245.8722 245.8938,242.6322 245.8938,238.6422 L231.4278,238.6422 C231.4278,242.6322 234.6678,245.8722 238.6638,245.8722" id="Fill-2609"></path>
                    <path d="M231.4308,253.0692 C231.4308,257.0592 234.6708,260.2992 238.6608,260.2992 C242.6508,260.2992 245.8908,257.0592 245.8908,253.0692 L231.4308,253.0692 Z" id="Fill-2610"></path>
                    <path d="M253.122,245.8386 C249.132,245.8386 245.892,249.0726 245.892,253.0686 L260.352,253.0686 C260.352,249.0726 257.118,245.8386 253.122,245.8386" id="Fill-2611"></path>
                    <path d="M224.2032,231.411 C220.2072,231.411 216.9732,234.651 216.9732,238.641 L231.4332,238.641 C231.4332,234.651 228.1992,231.411 224.2032,231.411" id="Fill-2612"></path>
                    <path d="M209.742,245.8722 C213.732,245.8722 216.972,242.6322 216.972,238.6422 L202.512,238.6422 C202.512,242.6322 205.752,245.8722 209.742,245.8722" id="Fill-2613"></path>
                    <path d="M202.512,253.0692 C202.512,257.0592 205.746,260.2992 209.742,260.2992 C213.732,260.2992 216.972,257.0592 216.972,253.0692 L202.512,253.0692 Z" id="Fill-2614"></path>
                    <path d="M224.2032,245.8386 C220.2072,245.8386 216.9732,249.0726 216.9732,253.0686 L231.4332,253.0686 C231.4332,249.0726 228.1992,245.8386 224.2032,245.8386" id="Fill-2615"></path>
                    <path d="M195.2814,260.3328 C191.2854,260.3328 188.0514,263.5728 188.0514,267.5628 L202.5114,267.5628 C202.5114,263.5728 199.2714,260.3328 195.2814,260.3328" id="Fill-2616"></path>
                    <path d="M180.8202,274.794 C184.8102,274.794 188.0502,271.554 188.0502,267.564 L173.5902,267.564 C173.5902,271.554 176.8242,274.794 180.8202,274.794" id="Fill-2617"></path>
                    <path d="M173.5896,281.9916 C173.5896,285.9816 176.8236,289.2216 180.8196,289.2216 C184.8096,289.2216 188.0496,285.9816 188.0496,281.9916 L173.5896,281.9916 Z" id="Fill-2618"></path>
                    <path d="M195.2814,274.761 C191.2854,274.761 188.0514,277.995 188.0514,281.991 L202.5114,281.991 C202.5114,277.995 199.2714,274.761 195.2814,274.761" id="Fill-2619"></path>
                    <path d="M166.3596,260.3328 C162.3636,260.3328 159.1296,263.5728 159.1296,267.5628 L173.5896,267.5628 C173.5896,263.5728 170.3496,260.3328 166.3596,260.3328" id="Fill-2620"></path>
                    <path d="M151.9014,274.794 C155.8914,274.794 159.1314,271.554 159.1314,267.564 L144.6654,267.564 C144.6654,271.554 147.9054,274.794 151.9014,274.794" id="Fill-2621"></path>
                    <path d="M144.6678,281.9916 C144.6678,285.9816 147.9078,289.2216 151.8978,289.2216 C155.8878,289.2216 159.1278,285.9816 159.1278,281.9916 L144.6678,281.9916 Z" id="Fill-2622"></path>
                    <path d="M166.3596,274.761 C162.3636,274.761 159.1296,277.995 159.1296,281.991 L173.5896,281.991 C173.5896,277.995 170.3496,274.761 166.3596,274.761" id="Fill-2623"></path>
                    <path d="M253.122,260.3328 C249.132,260.3328 245.892,263.5728 245.892,267.5628 L260.352,267.5628 C260.352,263.5728 257.118,260.3328 253.122,260.3328" id="Fill-2624"></path>
                    <path d="M238.6638,274.794 C242.6598,274.794 245.8938,271.554 245.8938,267.564 L231.4278,267.564 C231.4278,271.554 234.6678,274.794 238.6638,274.794" id="Fill-2625"></path>
                    <path d="M231.4308,281.9916 C231.4308,285.9816 234.6708,289.2216 238.6608,289.2216 C242.6508,289.2216 245.8908,285.9816 245.8908,281.9916 L231.4308,281.9916 Z" id="Fill-2626"></path>
                    <path d="M253.122,274.761 C249.132,274.761 245.892,277.995 245.892,281.991 L260.352,281.991 C260.352,277.995 257.118,274.761 253.122,274.761" id="Fill-2627"></path>
                    <path d="M224.2032,260.3328 C220.2072,260.3328 216.9732,263.5728 216.9732,267.5628 L231.4332,267.5628 C231.4332,263.5728 228.1992,260.3328 224.2032,260.3328" id="Fill-2628"></path>
                    <path d="M209.742,274.794 C213.732,274.794 216.972,271.554 216.972,267.564 L202.512,267.564 C202.512,271.554 205.752,274.794 209.742,274.794" id="Fill-2629"></path>
                    <path d="M202.512,281.9916 C202.512,285.9816 205.746,289.2216 209.742,289.2216 C213.732,289.2216 216.972,285.9816 216.972,281.9916 L202.512,281.9916 Z" id="Fill-2630"></path>
                    <path d="M224.2032,274.761 C220.2072,274.761 216.9732,277.995 216.9732,281.991 L231.4332,281.991 C231.4332,277.995 228.1992,274.761 224.2032,274.761" id="Fill-2631"></path>
                    <path d="M195.2814,289.2384 C191.2854,289.2384 188.0514,292.4784 188.0514,296.4684 L202.5114,296.4684 C202.5114,292.4784 199.2714,289.2384 195.2814,289.2384" id="Fill-2632"></path>
                    <path d="M180.8202,303.6996 C184.8102,303.6996 188.0502,300.4596 188.0502,296.4696 L173.5902,296.4696 C173.5902,300.4596 176.8242,303.6996 180.8202,303.6996" id="Fill-2633"></path>
                    <path d="M173.5896,310.8972 C173.5896,314.8872 176.8236,318.1272 180.8196,318.1272 C184.8096,318.1272 188.0496,314.8872 188.0496,310.8972 L173.5896,310.8972 Z" id="Fill-2634"></path>
                    <path d="M195.2814,303.6666 C191.2854,303.6666 188.0514,306.9006 188.0514,310.8966 L202.5114,310.8966 C202.5114,306.9006 199.2714,303.6666 195.2814,303.6666" id="Fill-2635"></path>
                    <path d="M166.3596,289.2384 C162.3636,289.2384 159.1296,292.4784 159.1296,296.4684 L173.5896,296.4684 C173.5896,292.4784 170.3496,289.2384 166.3596,289.2384" id="Fill-2636"></path>
                    <path d="M151.9014,303.6996 C155.8914,303.6996 159.1314,300.4596 159.1314,296.4696 L144.6654,296.4696 C144.6654,300.4596 147.9054,303.6996 151.9014,303.6996" id="Fill-2637"></path>
                    <path d="M144.6678,310.8972 C144.6678,314.8872 147.9078,318.1272 151.8978,318.1272 C155.8878,318.1272 159.1278,314.8872 159.1278,310.8972 L144.6678,310.8972 Z" id="Fill-2638"></path>
                    <path d="M166.3596,303.6666 C162.3636,303.6666 159.1296,306.9006 159.1296,310.8966 L173.5896,310.8966 C173.5896,306.9006 170.3496,303.6666 166.3596,303.6666" id="Fill-2639"></path>
                    <path d="M253.122,289.2384 C249.132,289.2384 245.892,292.4784 245.892,296.4684 L260.352,296.4684 C260.352,292.4784 257.118,289.2384 253.122,289.2384" id="Fill-2640"></path>
                    <path d="M238.6638,303.6996 C242.6598,303.6996 245.8938,300.4596 245.8938,296.4696 L231.4278,296.4696 C231.4278,300.4596 234.6678,303.6996 238.6638,303.6996" id="Fill-2641"></path>
                    <path d="M231.4308,310.8972 C231.4308,314.8872 234.6708,318.1272 238.6608,318.1272 C242.6508,318.1272 245.8908,314.8872 245.8908,310.8972 L231.4308,310.8972 Z" id="Fill-2642"></path>
                    <path d="M253.122,303.6666 C249.132,303.6666 245.892,306.9006 245.892,310.8966 L260.352,310.8966 C260.352,306.9006 257.118,303.6666 253.122,303.6666" id="Fill-2643"></path>
                    <path d="M224.2032,289.2384 C220.2072,289.2384 216.9732,292.4784 216.9732,296.4684 L231.4332,296.4684 C231.4332,292.4784 228.1992,289.2384 224.2032,289.2384" id="Fill-2644"></path>
                    <path d="M209.742,303.6996 C213.732,303.6996 216.972,300.4596 216.972,296.4696 L202.512,296.4696 C202.512,300.4596 205.752,303.6996 209.742,303.6996" id="Fill-2645"></path>
                    <path d="M202.512,310.8972 C202.512,314.8872 205.746,318.1272 209.742,318.1272 C213.732,318.1272 216.972,314.8872 216.972,310.8972 L202.512,310.8972 Z" id="Fill-2646"></path>
                    <path d="M224.2032,303.6666 C220.2072,303.6666 216.9732,306.9006 216.9732,310.8966 L231.4332,310.8966 C231.4332,306.9006 228.1992,303.6666 224.2032,303.6666" id="Fill-2647"></path>
                    <path d="M310.9704,231.411 C306.9744,231.411 303.7404,234.651 303.7404,238.641 L318.2004,238.641 C318.2004,234.651 314.9604,231.411 310.9704,231.411" id="Fill-2648"></path>
                    <path d="M296.5092,245.8722 C300.4992,245.8722 303.7392,242.6322 303.7392,238.6422 L289.2792,238.6422 C289.2792,242.6322 292.5132,245.8722 296.5092,245.8722" id="Fill-2649"></path>
                    <path d="M289.2744,253.0692 C289.2744,257.0592 292.5144,260.2992 296.5104,260.2992 C300.5004,260.2992 303.7404,257.0592 303.7404,253.0692 L289.2804,253.0692 L289.2744,253.0692 Z" id="Fill-2650"></path>
                    <path d="M310.9704,245.8386 C306.9744,245.8386 303.7404,249.0726 303.7404,253.0686 L318.2004,253.0686 C318.2004,249.0726 314.9604,245.8386 310.9704,245.8386" id="Fill-2651"></path>
                    <path d="M282.0486,231.411 C278.0526,231.411 274.8186,234.651 274.8186,238.641 L289.2786,238.641 C289.2786,234.651 286.0386,231.411 282.0486,231.411" id="Fill-2652"></path>
                    <path d="M267.5874,245.8722 C271.5774,245.8722 274.8174,242.6322 274.8174,238.6422 L260.3574,238.6422 C260.3574,242.6322 263.5914,245.8722 267.5874,245.8722" id="Fill-2653"></path>
                    <path d="M260.3556,253.0692 C260.3556,257.0592 263.5896,260.2992 267.5856,260.2992 C271.5816,260.2992 274.8156,257.0592 274.8156,253.0692 L260.3556,253.0692 Z" id="Fill-2654"></path>
                    <path d="M282.0486,245.8386 C278.0526,245.8386 274.8186,249.0726 274.8186,253.0686 L289.2786,253.0686 C289.2786,249.0726 286.0386,245.8386 282.0486,245.8386" id="Fill-2655"></path>
                    <path d="M339.8952,231.411 C335.8992,231.411 332.6652,234.651 332.6652,238.641 L347.1252,238.641 C347.1252,234.651 343.8912,231.411 339.8952,231.411" id="Fill-2656"></path>
                    <path d="M325.434,245.8722 C329.43,245.8722 332.664,242.6322 332.664,238.6422 L318.204,238.6422 C318.204,242.6322 321.444,245.8722 325.434,245.8722" id="Fill-2657"></path>
                    <path d="M318.2034,253.0692 C318.2034,257.0592 321.4374,260.2992 325.4334,260.2992 C329.4294,260.2992 332.6634,257.0592 332.6634,253.0692 L318.2034,253.0692 Z" id="Fill-2658"></path>
                    <path d="M339.8952,245.8386 C335.8992,245.8386 332.6652,249.0726 332.6652,253.0686 L347.1252,253.0686 C347.1252,249.0726 343.8912,245.8386 339.8952,245.8386" id="Fill-2659"></path>
                    <path d="M79.5924,202.4886 C75.5964,202.4886 72.3624,205.7286 72.3624,209.7186 L86.8224,209.7186 C86.8224,205.7286 83.5824,202.4886 79.5924,202.4886" id="Fill-2660"></path>
                    <path d="M65.1312,216.9498 C69.1212,216.9498 72.3612,213.7098 72.3612,209.7198 L57.9012,209.7198 C57.9012,213.7098 61.1412,216.9498 65.1312,216.9498" id="Fill-2661"></path>
                    <path d="M57.9006,224.1468 C57.9006,228.1368 61.1346,231.3768 65.1306,231.3768 C69.1206,231.3768 72.3606,228.1368 72.3606,224.1468 L57.9006,224.1468 Z" id="Fill-2662"></path>
                    <path d="M79.5924,216.9168 C75.5964,216.9168 72.3624,220.1508 72.3624,224.1468 L86.8224,224.1468 C86.8224,220.1508 83.5824,216.9168 79.5924,216.9168" id="Fill-2663"></path>
                    <path d="M137.436,202.4886 C133.44,202.4886 130.206,205.7286 130.206,209.7186 L144.666,209.7186 C144.666,205.7286 141.432,202.4886 137.436,202.4886" id="Fill-2664"></path>
                    <path d="M122.9748,216.9498 C126.9708,216.9498 130.2048,213.7098 130.2048,209.7198 L115.7448,209.7198 C115.7448,213.7098 118.9848,216.9498 122.9748,216.9498" id="Fill-2665"></path>
                    <path d="M115.7418,224.1468 C115.7418,228.1368 118.9818,231.3768 122.9778,231.3768 C126.9678,231.3768 130.2078,228.1368 130.2078,224.1468 L115.7418,224.1468 L115.7418,224.1468 Z" id="Fill-2666"></path>
                    <path d="M137.436,216.9168 C133.44,216.9168 130.206,220.1508 130.206,224.1468 L144.666,224.1468 C144.666,220.1508 141.432,216.9168 137.436,216.9168" id="Fill-2667"></path>
                    <path d="M108.5142,202.4886 C104.5182,202.4886 101.2842,205.7286 101.2842,209.7186 L115.7442,209.7186 C115.7442,205.7286 112.5102,202.4886 108.5142,202.4886" id="Fill-2668"></path>
                    <path d="M94.053,216.9498 C98.049,216.9498 101.283,213.7098 101.283,209.7198 L86.823,209.7198 C86.823,213.7098 90.063,216.9498 94.053,216.9498" id="Fill-2669"></path>
                    <path d="M86.823,224.1468 C86.823,228.1368 90.057,231.3768 94.053,231.3768 C98.049,231.3768 101.283,228.1368 101.283,224.1468 L86.823,224.1468 Z" id="Fill-2670"></path>
                    <path d="M108.5142,216.9168 C104.5182,216.9168 101.2842,220.1508 101.2842,224.1468 L115.7442,224.1468 C115.7442,220.1508 112.5102,216.9168 108.5142,216.9168" id="Fill-2671"></path>
                    <path d="M195.2814,202.4886 C191.2854,202.4886 188.0514,205.7286 188.0514,209.7186 L202.5114,209.7186 C202.5114,205.7286 199.2714,202.4886 195.2814,202.4886" id="Fill-2672"></path>
                    <path d="M180.8202,216.9498 C184.8102,216.9498 188.0502,213.7098 188.0502,209.7198 L173.5902,209.7198 C173.5902,213.7098 176.8242,216.9498 180.8202,216.9498" id="Fill-2673"></path>
                    <path d="M173.5896,224.1468 C173.5896,228.1368 176.8236,231.3768 180.8196,231.3768 C184.8096,231.3768 188.0496,228.1368 188.0496,224.1468 L173.5896,224.1468 Z" id="Fill-2674"></path>
                    <path d="M195.2814,216.9168 C191.2854,216.9168 188.0514,220.1508 188.0514,224.1468 L202.5114,224.1468 C202.5114,220.1508 199.2714,216.9168 195.2814,216.9168" id="Fill-2675"></path>
                    <path d="M166.3596,202.4886 C162.3636,202.4886 159.1296,205.7286 159.1296,209.7186 L173.5896,209.7186 C173.5896,205.7286 170.3496,202.4886 166.3596,202.4886" id="Fill-2676"></path>
                    <path d="M151.9014,216.9498 C155.8914,216.9498 159.1314,213.7098 159.1314,209.7198 L144.6654,209.7198 C144.6654,213.7098 147.9054,216.9498 151.9014,216.9498" id="Fill-2677"></path>
                    <path d="M144.6678,224.1468 C144.6678,228.1368 147.9078,231.3768 151.8978,231.3768 C155.8878,231.3768 159.1278,228.1368 159.1278,224.1468 L144.6678,224.1468 Z" id="Fill-2678"></path>
                    <path d="M166.3596,216.9168 C162.3636,216.9168 159.1296,220.1508 159.1296,224.1468 L173.5896,224.1468 C173.5896,220.1508 170.3496,216.9168 166.3596,216.9168" id="Fill-2679"></path>
                    <path d="M253.122,202.4886 C249.132,202.4886 245.892,205.7286 245.892,209.7186 L260.352,209.7186 C260.352,205.7286 257.118,202.4886 253.122,202.4886" id="Fill-2680"></path>
                    <path d="M238.6638,216.9498 C242.6598,216.9498 245.8938,213.7098 245.8938,209.7198 L231.4278,209.7198 C231.4278,213.7098 234.6678,216.9498 238.6638,216.9498" id="Fill-2681"></path>
                    <path d="M231.4308,224.1468 C231.4308,228.1368 234.6708,231.3768 238.6608,231.3768 C242.6508,231.3768 245.8908,228.1368 245.8908,224.1468 L231.4308,224.1468 Z" id="Fill-2682"></path>
                    <path d="M253.122,216.9168 C249.132,216.9168 245.892,220.1508 245.892,224.1468 L260.352,224.1468 C260.352,220.1508 257.118,216.9168 253.122,216.9168" id="Fill-2683"></path>
                    <path d="M224.2032,202.4886 C220.2072,202.4886 216.9732,205.7286 216.9732,209.7186 L231.4332,209.7186 C231.4332,205.7286 228.1992,202.4886 224.2032,202.4886" id="Fill-2684"></path>
                    <path d="M209.742,216.9498 C213.732,216.9498 216.972,213.7098 216.972,209.7198 L202.512,209.7198 C202.512,213.7098 205.752,216.9498 209.742,216.9498" id="Fill-2685"></path>
                    <path d="M202.512,224.1468 C202.512,228.1368 205.746,231.3768 209.742,231.3768 C213.732,231.3768 216.972,228.1368 216.972,224.1468 L202.512,224.1468 Z" id="Fill-2686"></path>
                    <path d="M224.2032,216.9168 C220.2072,216.9168 216.9732,220.1508 216.9732,224.1468 L231.4332,224.1468 C231.4332,220.1508 228.1992,216.9168 224.2032,216.9168" id="Fill-2687"></path>
                    <path d="M310.9704,202.4886 C306.9744,202.4886 303.7404,205.7286 303.7404,209.7186 L318.2004,209.7186 C318.2004,205.7286 314.9604,202.4886 310.9704,202.4886" id="Fill-2688"></path>
                    <path d="M296.5092,216.9498 C300.4992,216.9498 303.7392,213.7098 303.7392,209.7198 L289.2792,209.7198 C289.2792,213.7098 292.5132,216.9498 296.5092,216.9498" id="Fill-2689"></path>
                    <path d="M289.2744,224.1468 C289.2744,228.1368 292.5144,231.3768 296.5104,231.3768 C300.5004,231.3768 303.7404,228.1368 303.7404,224.1468 L289.2804,224.1468 L289.2744,224.1468 Z" id="Fill-2690"></path>
                    <path d="M310.9704,216.9168 C306.9744,216.9168 303.7404,220.1508 303.7404,224.1468 L318.2004,224.1468 C318.2004,220.1508 314.9604,216.9168 310.9704,216.9168" id="Fill-2691"></path>
                    <path d="M282.0486,202.4886 C278.0526,202.4886 274.8186,205.7286 274.8186,209.7186 L289.2786,209.7186 C289.2786,205.7286 286.0386,202.4886 282.0486,202.4886" id="Fill-2692"></path>
                    <path d="M267.5874,216.9498 C271.5774,216.9498 274.8174,213.7098 274.8174,209.7198 L260.3574,209.7198 C260.3574,213.7098 263.5914,216.9498 267.5874,216.9498" id="Fill-2693"></path>
                    <path d="M260.3556,224.1468 C260.3556,228.1368 263.5896,231.3768 267.5856,231.3768 C271.5816,231.3768 274.8156,228.1368 274.8156,224.1468 L260.3556,224.1468 Z" id="Fill-2694"></path>
                    <path d="M282.0486,216.9168 C278.0526,216.9168 274.8186,220.1508 274.8186,224.1468 L289.2786,224.1468 C289.2786,220.1508 286.0386,216.9168 282.0486,216.9168" id="Fill-2695"></path>
                    <path d="M339.8952,202.4886 C335.8992,202.4886 332.6652,205.7286 332.6652,209.7186 L347.1252,209.7186 C347.1252,205.7286 343.8912,202.4886 339.8952,202.4886" id="Fill-2696"></path>
                    <path d="M325.434,216.9498 C329.43,216.9498 332.664,213.7098 332.664,209.7198 L318.204,209.7198 C318.204,213.7098 321.444,216.9498 325.434,216.9498" id="Fill-2697"></path>
                    <path d="M318.2034,224.1468 C318.2034,228.1368 321.4374,231.3768 325.4334,231.3768 C329.4294,231.3768 332.6634,228.1368 332.6634,224.1468 L318.2034,224.1468 Z" id="Fill-2698"></path>
                    <path d="M339.8952,216.9168 C335.8992,216.9168 332.6652,220.1508 332.6652,224.1468 L347.1252,224.1468 C347.1252,220.1508 343.8912,216.9168 339.8952,216.9168" id="Fill-2699"></path>
                    <path d="M79.5924,173.568 C75.5964,173.568 72.3624,176.802 72.3624,180.798 L86.8224,180.798 C86.8224,176.802 83.5824,173.568 79.5924,173.568" id="Fill-2700"></path>
                    <path d="M65.1312,188.0292 C69.1212,188.0292 72.3612,184.7892 72.3612,180.7992 L57.9012,180.7992 C57.9012,184.7892 61.1412,188.0292 65.1312,188.0292" id="Fill-2701"></path>
                    <path d="M57.9006,195.225 C57.9006,199.215 61.1346,202.455 65.1306,202.455 C69.1206,202.455 72.3606,199.215 72.3606,195.225 L57.9006,195.225 Z" id="Fill-2702"></path>
                    <path d="M79.5924,187.9944 C75.5964,187.9944 72.3624,191.2284 72.3624,195.2244 L86.8224,195.2244 C86.8224,191.2284 83.5824,187.9944 79.5924,187.9944" id="Fill-2703"></path>
                    <path d="M339.8952,173.568 C335.8992,173.568 332.6652,176.802 332.6652,180.798 L347.1252,180.798 C347.1252,176.802 343.8912,173.568 339.8952,173.568" id="Fill-2704"></path>
                    <path d="M325.434,188.0292 C329.43,188.0292 332.664,184.7892 332.664,180.7992 L318.204,180.7992 C318.204,184.7892 321.444,188.0292 325.434,188.0292" id="Fill-2705"></path>
                    <path d="M318.2034,195.225 C318.2034,199.215 321.4374,202.455 325.4334,202.455 C329.4294,202.455 332.6634,199.215 332.6634,195.225 L318.2034,195.225 Z" id="Fill-2706"></path>
                    <path d="M339.8952,187.9944 C335.8992,187.9944 332.6652,191.2284 332.6652,195.2244 L347.1252,195.2244 C347.1252,191.2284 343.8912,187.9944 339.8952,187.9944" id="Fill-2707"></path>
                    <path d="M79.5924,144.6462 C75.5964,144.6462 72.3624,147.8802 72.3624,151.8762 L86.8224,151.8762 C86.8224,147.8802 83.5824,144.6462 79.5924,144.6462" id="Fill-2708"></path>
                    <path d="M65.1312,159.1068 C69.1212,159.1068 72.3612,155.8668 72.3612,151.8768 L57.9012,151.8768 C57.9012,155.8668 61.1412,159.1068 65.1312,159.1068" id="Fill-2709"></path>
                    <path d="M57.9006,166.3026 C57.9006,170.2926 61.1346,173.5326 65.1306,173.5326 C69.1206,173.5326 72.3606,170.2926 72.3606,166.3026 L57.9006,166.3026 Z" id="Fill-2710"></path>
                    <path d="M79.5924,159.072 C75.5964,159.072 72.3624,162.306 72.3624,166.302 L86.8224,166.302 C86.8224,162.306 83.5824,159.072 79.5924,159.072" id="Fill-2711"></path>
                    <path d="M339.8952,144.6462 C335.8992,144.6462 332.6652,147.8802 332.6652,151.8762 L347.1252,151.8762 C347.1252,147.8802 343.8912,144.6462 339.8952,144.6462" id="Fill-2712"></path>
                    <path d="M325.434,159.1068 C329.43,159.1068 332.664,155.8668 332.664,151.8768 L318.204,151.8768 C318.204,155.8668 321.444,159.1068 325.434,159.1068" id="Fill-2713"></path>
                    <path d="M318.2034,166.3026 C318.2034,170.2926 321.4374,173.5326 325.4334,173.5326 C329.4294,173.5326 332.6634,170.2926 332.6634,166.3026 L318.2034,166.3026 Z" id="Fill-2714"></path>
                    <path d="M339.8952,159.072 C335.8992,159.072 332.6652,162.306 332.6652,166.302 L347.1252,166.302 C347.1252,162.306 343.8912,159.072 339.8952,159.072" id="Fill-2715"></path>
                    <path d="M79.5924,115.7232 C75.5964,115.7232 72.3624,118.9572 72.3624,122.9532 L86.8224,122.9532 C86.8224,118.9572 83.5824,115.7232 79.5924,115.7232" id="Fill-2716"></path>
                    <path d="M65.1312,130.185 C69.1212,130.185 72.3612,126.945 72.3612,122.955 L57.9012,122.955 C57.9012,126.945 61.1412,130.185 65.1312,130.185" id="Fill-2717"></path>
                    <path d="M57.9006,137.3802 C57.9006,141.3702 61.1346,144.6102 65.1306,144.6102 C69.1206,144.6102 72.3606,141.3702 72.3606,137.3802 L57.9006,137.3802 Z" id="Fill-2718"></path>
                    <path d="M79.5924,130.1496 C75.5964,130.1496 72.3624,133.3836 72.3624,137.3796 L86.8224,137.3796 C86.8224,133.3836 83.5824,130.1496 79.5924,130.1496" id="Fill-2719"></path>
                    <path d="M339.8952,115.7232 C335.8992,115.7232 332.6652,118.9572 332.6652,122.9532 L347.1252,122.9532 C347.1252,118.9572 343.8912,115.7232 339.8952,115.7232" id="Fill-2720"></path>
                    <path d="M325.434,130.185 C329.43,130.185 332.664,126.945 332.664,122.955 L318.204,122.955 C318.204,126.945 321.444,130.185 325.434,130.185" id="Fill-2721"></path>
                    <path d="M318.2034,137.3802 C318.2034,141.3702 321.4374,144.6102 325.4334,144.6102 C329.4294,144.6102 332.6634,141.3702 332.6634,137.3802 L318.2034,137.3802 Z" id="Fill-2722"></path>
                    <path d="M339.8952,130.1496 C335.8992,130.1496 332.6652,133.3836 332.6652,137.3796 L347.1252,137.3796 C347.1252,133.3836 343.8912,130.1496 339.8952,130.1496" id="Fill-2723"></path>
                    <path d="M79.5924,86.8014 C75.5964,86.8014 72.3624,90.0354 72.3624,94.0314 L86.8224,94.0314 C86.8224,90.0354 83.5824,86.8014 79.5924,86.8014" id="Fill-2724"></path>
                    <path d="M65.1312,101.2626 C69.1212,101.2626 72.3612,98.0226 72.3612,94.0326 L57.9012,94.0326 C57.9012,98.0226 61.1412,101.2626 65.1312,101.2626" id="Fill-2725"></path>
                    <path d="M57.9006,108.4584 C57.9006,112.4484 61.1346,115.6884 65.1306,115.6884 C69.1206,115.6884 72.3606,112.4484 72.3606,108.4584 L57.9006,108.4584 Z" id="Fill-2726"></path>
                    <path d="M79.5924,101.2278 C75.5964,101.2278 72.3624,104.4618 72.3624,108.4578 L86.8224,108.4578 C86.8224,104.4618 83.5824,101.2278 79.5924,101.2278" id="Fill-2727"></path>
                    <path d="M339.8952,86.8014 C335.8992,86.8014 332.6652,90.0354 332.6652,94.0314 L347.1252,94.0314 C347.1252,90.0354 343.8912,86.8014 339.8952,86.8014" id="Fill-2728"></path>
                    <path d="M325.434,101.2626 C329.43,101.2626 332.664,98.0226 332.664,94.0326 L318.204,94.0326 C318.204,98.0226 321.444,101.2626 325.434,101.2626" id="Fill-2729"></path>
                    <path d="M318.2034,108.4584 C318.2034,112.4484 321.4374,115.6884 325.4334,115.6884 C329.4294,115.6884 332.6634,112.4484 332.6634,108.4584 L318.2034,108.4584 Z" id="Fill-2730"></path>
                    <path d="M339.8952,101.2278 C335.8992,101.2278 332.6652,104.4618 332.6652,108.4578 L347.1252,108.4578 C347.1252,104.4618 343.8912,101.2278 339.8952,101.2278" id="Fill-2731"></path>
                    <path d="M79.5924,57.879 C75.5964,57.879 72.3624,61.113 72.3624,65.109 L86.8224,65.109 C86.8224,61.113 83.5824,57.879 79.5924,57.879" id="Fill-2732"></path>
                    <path d="M65.1312,72.3402 C69.1212,72.3402 72.3612,69.1002 72.3612,65.1102 L57.9012,65.1102 C57.9012,69.1002 61.1412,72.3402 65.1312,72.3402" id="Fill-2733"></path>
                    <path d="M57.9006,79.536 C57.9006,83.526 61.1346,86.766 65.1306,86.766 C69.1206,86.766 72.3606,83.526 72.3606,79.536 L57.9006,79.536 Z" id="Fill-2734"></path>
                    <path d="M79.5924,72.3054 C75.5964,72.3054 72.3624,75.5394 72.3624,79.5354 L86.8224,79.5354 C86.8224,75.5394 83.5824,72.3054 79.5924,72.3054" id="Fill-2735"></path>
                    <path d="M108.5142,28.9572 C104.5182,28.9572 101.2842,32.1912 101.2842,36.1872 L115.7442,36.1872 C115.7442,32.1912 112.5102,28.9572 108.5142,28.9572" id="Fill-2736"></path>
                    <path d="M94.053,43.4178 C98.049,43.4178 101.283,40.1778 101.283,36.1878 L86.823,36.1878 C86.823,40.1778 90.063,43.4178 94.053,43.4178" id="Fill-2737"></path>
                    <path d="M86.823,50.6142 C86.823,54.6042 90.057,57.8442 94.053,57.8442 C98.049,57.8442 101.283,54.6042 101.283,50.6142 L86.823,50.6142 Z" id="Fill-2738"></path>
                    <path d="M108.5142,43.383 C104.5182,43.383 101.2842,46.617 101.2842,50.613 L115.7442,50.613 C115.7442,46.617 112.5102,43.383 108.5142,43.383" id="Fill-2739"></path>
                    <path d="M310.9704,28.9572 C306.9744,28.9572 303.7404,32.1912 303.7404,36.1872 L318.2004,36.1872 C318.2004,32.1912 314.9604,28.9572 310.9704,28.9572" id="Fill-2740"></path>
                    <path d="M296.5092,43.4178 C300.4992,43.4178 303.7392,40.1778 303.7392,36.1878 L289.2792,36.1878 C289.2792,40.1778 292.5132,43.4178 296.5092,43.4178" id="Fill-2741"></path>
                    <path d="M289.2744,50.6142 C289.2744,54.6042 292.5144,57.8442 296.5104,57.8442 C300.5004,57.8442 303.7404,54.6042 303.7404,50.6142 L289.2804,50.6142 L289.2744,50.6142 Z" id="Fill-2742"></path>
                    <path d="M310.9704,43.383 C306.9744,43.383 303.7404,46.617 303.7404,50.613 L318.2004,50.613 C318.2004,46.617 314.9604,43.383 310.9704,43.383" id="Fill-2743"></path>
                    <path d="M339.8952,57.879 C335.8992,57.879 332.6652,61.113 332.6652,65.109 L347.1252,65.109 C347.1252,61.113 343.8912,57.879 339.8952,57.879" id="Fill-2744"></path>
                    <path d="M325.434,72.3402 C329.43,72.3402 332.664,69.1002 332.664,65.1102 L318.204,65.1102 C318.204,69.1002 321.444,72.3402 325.434,72.3402" id="Fill-2745"></path>
                    <path d="M318.2034,79.536 C318.2034,83.526 321.4374,86.766 325.4334,86.766 C329.4294,86.766 332.6634,83.526 332.6634,79.536 L318.2034,79.536 Z" id="Fill-2746"></path>
                    <path d="M339.8952,72.3054 C335.8992,72.3054 332.6652,75.5394 332.6652,79.5354 L347.1252,79.5354 C347.1252,75.5394 343.8912,72.3054 339.8952,72.3054" id="Fill-2747"></path>
                    <path d="M137.436,0 C133.44,0 130.206,3.234 130.206,7.23 L144.666,7.23 C144.666,3.234 141.432,0 137.436,0" id="Fill-2748"></path>
                    <path d="M122.9748,14.4612 C126.9708,14.4612 130.2048,11.2212 130.2048,7.2312 L115.7448,7.2312 C115.7448,11.2212 118.9848,14.4612 122.9748,14.4612" id="Fill-2749"></path>
                    <path d="M115.7418,21.6552 C115.7418,25.6512 118.9818,28.8852 122.9778,28.8852 C126.9678,28.8852 130.2078,25.6512 130.2078,21.6552 L115.7418,21.6552 L115.7418,21.6552 Z" id="Fill-2750"></path>
                    <path d="M137.436,14.4246 C133.44,14.4246 130.206,17.6646 130.206,21.6546 L144.666,21.6546 C144.666,17.6646 141.432,14.4246 137.436,14.4246" id="Fill-2751"></path>
                    <path d="M108.5142,0 C104.5182,0 101.2842,3.234 101.2842,7.23 L115.7442,7.23 C115.7442,3.234 112.5102,0 108.5142,0" id="Fill-2752"></path>
                    <path d="M94.053,14.4612 C98.049,14.4612 101.283,11.2212 101.283,7.2312 L86.823,7.2312 C86.823,11.2212 90.063,14.4612 94.053,14.4612" id="Fill-2753"></path>
                    <path d="M86.823,21.6552 C86.823,25.6512 90.057,28.8852 94.053,28.8852 C98.049,28.8852 101.283,25.6512 101.283,21.6552 L86.823,21.6552 Z" id="Fill-2754"></path>
                    <path d="M108.5142,14.4246 C104.5182,14.4246 101.2842,17.6646 101.2842,21.6546 L115.7442,21.6546 C115.7442,17.6646 112.5102,14.4246 108.5142,14.4246" id="Fill-2755"></path>
                    <path d="M195.2814,0 C191.2854,0 188.0514,3.234 188.0514,7.23 L202.5114,7.23 C202.5114,3.234 199.2714,0 195.2814,0" id="Fill-2756"></path>
                    <path d="M180.8202,14.4612 C184.8102,14.4612 188.0502,11.2212 188.0502,7.2312 L173.5902,7.2312 C173.5902,11.2212 176.8242,14.4612 180.8202,14.4612" id="Fill-2757"></path>
                    <path d="M173.5896,21.6552 C173.5896,25.6512 176.8236,28.8852 180.8196,28.8852 C184.8096,28.8852 188.0496,25.6512 188.0496,21.6552 L173.5896,21.6552 Z" id="Fill-2758"></path>
                    <path d="M195.2814,14.4246 C191.2854,14.4246 188.0514,17.6646 188.0514,21.6546 L202.5114,21.6546 C202.5114,17.6646 199.2714,14.4246 195.2814,14.4246" id="Fill-2759"></path>
                    <path d="M166.3596,0 C162.3636,0 159.1296,3.234 159.1296,7.23 L173.5896,7.23 C173.5896,3.234 170.3496,0 166.3596,0" id="Fill-2760"></path>
                    <path d="M151.9014,14.4612 C155.8914,14.4612 159.1314,11.2212 159.1314,7.2312 L144.6654,7.2312 C144.6654,11.2212 147.9054,14.4612 151.9014,14.4612" id="Fill-2761"></path>
                    <path d="M144.6678,21.6552 C144.6678,25.6512 147.9078,28.8852 151.8978,28.8852 C155.8878,28.8852 159.1278,25.6512 159.1278,21.6552 L144.6678,21.6552 Z" id="Fill-2762"></path>
                    <path d="M166.3596,14.4246 C162.3636,14.4246 159.1296,17.6646 159.1296,21.6546 L173.5896,21.6546 C173.5896,17.6646 170.3496,14.4246 166.3596,14.4246" id="Fill-2763"></path>
                    <path d="M253.122,0 C249.132,0 245.892,3.234 245.892,7.23 L260.352,7.23 C260.352,3.234 257.118,0 253.122,0" id="Fill-2764"></path>
                    <path d="M238.6638,14.4612 C242.6598,14.4612 245.8938,11.2212 245.8938,7.2312 L231.4278,7.2312 C231.4278,11.2212 234.6678,14.4612 238.6638,14.4612" id="Fill-2765"></path>
                    <path d="M231.4308,21.6552 C231.4308,25.6512 234.6708,28.8852 238.6608,28.8852 C242.6508,28.8852 245.8908,25.6512 245.8908,21.6552 L231.4308,21.6552 Z" id="Fill-2766"></path>
                    <path d="M253.122,14.4246 C249.132,14.4246 245.892,17.6646 245.892,21.6546 L260.352,21.6546 C260.352,17.6646 257.118,14.4246 253.122,14.4246" id="Fill-2767"></path>
                    <path d="M224.2032,0 C220.2072,0 216.9732,3.234 216.9732,7.23 L231.4332,7.23 C231.4332,3.234 228.1992,0 224.2032,0" id="Fill-2768"></path>
                    <path d="M209.742,14.4612 C213.732,14.4612 216.972,11.2212 216.972,7.2312 L202.512,7.2312 C202.512,11.2212 205.752,14.4612 209.742,14.4612" id="Fill-2769"></path>
                    <path d="M202.512,21.6552 C202.512,25.6512 205.746,28.8852 209.742,28.8852 C213.732,28.8852 216.972,25.6512 216.972,21.6552 L202.512,21.6552 Z" id="Fill-2770"></path>
                    <path d="M224.2032,14.4246 C220.2072,14.4246 216.9732,17.6646 216.9732,21.6546 L231.4332,21.6546 C231.4332,17.6646 228.1992,14.4246 224.2032,14.4246" id="Fill-2771"></path>
                    <path d="M310.9704,0 C306.9744,0 303.7404,3.234 303.7404,7.23 L318.2004,7.23 C318.2004,3.234 314.9604,0 310.9704,0" id="Fill-2772"></path>
                    <path d="M296.5092,14.4612 C300.4992,14.4612 303.7392,11.2212 303.7392,7.2312 L289.2792,7.2312 C289.2792,11.2212 292.5132,14.4612 296.5092,14.4612" id="Fill-2773"></path>
                    <path d="M289.2744,21.6552 C289.2744,25.6512 292.5144,28.8852 296.5104,28.8852 C300.5004,28.8852 303.7404,25.6512 303.7404,21.6552 L289.2804,21.6552 L289.2744,21.6552 Z" id="Fill-2774"></path>
                    <path d="M310.9704,14.4246 C306.9744,14.4246 303.7404,17.6646 303.7404,21.6546 L318.2004,21.6546 C318.2004,17.6646 314.9604,14.4246 310.9704,14.4246" id="Fill-2775"></path>
                    <path d="M282.0486,0 C278.0526,0 274.8186,3.234 274.8186,7.23 L289.2786,7.23 C289.2786,3.234 286.0386,0 282.0486,0" id="Fill-2776"></path>
                    <path d="M267.5874,14.4612 C271.5774,14.4612 274.8174,11.2212 274.8174,7.2312 L260.3574,7.2312 C260.3574,11.2212 263.5914,14.4612 267.5874,14.4612" id="Fill-2777"></path>
                    <path d="M260.3556,21.6552 C260.3556,25.6512 263.5896,28.8852 267.5856,28.8852 C271.5816,28.8852 274.8156,25.6512 274.8156,21.6552 L260.3556,21.6552 Z" id="Fill-2778"></path>
                    <path d="M282.0486,14.4246 C278.0526,14.4246 274.8186,17.6646 274.8186,21.6546 L289.2786,21.6546 C289.2786,17.6646 286.0386,14.4246 282.0486,14.4246" id="Fill-2779"></path>
                    <path d="M79.5924,28.9224 C75.5964,28.9224 72.3624,32.1564 72.3624,36.1524 L86.8224,36.1524 C86.8224,32.1564 83.5824,28.9224 79.5924,28.9224" id="Fill-2780"></path>
                    <path d="M65.1312,43.383 C69.1212,43.383 72.3612,40.143 72.3612,36.153 L57.9012,36.153 C57.9012,40.143 61.1412,43.383 65.1312,43.383" id="Fill-2781"></path>
                    <path d="M57.9006,50.5776 C57.9006,54.5736 61.1346,57.8076 65.1306,57.8076 C69.1206,57.8076 72.3606,54.5736 72.3606,50.5776 L57.9006,50.5776 Z" id="Fill-2782"></path>
                    <path d="M79.5924,43.3464 C75.5964,43.3464 72.3624,46.5864 72.3624,50.5764 L86.8224,50.5764 C86.8224,46.5864 83.5824,43.3464 79.5924,43.3464" id="Fill-2783"></path>
                    <path d="M339.8952,28.9224 C335.8992,28.9224 332.6652,32.1564 332.6652,36.1524 L347.1252,36.1524 C347.1252,32.1564 343.8912,28.9224 339.8952,28.9224" id="Fill-2784"></path>
                    <path d="M325.434,43.383 C329.43,43.383 332.664,40.143 332.664,36.153 L318.204,36.153 C318.204,40.143 321.444,43.383 325.434,43.383" id="Fill-2785"></path>
                    <path d="M318.2034,50.5776 C318.2034,54.5736 321.4374,57.8076 325.4334,57.8076 C329.4294,57.8076 332.6634,54.5736 332.6634,50.5776 L318.2034,50.5776 Z" id="Fill-2786"></path>
                    <path d="M339.8952,43.3464 C335.8992,43.3464 332.6652,46.5864 332.6652,50.5764 L347.1252,50.5764 C347.1252,46.5864 343.8912,43.3464 339.8952,43.3464" id="Fill-2787"></path>
                    <path d="M137.436,347.0298 C133.44,347.0298 130.206,350.2638 130.206,354.2598 L144.666,354.2598 C144.666,350.2638 141.432,347.0298 137.436,347.0298" id="Fill-2788"></path>
                    <path d="M122.9748,361.491 C126.9708,361.491 130.2048,358.251 130.2048,354.261 L115.7448,354.261 C115.7448,358.251 118.9848,361.491 122.9748,361.491" id="Fill-2789"></path>
                    <path d="M115.7448,368.685 C115.7448,372.681 118.9788,375.915 122.9748,375.915 C126.9708,375.915 130.2048,372.681 130.2048,368.685 L115.7448,368.685 Z" id="Fill-2790"></path>
                    <path d="M137.436,361.4544 C133.44,361.4544 130.206,364.6944 130.206,368.6844 L144.666,368.6844 C144.666,364.6944 141.432,361.4544 137.436,361.4544" id="Fill-2791"></path>
                    <path d="M137.436,318.1776 C133.44,318.1776 130.206,321.4176 130.206,325.4076 L144.666,325.4076 C144.666,321.4176 141.432,318.1776 137.436,318.1776" id="Fill-2792"></path>
                    <path d="M122.9748,332.6388 C126.9708,332.6388 130.2048,329.3988 130.2048,325.4088 L115.7448,325.4088 C115.7448,329.3988 118.9848,332.6388 122.9748,332.6388" id="Fill-2793"></path>
                    <path d="M115.7448,339.8358 C115.7448,343.8258 118.9788,347.0658 122.9748,347.0658 C126.9708,347.0658 130.2048,343.8258 130.2048,339.8358 L115.7448,339.8358 Z" id="Fill-2794"></path>
                    <path d="M137.436,332.6052 C133.44,332.6052 130.206,335.8392 130.206,339.8352 L144.666,339.8352 C144.666,335.8392 141.432,332.6052 137.436,332.6052" id="Fill-2795"></path>
                    <path d="M166.3596,347.0298 C162.3636,347.0298 159.1296,350.2638 159.1296,354.2598 L173.5896,354.2598 C173.5896,350.2638 170.3496,347.0298 166.3596,347.0298" id="Fill-2796"></path>
                    <path d="M151.8984,361.491 C155.8884,361.491 159.1284,358.251 159.1284,354.261 L144.6684,354.261 C144.6684,358.251 147.9024,361.491 151.8984,361.491" id="Fill-2797"></path>
                    <path d="M144.6678,368.685 C144.6678,372.681 147.9018,375.915 151.8978,375.915 C155.8878,375.915 159.1278,372.681 159.1278,368.685 L144.6678,368.685 Z" id="Fill-2798"></path>
                    <path d="M166.3596,361.4544 C162.3636,361.4544 159.1296,364.6944 159.1296,368.6844 L173.5896,368.6844 C173.5896,364.6944 170.3496,361.4544 166.3596,361.4544" id="Fill-2799"></path>
                    <path d="M166.3596,318.1776 C162.3636,318.1776 159.1296,321.4176 159.1296,325.4076 L173.5896,325.4076 C173.5896,321.4176 170.3496,318.1776 166.3596,318.1776" id="Fill-2800"></path>
                    <path d="M151.8984,332.6388 C155.8884,332.6388 159.1284,329.3988 159.1284,325.4088 L144.6684,325.4088 C144.6684,329.3988 147.9024,332.6388 151.8984,332.6388" id="Fill-2801"></path>
                    <path d="M144.6678,339.8358 C144.6678,343.8258 147.9018,347.0658 151.8978,347.0658 C155.8878,347.0658 159.1278,343.8258 159.1278,339.8358 L144.6678,339.8358 Z" id="Fill-2802"></path>
                    <path d="M166.3596,332.6052 C162.3636,332.6052 159.1296,335.8392 159.1296,339.8352 L173.5896,339.8352 C173.5896,335.8392 170.3496,332.6052 166.3596,332.6052" id="Fill-2803"></path>
                    <path d="M195.2814,347.0298 C191.2854,347.0298 188.0514,350.2638 188.0514,354.2598 L202.5114,354.2598 C202.5114,350.2638 199.2714,347.0298 195.2814,347.0298" id="Fill-2804"></path>
                    <path d="M180.8202,361.491 C184.8102,361.491 188.0502,358.251 188.0502,354.261 L173.5902,354.261 C173.5902,358.251 176.8242,361.491 180.8202,361.491" id="Fill-2805"></path>
                    <path d="M173.5896,368.685 C173.5896,372.681 176.8236,375.915 180.8196,375.915 C184.8096,375.915 188.0496,372.681 188.0496,368.685 L173.5896,368.685 Z" id="Fill-2806"></path>
                    <path d="M195.2814,361.4544 C191.2854,361.4544 188.0514,364.6944 188.0514,368.6844 L202.5114,368.6844 C202.5114,364.6944 199.2714,361.4544 195.2814,361.4544" id="Fill-2807"></path>
                    <path d="M195.2814,318.1776 C191.2854,318.1776 188.0514,321.4176 188.0514,325.4076 L202.5114,325.4076 C202.5114,321.4176 199.2714,318.1776 195.2814,318.1776" id="Fill-2808"></path>
                    <path d="M180.8202,332.6388 C184.8102,332.6388 188.0502,329.3988 188.0502,325.4088 L173.5902,325.4088 C173.5902,329.3988 176.8242,332.6388 180.8202,332.6388" id="Fill-2809"></path>
                    <path d="M173.5896,339.8358 C173.5896,343.8258 176.8236,347.0658 180.8196,347.0658 C184.8096,347.0658 188.0496,343.8258 188.0496,339.8358 L173.5896,339.8358 Z" id="Fill-2810"></path>
                    <path d="M195.2814,332.6052 C191.2854,332.6052 188.0514,335.8392 188.0514,339.8352 L202.5114,339.8352 C202.5114,335.8392 199.2714,332.6052 195.2814,332.6052" id="Fill-2811"></path>
                    <path d="M224.2032,347.0298 C220.2072,347.0298 216.9732,350.2638 216.9732,354.2598 L231.4332,354.2598 C231.4332,350.2638 228.1992,347.0298 224.2032,347.0298" id="Fill-2812"></path>
                    <path d="M209.742,361.491 C213.732,361.491 216.972,358.251 216.972,354.261 L202.512,354.261 C202.512,358.251 205.752,361.491 209.742,361.491" id="Fill-2813"></path>
                    <path d="M202.512,368.685 C202.512,372.681 205.746,375.915 209.742,375.915 C213.732,375.915 216.972,372.681 216.972,368.685 L202.512,368.685 Z" id="Fill-2814"></path>
                    <path d="M224.2032,361.4544 C220.2072,361.4544 216.9732,364.6944 216.9732,368.6844 L231.4332,368.6844 C231.4332,364.6944 228.1992,361.4544 224.2032,361.4544" id="Fill-2815"></path>
                    <path d="M224.2032,318.1776 C220.2072,318.1776 216.9732,321.4176 216.9732,325.4076 L231.4332,325.4076 C231.4332,321.4176 228.1992,318.1776 224.2032,318.1776" id="Fill-2816"></path>
                    <path d="M209.742,332.6388 C213.732,332.6388 216.972,329.3988 216.972,325.4088 L202.512,325.4088 C202.512,329.3988 205.752,332.6388 209.742,332.6388" id="Fill-2817"></path>
                    <path d="M202.512,339.8358 C202.512,343.8258 205.746,347.0658 209.742,347.0658 C213.732,347.0658 216.972,343.8258 216.972,339.8358 L202.512,339.8358 Z" id="Fill-2818"></path>
                    <path d="M224.2032,332.6052 C220.2072,332.6052 216.9732,335.8392 216.9732,339.8352 L231.4332,339.8352 C231.4332,335.8392 228.1992,332.6052 224.2032,332.6052" id="Fill-2819"></path>
                    <path d="M253.125,347.0298 C249.129,347.0298 245.895,350.2638 245.895,354.2598 L260.355,354.2598 C260.355,350.2638 257.121,347.0298 253.125,347.0298" id="Fill-2820"></path>
                    <path d="M238.6638,361.491 C242.6598,361.491 245.8938,358.251 245.8938,354.261 L231.4338,354.261 C231.4338,358.251 234.6738,361.491 238.6638,361.491" id="Fill-2821"></path>
                    <path d="M231.4308,368.685 C231.4308,372.681 234.6708,375.915 238.6668,375.915 C242.6568,375.915 245.8968,372.681 245.8968,368.685 L231.4308,368.685 L231.4308,368.685 Z" id="Fill-2822"></path>
                    <path d="M253.125,361.4544 C249.129,361.4544 245.895,364.6944 245.895,368.6844 L260.355,368.6844 C260.355,364.6944 257.121,361.4544 253.125,361.4544" id="Fill-2823"></path>
                    <path d="M253.125,318.1776 C249.129,318.1776 245.895,321.4176 245.895,325.4076 L260.355,325.4076 C260.355,321.4176 257.121,318.1776 253.125,318.1776" id="Fill-2824"></path>
                    <path d="M238.6638,332.6388 C242.6598,332.6388 245.8938,329.3988 245.8938,325.4088 L231.4338,325.4088 C231.4338,329.3988 234.6738,332.6388 238.6638,332.6388" id="Fill-2825"></path>
                    <path d="M231.4308,339.8358 C231.4308,343.8258 234.6708,347.0658 238.6668,347.0658 C242.6568,347.0658 245.8968,343.8258 245.8968,339.8358 L231.4308,339.8358 L231.4308,339.8358 Z" id="Fill-2826"></path>
                    <path d="M253.125,332.6052 C249.129,332.6052 245.895,335.8392 245.895,339.8352 L260.355,339.8352 C260.355,335.8392 257.121,332.6052 253.125,332.6052" id="Fill-2827"></path>
                    <path d="M282.0486,347.0298 C278.0526,347.0298 274.8186,350.2638 274.8186,354.2598 L289.2786,354.2598 C289.2786,350.2638 286.0386,347.0298 282.0486,347.0298" id="Fill-2828"></path>
                    <path d="M267.5874,361.491 C271.5774,361.491 274.8174,358.251 274.8174,354.261 L260.3574,354.261 C260.3574,358.251 263.5914,361.491 267.5874,361.491" id="Fill-2829"></path>
                    <path d="M260.3526,368.685 C260.3526,372.681 263.5926,375.915 267.5886,375.915 C271.5786,375.915 274.8186,372.681 274.8186,368.685 L260.3526,368.685 L260.3526,368.685 Z" id="Fill-2830"></path>
                    <path d="M282.0486,361.4544 C278.0526,361.4544 274.8186,364.6944 274.8186,368.6844 L289.2786,368.6844 C289.2786,364.6944 286.0386,361.4544 282.0486,361.4544" id="Fill-2831"></path>
                    <path d="M282.0486,318.1776 C278.0526,318.1776 274.8186,321.4176 274.8186,325.4076 L289.2786,325.4076 C289.2786,321.4176 286.0386,318.1776 282.0486,318.1776" id="Fill-2832"></path>
                    <path d="M267.5874,332.6388 C271.5774,332.6388 274.8174,329.3988 274.8174,325.4088 L260.3574,325.4088 C260.3574,329.3988 263.5914,332.6388 267.5874,332.6388" id="Fill-2833"></path>
                    <path d="M260.3526,339.8358 C260.3526,343.8258 263.5926,347.0658 267.5886,347.0658 C271.5786,347.0658 274.8186,343.8258 274.8186,339.8358 L260.3526,339.8358 L260.3526,339.8358 Z" id="Fill-2834"></path>
                    <path d="M282.0486,332.6052 C278.0526,332.6052 274.8186,335.8392 274.8186,339.8352 L289.2786,339.8352 C289.2786,335.8392 286.0386,332.6052 282.0486,332.6052" id="Fill-2835"></path>
                    <path d="M310.9704,347.0298 C306.9744,347.0298 303.7404,350.2638 303.7404,354.2598 L318.2004,354.2598 C318.2004,350.2638 314.9604,347.0298 310.9704,347.0298" id="Fill-2836"></path>
                    <path d="M296.5092,361.491 C300.4992,361.491 303.7392,358.251 303.7392,354.261 L289.2792,354.261 C289.2792,358.251 292.5132,361.491 296.5092,361.491" id="Fill-2837"></path>
                    <path d="M289.2744,368.685 C289.2744,372.681 292.5144,375.915 296.5104,375.915 C300.5004,375.915 303.7404,372.681 303.7404,368.685 L289.2804,368.685 L289.2744,368.685 Z" id="Fill-2838"></path>
                    <path d="M310.9704,361.4544 C306.9744,361.4544 303.7404,364.6944 303.7404,368.6844 L318.2004,368.6844 C318.2004,364.6944 314.9604,361.4544 310.9704,361.4544" id="Fill-2839"></path>
                    <path d="M108.5142,404.838 C104.5182,404.838 101.2842,408.072 101.2842,412.068 L115.7442,412.068 C115.7442,408.072 112.5102,404.838 108.5142,404.838" id="Fill-2840"></path>
                    <path d="M94.053,419.2992 C98.049,419.2992 101.283,416.0592 101.283,412.0692 L86.823,412.0692 C86.823,416.0592 90.063,419.2992 94.053,419.2992" id="Fill-2841"></path>
                    <path d="M86.823,426.4944 C86.823,430.4904 90.057,433.7244 94.053,433.7244 C98.049,433.7244 101.283,430.4904 101.283,426.4944 L86.823,426.4944 Z" id="Fill-2842"></path>
                    <path d="M108.5142,419.2638 C104.5182,419.2638 101.2842,422.4978 101.2842,426.4938 L115.7442,426.4938 C115.7442,422.4978 112.5102,419.2638 108.5142,419.2638" id="Fill-2843"></path>
                    <path d="M137.436,404.838 C133.44,404.838 130.206,408.072 130.206,412.068 L144.666,412.068 C144.666,408.072 141.432,404.838 137.436,404.838" id="Fill-2844"></path>
                    <path d="M122.9748,419.2992 C126.9708,419.2992 130.2048,416.0592 130.2048,412.0692 L115.7448,412.0692 C115.7448,416.0592 118.9848,419.2992 122.9748,419.2992" id="Fill-2845"></path>
                    <path d="M115.7448,426.4944 C115.7448,430.4904 118.9788,433.7244 122.9748,433.7244 C126.9708,433.7244 130.2048,430.4904 130.2048,426.4944 L115.7448,426.4944 Z" id="Fill-2846"></path>
                    <path d="M137.436,419.2638 C133.44,419.2638 130.206,422.4978 130.206,426.4938 L144.666,426.4938 C144.666,422.4978 141.432,419.2638 137.436,419.2638" id="Fill-2847"></path>
                    <path d="M166.3596,404.838 C162.3636,404.838 159.1296,408.072 159.1296,412.068 L173.5896,412.068 C173.5896,408.072 170.3496,404.838 166.3596,404.838" id="Fill-2848"></path>
                    <path d="M151.8984,419.2992 C155.8884,419.2992 159.1284,416.0592 159.1284,412.0692 L144.6684,412.0692 C144.6684,416.0592 147.9024,419.2992 151.8984,419.2992" id="Fill-2849"></path>
                    <path d="M144.6678,426.4944 C144.6678,430.4904 147.9018,433.7244 151.8978,433.7244 C155.8878,433.7244 159.1278,430.4904 159.1278,426.4944 L144.6678,426.4944 Z" id="Fill-2850"></path>
                    <path d="M166.3596,419.2638 C162.3636,419.2638 159.1296,422.4978 159.1296,426.4938 L173.5896,426.4938 C173.5896,422.4978 170.3496,419.2638 166.3596,419.2638" id="Fill-2851"></path>
                    <path d="M195.2814,404.838 C191.2854,404.838 188.0514,408.072 188.0514,412.068 L202.5114,412.068 C202.5114,408.072 199.2714,404.838 195.2814,404.838" id="Fill-2852"></path>
                    <path d="M180.8202,419.2992 C184.8102,419.2992 188.0502,416.0592 188.0502,412.0692 L173.5902,412.0692 C173.5902,416.0592 176.8242,419.2992 180.8202,419.2992" id="Fill-2853"></path>
                    <path d="M173.5896,426.4944 C173.5896,430.4904 176.8236,433.7244 180.8196,433.7244 C184.8096,433.7244 188.0496,430.4904 188.0496,426.4944 L173.5896,426.4944 Z" id="Fill-2854"></path>
                    <path d="M195.2814,419.2638 C191.2854,419.2638 188.0514,422.4978 188.0514,426.4938 L202.5114,426.4938 C202.5114,422.4978 199.2714,419.2638 195.2814,419.2638" id="Fill-2855"></path>
                    <path d="M224.2032,404.838 C220.2072,404.838 216.9732,408.072 216.9732,412.068 L231.4332,412.068 C231.4332,408.072 228.1992,404.838 224.2032,404.838" id="Fill-2856"></path>
                    <path d="M209.742,419.2992 C213.732,419.2992 216.972,416.0592 216.972,412.0692 L202.512,412.0692 C202.512,416.0592 205.752,419.2992 209.742,419.2992" id="Fill-2857"></path>
                    <path d="M202.512,426.4944 C202.512,430.4904 205.746,433.7244 209.742,433.7244 C213.732,433.7244 216.972,430.4904 216.972,426.4944 L202.512,426.4944 Z" id="Fill-2858"></path>
                    <path d="M224.2032,419.2638 C220.2072,419.2638 216.9732,422.4978 216.9732,426.4938 L231.4332,426.4938 C231.4332,422.4978 228.1992,419.2638 224.2032,419.2638" id="Fill-2859"></path>
                    <path d="M253.125,404.838 C249.129,404.838 245.895,408.072 245.895,412.068 L260.355,412.068 C260.355,408.072 257.121,404.838 253.125,404.838" id="Fill-2860"></path>
                    <path d="M238.6638,419.2992 C242.6598,419.2992 245.8938,416.0592 245.8938,412.0692 L231.4338,412.0692 C231.4338,416.0592 234.6738,419.2992 238.6638,419.2992" id="Fill-2861"></path>
                    <path d="M231.4308,426.4944 C231.4308,430.4904 234.6708,433.7244 238.6668,433.7244 C242.6568,433.7244 245.8968,430.4904 245.8968,426.4944 L231.4308,426.4944 L231.4308,426.4944 Z" id="Fill-2862"></path>
                    <path d="M253.125,419.2638 C249.129,419.2638 245.895,422.4978 245.895,426.4938 L260.355,426.4938 C260.355,422.4978 257.121,419.2638 253.125,419.2638" id="Fill-2863"></path>
                    <path d="M282.0486,404.838 C278.0526,404.838 274.8186,408.072 274.8186,412.068 L289.2786,412.068 C289.2786,408.072 286.0386,404.838 282.0486,404.838" id="Fill-2864"></path>
                    <path d="M267.5874,419.2992 C271.5774,419.2992 274.8174,416.0592 274.8174,412.0692 L260.3574,412.0692 C260.3574,416.0592 263.5914,419.2992 267.5874,419.2992" id="Fill-2865"></path>
                    <path d="M260.3526,426.4944 C260.3526,430.4904 263.5926,433.7244 267.5886,433.7244 C271.5786,433.7244 274.8186,430.4904 274.8186,426.4944 L260.3526,426.4944 L260.3526,426.4944 Z" id="Fill-2866"></path>
                    <path d="M282.0486,419.2638 C278.0526,419.2638 274.8186,422.4978 274.8186,426.4938 L289.2786,426.4938 C289.2786,422.4978 286.0386,419.2638 282.0486,419.2638" id="Fill-2867"></path>
                    <path d="M310.9704,404.838 C306.9744,404.838 303.7404,408.072 303.7404,412.068 L318.2004,412.068 C318.2004,408.072 314.9604,404.838 310.9704,404.838" id="Fill-2868"></path>
                    <path d="M296.5092,419.2992 C300.4992,419.2992 303.7392,416.0592 303.7392,412.0692 L289.2792,412.0692 C289.2792,416.0592 292.5132,419.2992 296.5092,419.2992" id="Fill-2869"></path>
                    <path d="M289.2744,426.4944 C289.2744,430.4904 292.5144,433.7244 296.5104,433.7244 C300.5004,433.7244 303.7404,430.4904 303.7404,426.4944 L289.2804,426.4944 L289.2744,426.4944 Z" id="Fill-2870"></path>
                    <path d="M310.9704,419.2638 C306.9744,419.2638 303.7404,422.4978 303.7404,426.4938 L318.2004,426.4938 C318.2004,422.4978 314.9604,419.2638 310.9704,419.2638" id="Fill-2871"></path>
                    <path d="M339.8922,404.838 C335.8962,404.838 332.6622,408.072 332.6622,412.068 L347.1222,412.068 C347.1222,408.072 343.8822,404.838 339.8922,404.838" id="Fill-2872"></path>
                    <path d="M325.431,419.2992 C329.421,419.2992 332.661,416.0592 332.661,412.0692 L318.201,412.0692 C318.201,416.0592 321.441,419.2992 325.431,419.2992" id="Fill-2873"></path>
                    <path d="M318.198,426.4944 C318.198,430.4904 321.438,433.7244 325.434,433.7244 C329.424,433.7244 332.664,430.4904 332.664,426.4944 L318.198,426.4944 L318.198,426.4944 Z" id="Fill-2874"></path>
                    <path d="M339.8922,419.2638 C335.8962,419.2638 332.6622,422.4978 332.6622,426.4938 L347.1222,426.4938 C347.1222,422.4978 343.8822,419.2638 339.8922,419.2638" id="Fill-2875"></path>
                    <path d="M79.5924,404.838 C75.6024,404.838 72.3624,408.072 72.3624,412.068 L86.8224,412.068 C86.8224,408.072 83.5824,404.838 79.5924,404.838" id="Fill-2876"></path>
                    <path d="M65.1342,419.2992 C69.1302,419.2992 72.3642,416.0592 72.3642,412.0692 L57.8982,412.0692 C57.8982,416.0592 61.1382,419.2992 65.1342,419.2992" id="Fill-2877"></path>
                    <path d="M57.9006,426.4944 C57.9006,430.4904 61.1406,433.7244 65.1306,433.7244 C69.1206,433.7244 72.3606,430.4904 72.3606,426.4944 L57.9006,426.4944 Z" id="Fill-2878"></path>
                    <path d="M79.5924,419.2638 C75.5964,419.2638 72.3624,422.4978 72.3624,426.4938 L86.8224,426.4938 C86.8224,422.4978 83.5824,419.2638 79.5924,419.2638" id="Fill-2879"></path>
                    <path d="M310.9704,318.1776 C306.9744,318.1776 303.7404,321.4176 303.7404,325.4076 L318.2004,325.4076 C318.2004,321.4176 314.9604,318.1776 310.9704,318.1776" id="Fill-2880"></path>
                    <path d="M296.5092,332.6388 C300.4992,332.6388 303.7392,329.3988 303.7392,325.4088 L289.2792,325.4088 C289.2792,329.3988 292.5132,332.6388 296.5092,332.6388" id="Fill-2881"></path>
                    <path d="M289.2744,339.8358 C289.2744,343.8258 292.5144,347.0658 296.5104,347.0658 C300.5004,347.0658 303.7404,343.8258 303.7404,339.8358 L289.2804,339.8358 L289.2744,339.8358 Z" id="Fill-2882"></path>
                    <path d="M310.9704,332.6052 C306.9744,332.6052 303.7404,335.8392 303.7404,339.8352 L318.2004,339.8352 C318.2004,335.8392 314.9604,332.6052 310.9704,332.6052" id="Fill-2883"></path>
                    <path d="M339.8922,318.1776 C335.9022,318.1776 332.6622,321.4176 332.6622,325.4076 L347.1222,325.4076 C347.1222,321.4176 343.8822,318.1776 339.8922,318.1776" id="Fill-2884"></path>
                    <path d="M325.434,332.6388 C329.43,332.6388 332.664,329.3988 332.664,325.4088 L318.198,325.4088 C318.198,329.3988 321.438,332.6388 325.434,332.6388" id="Fill-2885"></path>
                    <path d="M318.2004,339.8358 C318.2004,343.8258 321.4404,347.0658 325.4304,347.0658 C329.4204,347.0658 332.6604,343.8258 332.6604,339.8358 L318.2004,339.8358 Z" id="Fill-2886"></path>
                    <path d="M339.8922,332.6052 C335.8962,332.6052 332.6622,335.8392 332.6622,339.8352 L347.1222,339.8352 C347.1222,335.8392 343.8822,332.6052 339.8922,332.6052" id="Fill-2887"></path>
                    <path d="M339.8922,289.2552 C335.8962,289.2552 332.6622,292.4952 332.6622,296.4852 L347.1222,296.4852 C347.1222,292.4952 343.8822,289.2552 339.8922,289.2552" id="Fill-2888"></path>
                    <path d="M325.431,303.7164 C329.421,303.7164 332.661,300.4764 332.661,296.4864 L318.201,296.4864 C318.201,300.4764 321.441,303.7164 325.431,303.7164" id="Fill-2889"></path>
                    <path d="M318.198,310.914 C318.198,314.904 321.438,318.144 325.434,318.144 C329.424,318.144 332.664,314.904 332.664,310.914 L318.198,310.914 L318.198,310.914 Z" id="Fill-2890"></path>
                    <path d="M339.8922,303.6828 C335.8962,303.6828 332.6622,306.9168 332.6622,310.9128 L347.1222,310.9128 C347.1222,306.9168 343.8822,303.6828 339.8922,303.6828" id="Fill-2891"></path>
                    <path d="M339.8922,260.3694 C335.8962,260.3694 332.6622,263.6034 332.6622,267.5994 L347.1222,267.5994 C347.1222,263.6034 343.8822,260.3694 339.8922,260.3694" id="Fill-2892"></path>
                    <path d="M325.431,274.8306 C329.421,274.8306 332.661,271.5906 332.661,267.6006 L318.201,267.6006 C318.201,271.5906 321.441,274.8306 325.431,274.8306" id="Fill-2893"></path>
                    <path d="M318.198,282.0264 C318.198,286.0224 321.438,289.2564 325.434,289.2564 C329.424,289.2564 332.664,286.0224 332.664,282.0264 L318.198,282.0264 L318.198,282.0264 Z" id="Fill-2894"></path>
                    <path d="M339.8922,274.7958 C335.8962,274.7958 332.6622,278.0298 332.6622,282.0258 L347.1222,282.0258 C347.1222,278.0298 343.8822,274.7958 339.8922,274.7958" id="Fill-2895"></path>
                    <path d="M397.7376,433.7964 C393.7416,433.7964 390.5076,437.0304 390.5076,441.0264 L404.9676,441.0264 C404.9676,437.0304 401.7276,433.7964 397.7376,433.7964" id="Fill-2896"></path>
                    <path d="M383.2752,448.2576 C387.2712,448.2576 390.5052,445.0176 390.5052,441.0276 L376.0452,441.0276 C376.0452,445.0176 379.2852,448.2576 383.2752,448.2576" id="Fill-2897"></path>
                    <path d="M376.0446,455.4534 C376.0446,459.4494 379.2786,462.6834 383.2746,462.6834 C387.2706,462.6834 390.5046,459.4494 390.5046,455.4534 L376.0446,455.4534 Z" id="Fill-2898"></path>
                    <path d="M397.7376,448.2228 C393.7416,448.2228 390.5076,451.4568 390.5076,455.4528 L404.9676,455.4528 C404.9676,451.4568 401.7276,448.2228 397.7376,448.2228" id="Fill-2899"></path>
                    <path d="M368.814,404.8746 C364.818,404.8746 361.584,408.1086 361.584,412.1046 L376.044,412.1046 C376.044,408.1086 372.81,404.8746 368.814,404.8746" id="Fill-2900"></path>
                    <path d="M354.3528,419.3352 C358.3488,419.3352 361.5828,416.0952 361.5828,412.1052 L347.1228,412.1052 C347.1228,416.0952 350.3628,419.3352 354.3528,419.3352" id="Fill-2901"></path>
                    <path d="M347.1228,426.5298 C347.1228,430.5258 350.3568,433.7598 354.3528,433.7598 C358.3488,433.7598 361.5828,430.5258 361.5828,426.5298 L347.1228,426.5298 Z" id="Fill-2902"></path>
                    <path d="M368.814,419.2992 C364.818,419.2992 361.584,422.5392 361.584,426.5292 L376.044,426.5292 C376.044,422.5392 372.81,419.2992 368.814,419.2992" id="Fill-2903"></path>
                    <path d="M339.8922,375.9522 C335.8962,375.9522 332.6622,379.1862 332.6622,383.1822 L347.1222,383.1822 C347.1222,379.1862 343.8822,375.9522 339.8922,375.9522" id="Fill-2904"></path>
                    <path d="M325.431,390.4134 C329.421,390.4134 332.661,387.1734 332.661,383.1834 L318.201,383.1834 C318.201,387.1734 321.441,390.4134 325.431,390.4134" id="Fill-2905"></path>
                    <path d="M318.198,397.6074 C318.198,401.6034 321.438,404.8374 325.434,404.8374 C329.424,404.8374 332.664,401.6034 332.664,397.6074 L318.198,397.6074 L318.198,397.6074 Z" id="Fill-2906"></path>
                    <path d="M339.8922,390.3768 C335.8962,390.3768 332.6622,393.6168 332.6622,397.6068 L347.1222,397.6068 C347.1222,393.6168 343.8822,390.3768 339.8922,390.3768" id="Fill-2907"></path>
                </g>
            </g>
        </g>
    </g>
</svg>