<?xml version="1.0" encoding="utf-8"?>
<!-- Generator: Adobe Illustrator 19.2.0, SVG Export Plug-In . SVG Version: 6.00 Build 0)  -->
<svg version="1.1" id="Layer_1" xmlns="http://www.w3.org/2000/svg" xmlns:xlink="http://www.w3.org/1999/xlink" x="0px" y="0px"
	 viewBox="0 0 75.1 150" style="enable-background:new 0 0 75.1 150;" xml:space="preserve">
<style type="text/css">
	.st0{fill:#EB0029;}
</style>
<title>wineglass_ico</title>
<path class="st0" d="M40.2,139.3c-1.4,0-2.6,1.2-2.6,2.6l0,0h5.4C42.9,140.5,41.7,139.3,40.2,139.3L40.2,139.3z"/>
<path class="st0" d="M34.9,144.7c1.4,0,2.6-1.2,2.6-2.6h-5.4C32.1,143.5,33.3,144.7,34.9,144.7L34.9,144.7z"/>
<path class="st0" d="M32.1,147.4c0,1.4,1.2,2.6,2.6,2.6c1.4,0,2.6-1.2,2.6-2.6H32.1z"/>
<path class="st0" d="M40.2,144.7c-1.4,0-2.6,1.2-2.6,2.6h5.4C42.9,145.9,41.7,144.7,40.2,144.7z"/>
<path class="st0" d="M40.2,128.6c-1.4,0-2.6,1.2-2.6,2.6h5.4C42.9,129.8,41.7,128.6,40.2,128.6z"/>
<path class="st0" d="M34.9,134c1.4,0,2.6-1.2,2.6-2.6h-5.4C32.1,132.8,33.3,134,34.9,134L34.9,134z"/>
<path class="st0" d="M32.1,136.6c0,1.4,1.2,2.6,2.6,2.6c1.4,0,2.6-1.2,2.6-2.6l0,0H32.1z"/>
<path class="st0" d="M40.2,134c-1.4,0-2.6,1.2-2.6,2.6l0,0h5.4C42.9,135.2,41.7,134,40.2,134L40.2,134z"/>
<path class="st0" d="M40.2,117.9c-1.4,0-2.6,1.2-2.6,2.6h5.4C42.9,119.1,41.7,117.9,40.2,117.9z"/>
<path class="st0" d="M34.9,123.3c1.4,0,2.6-1.2,2.6-2.6h-5.4C32.1,122.1,33.3,123.3,34.9,123.3L34.9,123.3z"/>
<path class="st0" d="M32.1,125.9c0,1.4,1.2,2.6,2.6,2.6c1.4,0,2.6-1.2,2.6-2.6H32.1z"/>
<path class="st0" d="M40.2,123.3c-1.4,0-2.6,1.2-2.6,2.6h5.4C42.9,124.5,41.7,123.3,40.2,123.3z"/>
<path class="st0" d="M40.2,107.3c-1.4,0-2.6,1.2-2.6,2.6l0,0h5.4C42.9,108.5,41.7,107.3,40.2,107.3L40.2,107.3z"/>
<path class="st0" d="M34.9,112.6c1.4,0,2.6-1.2,2.6-2.6l0,0h-5.4C32.1,111.4,33.3,112.6,34.9,112.6L34.9,112.6z"/>
<path class="st0" d="M32.1,115.3c0,1.4,1.2,2.6,2.6,2.6c1.4,0,2.6-1.2,2.6-2.6H32.1z"/>
<path class="st0" d="M40.2,112.6c-1.4,0-2.6,1.2-2.6,2.6l0,0h5.4C42.9,113.8,41.7,112.6,40.2,112.6L40.2,112.6z"/>
<path class="st0" d="M40.2,96.5c-1.4,0-2.6,1.2-2.6,2.6h5.4C42.9,97.7,41.7,96.5,40.2,96.5z"/>
<path class="st0" d="M34.9,101.8c1.4,0,2.6-1.2,2.6-2.6l0,0h-5.4C32.1,100.7,33.3,101.8,34.9,101.8L34.9,101.8z"/>
<path class="st0" d="M32.1,104.5c0,1.4,1.2,2.6,2.6,2.6c1.4,0,2.6-1.2,2.6-2.6H32.1z"/>
<path class="st0" d="M40.2,101.8c-1.4,0-2.6,1.2-2.6,2.6l0,0h5.4C42.9,103,41.7,101.8,40.2,101.8L40.2,101.8z"/>
<path class="st0" d="M50.9,96.5c-1.4,0-2.6,1.2-2.6,2.6h5.4C53.6,97.7,52.4,96.5,50.9,96.5z"/>
<path class="st0" d="M45.6,101.8c1.4,0,2.6-1.2,2.6-2.6l0,0h-5.4C42.9,100.7,44.1,101.8,45.6,101.8L45.6,101.8z"/>
<path class="st0" d="M42.9,104.5c0,1.4,1.2,2.6,2.6,2.6s2.6-1.2,2.6-2.6H42.9z"/>
<path class="st0" d="M50.9,101.8c-1.4,0-2.6,1.2-2.6,2.6l0,0h5.4C53.6,103,52.4,101.8,50.9,101.8L50.9,101.8z"/>
<path class="st0" d="M29.5,96.5c-1.4,0-2.6,1.2-2.6,2.6h5.4C32.2,97.7,30.9,96.5,29.5,96.5z"/>
<path class="st0" d="M24.1,101.8c1.4,0,2.6-1.2,2.6-2.6l0,0h-5.4C21.4,100.7,22.6,101.8,24.1,101.8L24.1,101.8z"/>
<path class="st0" d="M21.4,104.5c0,1.4,1.2,2.6,2.6,2.6s2.6-1.2,2.6-2.6H21.4z"/>
<path class="st0" d="M29.5,101.8c-1.4,0-2.6,1.2-2.6,2.6l0,0h5.4C32.2,103,30.9,101.8,29.5,101.8L29.5,101.8z"/>
<path class="st0" d="M40.2,85.8c-1.4,0-2.6,1.2-2.6,2.6h5.4C42.9,87,41.7,85.8,40.2,85.8z"/>
<path class="st0" d="M34.9,91.1c1.4,0,2.6-1.2,2.6-2.6l0,0h-5.4C32.1,89.9,33.3,91.1,34.9,91.1L34.9,91.1z"/>
<path class="st0" d="M32.1,93.8c0,1.4,1.2,2.6,2.6,2.6c1.4,0,2.6-1.2,2.6-2.6H32.1z"/>
<path class="st0" d="M40.2,91.1c-1.4,0-2.6,1.2-2.6,2.6h5.4C42.9,92.3,41.7,91.1,40.2,91.1z"/>
<path class="st0" d="M50.9,85.8c-1.4,0-2.6,1.2-2.6,2.6h5.4C53.6,87,52.4,85.8,50.9,85.8z"/>
<path class="st0" d="M45.6,91.1c1.4,0,2.6-1.2,2.6-2.6l0,0h-5.4C42.9,89.9,44.1,91.1,45.6,91.1L45.6,91.1z"/>
<path class="st0" d="M42.9,93.8c0,1.4,1.2,2.6,2.6,2.6s2.6-1.2,2.6-2.6H42.9z"/>
<path class="st0" d="M50.9,91.1c-1.4,0-2.6,1.2-2.6,2.6h5.4C53.6,92.3,52.4,91.1,50.9,91.1z"/>
<path class="st0" d="M29.5,85.8c-1.4,0-2.6,1.2-2.6,2.6h5.4C32.2,87,30.9,85.8,29.5,85.8z"/>
<path class="st0" d="M29.5,91.1c-1.4,0-2.6,1.2-2.6,2.6h5.4C32.2,92.3,30.9,91.1,29.5,91.1z"/>
<path class="st0" d="M18.8,85.8c-1.4,0-2.6,1.2-2.6,2.6h5.4C21.5,87,20.2,85.8,18.8,85.8z"/>
<path class="st0" d="M13.4,91.1c1.4,0,2.6-1.2,2.6-2.6l0,0h-5.4C10.7,89.9,11.9,91.1,13.4,91.1L13.4,91.1z"/>
<path class="st0" d="M10.7,93.8c0,1.4,1.2,2.6,2.6,2.6s2.6-1.2,2.6-2.6H10.7z"/>
<path class="st0" d="M24.1,91.1c1.4,0,2.6-1.2,2.6-2.6l0,0h-5.4C21.4,89.9,22.6,91.1,24.1,91.1L24.1,91.1z"/>
<path class="st0" d="M21.4,93.8c0,1.4,1.2,2.6,2.6,2.6s2.6-1.2,2.6-2.6H21.4z"/>
<path class="st0" d="M18.8,91.1c-1.4,0-2.6,1.2-2.6,2.6h5.4C21.5,92.3,20.2,91.1,18.8,91.1z"/>
<path class="st0" d="M8.1,75.1c-1.4,0-2.6,1.2-2.6,2.6h5.4C10.8,76.3,9.5,75.1,8.1,75.1z"/>
<path class="st0" d="M2.7,80.4c1.4,0,2.6-1.2,2.6-2.6H0C0,79.2,1.2,80.4,2.7,80.4L2.7,80.4z"/>
<path class="st0" d="M0,83.1c0,1.4,1.2,2.6,2.6,2.6s2.6-1.2,2.6-2.6H0z"/>
<path class="st0" d="M8.1,80.4c-1.4,0-2.6,1.2-2.6,2.6h5.4C10.8,81.6,9.5,80.4,8.1,80.4z"/>
<path class="st0" d="M61.6,85.8c-1.4,0-2.6,1.2-2.6,2.6h5.4C64.3,87,63.1,85.8,61.6,85.8z"/>
<path class="st0" d="M56.3,91.1c1.4,0,2.6-1.2,2.6-2.6l0,0h-5.4C53.6,89.9,54.8,91.1,56.3,91.1L56.3,91.1z"/>
<path class="st0" d="M53.6,93.8c0,1.4,1.2,2.7,2.7,2.7c1.5,0,2.7-1.2,2.7-2.7H53.6z"/>
<path class="st0" d="M61.6,91.1c-1.4,0-2.6,1.2-2.6,2.6h5.4C64.3,92.3,63.1,91.1,61.6,91.1z"/>
<path class="st0" d="M40.2,75.1c-1.4,0-2.6,1.2-2.6,2.6h5.4C42.9,76.3,41.7,75.1,40.2,75.1z"/>
<path class="st0" d="M34.9,80.4c1.4,0,2.6-1.2,2.6-2.6h-5.4C32.1,79.2,33.3,80.4,34.9,80.4L34.9,80.4z"/>
<path class="st0" d="M32.1,83.1c0,1.4,1.2,2.6,2.6,2.6c1.4,0,2.6-1.2,2.6-2.6H32.1z"/>
<path class="st0" d="M40.2,80.4c-1.4,0-2.6,1.2-2.6,2.6l0,0h5.4C42.9,81.6,41.7,80.4,40.2,80.4L40.2,80.4z"/>
<path class="st0" d="M50.9,75.1c-1.4,0-2.6,1.2-2.6,2.6h5.4C53.6,76.3,52.4,75.1,50.9,75.1z"/>
<path class="st0" d="M45.6,80.4c1.4,0,2.6-1.2,2.6-2.6h-5.4C42.9,79.2,44.1,80.4,45.6,80.4L45.6,80.4z"/>
<path class="st0" d="M42.9,83.1c0,1.4,1.2,2.6,2.6,2.6s2.6-1.2,2.6-2.6H42.9z"/>
<path class="st0" d="M50.9,80.4c-1.4,0-2.6,1.2-2.6,2.6l0,0h5.4C53.6,81.6,52.4,80.4,50.9,80.4L50.9,80.4z"/>
<path class="st0" d="M29.5,75.1c-1.4,0-2.6,1.2-2.6,2.6h5.4C32.2,76.3,30.9,75.1,29.5,75.1z"/>
<path class="st0" d="M29.5,80.4c-1.4,0-2.6,1.2-2.6,2.6l0,0h5.4C32.2,81.6,30.9,80.4,29.5,80.4L29.5,80.4z"/>
<path class="st0" d="M18.8,75.1c-1.4,0-2.6,1.2-2.6,2.6h5.4C21.5,76.3,20.2,75.1,18.8,75.1z"/>
<path class="st0" d="M13.4,80.4c1.4,0,2.6-1.2,2.6-2.6h-5.4C10.7,79.2,11.9,80.4,13.4,80.4z"/>
<path class="st0" d="M10.7,83.1c0,1.4,1.2,2.6,2.6,2.6s2.6-1.2,2.6-2.6H10.7z"/>
<path class="st0" d="M24.1,80.4c1.4,0,2.6-1.2,2.6-2.6h-5.4C21.4,79.2,22.6,80.4,24.1,80.4z"/>
<path class="st0" d="M21.4,83.1c0,1.4,1.2,2.6,2.6,2.6s2.6-1.2,2.6-2.6H21.4z"/>
<path class="st0" d="M18.8,80.4c-1.4,0-2.6,1.2-2.6,2.6l0,0h5.4C21.5,81.6,20.2,80.4,18.8,80.4L18.8,80.4z"/>
<path class="st0" d="M61.6,75.1c-1.4,0-2.6,1.2-2.6,2.6h5.4C64.3,76.3,63.1,75.1,61.6,75.1z"/>
<path class="st0" d="M56.3,80.4c1.4,0,2.6-1.2,2.6-2.6h-5.4C53.6,79.2,54.8,80.4,56.3,80.4z"/>
<path class="st0" d="M53.6,83.1c0,1.4,1.2,2.7,2.7,2.7c1.5,0,2.7-1.2,2.7-2.7H53.6z"/>
<path class="st0" d="M61.6,80.4c-1.4,0-2.6,1.2-2.6,2.6l0,0h5.4C64.3,81.6,63.1,80.4,61.6,80.4L61.6,80.4z"/>
<path class="st0" d="M40.2,64.3c-1.4,0-2.6,1.2-2.6,2.6l0,0h5.4C42.9,65.5,41.7,64.3,40.2,64.3L40.2,64.3z"/>
<path class="st0" d="M34.9,69.7c1.4,0,2.6-1.2,2.6-2.6h-5.4C32.1,68.5,33.3,69.7,34.9,69.7L34.9,69.7z"/>
<path class="st0" d="M32.1,72.4c0,1.4,1.2,2.6,2.6,2.6c1.4,0,2.6-1.2,2.6-2.6H32.1z"/>
<path class="st0" d="M40.2,69.7c-1.4,0-2.6,1.2-2.6,2.6h5.4C42.9,70.9,41.7,69.7,40.2,69.7z"/>
<path class="st0" d="M50.9,64.3c-1.4,0-2.6,1.2-2.6,2.6l0,0h5.4C53.6,65.5,52.4,64.3,50.9,64.3L50.9,64.3z"/>
<path class="st0" d="M45.6,69.7c1.4,0,2.6-1.2,2.6-2.6h-5.4C42.9,68.5,44.1,69.7,45.6,69.7L45.6,69.7z"/>
<path class="st0" d="M42.9,72.4c0,1.4,1.2,2.6,2.6,2.6s2.6-1.2,2.6-2.6H42.9z"/>
<path class="st0" d="M50.9,69.7c-1.4,0-2.6,1.2-2.6,2.6h5.4C53.6,70.9,52.4,69.7,50.9,69.7z"/>
<path class="st0" d="M29.5,64.3c-1.4,0-2.6,1.2-2.6,2.6l0,0h5.4C32.2,65.5,30.9,64.3,29.5,64.3L29.5,64.3z"/>
<path class="st0" d="M29.5,69.7c-1.4,0-2.6,1.2-2.6,2.6h5.4C32.2,70.9,30.9,69.7,29.5,69.7z"/>
<path class="st0" d="M18.8,64.3c-1.4,0-2.6,1.2-2.6,2.6l0,0h5.4C21.5,65.5,20.2,64.3,18.8,64.3L18.8,64.3z"/>
<path class="st0" d="M13.4,69.7c1.4,0,2.6-1.2,2.6-2.6h-5.4C10.7,68.5,11.9,69.7,13.4,69.7z"/>
<path class="st0" d="M10.7,72.4c0,1.4,1.2,2.6,2.6,2.6s2.6-1.2,2.6-2.6H10.7z"/>
<path class="st0" d="M24.1,69.7c1.4,0,2.6-1.2,2.6-2.6h-5.4C21.4,68.5,22.6,69.7,24.1,69.7z"/>
<path class="st0" d="M21.4,72.4c0,1.4,1.2,2.6,2.6,2.6s2.6-1.2,2.6-2.6H21.4z"/>
<path class="st0" d="M18.8,69.7c-1.4,0-2.6,1.2-2.6,2.6h5.4C21.5,70.9,20.2,69.7,18.8,69.7z"/>
<path class="st0" d="M61.6,64.3c-1.4,0-2.6,1.2-2.6,2.6l0,0h5.4C64.3,65.5,63.1,64.3,61.6,64.3L61.6,64.3z"/>
<path class="st0" d="M56.3,69.7c1.4,0,2.6-1.2,2.6-2.6h-5.4C53.6,68.5,54.8,69.7,56.3,69.7z"/>
<path class="st0" d="M53.6,72.4c0,1.4,1.2,2.7,2.7,2.7c1.5,0,2.7-1.2,2.7-2.7H53.6z"/>
<path class="st0" d="M61.6,69.7c-1.4,0-2.6,1.2-2.6,2.6h5.4C64.3,70.9,63.1,69.7,61.6,69.7z"/>
<path class="st0" d="M40.2,53.6c-1.4,0-2.6,1.2-2.6,2.6h5.4C42.9,54.8,41.7,53.6,40.2,53.6z"/>
<path class="st0" d="M34.9,59c1.4,0,2.6-1.2,2.6-2.6h-5.4C32.1,57.8,33.3,59,34.9,59L34.9,59z"/>
<path class="st0" d="M32.1,61.6c0,1.4,1.2,2.6,2.6,2.6c1.4,0,2.6-1.2,2.6-2.6H32.1z"/>
<path class="st0" d="M40.2,58.9c-1.4,0-2.6,1.2-2.6,2.6l0,0h5.4C42.9,60.1,41.7,58.9,40.2,58.9L40.2,58.9z"/>
<path class="st0" d="M50.9,53.6c-1.4,0-2.6,1.2-2.6,2.6h5.4C53.6,54.8,52.4,53.6,50.9,53.6z"/>
<path class="st0" d="M45.6,59c1.4,0,2.6-1.2,2.6-2.6h-5.4C42.9,57.8,44.1,59,45.6,59L45.6,59z"/>
<path class="st0" d="M42.9,61.6c0,1.4,1.2,2.6,2.6,2.6s2.6-1.2,2.6-2.6H42.9z"/>
<path class="st0" d="M50.9,58.9c-1.4,0-2.6,1.2-2.6,2.6l0,0h5.4C53.6,60.1,52.4,58.9,50.9,58.9L50.9,58.9z"/>
<path class="st0" d="M29.5,53.6c-1.4,0-2.6,1.2-2.6,2.6h5.4C32.2,54.8,30.9,53.6,29.5,53.6z"/>
<path class="st0" d="M29.5,58.9c-1.4,0-2.6,1.2-2.6,2.6l0,0h5.4C32.2,60.1,30.9,58.9,29.5,58.9L29.5,58.9z"/>
<path class="st0" d="M18.8,53.6c-1.4,0-2.6,1.2-2.6,2.6h5.4C21.5,54.8,20.2,53.6,18.8,53.6z"/>
<path class="st0" d="M13.4,59c1.4,0,2.6-1.2,2.6-2.6h-5.4C10.7,57.8,11.9,59,13.4,59z"/>
<path class="st0" d="M10.7,61.6c0,1.4,1.2,2.6,2.6,2.6s2.6-1.2,2.6-2.6H10.7z"/>
<path class="st0" d="M24.1,59c1.4,0,2.6-1.2,2.6-2.6h-5.4C21.4,57.8,22.6,59,24.1,59z"/>
<path class="st0" d="M21.4,61.6c0,1.4,1.2,2.6,2.6,2.6s2.6-1.2,2.6-2.6H21.4z"/>
<path class="st0" d="M18.8,58.9c-1.4,0-2.6,1.2-2.6,2.6l0,0h5.4C21.5,60.1,20.2,58.9,18.8,58.9L18.8,58.9z"/>
<path class="st0" d="M61.6,53.6c-1.4,0-2.6,1.2-2.6,2.6h5.4C64.3,54.8,63.1,53.6,61.6,53.6z"/>
<path class="st0" d="M56.3,59c1.4,0,2.6-1.2,2.6-2.6h-5.4C53.6,57.8,54.8,59,56.3,59z"/>
<path class="st0" d="M53.6,61.6c0,1.4,1.2,2.7,2.7,2.7c1.5,0,2.7-1.2,2.7-2.7H53.6z"/>
<path class="st0" d="M61.6,58.9c-1.4,0-2.6,1.2-2.6,2.6l0,0h5.4C64.3,60.1,63.1,58.9,61.6,58.9L61.6,58.9z"/>
<path class="st0" d="M40.2,42.9c-1.4,0-2.6,1.2-2.6,2.6l0,0h5.4C42.9,44.1,41.7,42.9,40.2,42.9L40.2,42.9z"/>
<path class="st0" d="M34.9,48.3c1.4,0,2.6-1.2,2.6-2.6l0,0h-5.4C32.1,47,33.3,48.3,34.9,48.3L34.9,48.3z"/>
<path class="st0" d="M32.1,50.9c0,1.4,1.2,2.6,2.6,2.6c1.4,0,2.6-1.2,2.6-2.6H32.1z"/>
<path class="st0" d="M40.2,48.2c-1.4,0-2.6,1.2-2.6,2.6h5.4C42.9,49.4,41.7,48.2,40.2,48.2z"/>
<path class="st0" d="M50.9,42.9c-1.4,0-2.6,1.2-2.6,2.6l0,0h5.4C53.6,44.1,52.4,42.9,50.9,42.9L50.9,42.9z"/>
<path class="st0" d="M45.6,48.3c1.4,0,2.6-1.2,2.6-2.6l0,0h-5.4C42.9,47,44.1,48.3,45.6,48.3L45.6,48.3z"/>
<path class="st0" d="M42.9,50.9c0,1.4,1.2,2.6,2.6,2.6s2.6-1.2,2.6-2.6H42.9z"/>
<path class="st0" d="M50.9,48.2c-1.4,0-2.6,1.2-2.6,2.6h5.4C53.6,49.4,52.4,48.2,50.9,48.2z"/>
<path class="st0" d="M29.5,42.9c-1.4,0-2.6,1.2-2.6,2.6l0,0h5.4C32.2,44.1,30.9,42.9,29.5,42.9L29.5,42.9z"/>
<path class="st0" d="M29.5,48.2c-1.4,0-2.6,1.2-2.6,2.6h5.4C32.2,49.4,30.9,48.2,29.5,48.2z"/>
<path class="st0" d="M18.8,42.9c-1.4,0-2.6,1.2-2.6,2.6l0,0h5.4C21.5,44.1,20.2,42.9,18.8,42.9L18.8,42.9z"/>
<path class="st0" d="M13.4,48.3c1.4,0,2.6-1.2,2.6-2.6l0,0h-5.4C10.7,47,11.9,48.3,13.4,48.3L13.4,48.3z"/>
<path class="st0" d="M10.7,50.9c0,1.4,1.2,2.6,2.6,2.6s2.6-1.2,2.6-2.6H10.7z"/>
<path class="st0" d="M24.1,48.3c1.4,0,2.6-1.2,2.6-2.6l0,0h-5.4C21.4,47,22.6,48.3,24.1,48.3L24.1,48.3z"/>
<path class="st0" d="M21.4,50.9c0,1.4,1.2,2.6,2.6,2.6s2.6-1.2,2.6-2.6H21.4z"/>
<path class="st0" d="M18.8,48.2c-1.4,0-2.6,1.2-2.6,2.6h5.4C21.5,49.4,20.2,48.2,18.8,48.2z"/>
<path class="st0" d="M61.6,42.9c-1.4,0-2.6,1.2-2.6,2.6l0,0h5.4C64.3,44.1,63.1,42.9,61.6,42.9L61.6,42.9z"/>
<path class="st0" d="M56.3,48.3c1.4,0,2.6-1.2,2.6-2.6l0,0h-5.4C53.6,47,54.8,48.3,56.3,48.3L56.3,48.3z"/>
<path class="st0" d="M53.6,50.9c0,1.4,1.2,2.7,2.7,2.7c1.5,0,2.7-1.2,2.7-2.7H53.6z"/>
<path class="st0" d="M61.6,48.2c-1.4,0-2.6,1.2-2.6,2.6h5.4C64.3,49.4,63.1,48.2,61.6,48.2z"/>
<path class="st0" d="M40.2,32.1c-1.4,0-2.6,1.2-2.6,2.6h5.4C42.9,33.3,41.7,32.1,40.2,32.1z"/>
<path class="st0" d="M34.9,37.5c1.4,0,2.6-1.2,2.6-2.6h-5.4C32.1,36.3,33.3,37.5,34.9,37.5L34.9,37.5z"/>
<path class="st0" d="M32.1,40.2c0,1.4,1.2,2.6,2.6,2.6c1.4,0,2.6-1.2,2.6-2.6H32.1z"/>
<path class="st0" d="M40.2,37.5c-1.4,0-2.6,1.2-2.6,2.6h5.4C42.9,38.7,41.7,37.5,40.2,37.5z"/>
<path class="st0" d="M50.9,32.1c-1.4,0-2.6,1.2-2.6,2.6h5.4C53.6,33.3,52.4,32.1,50.9,32.1z"/>
<path class="st0" d="M45.6,37.5c1.4,0,2.6-1.2,2.6-2.6h-5.4C42.9,36.3,44.1,37.5,45.6,37.5L45.6,37.5z"/>
<path class="st0" d="M42.9,40.2c0,1.4,1.2,2.6,2.6,2.6s2.6-1.2,2.6-2.6H42.9z"/>
<path class="st0" d="M50.9,37.5c-1.4,0-2.6,1.2-2.6,2.6h5.4C53.6,38.7,52.4,37.5,50.9,37.5z"/>
<path class="st0" d="M29.5,32.1c-1.4,0-2.6,1.2-2.6,2.6h5.4C32.2,33.3,30.9,32.1,29.5,32.1z"/>
<path class="st0" d="M29.5,37.5c-1.4,0-2.6,1.2-2.6,2.6h5.4C32.2,38.7,30.9,37.5,29.5,37.5z"/>
<path class="st0" d="M18.8,32.1c-1.4,0-2.6,1.2-2.6,2.6h5.4C21.5,33.3,20.2,32.1,18.8,32.1z"/>
<path class="st0" d="M13.4,37.5c1.4,0,2.6-1.2,2.6-2.6h-5.4C10.7,36.3,11.9,37.5,13.4,37.5z"/>
<path class="st0" d="M10.7,40.2c0,1.4,1.2,2.6,2.6,2.6s2.6-1.2,2.6-2.6H10.7z"/>
<path class="st0" d="M24.1,37.5c1.4,0,2.6-1.2,2.6-2.6h-5.4C21.4,36.3,22.6,37.5,24.1,37.5z"/>
<path class="st0" d="M21.4,40.2c0,1.4,1.2,2.6,2.6,2.6s2.6-1.2,2.6-2.6H21.4z"/>
<path class="st0" d="M18.8,37.5c-1.4,0-2.6,1.2-2.6,2.6h5.4C21.5,38.7,20.2,37.5,18.8,37.5z"/>
<path class="st0" d="M61.6,32.1c-1.4,0-2.6,1.2-2.6,2.6h5.4C64.3,33.3,63.1,32.1,61.6,32.1z"/>
<path class="st0" d="M56.3,37.5c1.4,0,2.6-1.2,2.6-2.6h-5.4C53.6,36.3,54.8,37.5,56.3,37.5z"/>
<path class="st0" d="M53.6,40.2c0,1.4,1.2,2.7,2.7,2.7c1.5,0,2.7-1.2,2.7-2.7H53.6z"/>
<path class="st0" d="M61.6,37.5c-1.4,0-2.6,1.2-2.6,2.6h5.4C64.3,38.7,63.1,37.5,61.6,37.5z"/>
<path class="st0" d="M40.2,21.4c-1.4,0-2.6,1.2-2.6,2.6h5.4C42.9,22.6,41.7,21.4,40.2,21.4z"/>
<path class="st0" d="M34.9,26.8c1.4,0,2.6-1.2,2.6-2.6h-5.4C32.1,25.6,33.3,26.8,34.9,26.8L34.9,26.8z"/>
<path class="st0" d="M32.1,29.5c0,1.4,1.2,2.6,2.6,2.6c1.4,0,2.6-1.2,2.6-2.6H32.1z"/>
<path class="st0" d="M40.2,26.8c-1.4,0-2.6,1.2-2.6,2.6h5.4C42.9,28,41.7,26.8,40.2,26.8z"/>
<path class="st0" d="M50.9,21.4c-1.4,0-2.6,1.2-2.6,2.6h5.4C53.6,22.6,52.4,21.4,50.9,21.4z"/>
<path class="st0" d="M45.6,26.8c1.4,0,2.6-1.2,2.6-2.6h-5.4C42.9,25.6,44.1,26.8,45.6,26.8L45.6,26.8z"/>
<path class="st0" d="M42.9,29.5c0,1.4,1.2,2.6,2.6,2.6s2.6-1.2,2.6-2.6H42.9z"/>
<path class="st0" d="M50.9,26.8c-1.4,0-2.6,1.2-2.6,2.6h5.4C53.6,28,52.4,26.8,50.9,26.8z"/>
<path class="st0" d="M29.5,21.4c-1.4,0-2.6,1.2-2.6,2.6h5.4C32.2,22.6,30.9,21.4,29.5,21.4z"/>
<path class="st0" d="M29.5,26.8c-1.4,0-2.6,1.2-2.6,2.6h5.4C32.2,28,30.9,26.8,29.5,26.8z"/>
<path class="st0" d="M18.8,21.4c-1.4,0-2.6,1.2-2.6,2.6h5.4C21.5,22.6,20.2,21.4,18.8,21.4z"/>
<path class="st0" d="M13.4,26.8c1.4,0,2.6-1.2,2.6-2.6h-5.4C10.7,25.6,11.9,26.8,13.4,26.8z"/>
<path class="st0" d="M10.7,29.5c0,1.4,1.2,2.6,2.6,2.6s2.6-1.2,2.6-2.6H10.7z"/>
<path class="st0" d="M24.1,26.8c1.4,0,2.6-1.2,2.6-2.6h-5.4C21.4,25.6,22.6,26.8,24.1,26.8z"/>
<path class="st0" d="M21.4,29.5c0,1.4,1.2,2.6,2.6,2.6s2.6-1.2,2.6-2.6H21.4z"/>
<path class="st0" d="M18.8,26.8c-1.4,0-2.6,1.2-2.6,2.6h5.4C21.5,28,20.2,26.8,18.8,26.8z"/>
<path class="st0" d="M61.6,21.4c-1.4,0-2.6,1.2-2.6,2.6h5.4C64.3,22.6,63.1,21.4,61.6,21.4z"/>
<path class="st0" d="M56.3,26.8c1.4,0,2.6-1.2,2.6-2.6h-5.4C53.6,25.6,54.8,26.8,56.3,26.8z"/>
<path class="st0" d="M53.6,29.5c0,1.4,1.2,2.7,2.7,2.7c1.5,0,2.7-1.2,2.7-2.7H53.6z"/>
<path class="st0" d="M61.6,26.8c-1.4,0-2.6,1.2-2.6,2.6h5.4C64.3,28,63.1,26.8,61.6,26.8z"/>
<path class="st0" d="M40.2,10.7c-1.4,0-2.6,1.2-2.6,2.6h5.4C42.9,11.9,41.7,10.7,40.2,10.7z"/>
<path class="st0" d="M34.9,16.1c1.4,0,2.6-1.2,2.6-2.6l0,0h-5.4C32.1,14.9,33.3,16.1,34.9,16.1L34.9,16.1z"/>
<path class="st0" d="M32.1,18.8c0,1.4,1.2,2.6,2.6,2.6c1.4,0,2.6-1.2,2.6-2.6H32.1z"/>
<path class="st0" d="M40.2,16.1c-1.4,0-2.6,1.2-2.6,2.6l0,0h5.4C42.9,17.3,41.7,16.1,40.2,16.1L40.2,16.1z"/>
<path class="st0" d="M50.9,10.7c-1.4,0-2.6,1.2-2.6,2.6h5.4C53.6,11.9,52.4,10.7,50.9,10.7z"/>
<path class="st0" d="M45.6,16.1c1.4,0,2.6-1.2,2.6-2.6l0,0h-5.4C42.9,14.9,44.1,16.1,45.6,16.1L45.6,16.1z"/>
<path class="st0" d="M42.9,18.8c0,1.4,1.2,2.6,2.6,2.6s2.6-1.2,2.6-2.6H42.9z"/>
<path class="st0" d="M50.9,16.1c-1.4,0-2.6,1.2-2.6,2.6l0,0h5.4C53.6,17.3,52.4,16.1,50.9,16.1L50.9,16.1z"/>
<path class="st0" d="M29.5,10.7c-1.4,0-2.6,1.2-2.6,2.6h5.4C32.2,11.9,30.9,10.7,29.5,10.7z"/>
<path class="st0" d="M29.5,16.1c-1.4,0-2.6,1.2-2.6,2.6l0,0h5.4C32.2,17.3,30.9,16.1,29.5,16.1L29.5,16.1z"/>
<path class="st0" d="M18.8,10.7c-1.4,0-2.6,1.2-2.6,2.6h5.4C21.5,11.9,20.2,10.7,18.8,10.7z"/>
<path class="st0" d="M13.4,16.1c1.4,0,2.6-1.2,2.6-2.6l0,0h-5.4C10.7,14.9,11.9,16.1,13.4,16.1L13.4,16.1z"/>
<path class="st0" d="M10.7,18.8c0,1.4,1.2,2.6,2.6,2.6s2.6-1.2,2.6-2.6H10.7z"/>
<path class="st0" d="M24.1,16.1c1.4,0,2.6-1.2,2.6-2.6l0,0h-5.4C21.4,14.9,22.6,16.1,24.1,16.1L24.1,16.1z"/>
<path class="st0" d="M21.4,18.8c0,1.4,1.2,2.6,2.6,2.6s2.6-1.2,2.6-2.6H21.4z"/>
<path class="st0" d="M18.8,16.1c-1.4,0-2.6,1.2-2.6,2.6l0,0h5.4C21.5,17.3,20.2,16.1,18.8,16.1L18.8,16.1z"/>
<path class="st0" d="M61.6,10.7c-1.4,0-2.6,1.2-2.6,2.6h5.4C64.3,11.9,63.1,10.7,61.6,10.7z"/>
<path class="st0" d="M56.3,16.1c1.4,0,2.6-1.2,2.6-2.6l0,0h-5.4C53.6,14.9,54.8,16.1,56.3,16.1L56.3,16.1z"/>
<path class="st0" d="M53.6,18.8c0,1.4,1.2,2.7,2.7,2.7c1.5,0,2.7-1.2,2.7-2.7H53.6z"/>
<path class="st0" d="M61.6,16.1c-1.4,0-2.6,1.2-2.6,2.6l0,0h5.4C64.3,17.3,63.1,16.1,61.6,16.1L61.6,16.1z"/>
<path class="st0" d="M72.4,75c-1.4,0-2.6,1.2-2.6,2.6h5.4C75.1,76.3,73.8,75,72.4,75z"/>
<path class="st0" d="M67,80.4c1.4,0,2.6-1.2,2.6-2.6h-5.4C64.3,79.2,65.5,80.4,67,80.4z"/>
<path class="st0" d="M64.3,83.1c0,1.4,1.2,2.6,2.6,2.6s2.6-1.2,2.6-2.6H64.3z"/>
<path class="st0" d="M72.4,80.4c-1.4,0-2.6,1.2-2.6,2.6h5.4C75.1,81.6,73.8,80.4,72.4,80.4z"/>
<path class="st0" d="M8.1,64.3c-1.4,0-2.6,1.2-2.6,2.6l0,0h5.4C10.8,65.5,9.5,64.3,8.1,64.3L8.1,64.3z"/>
<path class="st0" d="M2.7,69.7c1.4,0,2.6-1.2,2.6-2.6l0,0H0C0,68.5,1.2,69.7,2.7,69.7L2.7,69.7z"/>
<path class="st0" d="M0,72.4C0,73.8,1.2,75,2.6,75s2.6-1.2,2.6-2.6H0z"/>
<path class="st0" d="M8.1,69.6c-1.4,0-2.6,1.2-2.6,2.6h5.4C10.8,70.8,9.5,69.6,8.1,69.6z"/>
<path class="st0" d="M72.4,64.3c-1.4,0-2.6,1.2-2.6,2.6l0,0h5.4C75.1,65.5,73.8,64.3,72.4,64.3L72.4,64.3z"/>
<path class="st0" d="M67,69.7c1.4,0,2.6-1.2,2.6-2.6l0,0h-5.4C64.3,68.4,65.5,69.7,67,69.7L67,69.7z"/>
<path class="st0" d="M64.3,72.4c0,1.4,1.2,2.6,2.6,2.6s2.6-1.2,2.6-2.6H64.3z"/>
<path class="st0" d="M72.4,69.6c-1.4,0-2.6,1.2-2.6,2.6h5.4C75.1,70.8,73.8,69.6,72.4,69.6z"/>
<path class="st0" d="M8.1,53.6c-1.4,0-2.6,1.2-2.6,2.6l0,0h5.4C10.8,54.8,9.5,53.6,8.1,53.6L8.1,53.6z"/>
<path class="st0" d="M2.7,59c1.4,0,2.6-1.2,2.6-2.6H0C0,57.7,1.2,59,2.7,59L2.7,59z"/>
<path class="st0" d="M0,61.6c0,1.4,1.2,2.6,2.6,2.6s2.6-1.2,2.6-2.6H0z"/>
<path class="st0" d="M8.1,58.9c-1.4,0-2.6,1.2-2.6,2.6h5.4C10.8,60.1,9.5,58.9,8.1,58.9z"/>
<path class="st0" d="M72.4,53.6c-1.4,0-2.6,1.2-2.6,2.6l0,0h5.4C75.1,54.8,73.8,53.6,72.4,53.6L72.4,53.6z"/>
<path class="st0" d="M67,59c1.4,0,2.6-1.2,2.6-2.6h-5.4C64.3,57.7,65.5,59,67,59z"/>
<path class="st0" d="M64.3,61.6c0,1.4,1.2,2.6,2.6,2.6s2.6-1.2,2.6-2.6H64.3z"/>
<path class="st0" d="M72.4,58.9c-1.4,0-2.6,1.2-2.6,2.6h5.4C75.1,60.1,73.8,58.9,72.4,58.9z"/>
<path class="st0" d="M8.1,42.9c-1.4,0-2.6,1.2-2.6,2.6h5.4C10.8,44.1,9.5,42.9,8.1,42.9z"/>
<path class="st0" d="M2.7,48.2c1.4,0,2.6-1.2,2.6-2.6H0C0,47,1.2,48.2,2.7,48.2L2.7,48.2z"/>
<path class="st0" d="M0,50.9c0,1.4,1.2,2.6,2.6,2.6s2.6-1.2,2.6-2.6H0z"/>
<path class="st0" d="M8.1,48.2c-1.4,0-2.6,1.2-2.6,2.6h5.4C10.8,49.4,9.5,48.2,8.1,48.2z"/>
<path class="st0" d="M72.4,42.9c-1.4,0-2.6,1.2-2.6,2.6h5.4C75.1,44.1,73.8,42.9,72.4,42.9z"/>
<path class="st0" d="M67,48.2c1.4,0,2.6-1.2,2.6-2.6h-5.4C64.3,47,65.5,48.2,67,48.2z"/>
<path class="st0" d="M64.3,50.9c0,1.4,1.2,2.6,2.6,2.6s2.6-1.2,2.6-2.6H64.3z"/>
<path class="st0" d="M72.4,48.2c-1.4,0-2.6,1.2-2.6,2.6h5.4C75.1,49.4,73.8,48.2,72.4,48.2z"/>
<path class="st0" d="M8.1,32.1c-1.4,0-2.6,1.2-2.6,2.6h5.4C10.8,33.3,9.5,32.1,8.1,32.1z"/>
<path class="st0" d="M2.7,37.5c1.4,0,2.6-1.2,2.6-2.6H0C0,36.3,1.2,37.5,2.7,37.5L2.7,37.5z"/>
<path class="st0" d="M0,40.2c0,1.4,1.2,2.6,2.6,2.6s2.6-1.2,2.6-2.6H0z"/>
<path class="st0" d="M8.1,37.5c-1.4,0-2.6,1.2-2.6,2.6h5.4C10.8,38.7,9.5,37.5,8.1,37.5z"/>
<path class="st0" d="M72.4,32.1c-1.4,0-2.6,1.2-2.6,2.6h5.4C75.1,33.3,73.8,32.1,72.4,32.1z"/>
<path class="st0" d="M67,37.5c1.4,0,2.6-1.2,2.6-2.6h-5.4C64.3,36.3,65.5,37.5,67,37.5z"/>
<path class="st0" d="M64.3,40.2c0,1.4,1.2,2.6,2.6,2.6s2.6-1.2,2.6-2.6H64.3z"/>
<path class="st0" d="M72.4,37.5c-1.4,0-2.6,1.2-2.6,2.6h5.4C75.1,38.7,73.8,37.5,72.4,37.5z"/>
<path class="st0" d="M8.1,21.4c-1.4,0-2.6,1.2-2.6,2.6h5.4C10.8,22.6,9.5,21.4,8.1,21.4z"/>
<path class="st0" d="M2.7,26.8c1.4,0,2.6-1.2,2.6-2.6H0C0,25.6,1.2,26.8,2.7,26.8L2.7,26.8z"/>
<path class="st0" d="M0,29.5c0,1.4,1.2,2.6,2.6,2.6s2.6-1.2,2.6-2.6H0z"/>
<path class="st0" d="M8.1,26.8c-1.4,0-2.6,1.2-2.6,2.6l0,0h5.4C10.8,28,9.5,26.8,8.1,26.8L8.1,26.8z"/>
<path class="st0" d="M72.4,21.4c-1.4,0-2.6,1.2-2.6,2.6h5.4C75.1,22.6,73.8,21.4,72.4,21.4z"/>
<path class="st0" d="M67,26.8c1.4,0,2.6-1.2,2.6-2.6h-5.4C64.3,25.6,65.5,26.8,67,26.8z"/>
<path class="st0" d="M64.3,29.5c0,1.4,1.2,2.6,2.6,2.6s2.6-1.2,2.6-2.6H64.3z"/>
<path class="st0" d="M72.4,26.8c-1.4,0-2.6,1.2-2.6,2.6l0,0h5.4C75.1,28,73.8,26.8,72.4,26.8L72.4,26.8z"/>
<path class="st0" d="M8.1,10.7c-1.4,0-2.6,1.2-2.6,2.6h5.4C10.8,11.9,9.5,10.7,8.1,10.7z"/>
<path class="st0" d="M2.7,16.1c1.4,0,2.6-1.2,2.6-2.6H0C0,14.9,1.2,16.1,2.7,16.1L2.7,16.1z"/>
<path class="st0" d="M0,18.8c0,1.4,1.2,2.6,2.6,2.6s2.6-1.2,2.6-2.6H0z"/>
<path class="st0" d="M8.1,16.1c-1.4,0-2.6,1.2-2.6,2.6l0,0h5.4C10.8,17.3,9.5,16.1,8.1,16.1L8.1,16.1z"/>
<path class="st0" d="M72.4,10.7c-1.4,0-2.6,1.2-2.6,2.6h5.4C75.1,11.9,73.8,10.7,72.4,10.7z"/>
<path class="st0" d="M67,16.1c1.4,0,2.6-1.2,2.6-2.6h-5.4C64.3,14.9,65.5,16.1,67,16.1z"/>
<path class="st0" d="M64.3,18.8c0,1.4,1.2,2.6,2.6,2.6s2.6-1.2,2.6-2.6H64.3z"/>
<path class="st0" d="M72.4,16.1c-1.4,0-2.6,1.2-2.6,2.6l0,0h5.4C75.1,17.3,73.8,16.1,72.4,16.1L72.4,16.1z"/>
<path class="st0" d="M8.1,0C6.6,0,5.4,1.2,5.4,2.6h5.4C10.8,1.2,9.5,0,8.1,0z"/>
<path class="st0" d="M2.7,5.4c1.4,0,2.6-1.2,2.6-2.6l0,0H0C0,4.2,1.2,5.4,2.7,5.4L2.7,5.4z"/>
<path class="st0" d="M0,8.1c0,1.4,1.2,2.6,2.6,2.6s2.6-1.2,2.6-2.6H0z"/>
<path class="st0" d="M8.1,5.4C6.6,5.4,5.4,6.6,5.4,8l0,0h5.4C10.8,6.6,9.5,5.4,8.1,5.4L8.1,5.4z"/>
<path class="st0" d="M72.4,0c-1.4,0-2.6,1.2-2.6,2.6h5.4C75.1,1.2,73.8,0,72.4,0z"/>
<path class="st0" d="M67,5.4c1.4,0,2.6-1.2,2.6-2.6l0,0h-5.4C64.3,4.2,65.5,5.4,67,5.4L67,5.4z"/>
<path class="st0" d="M64.3,8.1c0,1.4,1.2,2.6,2.6,2.6s2.6-1.2,2.6-2.6H64.3z"/>
<path class="st0" d="M72.4,5.4c-1.4,0-2.6,1.2-2.6,2.6l0,0h5.4C75.1,6.6,73.8,5.4,72.4,5.4L72.4,5.4z"/>
<path class="st0" d="M61.6,0C60.2,0,59,1.2,59,2.6h5.4C64.3,1.2,63.1,0,61.6,0z"/>
<path class="st0" d="M56.3,5.4c1.4,0,2.6-1.2,2.6-2.6l0,0h-5.4C53.6,4.2,54.8,5.4,56.3,5.4L56.3,5.4z"/>
<path class="st0" d="M53.6,8.1c0,1.4,1.2,2.6,2.6,2.6s2.6-1.2,2.6-2.6H53.6z"/>
<path class="st0" d="M61.6,5.4C60.2,5.4,59,6.6,59,8l0,0h5.4C64.3,6.6,63.1,5.4,61.6,5.4L61.6,5.4z"/>
<path class="st0" d="M50.9,0c-1.4,0-2.6,1.2-2.6,2.6h5.4C53.6,1.2,52.4,0,50.9,0z"/>
<path class="st0" d="M45.6,5.4c1.4,0,2.6-1.2,2.6-2.6l0,0h-5.4C42.9,4.2,44.1,5.4,45.6,5.4L45.6,5.4z"/>
<path class="st0" d="M42.9,8.1c0,1.4,1.2,2.6,2.6,2.6s2.6-1.2,2.6-2.6H42.9z"/>
<path class="st0" d="M50.9,5.4c-1.4,0-2.6,1.2-2.6,2.6l0,0h5.4C53.6,6.6,52.4,5.4,50.9,5.4L50.9,5.4z"/>
<path class="st0" d="M40.2,0c-1.4,0-2.6,1.2-2.6,2.6h5.4C42.9,1.2,41.7,0,40.2,0z"/>
<path class="st0" d="M34.9,5.4c1.4,0,2.6-1.2,2.6-2.6l0,0h-5.4C32.1,4.2,33.3,5.4,34.9,5.4L34.9,5.4z"/>
<path class="st0" d="M32.1,8.1c0,1.4,1.2,2.6,2.6,2.6c1.4,0,2.6-1.2,2.6-2.6H32.1z"/>
<path class="st0" d="M40.2,5.4c-1.4,0-2.6,1.2-2.6,2.6l0,0h5.4C42.9,6.6,41.7,5.4,40.2,5.4L40.2,5.4z"/>
<path class="st0" d="M29.5,0c-1.4,0-2.6,1.2-2.6,2.6h5.4C32.2,1.2,30.9,0,29.5,0z"/>
<path class="st0" d="M24.1,5.4c1.4,0,2.6-1.2,2.6-2.6l0,0h-5.4C21.4,4.2,22.6,5.4,24.1,5.4L24.1,5.4z"/>
<path class="st0" d="M21.4,8.1c0,1.4,1.2,2.6,2.6,2.6s2.6-1.2,2.6-2.6H21.4z"/>
<path class="st0" d="M29.5,5.4c-1.4,0-2.6,1.2-2.6,2.6l0,0h5.4C32.2,6.6,30.9,5.4,29.5,5.4L29.5,5.4z"/>
<path class="st0" d="M18.8,0c-1.4,0-2.6,1.2-2.6,2.6h5.4C21.5,1.2,20.2,0,18.8,0z"/>
<path class="st0" d="M13.4,5.4c1.4,0,2.6-1.2,2.6-2.6l0,0h-5.4C10.7,4.2,11.9,5.4,13.4,5.4L13.4,5.4z"/>
<path class="st0" d="M10.7,8.1c0,1.4,1.2,2.6,2.6,2.6S16,9.5,16,8.1H10.7z"/>
<path class="st0" d="M18.8,5.4c-1.4,0-2.6,1.2-2.6,2.6l0,0h5.4C21.5,6.6,20.2,5.4,18.8,5.4L18.8,5.4z"/>
<path class="st0" d="M50.9,139.3c-1.4,0-2.6,1.2-2.6,2.6l0,0h5.4C53.6,140.5,52.4,139.3,50.9,139.3L50.9,139.3z"/>
<path class="st0" d="M45.6,144.7c1.4,0,2.6-1.2,2.6-2.6h-5.4C42.9,143.5,44.1,144.7,45.6,144.7L45.6,144.7z"/>
<path class="st0" d="M42.9,147.4c0,1.4,1.2,2.6,2.6,2.6s2.6-1.2,2.6-2.6H42.9z"/>
<path class="st0" d="M50.9,144.7c-1.4,0-2.6,1.2-2.6,2.6h5.4C53.6,145.9,52.4,144.7,50.9,144.7z"/>
<path class="st0" d="M61.6,139.3c-1.4,0-2.6,1.2-2.6,2.6l0,0h5.4C64.3,140.5,63.1,139.3,61.6,139.3L61.6,139.3z"/>
<path class="st0" d="M56.3,144.7c1.4,0,2.6-1.2,2.6-2.6h-5.4C53.6,143.5,54.8,144.7,56.3,144.7L56.3,144.7z"/>
<path class="st0" d="M53.6,147.4c0,1.4,1.2,2.6,2.6,2.6s2.6-1.2,2.6-2.6H53.6z"/>
<path class="st0" d="M61.6,144.7c-1.4,0-2.6,1.2-2.6,2.6h5.4C64.3,145.9,63.1,144.7,61.6,144.7z"/>
<path class="st0" d="M67,144.7c1.4,0,2.6-1.2,2.6-2.6h-5.4C64.3,143.5,65.5,144.7,67,144.7L67,144.7z"/>
<path class="st0" d="M64.3,147.4c0,1.4,1.2,2.6,2.6,2.6s2.6-1.2,2.6-2.6H64.3z"/>
<path class="st0" d="M8.1,139.3c-1.4,0-2.6,1.2-2.6,2.6l0,0h5.4C10.8,140.5,9.5,139.3,8.1,139.3L8.1,139.3z"/>
<path class="st0" d="M8.1,144.7c-1.4,0-2.6,1.2-2.6,2.6h5.4C10.8,145.9,9.5,144.7,8.1,144.7z"/>
<path class="st0" d="M29.5,139.3c-1.4,0-2.6,1.2-2.6,2.6l0,0h5.4C32.2,140.5,30.9,139.3,29.5,139.3L29.5,139.3z"/>
<path class="st0" d="M24.1,144.7c1.4,0,2.6-1.2,2.6-2.6h-5.4C21.4,143.5,22.6,144.7,24.1,144.7L24.1,144.7z"/>
<path class="st0" d="M21.4,147.4c0,1.4,1.2,2.6,2.6,2.6s2.6-1.2,2.6-2.6H21.4z"/>
<path class="st0" d="M29.5,144.7c-1.4,0-2.6,1.2-2.6,2.6h5.4C32.2,145.9,30.9,144.7,29.5,144.7z"/>
<path class="st0" d="M18.8,139.3c-1.4,0-2.6,1.2-2.6,2.6l0,0h5.4C21.5,140.5,20.2,139.3,18.8,139.3L18.8,139.3z"/>
<path class="st0" d="M13.4,144.7c1.4,0,2.6-1.2,2.6-2.6h-5.4C10.7,143.5,11.9,144.7,13.4,144.7L13.4,144.7z"/>
<path class="st0" d="M10.7,147.4c0,1.4,1.2,2.6,2.6,2.6s2.6-1.2,2.6-2.6H10.7z"/>
<path class="st0" d="M18.8,144.7c-1.4,0-2.6,1.2-2.6,2.6h5.4C21.5,145.9,20.2,144.7,18.8,144.7z"/>
</svg>
