<?xml version="1.0" encoding="UTF-8" standalone="no"?>
<svg width="463px" height="462px" viewBox="0 0 463 462" version="1.1" xmlns="http://www.w3.org/2000/svg" xmlns:xlink="http://www.w3.org/1999/xlink">
    <!-- Generator: Sketch 3.7.2 (28276) - http://www.bohemiancoding.com/sketch -->
    <title>Group</title>
    <desc>Created with Sketch.</desc>
    <defs></defs>
    <g id="01-Index" stroke="none" stroke-width="1" fill="none" fill-rule="evenodd">
        <g id="01-Lascom-Home-D-parallax-v.1" transform="translate(0.000000, -6.000000)" fill="#FFFFFF">
            <g id="Group-3">
                <g id="Group" transform="translate(0.000000, 6.000000)">
                    <path d="M21.7998,433.143 C17.8158,433.143 14.5818,436.377 14.5818,440.361 L29.0178,440.361 C29.0178,436.377 25.7898,433.143 21.7998,433.143" id="Fill-545"></path>
                    <path d="M7.365,447.5808 C11.349,447.5808 14.583,444.3468 14.583,440.3628 L0.141,440.3628 C0.141,444.3468 3.375,447.5808 7.365,447.5808" id="Fill-547"></path>
                    <path d="M0.1434,454.7646 C0.1434,458.7546 3.3774,461.9826 7.3614,461.9826 C11.3454,461.9826 14.5794,458.7546 14.5794,454.7646 L0.1434,454.7646 Z" id="Fill-548"></path>
                    <path d="M21.7998,447.546 C17.8098,447.546 14.5818,450.78 14.5818,454.764 L29.0178,454.764 C29.0178,450.78 25.7898,447.546 21.7998,447.546" id="Fill-549"></path>
                    <path d="M50.6748,418.6524 C46.6848,418.6524 43.4568,421.8864 43.4568,425.8704 L57.8928,425.8704 C57.8928,421.8864 54.6588,418.6524 50.6748,418.6524" id="Fill-550"></path>
                    <path d="M36.2388,433.0902 C40.2228,433.0902 43.4568,429.8562 43.4568,425.8722 L29.0208,425.8722 C29.0208,429.8562 32.2488,433.0902 36.2388,433.0902" id="Fill-551"></path>
                    <path d="M29.0184,440.274 C29.0184,444.258 32.2524,447.492 36.2364,447.492 C40.2204,447.492 43.4544,444.258 43.4544,440.274 L29.0184,440.274 Z" id="Fill-552"></path>
                    <path d="M50.6748,433.0554 C46.6848,433.0554 43.4568,436.2894 43.4568,440.2734 L57.8928,440.2734 C57.8928,436.2894 54.6588,433.0554 50.6748,433.0554" id="Fill-553"></path>
                    <path d="M79.5498,433.143 C75.5658,433.143 72.3318,436.377 72.3318,440.361 L86.7678,440.361 C86.7678,436.377 83.5398,433.143 79.5498,433.143" id="Fill-554"></path>
                    <path d="M65.115,447.5808 C69.099,447.5808 72.333,444.3468 72.333,440.3628 L57.891,440.3628 C57.891,444.3468 61.125,447.5808 65.115,447.5808" id="Fill-555"></path>
                    <path d="M57.8934,454.7646 C57.8934,458.7546 61.1274,461.9826 65.1114,461.9826 C69.0954,461.9826 72.3294,458.7546 72.3294,454.7646 L57.8934,454.7646 Z" id="Fill-556"></path>
                    <path d="M79.5498,447.546 C75.5598,447.546 72.3318,450.78 72.3318,454.764 L86.7678,454.764 C86.7678,450.78 83.5398,447.546 79.5498,447.546" id="Fill-557"></path>
                    <path d="M108.4248,418.6524 C104.4348,418.6524 101.2068,421.8864 101.2068,425.8704 L115.6428,425.8704 C115.6428,421.8864 112.4088,418.6524 108.4248,418.6524" id="Fill-558"></path>
                    <path d="M93.9888,433.0902 C97.9728,433.0902 101.2068,429.8562 101.2068,425.8722 L86.7708,425.8722 C86.7708,429.8562 89.9988,433.0902 93.9888,433.0902" id="Fill-559"></path>
                    <path d="M86.7684,440.274 C86.7684,444.258 90.0024,447.492 93.9864,447.492 C97.9704,447.492 101.2044,444.258 101.2044,440.274 L86.7684,440.274 Z" id="Fill-560"></path>
                    <path d="M108.4248,433.0554 C104.4348,433.0554 101.2068,436.2894 101.2068,440.2734 L115.6428,440.2734 C115.6428,436.2894 112.4088,433.0554 108.4248,433.0554" id="Fill-561"></path>
                    <path d="M137.2998,433.143 C133.3158,433.143 130.0818,436.377 130.0818,440.361 L144.5178,440.361 C144.5178,436.377 141.2898,433.143 137.2998,433.143" id="Fill-562"></path>
                    <path d="M122.865,447.5808 C126.849,447.5808 130.083,444.3468 130.083,440.3628 L115.641,440.3628 C115.641,444.3468 118.875,447.5808 122.865,447.5808" id="Fill-563"></path>
                    <path d="M115.6434,454.7646 C115.6434,458.7546 118.8774,461.9826 122.8614,461.9826 C126.8454,461.9826 130.0794,458.7546 130.0794,454.7646 L115.6434,454.7646 Z" id="Fill-564"></path>
                    <path d="M137.2998,447.546 C133.3098,447.546 130.0818,450.78 130.0818,454.764 L144.5178,454.764 C144.5178,450.78 141.2898,447.546 137.2998,447.546" id="Fill-565"></path>
                    <path d="M166.1748,418.6524 C162.1848,418.6524 158.9568,421.8864 158.9568,425.8704 L173.3928,425.8704 C173.3928,421.8864 170.1588,418.6524 166.1748,418.6524" id="Fill-566"></path>
                    <path d="M151.7388,433.0902 C155.7228,433.0902 158.9568,429.8562 158.9568,425.8722 L144.5208,425.8722 C144.5208,429.8562 147.7488,433.0902 151.7388,433.0902" id="Fill-567"></path>
                    <path d="M144.5184,440.274 C144.5184,444.258 147.7524,447.492 151.7364,447.492 C155.7204,447.492 158.9544,444.258 158.9544,440.274 L144.5184,440.274 Z" id="Fill-568"></path>
                    <path d="M166.1748,433.0554 C162.1848,433.0554 158.9568,436.2894 158.9568,440.2734 L173.3928,440.2734 C173.3928,436.2894 170.1588,433.0554 166.1748,433.0554" id="Fill-569"></path>
                    <path d="M223.9248,375.375 C219.9348,375.375 216.7068,378.609 216.7068,382.593 L231.1428,382.593 C231.1428,378.609 227.9088,375.375 223.9248,375.375" id="Fill-570"></path>
                    <path d="M209.4888,389.8122 C213.4728,389.8122 216.7068,386.5782 216.7068,382.5942 L202.2708,382.5942 C202.2708,386.5782 205.4988,389.8122 209.4888,389.8122" id="Fill-571"></path>
                    <path d="M202.2684,396.9966 C202.2684,400.9866 205.5024,404.2146 209.4864,404.2146 C213.4704,404.2146 216.7044,400.9866 216.7044,396.9966 L202.2684,396.9966 Z" id="Fill-572"></path>
                    <path d="M223.9248,389.7774 C219.9348,389.7774 216.7068,393.0114 216.7068,396.9954 L231.1428,396.9954 C231.1428,393.0114 227.9088,389.7774 223.9248,389.7774" id="Fill-573"></path>
                    <path d="M195.051,375.375 C191.061,375.375 187.833,378.609 187.833,382.593 L202.269,382.593 C202.269,378.609 199.041,375.375 195.051,375.375" id="Fill-574"></path>
                    <path d="M180.615,389.8122 C184.599,389.8122 187.833,386.5782 187.833,382.5942 L173.397,382.5942 C173.397,386.5782 176.625,389.8122 180.615,389.8122" id="Fill-575"></path>
                    <path d="M173.3934,396.9966 C173.3934,400.9866 176.6274,404.2146 180.6114,404.2146 C184.6014,404.2146 187.8294,400.9866 187.8294,396.9966 L173.3934,396.9966 L173.3934,396.9966 Z" id="Fill-576"></path>
                    <path d="M195.051,389.7774 C191.061,389.7774 187.833,393.0114 187.833,396.9954 L202.269,396.9954 C202.269,393.0114 199.041,389.7774 195.051,389.7774" id="Fill-577"></path>
                    <path d="M281.6736,375.375 C277.6836,375.375 274.4556,378.609 274.4556,382.593 L288.8916,382.593 C288.8916,378.609 285.6636,375.375 281.6736,375.375" id="Fill-578"></path>
                    <path d="M267.2376,389.8122 C271.2216,389.8122 274.4556,386.5782 274.4556,382.5942 L260.0196,382.5942 C260.0196,386.5782 263.2476,389.8122 267.2376,389.8122" id="Fill-579"></path>
                    <path d="M260.0142,396.9966 C260.0142,400.9866 263.2482,404.2146 267.2382,404.2146 C271.2222,404.2146 274.4562,400.9866 274.4562,396.9966 L260.0142,396.9966 L260.0142,396.9966 Z" id="Fill-580"></path>
                    <path d="M281.6736,389.7774 C277.6836,389.7774 274.4556,393.0114 274.4556,396.9954 L288.8916,396.9954 C288.8916,393.0114 285.6636,389.7774 281.6736,389.7774" id="Fill-581"></path>
                    <path d="M252.7998,375.375 C248.8098,375.375 245.5818,378.609 245.5818,382.593 L260.0178,382.593 C260.0178,378.609 256.7838,375.375 252.7998,375.375" id="Fill-582"></path>
                    <path d="M238.3638,389.8122 C242.3478,389.8122 245.5818,386.5782 245.5818,382.5942 L231.1458,382.5942 C231.1458,386.5782 234.3738,389.8122 238.3638,389.8122" id="Fill-583"></path>
                    <path d="M231.1434,396.9966 C231.1434,400.9866 234.3774,404.2146 238.3614,404.2146 C242.3454,404.2146 245.5794,400.9866 245.5794,396.9966 L231.1434,396.9966 Z" id="Fill-584"></path>
                    <path d="M252.7998,389.7774 C248.8098,389.7774 245.5818,393.0114 245.5818,396.9954 L260.0178,396.9954 C260.0178,393.0114 256.7838,389.7774 252.7998,389.7774" id="Fill-585"></path>
                    <path d="M339.4236,346.4982 C335.4336,346.4982 332.2056,349.7322 332.2056,353.7162 L346.6416,353.7162 C346.6416,349.7322 343.4136,346.4982 339.4236,346.4982" id="Fill-586"></path>
                    <path d="M324.9876,360.936 C328.9716,360.936 332.2056,357.702 332.2056,353.718 L317.7696,353.718 C317.7696,357.702 320.9976,360.936 324.9876,360.936" id="Fill-587"></path>
                    <path d="M317.7642,368.1198 C317.7642,372.1098 320.9982,375.3378 324.9882,375.3378 C328.9722,375.3378 332.2062,372.1098 332.2062,368.1198 L317.7642,368.1198 L317.7642,368.1198 Z" id="Fill-588"></path>
                    <path d="M339.4236,360.9006 C335.4336,360.9006 332.2056,364.1346 332.2056,368.1186 L346.6416,368.1186 C346.6416,364.1346 343.4136,360.9006 339.4236,360.9006" id="Fill-589"></path>
                    <path d="M137.3028,346.4982 C133.3128,346.4982 130.0848,349.7322 130.0848,353.7162 L144.5208,353.7162 C144.5208,349.7322 141.2868,346.4982 137.3028,346.4982" id="Fill-590"></path>
                    <path d="M122.865,360.936 C126.849,360.936 130.083,357.702 130.083,353.718 L115.647,353.718 C115.647,357.702 118.881,360.936 122.865,360.936" id="Fill-591"></path>
                    <path d="M115.6452,368.1198 C115.6452,372.1098 118.8792,375.3378 122.8632,375.3378 C126.8532,375.3378 130.0812,372.1098 130.0812,368.1198 L115.6452,368.1198 L115.6452,368.1198 Z" id="Fill-592"></path>
                    <path d="M137.3028,360.9006 C133.3128,360.9006 130.0848,364.1346 130.0848,368.1186 L144.5208,368.1186 C144.5208,364.1346 141.2868,360.9006 137.3028,360.9006" id="Fill-593"></path>
                    <path d="M368.2998,317.625 C364.3158,317.625 361.0818,320.859 361.0818,324.843 L375.5178,324.843 C375.5178,320.859 372.2898,317.625 368.2998,317.625" id="Fill-594"></path>
                    <path d="M353.865,332.0622 C357.849,332.0622 361.083,328.8282 361.083,324.8442 L346.641,324.8442 C346.641,328.8282 349.875,332.0622 353.865,332.0622" id="Fill-595"></path>
                    <path d="M346.6434,339.2466 C346.6434,343.2366 349.8774,346.4646 353.8614,346.4646 C357.8454,346.4646 361.0794,343.2366 361.0794,339.2466 L346.6434,339.2466 Z" id="Fill-596"></path>
                    <path d="M368.2998,332.0274 C364.3098,332.0274 361.0818,335.2614 361.0818,339.2454 L375.5178,339.2454 C375.5178,335.2614 372.2898,332.0274 368.2998,332.0274" id="Fill-597"></path>
                    <path d="M368.2998,288.7632 C364.3158,288.7632 361.0818,291.9972 361.0818,295.9812 L375.5178,295.9812 C375.5178,291.9972 372.2898,288.7632 368.2998,288.7632" id="Fill-598"></path>
                    <path d="M353.865,303.2004 C357.849,303.2004 361.083,299.9664 361.083,295.9824 L346.641,295.9824 C346.641,299.9664 349.875,303.2004 353.865,303.2004" id="Fill-599"></path>
                    <path d="M346.6434,310.3848 C346.6434,314.3748 349.8774,317.6028 353.8614,317.6028 C357.8454,317.6028 361.0794,314.3748 361.0794,310.3848 L346.6434,310.3848 Z" id="Fill-600"></path>
                    <path d="M368.2998,303.1656 C364.3098,303.1656 361.0818,306.3996 361.0818,310.3836 L375.5178,310.3836 C375.5178,306.3996 372.2898,303.1656 368.2998,303.1656" id="Fill-601"></path>
                    <path d="M108.426,317.625 C104.436,317.625 101.208,320.859 101.208,324.843 L115.644,324.843 C115.644,320.859 112.416,317.625 108.426,317.625" id="Fill-602"></path>
                    <path d="M93.99,332.0622 C97.974,332.0622 101.208,328.8282 101.208,324.8442 L86.772,324.8442 C86.772,328.8282 90,332.0622 93.99,332.0622" id="Fill-603"></path>
                    <path d="M86.7684,339.2466 C86.7684,343.2366 90.0024,346.4646 93.9864,346.4646 C97.9764,346.4646 101.2044,343.2366 101.2044,339.2466 L86.7684,339.2466 L86.7684,339.2466 Z" id="Fill-604"></path>
                    <path d="M108.426,332.0274 C104.436,332.0274 101.208,335.2614 101.208,339.2454 L115.644,339.2454 C115.644,335.2614 112.416,332.0274 108.426,332.0274" id="Fill-605"></path>
                    <path d="M397.1778,288.7482 C393.1878,288.7482 389.9598,291.9822 389.9598,295.9662 L404.3958,295.9662 C404.3958,291.9822 401.1618,288.7482 397.1778,288.7482" id="Fill-606"></path>
                    <path d="M382.74,303.186 C386.724,303.186 389.958,299.952 389.958,295.968 L375.522,295.968 C375.522,299.952 378.756,303.186 382.74,303.186" id="Fill-607"></path>
                    <path d="M375.5202,310.3698 C375.5202,314.3598 378.7542,317.5878 382.7382,317.5878 C386.7282,317.5878 389.9562,314.3598 389.9562,310.3698 L375.5202,310.3698 L375.5202,310.3698 Z" id="Fill-608"></path>
                    <path d="M397.1778,303.1506 C393.1878,303.1506 389.9598,306.3846 389.9598,310.3686 L404.3958,310.3686 C404.3958,306.3846 401.1618,303.1506 397.1778,303.1506" id="Fill-609"></path>
                    <path d="M79.551,288.7482 C75.561,288.7482 72.333,291.9822 72.333,295.9662 L86.769,295.9662 C86.769,291.9822 83.541,288.7482 79.551,288.7482" id="Fill-610"></path>
                    <path d="M65.115,303.186 C69.099,303.186 72.333,299.952 72.333,295.968 L57.897,295.968 C57.897,299.952 61.125,303.186 65.115,303.186" id="Fill-611"></path>
                    <path d="M57.8934,310.3698 C57.8934,314.3598 61.1274,317.5878 65.1114,317.5878 C69.1014,317.5878 72.3294,314.3598 72.3294,310.3698 L57.8934,310.3698 L57.8934,310.3698 Z" id="Fill-612"></path>
                    <path d="M79.551,303.1506 C75.561,303.1506 72.333,306.3846 72.333,310.3686 L86.769,310.3686 C86.769,306.3846 83.541,303.1506 79.551,303.1506" id="Fill-613"></path>
                    <path d="M411.615,274.3122 C415.599,274.3122 418.833,271.0782 418.833,267.0942 L404.391,267.0942 C404.391,271.0782 407.625,274.3122 411.615,274.3122" id="Fill-614"></path>
                    <path d="M404.3934,281.4966 C404.3934,285.4866 407.6274,288.7146 411.6114,288.7146 C415.5954,288.7146 418.8294,285.4866 418.8294,281.4966 L404.3934,281.4966 Z" id="Fill-615"></path>
                    <path d="M50.6778,259.875 C46.6878,259.875 43.4598,263.109 43.4598,267.093 L57.8958,267.093 C57.8958,263.109 54.6618,259.875 50.6778,259.875" id="Fill-616"></path>
                    <path d="M50.6778,274.2774 C46.6878,274.2774 43.4598,277.5114 43.4598,281.4954 L57.8958,281.4954 C57.8958,277.5114 54.6618,274.2774 50.6778,274.2774" id="Fill-617"></path>
                    <path d="M108.4248,202.125 C104.4348,202.125 101.2068,205.359 101.2068,209.343 L115.6428,209.343 C115.6428,205.359 112.4088,202.125 108.4248,202.125" id="Fill-618"></path>
                    <path d="M93.9888,216.5622 C97.9728,216.5622 101.2068,213.3282 101.2068,209.3442 L86.7708,209.3442 C86.7708,213.3282 89.9988,216.5622 93.9888,216.5622" id="Fill-619"></path>
                    <path d="M115.6434,223.7466 C115.6434,227.7366 118.8774,230.9646 122.8614,230.9646 C126.8454,230.9646 130.0794,227.7366 130.0794,223.7466 L115.6434,223.7466 Z" id="Fill-620"></path>
                    <path d="M137.2998,216.5274 C133.3098,216.5274 130.0818,219.7614 130.0818,223.7454 L144.5178,223.7454 C144.5178,219.7614 141.2898,216.5274 137.2998,216.5274" id="Fill-621"></path>
                    <path d="M195.0498,202.125 C191.0658,202.125 187.8318,205.359 187.8318,209.343 L202.2678,209.343 C202.2678,205.359 199.0398,202.125 195.0498,202.125" id="Fill-622"></path>
                    <path d="M180.615,216.5622 C184.599,216.5622 187.833,213.3282 187.833,209.3442 L173.391,209.3442 C173.391,213.3282 176.625,216.5622 180.615,216.5622" id="Fill-623"></path>
                    <path d="M173.3934,223.7466 C173.3934,227.7366 176.6274,230.9646 180.6114,230.9646 C184.5954,230.9646 187.8294,227.7366 187.8294,223.7466 L173.3934,223.7466 Z" id="Fill-624"></path>
                    <path d="M195.0498,216.5274 C191.0598,216.5274 187.8318,219.7614 187.8318,223.7454 L202.2678,223.7454 C202.2678,219.7614 199.0398,216.5274 195.0498,216.5274" id="Fill-625"></path>
                    <path d="M166.1778,202.125 C162.1938,202.125 158.9598,205.359 158.9598,209.343 L173.3958,209.343 C173.3958,205.359 170.1678,202.125 166.1778,202.125" id="Fill-626"></path>
                    <path d="M151.743,216.5622 C155.727,216.5622 158.961,213.3282 158.961,209.3442 L144.519,209.3442 C144.519,213.3282 147.753,216.5622 151.743,216.5622" id="Fill-627"></path>
                    <path d="M144.5214,223.7466 C144.5214,227.7366 147.7554,230.9646 151.7394,230.9646 C155.7234,230.9646 158.9574,227.7366 158.9574,223.7466 L144.5214,223.7466 Z" id="Fill-628"></path>
                    <path d="M166.1778,216.5274 C162.1878,216.5274 158.9598,219.7614 158.9598,223.7454 L173.3958,223.7454 C173.3958,219.7614 170.1678,216.5274 166.1778,216.5274" id="Fill-629"></path>
                    <path d="M223.926,202.125 C219.936,202.125 216.708,205.359 216.708,209.343 L231.144,209.343 C231.144,205.359 227.916,202.125 223.926,202.125" id="Fill-630"></path>
                    <path d="M209.49,216.5622 C213.474,216.5622 216.708,213.3282 216.708,209.3442 L202.272,209.3442 C202.272,213.3282 205.5,216.5622 209.49,216.5622" id="Fill-631"></path>
                    <path d="M202.2684,223.7466 C202.2684,227.7366 205.5024,230.9646 209.4864,230.9646 C213.4764,230.9646 216.7044,227.7366 216.7044,223.7466 L202.2684,223.7466 L202.2684,223.7466 Z" id="Fill-632"></path>
                    <path d="M223.926,216.5274 C219.936,216.5274 216.708,219.7614 216.708,223.7454 L231.144,223.7454 C231.144,219.7614 227.916,216.5274 223.926,216.5274" id="Fill-633"></path>
                    <path d="M281.6748,202.125 C277.6848,202.125 274.4568,205.359 274.4568,209.343 L288.8928,209.343 C288.8928,205.359 285.6588,202.125 281.6748,202.125" id="Fill-634"></path>
                    <path d="M267.2376,216.5622 C271.2216,216.5622 274.4556,213.3282 274.4556,209.3442 L260.0196,209.3442 C260.0196,213.3282 263.2536,216.5622 267.2376,216.5622" id="Fill-635"></path>
                    <path d="M260.0172,223.7466 C260.0172,227.7366 263.2512,230.9646 267.2352,230.9646 C271.2252,230.9646 274.4532,227.7366 274.4532,223.7466 L260.0172,223.7466 L260.0172,223.7466 Z" id="Fill-636"></path>
                    <path d="M281.6748,216.5274 C277.6848,216.5274 274.4568,219.7614 274.4568,223.7454 L288.8928,223.7454 C288.8928,219.7614 285.6588,216.5274 281.6748,216.5274" id="Fill-637"></path>
                    <path d="M252.8028,202.125 C248.8128,202.125 245.5848,205.359 245.5848,209.343 L260.0208,209.343 C260.0208,205.359 256.7868,202.125 252.8028,202.125" id="Fill-638"></path>
                    <path d="M238.365,216.5622 C242.349,216.5622 245.583,213.3282 245.583,209.3442 L231.147,209.3442 C231.147,213.3282 234.381,216.5622 238.365,216.5622" id="Fill-639"></path>
                    <path d="M231.1452,223.7466 C231.1452,227.7366 234.3792,230.9646 238.3632,230.9646 C242.3532,230.9646 245.5812,227.7366 245.5812,223.7466 L231.1452,223.7466 L231.1452,223.7466 Z" id="Fill-640"></path>
                    <path d="M252.8028,216.5274 C248.8128,216.5274 245.5848,219.7614 245.5848,223.7454 L260.0208,223.7454 C260.0208,219.7614 256.7868,216.5274 252.8028,216.5274" id="Fill-641"></path>
                    <path d="M195.0498,230.9832 C191.0658,230.9832 187.8318,234.2172 187.8318,238.2012 L202.2678,238.2012 C202.2678,234.2172 199.0398,230.9832 195.0498,230.9832" id="Fill-642"></path>
                    <path d="M180.615,245.4204 C184.599,245.4204 187.833,242.1864 187.833,238.2024 L173.391,238.2024 C173.391,242.1864 176.625,245.4204 180.615,245.4204" id="Fill-643"></path>
                    <path d="M173.3934,252.6048 C173.3934,256.5948 176.6274,259.8228 180.6114,259.8228 C184.5954,259.8228 187.8294,256.5948 187.8294,252.6048 L173.3934,252.6048 Z" id="Fill-644"></path>
                    <path d="M195.0498,245.3862 C191.0598,245.3862 187.8318,248.6202 187.8318,252.6042 L202.2678,252.6042 C202.2678,248.6202 199.0398,245.3862 195.0498,245.3862" id="Fill-645"></path>
                    <path d="M223.926,230.9832 C219.936,230.9832 216.708,234.2172 216.708,238.2012 L231.144,238.2012 C231.144,234.2172 227.916,230.9832 223.926,230.9832" id="Fill-646"></path>
                    <path d="M209.49,245.4204 C213.474,245.4204 216.708,242.1864 216.708,238.2024 L202.272,238.2024 C202.272,242.1864 205.5,245.4204 209.49,245.4204" id="Fill-647"></path>
                    <path d="M202.2684,252.6048 C202.2684,256.5948 205.5024,259.8228 209.4864,259.8228 C213.4764,259.8228 216.7044,256.5948 216.7044,252.6048 L202.2684,252.6048 L202.2684,252.6048 Z" id="Fill-648"></path>
                    <path d="M223.926,245.3862 C219.936,245.3862 216.708,248.6202 216.708,252.6042 L231.144,252.6042 C231.144,248.6202 227.916,245.3862 223.926,245.3862" id="Fill-649"></path>
                    <path d="M281.6748,230.9832 C277.6848,230.9832 274.4568,234.2172 274.4568,238.2012 L288.8928,238.2012 C288.8928,234.2172 285.6588,230.9832 281.6748,230.9832" id="Fill-650"></path>
                    <path d="M267.2376,245.4204 C271.2216,245.4204 274.4556,242.1864 274.4556,238.2024 L260.0196,238.2024 C260.0196,242.1864 263.2536,245.4204 267.2376,245.4204" id="Fill-651"></path>
                    <path d="M260.0172,252.6048 C260.0172,256.5948 263.2512,259.8228 267.2352,259.8228 C271.2252,259.8228 274.4532,256.5948 274.4532,252.6048 L260.0172,252.6048 L260.0172,252.6048 Z" id="Fill-652"></path>
                    <path d="M281.6748,245.3862 C277.6848,245.3862 274.4568,248.6202 274.4568,252.6042 L288.8928,252.6042 C288.8928,248.6202 285.6588,245.3862 281.6748,245.3862" id="Fill-653"></path>
                    <path d="M252.8028,230.9832 C248.8128,230.9832 245.5848,234.2172 245.5848,238.2012 L260.0208,238.2012 C260.0208,234.2172 256.7868,230.9832 252.8028,230.9832" id="Fill-654"></path>
                    <path d="M238.365,245.4204 C242.349,245.4204 245.583,242.1864 245.583,238.2024 L231.147,238.2024 C231.147,242.1864 234.381,245.4204 238.365,245.4204" id="Fill-655"></path>
                    <path d="M231.1452,252.6048 C231.1452,256.5948 234.3792,259.8228 238.3632,259.8228 C242.3532,259.8228 245.5812,256.5948 245.5812,252.6048 L231.1452,252.6048 L231.1452,252.6048 Z" id="Fill-656"></path>
                    <path d="M252.8028,245.3862 C248.8128,245.3862 245.5848,248.6202 245.5848,252.6042 L260.0208,252.6042 C260.0208,248.6202 256.7868,245.3862 252.8028,245.3862" id="Fill-657"></path>
                    <path d="M202.2684,194.8896 C202.2684,198.8796 205.5024,202.1076 209.4864,202.1076 C213.4764,202.1076 216.7044,198.8796 216.7044,194.8896 L202.2684,194.8896 L202.2684,194.8896 Z" id="Fill-658"></path>
                    <path d="M223.926,187.6704 C219.936,187.6704 216.708,190.9044 216.708,194.8884 L231.144,194.8884 C231.144,190.9044 227.916,187.6704 223.926,187.6704" id="Fill-659"></path>
                    <path d="M231.1452,194.8896 C231.1452,198.8796 234.3792,202.1076 238.3632,202.1076 C242.3532,202.1076 245.5812,198.8796 245.5812,194.8896 L231.1452,194.8896 L231.1452,194.8896 Z" id="Fill-660"></path>
                    <path d="M252.8028,187.6704 C248.8128,187.6704 245.5848,190.9044 245.5848,194.8884 L260.0208,194.8884 C260.0208,190.9044 256.7868,187.6704 252.8028,187.6704" id="Fill-661"></path>
                    <path d="M296.1138,216.5622 C300.0978,216.5622 303.3318,213.3282 303.3318,209.3442 L288.8958,209.3442 C288.8958,213.3282 292.1238,216.5622 296.1138,216.5622" id="Fill-662"></path>
                    <path d="M288.8934,223.7466 C288.8934,227.7366 292.1274,230.9646 296.1114,230.9646 C300.0954,230.9646 303.3294,227.7366 303.3294,223.7466 L288.8934,223.7466 Z" id="Fill-663"></path>
                    <path d="M310.5498,216.5274 C306.5598,216.5274 303.3318,219.7614 303.3318,223.7454 L317.7678,223.7454 C317.7678,219.7614 314.5338,216.5274 310.5498,216.5274" id="Fill-664"></path>
                    <path d="M108.4248,173.268 C104.4348,173.268 101.2068,176.502 101.2068,180.486 L115.6428,180.486 C115.6428,176.502 112.4088,173.268 108.4248,173.268" id="Fill-665"></path>
                    <path d="M93.9888,187.7058 C97.9728,187.7058 101.2068,184.4718 101.2068,180.4878 L86.7708,180.4878 C86.7708,184.4718 89.9988,187.7058 93.9888,187.7058" id="Fill-666"></path>
                    <path d="M86.7684,194.8896 C86.7684,198.8796 90.0024,202.1076 93.9864,202.1076 C97.9704,202.1076 101.2044,198.8796 101.2044,194.8896 L86.7684,194.8896 Z" id="Fill-667"></path>
                    <path d="M108.4248,187.6704 C104.4348,187.6704 101.2068,190.9044 101.2068,194.8884 L115.6428,194.8884 C115.6428,190.9044 112.4088,187.6704 108.4248,187.6704" id="Fill-668"></path>
                    <path d="M137.2998,173.268 C133.3158,173.268 130.0818,176.502 130.0818,180.486 L144.5178,180.486 C144.5178,176.502 141.2898,173.268 137.2998,173.268" id="Fill-669"></path>
                    <path d="M122.865,187.7058 C126.849,187.7058 130.083,184.4718 130.083,180.4878 L115.641,180.4878 C115.641,184.4718 118.875,187.7058 122.865,187.7058" id="Fill-670"></path>
                    <path d="M115.6434,194.8896 C115.6434,198.8796 118.8774,202.1076 122.8614,202.1076 C126.8454,202.1076 130.0794,198.8796 130.0794,194.8896 L115.6434,194.8896 Z" id="Fill-671"></path>
                    <path d="M137.2998,187.6704 C133.3098,187.6704 130.0818,190.9044 130.0818,194.8884 L144.5178,194.8884 C144.5178,190.9044 141.2898,187.6704 137.2998,187.6704" id="Fill-672"></path>
                    <path d="M166.1748,173.25 C162.1848,173.25 158.9568,176.484 158.9568,180.468 L173.3928,180.468 C173.3928,176.484 170.1588,173.25 166.1748,173.25" id="Fill-673"></path>
                    <path d="M151.7388,187.6872 C155.7228,187.6872 158.9568,184.4532 158.9568,180.4692 L144.5208,180.4692 C144.5208,184.4532 147.7488,187.6872 151.7388,187.6872" id="Fill-674"></path>
                    <path d="M173.3934,194.8716 C173.3934,198.8616 176.6274,202.0896 180.6114,202.0896 C184.5954,202.0896 187.8294,198.8616 187.8294,194.8716 L173.3934,194.8716 Z" id="Fill-675"></path>
                    <path d="M195.0498,187.6524 C191.0598,187.6524 187.8318,190.8864 187.8318,194.8704 L202.2678,194.8704 C202.2678,190.8864 199.0338,187.6524 195.0498,187.6524" id="Fill-676"></path>
                    <path d="M166.176,230.9832 C162.186,230.9832 158.958,234.2172 158.958,238.2012 L173.394,238.2012 C173.394,234.2172 170.166,230.9832 166.176,230.9832" id="Fill-677"></path>
                    <path d="M151.74,245.4204 C155.724,245.4204 158.958,242.1864 158.958,238.2024 L144.522,238.2024 C144.522,242.1864 147.75,245.4204 151.74,245.4204" id="Fill-678"></path>
                    <path d="M144.5184,252.6048 C144.5184,256.5888 147.7524,259.8228 151.7364,259.8228 C155.7264,259.8228 158.9544,256.5888 158.9544,252.6048 L144.5184,252.6048 L144.5184,252.6048 Z" id="Fill-679"></path>
                    <path d="M166.176,245.3862 C162.186,245.3862 158.958,248.6202 158.958,252.6042 L173.394,252.6042 C173.394,248.6202 170.166,245.3862 166.176,245.3862" id="Fill-680"></path>
                    <path d="M223.9248,86.6262 C219.9408,86.6262 216.7068,89.8602 216.7068,93.8442 L231.1428,93.8442 C231.1428,89.8602 227.9148,86.6262 223.9248,86.6262" id="Fill-681"></path>
                    <path d="M223.9248,101.0292 C219.9348,101.0292 216.7068,104.2632 216.7068,108.2472 L231.1428,108.2472 C231.1428,104.2632 227.9148,101.0292 223.9248,101.0292" id="Fill-682"></path>
                    <path d="M238.365,101.064 C242.349,101.064 245.583,97.83 245.583,93.846 L231.141,93.846 C231.141,97.83 234.375,101.064 238.365,101.064" id="Fill-683"></path>
                    <path d="M231.1434,108.2478 C231.1434,112.2318 234.3774,115.4658 238.3614,115.4658 C242.3454,115.4658 245.5794,112.2318 245.5794,108.2478 L231.1434,108.2478 Z" id="Fill-684"></path>
                    <path d="M223.9248,115.4832 C219.9408,115.4832 216.7068,118.7172 216.7068,122.7012 L231.1428,122.7012 C231.1428,118.7172 227.9148,115.4832 223.9248,115.4832" id="Fill-685"></path>
                    <path d="M223.9248,129.8862 C219.9348,129.8862 216.7068,133.1202 216.7068,137.1042 L231.1428,137.1042 C231.1428,133.1202 227.9148,129.8862 223.9248,129.8862" id="Fill-686"></path>
                    <path d="M238.365,129.9204 C242.349,129.9204 245.583,126.6864 245.583,122.7024 L231.141,122.7024 C231.141,126.6864 234.375,129.9204 238.365,129.9204" id="Fill-687"></path>
                    <path d="M231.1434,137.1048 C231.1434,141.0888 234.3774,144.3228 238.3614,144.3228 C242.3454,144.3228 245.5794,141.0888 245.5794,137.1048 L231.1434,137.1048 Z" id="Fill-688"></path>
                    <path d="M310.5498,230.9832 C306.5658,230.9832 303.3318,234.2172 303.3318,238.2012 L317.7678,238.2012 C317.7678,234.2172 314.5398,230.9832 310.5498,230.9832" id="Fill-689"></path>
                    <path d="M296.115,245.4204 C300.099,245.4204 303.333,242.1864 303.333,238.2024 L288.891,238.2024 C288.891,242.1864 292.125,245.4204 296.115,245.4204" id="Fill-690"></path>
                    <path d="M288.8934,252.6048 C288.8934,256.5888 292.1274,259.8228 296.1114,259.8228 C300.0954,259.8228 303.3294,256.5888 303.3294,252.6048 L288.8934,252.6048 Z" id="Fill-691"></path>
                    <path d="M310.5498,245.3862 C306.5598,245.3862 303.3318,248.6202 303.3318,252.6042 L317.7678,252.6042 C317.7678,248.6202 314.5398,245.3862 310.5498,245.3862" id="Fill-692"></path>
                    <path d="M223.9248,144.375 C219.9348,144.375 216.7068,147.609 216.7068,151.593 L231.1428,151.593 C231.1428,147.609 227.9088,144.375 223.9248,144.375" id="Fill-693"></path>
                    <path d="M209.4888,158.8122 C213.4728,158.8122 216.7068,155.5782 216.7068,151.5942 L202.2708,151.5942 C202.2708,155.5782 205.4988,158.8122 209.4888,158.8122" id="Fill-694"></path>
                    <path d="M202.2684,165.9966 C202.2684,169.9806 205.5024,173.2146 209.4864,173.2146 C213.4704,173.2146 216.7044,169.9806 216.7044,165.9966 L202.2684,165.9966 Z" id="Fill-695"></path>
                    <path d="M223.9248,158.7774 C219.9348,158.7774 216.7068,162.0114 216.7068,165.9954 L231.1428,165.9954 C231.1428,162.0114 227.9088,158.7774 223.9248,158.7774" id="Fill-696"></path>
                    <path d="M252.8028,144.375 C248.8128,144.375 245.5848,147.609 245.5848,151.593 L260.0208,151.593 C260.0208,147.609 256.7868,144.375 252.8028,144.375" id="Fill-697"></path>
                    <path d="M238.365,158.8122 C242.349,158.8122 245.583,155.5782 245.583,151.5942 L231.147,151.5942 C231.147,155.5782 234.381,158.8122 238.365,158.8122" id="Fill-698"></path>
                    <path d="M231.1452,165.9966 C231.1452,169.9806 234.3792,173.2146 238.3632,173.2146 C242.3532,173.2146 245.5812,169.9806 245.5812,165.9966 L231.1452,165.9966 L231.1452,165.9966 Z" id="Fill-699"></path>
                    <path d="M252.8028,158.7774 C248.8128,158.7774 245.5848,162.0114 245.5848,165.9954 L260.0208,165.9954 C260.0208,162.0114 256.7868,158.7774 252.8028,158.7774" id="Fill-700"></path>
                    <path d="M223.9248,0 C219.9348,0 216.7068,3.234 216.7068,7.218 L231.1428,7.218 C231.1428,3.234 227.9088,0 223.9248,0" id="Fill-701"></path>
                    <path d="M209.4888,14.4372 C213.4728,14.4372 216.7068,11.2032 216.7068,7.2192 L202.2708,7.2192 C202.2708,11.2032 205.4988,14.4372 209.4888,14.4372" id="Fill-702"></path>
                    <path d="M202.2684,21.6216 C202.2684,25.6116 205.5024,28.8396 209.4864,28.8396 C213.4704,28.8396 216.7044,25.6116 216.7044,21.6216 L202.2684,21.6216 Z" id="Fill-703"></path>
                    <path d="M223.9248,14.4024 C219.9348,14.4024 216.7068,17.6364 216.7068,21.6204 L231.1428,21.6204 C231.1428,17.6364 227.9088,14.4024 223.9248,14.4024" id="Fill-704"></path>
                    <path d="M252.8028,0 C248.8128,0 245.5848,3.234 245.5848,7.218 L260.0208,7.218 C260.0208,3.234 256.7868,0 252.8028,0" id="Fill-705"></path>
                    <path d="M238.365,14.4372 C242.349,14.4372 245.583,11.2032 245.583,7.2192 L231.147,7.2192 C231.147,11.2032 234.381,14.4372 238.365,14.4372" id="Fill-706"></path>
                    <path d="M231.1452,21.6216 C231.1452,25.6116 234.3792,28.8396 238.3632,28.8396 C242.3532,28.8396 245.5812,25.6116 245.5812,21.6216 L231.1452,21.6216 L231.1452,21.6216 Z" id="Fill-707"></path>
                    <path d="M252.8028,14.4024 C248.8128,14.4024 245.5848,17.6364 245.5848,21.6204 L260.0208,21.6204 C260.0208,17.6364 256.7868,14.4024 252.8028,14.4024" id="Fill-708"></path>
                    <path d="M223.9248,28.875 C219.9348,28.875 216.7068,32.109 216.7068,36.093 L231.1428,36.093 C231.1428,32.109 227.9088,28.875 223.9248,28.875" id="Fill-709"></path>
                    <path d="M209.4888,43.3122 C213.4728,43.3122 216.7068,40.0782 216.7068,36.0942 L202.2708,36.0942 C202.2708,40.0782 205.4988,43.3122 209.4888,43.3122" id="Fill-710"></path>
                    <path d="M202.2684,50.496 C202.2684,54.486 205.5024,57.714 209.4864,57.714 C213.4704,57.714 216.7044,54.486 216.7044,50.496 L202.2684,50.496 Z" id="Fill-711"></path>
                    <path d="M223.9248,43.2774 C219.9348,43.2774 216.7068,46.5114 216.7068,50.4954 L231.1428,50.4954 C231.1428,46.5114 227.9088,43.2774 223.9248,43.2774" id="Fill-712"></path>
                    <path d="M166.1748,28.875 C162.1908,28.875 158.9568,32.109 158.9568,36.093 L173.3928,36.093 C173.3928,32.109 170.1648,28.875 166.1748,28.875" id="Fill-713"></path>
                    <path d="M151.74,43.3122 C155.724,43.3122 158.958,40.0782 158.958,36.0942 L144.516,36.0942 C144.516,40.0782 147.75,43.3122 151.74,43.3122" id="Fill-714"></path>
                    <path d="M144.5184,50.496 C144.5184,54.486 147.7524,57.714 151.7364,57.714 C155.7204,57.714 158.9544,54.486 158.9544,50.496 L144.5184,50.496 Z" id="Fill-715"></path>
                    <path d="M166.1748,43.2774 C162.1848,43.2774 158.9568,46.5114 158.9568,50.4954 L173.3928,50.4954 C173.3928,46.5114 170.1648,43.2774 166.1748,43.2774" id="Fill-716"></path>
                    <path d="M137.301,57.75 C133.311,57.75 130.083,60.984 130.083,64.968 L144.519,64.968 C144.519,60.984 141.291,57.75 137.301,57.75" id="Fill-717"></path>
                    <path d="M122.865,72.1872 C126.849,72.1872 130.083,68.9532 130.083,64.9692 L115.647,64.9692 C115.647,68.9532 118.875,72.1872 122.865,72.1872" id="Fill-718"></path>
                    <path d="M115.6434,79.3716 C115.6434,83.3556 118.8774,86.5896 122.8614,86.5896 C126.8514,86.5896 130.0794,83.3556 130.0794,79.3716 L115.6434,79.3716 L115.6434,79.3716 Z" id="Fill-719"></path>
                    <path d="M137.301,72.1524 C133.311,72.1524 130.083,75.3864 130.083,79.3704 L144.519,79.3704 C144.519,75.3864 141.291,72.1524 137.301,72.1524" id="Fill-720"></path>
                    <path d="M108.4248,57.75 C104.4408,57.75 101.2068,60.984 101.2068,64.968 L115.6428,64.968 C115.6428,60.984 112.4148,57.75 108.4248,57.75" id="Fill-721"></path>
                    <path d="M93.99,72.1872 C97.974,72.1872 101.208,68.9532 101.208,64.9692 L86.766,64.9692 C86.766,68.9532 90,72.1872 93.99,72.1872" id="Fill-722"></path>
                    <path d="M86.7684,79.3716 C86.7684,83.3556 90.0024,86.5896 93.9864,86.5896 C97.9704,86.5896 101.2044,83.3556 101.2044,79.3716 L86.7684,79.3716 Z" id="Fill-723"></path>
                    <path d="M108.4248,72.1524 C104.4348,72.1524 101.2068,75.3864 101.2068,79.3704 L115.6428,79.3704 C115.6428,75.3864 112.4148,72.1524 108.4248,72.1524" id="Fill-724"></path>
                    <path d="M108.4248,86.643 C104.4408,86.643 101.2068,89.877 101.2068,93.861 L115.6428,93.861 C115.6428,89.877 112.4148,86.643 108.4248,86.643" id="Fill-725"></path>
                    <path d="M93.99,101.0808 C97.974,101.0808 101.208,97.8468 101.208,93.8628 L86.766,93.8628 C86.766,97.8468 90,101.0808 93.99,101.0808" id="Fill-726"></path>
                    <path d="M86.7684,108.2646 C86.7684,112.2546 90.0024,115.4826 93.9864,115.4826 C97.9704,115.4826 101.2044,112.2546 101.2044,108.2646 L86.7684,108.2646 Z" id="Fill-727"></path>
                    <path d="M108.4248,101.046 C104.4348,101.046 101.2068,104.28 101.2068,108.264 L115.6428,108.264 C115.6428,104.28 112.4148,101.046 108.4248,101.046" id="Fill-728"></path>
                    <path d="M108.4248,115.5012 C104.4408,115.5012 101.2068,118.7352 101.2068,122.7192 L115.6428,122.7192 C115.6428,118.7352 112.4148,115.5012 108.4248,115.5012" id="Fill-729"></path>
                    <path d="M93.99,129.939 C97.974,129.939 101.208,126.705 101.208,122.721 L86.766,122.721 C86.766,126.705 90,129.939 93.99,129.939" id="Fill-730"></path>
                    <path d="M86.7684,137.1234 C86.7684,141.1134 90.0024,144.3414 93.9864,144.3414 C97.9704,144.3414 101.2044,141.1134 101.2044,137.1234 L86.7684,137.1234 Z" id="Fill-731"></path>
                    <path d="M108.4248,129.9042 C104.4348,129.9042 101.2068,133.1382 101.2068,137.1222 L115.6428,137.1222 C115.6428,133.1382 112.4148,129.9042 108.4248,129.9042" id="Fill-732"></path>
                    <path d="M108.4248,144.3918 C104.4408,144.3918 101.2068,147.6258 101.2068,151.6098 L115.6428,151.6098 C115.6428,147.6258 112.4148,144.3918 108.4248,144.3918" id="Fill-733"></path>
                    <path d="M93.99,158.829 C97.974,158.829 101.208,155.595 101.208,151.611 L86.766,151.611 C86.766,155.595 90,158.829 93.99,158.829" id="Fill-734"></path>
                    <path d="M86.7684,166.0128 C86.7684,170.0028 90.0024,173.2308 93.9864,173.2308 C97.9704,173.2308 101.2044,170.0028 101.2044,166.0128 L86.7684,166.0128 Z" id="Fill-735"></path>
                    <path d="M108.4248,158.7942 C104.4348,158.7942 101.2068,162.0282 101.2068,166.0122 L115.6428,166.0122 C115.6428,162.0282 112.4148,158.7942 108.4248,158.7942" id="Fill-736"></path>
                    <path d="M137.2998,144.3918 C133.3098,144.3918 130.0818,147.6258 130.0818,151.6098 L144.5178,151.6098 C144.5178,147.6258 141.2838,144.3918 137.2998,144.3918" id="Fill-737"></path>
                    <path d="M122.8638,158.829 C126.8478,158.829 130.0818,155.595 130.0818,151.611 L115.6458,151.611 C115.6458,155.595 118.8738,158.829 122.8638,158.829" id="Fill-738"></path>
                    <path d="M115.6434,166.0128 C115.6434,170.0028 118.8774,173.2308 122.8614,173.2308 C126.8454,173.2308 130.0794,170.0028 130.0794,166.0128 L115.6434,166.0128 Z" id="Fill-739"></path>
                    <path d="M137.2998,158.7942 C133.3098,158.7942 130.0818,162.0282 130.0818,166.0122 L144.5178,166.0122 C144.5178,162.0282 141.2838,158.7942 137.2998,158.7942" id="Fill-740"></path>
                    <path d="M166.1748,144.3918 C162.1908,144.3918 158.9568,147.6258 158.9568,151.6098 L173.3928,151.6098 C173.3928,147.6258 170.1648,144.3918 166.1748,144.3918" id="Fill-741"></path>
                    <path d="M151.74,158.829 C155.724,158.829 158.958,155.595 158.958,151.611 L144.516,151.611 C144.516,155.595 147.75,158.829 151.74,158.829" id="Fill-742"></path>
                    <path d="M144.5184,166.0128 C144.5184,170.0028 147.7524,173.2308 151.7364,173.2308 C155.7204,173.2308 158.9544,170.0028 158.9544,166.0128 L144.5184,166.0128 Z" id="Fill-743"></path>
                    <path d="M166.1748,158.7942 C162.1848,158.7942 158.9568,162.0282 158.9568,166.0122 L173.3928,166.0122 C173.3928,162.0282 170.1648,158.7942 166.1748,158.7942" id="Fill-744"></path>
                    <path d="M195.0498,144.3918 C191.0598,144.3918 187.8318,147.6258 187.8318,151.6098 L202.2678,151.6098 C202.2678,147.6258 199.0338,144.3918 195.0498,144.3918" id="Fill-745"></path>
                    <path d="M180.6138,158.829 C184.5978,158.829 187.8318,155.595 187.8318,151.611 L173.3958,151.611 C173.3958,155.595 176.6238,158.829 180.6138,158.829" id="Fill-746"></path>
                    <path d="M173.3934,166.0128 C173.3934,170.0028 176.6274,173.2308 180.6114,173.2308 C184.5954,173.2308 187.8294,170.0028 187.8294,166.0128 L173.3934,166.0128 Z" id="Fill-747"></path>
                    <path d="M195.0498,158.7942 C191.0598,158.7942 187.8318,162.0282 187.8318,166.0122 L202.2678,166.0122 C202.2678,162.0282 199.0338,158.7942 195.0498,158.7942" id="Fill-748"></path>
                    <path d="M166.1748,57.75 C162.1848,57.75 158.9568,60.984 158.9568,64.968 L173.3928,64.968 C173.3928,60.984 170.1588,57.75 166.1748,57.75" id="Fill-749"></path>
                    <path d="M151.7388,72.1872 C155.7228,72.1872 158.9568,68.9532 158.9568,64.9692 L144.5208,64.9692 C144.5208,68.9532 147.7488,72.1872 151.7388,72.1872" id="Fill-750"></path>
                    <path d="M144.5184,79.3716 C144.5184,83.3556 147.7524,86.5896 151.7364,86.5896 C155.7204,86.5896 158.9544,83.3556 158.9544,79.3716 L144.5184,79.3716 Z" id="Fill-751"></path>
                    <path d="M166.1748,72.1524 C162.1848,72.1524 158.9568,75.3864 158.9568,79.3704 L173.3928,79.3704 C173.3928,75.3864 170.1588,72.1524 166.1748,72.1524" id="Fill-752"></path>
                    <path d="M195.0528,57.75 C191.0628,57.75 187.8348,60.984 187.8348,64.968 L202.2708,64.968 C202.2708,60.984 199.0368,57.75 195.0528,57.75" id="Fill-753"></path>
                    <path d="M180.6168,72.1872 C184.6008,72.1872 187.8348,68.9532 187.8348,64.9692 L173.3988,64.9692 C173.3988,68.9532 176.6268,72.1872 180.6168,72.1872" id="Fill-754"></path>
                    <path d="M173.3964,79.3716 C173.3964,83.3556 176.6304,86.5896 180.6144,86.5896 C184.5984,86.5896 187.8324,83.3556 187.8324,79.3716 L173.3964,79.3716 Z" id="Fill-755"></path>
                    <path d="M195.0528,72.1524 C191.0628,72.1524 187.8348,75.3864 187.8348,79.3704 L202.2708,79.3704 C202.2708,75.3864 199.0368,72.1524 195.0528,72.1524" id="Fill-756"></path>
                    <path d="M223.9248,57.75 C219.9348,57.75 216.7068,60.984 216.7068,64.968 L231.1428,64.968 C231.1428,60.984 227.9088,57.75 223.9248,57.75" id="Fill-757"></path>
                    <path d="M209.4888,72.1872 C213.4728,72.1872 216.7068,68.9532 216.7068,64.9692 L202.2708,64.9692 C202.2708,68.9532 205.4988,72.1872 209.4888,72.1872" id="Fill-758"></path>
                    <path d="M202.2684,79.3716 C202.2684,83.3556 205.5024,86.5896 209.4864,86.5896 C213.4704,86.5896 216.7044,83.3556 216.7044,79.3716 L202.2684,79.3716 Z" id="Fill-759"></path>
                    <path d="M223.9248,72.1524 C219.9348,72.1524 216.7068,75.3864 216.7068,79.3704 L231.1428,79.3704 C231.1428,75.3864 227.9088,72.1524 223.9248,72.1524" id="Fill-760"></path>
                    <path d="M252.7998,57.75 C248.8158,57.75 245.5818,60.984 245.5818,64.968 L260.0178,64.968 C260.0178,60.984 256.7898,57.75 252.7998,57.75" id="Fill-761"></path>
                    <path d="M238.365,72.1872 C242.349,72.1872 245.583,68.9532 245.583,64.9692 L231.141,64.9692 C231.141,68.9532 234.375,72.1872 238.365,72.1872" id="Fill-762"></path>
                    <path d="M231.1434,79.3716 C231.1434,83.3556 234.3774,86.5896 238.3614,86.5896 C242.3454,86.5896 245.5794,83.3556 245.5794,79.3716 L231.1434,79.3716 Z" id="Fill-763"></path>
                    <path d="M252.7998,72.1524 C248.8098,72.1524 245.5818,75.3864 245.5818,79.3704 L260.0178,79.3704 C260.0178,75.3864 256.7898,72.1524 252.7998,72.1524" id="Fill-764"></path>
                    <path d="M281.6748,57.75 C277.6908,57.75 274.4568,60.984 274.4568,64.968 L288.8928,64.968 C288.8928,60.984 285.6648,57.75 281.6748,57.75" id="Fill-765"></path>
                    <path d="M267.24,72.1872 C271.224,72.1872 274.458,68.9532 274.458,64.9692 L260.016,64.9692 C260.016,68.9532 263.25,72.1872 267.24,72.1872" id="Fill-766"></path>
                    <path d="M260.0184,79.3716 C260.0184,83.3556 263.2524,86.5896 267.2364,86.5896 C271.2204,86.5896 274.4544,83.3556 274.4544,79.3716 L260.0184,79.3716 Z" id="Fill-767"></path>
                    <path d="M281.6748,72.1524 C277.6848,72.1524 274.4568,75.3864 274.4568,79.3704 L288.8928,79.3704 C288.8928,75.3864 285.6648,72.1524 281.6748,72.1524" id="Fill-768"></path>
                    <path d="M310.554,57.75 C306.564,57.75 303.336,60.984 303.336,64.968 L317.772,64.968 C317.772,60.984 314.544,57.75 310.554,57.75" id="Fill-769"></path>
                    <path d="M296.118,72.1872 C300.102,72.1872 303.336,68.9532 303.336,64.9692 L288.9,64.9692 C288.9,68.9532 292.128,72.1872 296.118,72.1872" id="Fill-770"></path>
                    <path d="M288.8964,79.3716 C288.8964,83.3556 292.1304,86.5896 296.1144,86.5896 C300.1044,86.5896 303.3324,83.3556 303.3324,79.3716 L288.8964,79.3716 L288.8964,79.3716 Z" id="Fill-771"></path>
                    <path d="M310.554,72.1524 C306.564,72.1524 303.336,75.3864 303.336,79.3704 L317.772,79.3704 C317.772,75.3864 314.544,72.1524 310.554,72.1524" id="Fill-772"></path>
                    <path d="M339.426,57.75 C335.436,57.75 332.208,60.984 332.208,64.968 L346.644,64.968 C346.644,60.984 343.416,57.75 339.426,57.75" id="Fill-773"></path>
                    <path d="M324.99,72.1872 C328.974,72.1872 332.208,68.9532 332.208,64.9692 L317.772,64.9692 C317.772,68.9532 321,72.1872 324.99,72.1872" id="Fill-774"></path>
                    <path d="M317.7684,79.3716 C317.7684,83.3556 321.0024,86.5896 324.9864,86.5896 C328.9764,86.5896 332.2044,83.3556 332.2044,79.3716 L317.7684,79.3716 L317.7684,79.3716 Z" id="Fill-775"></path>
                    <path d="M339.426,72.1524 C335.436,72.1524 332.208,75.3864 332.208,79.3704 L346.644,79.3704 C346.644,75.3864 343.416,72.1524 339.426,72.1524" id="Fill-776"></path>
                    <path d="M310.5498,28.875 C306.5658,28.875 303.3318,32.109 303.3318,36.093 L317.7678,36.093 C317.7678,32.109 314.5398,28.875 310.5498,28.875" id="Fill-777"></path>
                    <path d="M296.115,43.3122 C300.099,43.3122 303.333,40.0782 303.333,36.0942 L288.891,36.0942 C288.891,40.0782 292.125,43.3122 296.115,43.3122" id="Fill-778"></path>
                    <path d="M288.8934,50.496 C288.8934,54.486 292.1274,57.714 296.1114,57.714 C300.0954,57.714 303.3294,54.486 303.3294,50.496 L288.8934,50.496 Z" id="Fill-779"></path>
                    <path d="M310.5498,43.2774 C306.5598,43.2774 303.3318,46.5114 303.3318,50.4954 L317.7678,50.4954 C317.7678,46.5114 314.5398,43.2774 310.5498,43.2774" id="Fill-780"></path>
                    <path d="M252.8028,28.875 C248.8128,28.875 245.5848,32.109 245.5848,36.093 L260.0208,36.093 C260.0208,32.109 256.7868,28.875 252.8028,28.875" id="Fill-781"></path>
                    <path d="M238.365,43.3122 C242.349,43.3122 245.583,40.0782 245.583,36.0942 L231.147,36.0942 C231.147,40.0782 234.381,43.3122 238.365,43.3122" id="Fill-782"></path>
                    <path d="M231.1452,50.496 C231.1452,54.486 234.3792,57.714 238.3632,57.714 C242.3532,57.714 245.5812,54.486 245.5812,50.496 L231.1452,50.496 L231.1452,50.496 Z" id="Fill-783"></path>
                    <path d="M252.8028,43.2774 C248.8128,43.2774 245.5848,46.5114 245.5848,50.4954 L260.0208,50.4954 C260.0208,46.5114 256.7868,43.2774 252.8028,43.2774" id="Fill-784"></path>
                    <path d="M281.6658,173.238 C277.6758,173.238 274.4478,176.472 274.4478,180.456 L288.8838,180.456 C288.8838,176.472 285.6558,173.238 281.6658,173.238" id="Fill-785"></path>
                    <path d="M260.0082,194.8596 C260.0082,198.8496 263.2422,202.0776 267.2262,202.0776 C271.2162,202.0776 274.4442,198.8496 274.4442,194.8596 L260.0082,194.8596 L260.0082,194.8596 Z" id="Fill-786"></path>
                    <path d="M310.551,173.238 C306.561,173.238 303.333,176.472 303.333,180.456 L317.769,180.456 C317.769,176.472 314.541,173.238 310.551,173.238" id="Fill-787"></path>
                    <path d="M296.115,187.6758 C300.099,187.6758 303.333,184.4418 303.333,180.4578 L288.897,180.4578 C288.897,184.4418 292.125,187.6758 296.115,187.6758" id="Fill-788"></path>
                    <path d="M310.551,187.641 C306.561,187.641 303.333,190.875 303.333,194.859 L317.769,194.859 C317.769,190.875 314.541,187.641 310.551,187.641" id="Fill-789"></path>
                    <path d="M339.4206,202.11 C335.4366,202.11 332.2026,205.344 332.2026,209.328 L346.6386,209.328 C346.6386,205.344 343.4106,202.11 339.4206,202.11" id="Fill-790"></path>
                    <path d="M317.7642,223.7316 C317.7642,227.7156 320.9982,230.9496 324.9822,230.9496 C328.9662,230.9496 332.2002,227.7156 332.2002,223.7316 L317.7642,223.7316 Z" id="Fill-791"></path>
                    <path d="M368.3028,202.11 C364.3128,202.11 361.0848,205.344 361.0848,209.328 L375.5208,209.328 C375.5208,205.344 372.2868,202.11 368.3028,202.11" id="Fill-792"></path>
                    <path d="M353.865,216.5472 C357.849,216.5472 361.083,213.3132 361.083,209.3292 L346.647,209.3292 C346.647,213.3132 349.881,216.5472 353.865,216.5472" id="Fill-793"></path>
                    <path d="M368.3028,57.7314 C364.3128,57.7314 361.0848,60.9654 361.0848,64.9494 L375.5208,64.9494 C375.5208,60.9654 372.2868,57.7314 368.3028,57.7314" id="Fill-794"></path>
                    <path d="M353.865,72.1692 C357.849,72.1692 361.083,68.9352 361.083,64.9512 L346.647,64.9512 C346.647,68.9352 349.881,72.1692 353.865,72.1692" id="Fill-795"></path>
                    <path d="M346.6452,79.353 C346.6452,83.343 349.8792,86.571 353.8632,86.571 C357.8532,86.571 361.0812,83.343 361.0812,79.353 L346.6452,79.353 L346.6452,79.353 Z" id="Fill-796"></path>
                    <path d="M368.3028,72.1344 C364.3128,72.1344 361.0848,75.3684 361.0848,79.3524 L375.5208,79.3524 C375.5208,75.3684 372.2868,72.1344 368.3028,72.1344" id="Fill-797"></path>
                    <path d="M368.3028,86.61 C364.3128,86.61 361.0848,89.844 361.0848,93.828 L375.5208,93.828 C375.5208,89.844 372.2868,86.61 368.3028,86.61" id="Fill-798"></path>
                    <path d="M353.865,101.0472 C357.849,101.0472 361.083,97.8132 361.083,93.8292 L346.647,93.8292 C346.647,97.8132 349.881,101.0472 353.865,101.0472" id="Fill-799"></path>
                    <path d="M346.6452,108.2316 C346.6452,112.2156 349.8792,115.4496 353.8632,115.4496 C357.8532,115.4496 361.0812,112.2156 361.0812,108.2316 L346.6452,108.2316 L346.6452,108.2316 Z" id="Fill-800"></path>
                    <path d="M368.3028,101.0124 C364.3128,101.0124 361.0848,104.2464 361.0848,108.2304 L375.5208,108.2304 C375.5208,104.2464 372.2868,101.0124 368.3028,101.0124" id="Fill-801"></path>
                    <path d="M368.3028,115.4832 C364.3128,115.4832 361.0848,118.7172 361.0848,122.7012 L375.5208,122.7012 C375.5208,118.7172 372.2868,115.4832 368.3028,115.4832" id="Fill-802"></path>
                    <path d="M353.865,129.9204 C357.849,129.9204 361.083,126.6864 361.083,122.7024 L346.647,122.7024 C346.647,126.6864 349.881,129.9204 353.865,129.9204" id="Fill-803"></path>
                    <path d="M346.6452,137.1048 C346.6452,141.0948 349.8792,144.3228 353.8632,144.3228 C357.8532,144.3228 361.0812,141.0948 361.0812,137.1048 L346.6452,137.1048 L346.6452,137.1048 Z" id="Fill-804"></path>
                    <path d="M368.3028,129.8862 C364.3128,129.8862 361.0848,133.1202 361.0848,137.1042 L375.5208,137.1042 C375.5208,133.1202 372.2868,129.8862 368.3028,129.8862" id="Fill-805"></path>
                    <path d="M368.3028,144.3582 C364.3128,144.3582 361.0848,147.5922 361.0848,151.5762 L375.5208,151.5762 C375.5208,147.5922 372.2868,144.3582 368.3028,144.3582" id="Fill-806"></path>
                    <path d="M353.865,158.7954 C357.849,158.7954 361.083,155.5614 361.083,151.5774 L346.647,151.5774 C346.647,155.5614 349.881,158.7954 353.865,158.7954" id="Fill-807"></path>
                    <path d="M346.6452,165.9798 C346.6452,169.9638 349.8792,173.1978 353.8632,173.1978 C357.8532,173.1978 361.0812,169.9638 361.0812,165.9798 L346.6452,165.9798 L346.6452,165.9798 Z" id="Fill-808"></path>
                    <path d="M368.3028,158.7612 C364.3128,158.7612 361.0848,161.9952 361.0848,165.9792 L375.5208,165.9792 C375.5208,161.9952 372.2868,158.7612 368.3028,158.7612" id="Fill-809"></path>
                    <path d="M339.4278,144.3582 C335.4378,144.3582 332.2098,147.5922 332.2098,151.5762 L346.6458,151.5762 C346.6458,147.5922 343.4118,144.3582 339.4278,144.3582" id="Fill-810"></path>
                    <path d="M324.9918,158.7954 C328.9758,158.7954 332.2098,155.5614 332.2098,151.5774 L317.7738,151.5774 C317.7738,155.5614 321.0018,158.7954 324.9918,158.7954" id="Fill-811"></path>
                    <path d="M317.7714,165.9798 C317.7714,169.9638 321.0054,173.1978 324.9894,173.1978 C328.9734,173.1978 332.2074,169.9638 332.2074,165.9798 L317.7714,165.9798 Z" id="Fill-812"></path>
                    <path d="M339.4278,158.7612 C335.4378,158.7612 332.2098,161.9952 332.2098,165.9792 L346.6458,165.9792 C346.6458,161.9952 343.4118,158.7612 339.4278,158.7612" id="Fill-813"></path>
                    <path d="M368.3028,173.2212 C364.3128,173.2212 361.0848,176.4552 361.0848,180.4392 L375.5208,180.4392 C375.5208,176.4552 372.2868,173.2212 368.3028,173.2212" id="Fill-814"></path>
                    <path d="M353.865,187.6596 C357.849,187.6596 361.083,184.4256 361.083,180.4416 L346.647,180.4416 C346.647,184.4256 349.881,187.6596 353.865,187.6596" id="Fill-815"></path>
                    <path d="M346.6452,194.8434 C346.6452,198.8334 349.8792,202.0614 353.8632,202.0614 C357.8532,202.0614 361.0812,198.8334 361.0812,194.8434 L346.6452,194.8434 L346.6452,194.8434 Z" id="Fill-816"></path>
                    <path d="M368.3028,187.6242 C364.3128,187.6242 361.0848,190.8582 361.0848,194.8422 L375.5208,194.8422 C375.5208,190.8582 372.2868,187.6242 368.3028,187.6242" id="Fill-817"></path>
                    <path d="M339.4278,173.2212 C335.4378,173.2212 332.2098,176.4552 332.2098,180.4392 L346.6458,180.4392 C346.6458,176.4552 343.4118,173.2212 339.4278,173.2212" id="Fill-818"></path>
                    <path d="M324.9918,187.6596 C328.9758,187.6596 332.2098,184.4256 332.2098,180.4416 L317.7738,180.4416 C317.7738,184.4256 321.0018,187.6596 324.9918,187.6596" id="Fill-819"></path>
                    <path d="M317.7714,194.8434 C317.7714,198.8334 321.0054,202.0614 324.9894,202.0614 C328.9734,202.0614 332.2074,198.8334 332.2074,194.8434 L317.7714,194.8434 Z" id="Fill-820"></path>
                    <path d="M339.4278,187.6242 C335.4378,187.6242 332.2098,190.8582 332.2098,194.8422 L346.6458,194.8422 C346.6458,190.8582 343.4118,187.6242 339.4278,187.6242" id="Fill-821"></path>
                    <path d="M310.5498,144.3582 C306.5658,144.3582 303.3318,147.5922 303.3318,151.5762 L317.7678,151.5762 C317.7678,147.5922 314.5398,144.3582 310.5498,144.3582" id="Fill-822"></path>
                    <path d="M296.115,158.7954 C300.099,158.7954 303.333,155.5614 303.333,151.5774 L288.891,151.5774 C288.891,155.5614 292.125,158.7954 296.115,158.7954" id="Fill-823"></path>
                    <path d="M288.8934,165.9798 C288.8934,169.9638 292.1274,173.1978 296.1114,173.1978 C300.0954,173.1978 303.3294,169.9638 303.3294,165.9798 L288.8934,165.9798 Z" id="Fill-824"></path>
                    <path d="M310.5498,158.7612 C306.5598,158.7612 303.3318,161.9952 303.3318,165.9792 L317.7678,165.9792 C317.7678,161.9952 314.5398,158.7612 310.5498,158.7612" id="Fill-825"></path>
                    <path d="M281.6676,144.3582 C277.6776,144.3582 274.4496,147.5922 274.4496,151.5762 L288.8856,151.5762 C288.8856,147.5922 285.6516,144.3582 281.6676,144.3582" id="Fill-826"></path>
                    <path d="M267.2298,158.7954 C271.2138,158.7954 274.4478,155.5614 274.4478,151.5774 L260.0118,151.5774 C260.0118,155.5614 263.2458,158.7954 267.2298,158.7954" id="Fill-827"></path>
                    <path d="M260.01,165.9798 C260.01,169.9638 263.244,173.1978 267.228,173.1978 C271.218,173.1978 274.446,169.9638 274.446,165.9798 L260.01,165.9798 L260.01,165.9798 Z" id="Fill-828"></path>
                    <path d="M281.6676,158.7612 C277.6776,158.7612 274.4496,161.9952 274.4496,165.9792 L288.8856,165.9792 C288.8856,161.9952 285.6516,158.7612 281.6676,158.7612" id="Fill-829"></path>
                    <path d="M166.1748,346.5162 C162.1848,346.5162 158.9568,349.7502 158.9568,353.7342 L173.3928,353.7342 C173.3928,349.7502 170.1588,346.5162 166.1748,346.5162" id="Fill-830"></path>
                    <path d="M151.7388,360.954 C155.7228,360.954 158.9568,357.72 158.9568,353.736 L144.5208,353.736 C144.5208,357.72 147.7488,360.954 151.7388,360.954" id="Fill-831"></path>
                    <path d="M144.5184,368.1378 C144.5184,372.1278 147.7524,375.3558 151.7364,375.3558 C155.7204,375.3558 158.9544,372.1278 158.9544,368.1378 L144.5184,368.1378 Z" id="Fill-832"></path>
                    <path d="M166.1748,360.9192 C162.1848,360.9192 158.9568,364.1532 158.9568,368.1372 L173.3928,368.1372 C173.3928,364.1532 170.1588,360.9192 166.1748,360.9192" id="Fill-833"></path>
                    <path d="M223.9248,346.5162 C219.9348,346.5162 216.7068,349.7502 216.7068,353.7342 L231.1428,353.7342 C231.1428,349.7502 227.9088,346.5162 223.9248,346.5162" id="Fill-834"></path>
                    <path d="M209.4888,360.954 C213.4728,360.954 216.7068,357.72 216.7068,353.736 L202.2708,353.736 C202.2708,357.72 205.4988,360.954 209.4888,360.954" id="Fill-835"></path>
                    <path d="M202.2684,368.1378 C202.2684,372.1278 205.5024,375.3558 209.4864,375.3558 C213.4704,375.3558 216.7044,372.1278 216.7044,368.1378 L202.2684,368.1378 Z" id="Fill-836"></path>
                    <path d="M223.9248,360.9192 C219.9348,360.9192 216.7068,364.1532 216.7068,368.1372 L231.1428,368.1372 C231.1428,364.1532 227.9088,360.9192 223.9248,360.9192" id="Fill-837"></path>
                    <path d="M195.051,346.5162 C191.061,346.5162 187.833,349.7502 187.833,353.7342 L202.269,353.7342 C202.269,349.7502 199.041,346.5162 195.051,346.5162" id="Fill-838"></path>
                    <path d="M180.615,360.954 C184.599,360.954 187.833,357.72 187.833,353.736 L173.397,353.736 C173.397,357.72 176.625,360.954 180.615,360.954" id="Fill-839"></path>
                    <path d="M173.3934,368.1378 C173.3934,372.1278 176.6274,375.3558 180.6114,375.3558 C184.6014,375.3558 187.8294,372.1278 187.8294,368.1378 L173.3934,368.1378 L173.3934,368.1378 Z" id="Fill-840"></path>
                    <path d="M195.051,360.9192 C191.061,360.9192 187.833,364.1532 187.833,368.1372 L202.269,368.1372 C202.269,364.1532 199.041,360.9192 195.051,360.9192" id="Fill-841"></path>
                    <path d="M281.6736,346.5162 C277.6836,346.5162 274.4556,349.7502 274.4556,353.7342 L288.8916,353.7342 C288.8916,349.7502 285.6636,346.5162 281.6736,346.5162" id="Fill-842"></path>
                    <path d="M267.2376,360.954 C271.2216,360.954 274.4556,357.72 274.4556,353.736 L260.0196,353.736 C260.0196,357.72 263.2476,360.954 267.2376,360.954" id="Fill-843"></path>
                    <path d="M260.0142,368.1378 C260.0142,372.1278 263.2482,375.3558 267.2382,375.3558 C271.2222,375.3558 274.4562,372.1278 274.4562,368.1378 L260.0142,368.1378 L260.0142,368.1378 Z" id="Fill-844"></path>
                    <path d="M281.6736,360.9192 C277.6836,360.9192 274.4556,364.1532 274.4556,368.1372 L288.8916,368.1372 C288.8916,364.1532 285.6636,360.9192 281.6736,360.9192" id="Fill-845"></path>
                    <path d="M252.7998,346.5162 C248.8098,346.5162 245.5818,349.7502 245.5818,353.7342 L260.0178,353.7342 C260.0178,349.7502 256.7838,346.5162 252.7998,346.5162" id="Fill-846"></path>
                    <path d="M238.3638,360.954 C242.3478,360.954 245.5818,357.72 245.5818,353.736 L231.1458,353.736 C231.1458,357.72 234.3738,360.954 238.3638,360.954" id="Fill-847"></path>
                    <path d="M231.1434,368.1378 C231.1434,372.1278 234.3774,375.3558 238.3614,375.3558 C242.3454,375.3558 245.5794,372.1278 245.5794,368.1378 L231.1434,368.1378 Z" id="Fill-848"></path>
                    <path d="M252.7998,360.9192 C248.8098,360.9192 245.5818,364.1532 245.5818,368.1372 L260.0178,368.1372 C260.0178,364.1532 256.7838,360.9192 252.7998,360.9192" id="Fill-849"></path>
                    <path d="M310.5498,346.5162 C306.5598,346.5162 303.3318,349.7502 303.3318,353.7342 L317.7678,353.7342 C317.7678,349.7502 314.5338,346.5162 310.5498,346.5162" id="Fill-850"></path>
                    <path d="M296.1138,360.954 C300.0978,360.954 303.3318,357.72 303.3318,353.736 L288.8958,353.736 C288.8958,357.72 292.1238,360.954 296.1138,360.954" id="Fill-851"></path>
                    <path d="M288.8934,368.1378 C288.8934,372.1278 292.1274,375.3558 296.1114,375.3558 C300.0954,375.3558 303.3294,372.1278 303.3294,368.1378 L288.8934,368.1378 Z" id="Fill-852"></path>
                    <path d="M310.5498,360.9192 C306.5598,360.9192 303.3318,364.1532 303.3318,368.1372 L317.7678,368.1372 C317.7678,364.1532 314.5338,360.9192 310.5498,360.9192" id="Fill-853"></path>
                    <path d="M339.4236,317.6328 C335.4336,317.6328 332.2056,320.8668 332.2056,324.8508 L346.6416,324.8508 C346.6416,320.8668 343.4136,317.6328 339.4236,317.6328" id="Fill-854"></path>
                    <path d="M324.9876,332.0706 C328.9716,332.0706 332.2056,328.8366 332.2056,324.8526 L317.7696,324.8526 C317.7696,328.8366 320.9976,332.0706 324.9876,332.0706" id="Fill-855"></path>
                    <path d="M317.7642,339.255 C317.7642,343.245 320.9982,346.473 324.9882,346.473 C328.9722,346.473 332.2062,343.245 332.2062,339.255 L317.7642,339.255 L317.7642,339.255 Z" id="Fill-856"></path>
                    <path d="M339.4236,332.0358 C335.4336,332.0358 332.2056,335.2698 332.2056,339.2538 L346.6416,339.2538 C346.6416,335.2698 343.4136,332.0358 339.4236,332.0358" id="Fill-857"></path>
                    <path d="M137.3028,317.6328 C133.3128,317.6328 130.0848,320.8668 130.0848,324.8508 L144.5208,324.8508 C144.5208,320.8668 141.2868,317.6328 137.3028,317.6328" id="Fill-858"></path>
                    <path d="M122.865,332.0706 C126.849,332.0706 130.083,328.8366 130.083,324.8526 L115.647,324.8526 C115.647,328.8366 118.881,332.0706 122.865,332.0706" id="Fill-859"></path>
                    <path d="M115.6452,339.255 C115.6452,343.245 118.8792,346.473 122.8632,346.473 C126.8532,346.473 130.0812,343.245 130.0812,339.255 L115.6452,339.255 L115.6452,339.255 Z" id="Fill-860"></path>
                    <path d="M137.3028,332.0358 C133.3128,332.0358 130.0848,335.2698 130.0848,339.2538 L144.5208,339.2538 C144.5208,335.2698 141.2868,332.0358 137.3028,332.0358" id="Fill-861"></path>
                    <path d="M166.1748,317.6514 C162.1848,317.6514 158.9568,320.8854 158.9568,324.8694 L173.3928,324.8694 C173.3928,320.8854 170.1588,317.6514 166.1748,317.6514" id="Fill-862"></path>
                    <path d="M151.7388,332.0886 C155.7228,332.0886 158.9568,328.8546 158.9568,324.8706 L144.5208,324.8706 C144.5208,328.8546 147.7488,332.0886 151.7388,332.0886" id="Fill-863"></path>
                    <path d="M144.5184,339.273 C144.5184,343.263 147.7524,346.491 151.7364,346.491 C155.7204,346.491 158.9544,343.263 158.9544,339.273 L144.5184,339.273 Z" id="Fill-864"></path>
                    <path d="M166.1748,332.0544 C162.1848,332.0544 158.9568,335.2884 158.9568,339.2724 L173.3928,339.2724 C173.3928,335.2884 170.1588,332.0544 166.1748,332.0544" id="Fill-865"></path>
                    <path d="M223.9248,317.6514 C219.9348,317.6514 216.7068,320.8854 216.7068,324.8694 L231.1428,324.8694 C231.1428,320.8854 227.9088,317.6514 223.9248,317.6514" id="Fill-866"></path>
                    <path d="M209.4888,332.0886 C213.4728,332.0886 216.7068,328.8546 216.7068,324.8706 L202.2708,324.8706 C202.2708,328.8546 205.4988,332.0886 209.4888,332.0886" id="Fill-867"></path>
                    <path d="M202.2684,339.273 C202.2684,343.263 205.5024,346.491 209.4864,346.491 C213.4704,346.491 216.7044,343.263 216.7044,339.273 L202.2684,339.273 Z" id="Fill-868"></path>
                    <path d="M223.9248,332.0544 C219.9348,332.0544 216.7068,335.2884 216.7068,339.2724 L231.1428,339.2724 C231.1428,335.2884 227.9088,332.0544 223.9248,332.0544" id="Fill-869"></path>
                    <path d="M195.051,317.6514 C191.061,317.6514 187.833,320.8854 187.833,324.8694 L202.269,324.8694 C202.269,320.8854 199.041,317.6514 195.051,317.6514" id="Fill-870"></path>
                    <path d="M180.615,332.0886 C184.599,332.0886 187.833,328.8546 187.833,324.8706 L173.397,324.8706 C173.397,328.8546 176.625,332.0886 180.615,332.0886" id="Fill-871"></path>
                    <path d="M173.3934,339.273 C173.3934,343.263 176.6274,346.491 180.6114,346.491 C184.6014,346.491 187.8294,343.263 187.8294,339.273 L173.3934,339.273 L173.3934,339.273 Z" id="Fill-872"></path>
                    <path d="M195.051,332.0544 C191.061,332.0544 187.833,335.2884 187.833,339.2724 L202.269,339.2724 C202.269,335.2884 199.041,332.0544 195.051,332.0544" id="Fill-873"></path>
                    <path d="M281.6736,317.6514 C277.6836,317.6514 274.4556,320.8854 274.4556,324.8694 L288.8916,324.8694 C288.8916,320.8854 285.6636,317.6514 281.6736,317.6514" id="Fill-874"></path>
                    <path d="M267.2376,332.0886 C271.2216,332.0886 274.4556,328.8546 274.4556,324.8706 L260.0196,324.8706 C260.0196,328.8546 263.2476,332.0886 267.2376,332.0886" id="Fill-875"></path>
                    <path d="M260.0142,339.273 C260.0142,343.263 263.2482,346.491 267.2382,346.491 C271.2222,346.491 274.4562,343.263 274.4562,339.273 L260.0142,339.273 L260.0142,339.273 Z" id="Fill-876"></path>
                    <path d="M281.6736,332.0544 C277.6836,332.0544 274.4556,335.2884 274.4556,339.2724 L288.8916,339.2724 C288.8916,335.2884 285.6636,332.0544 281.6736,332.0544" id="Fill-877"></path>
                    <path d="M252.7998,317.6514 C248.8098,317.6514 245.5818,320.8854 245.5818,324.8694 L260.0178,324.8694 C260.0178,320.8854 256.7838,317.6514 252.7998,317.6514" id="Fill-878"></path>
                    <path d="M238.3638,332.0886 C242.3478,332.0886 245.5818,328.8546 245.5818,324.8706 L231.1458,324.8706 C231.1458,328.8546 234.3738,332.0886 238.3638,332.0886" id="Fill-879"></path>
                    <path d="M231.1434,339.273 C231.1434,343.263 234.3774,346.491 238.3614,346.491 C242.3454,346.491 245.5794,343.263 245.5794,339.273 L231.1434,339.273 Z" id="Fill-880"></path>
                    <path d="M252.7998,332.0544 C248.8098,332.0544 245.5818,335.2884 245.5818,339.2724 L260.0178,339.2724 C260.0178,335.2884 256.7838,332.0544 252.7998,332.0544" id="Fill-881"></path>
                    <path d="M310.5498,317.6514 C306.5598,317.6514 303.3318,320.8854 303.3318,324.8694 L317.7678,324.8694 C317.7678,320.8854 314.5338,317.6514 310.5498,317.6514" id="Fill-882"></path>
                    <path d="M296.1138,332.0886 C300.0978,332.0886 303.3318,328.8546 303.3318,324.8706 L288.8958,324.8706 C288.8958,328.8546 292.1238,332.0886 296.1138,332.0886" id="Fill-883"></path>
                    <path d="M288.8934,339.273 C288.8934,343.263 292.1274,346.491 296.1114,346.491 C300.0954,346.491 303.3294,343.263 303.3294,339.273 L288.8934,339.273 Z" id="Fill-884"></path>
                    <path d="M310.5498,332.0544 C306.5598,332.0544 303.3318,335.2884 303.3318,339.2724 L317.7678,339.2724 C317.7678,335.2884 314.5338,332.0544 310.5498,332.0544" id="Fill-885"></path>
                    <path d="M108.426,288.7536 C104.436,288.7536 101.208,291.9876 101.208,295.9716 L115.644,295.9716 C115.644,291.9876 112.416,288.7536 108.426,288.7536" id="Fill-886"></path>
                    <path d="M93.99,303.1908 C97.974,303.1908 101.208,299.9568 101.208,295.9728 L86.772,295.9728 C86.772,299.9568 90,303.1908 93.99,303.1908" id="Fill-887"></path>
                    <path d="M86.7684,310.3746 C86.7684,314.3646 90.0024,317.5926 93.9864,317.5926 C97.9764,317.5926 101.2044,314.3646 101.2044,310.3746 L86.7684,310.3746 L86.7684,310.3746 Z" id="Fill-888"></path>
                    <path d="M108.426,303.156 C104.436,303.156 101.208,306.39 101.208,310.374 L115.644,310.374 C115.644,306.39 112.416,303.156 108.426,303.156" id="Fill-889"></path>
                    <path d="M339.4236,288.7614 C335.4336,288.7614 332.2056,291.9954 332.2056,295.9794 L346.6416,295.9794 C346.6416,291.9954 343.4136,288.7614 339.4236,288.7614" id="Fill-890"></path>
                    <path d="M324.9876,303.1992 C328.9716,303.1992 332.2056,299.9652 332.2056,295.9812 L317.7696,295.9812 C317.7696,299.9652 320.9976,303.1992 324.9876,303.1992" id="Fill-891"></path>
                    <path d="M317.7642,310.383 C317.7642,314.373 320.9982,317.601 324.9882,317.601 C328.9722,317.601 332.2062,314.373 332.2062,310.383 L317.7642,310.383 L317.7642,310.383 Z" id="Fill-892"></path>
                    <path d="M339.4236,303.1638 C335.4336,303.1638 332.2056,306.3978 332.2056,310.3818 L346.6416,310.3818 C346.6416,306.3978 343.4136,303.1638 339.4236,303.1638" id="Fill-893"></path>
                    <path d="M137.3028,288.7614 C133.3128,288.7614 130.0848,291.9954 130.0848,295.9794 L144.5208,295.9794 C144.5208,291.9954 141.2868,288.7614 137.3028,288.7614" id="Fill-894"></path>
                    <path d="M122.865,303.1992 C126.849,303.1992 130.083,299.9652 130.083,295.9812 L115.647,295.9812 C115.647,299.9652 118.881,303.1992 122.865,303.1992" id="Fill-895"></path>
                    <path d="M115.6452,310.383 C115.6452,314.373 118.8792,317.601 122.8632,317.601 C126.8532,317.601 130.0812,314.373 130.0812,310.383 L115.6452,310.383 L115.6452,310.383 Z" id="Fill-896"></path>
                    <path d="M137.3028,303.1638 C133.3128,303.1638 130.0848,306.3978 130.0848,310.3818 L144.5208,310.3818 C144.5208,306.3978 141.2868,303.1638 137.3028,303.1638" id="Fill-897"></path>
                    <path d="M166.1748,288.78 C162.1848,288.78 158.9568,292.014 158.9568,295.998 L173.3928,295.998 C173.3928,292.014 170.1588,288.78 166.1748,288.78" id="Fill-898"></path>
                    <path d="M151.7388,303.2172 C155.7228,303.2172 158.9568,299.9832 158.9568,295.9992 L144.5208,295.9992 C144.5208,299.9832 147.7488,303.2172 151.7388,303.2172" id="Fill-899"></path>
                    <path d="M144.5184,310.401 C144.5184,314.391 147.7524,317.619 151.7364,317.619 C155.7204,317.619 158.9544,314.391 158.9544,310.401 L144.5184,310.401 Z" id="Fill-900"></path>
                    <path d="M166.1748,303.1824 C162.1848,303.1824 158.9568,306.4164 158.9568,310.4004 L173.3928,310.4004 C173.3928,306.4164 170.1588,303.1824 166.1748,303.1824" id="Fill-901"></path>
                    <path d="M223.9248,288.78 C219.9348,288.78 216.7068,292.014 216.7068,295.998 L231.1428,295.998 C231.1428,292.014 227.9088,288.78 223.9248,288.78" id="Fill-902"></path>
                    <path d="M216.7068,295.9992 L202.2708,295.9992 C202.2708,299.9832 205.4988,303.2172 209.4888,303.2172 C213.4728,303.2172 216.7068,299.9832 216.7068,295.9992 Z" id="Fill-903"></path>
                    <path d="M202.2684,310.401 C202.2684,314.391 205.5024,317.619 209.4864,317.619 C213.4704,317.619 216.7044,314.391 216.7044,310.401 L202.2684,310.401 Z" id="Fill-904"></path>
                    <path d="M223.9248,303.1824 C219.9348,303.1824 216.7068,306.4164 216.7068,310.4004 L231.1428,310.4004 C231.1428,306.4164 227.9088,303.1824 223.9248,303.1824" id="Fill-905"></path>
                    <path d="M195.051,288.78 C191.061,288.78 187.833,292.014 187.833,295.998 L202.269,295.998 C202.269,292.014 199.041,288.78 195.051,288.78" id="Fill-906"></path>
                    <path d="M180.615,303.2172 C184.599,303.2172 187.833,299.9832 187.833,295.9992 L173.397,295.9992 C173.397,299.9832 176.625,303.2172 180.615,303.2172" id="Fill-907"></path>
                    <path d="M173.3934,310.401 C173.3934,314.391 176.6274,317.619 180.6114,317.619 C184.6014,317.619 187.8294,314.391 187.8294,310.401 L173.3934,310.401 L173.3934,310.401 Z" id="Fill-908"></path>
                    <path d="M195.051,303.1824 C191.061,303.1824 187.833,306.4164 187.833,310.4004 L202.269,310.4004 C202.269,306.4164 199.041,303.1824 195.051,303.1824" id="Fill-909"></path>
                    <path d="M281.6736,288.78 C277.6836,288.78 274.4556,292.014 274.4556,295.998 L288.8916,295.998 C288.8916,292.014 285.6636,288.78 281.6736,288.78" id="Fill-910"></path>
                    <path d="M267.2376,303.2172 C271.2216,303.2172 274.4556,299.9832 274.4556,295.9992 L260.0196,295.9992 C260.0196,299.9832 263.2476,303.2172 267.2376,303.2172" id="Fill-911"></path>
                    <path d="M260.0142,310.401 C260.0142,314.391 263.2482,317.619 267.2382,317.619 C271.2222,317.619 274.4562,314.391 274.4562,310.401 L260.0142,310.401 L260.0142,310.401 Z" id="Fill-912"></path>
                    <path d="M281.6736,303.1824 C277.6836,303.1824 274.4556,306.4164 274.4556,310.4004 L288.8916,310.4004 C288.8916,306.4164 285.6636,303.1824 281.6736,303.1824" id="Fill-913"></path>
                    <path d="M252.7998,288.78 C248.8098,288.78 245.5818,292.014 245.5818,295.998 L260.0178,295.998 C260.0178,292.014 256.7838,288.78 252.7998,288.78" id="Fill-914"></path>
                    <path d="M238.3638,303.2172 C242.3478,303.2172 245.5818,299.9832 245.5818,295.9992 L231.1458,295.9992 C231.1458,299.9832 234.3738,303.2172 238.3638,303.2172" id="Fill-915"></path>
                    <path d="M231.1434,310.401 C231.1434,314.391 234.3774,317.619 238.3614,317.619 C242.3454,317.619 245.5794,314.391 245.5794,310.401 L231.1434,310.401 Z" id="Fill-916"></path>
                    <path d="M252.7998,303.1824 C248.8098,303.1824 245.5818,306.4164 245.5818,310.4004 L260.0178,310.4004 C260.0178,306.4164 256.7838,303.1824 252.7998,303.1824" id="Fill-917"></path>
                    <path d="M310.5498,288.78 C306.5598,288.78 303.3318,292.014 303.3318,295.998 L317.7678,295.998 C317.7678,292.014 314.5338,288.78 310.5498,288.78" id="Fill-918"></path>
                    <path d="M296.1138,303.2172 C300.0978,303.2172 303.3318,299.9832 303.3318,295.9992 L288.8958,295.9992 C288.8958,299.9832 292.1238,303.2172 296.1138,303.2172" id="Fill-919"></path>
                    <path d="M288.8934,310.401 C288.8934,314.391 292.1274,317.619 296.1114,317.619 C300.0954,317.619 303.3294,314.391 303.3294,310.401 L288.8934,310.401 Z" id="Fill-920"></path>
                    <path d="M310.5498,303.1824 C306.5598,303.1824 303.3318,306.4164 303.3318,310.4004 L317.7678,310.4004 C317.7678,306.4164 314.5338,303.1824 310.5498,303.1824" id="Fill-921"></path>
                    <path d="M368.2998,259.8918 C364.3158,259.8918 361.0818,263.1258 361.0818,267.1098 L375.5178,267.1098 C375.5178,263.1258 372.2898,259.8918 368.2998,259.8918" id="Fill-922"></path>
                    <path d="M353.865,274.329 C357.849,274.329 361.083,271.095 361.083,267.111 L346.641,267.111 C346.641,271.095 349.875,274.329 353.865,274.329" id="Fill-923"></path>
                    <path d="M346.6434,281.5128 C346.6434,285.5028 349.8774,288.7308 353.8614,288.7308 C357.8454,288.7308 361.0794,285.5028 361.0794,281.5128 L346.6434,281.5128 Z" id="Fill-924"></path>
                    <path d="M368.2998,274.2942 C364.3098,274.2942 361.0818,277.5282 361.0818,281.5122 L375.5178,281.5122 C375.5178,277.5282 372.2898,274.2942 368.2998,274.2942" id="Fill-925"></path>
                    <path d="M397.1778,259.8762 C393.1878,259.8762 389.9598,263.1102 389.9598,267.0942 L404.3958,267.0942 C404.3958,263.1102 401.1618,259.8762 397.1778,259.8762" id="Fill-926"></path>
                    <path d="M382.74,274.314 C386.724,274.314 389.958,271.08 389.958,267.096 L375.522,267.096 C375.522,271.08 378.756,274.314 382.74,274.314" id="Fill-927"></path>
                    <path d="M375.5202,281.4984 C375.5202,285.4884 378.7542,288.7164 382.7382,288.7164 C386.7282,288.7164 389.9562,285.4884 389.9562,281.4984 L375.5202,281.4984 L375.5202,281.4984 Z" id="Fill-928"></path>
                    <path d="M397.1778,274.2792 C393.1878,274.2792 389.9598,277.5132 389.9598,281.4972 L404.3958,281.4972 C404.3958,277.5132 401.1618,274.2792 397.1778,274.2792" id="Fill-929"></path>
                    <path d="M79.551,259.8762 C75.561,259.8762 72.333,263.1102 72.333,267.0942 L86.769,267.0942 C86.769,263.1102 83.541,259.8762 79.551,259.8762" id="Fill-930"></path>
                    <path d="M65.115,274.314 C69.099,274.314 72.333,271.08 72.333,267.096 L57.897,267.096 C57.897,271.08 61.125,274.314 65.115,274.314" id="Fill-931"></path>
                    <path d="M57.8934,281.4984 C57.8934,285.4884 61.1274,288.7164 65.1114,288.7164 C69.1014,288.7164 72.3294,285.4884 72.3294,281.4984 L57.8934,281.4984 L57.8934,281.4984 Z" id="Fill-932"></path>
                    <path d="M79.551,274.2792 C75.561,274.2792 72.333,277.5132 72.333,281.4972 L86.769,281.4972 C86.769,277.5132 83.541,274.2792 79.551,274.2792" id="Fill-933"></path>
                    <path d="M108.426,259.8816 C104.436,259.8816 101.208,263.1156 101.208,267.0996 L115.644,267.0996 C115.644,263.1156 112.416,259.8816 108.426,259.8816" id="Fill-934"></path>
                    <path d="M93.99,274.3188 C97.974,274.3188 101.208,271.0848 101.208,267.1008 L86.772,267.1008 C86.772,271.0848 90,274.3188 93.99,274.3188" id="Fill-935"></path>
                    <path d="M86.7684,281.5032 C86.7684,285.4932 90.0024,288.7212 93.9864,288.7212 C97.9764,288.7212 101.2044,285.4932 101.2044,281.5032 L86.7684,281.5032 L86.7684,281.5032 Z" id="Fill-936"></path>
                    <path d="M108.426,274.284 C104.436,274.284 101.208,277.518 101.208,281.502 L115.644,281.502 C115.644,277.518 112.416,274.284 108.426,274.284" id="Fill-937"></path>
                    <path d="M339.4236,259.8894 C335.4336,259.8894 332.2056,263.1234 332.2056,267.1074 L346.6416,267.1074 C346.6416,263.1234 343.4136,259.8894 339.4236,259.8894" id="Fill-938"></path>
                    <path d="M324.9876,274.3272 C328.9716,274.3272 332.2056,271.0932 332.2056,267.1092 L317.7696,267.1092 C317.7696,271.0932 320.9976,274.3272 324.9876,274.3272" id="Fill-939"></path>
                    <path d="M317.7642,281.5116 C317.7642,285.5016 320.9982,288.7296 324.9882,288.7296 C328.9722,288.7296 332.2062,285.5016 332.2062,281.5116 L317.7642,281.5116 L317.7642,281.5116 Z" id="Fill-940"></path>
                    <path d="M339.4236,274.2924 C335.4336,274.2924 332.2056,277.5264 332.2056,281.5104 L346.6416,281.5104 C346.6416,277.5264 343.4136,274.2924 339.4236,274.2924" id="Fill-941"></path>
                    <path d="M353.865,245.4624 C357.849,245.4624 361.083,242.2284 361.083,238.2444 L346.641,238.2444 C346.641,242.2284 349.875,245.4624 353.865,245.4624" id="Fill-942"></path>
                    <path d="M346.6434,252.6462 C346.6434,256.6362 349.8774,259.8642 353.8614,259.8642 C357.8454,259.8642 361.0794,256.6362 361.0794,252.6462 L346.6434,252.6462 Z" id="Fill-943"></path>
                    <path d="M368.2998,245.4276 C364.3098,245.4276 361.0818,248.6616 361.0818,252.6456 L375.5178,252.6456 C375.5178,248.6616 372.2898,245.4276 368.2998,245.4276" id="Fill-944"></path>
                    <path d="M375.5202,252.6312 C375.5202,256.6212 378.7542,259.8492 382.7382,259.8492 C386.7282,259.8492 389.9562,256.6212 389.9562,252.6312 L375.5202,252.6312 L375.5202,252.6312 Z" id="Fill-945"></path>
                    <path d="M339.4236,231.0228 C335.4336,231.0228 332.2056,234.2568 332.2056,238.2408 L346.6416,238.2408 C346.6416,234.2568 343.4136,231.0228 339.4236,231.0228" id="Fill-946"></path>
                    <path d="M324.9876,245.4606 C328.9716,245.4606 332.2056,242.2266 332.2056,238.2426 L317.7696,238.2426 C317.7696,242.2266 320.9976,245.4606 324.9876,245.4606" id="Fill-947"></path>
                    <path d="M317.7642,252.6444 C317.7642,256.6344 320.9982,259.8624 324.9882,259.8624 C328.9722,259.8624 332.2062,256.6344 332.2062,252.6444 L317.7642,252.6444 L317.7642,252.6444 Z" id="Fill-948"></path>
                    <path d="M339.4236,245.4258 C335.4336,245.4258 332.2056,248.6598 332.2056,252.6438 L346.6416,252.6438 C346.6416,248.6598 343.4136,245.4258 339.4236,245.4258" id="Fill-949"></path>
                    <path d="M137.3028,259.8894 C133.3128,259.8894 130.0848,263.1234 130.0848,267.1074 L144.5208,267.1074 C144.5208,263.1234 141.2868,259.8894 137.3028,259.8894" id="Fill-950"></path>
                    <path d="M122.865,274.3272 C126.849,274.3272 130.083,271.0932 130.083,267.1092 L115.647,267.1092 C115.647,271.0932 118.881,274.3272 122.865,274.3272" id="Fill-951"></path>
                    <path d="M115.6452,281.5116 C115.6452,285.5016 118.8792,288.7296 122.8632,288.7296 C126.8532,288.7296 130.0812,285.5016 130.0812,281.5116 L115.6452,281.5116 L115.6452,281.5116 Z" id="Fill-952"></path>
                    <path d="M137.3028,274.2924 C133.3128,274.2924 130.0848,277.5264 130.0848,281.5104 L144.5208,281.5104 C144.5208,277.5264 141.2868,274.2924 137.3028,274.2924" id="Fill-953"></path>
                    <path d="M57.8934,252.633 C57.8934,256.623 61.1274,259.851 65.1114,259.851 C69.1014,259.851 72.3294,256.623 72.3294,252.633 L57.8934,252.633 L57.8934,252.633 Z" id="Fill-954"></path>
                    <path d="M79.551,245.4138 C75.561,245.4138 72.333,248.6478 72.333,252.6318 L86.769,252.6318 C86.769,248.6478 83.541,245.4138 79.551,245.4138" id="Fill-955"></path>
                    <path d="M108.426,231.0168 C104.436,231.0168 101.208,234.2508 101.208,238.2348 L115.644,238.2348 C115.644,234.2508 112.416,231.0168 108.426,231.0168" id="Fill-956"></path>
                    <path d="M93.99,245.454 C97.974,245.454 101.208,242.22 101.208,238.236 L86.772,238.236 C86.772,242.22 90,245.454 93.99,245.454" id="Fill-957"></path>
                    <path d="M86.7684,252.6378 C86.7684,256.6278 90.0024,259.8558 93.9864,259.8558 C97.9764,259.8558 101.2044,256.6278 101.2044,252.6378 L86.7684,252.6378 L86.7684,252.6378 Z" id="Fill-958"></path>
                    <path d="M108.426,245.4192 C104.436,245.4192 101.208,248.6532 101.208,252.6372 L115.644,252.6372 C115.644,248.6532 112.416,245.4192 108.426,245.4192" id="Fill-959"></path>
                    <path d="M137.3028,231.0246 C133.3128,231.0246 130.0848,234.2586 130.0848,238.2426 L144.5208,238.2426 C144.5208,234.2586 141.2868,231.0246 137.3028,231.0246" id="Fill-960"></path>
                    <path d="M122.865,245.4624 C126.849,245.4624 130.083,242.2284 130.083,238.2444 L115.647,238.2444 C115.647,242.2284 118.881,245.4624 122.865,245.4624" id="Fill-961"></path>
                    <path d="M115.6452,252.6462 C115.6452,256.6362 118.8792,259.8642 122.8632,259.8642 C126.8532,259.8642 130.0812,256.6362 130.0812,252.6462 L115.6452,252.6462 L115.6452,252.6462 Z" id="Fill-962"></path>
                    <path d="M137.3028,245.4276 C133.3128,245.4276 130.0848,248.6616 130.0848,252.6456 L144.5208,252.6456 C144.5208,248.6616 141.2868,245.4276 137.3028,245.4276" id="Fill-963"></path>
                    <path d="M166.1748,259.908 C162.1848,259.908 158.9568,263.142 158.9568,267.126 L173.3928,267.126 C173.3928,263.142 170.1588,259.908 166.1748,259.908" id="Fill-964"></path>
                    <path d="M151.7388,274.3452 C155.7228,274.3452 158.9568,271.1112 158.9568,267.1272 L144.5208,267.1272 C144.5208,271.1112 147.7488,274.3452 151.7388,274.3452" id="Fill-965"></path>
                    <path d="M144.5184,281.5296 C144.5184,285.5196 147.7524,288.7476 151.7364,288.7476 C155.7204,288.7476 158.9544,285.5196 158.9544,281.5296 L144.5184,281.5296 Z" id="Fill-966"></path>
                    <path d="M166.1748,274.311 C162.1848,274.311 158.9568,277.545 158.9568,281.529 L173.3928,281.529 C173.3928,277.545 170.1588,274.311 166.1748,274.311" id="Fill-967"></path>
                    <path d="M223.9248,259.908 C219.9348,259.908 216.7068,263.142 216.7068,267.126 L231.1428,267.126 C231.1428,263.142 227.9088,259.908 223.9248,259.908" id="Fill-968"></path>
                    <path d="M209.4888,274.3452 C213.4728,274.3452 216.7068,271.1112 216.7068,267.1272 L202.2708,267.1272 C202.2708,271.1112 205.4988,274.3452 209.4888,274.3452" id="Fill-969"></path>
                    <path d="M202.2684,281.5296 C202.2684,285.5196 205.5024,288.7476 209.4864,288.7476 C213.4704,288.7476 216.7044,285.5196 216.7044,281.5296 L202.2684,281.5296 Z" id="Fill-970"></path>
                    <path d="M223.9248,274.311 C219.9348,274.311 216.7068,277.545 216.7068,281.529 L231.1428,281.529 C231.1428,277.545 227.9088,274.311 223.9248,274.311" id="Fill-971"></path>
                    <path d="M195.051,259.908 C191.061,259.908 187.833,263.142 187.833,267.126 L202.269,267.126 C202.269,263.142 199.041,259.908 195.051,259.908" id="Fill-972"></path>
                    <path d="M180.615,274.3452 C184.599,274.3452 187.833,271.1112 187.833,267.1272 L173.397,267.1272 C173.397,271.1112 176.625,274.3452 180.615,274.3452" id="Fill-973"></path>
                    <path d="M173.3934,281.5296 C173.3934,285.5196 176.6274,288.7476 180.6114,288.7476 C184.6014,288.7476 187.8294,285.5196 187.8294,281.5296 L173.3934,281.5296 L173.3934,281.5296 Z" id="Fill-974"></path>
                    <path d="M195.051,274.311 C191.061,274.311 187.833,277.545 187.833,281.529 L202.269,281.529 C202.269,277.545 199.041,274.311 195.051,274.311" id="Fill-975"></path>
                    <path d="M281.6736,259.908 C277.6836,259.908 274.4556,263.142 274.4556,267.126 L288.8916,267.126 C288.8916,263.142 285.6636,259.908 281.6736,259.908" id="Fill-976"></path>
                    <path d="M267.2376,274.3452 C271.2216,274.3452 274.4556,271.1112 274.4556,267.1272 L260.0196,267.1272 C260.0196,271.1112 263.2476,274.3452 267.2376,274.3452" id="Fill-977"></path>
                    <path d="M260.0142,281.5296 C260.0142,285.5196 263.2482,288.7476 267.2382,288.7476 C271.2222,288.7476 274.4562,285.5196 274.4562,281.5296 L260.0142,281.5296 L260.0142,281.5296 Z" id="Fill-978"></path>
                    <path d="M281.6736,274.311 C277.6836,274.311 274.4556,277.545 274.4556,281.529 L288.8916,281.529 C288.8916,277.545 285.6636,274.311 281.6736,274.311" id="Fill-979"></path>
                    <path d="M252.7998,259.908 C248.8098,259.908 245.5818,263.142 245.5818,267.126 L260.0178,267.126 C260.0178,263.142 256.7838,259.908 252.7998,259.908" id="Fill-980"></path>
                    <path d="M238.3638,274.3452 C242.3478,274.3452 245.5818,271.1112 245.5818,267.1272 L231.1458,267.1272 C231.1458,271.1112 234.3738,274.3452 238.3638,274.3452" id="Fill-981"></path>
                    <path d="M231.1434,281.5296 C231.1434,285.5196 234.3774,288.7476 238.3614,288.7476 C242.3454,288.7476 245.5794,285.5196 245.5794,281.5296 L231.1434,281.5296 Z" id="Fill-982"></path>
                    <path d="M252.7998,274.311 C248.8098,274.311 245.5818,277.545 245.5818,281.529 L260.0178,281.529 C260.0178,277.545 256.7838,274.311 252.7998,274.311" id="Fill-983"></path>
                    <path d="M310.5498,259.908 C306.5598,259.908 303.3318,263.142 303.3318,267.126 L317.7678,267.126 C317.7678,263.142 314.5338,259.908 310.5498,259.908" id="Fill-984"></path>
                    <path d="M296.1138,274.3452 C300.0978,274.3452 303.3318,271.1112 303.3318,267.1272 L288.8958,267.1272 C288.8958,271.1112 292.1238,274.3452 296.1138,274.3452" id="Fill-985"></path>
                    <path d="M288.8934,281.5296 C288.8934,285.5196 292.1274,288.7476 296.1114,288.7476 C300.0954,288.7476 303.3294,285.5196 303.3294,281.5296 L288.8934,281.5296 Z" id="Fill-986"></path>
                    <path d="M310.5498,274.311 C306.5598,274.311 303.3318,277.545 303.3318,281.529 L317.7678,281.529 C317.7678,277.545 314.5338,274.311 310.5498,274.311" id="Fill-987"></path>
                    <path d="M195.0498,433.143 C191.0658,433.143 187.8318,436.377 187.8318,440.361 L202.2678,440.361 C202.2678,436.377 199.0398,433.143 195.0498,433.143" id="Fill-988"></path>
                    <path d="M180.615,447.5808 C184.599,447.5808 187.833,444.3468 187.833,440.3628 L173.391,440.3628 C173.391,444.3468 176.625,447.5808 180.615,447.5808" id="Fill-989"></path>
                    <path d="M173.3934,454.7646 C173.3934,458.7546 176.6274,461.9826 180.6114,461.9826 C184.5954,461.9826 187.8294,458.7546 187.8294,454.7646 L173.3934,454.7646 Z" id="Fill-990"></path>
                    <path d="M195.0498,447.546 C191.0598,447.546 187.8318,450.78 187.8318,454.764 L202.2678,454.764 C202.2678,450.78 199.0398,447.546 195.0498,447.546" id="Fill-991"></path>
                    <path d="M223.9248,418.6524 C219.9348,418.6524 216.7068,421.8864 216.7068,425.8704 L231.1428,425.8704 C231.1428,421.8864 227.9088,418.6524 223.9248,418.6524" id="Fill-992"></path>
                    <path d="M209.4888,433.0902 C213.4728,433.0902 216.7068,429.8562 216.7068,425.8722 L202.2708,425.8722 C202.2708,429.8562 205.4988,433.0902 209.4888,433.0902" id="Fill-993"></path>
                    <path d="M202.2684,440.274 C202.2684,444.258 205.5024,447.492 209.4864,447.492 C213.4704,447.492 216.7044,444.258 216.7044,440.274 L202.2684,440.274 Z" id="Fill-994"></path>
                    <path d="M223.9248,433.0554 C219.9348,433.0554 216.7068,436.2894 216.7068,440.2734 L231.1428,440.2734 C231.1428,436.2894 227.9088,433.0554 223.9248,433.0554" id="Fill-995"></path>
                    <path d="M252.7998,433.143 C248.8158,433.143 245.5818,436.377 245.5818,440.361 L260.0178,440.361 C260.0178,436.377 256.7898,433.143 252.7998,433.143" id="Fill-996"></path>
                    <path d="M238.365,447.5808 C242.349,447.5808 245.583,444.3468 245.583,440.3628 L231.141,440.3628 C231.141,444.3468 234.375,447.5808 238.365,447.5808" id="Fill-997"></path>
                    <path d="M231.1434,454.7646 C231.1434,458.7546 234.3774,461.9826 238.3614,461.9826 C242.3454,461.9826 245.5794,458.7546 245.5794,454.7646 L231.1434,454.7646 Z" id="Fill-998"></path>
                    <path d="M252.7998,447.546 C248.8098,447.546 245.5818,450.78 245.5818,454.764 L260.0178,454.764 C260.0178,450.78 256.7898,447.546 252.7998,447.546" id="Fill-999"></path>
                    <path d="M281.6748,418.6524 C277.6848,418.6524 274.4568,421.8864 274.4568,425.8704 L288.8928,425.8704 C288.8928,421.8864 285.6588,418.6524 281.6748,418.6524" id="Fill-1000"></path>
                    <path d="M267.2388,433.0902 C271.2228,433.0902 274.4568,429.8562 274.4568,425.8722 L260.0208,425.8722 C260.0208,429.8562 263.2488,433.0902 267.2388,433.0902" id="Fill-1001"></path>
                    <path d="M260.0184,440.274 C260.0184,444.258 263.2524,447.492 267.2364,447.492 C271.2204,447.492 274.4544,444.258 274.4544,440.274 L260.0184,440.274 Z" id="Fill-1002"></path>
                    <path d="M281.6748,433.0554 C277.6848,433.0554 274.4568,436.2894 274.4568,440.2734 L288.8928,440.2734 C288.8928,436.2894 285.6588,433.0554 281.6748,433.0554" id="Fill-1003"></path>
                    <path d="M310.5498,433.143 C306.5658,433.143 303.3318,436.377 303.3318,440.361 L317.7678,440.361 C317.7678,436.377 314.5398,433.143 310.5498,433.143" id="Fill-1004"></path>
                    <path d="M296.115,447.5808 C300.099,447.5808 303.333,444.3468 303.333,440.3628 L288.891,440.3628 C288.891,444.3468 292.125,447.5808 296.115,447.5808" id="Fill-1005"></path>
                    <path d="M288.8934,454.7646 C288.8934,458.7546 292.1274,461.9826 296.1114,461.9826 C300.0954,461.9826 303.3294,458.7546 303.3294,454.7646 L288.8934,454.7646 Z" id="Fill-1006"></path>
                    <path d="M310.5498,447.546 C306.5598,447.546 303.3318,450.78 303.3318,454.764 L317.7678,454.764 C317.7678,450.78 314.5398,447.546 310.5498,447.546" id="Fill-1007"></path>
                    <path d="M339.4248,418.6524 C335.4348,418.6524 332.2068,421.8864 332.2068,425.8704 L346.6428,425.8704 C346.6428,421.8864 343.4088,418.6524 339.4248,418.6524" id="Fill-1008"></path>
                    <path d="M324.9888,433.0902 C328.9728,433.0902 332.2068,429.8562 332.2068,425.8722 L317.7708,425.8722 C317.7708,429.8562 320.9988,433.0902 324.9888,433.0902" id="Fill-1009"></path>
                    <path d="M317.7684,440.274 C317.7684,444.258 321.0024,447.492 324.9864,447.492 C328.9704,447.492 332.2044,444.258 332.2044,440.274 L317.7684,440.274 Z" id="Fill-1010"></path>
                    <path d="M339.4248,433.0554 C335.4348,433.0554 332.2068,436.2894 332.2068,440.2734 L346.6428,440.2734 C346.6428,436.2894 343.4088,433.0554 339.4248,433.0554" id="Fill-1011"></path>
                    <path d="M368.2998,433.143 C364.3158,433.143 361.0818,436.377 361.0818,440.361 L375.5178,440.361 C375.5178,436.377 372.2898,433.143 368.2998,433.143" id="Fill-1012"></path>
                    <path d="M353.865,447.5808 C357.849,447.5808 361.083,444.3468 361.083,440.3628 L346.641,440.3628 C346.641,444.3468 349.875,447.5808 353.865,447.5808" id="Fill-1013"></path>
                    <path d="M346.6434,454.7646 C346.6434,458.7546 349.8774,461.9826 353.8614,461.9826 C357.8454,461.9826 361.0794,458.7546 361.0794,454.7646 L346.6434,454.7646 Z" id="Fill-1014"></path>
                    <path d="M368.2998,447.546 C364.3098,447.546 361.0818,450.78 361.0818,454.764 L375.5178,454.764 C375.5178,450.78 372.2898,447.546 368.2998,447.546" id="Fill-1015"></path>
                    <path d="M397.1748,418.6524 C393.1848,418.6524 389.9568,421.8864 389.9568,425.8704 L404.3928,425.8704 C404.3928,421.8864 401.1588,418.6524 397.1748,418.6524" id="Fill-1016"></path>
                    <path d="M382.7388,433.0902 C386.7228,433.0902 389.9568,429.8562 389.9568,425.8722 L375.5208,425.8722 C375.5208,429.8562 378.7488,433.0902 382.7388,433.0902" id="Fill-1017"></path>
                    <path d="M375.5184,440.274 C375.5184,444.258 378.7524,447.492 382.7364,447.492 C386.7204,447.492 389.9544,444.258 389.9544,440.274 L375.5184,440.274 Z" id="Fill-1018"></path>
                    <path d="M397.1748,433.0554 C393.1848,433.0554 389.9568,436.2894 389.9568,440.2734 L404.3928,440.2734 C404.3928,436.2894 401.1588,433.0554 397.1748,433.0554" id="Fill-1019"></path>
                    <path d="M426.0498,433.143 C422.0658,433.143 418.8318,436.377 418.8318,440.361 L433.2678,440.361 C433.2678,436.377 430.0398,433.143 426.0498,433.143" id="Fill-1020"></path>
                    <path d="M411.615,447.5808 C415.599,447.5808 418.833,444.3468 418.833,440.3628 L404.391,440.3628 C404.391,444.3468 407.625,447.5808 411.615,447.5808" id="Fill-1021"></path>
                    <path d="M404.3934,454.7646 C404.3934,458.7546 407.6274,461.9826 411.6114,461.9826 C415.5954,461.9826 418.8294,458.7546 418.8294,454.7646 L404.3934,454.7646 Z" id="Fill-1022"></path>
                    <path d="M426.0498,447.546 C422.0598,447.546 418.8318,450.78 418.8318,454.764 L433.2678,454.764 C433.2678,450.78 430.0398,447.546 426.0498,447.546" id="Fill-1023"></path>
                    <path d="M454.9248,418.6524 C450.9348,418.6524 447.7068,421.8864 447.7068,425.8704 L462.1428,425.8704 C462.1428,421.8864 458.9088,418.6524 454.9248,418.6524" id="Fill-1024"></path>
                    <path d="M440.4888,433.0902 C444.4728,433.0902 447.7068,429.8562 447.7068,425.8722 L433.2708,425.8722 C433.2708,429.8562 436.4988,433.0902 440.4888,433.0902" id="Fill-1025"></path>
                    <path d="M433.2684,440.274 C433.2684,444.258 436.5024,447.492 440.4864,447.492 C444.4704,447.492 447.7044,444.258 447.7044,440.274 L433.2684,440.274 Z" id="Fill-1026"></path>
                    <path d="M454.9248,433.0554 C450.9348,433.0554 447.7068,436.2894 447.7068,440.2734 L462.1428,440.2734 C462.1428,436.2894 458.9088,433.0554 454.9248,433.0554" id="Fill-1027"></path>
                </g>
            </g>
        </g>
    </g>
</svg>