<?xml version="1.0" encoding="UTF-8" standalone="no"?>
<svg width="126px" height="144px" viewBox="0 0 126 144" version="1.1" xmlns="http://www.w3.org/2000/svg" xmlns:xlink="http://www.w3.org/1999/xlink">
    <!-- Generator: Sketch 39.1 (31720) - http://www.bohemiancoding.com/sketch -->
    <title>railway</title>
    <desc>Created with Sketch.</desc>
    <defs></defs>
    <g id="Symbols" stroke="none" stroke-width="1" fill="none" fill-rule="evenodd">
        <g id="box-areas" transform="translate(-973.000000, -160.000000)" fill="#EB0029">
            <path d="M1078.767,281.4962 C1077.523,281.4962 1076.517,282.5042 1076.517,283.7462 L1081.017,283.7462 C1081.017,282.5042 1080.009,281.4962 1078.767,281.4962 L1078.767,281.4962 Z M1072.015,283.7462 C1072.015,284.9902 1073.024,285.9972 1074.267,285.9972 C1075.509,285.9972 1076.517,284.9902 1076.517,283.7462 L1072.015,283.7462 Z M1074.266,281.5072 C1075.508,281.5072 1076.516,280.4992 1076.516,279.2572 L1072.016,279.2572 C1072.016,280.4992 1073.024,281.5072 1074.266,281.5072 L1074.266,281.5072 Z M1078.767,277.0072 C1077.523,277.0072 1076.517,278.0132 1076.517,279.2572 L1081.017,279.2572 C1081.017,278.0132 1080.009,277.0072 1078.767,277.0072 L1078.767,277.0072 Z M1087.768,290.4972 C1086.525,290.4972 1085.518,291.5062 1085.518,292.7482 L1090.018,292.7482 C1090.018,291.5062 1089.012,290.4972 1087.768,290.4972 L1087.768,290.4972 Z M1081.017,292.7482 C1081.017,293.9912 1082.024,294.9982 1083.268,294.9982 C1084.511,294.9982 1085.518,293.9912 1085.518,292.7482 L1081.017,292.7482 Z M1083.268,290.5092 C1084.511,290.5092 1085.518,289.5002 1085.518,288.2582 L1081.017,288.2582 C1081.017,289.5002 1082.026,290.5092 1083.268,290.5092 L1083.268,290.5092 Z M1087.768,286.0082 C1086.525,286.0082 1085.518,287.0152 1085.518,288.2582 L1090.018,288.2582 C1090.018,287.0152 1089.012,286.0082 1087.768,286.0082 L1087.768,286.0082 Z M1096.77,299.4992 C1095.526,299.4992 1094.52,300.5062 1094.52,301.7492 L1099.02,301.7492 C1099.02,300.5062 1098.012,299.4992 1096.77,299.4992 L1096.77,299.4992 Z M1090.019,301.7502 C1090.019,302.9932 1091.025,304.0002 1092.269,304.0002 C1093.512,304.0002 1094.519,302.9932 1094.519,301.7502 L1090.019,301.7502 Z M1092.269,299.5102 C1093.513,299.5102 1094.519,298.5022 1094.519,297.2602 L1090.019,297.2602 C1090.019,298.5022 1091.027,299.5102 1092.269,299.5102 L1092.269,299.5102 Z M1096.77,295.0092 C1095.526,295.0092 1094.52,296.0162 1094.52,297.2602 L1099.02,297.2602 C1099.02,296.0162 1098.012,295.0092 1096.77,295.0092 L1096.77,295.0092 Z M1078.767,245.5242 C1077.523,245.5242 1076.517,246.5302 1076.517,247.7742 L1081.017,247.7742 C1081.017,246.5302 1080.009,245.5242 1078.767,245.5242 L1078.767,245.5242 Z M1072.015,247.7742 C1072.015,249.0182 1073.024,250.0252 1074.267,250.0252 C1075.509,250.0252 1076.517,249.0182 1076.517,247.7742 L1072.015,247.7742 Z M1074.266,245.5352 C1075.508,245.5352 1076.516,244.5262 1076.516,243.2852 L1072.016,243.2852 C1072.016,244.5262 1073.024,245.5352 1074.266,245.5352 L1074.266,245.5352 Z M1078.767,241.0342 C1077.523,241.0342 1076.517,242.0412 1076.517,243.2842 L1081.017,243.2842 C1081.017,242.0412 1080.009,241.0342 1078.767,241.0342 L1078.767,241.0342 Z M1078.767,254.5142 C1077.523,254.5142 1076.517,255.5212 1076.517,256.7652 L1081.017,256.7652 C1081.017,255.5212 1080.009,254.5142 1078.767,254.5142 L1078.767,254.5142 Z M1072.015,256.7652 C1072.015,258.0072 1073.024,259.0152 1074.267,259.0152 C1075.509,259.0152 1076.517,258.0072 1076.517,256.7652 L1072.015,256.7652 Z M1074.266,254.5252 C1075.508,254.5252 1076.516,253.5162 1076.516,252.2752 L1072.016,252.2752 C1072.016,253.5162 1073.024,254.5252 1074.266,254.5252 L1074.266,254.5252 Z M1078.767,250.0242 C1077.523,250.0242 1076.517,251.0332 1076.517,252.2742 L1081.017,252.2742 C1081.017,251.0332 1080.009,250.0242 1078.767,250.0242 L1078.767,250.0242 Z M1078.767,263.5162 C1077.523,263.5162 1076.517,264.5222 1076.517,265.7662 L1081.017,265.7662 C1081.017,264.5222 1080.009,263.5162 1078.767,263.5162 L1078.767,263.5162 Z M1072.016,265.7662 C1072.016,267.0082 1073.024,268.0162 1074.266,268.0162 C1075.508,268.0162 1076.516,267.0082 1076.516,265.7662 L1072.016,265.7662 Z M1074.267,263.5262 C1075.511,263.5262 1076.517,262.5182 1076.517,261.2762 L1072.015,261.2762 C1072.015,262.5182 1073.024,263.5262 1074.267,263.5262 L1074.267,263.5262 Z M1078.767,259.0262 C1077.525,259.0262 1076.517,260.0342 1076.517,261.2762 L1081.017,261.2762 C1081.017,260.0342 1080.009,259.0262 1078.767,259.0262 L1078.767,259.0262 Z M1069.766,263.5162 C1068.522,263.5162 1067.516,264.5222 1067.516,265.7662 L1072.016,265.7662 C1072.016,264.5222 1071.008,263.5162 1069.766,263.5162 L1069.766,263.5162 Z M1063.013,265.7662 C1063.013,267.0082 1064.022,268.0162 1065.265,268.0162 C1066.507,268.0162 1067.516,267.0082 1067.516,265.7662 L1063.015,265.7662 L1063.013,265.7662 Z M1065.265,263.5262 C1066.507,263.5262 1067.515,262.5182 1067.515,261.2762 L1063.015,261.2762 C1063.015,262.5182 1064.021,263.5262 1065.265,263.5262 L1065.265,263.5262 Z M1069.766,259.0262 C1068.522,259.0262 1067.516,260.0342 1067.516,261.2762 L1072.016,261.2762 C1072.016,260.0342 1071.008,259.0262 1069.766,259.0262 L1069.766,259.0262 Z M997.754,290.4862 C996.511,290.4862 995.504,291.4932 995.504,292.7372 L1000.005,292.7372 C1000.005,291.4932 998.996,290.4862 997.754,290.4862 L997.754,290.4862 Z M991.003,292.7372 C991.003,293.9802 992.012,294.9872 993.254,294.9872 C994.495,294.9872 995.504,293.9802 995.504,292.7372 L991.003,292.7372 Z M993.255,290.4972 C994.498,290.4972 995.505,289.4892 995.505,288.2472 L991.003,288.2472 C991.003,289.4892 992.011,290.4972 993.255,290.4972 L993.255,290.4972 Z M997.754,285.9972 C996.513,285.9972 995.504,287.0032 995.504,288.2472 L1000.005,288.2472 C1000.005,287.0032 998.996,285.9972 997.754,285.9972 L997.754,285.9972 Z M1078.767,290.4862 C1077.523,290.4862 1076.517,291.4932 1076.517,292.7372 L1081.017,292.7372 C1081.017,291.4932 1080.009,290.4862 1078.767,290.4862 L1078.767,290.4862 Z M1072.015,292.7372 C1072.015,293.9802 1073.024,294.9872 1074.267,294.9872 C1075.509,294.9872 1076.517,293.9802 1076.517,292.7372 L1072.015,292.7372 Z M1074.266,290.4972 C1075.508,290.4972 1076.516,289.4892 1076.516,288.2472 L1072.016,288.2472 C1072.016,289.4892 1073.024,290.4972 1074.266,290.4972 L1074.266,290.4972 Z M1078.767,285.9972 C1077.523,285.9972 1076.517,287.0032 1076.517,288.2472 L1081.017,288.2472 C1081.017,287.0032 1080.009,285.9972 1078.767,285.9972 L1078.767,285.9972 Z M1069.766,290.4862 C1068.522,290.4862 1067.516,291.4932 1067.516,292.7372 L1072.016,292.7372 C1072.016,291.4932 1071.008,290.4862 1069.766,290.4862 L1069.766,290.4862 Z M1063.013,292.7372 C1063.013,293.9802 1064.022,294.9872 1065.265,294.9872 C1066.507,294.9872 1067.516,293.9802 1067.516,292.7372 L1063.015,292.7372 L1063.013,292.7372 Z M1065.265,290.4972 C1066.507,290.4972 1067.515,289.4892 1067.515,288.2472 L1063.015,288.2472 C1063.015,289.4892 1064.021,290.4972 1065.265,290.4972 L1065.265,290.4972 Z M1069.766,285.9972 C1068.522,285.9972 1067.516,287.0032 1067.516,288.2472 L1072.016,288.2472 C1072.016,287.0032 1071.008,285.9972 1069.766,285.9972 L1069.766,285.9972 Z M1060.764,290.4862 C1059.521,290.4862 1058.514,291.4932 1058.514,292.7372 L1063.015,292.7372 C1063.015,291.4932 1062.006,290.4862 1060.764,290.4862 L1060.764,290.4862 Z M1054.012,292.7372 C1054.012,293.9802 1055.02,294.9872 1056.264,294.9872 C1057.506,294.9872 1058.514,293.9802 1058.514,292.7372 L1054.012,292.7372 Z M1056.264,290.4972 C1057.506,290.4972 1058.514,289.4892 1058.514,288.2472 L1054.014,288.2472 C1054.014,289.4892 1055.02,290.4972 1056.264,290.4972 L1056.264,290.4972 Z M1060.764,285.9972 C1059.521,285.9972 1058.514,287.0032 1058.514,288.2472 L1063.015,288.2472 C1063.015,287.0032 1062.006,285.9972 1060.764,285.9972 L1060.764,285.9972 Z M1051.763,290.4862 C1050.519,290.4862 1049.512,291.4932 1049.512,292.7372 L1054.013,292.7372 C1054.013,291.4932 1053.006,290.4862 1051.763,290.4862 L1051.763,290.4862 Z M1045.011,292.7372 C1045.011,293.9802 1046.019,294.9872 1047.263,294.9872 C1048.505,294.9872 1049.513,293.9802 1049.513,292.7372 L1045.011,292.7372 Z M1047.262,290.4972 C1048.506,290.4972 1049.512,289.4892 1049.512,288.2472 L1045.012,288.2472 C1045.012,289.4892 1046.02,290.4972 1047.262,290.4972 L1047.262,290.4972 Z M1051.763,285.9972 C1050.519,285.9972 1049.512,287.0032 1049.512,288.2472 L1054.013,288.2472 C1054.013,287.0032 1053.006,285.9972 1051.763,285.9972 L1051.763,285.9972 Z M1042.761,290.4862 C1041.518,290.4862 1040.511,291.4932 1040.511,292.7372 L1045.012,292.7372 C1045.012,291.4932 1044.005,290.4862 1042.761,290.4862 L1042.761,290.4862 Z M1036.01,292.7372 C1036.01,293.9802 1037.017,294.9872 1038.261,294.9872 C1039.502,294.9872 1040.511,293.9802 1040.511,292.7372 L1036.01,292.7372 Z M1038.261,290.4972 C1039.502,290.4972 1040.511,289.4892 1040.511,288.2472 L1036.01,288.2472 C1036.01,289.4892 1037.019,290.4972 1038.261,290.4972 L1038.261,290.4972 Z M1042.761,285.9972 C1041.518,285.9972 1040.511,287.0032 1040.511,288.2472 L1045.012,288.2472 C1045.012,287.0032 1044.005,285.9972 1042.761,285.9972 L1042.761,285.9972 Z M1033.76,290.4862 C1032.516,290.4862 1031.51,291.4932 1031.51,292.7372 L1036.01,292.7372 C1036.01,291.4932 1035.002,290.4862 1033.76,290.4862 L1033.76,290.4862 Z M1027.009,292.7372 C1027.009,293.9802 1028.016,294.9872 1029.259,294.9872 C1030.501,294.9872 1031.509,293.9802 1031.509,292.7372 L1027.009,292.7372 Z M1029.259,290.4972 C1030.501,290.4972 1031.51,289.4892 1031.51,288.2472 L1027.009,288.2472 C1027.009,289.4892 1028.016,290.4972 1029.259,290.4972 L1029.259,290.4972 Z M1033.76,285.9972 C1032.516,285.9972 1031.51,287.0032 1031.51,288.2472 L1036.01,288.2472 C1036.01,287.0032 1035.002,285.9972 1033.76,285.9972 L1033.76,285.9972 Z M1024.759,290.4862 C1023.515,290.4862 1022.509,291.4932 1022.509,292.7372 L1027.009,292.7372 C1027.009,291.4932 1026.001,290.4862 1024.759,290.4862 L1024.759,290.4862 Z M1018.008,292.7372 C1018.008,293.9802 1019.014,294.9872 1020.258,294.9872 C1021.5,294.9872 1022.508,293.9802 1022.508,292.7372 L1018.008,292.7372 Z M1020.258,290.4972 C1021.5,290.4972 1022.508,289.4892 1022.508,288.2472 L1018.008,288.2472 C1018.008,289.4892 1019.014,290.4972 1020.258,290.4972 L1020.258,290.4972 Z M1024.759,285.9972 C1023.515,285.9972 1022.509,287.0032 1022.509,288.2472 L1027.009,288.2472 C1027.009,287.0032 1026.001,285.9972 1024.759,285.9972 L1024.759,285.9972 Z M1015.757,290.4862 C1014.513,290.4862 1013.507,291.4932 1013.507,292.7372 L1018.007,292.7372 C1018.007,291.4932 1017.001,290.4862 1015.757,290.4862 L1015.757,290.4862 Z M1009.006,292.7372 C1009.006,293.9802 1010.013,294.9872 1011.256,294.9872 C1012.5,294.9872 1013.506,293.9802 1013.506,292.7372 L1009.006,292.7372 Z M1011.256,290.4972 C1012.5,290.4972 1013.506,289.4892 1013.506,288.2472 L1009.006,288.2472 C1009.006,289.4892 1010.014,290.4972 1011.256,290.4972 L1011.256,290.4972 Z M1015.757,285.9972 C1014.513,285.9972 1013.507,287.0032 1013.507,288.2472 L1018.007,288.2472 C1018.007,287.0032 1017.001,285.9972 1015.757,285.9972 L1015.757,285.9972 Z M1006.756,290.4862 C1005.512,290.4862 1004.506,291.4932 1004.506,292.7372 L1009.006,292.7372 C1009.006,291.4932 1007.999,290.4862 1006.756,290.4862 L1006.756,290.4862 Z M1000.005,292.7372 C1000.005,293.9802 1001.011,294.9872 1002.255,294.9872 C1003.499,294.9872 1004.505,293.9802 1004.505,292.7372 L1000.005,292.7372 Z M1002.255,290.4972 C1003.499,290.4972 1004.505,289.4892 1004.505,288.2472 L1000.005,288.2472 C1000.005,289.4892 1001.013,290.4972 1002.255,290.4972 L1002.255,290.4972 Z M1006.756,285.9972 C1005.512,285.9972 1004.506,287.0032 1004.506,288.2472 L1009.006,288.2472 C1009.006,287.0032 1007.999,285.9972 1006.756,285.9972 L1006.756,285.9972 Z M1069.766,272.4952 C1068.522,272.4952 1067.516,273.5032 1067.516,274.7452 L1072.016,274.7452 C1072.016,273.5032 1071.008,272.4952 1069.766,272.4952 L1069.766,272.4952 Z M1063.013,274.7452 C1063.013,275.9892 1064.022,276.9952 1065.265,276.9952 C1066.507,276.9952 1067.516,275.9892 1067.516,274.7452 L1063.015,274.7452 L1063.013,274.7452 Z M1065.265,272.5062 C1066.507,272.5062 1067.515,271.4982 1067.515,270.2562 L1063.015,270.2562 C1063.015,271.4982 1064.021,272.5062 1065.265,272.5062 L1065.265,272.5062 Z M1069.766,268.0052 C1068.522,268.0052 1067.516,269.0122 1067.516,270.2552 L1072.016,270.2552 C1072.016,269.0122 1071.008,268.0052 1069.766,268.0052 L1069.766,268.0052 Z M1060.764,263.5162 C1059.521,263.5162 1058.514,264.5222 1058.514,265.7662 L1063.015,265.7662 C1063.015,264.5222 1062.006,263.5162 1060.764,263.5162 L1060.764,263.5162 Z M1054.012,265.7662 C1054.012,267.0082 1055.02,268.0162 1056.264,268.0162 C1057.506,268.0162 1058.514,267.0082 1058.514,265.7662 L1054.012,265.7662 Z M1056.264,263.5262 C1057.506,263.5262 1058.514,262.5182 1058.514,261.2762 L1054.014,261.2762 C1054.014,262.5182 1055.02,263.5262 1056.264,263.5262 L1056.264,263.5262 Z M1060.764,259.0262 C1059.521,259.0262 1058.514,260.0342 1058.514,261.2762 L1063.015,261.2762 C1063.015,260.0342 1062.006,259.0262 1060.764,259.0262 L1060.764,259.0262 Z M1060.764,272.4952 C1059.521,272.4952 1058.514,273.5032 1058.514,274.7452 L1063.015,274.7452 C1063.015,273.5032 1062.006,272.4952 1060.764,272.4952 L1060.764,272.4952 Z M1054.012,274.7452 C1054.012,275.9892 1055.02,276.9952 1056.264,276.9952 C1057.506,276.9952 1058.514,275.9892 1058.514,274.7452 L1054.012,274.7452 Z M1056.264,272.5062 C1057.506,272.5062 1058.514,271.4982 1058.514,270.2562 L1054.014,270.2562 C1054.014,271.4982 1055.02,272.5062 1056.264,272.5062 L1056.264,272.5062 Z M1060.764,268.0052 C1059.521,268.0052 1058.514,269.0122 1058.514,270.2552 L1063.015,270.2552 C1063.015,269.0122 1062.006,268.0052 1060.764,268.0052 L1060.764,268.0052 Z M1051.763,263.5162 C1050.519,263.5162 1049.512,264.5222 1049.512,265.7662 L1054.013,265.7662 C1054.013,264.5222 1053.006,263.5162 1051.763,263.5162 L1051.763,263.5162 Z M1045.011,265.7662 C1045.011,267.0082 1046.019,268.0162 1047.263,268.0162 C1048.505,268.0162 1049.513,267.0082 1049.513,265.7662 L1045.011,265.7662 Z M1047.262,263.5262 C1048.506,263.5262 1049.512,262.5182 1049.512,261.2762 L1045.012,261.2762 C1045.012,262.5182 1046.02,263.5262 1047.262,263.5262 L1047.262,263.5262 Z M1051.763,259.0262 C1050.519,259.0262 1049.512,260.0342 1049.512,261.2762 L1054.013,261.2762 C1054.013,260.0342 1053.006,259.0262 1051.763,259.0262 L1051.763,259.0262 Z M1051.763,272.4952 C1050.519,272.4952 1049.512,273.5032 1049.512,274.7452 L1054.013,274.7452 C1054.013,273.5032 1053.006,272.4952 1051.763,272.4952 L1051.763,272.4952 Z M1045.011,274.7452 C1045.011,275.9892 1046.019,276.9952 1047.263,276.9952 C1048.505,276.9952 1049.513,275.9892 1049.513,274.7452 L1045.011,274.7452 Z M1047.262,272.5062 C1048.506,272.5062 1049.512,271.4982 1049.512,270.2562 L1045.012,270.2562 C1045.012,271.4982 1046.02,272.5062 1047.262,272.5062 L1047.262,272.5062 Z M1051.763,268.0052 C1050.519,268.0052 1049.512,269.0122 1049.512,270.2552 L1054.013,270.2552 C1054.013,269.0122 1053.006,268.0052 1051.763,268.0052 L1051.763,268.0052 Z M1042.761,263.5162 C1041.518,263.5162 1040.511,264.5222 1040.511,265.7662 L1045.012,265.7662 C1045.012,264.5222 1044.005,263.5162 1042.761,263.5162 L1042.761,263.5162 Z M1036.01,265.7662 C1036.01,267.0082 1037.017,268.0162 1038.261,268.0162 C1039.502,268.0162 1040.511,267.0082 1040.511,265.7662 L1036.01,265.7662 Z M1038.261,263.5262 C1039.502,263.5262 1040.511,262.5182 1040.511,261.2762 L1036.01,261.2762 C1036.01,262.5182 1037.019,263.5262 1038.261,263.5262 L1038.261,263.5262 Z M1042.761,259.0262 C1041.518,259.0262 1040.511,260.0342 1040.511,261.2762 L1045.012,261.2762 C1045.012,260.0342 1044.005,259.0262 1042.761,259.0262 L1042.761,259.0262 Z M1042.761,272.4952 C1041.518,272.4952 1040.511,273.5032 1040.511,274.7452 L1045.012,274.7452 C1045.012,273.5032 1044.005,272.4952 1042.761,272.4952 L1042.761,272.4952 Z M1036.01,274.7452 C1036.01,275.9892 1037.017,276.9952 1038.261,276.9952 C1039.502,276.9952 1040.511,275.9892 1040.511,274.7452 L1036.01,274.7452 Z M1038.261,272.5062 C1039.502,272.5062 1040.511,271.4982 1040.511,270.2562 L1036.01,270.2562 C1036.01,271.4982 1037.019,272.5062 1038.261,272.5062 L1038.261,272.5062 Z M1042.761,268.0052 C1041.518,268.0052 1040.511,269.0122 1040.511,270.2552 L1045.012,270.2552 C1045.012,269.0122 1044.005,268.0052 1042.761,268.0052 L1042.761,268.0052 Z M1033.76,263.5162 C1032.516,263.5162 1031.51,264.5222 1031.51,265.7662 L1036.01,265.7662 C1036.01,264.5222 1035.002,263.5162 1033.76,263.5162 L1033.76,263.5162 Z M1027.009,265.7662 C1027.009,267.0082 1028.016,268.0162 1029.259,268.0162 C1030.501,268.0162 1031.509,267.0082 1031.509,265.7662 L1027.009,265.7662 Z M1029.259,263.5262 C1030.501,263.5262 1031.51,262.5182 1031.51,261.2762 L1027.009,261.2762 C1027.009,262.5182 1028.016,263.5262 1029.259,263.5262 L1029.259,263.5262 Z M1033.76,259.0262 C1032.516,259.0262 1031.51,260.0342 1031.51,261.2762 L1036.01,261.2762 C1036.01,260.0342 1035.002,259.0262 1033.76,259.0262 L1033.76,259.0262 Z M1033.76,272.4952 C1032.516,272.4952 1031.51,273.5032 1031.51,274.7452 L1036.01,274.7452 C1036.01,273.5032 1035.002,272.4952 1033.76,272.4952 L1033.76,272.4952 Z M1027.009,274.7452 C1027.009,275.9892 1028.016,276.9952 1029.259,276.9952 C1030.501,276.9952 1031.509,275.9892 1031.509,274.7452 L1027.009,274.7452 Z M1029.259,272.5062 C1030.501,272.5062 1031.51,271.4982 1031.51,270.2562 L1027.009,270.2562 C1027.009,271.4982 1028.016,272.5062 1029.259,272.5062 L1029.259,272.5062 Z M1033.76,268.0052 C1032.516,268.0052 1031.51,269.0122 1031.51,270.2552 L1036.01,270.2552 C1036.01,269.0122 1035.002,268.0052 1033.76,268.0052 L1033.76,268.0052 Z M1024.759,263.5162 C1023.515,263.5162 1022.509,264.5222 1022.509,265.7662 L1027.009,265.7662 C1027.009,264.5222 1026.001,263.5162 1024.759,263.5162 L1024.759,263.5162 Z M1018.008,265.7662 C1018.008,267.0082 1019.014,268.0162 1020.258,268.0162 C1021.5,268.0162 1022.508,267.0082 1022.508,265.7662 L1018.008,265.7662 Z M1020.258,263.5262 C1021.5,263.5262 1022.508,262.5182 1022.508,261.2762 L1018.008,261.2762 C1018.008,262.5182 1019.014,263.5262 1020.258,263.5262 L1020.258,263.5262 Z M1024.759,259.0262 C1023.515,259.0262 1022.509,260.0342 1022.509,261.2762 L1027.009,261.2762 C1027.009,260.0342 1026.001,259.0262 1024.759,259.0262 L1024.759,259.0262 Z M1024.759,272.4952 C1023.515,272.4952 1022.509,273.5032 1022.509,274.7452 L1027.009,274.7452 C1027.009,273.5032 1026.001,272.4952 1024.759,272.4952 L1024.759,272.4952 Z M1018.008,274.7452 C1018.008,275.9892 1019.014,276.9952 1020.258,276.9952 C1021.5,276.9952 1022.508,275.9892 1022.508,274.7452 L1018.008,274.7452 Z M1020.258,272.5062 C1021.5,272.5062 1022.508,271.4982 1022.508,270.2562 L1018.008,270.2562 C1018.008,271.4982 1019.014,272.5062 1020.258,272.5062 L1020.258,272.5062 Z M1024.759,268.0052 C1023.515,268.0052 1022.509,269.0122 1022.509,270.2552 L1027.009,270.2552 C1027.009,269.0122 1026.001,268.0052 1024.759,268.0052 L1024.759,268.0052 Z M1015.757,263.5162 C1014.513,263.5162 1013.507,264.5222 1013.507,265.7662 L1018.007,265.7662 C1018.007,264.5222 1017.001,263.5162 1015.757,263.5162 L1015.757,263.5162 Z M1009.006,265.7662 C1009.006,267.0082 1010.013,268.0162 1011.256,268.0162 C1012.5,268.0162 1013.506,267.0082 1013.506,265.7662 L1009.006,265.7662 Z M1011.256,263.5262 C1012.5,263.5262 1013.506,262.5182 1013.506,261.2762 L1009.006,261.2762 C1009.006,262.5182 1010.014,263.5262 1011.256,263.5262 L1011.256,263.5262 Z M1015.757,259.0262 C1014.513,259.0262 1013.507,260.0342 1013.507,261.2762 L1018.007,261.2762 C1018.007,260.0342 1017.001,259.0262 1015.757,259.0262 L1015.757,259.0262 Z M1015.757,272.4952 C1014.513,272.4952 1013.507,273.5032 1013.507,274.7452 L1018.007,274.7452 C1018.007,273.5032 1017.001,272.4952 1015.757,272.4952 L1015.757,272.4952 Z M1009.006,274.7452 C1009.006,275.9892 1010.013,276.9952 1011.256,276.9952 C1012.5,276.9952 1013.506,275.9892 1013.506,274.7452 L1009.006,274.7452 Z M1011.256,272.5062 C1012.5,272.5062 1013.506,271.4982 1013.506,270.2562 L1009.006,270.2562 C1009.006,271.4982 1010.014,272.5062 1011.256,272.5062 L1011.256,272.5062 Z M1015.757,268.0052 C1014.513,268.0052 1013.507,269.0122 1013.507,270.2552 L1018.007,270.2552 C1018.007,269.0122 1017.001,268.0052 1015.757,268.0052 L1015.757,268.0052 Z M1078.768,173.4902 C1077.524,173.4902 1076.518,174.4992 1076.518,175.7412 L1081.018,175.7412 C1081.018,174.4992 1080.012,173.4902 1078.768,173.4902 L1078.768,173.4902 Z M1072.017,175.7412 C1072.017,176.9852 1073.023,177.9912 1074.267,177.9912 C1075.511,177.9912 1076.517,176.9852 1076.517,175.7412 L1072.017,175.7412 Z M1074.267,173.5022 C1075.511,173.5022 1076.517,172.4932 1076.517,171.2522 L1072.017,171.2522 C1072.017,172.4932 1073.025,173.5022 1074.267,173.5022 L1074.267,173.5022 Z M1078.768,169.0012 C1077.524,169.0012 1076.518,170.0082 1076.518,171.2522 L1081.018,171.2522 C1081.018,170.0082 1080.012,169.0012 1078.768,169.0012 L1078.768,169.0012 Z M997.754,173.4902 C996.511,173.4902 995.504,174.4992 995.504,175.7412 L1000.005,175.7412 C1000.005,174.4992 998.996,173.4902 997.754,173.4902 L997.754,173.4902 Z M991.003,175.7412 C991.003,176.9852 992.01,177.9912 993.254,177.9912 C994.495,177.9912 995.504,176.9852 995.504,175.7412 L991.003,175.7412 Z M993.254,173.5022 C994.496,173.5022 995.504,172.4932 995.504,171.2522 L991.004,171.2522 C991.004,172.4932 992.012,173.5022 993.254,173.5022 L993.254,173.5022 Z M997.754,169.0012 C996.511,169.0012 995.504,170.0082 995.504,171.2522 L1000.005,171.2522 C1000.005,170.0082 998.996,169.0012 997.754,169.0012 L997.754,169.0012 Z M1060.764,164.4892 C1059.521,164.4892 1058.514,165.4982 1058.514,166.7392 L1063.015,166.7392 C1063.015,165.4982 1062.006,164.4892 1060.764,164.4892 L1060.764,164.4892 Z M1054.013,166.7402 C1054.013,167.9832 1055.02,168.9902 1056.263,168.9902 C1057.507,168.9902 1058.513,167.9832 1058.513,166.7402 L1054.013,166.7402 Z M1056.264,164.5012 C1057.506,164.5012 1058.514,163.4922 1058.514,162.2502 L1054.014,162.2502 C1054.014,163.4922 1055.02,164.5012 1056.264,164.5012 L1056.264,164.5012 Z M1060.764,160.0002 C1059.521,160.0002 1058.514,161.0062 1058.514,162.2502 L1063.015,162.2502 C1063.015,161.0062 1062.006,160.0002 1060.764,160.0002 L1060.764,160.0002 Z M1069.766,164.4892 C1068.522,164.4892 1067.516,165.4982 1067.516,166.7392 L1072.016,166.7392 C1072.016,165.4982 1071.008,164.4892 1069.766,164.4892 L1069.766,164.4892 Z M1063.013,166.7402 C1063.013,167.9832 1064.022,168.9902 1065.265,168.9902 C1066.507,168.9902 1067.516,167.9832 1067.516,166.7402 L1063.015,166.7402 L1063.013,166.7402 Z M1065.265,164.5012 C1066.507,164.5012 1067.515,163.4922 1067.515,162.2502 L1063.015,162.2502 C1063.015,163.4922 1064.021,164.5012 1065.265,164.5012 L1065.265,164.5012 Z M1069.766,160.0002 C1068.522,160.0002 1067.516,161.0062 1067.516,162.2502 L1072.016,162.2502 C1072.016,161.0062 1071.008,160.0002 1069.766,160.0002 L1069.766,160.0002 Z M1042.761,164.4892 C1041.518,164.4892 1040.511,165.4982 1040.511,166.7392 L1045.012,166.7392 C1045.012,165.4982 1044.005,164.4892 1042.761,164.4892 L1042.761,164.4892 Z M1036.01,166.7402 C1036.01,167.9832 1037.017,168.9902 1038.261,168.9902 C1039.502,168.9902 1040.511,167.9832 1040.511,166.7402 L1036.01,166.7402 Z M1038.261,164.5012 C1039.502,164.5012 1040.511,163.4922 1040.511,162.2502 L1036.01,162.2502 C1036.01,163.4922 1037.019,164.5012 1038.261,164.5012 L1038.261,164.5012 Z M1042.761,160.0002 C1041.518,160.0002 1040.511,161.0062 1040.511,162.2502 L1045.012,162.2502 C1045.012,161.0062 1044.005,160.0002 1042.761,160.0002 L1042.761,160.0002 Z M1051.762,164.4892 C1050.52,164.4892 1049.511,165.4982 1049.511,166.7392 L1054.012,166.7392 C1054.012,165.4982 1053.005,164.4892 1051.762,164.4892 L1051.762,164.4892 Z M1045.011,166.7402 C1045.011,167.9832 1046.019,168.9902 1047.261,168.9902 C1048.503,168.9902 1049.511,167.9832 1049.511,166.7402 L1045.011,166.7402 Z M1047.262,164.5012 C1048.506,164.5012 1049.512,163.4922 1049.512,162.2502 L1045.01,162.2502 C1045.01,163.4922 1046.018,164.5012 1047.262,164.5012 L1047.262,164.5012 Z M1051.762,160.0002 C1050.52,160.0002 1049.511,161.0062 1049.511,162.2502 L1054.012,162.2502 C1054.012,161.0062 1053.005,160.0002 1051.762,160.0002 L1051.762,160.0002 Z M1024.759,164.4892 C1023.515,164.4892 1022.509,165.4982 1022.509,166.7392 L1027.009,166.7392 C1027.009,165.4982 1026.001,164.4892 1024.759,164.4892 L1024.759,164.4892 Z M1018.008,166.7402 C1018.008,167.9832 1019.016,168.9902 1020.258,168.9902 C1021.5,168.9902 1022.508,167.9832 1022.508,166.7402 L1018.008,166.7402 Z M1020.259,164.5012 C1021.501,164.5012 1022.509,163.4922 1022.509,162.2502 L1018.007,162.2502 C1018.007,163.4922 1019.015,164.5012 1020.259,164.5012 L1020.259,164.5012 Z M1024.759,160.0002 C1023.515,160.0002 1022.509,161.0062 1022.509,162.2502 L1027.009,162.2502 C1027.009,161.0062 1026.001,160.0002 1024.759,160.0002 L1024.759,160.0002 Z M1033.76,164.4892 C1032.516,164.4892 1031.51,165.4982 1031.51,166.7392 L1036.01,166.7392 C1036.01,165.4982 1035.002,164.4892 1033.76,164.4892 L1033.76,164.4892 Z M1027.009,166.7402 C1027.009,167.9832 1028.016,168.9902 1029.259,168.9902 C1030.501,168.9902 1031.509,167.9832 1031.509,166.7402 L1027.009,166.7402 Z M1029.259,164.5012 C1030.501,164.5012 1031.51,163.4922 1031.51,162.2502 L1027.009,162.2502 C1027.009,163.4922 1028.016,164.5012 1029.259,164.5012 L1029.259,164.5012 Z M1033.76,160.0002 C1032.516,160.0002 1031.51,161.0062 1031.51,162.2502 L1036.01,162.2502 C1036.01,161.0062 1035.002,160.0002 1033.76,160.0002 L1033.76,160.0002 Z M1006.756,164.4892 C1005.512,164.4892 1004.506,165.4982 1004.506,166.7392 L1009.006,166.7392 C1009.006,165.4982 1007.999,164.4892 1006.756,164.4892 L1006.756,164.4892 Z M1000.005,166.7402 C1000.005,167.9832 1001.011,168.9902 1002.255,168.9902 C1003.499,168.9902 1004.505,167.9832 1004.505,166.7402 L1000.005,166.7402 Z M1002.255,164.5012 C1003.499,164.5012 1004.505,163.4922 1004.505,162.2502 L1000.005,162.2502 C1000.005,163.4922 1001.013,164.5012 1002.255,164.5012 L1002.255,164.5012 Z M1006.756,160.0002 C1005.512,160.0002 1004.506,161.0062 1004.506,162.2502 L1009.006,162.2502 C1009.006,161.0062 1007.999,160.0002 1006.756,160.0002 L1006.756,160.0002 Z M1015.757,164.4892 C1014.513,164.4892 1013.507,165.4982 1013.507,166.7392 L1018.007,166.7392 C1018.007,165.4982 1017.001,164.4892 1015.757,164.4892 L1015.757,164.4892 Z M1009.005,166.7402 C1009.005,167.9832 1010.013,168.9902 1011.257,168.9902 C1012.499,168.9902 1013.507,167.9832 1013.507,166.7402 L1009.005,166.7402 Z M1011.256,164.5012 C1012.5,164.5012 1013.506,163.4922 1013.506,162.2502 L1009.006,162.2502 C1009.006,163.4922 1010.014,164.5012 1011.256,164.5012 L1011.256,164.5012 Z M1015.757,160.0002 C1014.513,160.0002 1013.507,161.0062 1013.507,162.2502 L1018.007,162.2502 C1018.007,161.0062 1017.001,160.0002 1015.757,160.0002 L1015.757,160.0002 Z M1078.768,182.5032 C1077.524,182.5032 1076.518,183.5102 1076.518,184.7532 L1081.018,184.7532 C1081.018,183.5102 1080.012,182.5032 1078.768,182.5032 L1078.768,182.5032 Z M1072.017,184.7542 C1072.017,185.9952 1073.023,187.0042 1074.267,187.0042 C1075.511,187.0042 1076.517,185.9952 1076.517,184.7542 L1072.017,184.7542 Z M1074.267,182.5142 C1075.511,182.5142 1076.517,181.5062 1076.517,180.2642 L1072.017,180.2642 C1072.017,181.5062 1073.025,182.5142 1074.267,182.5142 L1074.267,182.5142 Z M1078.768,178.0132 C1077.524,178.0132 1076.518,179.0202 1076.518,180.2642 L1081.018,180.2642 C1081.018,179.0202 1080.012,178.0132 1078.768,178.0132 L1078.768,178.0132 Z M1069.766,173.5022 C1068.522,173.5022 1067.516,174.5082 1067.516,175.7522 L1072.016,175.7522 C1072.016,174.5082 1071.008,173.5022 1069.766,173.5022 L1069.766,173.5022 Z M1063.013,175.7522 C1063.013,176.9942 1064.022,178.0032 1065.265,178.0032 C1066.507,178.0032 1067.516,176.9942 1067.516,175.7522 L1063.015,175.7522 L1063.013,175.7522 Z M1065.265,173.5132 C1066.507,173.5132 1067.515,172.5042 1067.515,171.2622 L1063.015,171.2622 C1063.015,172.5042 1064.021,173.5132 1065.265,173.5132 L1065.265,173.5132 Z M1069.766,169.0122 C1068.522,169.0122 1067.516,170.0192 1067.516,171.2622 L1072.016,171.2622 C1072.016,170.0192 1071.008,169.0122 1069.766,169.0122 L1069.766,169.0122 Z M1006.756,173.5022 C1005.512,173.5022 1004.506,174.5082 1004.506,175.7522 L1009.006,175.7522 C1009.006,174.5082 1007.999,173.5022 1006.756,173.5022 L1006.756,173.5022 Z M1000.005,175.7522 C1000.005,176.9942 1001.011,178.0032 1002.255,178.0032 C1003.499,178.0032 1004.505,176.9942 1004.505,175.7522 L1000.005,175.7522 Z M1002.255,173.5132 C1003.499,173.5132 1004.505,172.5042 1004.505,171.2622 L1000.005,171.2622 C1000.005,172.5042 1001.013,173.5132 1002.255,173.5132 L1002.255,173.5132 Z M1006.756,169.0122 C1005.512,169.0122 1004.506,170.0192 1004.506,171.2622 L1009.006,171.2622 C1009.006,170.0192 1007.999,169.0122 1006.756,169.0122 L1006.756,169.0122 Z M997.754,182.5032 C996.511,182.5032 995.504,183.5102 995.504,184.7532 L1000.005,184.7532 C1000.005,183.5102 998.996,182.5032 997.754,182.5032 L997.754,182.5032 Z M991.003,184.7542 C991.003,185.9952 992.01,187.0042 993.254,187.0042 C994.495,187.0042 995.504,185.9952 995.504,184.7542 L991.003,184.7542 Z M993.254,182.5142 C994.496,182.5142 995.504,181.5062 995.504,180.2642 L991.004,180.2642 C991.004,181.5062 992.012,182.5142 993.254,182.5142 L993.254,182.5142 Z M997.754,178.0132 C996.511,178.0132 995.504,179.0202 995.504,180.2642 L1000.005,180.2642 C1000.005,179.0202 998.996,178.0132 997.754,178.0132 L997.754,178.0132 Z M1078.768,191.5052 C1077.524,191.5052 1076.518,192.5112 1076.518,193.7552 L1081.018,193.7552 C1081.018,192.5112 1080.012,191.5052 1078.768,191.5052 L1078.768,191.5052 Z M1072.017,193.7552 C1072.017,194.9972 1073.023,196.0052 1074.267,196.0052 C1075.511,196.0052 1076.517,194.9972 1076.517,193.7552 L1072.017,193.7552 Z M1074.267,191.5162 C1075.511,191.5162 1076.517,190.5072 1076.517,189.2652 L1072.017,189.2652 C1072.017,190.5072 1073.025,191.5162 1074.267,191.5162 L1074.267,191.5162 Z M1078.768,187.0152 C1077.524,187.0152 1076.518,188.0212 1076.518,189.2652 L1081.018,189.2652 C1081.018,188.0212 1080.012,187.0152 1078.768,187.0152 L1078.768,187.0152 Z M997.754,191.5052 C996.511,191.5052 995.504,192.5112 995.504,193.7552 L1000.005,193.7552 C1000.005,192.5112 998.996,191.5052 997.754,191.5052 L997.754,191.5052 Z M991.003,193.7552 C991.003,194.9972 992.01,196.0052 993.254,196.0052 C994.495,196.0052 995.504,194.9972 995.504,193.7552 L991.003,193.7552 Z M993.254,191.5162 C994.496,191.5162 995.504,190.5072 995.504,189.2652 L991.004,189.2652 C991.004,190.5072 992.012,191.5162 993.254,191.5162 L993.254,191.5162 Z M997.754,187.0152 C996.511,187.0152 995.504,188.0212 995.504,189.2652 L1000.005,189.2652 C1000.005,188.0212 998.996,187.0152 997.754,187.0152 L997.754,187.0152 Z M1078.768,200.5062 C1077.524,200.5062 1076.518,201.5132 1076.518,202.7562 L1081.018,202.7562 C1081.018,201.5132 1080.012,200.5062 1078.768,200.5062 L1078.768,200.5062 Z M1072.017,202.7562 C1072.017,203.9982 1073.023,205.0072 1074.267,205.0072 C1075.511,205.0072 1076.517,203.9982 1076.517,202.7562 L1072.017,202.7562 Z M1074.267,200.5172 C1075.511,200.5172 1076.517,199.5092 1076.517,198.2672 L1072.017,198.2672 C1072.017,199.5092 1073.025,200.5172 1074.267,200.5172 L1074.267,200.5172 Z M1078.768,196.0162 C1077.524,196.0162 1076.518,197.0232 1076.518,198.2662 L1081.018,198.2662 C1081.018,197.0232 1080.012,196.0162 1078.768,196.0162 L1078.768,196.0162 Z M997.754,200.5062 C996.511,200.5062 995.504,201.5132 995.504,202.7562 L1000.005,202.7562 C1000.005,201.5132 998.996,200.5062 997.754,200.5062 L997.754,200.5062 Z M991.003,202.7562 C991.003,203.9982 992.01,205.0072 993.254,205.0072 C994.495,205.0072 995.504,203.9982 995.504,202.7562 L991.003,202.7562 Z M993.254,200.5172 C994.496,200.5172 995.504,199.5092 995.504,198.2672 L991.004,198.2672 C991.004,199.5092 992.012,200.5172 993.254,200.5172 L993.254,200.5172 Z M997.754,196.0162 C996.511,196.0162 995.504,197.0232 995.504,198.2662 L1000.005,198.2662 C1000.005,197.0232 998.996,196.0162 997.754,196.0162 L997.754,196.0162 Z M1078.768,209.5072 C1077.524,209.5072 1076.518,210.5142 1076.518,211.7582 L1081.018,211.7582 C1081.018,210.5142 1080.012,209.5072 1078.768,209.5072 L1078.768,209.5072 Z M1072.017,211.7582 C1072.017,213.0002 1073.023,214.0082 1074.267,214.0082 C1075.511,214.0082 1076.517,213.0002 1076.517,211.7582 L1072.017,211.7582 Z M1074.267,209.5182 C1075.511,209.5182 1076.517,208.5102 1076.517,207.2682 L1072.017,207.2682 C1072.017,208.5102 1073.025,209.5182 1074.267,209.5182 L1074.267,209.5182 Z M1078.768,205.0182 C1077.524,205.0182 1076.518,206.0242 1076.518,207.2682 L1081.018,207.2682 C1081.018,206.0242 1080.012,205.0182 1078.768,205.0182 L1078.768,205.0182 Z M997.754,209.5072 C996.511,209.5072 995.504,210.5142 995.504,211.7582 L1000.005,211.7582 C1000.005,210.5142 998.996,209.5072 997.754,209.5072 L997.754,209.5072 Z M991.003,211.7582 C991.003,213.0002 992.01,214.0082 993.254,214.0082 C994.495,214.0082 995.504,213.0002 995.504,211.7582 L991.003,211.7582 Z M993.254,209.5182 C994.496,209.5182 995.504,208.5102 995.504,207.2682 L991.004,207.2682 C991.004,208.5102 992.012,209.5182 993.254,209.5182 L993.254,209.5182 Z M997.754,205.0182 C996.511,205.0182 995.504,206.0242 995.504,207.2682 L1000.005,207.2682 C1000.005,206.0242 998.996,205.0182 997.754,205.0182 L997.754,205.0182 Z M1078.768,218.5092 C1077.524,218.5092 1076.518,219.5152 1076.518,220.7592 L1081.018,220.7592 C1081.018,219.5152 1080.012,218.5092 1078.768,218.5092 L1078.768,218.5092 Z M1072.017,220.7592 C1072.017,222.0012 1073.023,223.0092 1074.267,223.0092 C1075.511,223.0092 1076.517,222.0012 1076.517,220.7592 L1072.017,220.7592 Z M1074.267,218.5202 C1075.511,218.5202 1076.517,217.5112 1076.517,216.2702 L1072.017,216.2702 C1072.017,217.5112 1073.025,218.5202 1074.267,218.5202 L1074.267,218.5202 Z M1078.768,214.0192 C1077.524,214.0192 1076.518,215.0262 1076.518,216.2692 L1081.018,216.2692 C1081.018,215.0262 1080.012,214.0192 1078.768,214.0192 L1078.768,214.0192 Z M997.754,218.5092 C996.511,218.5092 995.504,219.5152 995.504,220.7592 L1000.005,220.7592 C1000.005,219.5152 998.996,218.5092 997.754,218.5092 L997.754,218.5092 Z M991.003,220.7592 C991.003,222.0012 992.01,223.0092 993.254,223.0092 C994.495,223.0092 995.504,222.0012 995.504,220.7592 L991.003,220.7592 Z M993.254,218.5202 C994.496,218.5202 995.504,217.5112 995.504,216.2702 L991.004,216.2702 C991.004,217.5112 992.012,218.5202 993.254,218.5202 L993.254,218.5202 Z M997.754,214.0192 C996.511,214.0192 995.504,215.0262 995.504,216.2692 L1000.005,216.2692 C1000.005,215.0262 998.996,214.0192 997.754,214.0192 L997.754,214.0192 Z M1078.768,227.5102 C1077.524,227.5102 1076.518,228.5172 1076.518,229.7612 L1081.018,229.7612 C1081.018,228.5172 1080.012,227.5102 1078.768,227.5102 L1078.768,227.5102 Z M1072.017,229.7612 C1072.017,231.0022 1073.023,232.0112 1074.267,232.0112 C1075.511,232.0112 1076.517,231.0022 1076.517,229.7612 L1072.017,229.7612 Z M1074.267,227.5212 C1075.511,227.5212 1076.517,226.5122 1076.517,225.2702 L1072.017,225.2702 C1072.017,226.5122 1073.025,227.5212 1074.267,227.5212 L1074.267,227.5212 Z M1078.768,223.0202 C1077.524,223.0202 1076.518,224.0282 1076.518,225.2702 L1081.018,225.2702 C1081.018,224.0282 1080.012,223.0202 1078.768,223.0202 L1078.768,223.0202 Z M1060.764,227.5102 C1059.521,227.5102 1058.514,228.5172 1058.514,229.7612 L1063.015,229.7612 C1063.015,228.5172 1062.006,227.5102 1060.764,227.5102 L1060.764,227.5102 Z M1054.013,229.7612 C1054.013,231.0022 1055.02,232.0112 1056.263,232.0112 C1057.507,232.0112 1058.513,231.0022 1058.513,229.7612 L1054.013,229.7612 Z M1056.264,227.5212 C1057.506,227.5212 1058.514,226.5122 1058.514,225.2702 L1054.014,225.2702 C1054.014,226.5122 1055.02,227.5212 1056.264,227.5212 L1056.264,227.5212 Z M1060.764,223.0202 C1059.521,223.0202 1058.514,224.0282 1058.514,225.2702 L1063.015,225.2702 C1063.015,224.0282 1062.006,223.0202 1060.764,223.0202 L1060.764,223.0202 Z M1069.766,227.5102 C1068.522,227.5102 1067.516,228.5172 1067.516,229.7612 L1072.016,229.7612 C1072.016,228.5172 1071.008,227.5102 1069.766,227.5102 L1069.766,227.5102 Z M1063.013,229.7612 C1063.013,231.0022 1064.022,232.0112 1065.265,232.0112 C1066.507,232.0112 1067.516,231.0022 1067.516,229.7612 L1063.015,229.7612 L1063.013,229.7612 Z M1065.265,227.5212 C1066.507,227.5212 1067.515,226.5122 1067.515,225.2702 L1063.015,225.2702 C1063.015,226.5122 1064.021,227.5212 1065.265,227.5212 L1065.265,227.5212 Z M1069.766,223.0202 C1068.522,223.0202 1067.516,224.0282 1067.516,225.2702 L1072.016,225.2702 C1072.016,224.0282 1071.008,223.0202 1069.766,223.0202 L1069.766,223.0202 Z M1042.761,227.5102 C1041.518,227.5102 1040.511,228.5172 1040.511,229.7612 L1045.012,229.7612 C1045.012,228.5172 1044.005,227.5102 1042.761,227.5102 L1042.761,227.5102 Z M1036.01,229.7612 C1036.01,231.0022 1037.017,232.0112 1038.261,232.0112 C1039.502,232.0112 1040.511,231.0022 1040.511,229.7612 L1036.01,229.7612 Z M1038.261,227.5212 C1039.502,227.5212 1040.511,226.5122 1040.511,225.2702 L1036.01,225.2702 C1036.01,226.5122 1037.019,227.5212 1038.261,227.5212 L1038.261,227.5212 Z M1042.761,223.0202 C1041.518,223.0202 1040.511,224.0282 1040.511,225.2702 L1045.012,225.2702 C1045.012,224.0282 1044.005,223.0202 1042.761,223.0202 L1042.761,223.0202 Z M1051.762,227.5102 C1050.52,227.5102 1049.511,228.5172 1049.511,229.7612 L1054.012,229.7612 C1054.012,228.5172 1053.005,227.5102 1051.762,227.5102 L1051.762,227.5102 Z M1045.011,229.7612 C1045.011,231.0022 1046.019,232.0112 1047.261,232.0112 C1048.503,232.0112 1049.511,231.0022 1049.511,229.7612 L1045.011,229.7612 Z M1047.262,227.5212 C1048.506,227.5212 1049.512,226.5122 1049.512,225.2702 L1045.01,225.2702 C1045.01,226.5122 1046.018,227.5212 1047.262,227.5212 L1047.262,227.5212 Z M1051.762,223.0202 C1050.52,223.0202 1049.511,224.0282 1049.511,225.2702 L1054.012,225.2702 C1054.012,224.0282 1053.005,223.0202 1051.762,223.0202 L1051.762,223.0202 Z M1024.759,227.5102 C1023.515,227.5102 1022.509,228.5172 1022.509,229.7612 L1027.009,229.7612 C1027.009,228.5172 1026.001,227.5102 1024.759,227.5102 L1024.759,227.5102 Z M1018.008,229.7612 C1018.008,231.0022 1019.016,232.0112 1020.258,232.0112 C1021.5,232.0112 1022.508,231.0022 1022.508,229.7612 L1018.008,229.7612 Z M1020.259,227.5212 C1021.501,227.5212 1022.509,226.5122 1022.509,225.2702 L1018.007,225.2702 C1018.007,226.5122 1019.015,227.5212 1020.259,227.5212 L1020.259,227.5212 Z M1024.759,223.0202 C1023.515,223.0202 1022.509,224.0282 1022.509,225.2702 L1027.009,225.2702 C1027.009,224.0282 1026.001,223.0202 1024.759,223.0202 L1024.759,223.0202 Z M1033.76,227.5102 C1032.516,227.5102 1031.51,228.5172 1031.51,229.7612 L1036.01,229.7612 C1036.01,228.5172 1035.002,227.5102 1033.76,227.5102 L1033.76,227.5102 Z M1027.009,229.7612 C1027.009,231.0022 1028.016,232.0112 1029.259,232.0112 C1030.501,232.0112 1031.509,231.0022 1031.509,229.7612 L1027.009,229.7612 Z M1029.259,227.5212 C1030.501,227.5212 1031.51,226.5122 1031.51,225.2702 L1027.009,225.2702 C1027.009,226.5122 1028.016,227.5212 1029.259,227.5212 L1029.259,227.5212 Z M1033.76,223.0202 C1032.516,223.0202 1031.51,224.0282 1031.51,225.2702 L1036.01,225.2702 C1036.01,224.0282 1035.002,223.0202 1033.76,223.0202 L1033.76,223.0202 Z M1006.756,227.5102 C1005.512,227.5102 1004.506,228.5172 1004.506,229.7612 L1009.006,229.7612 C1009.006,228.5172 1007.999,227.5102 1006.756,227.5102 L1006.756,227.5102 Z M1000.005,229.7612 C1000.005,231.0022 1001.011,232.0112 1002.255,232.0112 C1003.499,232.0112 1004.505,231.0022 1004.505,229.7612 L1000.005,229.7612 Z M1002.255,227.5212 C1003.499,227.5212 1004.505,226.5122 1004.505,225.2702 L1000.005,225.2702 C1000.005,226.5122 1001.013,227.5212 1002.255,227.5212 L1002.255,227.5212 Z M1006.756,223.0202 C1005.512,223.0202 1004.506,224.0282 1004.506,225.2702 L1009.006,225.2702 C1009.006,224.0282 1007.999,223.0202 1006.756,223.0202 L1006.756,223.0202 Z M1015.757,227.5102 C1014.513,227.5102 1013.507,228.5172 1013.507,229.7612 L1018.007,229.7612 C1018.007,228.5172 1017.001,227.5102 1015.757,227.5102 L1015.757,227.5102 Z M1009.005,229.7612 C1009.005,231.0022 1010.013,232.0112 1011.257,232.0112 C1012.499,232.0112 1013.507,231.0022 1013.507,229.7612 L1009.005,229.7612 Z M1011.256,227.5212 C1012.5,227.5212 1013.506,226.5122 1013.506,225.2702 L1009.006,225.2702 C1009.006,226.5122 1010.014,227.5212 1011.256,227.5212 L1011.256,227.5212 Z M1015.757,223.0202 C1014.513,223.0202 1013.507,224.0282 1013.507,225.2702 L1018.007,225.2702 C1018.007,224.0282 1017.001,223.0202 1015.757,223.0202 L1015.757,223.0202 Z M997.754,227.5102 C996.511,227.5102 995.504,228.5172 995.504,229.7612 L1000.005,229.7612 C1000.005,228.5172 998.996,227.5102 997.754,227.5102 L997.754,227.5102 Z M991.003,229.7612 C991.003,231.0022 992.01,232.0112 993.254,232.0112 C994.495,232.0112 995.504,231.0022 995.504,229.7612 L991.003,229.7612 Z M993.254,227.5212 C994.496,227.5212 995.504,226.5122 995.504,225.2702 L991.004,225.2702 C991.004,226.5122 992.012,227.5212 993.254,227.5212 L993.254,227.5212 Z M997.754,223.0202 C996.511,223.0202 995.504,224.0282 995.504,225.2702 L1000.005,225.2702 C1000.005,224.0282 998.996,223.0202 997.754,223.0202 L997.754,223.0202 Z M1078.768,236.5122 C1077.524,236.5122 1076.518,237.5182 1076.518,238.7622 L1081.018,238.7622 C1081.018,237.5182 1080.012,236.5122 1078.768,236.5122 L1078.768,236.5122 Z M1072.017,238.7622 C1072.017,240.0042 1073.023,241.0122 1074.267,241.0122 C1075.511,241.0122 1076.517,240.0042 1076.517,238.7622 L1072.017,238.7622 Z M1074.267,236.5222 C1075.511,236.5222 1076.517,235.5142 1076.517,234.2722 L1072.017,234.2722 C1072.017,235.5142 1073.025,236.5222 1074.267,236.5222 L1074.267,236.5222 Z M1078.768,232.0212 C1077.524,232.0212 1076.518,233.0302 1076.518,234.2722 L1081.018,234.2722 C1081.018,233.0302 1080.012,232.0212 1078.768,232.0212 L1078.768,232.0212 Z M1060.764,236.5122 C1059.521,236.5122 1058.514,237.5182 1058.514,238.7622 L1063.015,238.7622 C1063.015,237.5182 1062.006,236.5122 1060.764,236.5122 L1060.764,236.5122 Z M1054.013,238.7622 C1054.013,240.0042 1055.02,241.0122 1056.263,241.0122 C1057.507,241.0122 1058.513,240.0042 1058.513,238.7622 L1054.013,238.7622 Z M1056.264,236.5222 C1057.506,236.5222 1058.514,235.5142 1058.514,234.2722 L1054.014,234.2722 C1054.014,235.5142 1055.02,236.5222 1056.264,236.5222 L1056.264,236.5222 Z M1060.764,232.0212 C1059.521,232.0212 1058.514,233.0302 1058.514,234.2722 L1063.015,234.2722 C1063.015,233.0302 1062.006,232.0212 1060.764,232.0212 L1060.764,232.0212 Z M1069.766,236.5122 C1068.522,236.5122 1067.516,237.5182 1067.516,238.7622 L1072.016,238.7622 C1072.016,237.5182 1071.008,236.5122 1069.766,236.5122 L1069.766,236.5122 Z M1063.013,238.7622 C1063.013,240.0042 1064.022,241.0122 1065.265,241.0122 C1066.507,241.0122 1067.516,240.0042 1067.516,238.7622 L1063.015,238.7622 L1063.013,238.7622 Z M1065.265,236.5222 C1066.507,236.5222 1067.515,235.5142 1067.515,234.2722 L1063.015,234.2722 C1063.015,235.5142 1064.021,236.5222 1065.265,236.5222 L1065.265,236.5222 Z M1069.766,232.0212 C1068.522,232.0212 1067.516,233.0302 1067.516,234.2722 L1072.016,234.2722 C1072.016,233.0302 1071.008,232.0212 1069.766,232.0212 L1069.766,232.0212 Z M1042.761,254.5092 C1041.518,254.5092 1040.511,255.5162 1040.511,256.7602 L1045.012,256.7602 C1045.012,255.5162 1044.005,254.5092 1042.761,254.5092 L1042.761,254.5092 Z M1036.01,256.7602 C1036.01,258.0022 1037.017,259.0102 1038.261,259.0102 C1039.502,259.0102 1040.511,258.0022 1040.511,256.7602 L1036.01,256.7602 Z M1038.261,254.5202 C1039.502,254.5202 1040.511,253.5112 1040.511,252.2692 L1036.01,252.2692 C1036.01,253.5112 1037.019,254.5202 1038.261,254.5202 L1038.261,254.5202 Z M1042.761,250.0192 C1041.518,250.0192 1040.511,251.0272 1040.511,252.2692 L1045.012,252.2692 C1045.012,251.0272 1044.005,250.0192 1042.761,250.0192 L1042.761,250.0192 Z M1051.762,254.5092 C1050.52,254.5092 1049.511,255.5162 1049.511,256.7602 L1054.012,256.7602 C1054.012,255.5162 1053.005,254.5092 1051.762,254.5092 L1051.762,254.5092 Z M1045.011,256.7602 C1045.011,258.0022 1046.019,259.0102 1047.261,259.0102 C1048.503,259.0102 1049.511,258.0022 1049.511,256.7602 L1045.011,256.7602 Z M1047.262,254.5202 C1048.506,254.5202 1049.512,253.5112 1049.512,252.2692 L1045.01,252.2692 C1045.01,253.5112 1046.018,254.5202 1047.262,254.5202 L1047.262,254.5202 Z M1051.762,250.0192 C1050.52,250.0192 1049.511,251.0272 1049.511,252.2692 L1054.012,252.2692 C1054.012,251.0272 1053.005,250.0192 1051.762,250.0192 L1051.762,250.0192 Z M1024.759,254.5092 C1023.515,254.5092 1022.509,255.5162 1022.509,256.7602 L1027.009,256.7602 C1027.009,255.5162 1026.001,254.5092 1024.759,254.5092 L1024.759,254.5092 Z M1018.008,256.7602 C1018.008,258.0022 1019.016,259.0102 1020.258,259.0102 C1021.5,259.0102 1022.508,258.0022 1022.508,256.7602 L1018.008,256.7602 Z M1020.259,254.5202 C1021.501,254.5202 1022.509,253.5112 1022.509,252.2692 L1018.007,252.2692 C1018.007,253.5112 1019.015,254.5202 1020.259,254.5202 L1020.259,254.5202 Z M1024.759,250.0192 C1023.515,250.0192 1022.509,251.0272 1022.509,252.2692 L1027.009,252.2692 C1027.009,251.0272 1026.001,250.0192 1024.759,250.0192 L1024.759,250.0192 Z M1033.76,254.5092 C1032.516,254.5092 1031.51,255.5162 1031.51,256.7602 L1036.01,256.7602 C1036.01,255.5162 1035.002,254.5092 1033.76,254.5092 L1033.76,254.5092 Z M1027.009,256.7602 C1027.009,258.0022 1028.016,259.0102 1029.259,259.0102 C1030.501,259.0102 1031.509,258.0022 1031.509,256.7602 L1027.009,256.7602 Z M1029.259,254.5202 C1030.501,254.5202 1031.51,253.5112 1031.51,252.2692 L1027.009,252.2692 C1027.009,253.5112 1028.016,254.5202 1029.259,254.5202 L1029.259,254.5202 Z M1033.76,250.0192 C1032.516,250.0192 1031.51,251.0272 1031.51,252.2692 L1036.01,252.2692 C1036.01,251.0272 1035.002,250.0192 1033.76,250.0192 L1033.76,250.0192 Z M1042.761,245.5132 C1041.518,245.5132 1040.511,246.5202 1040.511,247.7632 L1045.012,247.7632 C1045.012,246.5202 1044.005,245.5132 1042.761,245.5132 L1042.761,245.5132 Z M1036.01,247.7632 C1036.01,249.0052 1037.017,250.0142 1038.261,250.0142 C1039.502,250.0142 1040.511,249.0052 1040.511,247.7632 L1036.01,247.7632 Z M1038.261,245.5232 C1039.502,245.5232 1040.511,244.5152 1040.511,243.2732 L1036.01,243.2732 C1036.01,244.5152 1037.019,245.5232 1038.261,245.5232 L1038.261,245.5232 Z M1042.761,241.0232 C1041.518,241.0232 1040.511,242.0312 1040.511,243.2732 L1045.012,243.2732 C1045.012,242.0312 1044.005,241.0232 1042.761,241.0232 L1042.761,241.0232 Z M1051.762,245.5132 C1050.52,245.5132 1049.511,246.5202 1049.511,247.7632 L1054.012,247.7632 C1054.012,246.5202 1053.005,245.5132 1051.762,245.5132 L1051.762,245.5132 Z M1045.011,247.7632 C1045.011,249.0052 1046.019,250.0142 1047.261,250.0142 C1048.503,250.0142 1049.511,249.0052 1049.511,247.7632 L1045.011,247.7632 Z M1047.262,245.5232 C1048.506,245.5232 1049.512,244.5152 1049.512,243.2732 L1045.01,243.2732 C1045.01,244.5152 1046.018,245.5232 1047.262,245.5232 L1047.262,245.5232 Z M1051.762,241.0232 C1050.52,241.0232 1049.511,242.0312 1049.511,243.2732 L1054.012,243.2732 C1054.012,242.0312 1053.005,241.0232 1051.762,241.0232 L1051.762,241.0232 Z M1024.759,245.5132 C1023.515,245.5132 1022.509,246.5202 1022.509,247.7632 L1027.009,247.7632 C1027.009,246.5202 1026.001,245.5132 1024.759,245.5132 L1024.759,245.5132 Z M1018.008,247.7632 C1018.008,249.0052 1019.016,250.0142 1020.258,250.0142 C1021.5,250.0142 1022.508,249.0052 1022.508,247.7632 L1018.008,247.7632 Z M1020.259,245.5232 C1021.501,245.5232 1022.509,244.5152 1022.509,243.2732 L1018.007,243.2732 C1018.007,244.5152 1019.015,245.5232 1020.259,245.5232 L1020.259,245.5232 Z M1024.759,241.0232 C1023.515,241.0232 1022.509,242.0312 1022.509,243.2732 L1027.009,243.2732 C1027.009,242.0312 1026.001,241.0232 1024.759,241.0232 L1024.759,241.0232 Z M1033.76,245.5132 C1032.516,245.5132 1031.51,246.5202 1031.51,247.7632 L1036.01,247.7632 C1036.01,246.5202 1035.002,245.5132 1033.76,245.5132 L1033.76,245.5132 Z M1027.009,247.7632 C1027.009,249.0052 1028.016,250.0142 1029.259,250.0142 C1030.501,250.0142 1031.509,249.0052 1031.509,247.7632 L1027.009,247.7632 Z M1029.259,245.5232 C1030.501,245.5232 1031.51,244.5152 1031.51,243.2732 L1027.009,243.2732 C1027.009,244.5152 1028.016,245.5232 1029.259,245.5232 L1029.259,245.5232 Z M1033.76,241.0232 C1032.516,241.0232 1031.51,242.0312 1031.51,243.2732 L1036.01,243.2732 C1036.01,242.0312 1035.002,241.0232 1033.76,241.0232 L1033.76,241.0232 Z M1042.761,236.5122 C1041.518,236.5122 1040.511,237.5182 1040.511,238.7622 L1045.012,238.7622 C1045.012,237.5182 1044.005,236.5122 1042.761,236.5122 L1042.761,236.5122 Z M1036.01,238.7622 C1036.01,240.0042 1037.017,241.0122 1038.261,241.0122 C1039.502,241.0122 1040.511,240.0042 1040.511,238.7622 L1036.01,238.7622 Z M1038.261,236.5222 C1039.502,236.5222 1040.511,235.5142 1040.511,234.2722 L1036.01,234.2722 C1036.01,235.5142 1037.019,236.5222 1038.261,236.5222 L1038.261,236.5222 Z M1042.761,232.0212 C1041.518,232.0212 1040.511,233.0302 1040.511,234.2722 L1045.012,234.2722 C1045.012,233.0302 1044.005,232.0212 1042.761,232.0212 L1042.761,232.0212 Z M1051.762,236.5122 C1050.52,236.5122 1049.511,237.5182 1049.511,238.7622 L1054.012,238.7622 C1054.012,237.5182 1053.005,236.5122 1051.762,236.5122 L1051.762,236.5122 Z M1045.011,238.7622 C1045.011,240.0042 1046.019,241.0122 1047.261,241.0122 C1048.503,241.0122 1049.511,240.0042 1049.511,238.7622 L1045.011,238.7622 Z M1047.262,236.5222 C1048.506,236.5222 1049.512,235.5142 1049.512,234.2722 L1045.01,234.2722 C1045.01,235.5142 1046.018,236.5222 1047.262,236.5222 L1047.262,236.5222 Z M1051.762,232.0212 C1050.52,232.0212 1049.511,233.0302 1049.511,234.2722 L1054.012,234.2722 C1054.012,233.0302 1053.005,232.0212 1051.762,232.0212 L1051.762,232.0212 Z M1024.759,236.5122 C1023.515,236.5122 1022.509,237.5182 1022.509,238.7622 L1027.009,238.7622 C1027.009,237.5182 1026.001,236.5122 1024.759,236.5122 L1024.759,236.5122 Z M1018.008,238.7622 C1018.008,240.0042 1019.016,241.0122 1020.258,241.0122 C1021.5,241.0122 1022.508,240.0042 1022.508,238.7622 L1018.008,238.7622 Z M1020.259,236.5222 C1021.501,236.5222 1022.509,235.5142 1022.509,234.2722 L1018.007,234.2722 C1018.007,235.5142 1019.015,236.5222 1020.259,236.5222 L1020.259,236.5222 Z M1024.759,232.0212 C1023.515,232.0212 1022.509,233.0302 1022.509,234.2722 L1027.009,234.2722 C1027.009,233.0302 1026.001,232.0212 1024.759,232.0212 L1024.759,232.0212 Z M1033.76,236.5122 C1032.516,236.5122 1031.51,237.5182 1031.51,238.7622 L1036.01,238.7622 C1036.01,237.5182 1035.002,236.5122 1033.76,236.5122 L1033.76,236.5122 Z M1027.009,238.7622 C1027.009,240.0042 1028.016,241.0122 1029.259,241.0122 C1030.501,241.0122 1031.509,240.0042 1031.509,238.7622 L1027.009,238.7622 Z M1029.259,236.5222 C1030.501,236.5222 1031.51,235.5142 1031.51,234.2722 L1027.009,234.2722 C1027.009,235.5142 1028.016,236.5222 1029.259,236.5222 L1029.259,236.5222 Z M1033.76,232.0212 C1032.516,232.0212 1031.51,233.0302 1031.51,234.2722 L1036.01,234.2722 C1036.01,233.0302 1035.002,232.0212 1033.76,232.0212 L1033.76,232.0212 Z M1006.756,236.5122 C1005.512,236.5122 1004.506,237.5182 1004.506,238.7622 L1009.006,238.7622 C1009.006,237.5182 1007.999,236.5122 1006.756,236.5122 L1006.756,236.5122 Z M1000.005,238.7622 C1000.005,240.0042 1001.011,241.0122 1002.255,241.0122 C1003.499,241.0122 1004.505,240.0042 1004.505,238.7622 L1000.005,238.7622 Z M1002.255,236.5222 C1003.499,236.5222 1004.505,235.5142 1004.505,234.2722 L1000.005,234.2722 C1000.005,235.5142 1001.013,236.5222 1002.255,236.5222 L1002.255,236.5222 Z M1006.756,232.0212 C1005.512,232.0212 1004.506,233.0302 1004.506,234.2722 L1009.006,234.2722 C1009.006,233.0302 1007.999,232.0212 1006.756,232.0212 L1006.756,232.0212 Z M1015.757,236.5122 C1014.513,236.5122 1013.507,237.5182 1013.507,238.7622 L1018.007,238.7622 C1018.007,237.5182 1017.001,236.5122 1015.757,236.5122 L1015.757,236.5122 Z M1009.005,238.7622 C1009.005,240.0042 1010.013,241.0122 1011.257,241.0122 C1012.499,241.0122 1013.507,240.0042 1013.507,238.7622 L1009.005,238.7622 Z M1011.256,236.5222 C1012.5,236.5222 1013.506,235.5142 1013.506,234.2722 L1009.006,234.2722 C1009.006,235.5142 1010.014,236.5222 1011.256,236.5222 L1011.256,236.5222 Z M1015.757,232.0212 C1014.513,232.0212 1013.507,233.0302 1013.507,234.2722 L1018.007,234.2722 C1018.007,233.0302 1017.001,232.0212 1015.757,232.0212 L1015.757,232.0212 Z M997.754,236.5122 C996.511,236.5122 995.504,237.5182 995.504,238.7622 L1000.005,238.7622 C1000.005,237.5182 998.996,236.5122 997.754,236.5122 L997.754,236.5122 Z M991.003,238.7622 C991.003,240.0042 992.01,241.0122 993.254,241.0122 C994.495,241.0122 995.504,240.0042 995.504,238.7622 L991.003,238.7622 Z M993.254,236.5222 C994.496,236.5222 995.504,235.5142 995.504,234.2722 L991.004,234.2722 C991.004,235.5142 992.012,236.5222 993.254,236.5222 L993.254,236.5222 Z M997.754,232.0212 C996.511,232.0212 995.504,233.0302 995.504,234.2722 L1000.005,234.2722 C1000.005,233.0302 998.996,232.0212 997.754,232.0212 L997.754,232.0212 Z M997.754,245.5302 C996.511,245.5302 995.504,246.5362 995.504,247.7802 L1000.005,247.7802 C1000.005,246.5362 998.996,245.5302 997.754,245.5302 L997.754,245.5302 Z M991.003,247.7802 C991.003,249.0222 992.01,250.0302 993.254,250.0302 C994.495,250.0302 995.504,249.0222 995.504,247.7802 L991.003,247.7802 Z M993.254,245.5402 C994.496,245.5402 995.504,244.5322 995.504,243.2902 L991.004,243.2902 C991.004,244.5322 992.012,245.5402 993.254,245.5402 L993.254,245.5402 Z M997.754,241.0392 C996.511,241.0392 995.504,242.0482 995.504,243.2892 L1000.005,243.2892 C1000.005,242.0482 998.996,241.0392 997.754,241.0392 L997.754,241.0392 Z M997.754,254.5202 C996.511,254.5202 995.504,255.5282 995.504,256.7702 L1000.005,256.7702 C1000.005,255.5282 998.996,254.5202 997.754,254.5202 L997.754,254.5202 Z M991.003,256.7702 C991.003,258.0142 992.01,259.0202 993.254,259.0202 C994.495,259.0202 995.504,258.0142 995.504,256.7702 L991.003,256.7702 Z M993.254,254.5312 C994.496,254.5312 995.504,253.5232 995.504,252.2812 L991.004,252.2812 C991.004,253.5232 992.012,254.5312 993.254,254.5312 L993.254,254.5312 Z M997.754,250.0302 C996.511,250.0302 995.504,251.0372 995.504,252.2802 L1000.005,252.2802 C1000.005,251.0372 998.996,250.0302 997.754,250.0302 L997.754,250.0302 Z M997.754,263.5162 C996.511,263.5162 995.504,264.5222 995.504,265.7662 L1000.005,265.7662 C1000.005,264.5222 998.996,263.5162 997.754,263.5162 L997.754,263.5162 Z M991.003,265.7662 C991.003,267.0082 992.01,268.0162 993.254,268.0162 C994.495,268.0162 995.504,267.0082 995.504,265.7662 L991.003,265.7662 Z M993.254,263.5262 C994.496,263.5262 995.504,262.5182 995.504,261.2762 L991.004,261.2762 C991.004,262.5182 992.012,263.5262 993.254,263.5262 L993.254,263.5262 Z M997.754,259.0262 C996.511,259.0262 995.504,260.0342 995.504,261.2762 L1000.005,261.2762 C1000.005,260.0342 998.996,259.0262 997.754,259.0262 L997.754,259.0262 Z M1006.756,263.5162 C1005.512,263.5162 1004.506,264.5222 1004.506,265.7662 L1009.006,265.7662 C1009.006,264.5222 1007.999,263.5162 1006.756,263.5162 L1006.756,263.5162 Z M1000.005,265.7662 C1000.005,267.0082 1001.011,268.0162 1002.255,268.0162 C1003.499,268.0162 1004.505,267.0082 1004.505,265.7662 L1000.005,265.7662 Z M1002.255,263.5262 C1003.499,263.5262 1004.505,262.5182 1004.505,261.2762 L1000.005,261.2762 C1000.005,262.5182 1001.013,263.5262 1002.255,263.5262 L1002.255,263.5262 Z M1006.756,259.0262 C1005.512,259.0262 1004.506,260.0342 1004.506,261.2762 L1009.006,261.2762 C1009.006,260.0342 1007.999,259.0262 1006.756,259.0262 L1006.756,259.0262 Z M1006.756,272.4952 C1005.512,272.4952 1004.506,273.5032 1004.506,274.7452 L1009.006,274.7452 C1009.006,273.5032 1007.999,272.4952 1006.756,272.4952 L1006.756,272.4952 Z M1000.005,274.7452 C1000.005,275.9892 1001.011,276.9952 1002.255,276.9952 C1003.499,276.9952 1004.505,275.9892 1004.505,274.7452 L1000.005,274.7452 Z M1002.255,272.5062 C1003.499,272.5062 1004.505,271.4982 1004.505,270.2562 L1000.005,270.2562 C1000.005,271.4982 1001.013,272.5062 1002.255,272.5062 L1002.255,272.5062 Z M1006.756,268.0052 C1005.512,268.0052 1004.506,269.0122 1004.506,270.2552 L1009.006,270.2552 C1009.006,269.0122 1007.999,268.0052 1006.756,268.0052 L1006.756,268.0052 Z M997.754,281.4962 C996.511,281.4962 995.504,282.5042 995.504,283.7462 L1000.005,283.7462 C1000.005,282.5042 998.996,281.4962 997.754,281.4962 L997.754,281.4962 Z M991.003,283.7462 C991.003,284.9902 992.01,285.9972 993.254,285.9972 C994.495,285.9972 995.504,284.9902 995.504,283.7462 L991.003,283.7462 Z M993.254,281.5072 C994.496,281.5072 995.504,280.4992 995.504,279.2572 L991.004,279.2572 C991.004,280.4992 992.012,281.5072 993.254,281.5072 L993.254,281.5072 Z M997.754,277.0072 C996.511,277.0072 995.504,278.0132 995.504,279.2572 L1000.005,279.2572 C1000.005,278.0132 998.996,277.0072 997.754,277.0072 L997.754,277.0072 Z M988.753,290.4972 C987.51,290.4972 986.503,291.5062 986.503,292.7482 L991.003,292.7482 C991.003,291.5062 989.995,290.4972 988.753,290.4972 L988.753,290.4972 Z M982.002,292.7482 C982.002,293.9912 983.01,294.9982 984.252,294.9982 C985.494,294.9982 986.502,293.9912 986.502,292.7482 L982.002,292.7482 Z M984.253,290.5092 C985.495,290.5092 986.504,289.5002 986.504,288.2582 L982.001,288.2582 C982.001,289.5002 983.01,290.5092 984.253,290.5092 L984.253,290.5092 Z M988.753,286.0082 C987.51,286.0082 986.503,287.0152 986.503,288.2582 L991.003,288.2582 C991.003,287.0152 989.995,286.0082 988.753,286.0082 L988.753,286.0082 Z M979.752,299.4992 C978.508,299.4992 977.502,300.5062 977.502,301.7492 L982.002,301.7492 C982.002,300.5062 980.994,299.4992 979.752,299.4992 L979.752,299.4992 Z M973,301.7502 C973,302.9932 974.009,304.0002 975.251,304.0002 C976.494,304.0002 977.501,302.9932 977.501,301.7502 L973,301.7502 Z M975.252,299.5102 C976.494,299.5102 977.502,298.5022 977.502,297.2602 L973,297.2602 C973,298.5022 974.008,299.5102 975.252,299.5102 L975.252,299.5102 Z M979.752,295.0092 C980.994,295.0092 982.002,296.0162 982.002,297.2602 L977.502,297.2602 C977.502,296.0162 978.508,295.0092 979.752,295.0092 L979.752,295.0092 Z" id="railway"></path>
        </g>
    </g>
</svg>