<?xml version="1.0" encoding="UTF-8" standalone="no"?>
<svg width="90px" height="144px" viewBox="0 0 90 144" version="1.1" xmlns="http://www.w3.org/2000/svg" xmlns:xlink="http://www.w3.org/1999/xlink">
    <!-- Generator: Sketch 39.1 (31720) - http://www.bohemiancoding.com/sketch -->
    <title>architecture</title>
    <desc>Created with Sketch.</desc>
    <defs></defs>
    <g id="Symbols" stroke="none" stroke-width="1" fill="none" fill-rule="evenodd">
        <g id="box-areas" transform="translate(-569.000000, -160.000000)" fill="#EB0029">
            <g id="architecture" transform="translate(542.000000, 160.000000)">
                <path d="M42.7513,31.4914 C41.5073,31.4914 40.5013,32.4984 40.5013,33.7414 L45.0013,33.7414 C45.0013,32.4984 43.9933,31.4914 42.7513,31.4914 L42.7513,31.4914 Z M36.0003,33.7414 C36.0003,34.9854 37.0083,35.9914 38.2503,35.9914 C39.4943,35.9914 40.5003,34.9854 40.5003,33.7414 L36.0003,33.7414 Z M38.2513,31.5024 C39.4933,31.5024 40.5013,30.4944 40.5013,29.2524 L36.0013,29.2524 C36.0013,30.4944 37.0073,31.5024 38.2513,31.5024 L38.2513,31.5024 Z M42.7513,27.0014 C41.5073,27.0014 40.5013,28.0084 40.5013,29.2524 L45.0013,29.2524 C45.0013,28.0084 43.9933,27.0014 42.7513,27.0014 L42.7513,27.0014 Z M105.7553,85.4954 C104.5123,85.4954 103.5053,86.5044 103.5053,87.7464 L108.0053,87.7464 C108.0053,86.5044 106.9973,85.4954 105.7553,85.4954 L105.7553,85.4954 Z M99.0053,87.7464 C99.0053,88.9874 100.0133,89.9964 101.2553,89.9964 C102.4973,89.9964 103.5053,88.9874 103.5053,87.7464 L99.0053,87.7464 Z M101.2553,85.5074 C102.4973,85.5074 103.5063,84.4984 103.5063,83.2574 L99.0053,83.2574 C99.0053,84.4984 100.0123,85.5074 101.2553,85.5074 L101.2553,85.5074 Z M105.7553,81.0064 C104.5123,81.0064 103.5053,82.0134 103.5053,83.2574 L108.0053,83.2574 C108.0053,82.0134 106.9973,81.0064 105.7553,81.0064 L105.7553,81.0064 Z M96.7553,85.4954 C95.5113,85.4954 94.5053,86.5044 94.5053,87.7464 L99.0053,87.7464 C99.0053,86.5044 97.9973,85.4954 96.7553,85.4954 L96.7553,85.4954 Z M90.0043,87.7464 C90.0043,88.9874 91.0113,89.9964 92.2543,89.9964 C93.4963,89.9964 94.5053,88.9874 94.5053,87.7464 L90.0043,87.7464 Z M92.2553,85.5074 C93.4973,85.5074 94.5053,84.4984 94.5053,83.2574 L90.0053,83.2574 C90.0053,84.4984 91.0113,85.5074 92.2553,85.5074 L92.2553,85.5074 Z M96.7553,81.0064 C95.5113,81.0064 94.5053,82.0134 94.5053,83.2574 L99.0053,83.2574 C99.0053,82.0134 97.9973,81.0064 96.7553,81.0064 L96.7553,81.0064 Z M105.7553,58.4824 C104.5123,58.4824 103.5053,59.4904 103.5053,60.7324 L108.0053,60.7324 C108.0053,59.4904 106.9973,58.4824 105.7553,58.4824 L105.7553,58.4824 Z M99.0053,60.7324 C99.0053,61.9764 100.0133,62.9834 101.2553,62.9834 C102.4973,62.9834 103.5053,61.9764 103.5053,60.7324 L99.0053,60.7324 Z M101.2553,58.4934 C102.4973,58.4934 103.5063,57.4854 103.5063,56.2434 L99.0053,56.2434 C99.0053,57.4854 100.0123,58.4934 101.2553,58.4934 L101.2553,58.4934 Z M105.7553,53.9934 C104.5123,53.9934 103.5053,55.0004 103.5053,56.2434 L108.0053,56.2434 C108.0053,55.0004 106.9973,53.9934 105.7553,53.9934 L105.7553,53.9934 Z M96.7553,58.4824 C95.5113,58.4824 94.5053,59.4904 94.5053,60.7324 L99.0053,60.7324 C99.0053,59.4904 97.9973,58.4824 96.7553,58.4824 L96.7553,58.4824 Z M90.0043,60.7324 C90.0043,61.9764 91.0113,62.9834 92.2543,62.9834 C93.4963,62.9834 94.5053,61.9764 94.5053,60.7324 L90.0043,60.7324 Z M92.2553,58.4934 C93.4973,58.4934 94.5053,57.4854 94.5053,56.2434 L90.0053,56.2434 C90.0053,57.4854 91.0113,58.4934 92.2553,58.4934 L92.2553,58.4934 Z M96.7553,53.9934 C95.5113,53.9934 94.5053,55.0004 94.5053,56.2434 L99.0053,56.2434 C99.0053,55.0004 97.9973,53.9934 96.7553,53.9934 L96.7553,53.9934 Z M78.7543,85.4954 C77.5103,85.4954 76.5033,86.5044 76.5033,87.7464 L81.0043,87.7464 C81.0043,86.5044 79.9973,85.4954 78.7543,85.4954 L78.7543,85.4954 Z M72.0033,87.7464 C72.0033,88.9874 73.0103,89.9964 74.2533,89.9964 C75.4953,89.9964 76.5033,88.9874 76.5033,87.7464 L72.0033,87.7464 Z M74.2543,85.5074 C75.4963,85.5074 76.5043,84.4984 76.5043,83.2574 L72.0043,83.2574 C72.0043,84.4984 73.0103,85.5074 74.2543,85.5074 L74.2543,85.5074 Z M78.7543,81.0064 C77.5103,81.0064 76.5033,82.0134 76.5033,83.2574 L81.0043,83.2574 C81.0043,82.0134 79.9973,81.0064 78.7543,81.0064 L78.7543,81.0064 Z M69.7533,85.4954 C68.5093,85.4954 67.5023,86.5044 67.5023,87.7464 L72.0033,87.7464 C72.0033,86.5044 70.9963,85.4954 69.7533,85.4954 L69.7533,85.4954 Z M63.0023,87.7464 C63.0023,88.9874 64.0103,89.9964 65.2523,89.9964 C66.4943,89.9964 67.5023,88.9874 67.5023,87.7464 L63.0023,87.7464 Z M65.2533,85.5074 C66.4953,85.5074 67.5033,84.4984 67.5033,83.2574 L63.0033,83.2574 C63.0033,84.4984 64.0093,85.5074 65.2533,85.5074 L65.2533,85.5074 Z M69.7533,81.0064 C68.5093,81.0064 67.5023,82.0134 67.5023,83.2574 L72.0033,83.2574 C72.0033,82.0134 70.9963,81.0064 69.7533,81.0064 L69.7533,81.0064 Z M51.7513,85.4954 C50.5083,85.4954 49.5013,86.5044 49.5013,87.7464 L54.0023,87.7464 C54.0023,86.5044 52.9933,85.4954 51.7513,85.4954 L51.7513,85.4954 Z M45.0003,87.7464 C45.0003,88.9874 46.0093,89.9964 47.2513,89.9964 C48.4943,89.9964 49.5013,88.9874 49.5013,87.7464 L45.0003,87.7464 Z M47.2523,85.5074 C48.4943,85.5074 49.5023,84.4984 49.5023,83.2574 L45.0023,83.2574 C45.0023,84.4984 46.0083,85.5074 47.2523,85.5074 L47.2523,85.5074 Z M51.7513,81.0064 C50.5083,81.0064 49.5013,82.0134 49.5013,83.2574 L54.0023,83.2574 C54.0023,82.0134 52.9933,81.0064 51.7513,81.0064 L51.7513,81.0064 Z M42.7513,85.4954 C41.5073,85.4954 40.5013,86.5044 40.5013,87.7464 L45.0013,87.7464 C45.0013,86.5044 43.9933,85.4954 42.7513,85.4954 L42.7513,85.4954 Z M36.0003,87.7464 C36.0003,88.9874 37.0083,89.9964 38.2503,89.9964 C39.4943,89.9964 40.5003,88.9874 40.5003,87.7464 L36.0003,87.7464 Z M38.2513,85.5074 C39.4933,85.5074 40.5013,84.4984 40.5013,83.2574 L36.0013,83.2574 C36.0013,84.4984 37.0073,85.5074 38.2513,85.5074 L38.2513,85.5074 Z M42.7513,81.0064 C41.5073,81.0064 40.5013,82.0134 40.5013,83.2574 L45.0013,83.2574 C45.0013,82.0134 43.9933,81.0064 42.7513,81.0064 L42.7513,81.0064 Z M78.7543,58.4824 C77.5103,58.4824 76.5033,59.4904 76.5033,60.7324 L81.0043,60.7324 C81.0043,59.4904 79.9973,58.4824 78.7543,58.4824 L78.7543,58.4824 Z M72.0033,60.7324 C72.0033,61.9764 73.0103,62.9834 74.2533,62.9834 C75.4953,62.9834 76.5033,61.9764 76.5033,60.7324 L72.0033,60.7324 Z M74.2543,58.4934 C75.4963,58.4934 76.5043,57.4854 76.5043,56.2434 L72.0043,56.2434 C72.0043,57.4854 73.0103,58.4934 74.2543,58.4934 L74.2543,58.4934 Z M78.7543,53.9934 C77.5103,53.9934 76.5033,55.0004 76.5033,56.2434 L81.0043,56.2434 C81.0043,55.0004 79.9973,53.9934 78.7543,53.9934 L78.7543,53.9934 Z M69.7533,58.4824 C68.5093,58.4824 67.5023,59.4904 67.5023,60.7324 L72.0033,60.7324 C72.0033,59.4904 70.9963,58.4824 69.7533,58.4824 L69.7533,58.4824 Z M63.0023,60.7324 C63.0023,61.9764 64.0103,62.9834 65.2523,62.9834 C66.4943,62.9834 67.5023,61.9764 67.5023,60.7324 L63.0023,60.7324 Z M65.2533,58.4934 C66.4953,58.4934 67.5033,57.4854 67.5033,56.2434 L63.0033,56.2434 C63.0033,57.4854 64.0093,58.4934 65.2533,58.4934 L65.2533,58.4934 Z M69.7533,53.9934 C68.5093,53.9934 67.5023,55.0004 67.5023,56.2434 L72.0033,56.2434 C72.0033,55.0004 70.9963,53.9934 69.7533,53.9934 L69.7533,53.9934 Z M51.7513,58.4824 C50.5083,58.4824 49.5013,59.4904 49.5013,60.7324 L54.0023,60.7324 C54.0023,59.4904 52.9933,58.4824 51.7513,58.4824 L51.7513,58.4824 Z M45.0003,60.7324 C45.0003,61.9764 46.0093,62.9834 47.2513,62.9834 C48.4943,62.9834 49.5013,61.9764 49.5013,60.7324 L45.0003,60.7324 Z M47.2523,58.4934 C48.4943,58.4934 49.5023,57.4854 49.5023,56.2434 L45.0023,56.2434 C45.0023,57.4854 46.0083,58.4934 47.2523,58.4934 L47.2523,58.4934 Z M51.7513,53.9934 C50.5083,53.9934 49.5013,55.0004 49.5013,56.2434 L54.0023,56.2434 C54.0023,55.0004 52.9933,53.9934 51.7513,53.9934 L51.7513,53.9934 Z M42.7513,58.4824 C41.5073,58.4824 40.5013,59.4904 40.5013,60.7324 L45.0013,60.7324 C45.0013,59.4904 43.9933,58.4824 42.7513,58.4824 L42.7513,58.4824 Z M36.0003,60.7324 C36.0003,61.9764 37.0083,62.9834 38.2503,62.9834 C39.4943,62.9834 40.5003,61.9764 40.5003,60.7324 L36.0003,60.7324 Z M38.2513,58.4934 C39.4933,58.4934 40.5013,57.4854 40.5013,56.2434 L36.0013,56.2434 C36.0013,57.4854 37.0073,58.4934 38.2513,58.4934 L38.2513,58.4934 Z M42.7513,53.9934 C41.5073,53.9934 40.5013,55.0004 40.5013,56.2434 L45.0013,56.2434 C45.0013,55.0004 43.9933,53.9934 42.7513,53.9934 L42.7513,53.9934 Z M105.7553,31.4914 C104.5123,31.4914 103.5053,32.4984 103.5053,33.7414 L108.0053,33.7414 C108.0053,32.4984 106.9993,31.4914 105.7553,31.4914 L105.7553,31.4914 Z M99.0053,33.7414 C99.0053,34.9854 100.0133,35.9914 101.2553,35.9914 C102.4973,35.9914 103.5053,34.9854 103.5053,33.7414 L99.0053,33.7414 Z M101.2563,31.5024 C102.4983,31.5024 103.5063,30.4944 103.5063,29.2524 L99.0043,29.2524 C99.0043,30.4944 100.0123,31.5024 101.2563,31.5024 L101.2563,31.5024 Z M105.7553,27.0014 C104.5133,27.0014 103.5053,28.0084 103.5053,29.2524 L108.0053,29.2524 C108.0053,28.0084 106.9993,27.0014 105.7553,27.0014 L105.7553,27.0014 Z M96.7553,31.4914 C95.5113,31.4914 94.5053,32.4984 94.5053,33.7414 L99.0053,33.7414 C99.0053,32.4984 97.9983,31.4914 96.7553,31.4914 L96.7553,31.4914 Z M90.0043,33.7414 C90.0043,34.9854 91.0133,35.9914 92.2543,35.9914 C93.4963,35.9914 94.5053,34.9854 94.5053,33.7414 L90.0043,33.7414 Z M92.2563,31.5024 C93.4973,31.5024 94.5063,30.4944 94.5063,29.2524 L90.0043,29.2524 C90.0043,30.4944 91.0123,31.5024 92.2563,31.5024 L92.2563,31.5024 Z M96.7553,27.0014 C95.5133,27.0014 94.5053,28.0084 94.5053,29.2524 L99.0053,29.2524 C99.0053,28.0084 97.9983,27.0014 96.7553,27.0014 L96.7553,27.0014 Z M114.7563,4.4894 C113.5133,4.4894 112.5063,5.4964 112.5063,6.7394 L117.0073,6.7394 C117.0073,5.4964 116.0003,4.4894 114.7563,4.4894 L114.7563,4.4894 Z M108.0063,6.7394 C108.0063,7.9834 109.0143,8.9894 110.2563,8.9894 C111.4993,8.9894 112.5063,7.9834 112.5063,6.7394 L108.0063,6.7394 Z M110.2573,4.5004 C111.4993,4.5004 112.5073,3.4924 112.5073,2.2504 L108.0073,2.2504 C108.0073,3.4924 109.0133,4.5004 110.2573,4.5004 L110.2573,4.5004 Z M114.7563,0.0004 C113.5133,0.0004 112.5063,1.0064 112.5063,2.2504 L117.0073,2.2504 C117.0073,1.0064 116.0003,0.0004 114.7563,0.0004 L114.7563,0.0004 Z M114.7563,13.4904 C113.5133,13.4904 112.5063,14.4964 112.5063,15.7404 L117.0073,15.7404 C117.0073,14.4964 116.0003,13.4904 114.7563,13.4904 L114.7563,13.4904 Z M108.0063,15.7404 C108.0063,16.9844 109.0143,17.9904 110.2563,17.9904 C111.4993,17.9904 112.5063,16.9844 112.5063,15.7404 L108.0063,15.7404 Z M110.2573,13.5014 C111.4993,13.5014 112.5073,12.4924 112.5073,11.2504 L108.0073,11.2504 C108.0073,12.4924 109.0133,13.5014 110.2573,13.5014 L110.2573,13.5014 Z M114.7563,9.0004 C113.5133,9.0004 112.5063,10.0074 112.5063,11.2504 L117.0073,11.2504 C117.0073,10.0074 116.0003,9.0004 114.7563,9.0004 L114.7563,9.0004 Z M114.7563,22.4964 C113.5133,22.4964 112.5063,23.5034 112.5063,24.7464 L117.0073,24.7464 C117.0073,23.5034 116.0003,22.4964 114.7563,22.4964 L114.7563,22.4964 Z M108.0063,24.7464 C108.0063,25.9904 109.0143,26.9964 110.2563,26.9964 C111.4993,26.9964 112.5063,25.9904 112.5063,24.7464 L108.0063,24.7464 Z M110.2573,22.5074 C111.4993,22.5074 112.5073,21.4994 112.5073,20.2574 L108.0073,20.2574 C108.0073,21.4994 109.0133,22.5074 110.2573,22.5074 L110.2573,22.5074 Z M114.7563,18.0074 C113.5133,18.0074 112.5063,19.0134 112.5063,20.2574 L117.0073,20.2574 C117.0073,19.0134 116.0003,18.0074 114.7563,18.0074 L114.7563,18.0074 Z M114.7563,31.4974 C113.5133,31.4974 112.5063,32.5034 112.5063,33.7474 L117.0073,33.7474 C117.0073,32.5034 116.0003,31.4974 114.7563,31.4974 L114.7563,31.4974 Z M108.0063,33.7474 C108.0063,34.9914 109.0143,35.9974 110.2563,35.9974 C111.4993,35.9974 112.5063,34.9914 112.5063,33.7474 L108.0063,33.7474 Z M110.2573,31.5084 C111.4993,31.5084 112.5073,30.4994 112.5073,29.2574 L108.0073,29.2574 C108.0073,30.4994 109.0133,31.5084 110.2573,31.5084 L110.2573,31.5084 Z M114.7563,27.0074 C113.5133,27.0074 112.5063,28.0144 112.5063,29.2574 L117.0073,29.2574 C117.0073,28.0144 116.0003,27.0074 114.7563,27.0074 L114.7563,27.0074 Z M105.7553,4.4894 C104.5123,4.4894 103.5053,5.4964 103.5053,6.7394 L108.0053,6.7394 C108.0053,5.4964 106.9993,4.4894 105.7553,4.4894 L105.7553,4.4894 Z M99.0053,6.7394 C99.0053,7.9834 100.0133,8.9894 101.2553,8.9894 C102.4973,8.9894 103.5053,7.9834 103.5053,6.7394 L99.0053,6.7394 Z M101.2563,4.5004 C102.4983,4.5004 103.5063,3.4924 103.5063,2.2504 L99.0043,2.2504 C99.0043,3.4924 100.0123,4.5004 101.2563,4.5004 L101.2563,4.5004 Z M105.7553,0.0004 C104.5133,0.0004 103.5053,1.0064 103.5053,2.2504 L108.0053,2.2504 C108.0053,1.0064 106.9993,0.0004 105.7553,0.0004 L105.7553,0.0004 Z M96.7553,4.4894 C95.5113,4.4894 94.5053,5.4964 94.5053,6.7394 L99.0053,6.7394 C99.0053,5.4964 97.9993,4.4894 96.7553,4.4894 L96.7553,4.4894 Z M90.0043,6.7394 C90.0043,7.9834 91.0133,8.9894 92.2543,8.9894 C93.4983,8.9894 94.5053,7.9834 94.5053,6.7394 L90.0043,6.7394 Z M92.2563,4.5004 C93.4973,4.5004 94.5063,3.4924 94.5063,2.2504 L90.0053,2.2504 C90.0053,3.4924 91.0123,4.5004 92.2563,4.5004 L92.2563,4.5004 Z M96.7553,0.0004 C95.5113,0.0004 94.5053,1.0064 94.5053,2.2504 L99.0053,2.2504 C99.0053,1.0064 97.9993,0.0004 96.7553,0.0004 L96.7553,0.0004 Z M78.7543,31.4914 C77.5103,31.4914 76.5033,32.4984 76.5033,33.7414 L81.0043,33.7414 C81.0043,32.4984 79.9973,31.4914 78.7543,31.4914 L78.7543,31.4914 Z M72.0033,33.7414 C72.0033,34.9854 73.0103,35.9914 74.2533,35.9914 C75.4953,35.9914 76.5033,34.9854 76.5033,33.7414 L72.0033,33.7414 Z M74.2543,31.5024 C75.4963,31.5024 76.5043,30.4944 76.5043,29.2524 L72.0043,29.2524 C72.0043,30.4944 73.0103,31.5024 74.2543,31.5024 L74.2543,31.5024 Z M78.7543,27.0014 C77.5103,27.0014 76.5033,28.0084 76.5033,29.2524 L81.0043,29.2524 C81.0043,28.0084 79.9973,27.0014 78.7543,27.0014 L78.7543,27.0014 Z M69.7533,31.4914 C68.5093,31.4914 67.5023,32.4984 67.5023,33.7414 L72.0033,33.7414 C72.0033,32.4984 70.9963,31.4914 69.7533,31.4914 L69.7533,31.4914 Z M63.0023,33.7414 C63.0023,34.9854 64.0103,35.9914 65.2523,35.9914 C66.4943,35.9914 67.5023,34.9854 67.5023,33.7414 L63.0023,33.7414 Z M65.2533,31.5024 C66.4953,31.5024 67.5033,30.4944 67.5033,29.2524 L63.0033,29.2524 C63.0033,30.4944 64.0093,31.5024 65.2533,31.5024 L65.2533,31.5024 Z M69.7533,27.0014 C68.5093,27.0014 67.5023,28.0084 67.5023,29.2524 L72.0033,29.2524 C72.0033,28.0084 70.9963,27.0014 69.7533,27.0014 L69.7533,27.0014 Z M51.7513,31.4914 C50.5083,31.4914 49.5013,32.4984 49.5013,33.7414 L54.0023,33.7414 C54.0023,32.4984 52.9933,31.4914 51.7513,31.4914 L51.7513,31.4914 Z M45.0003,33.7414 C45.0003,34.9854 46.0093,35.9914 47.2513,35.9914 C48.4943,35.9914 49.5013,34.9854 49.5013,33.7414 L45.0003,33.7414 Z M47.2523,31.5024 C48.4943,31.5024 49.5023,30.4944 49.5023,29.2524 L45.0023,29.2524 C45.0023,30.4944 46.0083,31.5024 47.2523,31.5024 L47.2523,31.5024 Z M51.7513,27.0014 C50.5083,27.0014 49.5013,28.0084 49.5013,29.2524 L54.0023,29.2524 C54.0023,28.0084 52.9933,27.0014 51.7513,27.0014 L51.7513,27.0014 Z M114.7563,40.4984 C113.5123,40.4984 112.5063,41.5064 112.5063,42.7484 L117.0063,42.7484 C117.0063,41.5064 116.0003,40.4984 114.7563,40.4984 L114.7563,40.4984 Z M108.0063,42.7484 C108.0063,43.9914 109.0143,44.9984 110.2563,44.9984 C111.4983,44.9984 112.5063,43.9914 112.5063,42.7484 L108.0063,42.7484 Z M110.2573,40.5094 C111.4993,40.5094 112.5073,39.5004 112.5073,38.2594 L108.0053,38.2594 C108.0053,39.5004 109.0133,40.5094 110.2573,40.5094 L110.2573,40.5094 Z M114.7563,36.0084 C113.5143,36.0084 112.5063,37.0144 112.5063,38.2584 L117.0063,38.2584 C117.0063,37.0144 116.0003,36.0084 114.7563,36.0084 L114.7563,36.0084 Z M114.7563,49.4984 C113.5123,49.4984 112.5063,50.5064 112.5063,51.7484 L117.0063,51.7484 C117.0063,50.5064 116.0003,49.4984 114.7563,49.4984 L114.7563,49.4984 Z M108.0063,51.7484 C108.0063,52.9924 109.0143,53.9984 110.2563,53.9984 C111.4983,53.9984 112.5063,52.9924 112.5063,51.7484 L108.0063,51.7484 Z M110.2573,49.5094 C111.4993,49.5094 112.5073,48.5014 112.5073,47.2594 L108.0053,47.2594 C108.0053,48.5014 109.0133,49.5094 110.2573,49.5094 L110.2573,49.5094 Z M114.7563,45.0094 C113.5143,45.0094 112.5063,46.0164 112.5063,47.2594 L117.0063,47.2594 C117.0063,46.0164 116.0003,45.0094 114.7563,45.0094 L114.7563,45.0094 Z M114.7563,58.4994 C113.5123,58.4994 112.5063,59.5074 112.5063,60.7494 L117.0063,60.7494 C117.0063,59.5074 116.0003,58.4994 114.7563,58.4994 L114.7563,58.4994 Z M108.0063,60.7494 C108.0063,61.9924 109.0143,62.9994 110.2563,62.9994 C111.4983,62.9994 112.5063,61.9924 112.5063,60.7494 L108.0063,60.7494 Z M110.2573,58.5104 C111.4993,58.5104 112.5073,57.5024 112.5073,56.2604 L108.0053,56.2604 C108.0053,57.5024 109.0133,58.5104 110.2573,58.5104 L110.2573,58.5104 Z M114.7563,54.0104 C113.5143,54.0104 112.5063,55.0164 112.5063,56.2604 L117.0063,56.2604 C117.0063,55.0164 116.0003,54.0104 114.7563,54.0104 L114.7563,54.0104 Z M114.7563,67.4994 C113.5123,67.4994 112.5063,68.5084 112.5063,69.7504 L117.0063,69.7504 C117.0063,68.5084 116.0003,67.4994 114.7563,67.4994 L114.7563,67.4994 Z M108.0063,69.7504 C108.0063,70.9934 109.0143,72.0004 110.2563,72.0004 C111.4983,72.0004 112.5063,70.9934 112.5063,69.7504 L108.0063,69.7504 Z M110.2573,67.5114 C111.4993,67.5114 112.5073,66.5024 112.5073,65.2604 L108.0053,65.2604 C108.0053,66.5024 109.0133,67.5114 110.2573,67.5114 L110.2573,67.5114 Z M114.7563,63.0104 C113.5143,63.0104 112.5063,64.0174 112.5063,65.2614 L117.0063,65.2614 C117.0063,64.0174 116.0003,63.0104 114.7563,63.0104 L114.7563,63.0104 Z M114.7563,76.4954 C113.5123,76.4954 112.5063,77.5014 112.5063,78.7454 L117.0063,78.7454 C117.0063,77.5014 116.0003,76.4954 114.7563,76.4954 L114.7563,76.4954 Z M108.0063,78.7454 C108.0063,79.9874 109.0143,80.9954 110.2563,80.9954 C111.4983,80.9954 112.5063,79.9874 112.5063,78.7454 L108.0063,78.7454 Z M110.2573,76.5054 C111.4993,76.5054 112.5073,75.4974 112.5073,74.2554 L108.0053,74.2554 C108.0053,75.4974 109.0133,76.5054 110.2573,76.5054 L110.2573,76.5054 Z M114.7563,72.0054 C113.5143,72.0054 112.5063,73.0134 112.5063,74.2554 L117.0063,74.2554 C117.0063,73.0134 116.0003,72.0054 114.7563,72.0054 L114.7563,72.0054 Z M114.7563,85.4954 C113.5123,85.4954 112.5063,86.5024 112.5063,87.7464 L117.0063,87.7464 C117.0063,86.5024 116.0003,85.4954 114.7563,85.4954 L114.7563,85.4954 Z M108.0063,87.7464 C108.0063,88.9874 109.0143,89.9964 110.2563,89.9964 C111.4983,89.9964 112.5063,88.9874 112.5063,87.7464 L108.0063,87.7464 Z M110.2573,85.5064 C111.4993,85.5064 112.5073,84.4974 112.5073,83.2554 L108.0053,83.2554 C108.0053,84.4974 109.0133,85.5064 110.2573,85.5064 L110.2573,85.5064 Z M114.7563,81.0054 C113.5143,81.0054 112.5063,82.0144 112.5063,83.2564 L117.0063,83.2564 C117.0063,82.0144 116.0003,81.0054 114.7563,81.0054 L114.7563,81.0054 Z M114.7563,94.5014 C113.5123,94.5014 112.5063,95.5104 112.5063,96.7514 L117.0063,96.7514 C117.0063,95.5104 116.0003,94.5014 114.7563,94.5014 L114.7563,94.5014 Z M108.0063,96.7524 C108.0063,97.9934 109.0143,99.0024 110.2563,99.0024 C111.4983,99.0024 112.5063,97.9934 112.5063,96.7524 L108.0063,96.7524 Z M110.2573,94.5134 C111.4993,94.5134 112.5073,93.5044 112.5073,92.2624 L108.0053,92.2624 C108.0053,93.5044 109.0133,94.5134 110.2573,94.5134 L110.2573,94.5134 Z M114.7563,90.0124 C113.5143,90.0124 112.5063,91.0194 112.5063,92.2634 L117.0063,92.2634 C117.0063,91.0194 116.0003,90.0124 114.7563,90.0124 L114.7563,90.0124 Z M114.7563,103.5024 C113.5123,103.5024 112.5063,104.5104 112.5063,105.7524 L117.0063,105.7524 C117.0063,104.5104 116.0003,103.5024 114.7563,103.5024 L114.7563,103.5024 Z M108.0063,105.7524 C108.0063,106.9944 109.0143,108.0024 110.2563,108.0024 C111.4983,108.0024 112.5063,106.9944 112.5063,105.7524 L108.0063,105.7524 Z M110.2573,103.5134 C111.4993,103.5134 112.5073,102.5054 112.5073,101.2634 L108.0053,101.2634 C108.0053,102.5054 109.0133,103.5134 110.2573,103.5134 L110.2573,103.5134 Z M114.7563,99.0134 C113.5143,99.0134 112.5063,100.0194 112.5063,101.2634 L117.0063,101.2634 C117.0063,100.0194 116.0003,99.0134 114.7563,99.0134 L114.7563,99.0134 Z M114.7563,112.4974 C113.5123,112.4974 112.5063,113.5064 112.5063,114.7484 L117.0063,114.7484 C117.0063,113.5064 116.0003,112.4974 114.7563,112.4974 L114.7563,112.4974 Z M108.0063,114.7484 C108.0063,115.9894 109.0143,116.9984 110.2563,116.9984 C111.4983,116.9984 112.5063,115.9894 112.5063,114.7484 L108.0063,114.7484 Z M110.2573,112.5094 C111.4993,112.5094 112.5073,111.5004 112.5073,110.2594 L108.0053,110.2594 C108.0053,111.5004 109.0133,112.5094 110.2573,112.5094 L110.2573,112.5094 Z M114.7563,108.0084 C113.5143,108.0084 112.5063,109.0154 112.5063,110.2594 L117.0063,110.2594 C117.0063,109.0154 116.0003,108.0084 114.7563,108.0084 L114.7563,108.0084 Z M105.7553,112.4874 C104.5123,112.4874 103.5053,113.4934 103.5053,114.7374 L108.0053,114.7374 C108.0053,113.4934 106.9993,112.4874 105.7553,112.4874 L105.7553,112.4874 Z M99.0053,114.7374 C99.0053,115.9794 100.0133,116.9854 101.2553,116.9854 C102.4973,116.9854 103.5053,115.9794 103.5053,114.7374 L99.0053,114.7374 Z M101.2563,112.4974 C102.4983,112.4974 103.5063,111.4894 103.5063,110.2474 L99.0043,110.2474 C99.0043,111.4894 100.0123,112.4974 101.2563,112.4974 L101.2563,112.4974 Z M105.7553,107.9974 C104.5133,107.9974 103.5053,109.0054 103.5053,110.2474 L108.0053,110.2474 C108.0053,109.0054 106.9993,107.9974 105.7553,107.9974 L105.7553,107.9974 Z M96.7553,112.4874 C95.5113,112.4874 94.5053,113.4934 94.5053,114.7374 L99.0053,114.7374 C99.0053,113.4934 97.9983,112.4874 96.7553,112.4874 L96.7553,112.4874 Z M90.0043,114.7374 C90.0043,115.9794 91.0133,116.9854 92.2543,116.9854 C93.4963,116.9854 94.5053,115.9794 94.5053,114.7374 L90.0043,114.7374 Z M92.2563,112.4974 C93.4973,112.4974 94.5063,111.4894 94.5063,110.2474 L90.0043,110.2474 C90.0043,111.4894 91.0123,112.4974 92.2563,112.4974 L92.2563,112.4974 Z M96.7553,107.9974 C95.5133,107.9974 94.5053,109.0054 94.5053,110.2474 L99.0053,110.2474 C99.0053,109.0054 97.9983,107.9974 96.7553,107.9974 L96.7553,107.9974 Z M87.7543,4.4894 C86.5103,4.4894 85.5043,5.4964 85.5043,6.7394 L90.0043,6.7394 C90.0043,5.4964 88.9963,4.4894 87.7543,4.4894 L87.7543,4.4894 Z M81.0033,6.7394 C81.0033,7.9834 82.0123,8.9894 83.2543,8.9894 C84.4953,8.9894 85.5043,7.9834 85.5043,6.7394 L81.0033,6.7394 Z M83.2543,4.5004 C84.4963,4.5004 85.5043,3.4924 85.5043,2.2504 L81.0043,2.2504 C81.0043,3.4924 82.0113,4.5004 83.2543,4.5004 L83.2543,4.5004 Z M87.7543,0.0004 C86.5103,0.0004 85.5043,1.0064 85.5043,2.2504 L90.0043,2.2504 C90.0043,1.0064 88.9963,0.0004 87.7543,0.0004 L87.7543,0.0004 Z M87.7543,13.4904 C86.5103,13.4904 85.5043,14.4964 85.5043,15.7404 L90.0043,15.7404 C90.0043,14.4964 88.9963,13.4904 87.7543,13.4904 L87.7543,13.4904 Z M81.0033,15.7404 C81.0033,16.9844 82.0123,17.9904 83.2543,17.9904 C84.4953,17.9904 85.5043,16.9844 85.5043,15.7404 L81.0033,15.7404 Z M83.2543,13.5014 C84.4963,13.5014 85.5043,12.4924 85.5043,11.2504 L81.0043,11.2504 C81.0043,12.4924 82.0113,13.5014 83.2543,13.5014 L83.2543,13.5014 Z M87.7543,9.0004 C86.5103,9.0004 85.5043,10.0074 85.5043,11.2504 L90.0043,11.2504 C90.0043,10.0074 88.9963,9.0004 87.7543,9.0004 L87.7543,9.0004 Z M87.7543,22.4964 C86.5103,22.4964 85.5043,23.5034 85.5043,24.7464 L90.0043,24.7464 C90.0043,23.5034 88.9963,22.4964 87.7543,22.4964 L87.7543,22.4964 Z M81.0033,24.7464 C81.0033,25.9904 82.0123,26.9964 83.2543,26.9964 C84.4953,26.9964 85.5043,25.9904 85.5043,24.7464 L81.0033,24.7464 Z M83.2543,22.5074 C84.4963,22.5074 85.5043,21.4994 85.5043,20.2574 L81.0043,20.2574 C81.0043,21.4994 82.0113,22.5074 83.2543,22.5074 L83.2543,22.5074 Z M87.7543,18.0074 C86.5103,18.0074 85.5043,19.0134 85.5043,20.2574 L90.0043,20.2574 C90.0043,19.0134 88.9963,18.0074 87.7543,18.0074 L87.7543,18.0074 Z M87.7543,31.4974 C86.5103,31.4974 85.5043,32.5034 85.5043,33.7474 L90.0043,33.7474 C90.0043,32.5034 88.9963,31.4974 87.7543,31.4974 L87.7543,31.4974 Z M81.0033,33.7474 C81.0033,34.9914 82.0123,35.9974 83.2543,35.9974 C84.4953,35.9974 85.5043,34.9914 85.5043,33.7474 L81.0033,33.7474 Z M83.2543,31.5084 C84.4963,31.5084 85.5043,30.4994 85.5043,29.2574 L81.0043,29.2574 C81.0043,30.4994 82.0113,31.5084 83.2543,31.5084 L83.2543,31.5084 Z M87.7543,27.0074 C86.5103,27.0074 85.5043,28.0144 85.5043,29.2574 L90.0043,29.2574 C90.0043,28.0144 88.9963,27.0074 87.7543,27.0074 L87.7543,27.0074 Z M87.7543,40.4984 C86.5103,40.4984 85.5043,41.5064 85.5043,42.7484 L90.0043,42.7484 C90.0043,41.5064 88.9963,40.4984 87.7543,40.4984 L87.7543,40.4984 Z M81.0033,42.7484 C81.0033,43.9914 82.0123,44.9984 83.2543,44.9984 C84.4953,44.9984 85.5043,43.9914 85.5043,42.7484 L81.0033,42.7484 Z M83.2543,40.5094 C84.4963,40.5094 85.5043,39.5004 85.5043,38.2594 L81.0043,38.2594 C81.0043,39.5004 82.0113,40.5094 83.2543,40.5094 L83.2543,40.5094 Z M87.7543,36.0084 C86.5103,36.0084 85.5043,37.0144 85.5043,38.2584 L90.0043,38.2584 C90.0043,37.0144 88.9963,36.0084 87.7543,36.0084 L87.7543,36.0084 Z M87.7543,49.4984 C86.5103,49.4984 85.5043,50.5064 85.5043,51.7484 L90.0043,51.7484 C90.0043,50.5064 88.9963,49.4984 87.7543,49.4984 L87.7543,49.4984 Z M81.0033,51.7484 C81.0033,52.9924 82.0123,53.9984 83.2543,53.9984 C84.4953,53.9984 85.5043,52.9924 85.5043,51.7484 L81.0033,51.7484 Z M83.2543,49.5094 C84.4963,49.5094 85.5043,48.5014 85.5043,47.2594 L81.0043,47.2594 C81.0043,48.5014 82.0113,49.5094 83.2543,49.5094 L83.2543,49.5094 Z M87.7543,45.0094 C86.5103,45.0094 85.5043,46.0164 85.5043,47.2594 L90.0043,47.2594 C90.0043,46.0164 88.9963,45.0094 87.7543,45.0094 L87.7543,45.0094 Z M87.7543,58.4994 C86.5103,58.4994 85.5043,59.5074 85.5043,60.7494 L90.0043,60.7494 C90.0043,59.5074 88.9963,58.4994 87.7543,58.4994 L87.7543,58.4994 Z M81.0033,60.7494 C81.0033,61.9924 82.0123,62.9994 83.2543,62.9994 C84.4953,62.9994 85.5043,61.9924 85.5043,60.7494 L81.0033,60.7494 Z M83.2543,58.5104 C84.4963,58.5104 85.5043,57.5024 85.5043,56.2604 L81.0043,56.2604 C81.0043,57.5024 82.0113,58.5104 83.2543,58.5104 L83.2543,58.5104 Z M87.7543,54.0104 C86.5103,54.0104 85.5043,55.0164 85.5043,56.2604 L90.0043,56.2604 C90.0043,55.0164 88.9963,54.0104 87.7543,54.0104 L87.7543,54.0104 Z M87.7543,67.4994 C86.5103,67.4994 85.5043,68.5084 85.5043,69.7504 L90.0043,69.7504 C90.0043,68.5084 88.9963,67.4994 87.7543,67.4994 L87.7543,67.4994 Z M81.0033,69.7504 C81.0033,70.9934 82.0123,72.0004 83.2543,72.0004 C84.4953,72.0004 85.5043,70.9934 85.5043,69.7504 L81.0033,69.7504 Z M83.2543,67.5114 C84.4963,67.5114 85.5043,66.5024 85.5043,65.2604 L81.0043,65.2604 C81.0043,66.5024 82.0113,67.5114 83.2543,67.5114 L83.2543,67.5114 Z M87.7543,63.0104 C86.5103,63.0104 85.5043,64.0174 85.5043,65.2614 L90.0043,65.2614 C90.0043,64.0174 88.9963,63.0104 87.7543,63.0104 L87.7543,63.0104 Z M87.7543,76.4954 C86.5103,76.4954 85.5043,77.5014 85.5043,78.7454 L90.0043,78.7454 C90.0043,77.5014 88.9963,76.4954 87.7543,76.4954 L87.7543,76.4954 Z M81.0033,78.7454 C81.0033,79.9874 82.0123,80.9954 83.2543,80.9954 C84.4953,80.9954 85.5043,79.9874 85.5043,78.7454 L81.0033,78.7454 Z M83.2543,76.5054 C84.4963,76.5054 85.5043,75.4974 85.5043,74.2554 L81.0043,74.2554 C81.0043,75.4974 82.0113,76.5054 83.2543,76.5054 L83.2543,76.5054 Z M87.7543,72.0054 C86.5103,72.0054 85.5043,73.0134 85.5043,74.2554 L90.0043,74.2554 C90.0043,73.0134 88.9963,72.0054 87.7543,72.0054 L87.7543,72.0054 Z M87.7543,85.4954 C86.5103,85.4954 85.5043,86.5024 85.5043,87.7464 L90.0043,87.7464 C90.0043,86.5024 88.9963,85.4954 87.7543,85.4954 L87.7543,85.4954 Z M81.0033,87.7464 C81.0033,88.9874 82.0123,89.9964 83.2543,89.9964 C84.4953,89.9964 85.5043,88.9874 85.5043,87.7464 L81.0033,87.7464 Z M83.2543,85.5064 C84.4963,85.5064 85.5043,84.4974 85.5043,83.2554 L81.0043,83.2554 C81.0043,84.4974 82.0113,85.5064 83.2543,85.5064 L83.2543,85.5064 Z M87.7543,81.0054 C86.5103,81.0054 85.5043,82.0144 85.5043,83.2564 L90.0043,83.2564 C90.0043,82.0144 88.9963,81.0054 87.7543,81.0054 L87.7543,81.0054 Z M87.7543,94.5014 C86.5103,94.5014 85.5043,95.5104 85.5043,96.7514 L90.0043,96.7514 C90.0043,95.5104 88.9963,94.5014 87.7543,94.5014 L87.7543,94.5014 Z M81.0033,96.7524 C81.0033,97.9934 82.0123,99.0024 83.2543,99.0024 C84.4953,99.0024 85.5043,97.9934 85.5043,96.7524 L81.0033,96.7524 Z M83.2543,94.5134 C84.4963,94.5134 85.5043,93.5044 85.5043,92.2624 L81.0043,92.2624 C81.0043,93.5044 82.0113,94.5134 83.2543,94.5134 L83.2543,94.5134 Z M87.7543,90.0124 C86.5103,90.0124 85.5043,91.0194 85.5043,92.2634 L90.0043,92.2634 C90.0043,91.0194 88.9963,90.0124 87.7543,90.0124 L87.7543,90.0124 Z M87.7543,103.5024 C86.5103,103.5024 85.5043,104.5104 85.5043,105.7524 L90.0043,105.7524 C90.0043,104.5104 88.9963,103.5024 87.7543,103.5024 L87.7543,103.5024 Z M81.0033,105.7524 C81.0033,106.9944 82.0123,108.0024 83.2543,108.0024 C84.4953,108.0024 85.5043,106.9944 85.5043,105.7524 L81.0033,105.7524 Z M83.2543,103.5134 C84.4963,103.5134 85.5043,102.5054 85.5043,101.2634 L81.0043,101.2634 C81.0043,102.5054 82.0113,103.5134 83.2543,103.5134 L83.2543,103.5134 Z M87.7543,99.0134 C86.5103,99.0134 85.5043,100.0194 85.5043,101.2634 L90.0043,101.2634 C90.0043,100.0194 88.9963,99.0134 87.7543,99.0134 L87.7543,99.0134 Z M87.7543,112.4974 C86.5103,112.4974 85.5043,113.5064 85.5043,114.7484 L90.0043,114.7484 C90.0043,113.5064 88.9963,112.4974 87.7543,112.4974 L87.7543,112.4974 Z M81.0033,114.7484 C81.0033,115.9894 82.0123,116.9984 83.2543,116.9984 C84.4953,116.9984 85.5043,115.9894 85.5043,114.7484 L81.0033,114.7484 Z M83.2543,112.5094 C84.4963,112.5094 85.5043,111.5004 85.5043,110.2594 L81.0043,110.2594 C81.0043,111.5004 82.0113,112.5094 83.2543,112.5094 L83.2543,112.5094 Z M87.7543,108.0084 C86.5103,108.0084 85.5043,109.0154 85.5043,110.2594 L90.0043,110.2594 C90.0043,109.0154 88.9963,108.0084 87.7543,108.0084 L87.7543,108.0084 Z M114.7573,121.4984 C113.5133,121.4984 112.5073,122.5064 112.5073,123.7484 L117.0073,123.7484 C117.0073,122.5064 115.9993,121.4984 114.7573,121.4984 L114.7573,121.4984 Z M108.0063,123.7484 C108.0063,124.9904 109.0123,125.9984 110.2563,125.9984 C111.5003,125.9984 112.5063,124.9904 112.5063,123.7484 L108.0063,123.7484 Z M110.2573,121.5094 C111.4993,121.5094 112.5073,120.5014 112.5073,119.2594 L108.0073,119.2594 C108.0073,120.5014 109.0153,121.5094 110.2573,121.5094 L110.2573,121.5094 Z M114.7573,117.0094 C113.5133,117.0094 112.5073,118.0164 112.5073,119.2594 L117.0073,119.2594 C117.0073,118.0164 115.9993,117.0094 114.7573,117.0094 L114.7573,117.0094 Z M114.7573,130.4994 C113.5133,130.4994 112.5073,131.5054 112.5073,132.7494 L117.0073,132.7494 C117.0073,131.5054 115.9993,130.4994 114.7573,130.4994 L114.7573,130.4994 Z M108.0063,132.7494 C108.0063,133.9914 109.0123,134.9994 110.2563,134.9994 C111.5003,134.9994 112.5063,133.9914 112.5063,132.7494 L108.0063,132.7494 Z M110.2573,130.5094 C111.4993,130.5094 112.5073,129.5014 112.5073,128.2594 L108.0073,128.2594 C108.0073,129.5014 109.0153,130.5094 110.2573,130.5094 L110.2573,130.5094 Z M114.7573,126.0094 C113.5133,126.0094 112.5073,127.0174 112.5073,128.2594 L117.0073,128.2594 C117.0073,127.0174 115.9993,126.0094 114.7573,126.0094 L114.7573,126.0094 Z M114.7573,139.4994 C113.5133,139.4994 112.5073,140.5064 112.5073,141.7494 L117.0073,141.7494 C117.0073,140.5064 115.9993,139.4994 114.7573,139.4994 L114.7573,139.4994 Z M108.0063,141.7494 C108.0063,142.9914 109.0123,144.0004 110.2563,144.0004 C111.5003,144.0004 112.5063,142.9914 112.5063,141.7494 L108.0063,141.7494 Z M110.2573,139.5104 C111.4993,139.5104 112.5073,138.5014 112.5073,137.2604 L108.0073,137.2604 C108.0073,138.5014 109.0153,139.5104 110.2573,139.5104 L110.2573,139.5104 Z M114.7573,135.0094 C113.5133,135.0094 112.5073,136.0184 112.5073,137.2604 L117.0073,137.2604 C117.0073,136.0184 115.9993,135.0094 114.7573,135.0094 L114.7573,135.0094 Z M96.7553,139.4994 C95.5113,139.4994 94.5053,140.5064 94.5053,141.7494 L99.0053,141.7494 C99.0053,140.5064 97.9973,139.4994 96.7553,139.4994 L96.7553,139.4994 Z M90.0043,141.7494 C90.0043,142.9914 91.0123,144.0004 92.2563,144.0004 C93.4983,144.0004 94.5043,142.9914 94.5043,141.7494 L90.0043,141.7494 Z M92.2553,139.5104 C93.4973,139.5104 94.5053,138.5014 94.5053,137.2604 L90.0053,137.2604 C90.0053,138.5014 91.0133,139.5104 92.2553,139.5104 L92.2553,139.5104 Z M96.7553,135.0094 C95.5113,135.0094 94.5053,136.0184 94.5053,137.2604 L99.0053,137.2604 C99.0053,136.0184 97.9973,135.0094 96.7553,135.0094 L96.7553,135.0094 Z M105.7563,139.4994 C104.5133,139.4994 103.5063,140.5064 103.5063,141.7494 L108.0073,141.7494 C108.0073,140.5064 106.9983,139.4994 105.7563,139.4994 L105.7563,139.4994 Z M99.0063,141.7494 C99.0063,142.9914 100.0123,144.0004 101.2563,144.0004 C102.4983,144.0004 103.5063,142.9914 103.5063,141.7494 L99.0063,141.7494 Z M101.2563,139.5104 C102.4983,139.5104 103.5063,138.5014 103.5063,137.2604 L99.0063,137.2604 C99.0063,138.5014 100.0143,139.5104 101.2563,139.5104 L101.2563,139.5104 Z M105.7563,135.0094 C104.5133,135.0094 103.5063,136.0184 103.5063,137.2604 L108.0073,137.2604 C108.0073,136.0184 106.9983,135.0094 105.7563,135.0094 L105.7563,135.0094 Z M60.7533,121.4984 C59.5093,121.4984 58.5033,122.5064 58.5033,123.7484 L63.0033,123.7484 C63.0033,122.5064 61.9953,121.4984 60.7533,121.4984 L60.7533,121.4984 Z M54.0023,123.7484 C54.0023,124.9904 55.0103,125.9984 56.2523,125.9984 C57.4963,125.9984 58.5023,124.9904 58.5023,123.7484 L54.0023,123.7484 Z M56.2533,121.5094 C57.4953,121.5094 58.5033,120.5014 58.5033,119.2594 L54.0033,119.2594 C54.0033,120.5014 55.0093,121.5094 56.2533,121.5094 L56.2533,121.5094 Z M60.7533,117.0094 C59.5093,117.0094 58.5033,118.0164 58.5033,119.2594 L63.0033,119.2594 C63.0033,118.0164 61.9953,117.0094 60.7533,117.0094 L60.7533,117.0094 Z M60.7533,130.4994 C59.5093,130.4994 58.5033,131.5054 58.5033,132.7494 L63.0033,132.7494 C63.0033,131.5054 61.9953,130.4994 60.7533,130.4994 L60.7533,130.4994 Z M54.0023,132.7494 C54.0023,133.9914 55.0103,134.9994 56.2523,134.9994 C57.4963,134.9994 58.5023,133.9914 58.5023,132.7494 L54.0023,132.7494 Z M56.2533,130.5094 C57.4953,130.5094 58.5033,129.5014 58.5033,128.2594 L54.0033,128.2594 C54.0033,129.5014 55.0093,130.5094 56.2533,130.5094 L56.2533,130.5094 Z M60.7533,126.0094 C59.5093,126.0094 58.5033,127.0174 58.5033,128.2594 L63.0033,128.2594 C63.0033,127.0174 61.9953,126.0094 60.7533,126.0094 L60.7533,126.0094 Z M60.7533,139.4994 C59.5093,139.4994 58.5033,140.5064 58.5033,141.7494 L63.0033,141.7494 C63.0033,140.5064 61.9953,139.4994 60.7533,139.4994 L60.7533,139.4994 Z M54.0023,141.7494 C54.0023,142.9914 55.0103,144.0004 56.2523,144.0004 C57.4963,144.0004 58.5023,142.9914 58.5023,141.7494 L54.0023,141.7494 Z M56.2533,139.5104 C57.4953,139.5104 58.5033,138.5014 58.5033,137.2604 L54.0033,137.2604 C54.0033,138.5014 55.0093,139.5104 56.2533,139.5104 L56.2533,139.5104 Z M60.7533,135.0094 C59.5093,135.0094 58.5033,136.0184 58.5033,137.2604 L63.0033,137.2604 C63.0033,136.0184 61.9953,135.0094 60.7533,135.0094 L60.7533,135.0094 Z M60.7523,4.4894 C59.5093,4.4894 58.5023,5.4964 58.5023,6.7394 L63.0023,6.7394 C63.0023,5.4964 61.9963,4.4894 60.7523,4.4894 L60.7523,4.4894 Z M54.0023,6.7394 C54.0023,7.9834 55.0083,8.9894 56.2523,8.9894 C57.4943,8.9894 58.5023,7.9834 58.5023,6.7394 L54.0023,6.7394 Z M56.2523,4.5004 C57.4943,4.5004 58.5033,3.4924 58.5033,2.2504 L54.0023,2.2504 C54.0023,3.4924 55.0093,4.5004 56.2523,4.5004 L56.2523,4.5004 Z M60.7523,0.0004 C59.5093,0.0004 58.5023,1.0064 58.5023,2.2504 L63.0023,2.2504 C63.0023,1.0064 61.9963,0.0004 60.7523,0.0004 L60.7523,0.0004 Z M60.7523,13.4904 C59.5093,13.4904 58.5023,14.4964 58.5023,15.7404 L63.0023,15.7404 C63.0023,14.4964 61.9963,13.4904 60.7523,13.4904 L60.7523,13.4904 Z M54.0023,15.7404 C54.0023,16.9844 55.0083,17.9904 56.2523,17.9904 C57.4943,17.9904 58.5023,16.9844 58.5023,15.7404 L54.0023,15.7404 Z M56.2523,13.5014 C57.4943,13.5014 58.5033,12.4924 58.5033,11.2504 L54.0023,11.2504 C54.0023,12.4924 55.0093,13.5014 56.2523,13.5014 L56.2523,13.5014 Z M60.7523,9.0004 C59.5093,9.0004 58.5023,10.0074 58.5023,11.2504 L63.0023,11.2504 C63.0023,10.0074 61.9963,9.0004 60.7523,9.0004 L60.7523,9.0004 Z M60.7523,22.4964 C59.5093,22.4964 58.5023,23.5034 58.5023,24.7464 L63.0023,24.7464 C63.0023,23.5034 61.9963,22.4964 60.7523,22.4964 L60.7523,22.4964 Z M54.0023,24.7464 C54.0023,25.9904 55.0083,26.9964 56.2523,26.9964 C57.4943,26.9964 58.5023,25.9904 58.5023,24.7464 L54.0023,24.7464 Z M56.2523,22.5074 C57.4943,22.5074 58.5033,21.4994 58.5033,20.2574 L54.0023,20.2574 C54.0023,21.4994 55.0093,22.5074 56.2523,22.5074 L56.2523,22.5074 Z M60.7523,18.0074 C59.5093,18.0074 58.5023,19.0134 58.5023,20.2574 L63.0023,20.2574 C63.0023,19.0134 61.9963,18.0074 60.7523,18.0074 L60.7523,18.0074 Z M60.7523,31.4974 C59.5093,31.4974 58.5023,32.5034 58.5023,33.7474 L63.0023,33.7474 C63.0023,32.5034 61.9963,31.4974 60.7523,31.4974 L60.7523,31.4974 Z M54.0023,33.7474 C54.0023,34.9914 55.0083,35.9974 56.2523,35.9974 C57.4943,35.9974 58.5023,34.9914 58.5023,33.7474 L54.0023,33.7474 Z M56.2523,31.5084 C57.4943,31.5084 58.5033,30.4994 58.5033,29.2574 L54.0023,29.2574 C54.0023,30.4994 55.0093,31.5084 56.2523,31.5084 L56.2523,31.5084 Z M60.7523,27.0074 C59.5093,27.0074 58.5023,28.0144 58.5023,29.2574 L63.0023,29.2574 C63.0023,28.0144 61.9963,27.0074 60.7523,27.0074 L60.7523,27.0074 Z M60.7523,40.4984 C59.5093,40.4984 58.5023,41.5064 58.5023,42.7484 L63.0023,42.7484 C63.0023,41.5064 61.9963,40.4984 60.7523,40.4984 L60.7523,40.4984 Z M54.0023,42.7484 C54.0023,43.9914 55.0083,44.9984 56.2523,44.9984 C57.4943,44.9984 58.5023,43.9914 58.5023,42.7484 L54.0023,42.7484 Z M56.2523,40.5094 C57.4943,40.5094 58.5033,39.5004 58.5033,38.2594 L54.0023,38.2594 C54.0023,39.5004 55.0093,40.5094 56.2523,40.5094 L56.2523,40.5094 Z M60.7523,36.0084 C59.5093,36.0084 58.5023,37.0144 58.5023,38.2584 L63.0023,38.2584 C63.0023,37.0144 61.9963,36.0084 60.7523,36.0084 L60.7523,36.0084 Z M60.7523,49.4984 C59.5093,49.4984 58.5023,50.5064 58.5023,51.7484 L63.0023,51.7484 C63.0023,50.5064 61.9963,49.4984 60.7523,49.4984 L60.7523,49.4984 Z M54.0023,51.7484 C54.0023,52.9924 55.0083,53.9984 56.2523,53.9984 C57.4943,53.9984 58.5023,52.9924 58.5023,51.7484 L54.0023,51.7484 Z M56.2523,49.5094 C57.4943,49.5094 58.5033,48.5014 58.5033,47.2594 L54.0023,47.2594 C54.0023,48.5014 55.0093,49.5094 56.2523,49.5094 L56.2523,49.5094 Z M60.7523,45.0094 C59.5093,45.0094 58.5023,46.0164 58.5023,47.2594 L63.0023,47.2594 C63.0023,46.0164 61.9963,45.0094 60.7523,45.0094 L60.7523,45.0094 Z M60.7523,58.4994 C59.5093,58.4994 58.5023,59.5074 58.5023,60.7494 L63.0023,60.7494 C63.0023,59.5074 61.9963,58.4994 60.7523,58.4994 L60.7523,58.4994 Z M54.0023,60.7494 C54.0023,61.9924 55.0083,62.9994 56.2523,62.9994 C57.4943,62.9994 58.5023,61.9924 58.5023,60.7494 L54.0023,60.7494 Z M56.2523,58.5104 C57.4943,58.5104 58.5033,57.5024 58.5033,56.2604 L54.0023,56.2604 C54.0023,57.5024 55.0093,58.5104 56.2523,58.5104 L56.2523,58.5104 Z M60.7523,54.0104 C59.5093,54.0104 58.5023,55.0164 58.5023,56.2604 L63.0023,56.2604 C63.0023,55.0164 61.9963,54.0104 60.7523,54.0104 L60.7523,54.0104 Z M60.7523,67.4994 C59.5093,67.4994 58.5023,68.5084 58.5023,69.7504 L63.0023,69.7504 C63.0023,68.5084 61.9963,67.4994 60.7523,67.4994 L60.7523,67.4994 Z M54.0023,69.7504 C54.0023,70.9934 55.0083,72.0004 56.2523,72.0004 C57.4943,72.0004 58.5023,70.9934 58.5023,69.7504 L54.0023,69.7504 Z M56.2523,67.5114 C57.4943,67.5114 58.5033,66.5024 58.5033,65.2604 L54.0023,65.2604 C54.0023,66.5024 55.0093,67.5114 56.2523,67.5114 L56.2523,67.5114 Z M60.7523,63.0104 C59.5093,63.0104 58.5023,64.0174 58.5023,65.2614 L63.0023,65.2614 C63.0023,64.0174 61.9963,63.0104 60.7523,63.0104 L60.7523,63.0104 Z M60.7523,76.4954 C59.5093,76.4954 58.5023,77.5014 58.5023,78.7454 L63.0023,78.7454 C63.0023,77.5014 61.9963,76.4954 60.7523,76.4954 L60.7523,76.4954 Z M54.0023,78.7454 C54.0023,79.9874 55.0083,80.9954 56.2523,80.9954 C57.4943,80.9954 58.5023,79.9874 58.5023,78.7454 L54.0023,78.7454 Z M56.2523,76.5054 C57.4943,76.5054 58.5033,75.4974 58.5033,74.2554 L54.0023,74.2554 C54.0023,75.4974 55.0093,76.5054 56.2523,76.5054 L56.2523,76.5054 Z M60.7523,72.0054 C59.5093,72.0054 58.5023,73.0134 58.5023,74.2554 L63.0023,74.2554 C63.0023,73.0134 61.9963,72.0054 60.7523,72.0054 L60.7523,72.0054 Z M60.7523,85.4954 C59.5093,85.4954 58.5023,86.5024 58.5023,87.7464 L63.0023,87.7464 C63.0023,86.5024 61.9963,85.4954 60.7523,85.4954 L60.7523,85.4954 Z M54.0023,87.7464 C54.0023,88.9874 55.0083,89.9964 56.2523,89.9964 C57.4943,89.9964 58.5023,88.9874 58.5023,87.7464 L54.0023,87.7464 Z M56.2523,85.5064 C57.4943,85.5064 58.5033,84.4974 58.5033,83.2554 L54.0023,83.2554 C54.0023,84.4974 55.0093,85.5064 56.2523,85.5064 L56.2523,85.5064 Z M60.7523,81.0054 C59.5093,81.0054 58.5023,82.0144 58.5023,83.2564 L63.0023,83.2564 C63.0023,82.0144 61.9963,81.0054 60.7523,81.0054 L60.7523,81.0054 Z M60.7523,94.5014 C59.5093,94.5014 58.5023,95.5104 58.5023,96.7514 L63.0023,96.7514 C63.0023,95.5104 61.9963,94.5014 60.7523,94.5014 L60.7523,94.5014 Z M54.0023,96.7524 C54.0023,97.9934 55.0083,99.0024 56.2523,99.0024 C57.4943,99.0024 58.5023,97.9934 58.5023,96.7524 L54.0023,96.7524 Z M56.2523,94.5134 C57.4943,94.5134 58.5033,93.5044 58.5033,92.2624 L54.0023,92.2624 C54.0023,93.5044 55.0093,94.5134 56.2523,94.5134 L56.2523,94.5134 Z M60.7523,90.0124 C59.5093,90.0124 58.5023,91.0194 58.5023,92.2634 L63.0023,92.2634 C63.0023,91.0194 61.9963,90.0124 60.7523,90.0124 L60.7523,90.0124 Z M60.7523,103.5024 C59.5093,103.5024 58.5023,104.5104 58.5023,105.7524 L63.0023,105.7524 C63.0023,104.5104 61.9963,103.5024 60.7523,103.5024 L60.7523,103.5024 Z M54.0023,105.7524 C54.0023,106.9944 55.0083,108.0024 56.2523,108.0024 C57.4943,108.0024 58.5023,106.9944 58.5023,105.7524 L54.0023,105.7524 Z M56.2523,103.5134 C57.4943,103.5134 58.5033,102.5054 58.5033,101.2634 L54.0023,101.2634 C54.0023,102.5054 55.0093,103.5134 56.2523,103.5134 L56.2523,103.5134 Z M60.7523,99.0134 C59.5093,99.0134 58.5023,100.0194 58.5023,101.2634 L63.0023,101.2634 C63.0023,100.0194 61.9963,99.0134 60.7523,99.0134 L60.7523,99.0134 Z M60.7523,112.4974 C59.5093,112.4974 58.5023,113.5064 58.5023,114.7484 L63.0023,114.7484 C63.0023,113.5064 61.9963,112.4974 60.7523,112.4974 L60.7523,112.4974 Z M54.0023,114.7484 C54.0023,115.9894 55.0083,116.9984 56.2523,116.9984 C57.4943,116.9984 58.5023,115.9894 58.5023,114.7484 L54.0023,114.7484 Z M56.2523,112.5094 C57.4943,112.5094 58.5033,111.5004 58.5033,110.2594 L54.0023,110.2594 C54.0023,111.5004 55.0093,112.5094 56.2523,112.5094 L56.2523,112.5094 Z M60.7523,108.0084 C59.5093,108.0084 58.5023,109.0154 58.5023,110.2594 L63.0023,110.2594 C63.0023,109.0154 61.9963,108.0084 60.7523,108.0084 L60.7523,108.0084 Z M78.7543,112.4924 C77.5103,112.4924 76.5033,113.4994 76.5033,114.7424 L81.0043,114.7424 C81.0043,113.4994 79.9953,112.4924 78.7543,112.4924 L78.7543,112.4924 Z M72.0033,114.7424 C72.0033,115.9844 73.0113,116.9934 74.2533,116.9934 C75.4963,116.9934 76.5033,115.9844 76.5033,114.7424 L72.0033,114.7424 Z M74.2543,112.5034 C75.4963,112.5034 76.5043,111.4944 76.5043,110.2524 L72.0043,110.2524 C72.0043,111.4944 73.0103,112.5034 74.2543,112.5034 L74.2543,112.5034 Z M78.7543,108.0024 C77.5103,108.0024 76.5033,109.0114 76.5033,110.2524 L81.0043,110.2524 C81.0043,109.0114 79.9953,108.0024 78.7543,108.0024 L78.7543,108.0024 Z M69.7533,112.4924 C68.5093,112.4924 67.5023,113.4994 67.5023,114.7424 L72.0033,114.7424 C72.0033,113.4994 70.9943,112.4924 69.7533,112.4924 L69.7533,112.4924 Z M63.0023,114.7424 C63.0023,115.9844 64.0103,116.9934 65.2523,116.9934 C66.4963,116.9934 67.5023,115.9844 67.5023,114.7424 L63.0023,114.7424 Z M65.2533,112.5034 C66.4953,112.5034 67.5033,111.4944 67.5033,110.2524 L63.0033,110.2524 C63.0033,111.4944 64.0093,112.5034 65.2533,112.5034 L65.2533,112.5034 Z M69.7533,108.0024 C68.5093,108.0024 67.5023,109.0114 67.5023,110.2524 L72.0033,110.2524 C72.0033,109.0114 70.9943,108.0024 69.7533,108.0024 L69.7533,108.0024 Z M51.7513,112.4924 C50.5083,112.4924 49.5013,113.4994 49.5013,114.7424 L54.0023,114.7424 C54.0023,113.4994 52.9933,112.4924 51.7513,112.4924 L51.7513,112.4924 Z M45.0003,114.7424 C45.0003,115.9844 46.0093,116.9934 47.2513,116.9934 C48.4943,116.9934 49.5013,115.9844 49.5013,114.7424 L45.0003,114.7424 Z M47.2523,112.5034 C48.4943,112.5034 49.5023,111.4944 49.5023,110.2524 L45.0023,110.2524 C45.0023,111.4944 46.0083,112.5034 47.2523,112.5034 L47.2523,112.5034 Z M51.7513,108.0024 C50.5083,108.0024 49.5013,109.0114 49.5013,110.2524 L54.0023,110.2524 C54.0023,109.0114 52.9933,108.0024 51.7513,108.0024 L51.7513,108.0024 Z M42.7513,112.4924 C41.5073,112.4924 40.5013,113.4994 40.5013,114.7424 L45.0013,114.7424 C45.0013,113.4994 43.9953,112.4924 42.7513,112.4924 L42.7513,112.4924 Z M36.0003,114.7424 C36.0003,115.9844 37.0073,116.9934 38.2513,116.9934 C39.4923,116.9934 40.5013,115.9844 40.5013,114.7424 L36.0003,114.7424 Z M38.2513,112.5034 C39.4933,112.5034 40.5013,111.4944 40.5013,110.2524 L36.0013,110.2524 C36.0013,111.4944 37.0073,112.5034 38.2513,112.5034 L38.2513,112.5034 Z M42.7513,108.0024 C41.5073,108.0024 40.5013,109.0114 40.5013,110.2524 L45.0013,110.2524 C45.0013,109.0114 43.9953,108.0024 42.7513,108.0024 L42.7513,108.0024 Z M78.7543,4.4894 C77.5103,4.4894 76.5033,5.4964 76.5033,6.7394 L81.0043,6.7394 C81.0043,5.4964 79.9953,4.4894 78.7543,4.4894 L78.7543,4.4894 Z M72.0033,6.7394 C72.0033,7.9834 73.0113,8.9894 74.2533,8.9894 C75.4963,8.9894 76.5033,7.9834 76.5033,6.7394 L72.0033,6.7394 Z M74.2543,4.5004 C75.4963,4.5004 76.5043,3.4924 76.5043,2.2504 L72.0043,2.2504 C72.0043,3.4924 73.0103,4.5004 74.2543,4.5004 L74.2543,4.5004 Z M78.7543,0.0004 C77.5103,0.0004 76.5033,1.0064 76.5033,2.2504 L81.0043,2.2504 C81.0043,1.0064 79.9953,0.0004 78.7543,0.0004 L78.7543,0.0004 Z M69.7533,4.4894 C68.5093,4.4894 67.5023,5.4964 67.5023,6.7394 L72.0033,6.7394 C72.0033,5.4964 70.9943,4.4894 69.7533,4.4894 L69.7533,4.4894 Z M63.0023,6.7394 C63.0023,7.9834 64.0103,8.9894 65.2523,8.9894 C66.4963,8.9894 67.5023,7.9834 67.5023,6.7394 L63.0023,6.7394 Z M65.2533,4.5004 C66.4953,4.5004 67.5033,3.4924 67.5033,2.2504 L63.0033,2.2504 C63.0033,3.4924 64.0093,4.5004 65.2533,4.5004 L65.2533,4.5004 Z M69.7533,0.0004 C68.5093,0.0004 67.5023,1.0064 67.5023,2.2504 L72.0033,2.2504 C72.0033,1.0064 70.9943,0.0004 69.7533,0.0004 L69.7533,0.0004 Z M51.7513,4.4894 C50.5083,4.4894 49.5013,5.4964 49.5013,6.7394 L54.0023,6.7394 C54.0023,5.4964 52.9933,4.4894 51.7513,4.4894 L51.7513,4.4894 Z M45.0003,6.7394 C45.0003,7.9834 46.0093,8.9894 47.2513,8.9894 C48.4943,8.9894 49.5013,7.9834 49.5013,6.7394 L45.0003,6.7394 Z M47.2523,4.5004 C48.4943,4.5004 49.5023,3.4924 49.5023,2.2504 L45.0023,2.2504 C45.0023,3.4924 46.0083,4.5004 47.2523,4.5004 L47.2523,4.5004 Z M51.7513,0.0004 C50.5083,0.0004 49.5013,1.0064 49.5013,2.2504 L54.0023,2.2504 C54.0023,1.0064 52.9933,0.0004 51.7513,0.0004 L51.7513,0.0004 Z M42.7513,4.4894 C41.5073,4.4894 40.5013,5.4964 40.5013,6.7394 L45.0013,6.7394 C45.0013,5.4964 43.9953,4.4894 42.7513,4.4894 L42.7513,4.4894 Z M36.0003,6.7394 C36.0003,7.9834 37.0073,8.9894 38.2513,8.9894 C39.4923,8.9894 40.5013,7.9834 40.5013,6.7394 L36.0003,6.7394 Z M38.2513,4.5004 C39.4933,4.5004 40.5013,3.4924 40.5013,2.2504 L36.0013,2.2504 C36.0013,3.4924 37.0073,4.5004 38.2513,4.5004 L38.2513,4.5004 Z M42.7513,0.0004 C41.5073,0.0004 40.5013,1.0064 40.5013,2.2504 L45.0013,2.2504 C45.0013,1.0064 43.9953,0.0004 42.7513,0.0004 L42.7513,0.0004 Z M33.7503,4.4894 C32.5063,4.4894 31.5003,5.4964 31.5003,6.7394 L36.0003,6.7394 C36.0003,5.4964 34.9943,4.4894 33.7503,4.4894 L33.7503,4.4894 Z M27.0003,6.7394 C27.0003,7.9834 28.0083,8.9894 29.2503,8.9894 C30.4923,8.9894 31.5003,7.9834 31.5003,6.7394 L27.0003,6.7394 Z M29.2503,4.5004 C30.4923,4.5004 31.5013,3.4924 31.5013,2.2504 L27.0003,2.2504 C27.0003,3.4924 28.0073,4.5004 29.2503,4.5004 L29.2503,4.5004 Z M33.7503,0.0004 C32.5063,0.0004 31.5003,1.0064 31.5003,2.2504 L36.0003,2.2504 C36.0003,1.0064 34.9943,0.0004 33.7503,0.0004 L33.7503,0.0004 Z M33.7503,13.4904 C32.5063,13.4904 31.5003,14.4964 31.5003,15.7404 L36.0003,15.7404 C36.0003,14.4964 34.9943,13.4904 33.7503,13.4904 L33.7503,13.4904 Z M27.0003,15.7404 C27.0003,16.9844 28.0083,17.9904 29.2503,17.9904 C30.4923,17.9904 31.5003,16.9844 31.5003,15.7404 L27.0003,15.7404 Z M29.2503,13.5014 C30.4923,13.5014 31.5013,12.4924 31.5013,11.2504 L27.0003,11.2504 C27.0003,12.4924 28.0073,13.5014 29.2503,13.5014 L29.2503,13.5014 Z M33.7503,9.0004 C32.5063,9.0004 31.5003,10.0074 31.5003,11.2504 L36.0003,11.2504 C36.0003,10.0074 34.9943,9.0004 33.7503,9.0004 L33.7503,9.0004 Z M33.7503,22.4964 C32.5063,22.4964 31.5003,23.5034 31.5003,24.7464 L36.0003,24.7464 C36.0003,23.5034 34.9943,22.4964 33.7503,22.4964 L33.7503,22.4964 Z M27.0003,24.7464 C27.0003,25.9904 28.0083,26.9964 29.2503,26.9964 C30.4923,26.9964 31.5003,25.9904 31.5003,24.7464 L27.0003,24.7464 Z M29.2503,22.5074 C30.4923,22.5074 31.5013,21.4994 31.5013,20.2574 L27.0003,20.2574 C27.0003,21.4994 28.0073,22.5074 29.2503,22.5074 L29.2503,22.5074 Z M33.7503,18.0074 C32.5063,18.0074 31.5003,19.0134 31.5003,20.2574 L36.0003,20.2574 C36.0003,19.0134 34.9943,18.0074 33.7503,18.0074 L33.7503,18.0074 Z M33.7503,31.4974 C32.5063,31.4974 31.5003,32.5034 31.5003,33.7474 L36.0003,33.7474 C36.0003,32.5034 34.9943,31.4974 33.7503,31.4974 L33.7503,31.4974 Z M27.0003,33.7474 C27.0003,34.9914 28.0083,35.9974 29.2503,35.9974 C30.4923,35.9974 31.5003,34.9914 31.5003,33.7474 L27.0003,33.7474 Z M29.2503,31.5084 C30.4923,31.5084 31.5013,30.4994 31.5013,29.2574 L27.0003,29.2574 C27.0003,30.4994 28.0073,31.5084 29.2503,31.5084 L29.2503,31.5084 Z M33.7503,27.0074 C32.5063,27.0074 31.5003,28.0144 31.5003,29.2574 L36.0003,29.2574 C36.0003,28.0144 34.9943,27.0074 33.7503,27.0074 L33.7503,27.0074 Z M33.7503,40.4984 C32.5063,40.4984 31.5003,41.5064 31.5003,42.7484 L36.0003,42.7484 C36.0003,41.5064 34.9943,40.4984 33.7503,40.4984 L33.7503,40.4984 Z M27.0003,42.7484 C27.0003,43.9914 28.0083,44.9984 29.2503,44.9984 C30.4923,44.9984 31.5003,43.9914 31.5003,42.7484 L27.0003,42.7484 Z M29.2503,40.5094 C30.4923,40.5094 31.5013,39.5004 31.5013,38.2594 L27.0003,38.2594 C27.0003,39.5004 28.0073,40.5094 29.2503,40.5094 L29.2503,40.5094 Z M33.7503,36.0084 C32.5063,36.0084 31.5003,37.0144 31.5003,38.2584 L36.0003,38.2584 C36.0003,37.0144 34.9943,36.0084 33.7503,36.0084 L33.7503,36.0084 Z M33.7503,49.4984 C32.5063,49.4984 31.5003,50.5064 31.5003,51.7484 L36.0003,51.7484 C36.0003,50.5064 34.9943,49.4984 33.7503,49.4984 L33.7503,49.4984 Z M27.0003,51.7484 C27.0003,52.9924 28.0083,53.9984 29.2503,53.9984 C30.4923,53.9984 31.5003,52.9924 31.5003,51.7484 L27.0003,51.7484 Z M29.2503,49.5094 C30.4923,49.5094 31.5013,48.5014 31.5013,47.2594 L27.0003,47.2594 C27.0003,48.5014 28.0073,49.5094 29.2503,49.5094 L29.2503,49.5094 Z M33.7503,45.0094 C32.5063,45.0094 31.5003,46.0164 31.5003,47.2594 L36.0003,47.2594 C36.0003,46.0164 34.9943,45.0094 33.7503,45.0094 L33.7503,45.0094 Z M33.7503,58.4994 C32.5063,58.4994 31.5003,59.5074 31.5003,60.7494 L36.0003,60.7494 C36.0003,59.5074 34.9943,58.4994 33.7503,58.4994 L33.7503,58.4994 Z M27.0003,60.7494 C27.0003,61.9924 28.0083,62.9994 29.2503,62.9994 C30.4923,62.9994 31.5003,61.9924 31.5003,60.7494 L27.0003,60.7494 Z M29.2503,58.5104 C30.4923,58.5104 31.5013,57.5024 31.5013,56.2604 L27.0003,56.2604 C27.0003,57.5024 28.0073,58.5104 29.2503,58.5104 L29.2503,58.5104 Z M33.7503,54.0104 C32.5063,54.0104 31.5003,55.0164 31.5003,56.2604 L36.0003,56.2604 C36.0003,55.0164 34.9943,54.0104 33.7503,54.0104 L33.7503,54.0104 Z M33.7503,67.4994 C32.5063,67.4994 31.5003,68.5084 31.5003,69.7504 L36.0003,69.7504 C36.0003,68.5084 34.9943,67.4994 33.7503,67.4994 L33.7503,67.4994 Z M27.0003,69.7504 C27.0003,70.9934 28.0083,72.0004 29.2503,72.0004 C30.4923,72.0004 31.5003,70.9934 31.5003,69.7504 L27.0003,69.7504 Z M29.2503,67.5114 C30.4923,67.5114 31.5013,66.5024 31.5013,65.2604 L27.0003,65.2604 C27.0003,66.5024 28.0073,67.5114 29.2503,67.5114 L29.2503,67.5114 Z M33.7503,63.0104 C32.5063,63.0104 31.5003,64.0174 31.5003,65.2614 L36.0003,65.2614 C36.0003,64.0174 34.9943,63.0104 33.7503,63.0104 L33.7503,63.0104 Z M33.7503,76.4954 C32.5063,76.4954 31.5003,77.5014 31.5003,78.7454 L36.0003,78.7454 C36.0003,77.5014 34.9943,76.4954 33.7503,76.4954 L33.7503,76.4954 Z M27.0003,78.7454 C27.0003,79.9874 28.0083,80.9954 29.2503,80.9954 C30.4923,80.9954 31.5003,79.9874 31.5003,78.7454 L27.0003,78.7454 Z M29.2503,76.5054 C30.4923,76.5054 31.5013,75.4974 31.5013,74.2554 L27.0003,74.2554 C27.0003,75.4974 28.0073,76.5054 29.2503,76.5054 L29.2503,76.5054 Z M33.7503,72.0054 C32.5063,72.0054 31.5003,73.0134 31.5003,74.2554 L36.0003,74.2554 C36.0003,73.0134 34.9943,72.0054 33.7503,72.0054 L33.7503,72.0054 Z M33.7503,85.4954 C32.5063,85.4954 31.5003,86.5024 31.5003,87.7464 L36.0003,87.7464 C36.0003,86.5024 34.9943,85.4954 33.7503,85.4954 L33.7503,85.4954 Z M27.0003,87.7464 C27.0003,88.9874 28.0083,89.9964 29.2503,89.9964 C30.4923,89.9964 31.5003,88.9874 31.5003,87.7464 L27.0003,87.7464 Z M29.2503,85.5064 C30.4923,85.5064 31.5013,84.4974 31.5013,83.2554 L27.0003,83.2554 C27.0003,84.4974 28.0073,85.5064 29.2503,85.5064 L29.2503,85.5064 Z M33.7503,81.0054 C32.5063,81.0054 31.5003,82.0144 31.5003,83.2564 L36.0003,83.2564 C36.0003,82.0144 34.9943,81.0054 33.7503,81.0054 L33.7503,81.0054 Z M33.7503,94.5014 C32.5063,94.5014 31.5003,95.5104 31.5003,96.7514 L36.0003,96.7514 C36.0003,95.5104 34.9943,94.5014 33.7503,94.5014 L33.7503,94.5014 Z M27.0003,96.7524 C27.0003,97.9934 28.0083,99.0024 29.2503,99.0024 C30.4923,99.0024 31.5003,97.9934 31.5003,96.7524 L27.0003,96.7524 Z M29.2503,94.5134 C30.4923,94.5134 31.5013,93.5044 31.5013,92.2624 L27.0003,92.2624 C27.0003,93.5044 28.0073,94.5134 29.2503,94.5134 L29.2503,94.5134 Z M33.7503,90.0124 C32.5063,90.0124 31.5003,91.0194 31.5003,92.2634 L36.0003,92.2634 C36.0003,91.0194 34.9943,90.0124 33.7503,90.0124 L33.7503,90.0124 Z M33.7503,103.5024 C32.5063,103.5024 31.5003,104.5104 31.5003,105.7524 L36.0003,105.7524 C36.0003,104.5104 34.9943,103.5024 33.7503,103.5024 L33.7503,103.5024 Z M27.0003,105.7524 C27.0003,106.9944 28.0083,108.0024 29.2503,108.0024 C30.4923,108.0024 31.5003,106.9944 31.5003,105.7524 L27.0003,105.7524 Z M29.2503,103.5134 C30.4923,103.5134 31.5013,102.5054 31.5013,101.2634 L27.0003,101.2634 C27.0003,102.5054 28.0073,103.5134 29.2503,103.5134 L29.2503,103.5134 Z M33.7503,99.0134 C32.5063,99.0134 31.5003,100.0194 31.5003,101.2634 L36.0003,101.2634 C36.0003,100.0194 34.9943,99.0134 33.7503,99.0134 L33.7503,99.0134 Z M33.7503,112.4974 C32.5063,112.4974 31.5003,113.5064 31.5003,114.7484 L36.0003,114.7484 C36.0003,113.5064 34.9943,112.4974 33.7503,112.4974 L33.7503,112.4974 Z M27.0003,114.7484 C27.0003,115.9894 28.0083,116.9984 29.2503,116.9984 C30.4923,116.9984 31.5003,115.9894 31.5003,114.7484 L27.0003,114.7484 Z M29.2503,112.5094 C30.4923,112.5094 31.5013,111.5004 31.5013,110.2594 L27.0003,110.2594 C27.0003,111.5004 28.0073,112.5094 29.2503,112.5094 L29.2503,112.5094 Z M33.7503,108.0084 C32.5063,108.0084 31.5003,109.0154 31.5003,110.2594 L36.0003,110.2594 C36.0003,109.0154 34.9943,108.0084 33.7503,108.0084 L33.7503,108.0084 Z M87.7543,121.4984 C86.5113,121.4984 85.5043,122.5064 85.5043,123.7484 L90.0053,123.7484 C90.0053,122.5064 88.9983,121.4984 87.7543,121.4984 L87.7543,121.4984 Z M81.0043,123.7484 C81.0043,124.9904 82.0113,125.9984 83.2543,125.9984 C84.4963,125.9984 85.5053,124.9904 85.5053,123.7484 L81.0043,123.7484 Z M83.2553,121.5094 C84.4963,121.5094 85.5053,120.5014 85.5053,119.2594 L81.0043,119.2594 C81.0043,120.5014 82.0113,121.5094 83.2553,121.5094 L83.2553,121.5094 Z M87.7543,117.0094 C86.5113,117.0094 85.5043,118.0164 85.5043,119.2594 L90.0053,119.2594 C90.0053,118.0164 88.9983,117.0094 87.7543,117.0094 L87.7543,117.0094 Z M87.7543,130.4994 C86.5113,130.4994 85.5043,131.5054 85.5043,132.7494 L90.0053,132.7494 C90.0053,131.5054 88.9983,130.4994 87.7543,130.4994 L87.7543,130.4994 Z M81.0043,132.7494 C81.0043,133.9914 82.0113,134.9994 83.2543,134.9994 C84.4963,134.9994 85.5053,133.9914 85.5053,132.7494 L81.0043,132.7494 Z M83.2553,130.5094 C84.4963,130.5094 85.5053,129.5014 85.5053,128.2594 L81.0043,128.2594 C81.0043,129.5014 82.0113,130.5094 83.2553,130.5094 L83.2553,130.5094 Z M87.7543,126.0094 C86.5113,126.0094 85.5043,127.0174 85.5043,128.2594 L90.0053,128.2594 C90.0053,127.0174 88.9983,126.0094 87.7543,126.0094 L87.7543,126.0094 Z M87.7543,139.4994 C86.5113,139.4994 85.5043,140.5064 85.5043,141.7494 L90.0053,141.7494 C90.0053,140.5064 88.9983,139.4994 87.7543,139.4994 L87.7543,139.4994 Z M81.0043,141.7494 C81.0043,142.9914 82.0113,144.0004 83.2543,144.0004 C84.4963,144.0004 85.5053,142.9914 85.5053,141.7494 L81.0043,141.7494 Z M83.2553,139.5104 C84.4963,139.5104 85.5053,138.5014 85.5053,137.2604 L81.0043,137.2604 C81.0043,138.5014 82.0113,139.5104 83.2553,139.5104 L83.2553,139.5104 Z M87.7543,135.0094 C86.5113,135.0094 85.5043,136.0184 85.5043,137.2604 L90.0053,137.2604 C90.0053,136.0184 88.9983,135.0094 87.7543,135.0094 L87.7543,135.0094 Z M105.7573,121.4984 C104.5133,121.4984 103.5073,122.5064 103.5073,123.7484 L108.0073,123.7484 C108.0073,122.5064 106.9993,121.4984 105.7573,121.4984 L105.7573,121.4984 Z M99.0063,123.7484 C99.0063,124.9904 100.0153,125.9984 101.2563,125.9984 C102.5003,125.9984 103.5063,124.9904 103.5063,123.7484 L99.0063,123.7484 Z M101.2573,121.5094 C102.4993,121.5094 103.5073,120.5014 103.5073,119.2594 L99.0073,119.2594 C99.0073,120.5014 100.0143,121.5094 101.2573,121.5094 L101.2573,121.5094 Z M105.7573,117.0094 C104.5133,117.0094 103.5073,118.0164 103.5073,119.2594 L108.0073,119.2594 C108.0073,118.0164 106.9993,117.0094 105.7573,117.0094 L105.7573,117.0094 Z M105.7573,130.4994 C104.5133,130.4994 103.5073,131.5054 103.5073,132.7494 L108.0073,132.7494 C108.0073,131.5054 106.9993,130.4994 105.7573,130.4994 L105.7573,130.4994 Z M99.0063,132.7494 C99.0063,133.9914 100.0153,134.9994 101.2563,134.9994 C102.5003,134.9994 103.5063,133.9914 103.5063,132.7494 L99.0063,132.7494 Z M101.2573,130.5094 C102.4993,130.5094 103.5073,129.5014 103.5073,128.2594 L99.0073,128.2594 C99.0073,129.5014 100.0143,130.5094 101.2573,130.5094 L101.2573,130.5094 Z M105.7573,126.0094 C104.5133,126.0094 103.5073,127.0174 103.5073,128.2594 L108.0073,128.2594 C108.0073,127.0174 106.9993,126.0094 105.7573,126.0094 L105.7573,126.0094 Z M96.7563,121.4984 C95.5123,121.4984 94.5063,122.5064 94.5063,123.7484 L99.0063,123.7484 C99.0063,122.5064 97.9983,121.4984 96.7563,121.4984 L96.7563,121.4984 Z M90.0053,123.7484 C90.0053,124.9904 91.0133,125.9984 92.2553,125.9984 C93.4983,125.9984 94.5053,124.9904 94.5053,123.7484 L90.0053,123.7484 Z M92.2563,121.5094 C93.4983,121.5094 94.5063,120.5014 94.5063,119.2594 L90.0063,119.2594 C90.0063,120.5014 91.0123,121.5094 92.2563,121.5094 L92.2563,121.5094 Z M96.7563,117.0094 C95.5123,117.0094 94.5063,118.0164 94.5063,119.2594 L99.0063,119.2594 C99.0063,118.0164 97.9983,117.0094 96.7563,117.0094 L96.7563,117.0094 Z M96.7563,130.4994 C95.5123,130.4994 94.5063,131.5054 94.5063,132.7494 L99.0063,132.7494 C99.0063,131.5054 97.9983,130.4994 96.7563,130.4994 L96.7563,130.4994 Z M90.0053,132.7494 C90.0053,133.9914 91.0133,134.9994 92.2553,134.9994 C93.4983,134.9994 94.5053,133.9914 94.5053,132.7494 L90.0053,132.7494 Z M92.2563,130.5094 C93.4983,130.5094 94.5063,129.5014 94.5063,128.2594 L90.0063,128.2594 C90.0063,129.5014 91.0123,130.5094 92.2563,130.5094 L92.2563,130.5094 Z M96.7563,126.0094 C95.5123,126.0094 94.5063,127.0174 94.5063,128.2594 L99.0063,128.2594 C99.0063,127.0174 97.9983,126.0094 96.7563,126.0094 L96.7563,126.0094 Z M51.7523,121.4984 C50.5083,121.4984 49.5023,122.5064 49.5023,123.7484 L54.0023,123.7484 C54.0023,122.5064 52.9943,121.4984 51.7523,121.4984 L51.7523,121.4984 Z M45.0013,123.7484 C45.0013,124.9904 46.0093,125.9984 47.2513,125.9984 C48.4953,125.9984 49.5013,124.9904 49.5013,123.7484 L45.0013,123.7484 Z M47.2523,121.5094 C48.4943,121.5094 49.5023,120.5014 49.5023,119.2594 L45.0023,119.2594 C45.0023,120.5014 46.0083,121.5094 47.2523,121.5094 L47.2523,121.5094 Z M51.7523,117.0094 C50.5083,117.0094 49.5023,118.0164 49.5023,119.2594 L54.0023,119.2594 C54.0023,118.0164 52.9943,117.0094 51.7523,117.0094 L51.7523,117.0094 Z M51.7523,130.4994 C50.5083,130.4994 49.5023,131.5054 49.5023,132.7494 L54.0023,132.7494 C54.0023,131.5054 52.9943,130.4994 51.7523,130.4994 L51.7523,130.4994 Z M45.0013,132.7494 C45.0013,133.9914 46.0093,134.9994 47.2513,134.9994 C48.4953,134.9994 49.5013,133.9914 49.5013,132.7494 L45.0013,132.7494 Z M47.2523,130.5094 C48.4943,130.5094 49.5023,129.5014 49.5023,128.2594 L45.0023,128.2594 C45.0023,129.5014 46.0083,130.5094 47.2523,130.5094 L47.2523,130.5094 Z M51.7523,126.0094 C50.5083,126.0094 49.5023,127.0174 49.5023,128.2594 L54.0023,128.2594 C54.0023,127.0174 52.9943,126.0094 51.7523,126.0094 L51.7523,126.0094 Z M51.7523,139.4994 C50.5083,139.4994 49.5023,140.5064 49.5023,141.7494 L54.0023,141.7494 C54.0023,140.5064 52.9943,139.4994 51.7523,139.4994 L51.7523,139.4994 Z M45.0013,141.7494 C45.0013,142.9914 46.0093,144.0004 47.2513,144.0004 C48.4953,144.0004 49.5013,142.9914 49.5013,141.7494 L45.0013,141.7494 Z M47.2523,139.5104 C48.4943,139.5104 49.5023,138.5014 49.5023,137.2604 L45.0023,137.2604 C45.0023,138.5014 46.0083,139.5104 47.2523,139.5104 L47.2523,139.5104 Z M51.7523,135.0094 C50.5083,135.0094 49.5023,136.0184 49.5023,137.2604 L54.0023,137.2604 C54.0023,136.0184 52.9943,135.0094 51.7523,135.0094 L51.7523,135.0094 Z M42.7513,121.4984 C41.5073,121.4984 40.5013,122.5064 40.5013,123.7484 L45.0013,123.7484 C45.0013,122.5064 43.9933,121.4984 42.7513,121.4984 L42.7513,121.4984 Z M36.0003,123.7484 C36.0003,124.9904 37.0083,125.9984 38.2503,125.9984 C39.4943,125.9984 40.5003,124.9904 40.5003,123.7484 L36.0003,123.7484 Z M38.2513,121.5094 C39.4933,121.5094 40.5013,120.5014 40.5013,119.2594 L36.0013,119.2594 C36.0013,120.5014 37.0073,121.5094 38.2513,121.5094 L38.2513,121.5094 Z M42.7513,117.0094 C41.5073,117.0094 40.5013,118.0164 40.5013,119.2594 L45.0013,119.2594 C45.0013,118.0164 43.9933,117.0094 42.7513,117.0094 L42.7513,117.0094 Z M42.7513,130.4994 C41.5073,130.4994 40.5013,131.5054 40.5013,132.7494 L45.0013,132.7494 C45.0013,131.5054 43.9933,130.4994 42.7513,130.4994 L42.7513,130.4994 Z M36.0003,132.7494 C36.0003,133.9914 37.0083,134.9994 38.2503,134.9994 C39.4943,134.9994 40.5003,133.9914 40.5003,132.7494 L36.0003,132.7494 Z M38.2513,130.5094 C39.4933,130.5094 40.5013,129.5014 40.5013,128.2594 L36.0013,128.2594 C36.0013,129.5014 37.0073,130.5094 38.2513,130.5094 L38.2513,130.5094 Z M42.7513,126.0094 C41.5073,126.0094 40.5013,127.0174 40.5013,128.2594 L45.0013,128.2594 C45.0013,127.0174 43.9933,126.0094 42.7513,126.0094 L42.7513,126.0094 Z M42.7513,139.4994 C41.5073,139.4994 40.5013,140.5064 40.5013,141.7494 L45.0013,141.7494 C45.0013,140.5064 43.9933,139.4994 42.7513,139.4994 L42.7513,139.4994 Z M36.0003,141.7494 C36.0003,142.9914 37.0083,144.0004 38.2503,144.0004 C39.4943,144.0004 40.5003,142.9914 40.5003,141.7494 L36.0003,141.7494 Z M38.2513,139.5104 C39.4933,139.5104 40.5013,138.5014 40.5013,137.2604 L36.0013,137.2604 C36.0013,138.5014 37.0073,139.5104 38.2513,139.5104 L38.2513,139.5104 Z M42.7513,135.0094 C41.5073,135.0094 40.5013,136.0184 40.5013,137.2604 L45.0013,137.2604 C45.0013,136.0184 43.9933,135.0094 42.7513,135.0094 L42.7513,135.0094 Z M33.7503,121.4984 C32.5063,121.4984 31.5003,122.5064 31.5003,123.7484 L36.0003,123.7484 C36.0003,122.5064 34.9943,121.4984 33.7503,121.4984 L33.7503,121.4984 Z M27.0003,123.7484 C27.0003,124.9904 28.0083,125.9984 29.2503,125.9984 C30.4923,125.9984 31.5003,124.9904 31.5003,123.7484 L27.0003,123.7484 Z M29.2503,121.5094 C30.4923,121.5094 31.5013,120.5014 31.5013,119.2594 L27.0003,119.2594 C27.0003,120.5014 28.0073,121.5094 29.2503,121.5094 L29.2503,121.5094 Z M33.7503,117.0094 C32.5063,117.0094 31.5003,118.0164 31.5003,119.2594 L36.0003,119.2594 C36.0003,118.0164 34.9943,117.0094 33.7503,117.0094 L33.7503,117.0094 Z M33.7503,130.4994 C32.5063,130.4994 31.5003,131.5054 31.5003,132.7494 L36.0003,132.7494 C36.0003,131.5054 34.9943,130.4994 33.7503,130.4994 L33.7503,130.4994 Z M27.0003,132.7494 C27.0003,133.9914 28.0083,134.9994 29.2503,134.9994 C30.4923,134.9994 31.5003,133.9914 31.5003,132.7494 L27.0003,132.7494 Z M29.2503,130.5094 C30.4923,130.5094 31.5013,129.5014 31.5013,128.2594 L27.0003,128.2594 C27.0003,129.5014 28.0073,130.5094 29.2503,130.5094 L29.2503,130.5094 Z M33.7503,126.0094 C32.5063,126.0094 31.5003,127.0174 31.5003,128.2594 L36.0003,128.2594 C36.0003,127.0174 34.9943,126.0094 33.7503,126.0094 L33.7503,126.0094 Z M33.7503,139.4994 C32.5063,139.4994 31.5003,140.5064 31.5003,141.7494 L36.0003,141.7494 C36.0003,140.5064 34.9943,139.4994 33.7503,139.4994 L33.7503,139.4994 Z M27.0003,141.7494 C27.0003,142.9914 28.0083,144.0004 29.2503,144.0004 C30.4923,144.0004 31.5003,142.9914 31.5003,141.7494 L27.0003,141.7494 Z M29.2503,139.5104 C30.4923,139.5104 31.5013,138.5014 31.5013,137.2604 L27.0003,137.2604 C27.0003,138.5014 28.0073,139.5104 29.2503,139.5104 L29.2503,139.5104 Z M33.7503,135.0094 C34.9943,135.0094 36.0003,136.0184 36.0003,137.2604 L31.5003,137.2604 C31.5003,136.0184 32.5063,135.0094 33.7503,135.0094 L33.7503,135.0094 Z"></path>
            </g>
        </g>
    </g>
</svg>