<?xml version="1.0" encoding="UTF-8" standalone="no"?>
<svg width="144px" height="199px" viewBox="0 0 144 199" version="1.1" xmlns="http://www.w3.org/2000/svg" xmlns:xlink="http://www.w3.org/1999/xlink">
    <!-- Generator: Sketch 39.1 (31720) - http://www.bohemiancoding.com/sketch -->
    <title>navy</title>
    <desc>Created with Sketch.</desc>
    <defs></defs>
    <g id="Symbols" stroke="none" stroke-width="1" fill="none" fill-rule="evenodd">
        <g id="box-areas" transform="translate(-328.000000, -160.000000)">
            <g id="navy" transform="translate(328.000000, 160.000000)">
                <path d="M141.7558,134.9828 C140.5118,134.9828 139.5058,135.9898 139.5058,137.2328 L144.0058,137.2328 C144.0058,135.9898 142.9978,134.9828 141.7558,134.9828 L141.7558,134.9828 Z M135.0058,137.2328 C135.0058,138.4748 136.0128,139.4828 137.2558,139.4828 C138.4978,139.4828 139.5058,138.4748 139.5058,137.2328 L135.0058,137.2328 Z M137.2558,134.9938 C138.4978,134.9938 139.5058,133.9858 139.5058,132.7438 L135.0058,132.7438 C135.0058,133.9858 136.0128,134.9938 137.2558,134.9938 L137.2558,134.9938 Z M141.7558,130.4938 C140.5118,130.4938 139.5058,131.4998 139.5058,132.7438 L144.0058,132.7438 C144.0058,131.4998 142.9978,130.4938 141.7558,130.4938 L141.7558,130.4938 Z M132.7558,139.4998 C131.5118,139.4998 130.5048,140.5058 130.5048,141.7498 L135.0058,141.7498 C135.0058,140.5058 133.9988,139.4998 132.7558,139.4998 L132.7558,139.4998 Z M126.0048,141.7498 C126.0048,142.9938 127.0138,143.9998 128.2558,143.9998 C129.4968,143.9998 130.5058,142.9938 130.5058,141.7498 L126.0048,141.7498 Z M128.2568,139.5108 C129.4988,139.5108 130.5068,138.5018 130.5068,137.2598 L126.0048,137.2598 C126.0048,138.5018 127.0128,139.5108 128.2568,139.5108 L128.2568,139.5108 Z M132.7558,135.0098 C131.5138,135.0098 130.5048,136.0168 130.5048,137.2608 L135.0058,137.2608 C135.0058,136.0168 133.9988,135.0098 132.7558,135.0098 L132.7558,135.0098 Z M123.7548,134.9828 C122.5118,134.9828 121.5048,135.9898 121.5048,137.2328 L126.0048,137.2328 C126.0048,135.9898 124.9968,134.9828 123.7548,134.9828 L123.7548,134.9828 Z M117.0048,137.2328 C117.0048,138.4748 118.0118,139.4828 119.2548,139.4828 C120.4968,139.4828 121.5058,138.4748 121.5058,137.2328 L117.0048,137.2328 Z M119.2558,134.9938 C120.4978,134.9938 121.5058,133.9858 121.5058,132.7438 L117.0058,132.7438 C117.0058,133.9858 118.0118,134.9938 119.2558,134.9938 L119.2558,134.9938 Z M123.7548,130.4938 C122.5118,130.4938 121.5048,131.4998 121.5048,132.7438 L126.0048,132.7438 C126.0048,131.4998 124.9968,130.4938 123.7548,130.4938 L123.7548,130.4938 Z M114.7548,139.4998 C113.5118,139.4998 112.5048,140.5058 112.5048,141.7498 L117.0048,141.7498 C117.0048,140.5058 115.9988,139.4998 114.7548,139.4998 L114.7548,139.4998 Z M108.0048,141.7498 C108.0048,142.9938 109.0128,143.9998 110.2548,143.9998 C111.4968,143.9998 112.5048,142.9938 112.5048,141.7498 L108.0048,141.7498 Z M110.2558,139.5108 C111.4978,139.5108 112.5058,138.5018 112.5058,137.2598 L108.0038,137.2598 C108.0038,138.5018 109.0118,139.5108 110.2558,139.5108 L110.2558,139.5108 Z M114.7548,135.0098 C113.5138,135.0098 112.5048,136.0168 112.5048,137.2608 L117.0048,137.2608 C117.0048,136.0168 115.9988,135.0098 114.7548,135.0098 L114.7548,135.0098 Z M105.7548,134.9828 C104.5108,134.9828 103.5048,135.9898 103.5048,137.2328 L108.0048,137.2328 C108.0048,135.9898 106.9968,134.9828 105.7548,134.9828 L105.7548,134.9828 Z M99.0038,137.2328 C99.0038,138.4748 100.0128,139.4828 101.2548,139.4828 C102.4958,139.4828 103.5048,138.4748 103.5048,137.2328 L99.0038,137.2328 Z M101.2548,134.9938 C102.4968,134.9938 103.5048,133.9858 103.5048,132.7438 L99.0048,132.7438 C99.0048,133.9858 100.0108,134.9938 101.2548,134.9938 L101.2548,134.9938 Z M105.7548,130.4938 C104.5108,130.4938 103.5048,131.4998 103.5048,132.7438 L108.0048,132.7438 C108.0048,131.4998 106.9968,130.4938 105.7548,130.4938 L105.7548,130.4938 Z M96.7538,139.4998 C95.5108,139.4998 94.5038,140.5058 94.5038,141.7498 L99.0048,141.7498 C99.0048,140.5058 97.9978,139.4998 96.7538,139.4998 L96.7538,139.4998 Z M90.0038,141.7498 C90.0038,142.9938 91.0128,143.9998 92.2548,143.9998 C93.4958,143.9998 94.5048,142.9938 94.5048,141.7498 L90.0038,141.7498 Z M92.2548,139.5108 C93.4968,139.5108 94.5048,138.5018 94.5048,137.2598 L90.0048,137.2598 C90.0048,138.5018 91.0108,139.5108 92.2548,139.5108 L92.2548,139.5108 Z M96.7538,135.0098 C95.5128,135.0098 94.5038,136.0168 94.5038,137.2608 L99.0048,137.2608 C99.0048,136.0168 97.9978,135.0098 96.7538,135.0098 L96.7538,135.0098 Z M87.7538,134.9828 C86.5098,134.9828 85.5038,135.9898 85.5038,137.2328 L90.0038,137.2328 C90.0038,135.9898 88.9958,134.9828 87.7538,134.9828 L87.7538,134.9828 Z M81.0038,137.2328 C81.0038,138.4748 82.0108,139.4828 83.2538,139.4828 C84.4958,139.4828 85.5038,138.4748 85.5038,137.2328 L81.0038,137.2328 Z M83.2538,134.9938 C84.4958,134.9938 85.5038,133.9858 85.5038,132.7438 L81.0038,132.7438 C81.0038,133.9858 82.0108,134.9938 83.2538,134.9938 L83.2538,134.9938 Z M87.7538,130.4938 C86.5098,130.4938 85.5038,131.4998 85.5038,132.7438 L90.0038,132.7438 C90.0038,131.4998 88.9958,130.4938 87.7538,130.4938 L87.7538,130.4938 Z M78.7538,139.4998 C77.5098,139.4998 76.5038,140.5058 76.5038,141.7498 L81.0038,141.7498 C81.0038,140.5058 79.9968,139.4998 78.7538,139.4998 L78.7538,139.4998 Z M72.0038,141.7498 C72.0038,142.9938 73.0118,143.9998 74.2538,143.9998 C75.4958,143.9998 76.5038,142.9938 76.5038,141.7498 L72.0038,141.7498 Z M74.2548,139.5108 C75.4968,139.5108 76.5048,138.5018 76.5048,137.2598 L72.0028,137.2598 C72.0028,138.5018 73.0108,139.5108 74.2548,139.5108 L74.2548,139.5108 Z M78.7538,135.0098 C77.5118,135.0098 76.5038,136.0168 76.5038,137.2608 L81.0038,137.2608 C81.0038,136.0168 79.9968,135.0098 78.7538,135.0098 L78.7538,135.0098 Z M69.7538,134.9828 C68.5098,134.9828 67.5038,135.9898 67.5038,137.2328 L72.0038,137.2328 C72.0038,135.9898 70.9958,134.9828 69.7538,134.9828 L69.7538,134.9828 Z M63.0028,137.2328 C63.0028,138.4748 64.0098,139.4828 65.2528,139.4828 C66.4948,139.4828 67.5038,138.4748 67.5038,137.2328 L63.0028,137.2328 Z M65.2538,134.9938 C66.4958,134.9938 67.5038,133.9858 67.5038,132.7438 L63.0038,132.7438 C63.0038,133.9858 64.0098,134.9938 65.2538,134.9938 L65.2538,134.9938 Z M69.7538,130.4938 C68.5098,130.4938 67.5038,131.4998 67.5038,132.7438 L72.0038,132.7438 C72.0038,131.4998 70.9958,130.4938 69.7538,130.4938 L69.7538,130.4938 Z M60.7528,139.4998 C59.5098,139.4998 58.5028,140.5058 58.5028,141.7498 L63.0038,141.7498 C63.0038,140.5058 61.9968,139.4998 60.7528,139.4998 L60.7528,139.4998 Z M54.0028,141.7498 C54.0028,142.9938 55.0108,143.9998 56.2528,143.9998 C57.4948,143.9998 58.5028,142.9938 58.5028,141.7498 L54.0028,141.7498 Z M56.2538,139.5108 C57.4958,139.5108 58.5038,138.5018 58.5038,137.2598 L54.0018,137.2598 C54.0018,138.5018 55.0098,139.5108 56.2538,139.5108 L56.2538,139.5108 Z M60.7528,135.0098 C59.5118,135.0098 58.5028,136.0168 58.5028,137.2608 L63.0038,137.2608 C63.0038,136.0168 61.9968,135.0098 60.7528,135.0098 L60.7528,135.0098 Z M96.7538,85.5028 C95.5108,85.5028 94.5038,86.5088 94.5038,87.7528 L99.0048,87.7528 C99.0048,86.5088 97.9958,85.5028 96.7538,85.5028 L96.7538,85.5028 Z M90.0038,87.7528 C90.0038,88.9958 91.0108,90.0028 92.2548,90.0028 C93.4958,90.0028 94.5048,88.9958 94.5048,87.7528 L90.0038,87.7528 Z M92.2548,85.5128 C93.4968,85.5128 94.5048,84.5048 94.5048,83.2628 L90.0048,83.2628 C90.0048,84.5048 91.0108,85.5128 92.2548,85.5128 L92.2548,85.5128 Z M96.7538,81.0128 C95.5108,81.0128 94.5038,82.0198 94.5038,83.2638 L99.0048,83.2638 C99.0048,82.0198 97.9958,81.0128 96.7538,81.0128 L96.7538,81.0128 Z M78.7538,85.5028 C77.5098,85.5028 76.5038,86.5088 76.5038,87.7528 L81.0038,87.7528 C81.0038,86.5088 79.9958,85.5028 78.7538,85.5028 L78.7538,85.5028 Z M72.0038,87.7528 C72.0038,88.9958 73.0098,90.0028 74.2538,90.0028 C75.4958,90.0028 76.5038,88.9958 76.5038,87.7528 L72.0038,87.7528 Z M74.2538,85.5128 C75.4958,85.5128 76.5048,84.5048 76.5048,83.2628 L72.0038,83.2628 C72.0038,84.5048 73.0108,85.5128 74.2538,85.5128 L74.2538,85.5128 Z M78.7538,81.0128 C77.5098,81.0128 76.5038,82.0198 76.5038,83.2638 L81.0038,83.2638 C81.0038,82.0198 79.9958,81.0128 78.7538,81.0128 L78.7538,81.0128 Z M87.7538,85.5028 C86.5098,85.5028 85.5038,86.5088 85.5038,87.7528 L90.0038,87.7528 C90.0038,86.5088 88.9968,85.5028 87.7538,85.5028 L87.7538,85.5028 Z M81.0028,87.7528 C81.0028,88.9958 82.0118,90.0028 83.2528,90.0028 C84.4948,90.0028 85.5038,88.9958 85.5038,87.7528 L81.0028,87.7528 Z M83.2538,85.5128 C84.4958,85.5128 85.5038,84.5048 85.5038,83.2628 L81.0038,83.2628 C81.0038,84.5048 82.0098,85.5128 83.2538,85.5128 L83.2538,85.5128 Z M87.7538,81.0128 C86.5098,81.0128 85.5038,82.0198 85.5038,83.2638 L90.0038,83.2638 C90.0038,82.0198 88.9968,81.0128 87.7538,81.0128 L87.7538,81.0128 Z M60.7538,85.5028 C59.5098,85.5028 58.5038,86.5088 58.5038,87.7528 L63.0038,87.7528 C63.0038,86.5088 61.9968,85.5028 60.7538,85.5028 L60.7538,85.5028 Z M54.0028,87.7528 C54.0028,88.9958 55.0108,90.0028 56.2528,90.0028 C57.4968,90.0028 58.5028,88.9958 58.5028,87.7528 L54.0028,87.7528 Z M56.2538,85.5128 C57.4958,85.5128 58.5038,84.5048 58.5038,83.2628 L54.0038,83.2628 C54.0038,84.5048 55.0098,85.5128 56.2538,85.5128 L56.2538,85.5128 Z M60.7538,81.0128 C59.5098,81.0128 58.5038,82.0198 58.5038,83.2638 L63.0038,83.2638 C63.0038,82.0198 61.9968,81.0128 60.7538,81.0128 L60.7538,81.0128 Z M69.7538,85.5028 C68.5098,85.5028 67.5038,86.5088 67.5038,87.7528 L72.0038,87.7528 C72.0038,86.5088 70.9958,85.5028 69.7538,85.5028 L69.7538,85.5028 Z M63.0028,87.7528 C63.0028,88.9958 64.0098,90.0028 65.2528,90.0028 C66.4948,90.0028 67.5038,88.9958 67.5038,87.7528 L63.0028,87.7528 Z M65.2538,85.5128 C66.4958,85.5128 67.5038,84.5048 67.5038,83.2628 L63.0038,83.2628 C63.0038,84.5048 64.0098,85.5128 65.2538,85.5128 L65.2538,85.5128 Z M69.7538,81.0128 C68.5098,81.0128 67.5038,82.0198 67.5038,83.2638 L72.0038,83.2638 C72.0038,82.0198 70.9958,81.0128 69.7538,81.0128 L69.7538,81.0128 Z M51.7528,85.5028 C50.5088,85.5028 49.5028,86.5088 49.5028,87.7528 L54.0028,87.7528 C54.0028,86.5088 52.9948,85.5028 51.7528,85.5028 L51.7528,85.5028 Z M45.0028,87.7528 C45.0028,88.9958 46.0088,90.0028 47.2528,90.0028 C48.4948,90.0028 49.5028,88.9958 49.5028,87.7528 L45.0028,87.7528 Z M47.2528,85.5128 C48.4948,85.5128 49.5028,84.5048 49.5028,83.2628 L45.0028,83.2628 C45.0028,84.5048 46.0098,85.5128 47.2528,85.5128 L47.2528,85.5128 Z M51.7528,81.0128 C50.5088,81.0128 49.5028,82.0198 49.5028,83.2638 L54.0028,83.2638 C54.0028,82.0198 52.9948,81.0128 51.7528,81.0128 L51.7528,81.0128 Z M42.7528,76.4998 C41.5098,76.4998 40.5028,77.5058 40.5028,78.7498 L45.0038,78.7498 C45.0038,77.5058 43.9948,76.4998 42.7528,76.4998 L42.7528,76.4998 Z M36.0028,78.7498 C36.0028,79.9928 37.0088,80.9998 38.2528,80.9998 C39.4948,80.9998 40.5028,79.9928 40.5028,78.7498 L36.0028,78.7498 Z M38.2528,76.5108 C39.4948,76.5108 40.5028,75.5018 40.5028,74.2598 L36.0028,74.2598 C36.0028,75.5018 37.0108,76.5108 38.2528,76.5108 L38.2528,76.5108 Z M42.7528,72.0098 C41.5098,72.0098 40.5028,73.0168 40.5028,74.2608 L45.0038,74.2608 C45.0038,73.0168 43.9948,72.0098 42.7528,72.0098 L42.7528,72.0098 Z M33.7528,76.4968 C32.5088,76.4968 31.5018,77.5038 31.5018,78.7468 L36.0028,78.7468 C36.0028,77.5038 34.9958,76.4968 33.7528,76.4968 L33.7528,76.4968 Z M27.0018,78.7468 C27.0018,79.9908 28.0108,80.9968 29.2518,80.9968 C30.4958,80.9968 31.5028,79.9908 31.5028,78.7468 L27.0018,78.7468 Z M29.2528,76.5078 C30.4948,76.5078 31.5028,75.4998 31.5028,74.2578 L27.0028,74.2578 C27.0028,75.4998 28.0098,76.5078 29.2528,76.5078 L29.2528,76.5078 Z M33.7528,72.0078 C32.5088,72.0078 31.5018,73.0138 31.5018,74.2578 L36.0028,74.2578 C36.0028,73.0138 34.9958,72.0078 33.7528,72.0078 L33.7528,72.0078 Z M24.7528,76.4958 C23.5088,76.4958 22.5028,77.5018 22.5028,78.7458 L27.0028,78.7458 C27.0028,77.5018 25.9958,76.4958 24.7528,76.4958 L24.7528,76.4958 Z M18.0018,78.7458 C18.0018,79.9888 19.0098,80.9958 20.2518,80.9958 C21.4958,80.9958 22.5018,79.9888 22.5018,78.7458 L18.0018,78.7458 Z M42.7528,85.4968 C41.5098,85.4968 40.5028,86.5028 40.5028,87.7468 L45.0038,87.7468 C45.0038,86.5028 43.9948,85.4968 42.7528,85.4968 L42.7528,85.4968 Z M36.0028,87.7468 C36.0028,88.9908 37.0088,89.9968 38.2528,89.9968 C39.4948,89.9968 40.5028,88.9908 40.5028,87.7468 L36.0028,87.7468 Z M38.2528,85.5078 C39.4948,85.5078 40.5028,84.4988 40.5028,83.2578 L36.0028,83.2578 C36.0028,84.4988 37.0108,85.5078 38.2528,85.5078 L38.2528,85.5078 Z M42.7528,81.0078 C41.5098,81.0078 40.5028,82.0138 40.5028,83.2578 L45.0038,83.2578 C45.0038,82.0138 43.9948,81.0078 42.7528,81.0078 L42.7528,81.0078 Z M105.7538,76.4988 C104.5108,76.4988 103.5038,77.5058 103.5038,78.7488 L108.0048,78.7488 C108.0048,77.5058 106.9978,76.4988 105.7538,76.4988 L105.7538,76.4988 Z M99.0028,78.7488 C99.0028,79.9928 100.0118,80.9988 101.2538,80.9988 C102.4968,80.9988 103.5038,79.9928 103.5038,78.7488 L99.0028,78.7488 Z M101.2548,76.5098 C102.4958,76.5098 103.5048,75.5018 103.5048,74.2598 L99.0038,74.2598 C99.0038,75.5018 100.0108,76.5098 101.2548,76.5098 L101.2548,76.5098 Z M105.7538,72.0098 C104.5108,72.0098 103.5038,73.0158 103.5038,74.2598 L108.0048,74.2598 C108.0048,73.0158 106.9978,72.0098 105.7538,72.0098 L105.7538,72.0098 Z M117.0058,78.7448 C117.0058,79.9888 118.0118,80.9948 119.2558,80.9948 C120.4998,80.9948 121.5058,79.9888 121.5058,78.7448 L117.0058,78.7448 Z M114.7548,76.4998 C113.5118,76.4998 112.5048,77.5058 112.5048,78.7498 L117.0048,78.7498 C117.0048,77.5058 115.9988,76.4998 114.7548,76.4998 L114.7548,76.4998 Z M108.0048,78.7498 C108.0048,79.9928 109.0128,80.9998 110.2548,80.9998 C111.4968,80.9998 112.5048,79.9928 112.5048,78.7498 L108.0048,78.7498 Z M110.2558,76.5108 C111.4978,76.5108 112.5058,75.5018 112.5058,74.2598 L108.0038,74.2598 C108.0038,75.5018 109.0118,76.5108 110.2558,76.5108 L110.2558,76.5108 Z M105.7538,85.4968 C104.5108,85.4968 103.5038,86.5028 103.5038,87.7468 L108.0048,87.7468 C108.0048,86.5028 106.9978,85.4968 105.7538,85.4968 L105.7538,85.4968 Z M99.0028,87.7468 C99.0028,88.9908 100.0118,89.9968 101.2538,89.9968 C102.4968,89.9968 103.5038,88.9908 103.5038,87.7468 L99.0028,87.7468 Z M101.2548,85.5078 C102.4958,85.5078 103.5048,84.4988 103.5048,83.2578 L99.0038,83.2578 C99.0038,84.4988 100.0108,85.5078 101.2548,85.5078 L101.2548,85.5078 Z M105.7538,81.0078 C104.5108,81.0078 103.5038,82.0138 103.5038,83.2578 L108.0048,83.2578 C108.0048,82.0138 106.9978,81.0078 105.7538,81.0078 L105.7538,81.0078 Z M33.7528,85.4938 C32.5088,85.4938 31.5018,86.5008 31.5018,87.7448 L36.0028,87.7448 C36.0028,86.5008 34.9958,85.4938 33.7528,85.4938 L33.7528,85.4938 Z M27.0018,87.7438 C27.0018,88.9878 28.0108,89.9948 29.2518,89.9948 C30.4958,89.9948 31.5028,88.9878 31.5028,87.7438 L27.0018,87.7438 Z M29.2528,85.5048 C30.4948,85.5048 31.5028,84.4968 31.5028,83.2548 L27.0028,83.2548 C27.0028,84.4968 28.0098,85.5048 29.2528,85.5048 L29.2528,85.5048 Z M33.7528,81.0048 C32.5088,81.0048 31.5018,82.0118 31.5018,83.2548 L36.0028,83.2548 C36.0028,82.0118 34.9958,81.0048 33.7528,81.0048 L33.7528,81.0048 Z M24.7528,85.4928 C23.5088,85.4928 22.5028,86.4988 22.5028,87.7428 L27.0028,87.7428 C27.0028,86.4988 25.9958,85.4928 24.7528,85.4928 L24.7528,85.4928 Z M18.0018,87.7428 C18.0018,88.9868 19.0098,89.9928 20.2518,89.9928 C21.4958,89.9928 22.5018,88.9868 22.5018,87.7428 L18.0018,87.7428 Z M20.2528,85.5038 C21.4948,85.5038 22.5028,84.4948 22.5028,83.2528 L18.0028,83.2528 C18.0028,84.4948 19.0088,85.5038 20.2528,85.5038 L20.2528,85.5038 Z M24.7528,81.0038 C23.5088,81.0038 22.5028,82.0098 22.5028,83.2538 L27.0028,83.2538 C27.0028,82.0098 25.9958,81.0038 24.7528,81.0038 L24.7528,81.0038 Z M123.7568,85.4928 C122.5128,85.4928 121.5058,86.4988 121.5058,87.7428 L126.0068,87.7428 C126.0068,86.4988 124.9978,85.4928 123.7568,85.4928 L123.7568,85.4928 Z M117.0058,87.7428 C117.0058,88.9868 118.0118,89.9928 119.2558,89.9928 C120.4998,89.9928 121.5058,88.9868 121.5058,87.7428 L117.0058,87.7428 Z M119.2558,85.5038 C120.4978,85.5038 121.5068,84.4948 121.5068,83.2528 L117.0058,83.2528 C117.0058,84.4948 118.0148,85.5038 119.2558,85.5038 L119.2558,85.5038 Z M123.7568,81.0038 C122.5128,81.0038 121.5058,82.0098 121.5058,83.2538 L126.0068,83.2538 C126.0068,82.0098 124.9978,81.0038 123.7568,81.0038 L123.7568,81.0038 Z M114.7548,85.4978 C113.5118,85.4978 112.5048,86.5038 112.5048,87.7478 L117.0048,87.7478 C117.0048,86.5038 115.9988,85.4978 114.7548,85.4978 L114.7548,85.4978 Z M108.0048,87.7478 C108.0048,88.9908 109.0128,89.9978 110.2548,89.9978 C111.4968,89.9978 112.5048,88.9908 112.5048,87.7478 L108.0048,87.7478 Z M110.2558,85.5078 C111.4978,85.5078 112.5058,84.4998 112.5058,83.2578 L108.0038,83.2578 C108.0038,84.4998 109.0118,85.5078 110.2558,85.5078 L110.2558,85.5078 Z M114.7548,81.0078 C113.5138,81.0078 112.5048,82.0148 112.5048,83.2578 L117.0048,83.2578 C117.0048,82.0148 115.9988,81.0078 114.7548,81.0078 L114.7548,81.0078 Z M96.7538,94.5018 C95.5108,94.5018 94.5038,95.5078 94.5038,96.7518 L99.0048,96.7518 C99.0048,95.5078 97.9958,94.5018 96.7538,94.5018 L96.7538,94.5018 Z M90.0038,96.7518 C90.0038,97.9958 91.0108,99.0018 92.2548,99.0018 C93.4958,99.0018 94.5048,97.9958 94.5048,96.7518 L90.0038,96.7518 Z M92.2548,94.5128 C93.4968,94.5128 94.5048,93.5038 94.5048,92.2628 L90.0048,92.2628 C90.0048,93.5038 91.0108,94.5128 92.2548,94.5128 L92.2548,94.5128 Z M96.7538,90.0128 C95.5108,90.0128 94.5038,91.0188 94.5038,92.2628 L99.0048,92.2628 C99.0048,91.0188 97.9958,90.0128 96.7538,90.0128 L96.7538,90.0128 Z M78.7538,94.5018 C77.5098,94.5018 76.5038,95.5078 76.5038,96.7518 L81.0038,96.7518 C81.0038,95.5078 79.9958,94.5018 78.7538,94.5018 L78.7538,94.5018 Z M72.0038,96.7518 C72.0038,97.9958 73.0098,99.0018 74.2538,99.0018 C75.4958,99.0018 76.5038,97.9958 76.5038,96.7518 L72.0038,96.7518 Z M74.2538,94.5128 C75.4958,94.5128 76.5048,93.5038 76.5048,92.2628 L72.0038,92.2628 C72.0038,93.5038 73.0108,94.5128 74.2538,94.5128 L74.2538,94.5128 Z M78.7538,90.0128 C77.5098,90.0128 76.5038,91.0188 76.5038,92.2628 L81.0038,92.2628 C81.0038,91.0188 79.9958,90.0128 78.7538,90.0128 L78.7538,90.0128 Z M87.7538,94.5018 C86.5098,94.5018 85.5038,95.5078 85.5038,96.7518 L90.0038,96.7518 C90.0038,95.5078 88.9968,94.5018 87.7538,94.5018 L87.7538,94.5018 Z M81.0028,96.7518 C81.0028,97.9958 82.0118,99.0018 83.2528,99.0018 C84.4948,99.0018 85.5038,97.9958 85.5038,96.7518 L81.0028,96.7518 Z M83.2538,94.5128 C84.4958,94.5128 85.5038,93.5038 85.5038,92.2628 L81.0038,92.2628 C81.0038,93.5038 82.0098,94.5128 83.2538,94.5128 L83.2538,94.5128 Z M87.7538,90.0128 C86.5098,90.0128 85.5038,91.0188 85.5038,92.2628 L90.0038,92.2628 C90.0038,91.0188 88.9968,90.0128 87.7538,90.0128 L87.7538,90.0128 Z M60.7538,94.5018 C59.5098,94.5018 58.5038,95.5078 58.5038,96.7518 L63.0038,96.7518 C63.0038,95.5078 61.9968,94.5018 60.7538,94.5018 L60.7538,94.5018 Z M54.0028,96.7518 C54.0028,97.9958 55.0108,99.0018 56.2528,99.0018 C57.4968,99.0018 58.5028,97.9958 58.5028,96.7518 L54.0028,96.7518 Z M56.2538,94.5128 C57.4958,94.5128 58.5038,93.5038 58.5038,92.2628 L54.0038,92.2628 C54.0038,93.5038 55.0098,94.5128 56.2538,94.5128 L56.2538,94.5128 Z M60.7538,90.0128 C59.5098,90.0128 58.5038,91.0188 58.5038,92.2628 L63.0038,92.2628 C63.0038,91.0188 61.9968,90.0128 60.7538,90.0128 L60.7538,90.0128 Z M69.7538,94.5018 C68.5098,94.5018 67.5038,95.5078 67.5038,96.7518 L72.0038,96.7518 C72.0038,95.5078 70.9958,94.5018 69.7538,94.5018 L69.7538,94.5018 Z M63.0028,96.7518 C63.0028,97.9958 64.0098,99.0018 65.2528,99.0018 C66.4948,99.0018 67.5038,97.9958 67.5038,96.7518 L63.0028,96.7518 Z M65.2538,94.5128 C66.4958,94.5128 67.5038,93.5038 67.5038,92.2628 L63.0038,92.2628 C63.0038,93.5038 64.0098,94.5128 65.2538,94.5128 L65.2538,94.5128 Z M69.7538,90.0128 C68.5098,90.0128 67.5038,91.0188 67.5038,92.2628 L72.0038,92.2628 C72.0038,91.0188 70.9958,90.0128 69.7538,90.0128 L69.7538,90.0128 Z M51.7528,94.5018 C50.5088,94.5018 49.5028,95.5078 49.5028,96.7518 L54.0028,96.7518 C54.0028,95.5078 52.9948,94.5018 51.7528,94.5018 L51.7528,94.5018 Z M45.0028,96.7518 C45.0028,97.9958 46.0088,99.0018 47.2528,99.0018 C48.4948,99.0018 49.5028,97.9958 49.5028,96.7518 L45.0028,96.7518 Z M47.2528,94.5128 C48.4948,94.5128 49.5028,93.5038 49.5028,92.2628 L45.0028,92.2628 C45.0028,93.5038 46.0098,94.5128 47.2528,94.5128 L47.2528,94.5128 Z M51.7528,90.0128 C50.5088,90.0128 49.5028,91.0188 49.5028,92.2628 L54.0028,92.2628 C54.0028,91.0188 52.9948,90.0128 51.7528,90.0128 L51.7528,90.0128 Z M42.7528,94.4958 C41.5098,94.4958 40.5028,95.5028 40.5028,96.7458 L45.0038,96.7458 C45.0038,95.5028 43.9948,94.4958 42.7528,94.4958 L42.7528,94.4958 Z M36.0028,96.7458 C36.0028,97.9898 37.0088,98.9968 38.2528,98.9968 C39.4948,98.9968 40.5028,97.9898 40.5028,96.7458 L36.0028,96.7458 Z M38.2528,94.5068 C39.4948,94.5068 40.5028,93.4988 40.5028,92.2568 L36.0028,92.2568 C36.0028,93.4988 37.0108,94.5068 38.2528,94.5068 L38.2528,94.5068 Z M42.7528,90.0068 C41.5098,90.0068 40.5028,91.0128 40.5028,92.2568 L45.0038,92.2568 C45.0038,91.0128 43.9948,90.0068 42.7528,90.0068 L42.7528,90.0068 Z M105.7538,94.4958 C104.5108,94.4958 103.5038,95.5028 103.5038,96.7458 L108.0048,96.7458 C108.0048,95.5028 106.9978,94.4958 105.7538,94.4958 L105.7538,94.4958 Z M99.0028,96.7458 C99.0028,97.9898 100.0118,98.9968 101.2538,98.9968 C102.4968,98.9968 103.5038,97.9898 103.5038,96.7458 L99.0028,96.7458 Z M101.2548,94.5068 C102.4958,94.5068 103.5048,93.4988 103.5048,92.2568 L99.0038,92.2568 C99.0038,93.4988 100.0108,94.5068 101.2548,94.5068 L101.2548,94.5068 Z M105.7538,90.0068 C104.5108,90.0068 103.5038,91.0128 103.5038,92.2568 L108.0048,92.2568 C108.0048,91.0128 106.9978,90.0068 105.7538,90.0068 L105.7538,90.0068 Z M33.7528,94.4938 C32.5088,94.4938 31.5018,95.4998 31.5018,96.7438 L36.0028,96.7438 C36.0028,95.4998 34.9958,94.4938 33.7528,94.4938 L33.7528,94.4938 Z M27.0018,96.7438 C27.0018,97.9868 28.0108,98.9938 29.2518,98.9938 C30.4958,98.9938 31.5028,97.9868 31.5028,96.7438 L27.0018,96.7438 Z M29.2528,94.5038 C30.4948,94.5038 31.5028,93.4958 31.5028,92.2538 L27.0028,92.2538 C27.0028,93.4958 28.0098,94.5038 29.2528,94.5038 L29.2528,94.5038 Z M33.7528,90.0038 C32.5088,90.0038 31.5018,91.0108 31.5018,92.2548 L36.0028,92.2548 C36.0028,91.0108 34.9958,90.0038 33.7528,90.0038 L33.7528,90.0038 Z M96.7538,103.5008 C95.5108,103.5008 94.5038,104.5078 94.5038,105.7508 L99.0048,105.7508 C99.0048,104.5078 97.9958,103.5008 96.7538,103.5008 L96.7538,103.5008 Z M90.0038,105.7508 C90.0038,106.9948 91.0108,108.0008 92.2548,108.0008 C93.4958,108.0008 94.5048,106.9948 94.5048,105.7508 L90.0038,105.7508 Z M92.2548,103.5118 C93.4968,103.5118 94.5048,102.5038 94.5048,101.2618 L90.0048,101.2618 C90.0048,102.5038 91.0108,103.5118 92.2548,103.5118 L92.2548,103.5118 Z M96.7538,99.0118 C95.5108,99.0118 94.5038,100.0178 94.5038,101.2618 L99.0048,101.2618 C99.0048,100.0178 97.9958,99.0118 96.7538,99.0118 L96.7538,99.0118 Z M78.7538,103.5008 C77.5098,103.5008 76.5038,104.5078 76.5038,105.7508 L81.0038,105.7508 C81.0038,104.5078 79.9958,103.5008 78.7538,103.5008 L78.7538,103.5008 Z M72.0038,105.7508 C72.0038,106.9948 73.0098,108.0008 74.2538,108.0008 C75.4958,108.0008 76.5038,106.9948 76.5038,105.7508 L72.0038,105.7508 Z M74.2538,103.5118 C75.4958,103.5118 76.5048,102.5038 76.5048,101.2618 L72.0038,101.2618 C72.0038,102.5038 73.0108,103.5118 74.2538,103.5118 L74.2538,103.5118 Z M78.7538,99.0118 C77.5098,99.0118 76.5038,100.0178 76.5038,101.2618 L81.0038,101.2618 C81.0038,100.0178 79.9958,99.0118 78.7538,99.0118 L78.7538,99.0118 Z M87.7538,103.5008 C86.5098,103.5008 85.5038,104.5078 85.5038,105.7508 L90.0038,105.7508 C90.0038,104.5078 88.9968,103.5008 87.7538,103.5008 L87.7538,103.5008 Z M81.0028,105.7508 C81.0028,106.9948 82.0118,108.0008 83.2528,108.0008 C84.4948,108.0008 85.5038,106.9948 85.5038,105.7508 L81.0028,105.7508 Z M83.2538,103.5118 C84.4958,103.5118 85.5038,102.5038 85.5038,101.2618 L81.0038,101.2618 C81.0038,102.5038 82.0098,103.5118 83.2538,103.5118 L83.2538,103.5118 Z M87.7538,99.0118 C86.5098,99.0118 85.5038,100.0178 85.5038,101.2618 L90.0038,101.2618 C90.0038,100.0178 88.9968,99.0118 87.7538,99.0118 L87.7538,99.0118 Z M60.7538,103.5008 C59.5098,103.5008 58.5038,104.5078 58.5038,105.7508 L63.0038,105.7508 C63.0038,104.5078 61.9968,103.5008 60.7538,103.5008 L60.7538,103.5008 Z M54.0028,105.7508 C54.0028,106.9948 55.0108,108.0008 56.2528,108.0008 C57.4968,108.0008 58.5028,106.9948 58.5028,105.7508 L54.0028,105.7508 Z M56.2538,103.5118 C57.4958,103.5118 58.5038,102.5038 58.5038,101.2618 L54.0038,101.2618 C54.0038,102.5038 55.0098,103.5118 56.2538,103.5118 L56.2538,103.5118 Z M60.7538,99.0118 C59.5098,99.0118 58.5038,100.0178 58.5038,101.2618 L63.0038,101.2618 C63.0038,100.0178 61.9968,99.0118 60.7538,99.0118 L60.7538,99.0118 Z M69.7538,103.5008 C68.5098,103.5008 67.5038,104.5078 67.5038,105.7508 L72.0038,105.7508 C72.0038,104.5078 70.9958,103.5008 69.7538,103.5008 L69.7538,103.5008 Z M63.0028,105.7508 C63.0028,106.9948 64.0098,108.0008 65.2528,108.0008 C66.4948,108.0008 67.5038,106.9948 67.5038,105.7508 L63.0028,105.7508 Z M65.2538,103.5118 C66.4958,103.5118 67.5038,102.5038 67.5038,101.2618 L63.0038,101.2618 C63.0038,102.5038 64.0098,103.5118 65.2538,103.5118 L65.2538,103.5118 Z M69.7538,99.0118 C68.5098,99.0118 67.5038,100.0178 67.5038,101.2618 L72.0038,101.2618 C72.0038,100.0178 70.9958,99.0118 69.7538,99.0118 L69.7538,99.0118 Z M51.7528,103.5008 C50.5088,103.5008 49.5028,104.5078 49.5028,105.7508 L54.0028,105.7508 C54.0028,104.5078 52.9948,103.5008 51.7528,103.5008 L51.7528,103.5008 Z M45.0028,105.7508 C45.0028,106.9948 46.0088,108.0008 47.2528,108.0008 C48.4948,108.0008 49.5028,106.9948 49.5028,105.7508 L45.0028,105.7508 Z M47.2528,103.5118 C48.4948,103.5118 49.5028,102.5038 49.5028,101.2618 L45.0028,101.2618 C45.0028,102.5038 46.0098,103.5118 47.2528,103.5118 L47.2528,103.5118 Z M51.7528,99.0118 C50.5088,99.0118 49.5028,100.0178 49.5028,101.2618 L54.0028,101.2618 C54.0028,100.0178 52.9948,99.0118 51.7528,99.0118 L51.7528,99.0118 Z M42.7528,103.4948 C41.5098,103.4948 40.5028,104.5018 40.5028,105.7458 L45.0038,105.7458 C45.0038,104.5018 43.9948,103.4948 42.7528,103.4948 L42.7528,103.4948 Z M36.0028,105.7458 C36.0028,106.9888 37.0088,107.9958 38.2528,107.9958 C39.4948,107.9958 40.5028,106.9888 40.5028,105.7458 L36.0028,105.7458 Z M38.2528,103.5058 C39.4948,103.5058 40.5028,102.4978 40.5028,101.2558 L36.0028,101.2558 C36.0028,102.4978 37.0108,103.5058 38.2528,103.5058 L38.2528,103.5058 Z M42.7528,99.0058 C41.5098,99.0058 40.5028,100.0128 40.5028,101.2558 L45.0038,101.2558 C45.0038,100.0128 43.9948,99.0058 42.7528,99.0058 L42.7528,99.0058 Z M105.7538,103.4948 C104.5108,103.4948 103.5038,104.5018 103.5038,105.7458 L108.0048,105.7458 C108.0048,104.5018 106.9978,103.4948 105.7538,103.4948 L105.7538,103.4948 Z M99.0028,105.7458 C99.0028,106.9888 100.0118,107.9958 101.2538,107.9958 C102.4968,107.9958 103.5038,106.9888 103.5038,105.7458 L99.0028,105.7458 Z M101.2548,103.5058 C102.4958,103.5058 103.5048,102.4978 103.5048,101.2558 L99.0038,101.2558 C99.0038,102.4978 100.0108,103.5058 101.2548,103.5058 L101.2548,103.5058 Z M105.7538,99.0058 C104.5108,99.0058 103.5038,100.0128 103.5038,101.2558 L108.0048,101.2558 C108.0048,100.0128 106.9978,99.0058 105.7538,99.0058 L105.7538,99.0058 Z M96.7538,112.4978 C95.5108,112.4978 94.5038,113.5048 94.5038,114.7488 L99.0048,114.7488 C99.0048,113.5048 97.9958,112.4978 96.7538,112.4978 L96.7538,112.4978 Z M90.0038,114.7478 C90.0038,115.9918 91.0108,116.9988 92.2548,116.9988 C93.4958,116.9988 94.5048,115.9918 94.5048,114.7478 L90.0038,114.7478 Z M92.2548,112.5088 C93.4968,112.5088 94.5048,111.5008 94.5048,110.2588 L90.0048,110.2588 C90.0048,111.5008 91.0108,112.5088 92.2548,112.5088 L92.2548,112.5088 Z M96.7538,108.0088 C95.5108,108.0088 94.5038,109.0158 94.5038,110.2588 L99.0048,110.2588 C99.0048,109.0158 97.9958,108.0088 96.7538,108.0088 L96.7538,108.0088 Z M78.7538,112.4978 C77.5098,112.4978 76.5038,113.5048 76.5038,114.7488 L81.0038,114.7488 C81.0038,113.5048 79.9958,112.4978 78.7538,112.4978 L78.7538,112.4978 Z M72.0038,114.7478 C72.0038,115.9918 73.0098,116.9988 74.2538,116.9988 C75.4958,116.9988 76.5038,115.9918 76.5038,114.7478 L72.0038,114.7478 Z M74.2538,112.5088 C75.4958,112.5088 76.5048,111.5008 76.5048,110.2588 L72.0038,110.2588 C72.0038,111.5008 73.0108,112.5088 74.2538,112.5088 L74.2538,112.5088 Z M78.7538,108.0088 C77.5098,108.0088 76.5038,109.0158 76.5038,110.2588 L81.0038,110.2588 C81.0038,109.0158 79.9958,108.0088 78.7538,108.0088 L78.7538,108.0088 Z M87.7538,112.4978 C86.5098,112.4978 85.5038,113.5048 85.5038,114.7488 L90.0038,114.7488 C90.0038,113.5048 88.9968,112.4978 87.7538,112.4978 L87.7538,112.4978 Z M81.0028,114.7478 C81.0028,115.9918 82.0118,116.9988 83.2528,116.9988 C84.4948,116.9988 85.5038,115.9918 85.5038,114.7478 L81.0028,114.7478 Z M83.2538,112.5088 C84.4958,112.5088 85.5038,111.5008 85.5038,110.2588 L81.0038,110.2588 C81.0038,111.5008 82.0098,112.5088 83.2538,112.5088 L83.2538,112.5088 Z M87.7538,108.0088 C86.5098,108.0088 85.5038,109.0158 85.5038,110.2588 L90.0038,110.2588 C90.0038,109.0158 88.9968,108.0088 87.7538,108.0088 L87.7538,108.0088 Z M60.7538,112.4978 C59.5098,112.4978 58.5038,113.5048 58.5038,114.7488 L63.0038,114.7488 C63.0038,113.5048 61.9968,112.4978 60.7538,112.4978 L60.7538,112.4978 Z M54.0028,114.7478 C54.0028,115.9918 55.0108,116.9988 56.2528,116.9988 C57.4968,116.9988 58.5028,115.9918 58.5028,114.7478 L54.0028,114.7478 Z M56.2538,112.5088 C57.4958,112.5088 58.5038,111.5008 58.5038,110.2588 L54.0038,110.2588 C54.0038,111.5008 55.0098,112.5088 56.2538,112.5088 L56.2538,112.5088 Z M60.7538,108.0088 C59.5098,108.0088 58.5038,109.0158 58.5038,110.2588 L63.0038,110.2588 C63.0038,109.0158 61.9968,108.0088 60.7538,108.0088 L60.7538,108.0088 Z M69.7538,112.4978 C68.5098,112.4978 67.5038,113.5048 67.5038,114.7488 L72.0038,114.7488 C72.0038,113.5048 70.9958,112.4978 69.7538,112.4978 L69.7538,112.4978 Z M63.0028,114.7478 C63.0028,115.9918 64.0098,116.9988 65.2528,116.9988 C66.4948,116.9988 67.5038,115.9918 67.5038,114.7478 L63.0028,114.7478 Z M65.2538,112.5088 C66.4958,112.5088 67.5038,111.5008 67.5038,110.2588 L63.0038,110.2588 C63.0038,111.5008 64.0098,112.5088 65.2538,112.5088 L65.2538,112.5088 Z M69.7538,108.0088 C68.5098,108.0088 67.5038,109.0158 67.5038,110.2588 L72.0038,110.2588 C72.0038,109.0158 70.9958,108.0088 69.7538,108.0088 L69.7538,108.0088 Z M51.7528,112.4978 C50.5088,112.4978 49.5028,113.5048 49.5028,114.7488 L54.0028,114.7488 C54.0028,113.5048 52.9948,112.4978 51.7528,112.4978 L51.7528,112.4978 Z M45.0028,114.7478 C45.0028,115.9918 46.0088,116.9988 47.2528,116.9988 C48.4948,116.9988 49.5028,115.9918 49.5028,114.7478 L45.0028,114.7478 Z M47.2528,112.5088 C48.4948,112.5088 49.5028,111.5008 49.5028,110.2588 L45.0028,110.2588 C45.0028,111.5008 46.0098,112.5088 47.2528,112.5088 L47.2528,112.5088 Z M51.7528,108.0088 C50.5088,108.0088 49.5028,109.0158 49.5028,110.2588 L54.0028,110.2588 C54.0028,109.0158 52.9948,108.0088 51.7528,108.0088 L51.7528,108.0088 Z M87.7518,49.4858 C86.5088,49.4858 85.5018,50.4918 85.5018,51.7358 L90.0018,51.7358 C90.0018,50.4918 88.9938,49.4858 87.7518,49.4858 L87.7518,49.4858 Z M81.0008,51.7358 C81.0008,52.9778 82.0078,53.9858 83.2508,53.9858 C84.4948,53.9858 85.5018,52.9778 85.5018,51.7358 L81.0008,51.7358 Z M83.2518,49.4968 C84.4938,49.4968 85.5018,48.4878 85.5018,47.2458 L81.0018,47.2458 C81.0018,48.4878 82.0098,49.4968 83.2518,49.4968 L83.2518,49.4968 Z M87.7518,44.9958 C86.5088,44.9958 85.5018,46.0028 85.5018,47.2468 L90.0018,47.2468 C90.0018,46.0028 88.9938,44.9958 87.7518,44.9958 L87.7518,44.9958 Z M96.7538,49.4858 C95.5108,49.4858 94.5038,50.4918 94.5038,51.7358 L99.0048,51.7358 C99.0048,50.4918 97.9978,49.4858 96.7538,49.4858 L96.7538,49.4858 Z M90.0038,51.7358 C90.0038,52.9778 91.0128,53.9858 92.2548,53.9858 C93.4958,53.9858 94.5048,52.9778 94.5048,51.7358 L90.0038,51.7358 Z M92.2548,49.4968 C93.4968,49.4968 94.5048,48.4878 94.5048,47.2458 L90.0048,47.2458 C90.0048,48.4878 91.0108,49.4968 92.2548,49.4968 L92.2548,49.4968 Z M96.7538,44.9958 C95.5128,44.9958 94.5038,46.0028 94.5038,47.2468 L99.0048,47.2468 C99.0048,46.0028 97.9978,44.9958 96.7538,44.9958 L96.7538,44.9958 Z M105.7558,58.4818 C104.5118,58.4818 103.5058,59.4888 103.5058,60.7328 L108.0058,60.7328 C108.0058,59.4888 106.9968,58.4818 105.7558,58.4818 L105.7558,58.4818 Z M99.0058,60.7328 C99.0058,61.9758 100.0118,62.9828 101.2558,62.9828 C102.4978,62.9828 103.5058,61.9758 103.5058,60.7328 L99.0058,60.7328 Z M101.2558,58.4928 C102.4978,58.4928 103.5058,57.4848 103.5058,56.2428 L99.0058,56.2428 C99.0058,57.4848 100.0118,58.4928 101.2558,58.4928 L101.2558,58.4928 Z M105.7558,53.9928 C104.5118,53.9928 103.5058,54.9998 103.5058,56.2428 L108.0058,56.2428 C108.0058,54.9998 106.9968,53.9928 105.7558,53.9928 L105.7558,53.9928 Z M114.7558,58.4818 C113.5128,58.4818 112.5058,59.4888 112.5058,60.7328 L117.0058,60.7328 C117.0058,59.4888 115.9978,58.4818 114.7558,58.4818 L114.7558,58.4818 Z M108.0048,60.7328 C108.0048,61.9758 109.0138,62.9828 110.2548,62.9828 C111.4988,62.9828 112.5058,61.9758 112.5058,60.7328 L108.0048,60.7328 Z M110.2558,58.4928 C111.4978,58.4928 112.5058,57.4848 112.5058,56.2428 L108.0058,56.2428 C108.0058,57.4848 109.0138,58.4928 110.2558,58.4928 L110.2558,58.4928 Z M114.7558,53.9928 C113.5128,53.9928 112.5058,54.9998 112.5058,56.2428 L117.0058,56.2428 C117.0058,54.9998 115.9978,53.9928 114.7558,53.9928 L114.7558,53.9928 Z M105.7558,49.4858 C104.5118,49.4858 103.5058,50.4918 103.5058,51.7358 L108.0058,51.7358 C108.0058,50.4918 106.9968,49.4858 105.7558,49.4858 L105.7558,49.4858 Z M99.0058,51.7358 C99.0058,52.9778 100.0118,53.9858 101.2558,53.9858 C102.4978,53.9858 103.5058,52.9778 103.5058,51.7358 L99.0058,51.7358 Z M101.2558,49.4968 C102.4978,49.4968 103.5058,48.4878 103.5058,47.2458 L99.0058,47.2458 C99.0058,48.4878 100.0118,49.4968 101.2558,49.4968 L101.2558,49.4968 Z M105.7558,44.9958 C104.5118,44.9958 103.5058,46.0028 103.5058,47.2468 L108.0058,47.2468 C108.0058,46.0028 106.9968,44.9958 105.7558,44.9958 L105.7558,44.9958 Z M114.7558,49.4858 C113.5128,49.4858 112.5058,50.4918 112.5058,51.7358 L117.0058,51.7358 C117.0058,50.4918 115.9978,49.4858 114.7558,49.4858 L114.7558,49.4858 Z M108.0048,51.7358 C108.0048,52.9778 109.0138,53.9858 110.2548,53.9858 C111.4988,53.9858 112.5058,52.9778 112.5058,51.7358 L108.0048,51.7358 Z M110.2558,49.4968 C111.4978,49.4968 112.5058,48.4878 112.5058,47.2458 L108.0058,47.2458 C108.0058,48.4878 109.0138,49.4968 110.2558,49.4968 L110.2558,49.4968 Z M114.7558,44.9958 C113.5128,44.9958 112.5058,46.0028 112.5058,47.2468 L117.0058,47.2468 C117.0058,46.0028 115.9978,44.9958 114.7558,44.9958 L114.7558,44.9958 Z M114.7558,40.4858 C113.5128,40.4858 112.5058,41.4918 112.5058,42.7358 L117.0058,42.7358 C117.0058,41.4918 115.9978,40.4858 114.7558,40.4858 L114.7558,40.4858 Z M108.0048,42.7358 C108.0048,43.9788 109.0138,44.9858 110.2548,44.9858 C111.4988,44.9858 112.5058,43.9788 112.5058,42.7358 L108.0048,42.7358 Z M110.2558,40.4958 C111.4978,40.4958 112.5058,39.4878 112.5058,38.2458 L108.0058,38.2458 C108.0058,39.4878 109.0138,40.4958 110.2558,40.4958 L110.2558,40.4958 Z M114.7558,35.9958 C113.5128,35.9958 112.5058,37.0028 112.5058,38.2468 L117.0058,38.2468 C117.0058,37.0028 115.9978,35.9958 114.7558,35.9958 L114.7558,35.9958 Z M114.7558,31.4858 C113.5128,31.4858 112.5058,32.4918 112.5058,33.7358 L117.0058,33.7358 C117.0058,32.4918 115.9978,31.4858 114.7558,31.4858 L114.7558,31.4858 Z M108.0048,33.7358 C108.0048,34.9778 109.0138,35.9858 110.2548,35.9858 C111.4988,35.9858 112.5058,34.9778 112.5058,33.7358 L108.0048,33.7358 Z M110.2558,31.4968 C111.4978,31.4968 112.5058,30.4878 112.5058,29.2468 L108.0058,29.2468 C108.0058,30.4878 109.0138,31.4968 110.2558,31.4968 L110.2558,31.4968 Z M114.7558,26.9958 C113.5128,26.9958 112.5058,28.0028 112.5058,29.2468 L117.0058,29.2468 C117.0058,28.0028 115.9978,26.9958 114.7558,26.9958 L114.7558,26.9958 Z M114.7558,22.4838 C113.5128,22.4838 112.5058,23.4908 112.5058,24.7348 L117.0058,24.7348 C117.0058,23.4908 115.9978,22.4838 114.7558,22.4838 L114.7558,22.4838 Z M108.0048,24.7338 C108.0048,25.9778 109.0138,26.9848 110.2548,26.9848 C111.4988,26.9848 112.5058,25.9778 112.5058,24.7338 L108.0048,24.7338 Z M110.2558,22.4948 C111.4978,22.4948 112.5058,21.4868 112.5058,20.2448 L108.0058,20.2448 C108.0058,21.4868 109.0138,22.4948 110.2558,22.4948 L110.2558,22.4948 Z M114.7558,17.9948 C113.5128,17.9948 112.5058,19.0018 112.5058,20.2448 L117.0058,20.2448 C117.0058,19.0018 115.9978,17.9948 114.7558,17.9948 L114.7558,17.9948 Z M110.2558,67.4978 C111.4978,67.4978 112.5058,66.4898 112.5058,65.2478 L108.0058,65.2478 C108.0058,66.4898 109.0138,67.4978 110.2558,67.4978 L110.2558,67.4978 Z M114.7558,62.9978 C113.5128,62.9978 112.5058,64.0038 112.5058,65.2478 L117.0058,65.2478 C117.0058,64.0038 115.9978,62.9978 114.7558,62.9978 L114.7558,62.9978 Z M99.0028,69.7368 C99.0028,70.9788 100.0118,71.9868 101.2538,71.9868 C102.4948,71.9868 103.5038,70.9788 103.5038,69.7368 L99.0028,69.7368 Z M105.7538,62.9978 C104.5118,62.9978 103.5038,64.0038 103.5038,65.2478 L108.0038,65.2478 C108.0038,64.0038 106.9978,62.9978 105.7538,62.9978 L105.7538,62.9978 Z M96.7548,58.4878 C95.5108,58.4878 94.5048,59.4938 94.5048,60.7378 L99.0048,60.7378 C99.0048,59.4938 97.9988,58.4878 96.7548,58.4878 L96.7548,58.4878 Z M92.2548,58.4988 C93.4968,58.4988 94.5048,57.4898 94.5048,56.2478 L90.0048,56.2478 C90.0048,57.4898 91.0108,58.4988 92.2548,58.4988 L92.2548,58.4988 Z M96.7548,53.9978 C95.5108,53.9978 94.5048,55.0048 94.5048,56.2488 L99.0048,56.2488 C99.0048,55.0048 97.9988,53.9978 96.7548,53.9978 L96.7548,53.9978 Z M81.0008,60.7378 C81.0008,61.9818 82.0088,62.9878 83.2508,62.9878 C84.4948,62.9878 85.5008,61.9818 85.5008,60.7378 L81.0008,60.7378 Z M87.7518,53.9978 C86.5078,53.9978 85.5018,55.0048 85.5018,56.2488 L90.0018,56.2488 C90.0018,55.0048 88.9958,53.9978 87.7518,53.9978 L87.7518,53.9978 Z M78.7548,13.4898 C77.5108,13.4898 76.5048,14.4958 76.5048,15.7398 L81.0048,15.7398 C81.0048,14.4958 79.9968,13.4898 78.7548,13.4898 L78.7548,13.4898 Z M72.0038,15.7398 C72.0038,16.9838 73.0108,17.9898 74.2538,17.9898 C75.4978,17.9898 76.5048,16.9838 76.5048,15.7398 L72.0038,15.7398 Z M74.2548,13.5008 C75.4968,13.5008 76.5048,12.4918 76.5048,11.2508 L72.0048,11.2508 C72.0048,12.4918 73.0128,13.5008 74.2548,13.5008 L74.2548,13.5008 Z M78.7548,8.9998 C77.5108,8.9998 76.5048,10.0068 76.5048,11.2508 L81.0048,11.2508 C81.0048,10.0068 79.9968,8.9998 78.7548,8.9998 L78.7548,8.9998 Z M96.7538,13.4898 C95.5108,13.4898 94.5038,14.4958 94.5038,15.7398 L99.0048,15.7398 C99.0048,14.4958 97.9978,13.4898 96.7538,13.4898 L96.7538,13.4898 Z M90.0038,15.7398 C90.0038,16.9838 91.0128,17.9898 92.2548,17.9898 C93.4958,17.9898 94.5048,16.9838 94.5048,15.7398 L90.0038,15.7398 Z M92.2548,13.5008 C93.4968,13.5008 94.5048,12.4918 94.5048,11.2508 L90.0048,11.2508 C90.0048,12.4918 91.0108,13.5008 92.2548,13.5008 L92.2548,13.5008 Z M96.7538,8.9998 C95.5128,8.9998 94.5038,10.0068 94.5038,11.2508 L99.0048,11.2508 C99.0048,10.0068 97.9978,8.9998 96.7538,8.9998 L96.7538,8.9998 Z M105.7548,22.4898 C104.5118,22.4898 103.5048,23.4968 103.5048,24.7398 L108.0058,24.7398 C108.0058,23.4968 106.9988,22.4898 105.7548,22.4898 L105.7548,22.4898 Z M99.0038,24.7398 C99.0038,25.9818 100.0128,26.9898 101.2548,26.9898 C102.4978,26.9898 103.5048,25.9818 103.5048,24.7398 L99.0038,24.7398 Z M101.2558,22.5008 C102.4968,22.5008 103.5058,21.4918 103.5058,20.2508 L99.0048,20.2508 C99.0048,21.4918 100.0118,22.5008 101.2558,22.5008 L101.2558,22.5008 Z M105.7548,18.0008 C104.5118,18.0008 103.5048,19.0068 103.5048,20.2508 L108.0058,20.2508 C108.0058,19.0068 106.9988,18.0008 105.7548,18.0008 L105.7548,18.0008 Z M96.7558,22.4898 C95.5118,22.4898 94.5058,23.4968 94.5058,24.7398 L99.0058,24.7398 C99.0058,23.4968 97.9998,22.4898 96.7558,22.4898 L96.7558,22.4898 Z M90.0048,24.7398 C90.0048,25.9818 91.0138,26.9898 92.2558,26.9898 C93.4988,26.9898 94.5058,25.9818 94.5058,24.7398 L90.0048,24.7398 Z M92.2568,22.5008 C93.4978,22.5008 94.5068,21.4918 94.5068,20.2508 L90.0058,20.2508 C90.0058,21.4918 91.0128,22.5008 92.2568,22.5008 L92.2568,22.5008 Z M96.7558,18.0008 C95.5118,18.0008 94.5058,19.0068 94.5058,20.2508 L99.0058,20.2508 C99.0058,19.0068 97.9998,18.0008 96.7558,18.0008 L96.7558,18.0008 Z M87.7538,22.4898 C86.5098,22.4898 85.5038,23.4968 85.5038,24.7398 L90.0038,24.7398 C90.0038,23.4968 88.9978,22.4898 87.7538,22.4898 L87.7538,22.4898 Z M81.0038,24.7398 C81.0038,25.9818 82.0118,26.9898 83.2538,26.9898 C84.4958,26.9898 85.5038,25.9818 85.5038,24.7398 L81.0038,24.7398 Z M83.2548,22.5008 C84.4968,22.5008 85.5048,21.4918 85.5048,20.2508 L81.0028,20.2508 C81.0028,21.4918 82.0118,22.5008 83.2548,22.5008 L83.2548,22.5008 Z M87.7538,18.0008 C86.5118,18.0008 85.5038,19.0068 85.5038,20.2508 L90.0038,20.2508 C90.0038,19.0068 88.9978,18.0008 87.7538,18.0008 L87.7538,18.0008 Z M78.7538,22.4898 C77.5098,22.4898 76.5038,23.4968 76.5038,24.7398 L81.0038,24.7398 C81.0038,23.4968 79.9968,22.4898 78.7538,22.4898 L78.7538,22.4898 Z M72.0038,24.7398 C72.0038,25.9818 73.0118,26.9898 74.2538,26.9898 C75.4958,26.9898 76.5038,25.9818 76.5038,24.7398 L72.0038,24.7398 Z M74.2548,22.5008 C75.4968,22.5008 76.5048,21.4918 76.5048,20.2508 L72.0028,20.2508 C72.0028,21.4918 73.0108,22.5008 74.2548,22.5008 L74.2548,22.5008 Z M78.7538,18.0008 C77.5118,18.0008 76.5038,19.0068 76.5038,20.2508 L81.0038,20.2508 C81.0038,19.0068 79.9968,18.0008 78.7538,18.0008 L78.7538,18.0008 Z M69.7538,22.4898 C68.5098,22.4898 67.5038,23.4968 67.5038,24.7398 L72.0038,24.7398 C72.0038,23.4968 70.9958,22.4898 69.7538,22.4898 L69.7538,22.4898 Z M63.0028,24.7398 C63.0028,25.9818 64.0098,26.9898 65.2528,26.9898 C66.4948,26.9898 67.5038,25.9818 67.5038,24.7398 L63.0028,24.7398 Z M65.2538,22.5008 C66.4958,22.5008 67.5038,21.4918 67.5038,20.2508 L63.0038,20.2508 C63.0038,21.4918 64.0098,22.5008 65.2538,22.5008 L65.2538,22.5008 Z M69.7538,18.0008 C68.5098,18.0008 67.5038,19.0068 67.5038,20.2508 L72.0038,20.2508 C72.0038,19.0068 70.9958,18.0008 69.7538,18.0008 L69.7538,18.0008 Z M60.7538,22.4898 C59.5108,22.4898 58.5038,23.4968 58.5038,24.7398 L63.0048,24.7398 C63.0048,23.4968 61.9958,22.4898 60.7538,22.4898 L60.7538,22.4898 Z M54.0038,24.7398 C54.0038,25.9818 55.0108,26.9898 56.2538,26.9898 C57.4958,26.9898 58.5048,25.9818 58.5048,24.7398 L54.0038,24.7398 Z M56.2548,22.5008 C57.4958,22.5008 58.5048,21.4918 58.5048,20.2508 L54.0038,20.2508 C54.0038,21.4918 55.0108,22.5008 56.2548,22.5008 L56.2548,22.5008 Z M60.7538,18.0008 C59.5108,18.0008 58.5038,19.0068 58.5038,20.2508 L63.0048,20.2508 C63.0048,19.0068 61.9958,18.0008 60.7538,18.0008 L60.7538,18.0008 Z M51.7528,22.4898 C50.5088,22.4898 49.5028,23.4968 49.5028,24.7398 L54.0028,24.7398 C54.0028,23.4968 52.9948,22.4898 51.7528,22.4898 L51.7528,22.4898 Z M45.0028,24.7398 C45.0028,25.9818 46.0088,26.9898 47.2528,26.9898 C48.4948,26.9898 49.5028,25.9818 49.5028,24.7398 L45.0028,24.7398 Z M47.2528,22.5008 C48.4948,22.5008 49.5028,21.4918 49.5028,20.2508 L45.0028,20.2508 C45.0028,21.4918 46.0098,22.5008 47.2528,22.5008 L47.2528,22.5008 Z M51.7528,18.0008 C50.5088,18.0008 49.5028,19.0068 49.5028,20.2508 L54.0028,20.2508 C54.0028,19.0068 52.9948,18.0008 51.7528,18.0008 L51.7528,18.0008 Z M60.7528,49.4958 C59.5098,49.4958 58.5028,50.5028 58.5028,51.7458 L63.0038,51.7458 C63.0038,50.5028 61.9948,49.4958 60.7528,49.4958 L60.7528,49.4958 Z M54.0028,51.7458 C54.0028,52.9898 55.0108,53.9958 56.2528,53.9958 C57.4948,53.9958 58.5028,52.9898 58.5028,51.7458 L54.0028,51.7458 Z M56.2538,49.5068 C57.4948,49.5068 58.5038,48.4988 58.5038,47.2568 L54.0028,47.2568 C54.0028,48.4988 55.0098,49.5068 56.2538,49.5068 L56.2538,49.5068 Z M60.7528,45.0068 C59.5098,45.0068 58.5028,46.0128 58.5028,47.2568 L63.0038,47.2568 C63.0038,46.0128 61.9948,45.0068 60.7528,45.0068 L60.7528,45.0068 Z M51.7528,49.4958 C50.5088,49.4958 49.5028,50.5028 49.5028,51.7458 L54.0028,51.7458 C54.0028,50.5028 52.9968,49.4958 51.7528,49.4958 L51.7528,49.4958 Z M45.0028,51.7458 C45.0028,52.9898 46.0108,53.9958 47.2528,53.9958 C48.4948,53.9958 49.5028,52.9898 49.5028,51.7458 L45.0028,51.7458 Z M47.2538,49.5068 C48.4948,49.5068 49.5038,48.4988 49.5038,47.2568 L45.0028,47.2568 C45.0028,48.4988 46.0098,49.5068 47.2538,49.5068 L47.2538,49.5068 Z M51.7528,45.0068 C50.5108,45.0068 49.5028,46.0128 49.5028,47.2568 L54.0028,47.2568 C54.0028,46.0128 52.9968,45.0068 51.7528,45.0068 L51.7528,45.0068 Z M42.7528,49.4958 C41.5088,49.4958 40.5018,50.5028 40.5018,51.7458 L45.0028,51.7458 C45.0028,50.5028 43.9938,49.4958 42.7528,49.4958 L42.7528,49.4958 Z M36.0028,51.7458 C36.0028,52.9898 37.0088,53.9958 38.2528,53.9958 C39.4948,53.9958 40.5028,52.9898 40.5028,51.7458 L36.0028,51.7458 Z M38.2528,49.5068 C39.4948,49.5068 40.5028,48.4988 40.5028,47.2568 L36.0028,47.2568 C36.0028,48.4988 37.0088,49.5068 38.2528,49.5068 L38.2528,49.5068 Z M42.7528,45.0068 C41.5088,45.0068 40.5018,46.0128 40.5018,47.2568 L45.0028,47.2568 C45.0028,46.0128 43.9938,45.0068 42.7528,45.0068 L42.7528,45.0068 Z M33.7518,49.4958 C32.5078,49.4958 31.5018,50.5028 31.5018,51.7458 L36.0018,51.7458 C36.0018,50.5028 34.9958,49.4958 33.7518,49.4958 L33.7518,49.4958 Z M27.0018,51.7458 C27.0018,52.9898 28.0108,53.9958 29.2518,53.9958 C30.4938,53.9958 31.5028,52.9898 31.5028,51.7458 L27.0018,51.7458 Z M29.2528,49.5068 C30.4948,49.5068 31.5028,48.4988 31.5028,47.2568 L27.0008,47.2568 C27.0008,48.4988 28.0098,49.5068 29.2528,49.5068 L29.2528,49.5068 Z M33.7518,45.0068 C32.5098,45.0068 31.5018,46.0128 31.5018,47.2568 L36.0018,47.2568 C36.0018,46.0128 34.9958,45.0068 33.7518,45.0068 L33.7518,45.0068 Z M33.7518,40.4908 C32.5078,40.4908 31.5018,41.4978 31.5018,42.7408 L36.0018,42.7408 C36.0018,41.4978 34.9958,40.4908 33.7518,40.4908 L33.7518,40.4908 Z M27.0018,42.7408 C27.0018,43.9848 28.0108,44.9908 29.2518,44.9908 C30.4938,44.9908 31.5028,43.9848 31.5028,42.7408 L27.0018,42.7408 Z M29.2528,40.5018 C30.4948,40.5018 31.5028,39.4938 31.5028,38.2518 L27.0008,38.2518 C27.0008,39.4938 28.0098,40.5018 29.2528,40.5018 L29.2528,40.5018 Z M33.7518,36.0018 C32.5098,36.0018 31.5018,37.0078 31.5018,38.2518 L36.0018,38.2518 C36.0018,37.0078 34.9958,36.0018 33.7518,36.0018 L33.7518,36.0018 Z M33.7518,31.4958 C32.5078,31.4958 31.5018,32.5028 31.5018,33.7458 L36.0018,33.7458 C36.0018,32.5028 34.9958,31.4958 33.7518,31.4958 L33.7518,31.4958 Z M27.0018,33.7458 C27.0018,34.9898 28.0108,35.9958 29.2518,35.9958 C30.4938,35.9958 31.5028,34.9898 31.5028,33.7458 L27.0018,33.7458 Z M29.2528,31.5068 C30.4948,31.5068 31.5028,30.4988 31.5028,29.2568 L27.0008,29.2568 C27.0008,30.4988 28.0098,31.5068 29.2528,31.5068 L29.2528,31.5068 Z M33.7518,27.0068 C32.5098,27.0068 31.5018,28.0128 31.5018,29.2568 L36.0018,29.2568 C36.0018,28.0128 34.9958,27.0068 33.7518,27.0068 L33.7518,27.0068 Z M33.7518,22.4898 C32.5078,22.4898 31.5018,23.4968 31.5018,24.7398 L36.0018,24.7398 C36.0018,23.4968 34.9958,22.4898 33.7518,22.4898 L33.7518,22.4898 Z M27.0018,24.7398 C27.0018,25.9818 28.0108,26.9898 29.2518,26.9898 C30.4938,26.9898 31.5028,25.9818 31.5028,24.7398 L27.0018,24.7398 Z M29.2528,22.5008 C30.4948,22.5008 31.5028,21.4918 31.5028,20.2508 L27.0008,20.2508 C27.0008,21.4918 28.0098,22.5008 29.2528,22.5008 L29.2528,22.5008 Z M33.7518,18.0008 C32.5098,18.0008 31.5018,19.0068 31.5018,20.2508 L36.0018,20.2508 C36.0018,19.0068 34.9958,18.0008 33.7518,18.0008 L33.7518,18.0008 Z M42.7528,22.4898 C41.5088,22.4898 40.5028,23.4968 40.5028,24.7398 L45.0028,24.7398 C45.0028,23.4968 43.9968,22.4898 42.7528,22.4898 L42.7528,22.4898 Z M36.0028,24.7398 C36.0028,25.9818 37.0108,26.9898 38.2528,26.9898 C39.4948,26.9898 40.5028,25.9818 40.5028,24.7398 L36.0028,24.7398 Z M38.2528,22.5008 C39.4948,22.5008 40.5028,21.4918 40.5028,20.2508 L36.0028,20.2508 C36.0028,21.4918 37.0098,22.5008 38.2528,22.5008 L38.2528,22.5008 Z M42.7528,18.0008 C41.5088,18.0008 40.5028,19.0068 40.5028,20.2508 L45.0028,20.2508 C45.0028,19.0068 43.9968,18.0008 42.7528,18.0008 L42.7528,18.0008 Z M51.7528,13.4898 C50.5088,13.4898 49.5028,14.4958 49.5028,15.7398 L54.0028,15.7398 C54.0028,14.4958 52.9968,13.4898 51.7528,13.4898 L51.7528,13.4898 Z M45.0028,15.7398 C45.0028,16.9838 46.0108,17.9898 47.2528,17.9898 C48.4948,17.9898 49.5028,16.9838 49.5028,15.7398 L45.0028,15.7398 Z M47.2538,13.5008 C48.4948,13.5008 49.5038,12.4918 49.5038,11.2508 L45.0028,11.2508 C45.0028,12.4918 46.0098,13.5008 47.2538,13.5008 L47.2538,13.5008 Z M51.7528,8.9998 C50.5108,8.9998 49.5028,10.0068 49.5028,11.2508 L54.0028,11.2508 C54.0028,10.0068 52.9968,8.9998 51.7528,8.9998 L51.7528,8.9998 Z M69.7538,13.4898 C68.5098,13.4898 67.5038,14.4958 67.5038,15.7398 L72.0038,15.7398 C72.0038,14.4958 70.9958,13.4898 69.7538,13.4898 L69.7538,13.4898 Z M63.0028,15.7398 C63.0028,16.9838 64.0098,17.9898 65.2528,17.9898 C66.4948,17.9898 67.5038,16.9838 67.5038,15.7398 L63.0028,15.7398 Z M65.2538,13.5008 C66.4958,13.5008 67.5038,12.4918 67.5038,11.2508 L63.0038,11.2508 C63.0038,12.4918 64.0098,13.5008 65.2538,13.5008 L65.2538,13.5008 Z M69.7538,8.9998 C68.5098,8.9998 67.5038,10.0068 67.5038,11.2508 L72.0038,11.2508 C72.0038,10.0068 70.9958,8.9998 69.7538,8.9998 L69.7538,8.9998 Z M78.7548,4.4898 C77.5108,4.4898 76.5048,5.4958 76.5048,6.7398 L81.0048,6.7398 C81.0048,5.4958 79.9968,4.4898 78.7548,4.4898 L78.7548,4.4898 Z M72.0038,6.7398 C72.0038,7.9828 73.0108,8.9898 74.2538,8.9898 C75.4978,8.9898 76.5048,7.9828 76.5048,6.7398 L72.0038,6.7398 Z M74.2548,4.4998 C75.4968,4.4998 76.5048,3.4918 76.5048,2.2498 L72.0048,2.2498 C72.0048,3.4918 73.0128,4.4998 74.2548,4.4998 L74.2548,4.4998 Z M78.7548,-0.0002 C77.5108,-0.0002 76.5048,1.0068 76.5048,2.2498 L81.0048,2.2498 C81.0048,1.0068 79.9968,-0.0002 78.7548,-0.0002 L78.7548,-0.0002 Z M69.7538,4.4898 C68.5098,4.4898 67.5038,5.4958 67.5038,6.7398 L72.0038,6.7398 C72.0038,5.4958 70.9958,4.4898 69.7538,4.4898 L69.7538,4.4898 Z M63.0028,6.7398 C63.0028,7.9828 64.0098,8.9898 65.2528,8.9898 C66.4948,8.9898 67.5038,7.9828 67.5038,6.7398 L63.0028,6.7398 Z M65.2538,4.4998 C66.4958,4.4998 67.5038,3.4918 67.5038,2.2498 L63.0038,2.2498 C63.0038,3.4918 64.0098,4.4998 65.2538,4.4998 L65.2538,4.4998 Z M69.7538,-0.0002 C68.5098,-0.0002 67.5038,1.0068 67.5038,2.2498 L72.0038,2.2498 C72.0038,1.0068 70.9958,-0.0002 69.7538,-0.0002 L69.7538,-0.0002 Z M78.7548,49.4908 C77.5108,49.4908 76.5048,50.4978 76.5048,51.7408 L81.0048,51.7408 C81.0048,50.4978 79.9968,49.4908 78.7548,49.4908 L78.7548,49.4908 Z M72.0038,51.7408 C72.0038,52.9828 73.0108,53.9908 74.2538,53.9908 C75.4978,53.9908 76.5048,52.9828 76.5048,51.7408 L72.0038,51.7408 Z M74.2548,49.5018 C75.4968,49.5018 76.5048,48.4938 76.5048,47.2518 L72.0048,47.2518 C72.0048,48.4938 73.0128,49.5018 74.2548,49.5018 L74.2548,49.5018 Z M78.7548,45.0018 C77.5108,45.0018 76.5048,46.0078 76.5048,47.2518 L81.0048,47.2518 C81.0048,46.0078 79.9968,45.0018 78.7548,45.0018 L78.7548,45.0018 Z M69.7538,49.4908 C68.5098,49.4908 67.5038,50.4978 67.5038,51.7408 L72.0038,51.7408 C72.0038,50.4978 70.9958,49.4908 69.7538,49.4908 L69.7538,49.4908 Z M63.0028,51.7408 C63.0028,52.9828 64.0098,53.9908 65.2528,53.9908 C66.4948,53.9908 67.5038,52.9828 67.5038,51.7408 L63.0028,51.7408 Z M65.2538,49.5018 C66.4958,49.5018 67.5038,48.4938 67.5038,47.2518 L63.0038,47.2518 C63.0038,48.4938 64.0098,49.5018 65.2538,49.5018 L65.2538,49.5018 Z M69.7538,45.0018 C68.5098,45.0018 67.5038,46.0078 67.5038,47.2518 L72.0038,47.2518 C72.0038,46.0078 70.9958,45.0018 69.7538,45.0018 L69.7538,45.0018 Z M96.7538,76.4868 C95.5108,76.4868 94.5038,77.4928 94.5038,78.7368 L99.0048,78.7368 C99.0048,77.4928 97.9978,76.4868 96.7538,76.4868 L96.7538,76.4868 Z M90.0038,78.7368 C90.0038,79.9788 91.0128,80.9868 92.2548,80.9868 C93.4958,80.9868 94.5048,79.9788 94.5048,78.7368 L90.0038,78.7368 Z M92.2548,76.4978 C93.4968,76.4978 94.5048,75.4888 94.5048,74.2478 L90.0048,74.2478 C90.0048,75.4888 91.0108,76.4978 92.2548,76.4978 L92.2548,76.4978 Z M96.7538,71.9978 C95.5128,71.9978 94.5038,73.0038 94.5038,74.2478 L99.0048,74.2478 C99.0048,73.0038 97.9978,71.9978 96.7538,71.9978 L96.7538,71.9978 Z M72.0038,42.7358 C72.0038,43.9768 73.0118,44.9858 74.2538,44.9858 C75.4958,44.9858 76.5038,43.9768 76.5038,42.7358 L72.0038,42.7358 Z M74.2548,40.4958 C75.4968,40.4958 76.5048,39.4878 76.5048,38.2458 L72.0028,38.2458 C72.0028,39.4878 73.0108,40.4958 74.2548,40.4958 L74.2548,40.4958 Z M69.7538,40.4858 C68.5098,40.4858 67.5038,41.4918 67.5038,42.7358 L72.0038,42.7358 C72.0038,41.4918 70.9968,40.4858 69.7538,40.4858 L69.7538,40.4858 Z M69.7538,35.9958 C68.5118,35.9958 67.5038,37.0028 67.5038,38.2468 L72.0038,38.2468 C72.0038,37.0028 70.9968,35.9958 69.7538,35.9958 L69.7538,35.9958 Z M72.0038,33.7408 C72.0038,34.9828 73.0118,35.9908 74.2538,35.9908 C75.4958,35.9908 76.5038,34.9828 76.5038,33.7408 L72.0038,33.7408 Z M74.2548,31.5018 C75.4968,31.5018 76.5048,30.4928 76.5048,29.2518 L72.0028,29.2518 C72.0028,30.4928 73.0108,31.5018 74.2548,31.5018 L74.2548,31.5018 Z M69.7538,31.4908 C68.5098,31.4908 67.5038,32.4968 67.5038,33.7408 L72.0038,33.7408 C72.0038,32.4968 70.9968,31.4908 69.7538,31.4908 L69.7538,31.4908 Z M69.7538,27.0018 C68.5118,27.0018 67.5038,28.0078 67.5038,29.2518 L72.0038,29.2518 C72.0038,28.0078 70.9968,27.0018 69.7538,27.0018 L69.7538,27.0018 Z M51.7528,76.4868 C50.5098,76.4868 49.5028,77.4928 49.5028,78.7368 L54.0038,78.7368 C54.0038,77.4928 52.9968,76.4868 51.7528,76.4868 L51.7528,76.4868 Z M45.0028,78.7368 C45.0028,79.9788 46.0108,80.9868 47.2528,80.9868 C48.4948,80.9868 49.5028,79.9788 49.5028,78.7368 L45.0028,78.7368 Z M47.2538,76.4978 C48.4948,76.4978 49.5038,75.4888 49.5038,74.2478 L45.0028,74.2478 C45.0028,75.4888 46.0098,76.4978 47.2538,76.4978 L47.2538,76.4978 Z M51.7528,71.9978 C50.5098,71.9978 49.5028,73.0038 49.5028,74.2478 L54.0038,74.2478 C54.0038,73.0038 52.9968,71.9978 51.7528,71.9978 L51.7528,71.9978 Z M60.7528,58.4908 C59.5098,58.4908 58.5028,59.4978 58.5028,60.7408 L63.0038,60.7408 C63.0038,59.4978 61.9948,58.4908 60.7528,58.4908 L60.7528,58.4908 Z M54.0028,60.7408 C54.0028,61.9848 55.0108,62.9918 56.2528,62.9918 C57.4948,62.9918 58.5028,61.9848 58.5028,60.7408 L54.0028,60.7408 Z M47.2528,58.5018 C48.4948,58.5018 49.5028,57.4938 49.5028,56.2518 L45.0028,56.2518 C45.0028,57.4938 46.0098,58.5018 47.2528,58.5018 L47.2528,58.5018 Z M51.7528,54.0018 C50.5088,54.0018 49.5028,55.0088 49.5028,56.2518 L54.0028,56.2518 C54.0028,55.0088 52.9948,54.0018 51.7528,54.0018 L51.7528,54.0018 Z M42.7528,58.4968 C41.5088,58.4968 40.5018,59.5038 40.5018,60.7468 L45.0028,60.7468 C45.0028,59.5038 43.9958,58.4968 42.7528,58.4968 L42.7528,58.4968 Z M36.0028,60.7468 C36.0028,61.9908 37.0108,62.9968 38.2528,62.9968 C39.4948,62.9968 40.5028,61.9908 40.5028,60.7468 L36.0028,60.7468 Z M38.2528,58.5078 C39.4948,58.5078 40.5028,57.4988 40.5028,56.2578 L36.0028,56.2578 C36.0028,57.4988 37.0098,58.5078 38.2528,58.5078 L38.2528,58.5078 Z M42.7528,54.0078 C41.5108,54.0078 40.5018,55.0138 40.5018,56.2578 L45.0028,56.2578 C45.0028,55.0138 43.9958,54.0078 42.7528,54.0078 L42.7528,54.0078 Z M33.7518,58.4968 C32.5078,58.4968 31.5018,59.5038 31.5018,60.7468 L36.0018,60.7468 C36.0018,59.5038 34.9938,58.4968 33.7518,58.4968 L33.7518,58.4968 Z M27.0018,60.7468 C27.0018,61.9908 28.0088,62.9968 29.2518,62.9968 C30.4938,62.9968 31.5028,61.9908 31.5028,60.7468 L27.0018,60.7468 Z M29.2528,58.5078 C30.4948,58.5078 31.5028,57.4988 31.5028,56.2578 L27.0028,56.2578 C27.0028,57.4988 28.0088,58.5078 29.2528,58.5078 L29.2528,58.5078 Z M33.7518,54.0078 C32.5078,54.0078 31.5018,55.0138 31.5018,56.2578 L36.0018,56.2578 C36.0018,55.0138 34.9938,54.0078 33.7518,54.0078 L33.7518,54.0078 Z M96.7538,67.4918 C95.5108,67.4918 94.5038,68.4978 94.5038,69.7418 L99.0048,69.7418 C99.0048,68.4978 97.9958,67.4918 96.7538,67.4918 L96.7538,67.4918 Z M90.0038,69.7418 C90.0038,70.9848 91.0108,71.9918 92.2548,71.9918 C93.4958,71.9918 94.5048,70.9848 94.5048,69.7418 L90.0038,69.7418 Z M92.2548,67.5018 C93.4968,67.5018 94.5048,66.4938 94.5048,65.2518 L90.0048,65.2518 C90.0048,66.4938 91.0108,67.5018 92.2548,67.5018 L92.2548,67.5018 Z M78.7548,58.4968 C77.5108,58.4968 76.5048,59.5038 76.5048,60.7468 L81.0048,60.7468 C81.0048,59.5038 79.9968,58.4968 78.7548,58.4968 L78.7548,58.4968 Z M72.0038,60.7468 C72.0038,61.9908 73.0108,62.9968 74.2538,62.9968 C75.4978,62.9968 76.5048,61.9908 76.5048,60.7468 L72.0038,60.7468 Z M69.7538,58.4968 C68.5098,58.4968 67.5038,59.5038 67.5038,60.7468 L72.0038,60.7468 C72.0038,59.5038 70.9978,58.4968 69.7538,58.4968 L69.7538,58.4968 Z M63.0028,60.7468 C63.0028,61.9908 64.0118,62.9968 65.2528,62.9968 C66.4968,62.9968 67.5038,61.9908 67.5038,60.7468 L63.0028,60.7468 Z M78.7548,76.4868 C77.5108,76.4868 76.5048,77.4928 76.5048,78.7368 L81.0048,78.7368 C81.0048,77.4928 79.9968,76.4868 78.7548,76.4868 L78.7548,76.4868 Z M72.0038,78.7368 C72.0038,79.9808 73.0108,80.9868 74.2538,80.9868 C75.4978,80.9868 76.5048,79.9808 76.5048,78.7368 L72.0038,78.7368 Z M74.2548,76.4978 C75.4968,76.4978 76.5048,75.4888 76.5048,74.2478 L72.0048,74.2478 C72.0048,75.4888 73.0128,76.4978 74.2548,76.4978 L74.2548,76.4978 Z M78.7548,71.9978 C77.5108,71.9978 76.5048,73.0038 76.5048,74.2478 L81.0048,74.2478 C81.0048,73.0038 79.9968,71.9978 78.7548,71.9978 L78.7548,71.9978 Z M87.7538,76.4868 C86.5098,76.4868 85.5038,77.4928 85.5038,78.7368 L90.0038,78.7368 C90.0038,77.4928 88.9958,76.4868 87.7538,76.4868 L87.7538,76.4868 Z M81.0038,78.7368 C81.0038,79.9808 82.0098,80.9868 83.2538,80.9868 C84.4958,80.9868 85.5038,79.9808 85.5038,78.7368 L81.0038,78.7368 Z M83.2538,76.4978 C84.4958,76.4978 85.5038,75.4888 85.5038,74.2478 L81.0038,74.2478 C81.0038,75.4888 82.0118,76.4978 83.2538,76.4978 L83.2538,76.4978 Z M87.7538,71.9978 C86.5098,71.9978 85.5038,73.0038 85.5038,74.2478 L90.0038,74.2478 C90.0038,73.0038 88.9958,71.9978 87.7538,71.9978 L87.7538,71.9978 Z M69.7538,76.4868 C68.5098,76.4868 67.5038,77.4928 67.5038,78.7368 L72.0038,78.7368 C72.0038,77.4928 70.9978,76.4868 69.7538,76.4868 L69.7538,76.4868 Z M63.0028,78.7368 C63.0028,79.9808 64.0118,80.9868 65.2528,80.9868 C66.4968,80.9868 67.5038,79.9808 67.5038,78.7368 L63.0028,78.7368 Z M65.2548,76.4978 C66.4958,76.4978 67.5048,75.4888 67.5048,74.2478 L63.0038,74.2478 C63.0038,75.4888 64.0108,76.4978 65.2548,76.4978 L65.2548,76.4978 Z M69.7538,71.9978 C68.5098,71.9978 67.5038,73.0038 67.5038,74.2478 L72.0038,74.2478 C72.0038,73.0038 70.9978,71.9978 69.7538,71.9978 L69.7538,71.9978 Z M60.7528,76.4868 C59.5098,76.4868 58.5028,77.4928 58.5028,78.7368 L63.0038,78.7368 C63.0038,77.4928 61.9968,76.4868 60.7528,76.4868 L60.7528,76.4868 Z M54.0028,78.7368 C54.0028,79.9808 55.0108,80.9868 56.2528,80.9868 C57.4948,80.9868 58.5028,79.9808 58.5028,78.7368 L54.0028,78.7368 Z M56.2538,76.4978 C57.4958,76.4978 58.5038,75.4888 58.5038,74.2478 L54.0018,74.2478 C54.0018,75.4888 55.0098,76.4978 56.2538,76.4978 L56.2538,76.4978 Z M60.7528,71.9978 C59.5118,71.9978 58.5028,73.0038 58.5028,74.2478 L63.0038,74.2478 C63.0038,73.0038 61.9968,71.9978 60.7528,71.9978 L60.7528,71.9978 Z M78.7548,67.4918 C77.5108,67.4918 76.5048,68.4978 76.5048,69.7418 L81.0048,69.7418 C81.0048,68.4978 79.9968,67.4918 78.7548,67.4918 L78.7548,67.4918 Z M72.0038,69.7418 C72.0038,70.9848 73.0108,71.9918 74.2538,71.9918 C75.4978,71.9918 76.5048,70.9848 76.5048,69.7418 L72.0038,69.7418 Z M74.2548,67.5018 C75.4968,67.5018 76.5048,66.4938 76.5048,65.2518 L72.0048,65.2518 C72.0048,66.4938 73.0128,67.5018 74.2548,67.5018 L74.2548,67.5018 Z M78.7548,63.0018 C77.5108,63.0018 76.5048,64.0088 76.5048,65.2528 L81.0048,65.2528 C81.0048,64.0088 79.9968,63.0018 78.7548,63.0018 L78.7548,63.0018 Z M87.7538,67.4918 C86.5098,67.4918 85.5038,68.4978 85.5038,69.7418 L90.0038,69.7418 C90.0038,68.4978 88.9958,67.4918 87.7538,67.4918 L87.7538,67.4918 Z M81.0038,69.7418 C81.0038,70.9848 82.0098,71.9918 83.2538,71.9918 C84.4958,71.9918 85.5038,70.9848 85.5038,69.7418 L81.0038,69.7418 Z M83.2538,67.5018 C84.4958,67.5018 85.5038,66.4938 85.5038,65.2518 L81.0038,65.2518 C81.0038,66.4938 82.0118,67.5018 83.2538,67.5018 L83.2538,67.5018 Z M87.7538,63.0018 C86.5098,63.0018 85.5038,64.0088 85.5038,65.2528 L90.0038,65.2528 C90.0038,64.0088 88.9958,63.0018 87.7538,63.0018 L87.7538,63.0018 Z M69.7538,67.4918 C68.5098,67.4918 67.5038,68.4978 67.5038,69.7418 L72.0038,69.7418 C72.0038,68.4978 70.9978,67.4918 69.7538,67.4918 L69.7538,67.4918 Z M63.0028,69.7418 C63.0028,70.9848 64.0118,71.9918 65.2528,71.9918 C66.4968,71.9918 67.5038,70.9848 67.5038,69.7418 L63.0028,69.7418 Z M65.2548,67.5018 C66.4958,67.5018 67.5048,66.4938 67.5048,65.2518 L63.0038,65.2518 C63.0038,66.4938 64.0108,67.5018 65.2548,67.5018 L65.2548,67.5018 Z M69.7538,63.0018 C68.5098,63.0018 67.5038,64.0088 67.5038,65.2528 L72.0038,65.2528 C72.0038,64.0088 70.9978,63.0018 69.7538,63.0018 L69.7538,63.0018 Z M51.7538,67.4918 C50.5098,67.4918 49.5038,68.4978 49.5038,69.7418 L54.0038,69.7418 C54.0038,68.4978 52.9968,67.4918 51.7538,67.4918 L51.7538,67.4918 Z M45.0038,69.7418 C45.0038,70.9848 46.0118,71.9918 47.2538,71.9918 C48.4958,71.9918 49.5038,70.9848 49.5038,69.7418 L45.0038,69.7418 Z M47.2548,67.5018 C48.4968,67.5018 49.5048,66.4938 49.5048,65.2518 L45.0028,65.2518 C45.0028,66.4938 46.0108,67.5018 47.2548,67.5018 L47.2548,67.5018 Z M51.7538,63.0018 C50.5118,63.0018 49.5038,64.0088 49.5038,65.2528 L54.0038,65.2528 C54.0038,64.0088 52.9968,63.0018 51.7538,63.0018 L51.7538,63.0018 Z M60.7528,67.4918 C59.5098,67.4918 58.5028,68.4978 58.5028,69.7418 L63.0038,69.7418 C63.0038,68.4978 61.9968,67.4918 60.7528,67.4918 L60.7528,67.4918 Z M54.0028,69.7418 C54.0028,70.9848 55.0108,71.9918 56.2528,71.9918 C57.4948,71.9918 58.5028,70.9848 58.5028,69.7418 L54.0028,69.7418 Z M56.2538,67.5018 C57.4958,67.5018 58.5038,66.4938 58.5038,65.2518 L54.0018,65.2518 C54.0018,66.4938 55.0098,67.5018 56.2538,67.5018 L56.2538,67.5018 Z M60.7528,63.0018 C59.5118,63.0018 58.5028,64.0088 58.5028,65.2528 L63.0038,65.2528 C63.0038,64.0088 61.9968,63.0018 60.7528,63.0018 L60.7528,63.0018 Z M42.7528,67.4918 C41.5088,67.4918 40.5018,68.4978 40.5018,69.7418 L45.0028,69.7418 C45.0028,68.4978 43.9958,67.4918 42.7528,67.4918 L42.7528,67.4918 Z M36.0028,69.7418 C36.0028,70.9848 37.0108,71.9918 38.2528,71.9918 C39.4948,71.9918 40.5028,70.9848 40.5028,69.7418 L36.0028,69.7418 Z M29.2528,67.5018 C30.4948,67.5018 31.5028,66.4938 31.5028,65.2518 L27.0028,65.2518 C27.0028,66.4938 28.0088,67.5018 29.2528,67.5018 L29.2528,67.5018 Z M33.7518,63.0018 C32.5078,63.0018 31.5018,64.0088 31.5018,65.2528 L36.0018,65.2528 C36.0018,64.0088 34.9938,63.0018 33.7518,63.0018 L33.7518,63.0018 Z M15.7528,85.4918 C14.5088,85.4918 13.5028,86.4988 13.5028,87.7418 L18.0028,87.7418 C18.0028,86.4988 16.9948,85.4918 15.7528,85.4918 L15.7528,85.4918 Z M15.7528,81.0028 C14.5088,81.0028 13.5028,82.0088 13.5028,83.2528 L18.0028,83.2528 C18.0028,82.0088 16.9948,81.0028 15.7528,81.0028 L15.7528,81.0028 Z M126.0048,87.7418 C126.0048,88.9858 127.0138,89.9918 128.2558,89.9918 C129.4968,89.9918 130.5058,88.9858 130.5058,87.7418 L126.0048,87.7418 Z M128.2568,85.5028 C129.4988,85.5028 130.5068,84.4948 130.5068,83.2528 L126.0048,83.2528 C126.0048,84.4948 127.0128,85.5028 128.2568,85.5028 L128.2568,85.5028 Z M24.7528,94.4918 C23.5088,94.4918 22.5028,95.4988 22.5028,96.7418 L27.0028,96.7418 C27.0028,95.4988 25.9958,94.4918 24.7528,94.4918 L24.7528,94.4918 Z M18.0018,96.7418 C18.0018,97.9858 19.0098,98.9918 20.2518,98.9918 C21.4958,98.9918 22.5018,97.9858 22.5018,96.7418 L18.0018,96.7418 Z M20.2528,94.5028 C21.4948,94.5028 22.5028,93.4948 22.5028,92.2528 L18.0028,92.2528 C18.0028,93.4948 19.0088,94.5028 20.2528,94.5028 L20.2528,94.5028 Z M24.7528,90.0028 C23.5088,90.0028 22.5028,91.0088 22.5028,92.2528 L27.0028,92.2528 C27.0028,91.0088 25.9958,90.0028 24.7528,90.0028 L24.7528,90.0028 Z M123.7568,94.4918 C122.5128,94.4918 121.5058,95.4988 121.5058,96.7418 L126.0068,96.7418 C126.0068,95.4988 124.9978,94.4918 123.7568,94.4918 L123.7568,94.4918 Z M117.0058,96.7418 C117.0058,97.9858 118.0118,98.9918 119.2558,98.9918 C120.4998,98.9918 121.5058,97.9858 121.5058,96.7418 L117.0058,96.7418 Z M119.2558,94.5028 C120.4978,94.5028 121.5068,93.4948 121.5068,92.2528 L117.0058,92.2528 C117.0058,93.4948 118.0148,94.5028 119.2558,94.5028 L119.2558,94.5028 Z M123.7568,90.0028 C122.5128,90.0028 121.5058,91.0088 121.5058,92.2528 L126.0068,92.2528 C126.0068,91.0088 124.9978,90.0028 123.7568,90.0028 L123.7568,90.0028 Z M33.7528,103.4928 C32.5088,103.4928 31.5018,104.4988 31.5018,105.7428 L36.0028,105.7428 C36.0028,104.4988 34.9958,103.4928 33.7528,103.4928 L33.7528,103.4928 Z M27.0018,105.7428 C27.0018,106.9868 28.0108,107.9928 29.2518,107.9928 C30.4958,107.9928 31.5028,106.9868 31.5028,105.7428 L27.0018,105.7428 Z M29.2528,103.5038 C30.4948,103.5038 31.5028,102.4948 31.5028,101.2538 L27.0028,101.2538 C27.0028,102.4948 28.0098,103.5038 29.2528,103.5038 L29.2528,103.5038 Z M33.7528,99.0038 C32.5088,99.0038 31.5018,100.0098 31.5018,101.2538 L36.0028,101.2538 C36.0028,100.0098 34.9958,99.0038 33.7528,99.0038 L33.7528,99.0038 Z M114.7548,94.4968 C113.5118,94.4968 112.5048,95.5028 112.5048,96.7468 L117.0048,96.7468 C117.0048,95.5028 115.9988,94.4968 114.7548,94.4968 L114.7548,94.4968 Z M108.0048,96.7468 C108.0048,97.9898 109.0128,98.9968 110.2548,98.9968 C111.4968,98.9968 112.5048,97.9898 112.5048,96.7468 L108.0048,96.7468 Z M110.2558,94.5078 C111.4978,94.5078 112.5058,93.4988 112.5058,92.2568 L108.0038,92.2568 C108.0038,93.4988 109.0118,94.5078 110.2558,94.5078 L110.2558,94.5078 Z M114.7548,90.0068 C113.5138,90.0068 112.5048,91.0138 112.5048,92.2578 L117.0048,92.2578 C117.0048,91.0138 115.9988,90.0068 114.7548,90.0068 L114.7548,90.0068 Z M114.7548,103.4928 C113.5118,103.4928 112.5048,104.4988 112.5048,105.7428 L117.0048,105.7428 C117.0048,104.4988 115.9988,103.4928 114.7548,103.4928 L114.7548,103.4928 Z M108.0048,105.7428 C108.0048,106.9868 109.0128,107.9928 110.2548,107.9928 C111.4968,107.9928 112.5048,106.9868 112.5048,105.7428 L108.0048,105.7428 Z M110.2558,103.5038 C111.4978,103.5038 112.5058,102.4948 112.5058,101.2538 L108.0038,101.2538 C108.0038,102.4948 109.0118,103.5038 110.2558,103.5038 L110.2558,103.5038 Z M114.7548,99.0038 C113.5138,99.0038 112.5048,100.0098 112.5048,101.2538 L117.0048,101.2538 C117.0048,100.0098 115.9988,99.0038 114.7548,99.0038 L114.7548,99.0038 Z M42.7528,112.4928 C41.5098,112.4928 40.5028,113.4988 40.5028,114.7428 L45.0038,114.7428 C45.0038,113.4988 43.9948,112.4928 42.7528,112.4928 L42.7528,112.4928 Z M36.0028,114.7428 C36.0028,115.9858 37.0088,116.9928 38.2528,116.9928 C39.4948,116.9928 40.5028,115.9858 40.5028,114.7428 L36.0028,114.7428 Z M38.2528,112.5038 C39.4948,112.5038 40.5028,111.4948 40.5028,110.2528 L36.0028,110.2528 C36.0028,111.4948 37.0108,112.5038 38.2528,112.5038 L38.2528,112.5038 Z M42.7528,108.0028 C41.5098,108.0028 40.5028,109.0098 40.5028,110.2538 L45.0038,110.2538 C45.0038,109.0098 43.9948,108.0028 42.7528,108.0028 L42.7528,108.0028 Z M105.7538,112.4928 C104.5108,112.4928 103.5038,113.4988 103.5038,114.7428 L108.0048,114.7428 C108.0048,113.4988 106.9978,112.4928 105.7538,112.4928 L105.7538,112.4928 Z M99.0028,114.7428 C99.0028,115.9858 100.0118,116.9928 101.2538,116.9928 C102.4968,116.9928 103.5038,115.9858 103.5038,114.7428 L99.0028,114.7428 Z M101.2548,112.5038 C102.4958,112.5038 103.5048,111.4948 103.5048,110.2528 L99.0038,110.2528 C99.0038,111.4948 100.0108,112.5038 101.2548,112.5038 L101.2548,112.5038 Z M105.7538,108.0028 C104.5108,108.0028 103.5038,109.0098 103.5038,110.2538 L108.0048,110.2538 C108.0048,109.0098 106.9978,108.0028 105.7538,108.0028 L105.7538,108.0028 Z M78.7538,121.4928 C77.5098,121.4928 76.5038,122.4998 76.5038,123.7438 L81.0038,123.7438 C81.0038,122.4998 79.9958,121.4928 78.7538,121.4928 L78.7538,121.4928 Z M72.0038,123.7438 C72.0038,124.9868 73.0098,125.9938 74.2538,125.9938 C75.4958,125.9938 76.5038,124.9868 76.5038,123.7438 L72.0038,123.7438 Z M74.2538,121.5038 C75.4958,121.5038 76.5048,120.4958 76.5048,119.2538 L72.0038,119.2538 C72.0038,120.4958 73.0108,121.5038 74.2538,121.5038 L74.2538,121.5038 Z M78.7538,117.0038 C77.5098,117.0038 76.5038,118.0108 76.5038,119.2538 L81.0038,119.2538 C81.0038,118.0108 79.9958,117.0038 78.7538,117.0038 L78.7538,117.0038 Z M87.7538,121.4928 C86.5098,121.4928 85.5038,122.4998 85.5038,123.7438 L90.0038,123.7438 C90.0038,122.4998 88.9968,121.4928 87.7538,121.4928 L87.7538,121.4928 Z M81.0028,123.7438 C81.0028,124.9868 82.0118,125.9938 83.2528,125.9938 C84.4948,125.9938 85.5038,124.9868 85.5038,123.7438 L81.0028,123.7438 Z M83.2538,121.5038 C84.4958,121.5038 85.5038,120.4958 85.5038,119.2538 L81.0038,119.2538 C81.0038,120.4958 82.0098,121.5038 83.2538,121.5038 L83.2538,121.5038 Z M87.7538,117.0038 C86.5098,117.0038 85.5038,118.0108 85.5038,119.2538 L90.0038,119.2538 C90.0038,118.0108 88.9968,117.0038 87.7538,117.0038 L87.7538,117.0038 Z M60.7538,121.4928 C59.5098,121.4928 58.5038,122.4998 58.5038,123.7438 L63.0038,123.7438 C63.0038,122.4998 61.9968,121.4928 60.7538,121.4928 L60.7538,121.4928 Z M54.0028,123.7438 C54.0028,124.9868 55.0108,125.9938 56.2528,125.9938 C57.4968,125.9938 58.5028,124.9868 58.5028,123.7438 L54.0028,123.7438 Z M56.2538,121.5038 C57.4958,121.5038 58.5038,120.4958 58.5038,119.2538 L54.0038,119.2538 C54.0038,120.4958 55.0098,121.5038 56.2538,121.5038 L56.2538,121.5038 Z M60.7538,117.0038 C59.5098,117.0038 58.5038,118.0108 58.5038,119.2538 L63.0038,119.2538 C63.0038,118.0108 61.9968,117.0038 60.7538,117.0038 L60.7538,117.0038 Z M69.7538,121.4928 C68.5098,121.4928 67.5038,122.4998 67.5038,123.7438 L72.0038,123.7438 C72.0038,122.4998 70.9958,121.4928 69.7538,121.4928 L69.7538,121.4928 Z M63.0028,123.7438 C63.0028,124.9868 64.0098,125.9938 65.2528,125.9938 C66.4948,125.9938 67.5038,124.9868 67.5038,123.7438 L63.0028,123.7438 Z M65.2538,121.5038 C66.4958,121.5038 67.5038,120.4958 67.5038,119.2538 L63.0038,119.2538 C63.0038,120.4958 64.0098,121.5038 65.2538,121.5038 L65.2538,121.5038 Z M69.7538,117.0038 C68.5098,117.0038 67.5038,118.0108 67.5038,119.2538 L72.0038,119.2538 C72.0038,118.0108 70.9958,117.0038 69.7538,117.0038 L69.7538,117.0038 Z M51.7528,134.9828 C50.5088,134.9828 49.5028,135.9898 49.5028,137.2328 L54.0028,137.2328 C54.0028,135.9898 52.9948,134.9828 51.7528,134.9828 L51.7528,134.9828 Z M45.0028,137.2328 C45.0028,138.4748 46.0088,139.4828 47.2528,139.4828 C48.4948,139.4828 49.5028,138.4748 49.5028,137.2328 L45.0028,137.2328 Z M47.2528,134.9938 C48.4948,134.9938 49.5028,133.9858 49.5028,132.7438 L45.0028,132.7438 C45.0028,133.9858 46.0098,134.9938 47.2528,134.9938 L47.2528,134.9938 Z M51.7528,130.4938 C50.5088,130.4938 49.5028,131.4998 49.5028,132.7438 L54.0028,132.7438 C54.0028,131.4998 52.9948,130.4938 51.7528,130.4938 L51.7528,130.4938 Z M42.7528,139.4998 C41.5088,139.4998 40.5018,140.5058 40.5018,141.7498 L45.0028,141.7498 C45.0028,140.5058 43.9958,139.4998 42.7528,139.4998 L42.7528,139.4998 Z M36.0028,141.7498 C36.0028,142.9938 37.0108,143.9998 38.2528,143.9998 C39.4948,143.9998 40.5028,142.9938 40.5028,141.7498 L36.0028,141.7498 Z M38.2528,139.5108 C39.4948,139.5108 40.5028,138.5018 40.5028,137.2598 L36.0028,137.2598 C36.0028,138.5018 37.0098,139.5108 38.2528,139.5108 L38.2528,139.5108 Z M42.7528,135.0098 C41.5108,135.0098 40.5018,136.0168 40.5018,137.2608 L45.0028,137.2608 C45.0028,136.0168 43.9958,135.0098 42.7528,135.0098 L42.7528,135.0098 Z M33.7518,134.9828 C32.5078,134.9828 31.5018,135.9898 31.5018,137.2328 L36.0018,137.2328 C36.0018,135.9898 34.9938,134.9828 33.7518,134.9828 L33.7518,134.9828 Z M27.0018,137.2328 C27.0018,138.4748 28.0088,139.4828 29.2518,139.4828 C30.4938,139.4828 31.5028,138.4748 31.5028,137.2328 L27.0018,137.2328 Z M29.2528,134.9938 C30.4948,134.9938 31.5028,133.9858 31.5028,132.7438 L27.0028,132.7438 C27.0028,133.9858 28.0088,134.9938 29.2528,134.9938 L29.2528,134.9938 Z M33.7518,130.4938 C32.5078,130.4938 31.5018,131.4998 31.5018,132.7438 L36.0018,132.7438 C36.0018,131.4998 34.9938,130.4938 33.7518,130.4938 L33.7518,130.4938 Z M24.7518,139.4998 C23.5078,139.4998 22.5018,140.5058 22.5018,141.7498 L27.0018,141.7498 C27.0018,140.5058 25.9948,139.4998 24.7518,139.4998 L24.7518,139.4998 Z M18.0018,141.7498 C18.0018,142.9938 19.0098,143.9998 20.2518,143.9998 C21.4938,143.9998 22.5018,142.9938 22.5018,141.7498 L18.0018,141.7498 Z M20.2528,139.5108 C21.4948,139.5108 22.5028,138.5018 22.5028,137.2598 L18.0008,137.2598 C18.0008,138.5018 19.0088,139.5108 20.2528,139.5108 L20.2528,139.5108 Z M24.7518,135.0098 C23.5098,135.0098 22.5018,136.0168 22.5018,137.2608 L27.0018,137.2608 C27.0018,136.0168 25.9948,135.0098 24.7518,135.0098 L24.7518,135.0098 Z M15.7518,134.9828 C14.5078,134.9828 13.5018,135.9898 13.5018,137.2328 L18.0018,137.2328 C18.0018,135.9898 16.9938,134.9828 15.7518,134.9828 L15.7518,134.9828 Z M9.0008,137.2328 C9.0008,138.4748 10.0098,139.4828 11.2508,139.4828 C12.4928,139.4828 13.5018,138.4748 13.5018,137.2328 L9.0008,137.2328 Z M11.2518,134.9938 C12.4938,134.9938 13.5018,133.9858 13.5018,132.7438 L9.0018,132.7438 C9.0018,133.9858 10.0078,134.9938 11.2518,134.9938 L11.2518,134.9938 Z M15.7518,130.4938 C14.5078,130.4938 13.5018,131.4998 13.5018,132.7438 L18.0018,132.7438 C18.0018,131.4998 16.9938,130.4938 15.7518,130.4938 L15.7518,130.4938 Z M6.7508,139.4998 C5.5078,139.4998 4.5008,140.5058 4.5008,141.7498 L9.0018,141.7498 C9.0018,140.5058 7.9948,139.4998 6.7508,139.4998 L6.7508,139.4998 Z M0.0008,141.7498 C0.0008,142.9938 1.0088,143.9998 2.2508,143.9998 C3.4928,143.9998 4.5008,142.9938 4.5008,141.7498 L0.0008,141.7498 Z M2.2518,139.5108 C3.4938,139.5108 4.5018,138.5018 4.5018,137.2598 L-0.0002,137.2598 C-0.0002,138.5018 1.0088,139.5108 2.2518,139.5108 L2.2518,139.5108 Z M6.7508,135.0098 C7.9948,135.0098 9.0018,136.0168 9.0018,137.2608 L4.5008,137.2608 C4.5008,136.0168 5.5098,135.0098 6.7508,135.0098 L6.7508,135.0098 Z" fill="#EB0029"></path>
                <text id="" font-family="AvenirNextLTWGL-Regular, Avenir Next LT WGL" font-size="16" font-weight="normal" line-spacing="24" fill="#262626">
                    <tspan x="16.456" y="188"></tspan>
                </text>
            </g>
        </g>
    </g>
</svg>