<svg xmlns="http://www.w3.org/2000/svg" viewBox="0 0 220 260"><defs><style>.cls-1{isolation:isolate;}.cls-2,.cls-9{fill:#d6ee65;}.cls-3{fill:#0522a0;}.cls-4{fill:#ffa64c;}.cls-4,.cls-5,.cls-6,.cls-8,.cls-9{mix-blend-mode:multiply;}.cls-5{fill:#f25e3c;}.cls-6{fill:#37d0ff;}.cls-7{fill:#f74300;}.cls-8{fill:#0091ba;}</style></defs><title>tp-2</title><g class="cls-1"><g id="Layer_2" data-name="Layer 2"><path class="cls-2" d="M190,126.5V260H2V198.92c2.66-1.43,7.07-4.66,7.42-10.51,0.29-4.84-2.87-8.49-5.6-10.72l1.27-2.83a11.36,11.36,0,0,1,5.4,2.39c5,4,15.27,23.75,38,17.75,22.05-5.82,4.64-49-21.72-52.64h0a47.4,47.4,0,0,0-5.5-3.72l0.62-1.41c5.78,2.91,15.15,6.65,25.1,6.65,16.25,0,20.75-10.12,22.13-12s0-3.29-1.75-3.29H64.75c2.1,0,18.08-.08,33.58-0.08H182c1.65,0,3-.45,3-1s-1.35-1-3-1h8Z"/><path class="cls-2" d="M190,126.5V260H2V198.92c2.66-1.43,7.07-4.66,7.42-10.51,0.29-4.84-2.87-8.49-5.6-10.72l1.27-2.83a11.36,11.36,0,0,1,5.4,2.39c5,4,15.27,23.75,38,17.75,22.05-5.82,4.64-49-21.72-52.64h0a47.4,47.4,0,0,0-5.5-3.72l0.62-1.41c5.78,2.91,15.15,6.65,25.1,6.65,16.25,0,20.75-10.12,22.13-12s0-3.29-1.75-3.29H64.75c2.1,0,18.08-.08,33.58-0.08H182c1.65,0,3-.45,3-1s-1.35-1-3-1h8Z"/><path class="cls-3" d="M192,260h-2V133c0-1.65.45-3,1-3s1,1.35,1,3V260Z"/><path class="cls-4" d="M48.5,195c-22.75,6-33-13.75-38-17.75a11.36,11.36,0,0,0-5.4-2.39l1.41-3.16c2,0,3.17-.66,3.66-1.75,3.16,2.83,7.92,5.21,15,5.21,14.78,0,19.21-18.9,1.61-32.81C53.14,146,70.55,189.18,48.5,195Z"/><path class="cls-5" d="M25.17,175.17c-8.75,0-14-3.63-17-7.25l9.61-21.45,0-.07,3.42-7.75C45.08,152.61,41.32,175.17,25.17,175.17Z"/><path class="cls-6" d="M9.42,188.42C9.07,194.27,4.66,197.5,2,198.92V181.74l1.81-4C6.55,179.93,9.7,183.58,9.42,188.42Z"/><path class="cls-7" d="M48,78.13L17.85,146.39l0,0.07L2,181.74V260H0V181.74H0l16-36.15L46.2,77.32A1,1,0,0,1,48,78.13Z"/><path class="cls-8" d="M54,59.47L0,181.74v-4.52L78.33,0h2L76,9.74a1,1,0,0,0-.83.58L53.91,58.47A1,1,0,0,0,54,59.47Z"/><path class="cls-2" d="M10.15,170c-0.63,1.41-2.29,2.15-5.63,1.56l2.37-5.35A19.75,19.75,0,0,0,10.15,170Z"/><path class="cls-6" d="M69.13,131.88c-1.37,1.88-5.87,12-22.12,12-9.95,0-19.31-3.74-25.1-6.65l0.39-.89a3.38,3.38,0,0,0,1.12.08c2.43-.35,4.58,2,7.42,3s7.75-.17,8.5-1.33,3.92-.33,5.42-1.25,8.25-7.17,5-7.83c-2.94-.6-6.2.68-6.69-2.5h5.45c0.19,2,3.83,2.08,7.36,2.08h11.5C69.13,128.58,70.5,130,69.13,131.88Z"/><path class="cls-5" d="M185,127.5c0,0.55-1.35,1-3,1H97c-1.65,0-3-.45-3-1s1.35-1,3-1h85C183.64,126.5,185,127,185,127.5Z"/><path class="cls-4" d="M97,128.5h1.33c-15.5,0-31.48.08-33.58,0.08-2.75,0-5.12-1-5.7-2.08H97c-1.65,0-3,.45-3,1S95.35,128.5,97,128.5Z"/><path class="cls-2" d="M64.75,128.58H55.88c-3.53,0-7.16,0-7.36-2.08H59.05C59.63,127.63,62,128.58,64.75,128.58Z"/><path class="cls-2" d="M64.75,128.58H55.88c-3.53,0-7.16,0-7.36-2.08H59.05C59.63,127.63,62,128.58,64.75,128.58Z"/><path class="cls-8" d="M220,0V42L197.67,260H192V133c0-1.65-.45-3-1-3s-1,1.35-1,3v-6.5H43.07c0.48,3.18,3.75,1.9,6.69,2.5,3.25,0.67-3.5,6.92-5,7.83s-4.67.08-5.42,1.25-5.67,2.33-8.5,1.33-5-3.35-7.42-3a3.38,3.38,0,0,1-1.12-.08L37.47,102c6.45,3.11,16.21,8.42,19,13.31,4.33,7.5,2.67,7.41-.5,7.5-3,.08-11.58-1.88-12.84,1.67H190V62.67l0.86-1.79H60.55a0.47,0.47,0,0,0,0,.13c-0.33,2,5.33,5.17.5,5.17H51.09l3-6.69a1,1,0,0,0,.38.32,1,1,0,0,0,1.32-.51L63.36,42a16.25,16.25,0,0,1,3,.12C71.17,42.83,81,55.79,76.83,56.83c-3.95,1-6-.49-5.34,2H177.92s2.92-2-2.58-2-1-3.67.67-5.17,5.5-2.17,9.67-2.17a56.07,56.07,0,0,1,10,1.33l17.12-35.77A33.42,33.42,0,0,1,203.17,0H220Z"/><path class="cls-2" d="M190.39,61.85l-0.39.82V124.5h-5.12c-0.39-.86-1.87-1.67-3.63-1.67h0.08c1.65,0,3-.47,3-1s-1.35-1-3-1h-0.42c-1.65,0-3,.47-3,1s1.35,1,3,1H104.83c5.19,0,1.57-5.85-.17-8.83-7-12-28.83-10.5-41.17-12-7.7-.94-17.27-3.88-23.39-6l1.48-3.34c18.13,1.41,24-2.79,23.91-11.32-0.09-6.69-9.6-11-15.38-13l1-2.19h0.23c1.2,2,3.85,2.58,5.6,2.58,2.5,0,3,2.58,6.2,2.58,3.86,0,3.14-3.25,5.55-3.25h3.58a2.17,2.17,0,0,0,2.17-1.92c0-.83.68-1.5,2.14-1.5a1,1,0,1,0,0-1.92H61.19A2.59,2.59,0,0,1,60.5,61a0.47,0.47,0,0,1,0-.12h7c2.09,0.83,8,1.88,24.23,1.88,27,0,71.75-.08,74.75-0.08a2.33,2.33,0,0,0,2.2-1.79h3.66a10.72,10.72,0,0,0,9.5,6A9.5,9.5,0,0,0,190.39,61.85Z"/><path class="cls-4" d="M184.88,124.5H60.17c1.75-.94,5.49-1.67,12.21-1.67H181.25C183,122.83,184.48,123.64,184.88,124.5Z"/><path class="cls-6" d="M184.33,121.79c0,0.57-1.35,1-3,1h-0.42c-1.65,0-3-.47-3-1s1.35-1,3-1h0.42C183,120.75,184.33,121.22,184.33,121.79Z"/><path class="cls-2" d="M56,122.83H72.38c-6.72,0-10.46.73-12.21,1.67H49C50,122.89,52.76,122.83,56,122.83Z"/><path class="cls-6" d="M56,122.83c-3.24,0-6,.05-7,1.67H43.16C44.42,121,53,122.91,56,122.83Z"/><path class="cls-6" d="M104.83,122.83H56c3.17-.09,4.83,0,0.5-7.5-2.83-4.89-12.59-10.21-19-13.31l2.65-6c6.11,2.08,15.68,5,23.39,6,12.33,1.5,34.17,0,41.17,12C106.41,117,110,122.83,104.83,122.83Z"/><path class="cls-6" d="M195.67,0h7.5a33.42,33.42,0,0,0,9.62,15.06l-1.51,3.16S199,9.11,195.67,0Z"/><path class="cls-4" d="M206.62,28l-11,22.87C145.08,31.91,146,0,146,0h36.17s4.5,6.5,10.5,10,12.63,5.4,17.07,11.45l-1.1,2.3a23.59,23.59,0,0,0-19.88-5.53c-3.78.61-7.23,1.42-8.75,6.66-4.87,16.75,16.63,23.94,16.63,23.94Z"/><path class="cls-9" d="M182.17,0h13.5c3.33,9.11,15.61,18.22,15.61,18.22l1.48-3.1-3,6.33C205.3,15.4,198.67,13.5,192.67,10S182.17,0,182.17,0Z"/><path class="cls-5" d="M91.75,18.63c0,6.25-5.12,11.25-12.62,11.25a15.67,15.67,0,0,1-9-3.14L77,11.13a1,1,0,0,0-.51-1.32A1,1,0,0,0,76,9.74L78,5.36C83.35,7.18,91.75,13.36,91.75,18.63Z"/><path class="cls-4" d="M108.67,25.41C106.91,39.1,82.52,38.87,68,31.58l2.14-4.85a15.67,15.67,0,0,0,9,3.14c7.5,0,12.63-5,12.63-11.25,0-5-7.45-10.73-12.82-12.9a177.4,177.4,0,0,1,22.91,7.36C106.72,15.16,109.42,19.58,108.67,25.41Z"/><path class="cls-8" d="M90.17,0C88.5,1.75,85.83,4.83,82,4.83a4.41,4.41,0,0,1-3.18-1.4L80.33,0h9.83Z"/><path class="cls-6" d="M98.17,0s-4.5,6.17-10.83,6.17c-3.32,0-5.21-.42-6.41-1.48A4.2,4.2,0,0,0,82,4.83c3.83,0,6.5-3.08,8.17-4.83h8Z"/><path class="cls-3" d="M54.83,59.88a1,1,0,0,1-.91-1.4L75.2,10.32a1,1,0,0,1,1.83.81L55.74,59.28A1,1,0,0,1,54.83,59.88Z"/><path class="cls-9" d="M90.9,56.83a2.33,2.33,0,0,0-.06-1.74C85.89,42.34,75.66,37.5,69,37.53a33.84,33.84,0,0,0-3.75.24L68,31.58c14.54,7.29,38.92,7.52,40.68-6.17,0.75-5.83-1.94-10.25-6.83-12.33-8.22-3.49-19-6.39-23.92-7.62l0.9-2a4.64,4.64,0,0,0,2.1,1.26c1.2,1.06,3.09,1.48,6.41,1.48C93.67,6.17,98.17,0,98.17,0H146s-0.92,31.91,49.67,50.83a65.47,65.47,0,0,0-7.58-1.21A14.15,14.15,0,0,0,178,45.44c-8.17,0-13.67,3.17-15.33,5.33-1.52,2-4.12,5.45-1.7,6.06H90.9Z"/><path class="cls-5" d="M58.75,82.63C57.36,88.5,49.23,89.26,43.23,89L48,78.13a1,1,0,0,0-1.83-.81L41.1,88.84h0L49.53,69.7C53.86,71.85,60.27,76.21,58.75,82.63Z"/><path class="cls-4" d="M65.5,81.38c0.11,8.53-5.78,12.73-23.91,11.32L43.23,89c6,0.28,14.13-.48,15.52-6.36,1.52-6.41-4.89-10.77-9.22-12.93l0.59-1.33C55.91,70.37,65.41,74.68,65.5,81.38Z"/><path class="cls-5" d="M196.63,48.81S175.13,41.63,180,24.88c1.52-5.23,5-6,8.75-6.66a23.59,23.59,0,0,1,19.88,5.53"/><path class="cls-6" d="M90.9,56.83H84.25c-1,0-.94.47-0.69,1H71.39c0.23-1.08,2.2-.23,5.44-1,4.17-1-5.67-14-10.44-14.67a17.41,17.41,0,0,0-4.71,0L63.54,38A35.84,35.84,0,0,1,69,37.53c6.66,0,16.89,4.81,21.84,17.56A2.33,2.33,0,0,1,90.9,56.83Z"/><path class="cls-4" d="M91.75,62.75c-16.28,0-22.14-1-24.23-1.87H168.7a2.33,2.33,0,0,1-2.2,1.79C163.5,62.67,118.75,62.75,91.75,62.75Z"/><path class="cls-9" d="M83.56,57.88c0.14,0.33.35,0.68,0.45,1H71.49a2.26,2.26,0,0,1-.1-1H83.56Z"/><path class="cls-6" d="M51.32,66.17H61c3.56,0,1.43-1.71.19-3.42H76.53a1,1,0,1,1,0,1.92c-1.47,0-2.14.67-2.14,1.5a2.17,2.17,0,0,1-2.17,1.92H68.67c-2.42,0-1.69,3.25-5.55,3.25-3.2,0-3.7-2.58-6.2-2.58C55.17,68.75,52.52,68.17,51.32,66.17Z"/><path class="cls-5" d="M149.38,57.85c0,0.56-1.35,1-3,1H104.63c-1.65,0-3-.46-3-1s1.35-1,3-1h41.75C148,56.83,149.38,57.29,149.38,57.85Z"/><path class="cls-4" d="M104.63,58.88H84c-0.28-.87-1.33-2,0.25-2h20.38c-1.65,0-3,.46-3,1S103,58.88,104.63,58.88Z"/><path class="cls-4" d="M149.38,57.85c0-.56-1.35-1-3-1h18.5c2.14,0,3.3.93,3.74,2H146.38C148,58.88,149.38,58.42,149.38,57.85Z"/><path class="cls-6" d="M190.86,60.88a9.64,9.64,0,0,1-9,6,10.72,10.72,0,0,1-9.5-6h18.5Z"/><path class="cls-9" d="M177.92,58.88h-9.3A3.27,3.27,0,0,0,166,56.94h11.14C180.09,57.35,177.92,58.88,177.92,58.88Z"/><path class="cls-6" d="M162.67,50.77c1.67-2.17,7.17-5.33,15.33-5.33a14.15,14.15,0,0,1,10.09,4.18c-0.83-.07-1.66-0.12-2.42-0.12-4.17,0-8,.67-9.67,2.17s-6.17,5.17-.67,5.17a13.06,13.06,0,0,1,1.79.1H161.83C158,56.94,161,52.94,162.67,50.77Z"/></g></g></svg>