<svg id="Layer_2" data-name="Layer 2" xmlns="http://www.w3.org/2000/svg" viewBox="0 0 220 260"><defs><style>.cls-1{fill:#d6ee65;}.cls-2{fill:#ffa84e;}.cls-3{fill:#f25e3c;}.cls-4{fill:#37d0ff;}.cls-5{fill:#0091ba;}</style></defs><title>tp-1</title><path class="cls-1" d="M202.45,36.66C171.62,25.53,169.83,0,169.83,0h11.5s1.42,19.54,23.53,31.62Z"/><path class="cls-2" d="M198.11,45.73C191,41.67,186.92,40.85,182,38.81c-8.05-3.32-14.63-6-20.13-13.81a44,44,0,0,1-7.68-25h15.68s1.78,25.53,32.61,36.66v0Z"/><path class="cls-2" d="M190,105.74v32a110.27,110.27,0,0,1-19.17,1.57c-25.13,0-117.33-44.42-129-50.08l9.5-21.5c1.46,0.28,39.55,7.7,62,14C142.71,90,167.38,105.44,190,105.74Z"/><path class="cls-1" d="M170.83,139.33A110.27,110.27,0,0,0,190,137.76V195c-44.67,0-125.67-72.33-143.67-75.67a82,82,0,0,0-17.26-1.11l12.8-29C53.51,94.91,145.71,139.33,170.83,139.33Z"/><path class="cls-3" d="M198.11,45.73L190,62.67v43.07c-22.62-.3-47.29-15.73-76.67-24-22.4-6.29-60.49-13.71-62-14L81.33,0h72.82a44,44,0,0,0,7.68,25c5.5,7.83,12.08,10.49,20.13,13.81C186.92,40.85,191,41.67,198.11,45.73Z"/><path class="cls-4" d="M189.89,195L190,260H94.5c-18.18-99.35-64.69-117.39-75-120.2l9.54-21.58a82,82,0,0,1,17.26,1.11C64.32,122.66,145.2,194.88,189.89,195Z"/><path class="cls-5" d="M94.5,260H0V181.74L80.33,0h1L19.54,139.8C29.81,142.61,76.32,160.65,94.5,260Z"/><path class="cls-4" d="M181.33,0h9.33s2.73,16.25,17.39,24.95l-3.19,6.67C182.75,19.54,181.33,0,181.33,0Z"/><path class="cls-5" d="M220,0V42L197.67,260H190V62.67l18.06-37.72h0C193.4,16.25,190.67,0,190.67,0H220Z"/></svg>