<svg id="Layer_1" data-name="Layer 1" xmlns="http://www.w3.org/2000/svg" viewBox="0 0 1440 900"><title>blend</title><path d="M343.11,414.82c-1.35-4.76-2.74-9.52-4.11-14.28-2.71-9.36-5.19-18.79-8.23-28a50.47,50.47,0,0,1-2.33-12.59c-0.07-1.12-.09-2.24-0.22-3.35-0.08-.74-0.31-1.46-0.51-2.4-0.87.19-1.48,0.28-2.06,0.45-6.13,1.8-12.29,3.51-18.36,5.47a16.05,16.05,0,0,1-8,.6c-3.14-.57-6.29-1.13-9.45-1.63-4.23-.67-8.48-1.28-13-2,0,1.52-.15,2.77-0.06,4,0.19,2.71.41,5.42,0.77,8.11s-1,5.27-1.34,8c-1.35,10.94-2.95,21.86-4.44,32.78-0.58,4.25-1.1,8.52-1.69,13.11a16.45,16.45,0,0,0,2.25.86c11.14,2.16,22.28,4.27,33.42,6.44a9.41,9.41,0,0,0,5.15-.37c10.4-3.66,20.83-7.22,31.25-10.83a11,11,0,0,0,1.78-1.07C343.59,416.93,343.4,415.86,343.11,414.82Zm-34.9-51.27a1.18,1.18,0,0,1-1.79-.71,1.42,1.42,0,0,1,.52-1.08,11.13,11.13,0,0,1,2.23.47A5,5,0,0,1,308.21,363.55Zm17.32-5.14a3.28,3.28,0,0,1-1.06-1.22c-0.05-.4.5-0.89,1-1.68,0.62,0.81,1.27,1.29,1.23,1.7A3.19,3.19,0,0,1,325.53,358.41Z"/></svg>