<?xml version="1.0" encoding="utf-8"?>
<!-- Generator: Adobe Illustrator 19.2.1, SVG Export Plug-In . SVG Version: 6.00 Build 0)  -->
<svg version="1.1" id="Layer_1" xmlns="http://www.w3.org/2000/svg" xmlns:xlink="http://www.w3.org/1999/xlink" x="0px" y="0px"
	 viewBox="0 0 1440 810" style="enable-background:new 0 0 1440 810;" xml:space="preserve">
<title>perforated-surface</title>
<g>
	<path d="M380.9,308.5l16.5,2.8c5.4,0.9,10.7,2,16.1,2.7c5.4,0.7,10.5,2.3,16.2,2.4l0.6-5.6c7.4-2.7,14.8-5.3,22.1-8
		c7.3-2.7,15-5.1,23-8.5c-0.8-0.6-1.7-1.1-2.6-1.4c-4.2-0.8-8.5-1.4-12.8-2.1l-40.7-6.5c-8.7-1.4-17.4-2.8-26-4.2
		c-2-0.5-4.1-0.5-6.1,0.1c-7.9,2.6-15.8,5.2-23.7,7.8c-2.1,0.7-3.9,2.2-5,4.1c-2.2,3.5-5.1,6.5-8.5,8.8c-0.6,0.5-1.1,1.2-1.6,1.8
		c5.8,1.4,11.1,2.1,16.4,3C370.1,306.6,375.5,307.6,380.9,308.5z"/>
	<path d="M649.2,236.2l1.2-4.6c4.3-1.6,8.5-3.1,12.8-4.6c4.7-1.7,9.3-3.3,14-5c0.8-0.3,2-0.4,1.5-2.1l-10.8-1.4
		c-21.1-2.7-42.1-5.4-63.2-8.1c-1.9-0.3-3.8-0.1-5.7,0.6c-12.1,4-24.3,7.9-36.4,11.9c-0.9,0.4-1.8,0.9-2.7,1.4
		c4.3,1,79.7,11.4,86.8,12C647.5,236.3,648.4,236.3,649.2,236.2z"/>
	<path d="M634.6,206.4l60.9,7.5c3.5,0.4,7,0.8,10.5,1.1c0.5,0,1-0.2,1.4-0.4l0.8-3.8c8.4-3.5,17.2-6,26.2-9.9
		c-1.3-0.4-2.6-0.8-3.9-1.1c-6-0.8-12.1-1.4-18.1-2.1l-21.9-2.6c-9.5-1.1-19-2.2-28.5-3.4c-2.2-0.3-4.5-0.1-6.6,0.7
		c-10.3,3.4-20.6,6.8-30.9,10.1c-1,0.3-2,0.8-3.9,1.6c2.3,0.6,3.7,1,5,1.2C628.6,205.7,631.6,206.1,634.6,206.4z"/>
	<path d="M452.6,277.5l28.9,4.5c8.5,1.3,17,2.7,25.5,4c1.5,0.2,3.1,0.9,4.7-0.2l0.4-4.5c4.2-1.9,8.6-3.3,12.9-4.9
		c4.3-1.6,8.7-3.1,13.1-4.7c4.4-1.6,8.7-2.7,12.6-5.9c-6.6-0.8-13.4-1.9-20.2-2.9c-12.5-1.8-24.9-3.7-37.4-5.5
		c-7-1-13.9-2.1-20.8-3.1c-2.4-0.5-4.8-0.3-7.1,0.3c-15.3,5.1-30.6,10-46,15c-1.2,0.5-2.3,1.1-3.5,1.7c1.4,0.5,2.8,0.9,4.3,1.1
		C430.9,274.1,441.8,275.8,452.6,277.5z"/>
	<path d="M362.9,355.6c0.2-1.8,0.2-2.9-0.8-4.2C362,352.9,361.5,354,362.9,355.6z"/>
	<path d="M578,260.5c0.8-0.7,1.7-1.4,2.6-1.9c1.7-0.7,2-2.9,3.9-3.3c1.8-0.5,3.6-1.2,5.4-1.9c9.3-3.4,18.6-6.8,27.9-10.1
		c1.1-0.5,2.2-1,3.3-1.6c-2.2-1.1-4.5-1.7-6.9-1.8c-10.4-1.4-20.9-2.7-31.3-4.1c-13-1.8-25.9-3.6-38.9-5.4c-2.2-0.3-4.5-0.1-6.6,0.7
		c-6.2,2.1-12.4,4.1-18.7,6.1c-8.7,2.8-17.3,5.7-25.9,8.5c-1.1,0.5-2.2,1.1-3.3,1.7c1.3,0.4,2.6,0.8,3.9,1.1
		C521.7,252.4,549.9,256.7,578,260.5z"/>
	<path d="M371.6,351.3c-0.7-0.1-1.3-0.1-2,0l-1.4,4.2c0.3,0.5,0.7,0.8,1.1,1.1c37.7,7.2,75.3,14.4,113,21.5c2.2,0.4,4.4,0.7,6.9,1.1
		c0.4-2.1,0.9-3.9-0.5-6L371.6,351.3z"/>
	<path d="M357.7,336.9c10.4-4.2,21.3-7.4,32.9-12.1c-1.3-0.4-2.3-0.8-3.4-1.2c-14.5-2.6-29-5.1-43.5-7.6c-0.8,0-1.6,0.1-2.3,0.2
		c0.3,4.6,2.6,8.5,2.9,12.6c-0.3,0.3-0.6,0.6-0.9,0.8c-10.7,3.7-21.4,7.4-32.1,11.2c-1.4,0.5-2.8,0.6-4.2,0.3
		c-11.1-2.2-22.3-4.3-33.4-6.5c-0.6-0.2-1.2-0.5-1.8-0.8c-0.7-5.3,1.8-10.4,1-15.7c-4.2,0.4-17,4.6-20.6,6.8c0.2,1,0.4,2.1,0.8,3.1
		c4.8,12.5,9.7,25,14.5,37.6c0.5,1.7,2,2.9,3.8,3.1c12.4,2.4,24.8,4.9,37.2,7.3c0.7,0.1,1.4,0.1,2.2,0c1.2-3.3-0.6-6.3,0.2-9.7
		c1.8-0.7,3.7-1.5,5.6-2.2l38.7-14.2c0.9-0.4,1.9-0.9,2.8-1.4C357.8,344.6,357.1,340.9,357.7,336.9z"/>
	<path d="M111.9,334.7c0,0.3,0.5,0.6,1.3,1.6l-2.2-19.1C110.3,323,111.3,328.8,111.9,334.7z"/>
	<path d="M644.8,402.6c-0.9,1.8-1.5,3.6-1.6,5.5c3.7,0.9,7,2.3,10.8,1.5l-0.8-5.3C650.4,403.1,647.7,402.9,644.8,402.6z"/>
	<path d="M806.3,432.6c-0.8-0.1-1.6-0.3-2.3-0.5l-62.2-11.6l-51.8-9.7c-8.2-1.5-16.3-3.1-24.5-4.6c-1.7-0.3-3.4-1-5.3-0.2l-1.6,5
		c1,0.3,2.1,0.7,3.1,0.9c6.1,1.2,12.2,2.3,18.3,3.5l42.4,8c18.2,3.4,36.4,6.9,54.7,10.3c10.1,1.9,20.1,3.8,30.2,5.6
		c0.7,0.1,1.5,0.1,2.2,0c0.3-0.5,0.5-1.1,0.6-1.6C810.4,434.4,810.2,432.8,806.3,432.6z"/>
	<path d="M948.8,459.1l-49-9.1c-13.2-2.5-26.4-4.9-39.6-7.4c-13.5-2.5-27-5-40.5-7.5c-0.8-0.1-1.6-0.1-2.4,0c-0.2,1.2-0.3,2.1-0.5,3
		c-0.3,0.8-0.6,1.6-0.9,2.4c0.3,0.3,0.7,0.5,1.1,0.6c56.5,10.7,113,21.3,169.5,32c1.4,0.3,2.8,0.5,4.3,0.7c0.2,0,0.3,0,0.5-0.1
		c0.1-0.1,0.2-0.2,0.3-0.3v-6.1c-1.8-0.4-3-0.8-4.2-1C974.5,463.9,961.7,461.5,948.8,459.1z"/>
	<path d="M336.6,298.9c0.6,0.1,1.3,0.1,1.9-0.1c2-1.1,4-2.3,6-3.4c-2.9-0.4-5.8,0.3-8.3,2c-0.3,0.5-0.2,1.1,0.2,1.4
		C336.5,298.8,336.5,298.9,336.6,298.9z"/>
	<path d="M635.1,400.6c-45.5-8.5-91-17-136.5-25.5c-0.7-0.1-1.3-0.1-2,0c-0.1,0.8-0.3,1.6-0.5,2.4c-0.3,0.8-0.7,1.6-1.1,2.5
		c0.6,0.3,1.3,0.6,2,0.8c46.4,8.8,92.8,17.5,139.2,26.2c0.5,0,0.9,0,1.4-0.1c0.2-0.1,0.4-0.2,0.5-0.4l-0.7-5.1
		C636.7,401.1,635.9,400.8,635.1,400.6z"/>
	<path d="M1192.2,254.3l-38.1-4.5c-8.6-1-17.1-2.1-25.7-3.1c-7-0.8-14-1.5-21-2.3c-12.5-1.5-25.1-3-37.6-4.5
		c-9-1.1-18.1-2.1-27.2-3.1c-12.9-1.5-25.7-3.1-38.6-4.6c-9-1.1-18-2.1-27-3.1c-9.7-1.1-19.4-2.4-29-3.5c-9.6-1.1-19.4-2.3-29.1-3.4
		c-11.9-1.4-23.8-2.8-35.7-4.2c-12.1-1.4-24.1-2.8-36.2-4.2c-15.2-1.8-30.5-3.6-45.7-5.4c-9-1.1-18.1-2.1-27.2-3.1
		c-8.1-1-16.2-1.9-24.3-2.9c-1.6-0.3-3.2-0.1-4.7,0.4c-10.5,3.9-21.1,7.7-31.6,11.5c-0.7,0.3-1.5,0.6-1,1.7c0.3,0.2,0.6,0.3,0.9,0.4
		l38.1,4.8c11.7,1.4,23.5,2.8,35.2,4.3c11.6,1.4,23.2,2.9,34.7,4.4c14,1.7,27.9,3.3,41.9,5.1c14.4,1.8,28.9,3.6,43.3,5.4
		c12.4,1.5,24.8,3,37.1,4.6l40.5,5l36.7,4.5l28.1,3.4l41.9,5.2l35.2,4.4c11.3,1.4,22.5,2.7,33.8,4.1c8.9,1.1,17.8,2.3,26.6,3.4
		c11.9,1.5,23.8,2.9,35.7,4.4c1.6,0.2,3.2,0.3,4.8,0.5c1.3,0.2,2.6-0.2,3.5-1c5.9-4.9,11.8-9.8,17.8-14.7c0.7-0.7,1.3-1.5,1.8-2.3
		c-4.7-1.7-8.7-1.8-12.7-2.2C1222.3,257.9,1207.2,256.1,1192.2,254.3z"/>
	<path d="M1087.9,391.7c-17.5-2.9-35-5.7-52.5-8.5c-15-2.4-30-4.7-45-7.1c-16.7-2.7-33.4-5.5-50.1-8.2c-21.2-3.4-42.3-6.6-63.5-10
		c-16.7-2.7-33.4-5.5-50.1-8.2L759,338.9l-39.3-6.3c-14.7-2.4-29.3-4.8-44-7.1c-12.7-2.1-25.5-4.1-38.3-6.1
		c-17-2.8-34.2-5.6-51.1-8.3s-33.8-5.3-50.7-8c-14-2.2-28.1-4.4-42.1-6.8c-2.2-0.4-4.4-0.2-6.5,0.6l-47.8,17.4
		c-1.2,0.5-2.4,1-3.5,1.5c-0.6,0.5-1.1,1-1.6,1.6c1.4,0.4,2.3,0.7,3.2,0.8c8,1.4,16.1,2.7,24.1,4.1c16.1,2.8,32.1,5.6,48.2,8.3
		l42.5,7.2c16.2,2.8,32.5,5.5,48.7,8.3l41.6,7.1c13.5,2.3,27.1,4.7,40.6,7c18.2,3.1,36.5,6.1,54.8,9.2l54.3,9.3
		c13.5,2.3,27.1,4.6,40.6,6.9c18.1,3.1,36.2,6.2,54.3,9.3c15.8,2.7,31.5,5.3,47.3,8c11.8,2,23.6,4.1,35.4,6.1
		c12.4,2.1,24.9,4.1,37.3,6.2c14.8,2.5,29.6,5,44.4,7.7c2,0.5,4.2-0.1,5.7-1.5c10.6-8.7,21.2-17.4,31.8-26.2c0.6-0.6,1.2-1.3,1.7-2
		C1090.1,391.5,1088.9,391.6,1087.9,391.7z"/>
	<path d="M972.3,426.8l-67.5-12l-83.1-14.6c-15.3-2.7-30.5-5.3-45.8-8c-17.2-3.1-34.3-6.2-51.5-9.2c-13.5-2.4-27.1-4.7-40.6-7.1
		c-10.9-1.9-21.7-3.8-32.6-5.7l-81.7-14.4l-58.6-10.3c-11.1-1.9-22.3-3.9-33.5-5.9l-41.5-7.4c-9.1-1.6-18.3-3.2-27.4-4.8
		c-2.2-0.5-4.5-0.4-6.6,0.3c-9.5,3.5-18.9,6.9-28.4,10.4c-0.7,0.4-1.4,0.8-2,1.4c1.5,0.8,3.2,1.3,4.9,1.5c9,1.6,17.9,3.1,26.9,4.7
		c8.2,1.5,16.3,3.2,24.5,4.7c14.5,2.7,28.9,5.3,43.4,7.9c12.4,2.3,24.9,4.4,37.3,6.7c11.5,2.1,22.9,4.3,34.4,6.4
		c3.2,0.5,6.4,0.9,9.5,1.5c10.2,1.9,20.4,3.9,30.6,5.8c5,0.9,10.1,1.7,15.1,2.6c10.4,1.9,20.7,3.9,31.1,5.8c5.4,1,10.8,1.8,16.1,2.8
		c12,2.3,23.9,4.6,35.8,6.8c6,1.1,12,1.9,18,3c9.8,1.8,19.5,3.8,29.2,5.6c9.3,1.7,18.6,3.2,27.8,5c8,1.6,16,2.6,24,4.3
		c9.2,2,18.6,3.3,27.8,5.2c8.3,1.7,16.7,2.7,25,4.5c9.2,2,18.5,3.5,27.8,5.1c6.9,1.2,13.9,2.2,20.8,3.5c11,2,22,4.1,33,6.2
		c9.5,1.7,18.9,3.5,28.3,5.2c9.7,1.8,19.5,3.4,29.2,5.3c10.4,2,20.8,3.5,31.1,5.7c0.9,0.2,1.8,0.5,2.7,0.9c0.4,3.4,0.2,6.8-0.4,10.2
		c-0.3,1.6-1.8,2.8-3.5,2.6c-1.1,0-2.1-0.1-3.1-0.2l-2,6.2c3.4,0.7,6.4,1.8,9.8,1.5c0.2-1,0.4-1.9,0.5-2.9c0.1-2.6,0.2-5.1,0.2-7.7
		c-0.1-2.3,1-4.4,2.9-5.7c6.9-5.6,13.8-11.4,20.7-17.1c1.5-1.2,3.3-2.4,4.5-5.1c-1.7-0.5-3.4-0.9-5.5-1.1
		C1010.7,433.5,991.5,430.2,972.3,426.8z"/>
	<path d="M1099.2,346.3c-16.3-2.3-32.6-4.7-48.9-7.1c-18.1-2.7-36.3-5.4-54.5-8.1c-16.8-2.4-33.5-4.8-50.3-7.2
		c-15.1-2.2-30.1-4.5-45.1-6.7l-77.8-11.4c-13.4-1.9-26.9-3.9-40.3-5.9c-18.5-2.8-37-5.6-55.5-8.3c-14.7-2.2-29.4-4.3-44.1-6.4
		c-18.5-2.7-37-5.4-55.5-8.1c-12-1.8-24-3.6-36-5.4c-7.6-1.1-15.2-2.2-22.8-3.3c-2.3-0.3-4.5,0-6.6,0.8
		c-14.4,5.3-28.8,10.5-43.2,15.8c-1,0.4-2,0.9-3,1.5c1,0.5,2,0.9,3.1,1.2l38.4,6c13.6,2.1,27.2,4.2,40.8,6.3
		c13.1,2.1,26.2,4.2,39.3,6.2c11.3,1.7,22.5,3.3,33.7,5.1c13.5,2.1,26.9,4.3,40.3,6.4c11.5,1.9,23.1,3.6,34.6,5.4
		c9,1.4,18,2.9,27,4.3c11.3,1.7,22.7,3.4,34.1,5.2c12.9,2.1,25.8,4.2,38.8,6.2c11.5,1.8,23.1,3.4,34.6,5.2
		c17.4,2.8,34.7,5.6,52.1,8.3c13.3,2.1,26.5,4,39.8,6.1c16.3,2.6,32.5,5.2,48.8,7.7l51.6,8.1c10.5,1.6,20.9,3.2,31.3,4.9
		c2.5,0.5,5.1-0.2,7-2c8.1-6.8,16.3-13.5,24.4-20.2c1.2-1,2.3-2.1,3.9-3.5c-2.1-1.7-4-1.6-5.8-2C1122,349.6,1110.6,348,1099.2,346.3
		z"/>
	<path d="M1283.2,234.2c-0.9-0.4-1.8-0.6-2.8-0.9c-3.5-0.4-7-0.8-10.5-1.1l-22.7-2.6c-9.4-1-18.8-2.1-28.1-3.1
		c-13.2-1.4-26.4-2.8-39.6-4.2c-10.2-1.1-20.3-2.3-30.5-3.5c-10.2-1.2-20.3-2.1-30.5-3.3c-13.3-1.5-26.7-3-40-4.4
		c-13.3-1.4-26.4-2.8-39.6-4.2c-13-1.4-26-3-39.1-4.4c-13.1-1.4-26.4-2.8-39.6-4.2c-15.9-1.8-31.8-3.6-47.7-5.4
		c-13.2-1.4-26.4-2.8-39.6-4.2c-21.6-2.4-43.2-4.8-64.8-7.2c-2.9-0.4-5.8,0-8.4,1.1c-2,1.1-4.2,1.7-6.5,2l-1.4-4.7L784,179
		c-10.3-1.2-20.7-2.3-31-3.5s-21-2.2-31.5-3.4c-1.9-0.3-3.8-0.1-5.6,0.5c-12,4-24,7.8-36,11.8c-0.9,0.3-1.7,0.8-2.5,1.2
		c0.2,0.3,0.4,0.6,0.7,0.9c26.2,3.2,52.3,6.3,78.5,9.4c1.1,0.1,2.3,0.1,3.4,0l1-4.1c6.7-2.4,13.5-4.9,20.2-7.2
		c1.2-0.5,2.6-0.3,3.7,0.4c0.7,1.6,0.3,2.8-1.4,3.5c-1.2,0.5-2.4,0.9-3.6,1.4c-4.5,1.6-9,3.3-13.5,5c-0.7,0.3-1.6,0.4-1.6,1.8
		c0.6,0,1.3,0.2,2,0.3c6.3,0.8,12.7,1.5,19,2.2l38.6,4.5l30,3.5l27.6,3.2l29.1,3.4c9.5,1.1,19,2.2,28.6,3.3
		c6.8,0.8,13.7,1.5,20.5,2.3c13,1.5,26,3,39,4.6c9.7,1.1,19.4,2.2,29,3.3c12.1,1.4,24.1,2.8,36.2,4.2c9.7,1.1,19.4,2.2,29.1,3.3
		c7.6,0.9,15.2,1.8,22.9,2.7l27.1,3.1c9.7,1.1,19.4,2.3,29.1,3.4s19.4,2.1,29.1,3.3c15.7,1.8,31.4,3.7,47.2,5.5c3,0.4,6,0.6,9.1,1
		c1.6,0.2,3.2-0.3,4.4-1.4c2.6-2.2,5.2-4.3,7.8-6.4c0.6-0.4,1.1-1.3,2.1-0.9c1.7,2.3-1.5,4.9,0.4,7.2l2.7-0.6l0.9,4.6
		c1.2-0.8,2.1-1.4,3-2c1.7-1.2,2.8-3.1,2.9-5.2c0.3-4.1,0.9-8.3,1.3-12.4C1283.5,235.9,1283.4,235,1283.2,234.2z"/>
	<path d="M1210.9,287c-6.2-0.8-12.4-1.5-18.6-2.2c-11.9-1.5-23.8-3-35.7-4.6l-34.7-4.4c-11.3-1.4-22.5-2.8-33.8-4.2
		c-8.6-1.1-17.1-2.1-25.7-3.2c-11.6-1.5-23.1-3-34.7-4.5c-9-1.2-18.1-2.3-27.1-3.4c-9-1.1-18.1-2.2-27.1-3.4
		c-6.3-0.8-12.7-1.7-19-2.5c-8.4-1.1-16.8-2.1-25.2-3.2c-8.7-1.1-17.5-2.1-26.2-3.2c-8.7-1.1-17.4-2.3-26.1-3.4
		c-14-1.8-27.9-3.4-41.9-5.2c-13.6-1.7-27.2-3.6-40.9-5.3c-11.9-1.5-23.8-2.9-35.7-4.4c-20.9-2.7-41.8-5.4-62.8-8.1
		c-1.7-0.3-3.5-0.1-5.2,0.6c-4.5,1.7-9,3.3-13.5,4.9c-6.6,2.4-13.2,4.8-19.8,7.2c-1.1,0.4-2.5,0.5-3.3,2.7l535.1,71
		c1.6,0.2,3.2,0.2,4.9,0.4c2.2-1.8,4.5-3.6,6.7-5.4c4.9-4.1,9.9-8.1,14.8-12.2c0.8-0.7,1.9-1.3,1.4-3
		C1214.9,287.7,1212.9,287.3,1210.9,287z"/>
	<path d="M1145.9,311.9c-13-1.8-26-3.5-39-5.2c-15.4-2.1-30.7-4.2-46.1-6.3c-10.6-1.5-21.2-2.8-31.8-4.3l-39.4-5.4
		c-12.8-1.7-25.7-3.5-38.5-5.2c-11.1-1.5-22.2-3-33.3-4.5c-10.5-1.4-20.9-2.8-31.4-4.2c-10.1-1.4-20.2-2.9-30.4-4.2
		c-10.8-1.5-21.6-2.8-32.3-4.3c-10.3-1.4-20.6-2.9-30.9-4.3c-17.9-2.4-35.8-4.7-53.7-7.2c-20-2.7-39.9-5.5-59.9-8.2
		c-13.6-1.9-27.3-3.6-40.9-5.5c-2.2-0.3-4.5-0.1-6.5,0.7c-9,3.4-18,6.6-27,9.9c-5.3,1.9-10.5,3.8-15.8,5.8c-0.8,0.4-1.5,0.8-2.2,1.3
		c0.8,1.6,2,1.4,3.1,1.5c20.4,2.9,40.8,5.9,61.2,8.8l48,6.9c16.6,2.4,33.2,4.9,49.8,7.2c14.4,2.1,28.8,4.1,43.2,6.1
		c19.1,2.8,38.3,5.6,57.4,8.3c16.6,2.4,33.2,4.7,49.8,7c12,1.7,24,3.6,36,5.3c14.6,2,29.1,4,43.7,6.2c16.6,2.4,33.2,4.9,49.8,7.3
		c18.8,2.7,37.7,5.3,56.5,8c21,3,42.1,6.1,63.1,9.2c2.2,0.5,4.5-0.1,6.2-1.6c2.9-2.5,5.9-4.9,8.8-7.4c0.6-0.5,1.2-1.2,2.1-0.5
		c1.1,3-0.9,5.9-0.6,9c0.3,3.1-1.2,5.9,0,9.4c0.8-0.6,1.5-1.3,2.2-2.1c0.3-0.8,0.4-1.6,0.3-2.4c0.3-4,0.7-8,1-12
		c0.6-6.9,0.4-5.8,5-9.6c2.3-2,4.7-3.9,7-5.8c0.6-0.7,1.2-1.5,1.7-2.4c-1.4-0.4-2.2-0.6-3-0.7L1145.9,311.9z"/>
</g>
</svg>
