<svg id="Layer_1" data-name="Layer 1" xmlns="http://www.w3.org/2000/svg" viewBox="0 0 1920 1080"><title>K_Mask_Position_system_00000</title><path d="M1335.28,613.88a119.64,119.64,0,0,1-8.89,9.2c-51.13-9.53-101.86-19-152.59-28.44Q1108,582.36,1042.3,570q-73.3-13.67-146.6-27.28-81.07-15.13-162.13-30.34-91.21-17-182.43-34l-78.25-14.6c-0.63-.12-1.24-0.3-1.87-0.45-2.9-.7-4.2-2.41-4-5.26,0.17-2,.4-4,0.67-6.58,1-.38,2.53-1.07,4.14-1.66l399.21-144C921,287.91,971,270,1020.8,251.8c6.95-2.54,13.53-3.3,21.41-1.16-2.12.89-3.61,1.59-5.16,2.15q-132.4,48.43-264.81,96.84Q629.48,401.82,486.72,454c-1.87.69-4.4,0.48-5.74,2.86,13.8,1.39,27,4.49,40.23,6.9Q577.11,474,633,484.33,691.69,495.15,750.39,506L857,525.61,968.74,546.2,1081,566.89l127.8,23.57L1325.71,612c3.12,0.58,6.23,1.22,9.56,1.88C1332.08,617.72,1331.94,613.23,1335.28,613.88Z"/></svg>