<svg id="Layer_1" data-name="Layer 1" xmlns="http://www.w3.org/2000/svg" viewBox="0 0 1920 1080"><title>K_Mask_Cower_00000</title><path d="M543.4,372.09q-12.44,4.16-24.88,8.32-12.9,4.29-25.8,8.54t-25.83,8.57l-12.94,4.35c-4.25,1.44-8.49,3-12.76,4.33a85.55,85.55,0,0,1-12.41,3,81.47,81.47,0,0,1-12.65,1c-2.16,0-4.32,0-6.47,0H408c-0.17,0-.22,0-0.31-0.09a1.61,1.61,0,0,1-.1-0.46c-0.07-.3-0.14-0.61-0.21-0.91a23.14,23.14,0,0,1-.46-3.24q-0.55-6.8-1.11-13.6t-1.06-13.51q-0.25-3.38-.49-6.76a21.35,21.35,0,0,0-.51-4.48,2.33,2.33,0,0,0-1.38-1.63,13.88,13.88,0,0,0-3-.61q-6.73-1.07-13.44-2.17-13.46-2.19-26.92-4.41l-13.41-2.21c-2.15-.35-4.3-0.71-6.44-1.1l-1.44-.26-0.83-.15c-0.24,0-.21,0-0.32-0.21a1.7,1.7,0,0,1-.08-0.41l-0.6-2.86-0.33-1.57a1.73,1.73,0,0,0-.08-0.36,1.38,1.38,0,0,0-.29,0l-0.66-.08-2.88-.37v6.71l-13.26-2-1.61-.24-0.72-.11-0.36-.05-0.36-.05,0-.19a3.69,3.69,0,0,1-.11-0.85l-0.11-.85-0.23-1.78L314,342.47l-1-7.64a2.09,2.09,0,0,1,2.32,1.58,7.85,7.85,0,0,0,.6,1.38,1,1,0,0,0,.57.53,12.68,12.68,0,0,0,1.3.16c3.56,0.5,7.05,1.4,10.63,1.75a29,29,0,0,0,5.76,0,0.54,0.54,0,0,0,.66-0.84l-0.15-1.7-0.27-3-1.1-12.53-1.1-12.54-0.55-6.26-0.07-.76a2,2,0,0,0,0-.38,1.75,1.75,0,0,0-.38-0.06l-1.68-.26-3-.46-6-.91-3-.46-0.72-.11a2.46,2.46,0,0,0-.72-0.11,2.27,2.27,0,0,0-.21.69l-0.24.8-0.35,1.17a2.37,2.37,0,0,1-.17.56c-0.12.18,0.09,0.08-.23,0.14a2.72,2.72,0,0,1-.46,0H303.27a2.12,2.12,0,0,1-.38,0,2,2,0,0,1-.09-0.47l-0.51-2.64L302,298.83a4.27,4.27,0,0,0-.14-0.71c-0.11-.28,0-0.13-0.2-0.22a2.9,2.9,0,0,0-.49-0.1l-2.71-.56-2.84-.59-0.72-.15a0.64,0.64,0,0,1-.81-0.91l-0.11-.94c-0.24-2-.49-4.07-0.71-6.1-0.9-8.39-1.6-16.81-2.38-25.22q-0.59-6.35-1.18-12.7c-0.18-2-.35-3.93-0.55-5.89-0.12-1.18-.15-2.43,1-3.08a2.44,2.44,0,0,0,.77-0.36,1.74,1.74,0,0,0,0-.81c0-.38,0-0.76-0.05-1.14s0-.29.36-0.36l0.82-.18,6.12-1.37,12.07-2.7,24.4-5.46,24.53-5.48,6.07-1.36c0.17,2.29.06,4.76,0.78,7a3.26,3.26,0,0,0,3.11,2.28c1.23,0.13,2.48.11,3.71,0.13s2.72,0,4.08-.07a31.69,31.69,0,0,0,4.07-.49q1-.19,1.94-0.45l0.88-.26a4.54,4.54,0,0,0,1.23-.43c0.2-.15.18-0.06,0.14-0.32l-0.05-.42-0.13-1-0.26-2-0.51-3.95-0.53-4.08c0-.28-0.07-0.19.15-0.33a2.3,2.3,0,0,1,.55-0.14l1-.25,2.09-.54c5.47-1.43,11-3,16.7-2.83a85.86,85.86,0,0,1,8.56.84c2.89,0.35,5.77.73,8.65,1.11,5.7,0.74,11.4,1.47,17.13,1.9a103,103,0,0,0,17.22-.58,93.23,93.23,0,0,1,17.33.16c5.73,0.53,11.43,1.3,17.14,2l17.47,2.15q8.74,1.07,17.48,2.12c3.1,0.37,6.68.61,8.37,3.65a15.15,15.15,0,0,1,1.61,5.56c0.32,2.87.38,5.79,0.54,8.67q0.52,8.81,1,17.62,1,17.52,2,35t2.06,35q1,17.17,2,34.34,0.23,4.15.46,8.29C534.56,375,543,365.09,543.4,372.09ZM395.64,261.86l0.1-.93a2.42,2.42,0,0,0,0-.37c0-.33.05-0.1-0.14-0.24a3.29,3.29,0,0,0-.71-0.25,7.45,7.45,0,0,0-.87-0.27c-1.13-.25-2.31-0.34-3.46-0.49l-7-1-14.15-1.95q-14-1.9-28-3.6l-7.95-1c-1.32-.16-2.65-0.38-4-0.47a0.53,0.53,0,0,0-.57.32c-0.31.41-.59,0.85-0.91,1.25,8.89,0.95,17.74,2.2,26.58,3.51s17.53,2.65,26.32,3.78c4.91,0.63,9.83,1.2,14.77,1.65C395.69,261.36,373.15,259.81,395.64,261.86Zm-7.45,9.6,0.43-.77a0.43,0.43,0,0,0,0-.62,7,7,0,0,0-.64-1.14,1.57,1.57,0,0,0-1.09-.41l-1.92-.34q-3.5-.61-7-1.17c-4.81-.76-9.63-1.42-14.47-2q-4.25-.47-8.52-0.82c0.23,0.44.43,0.89,0.62,1.34a3.33,3.33,0,0,0,.42.85,1.65,1.65,0,0,0,1,.34l1.83,0.39c2.32,0.48,4.65.89,7,1.26,4.74,0.75,9.5,1.32,14.26,1.93,2.72,0.35,5.44.7,8.15,1.11C388.4,271.1,377.54,269.86,388.2,271.46Zm-29.45,27.08-0.34.77c-0.14.32-.25,0.4,0,0.66s0.6,0.82,1,1.17a1.55,1.55,0,0,0,1,.44l1.9,0.28c2.36,0.35,4.72.73,7.08,1.12,4.75,0.77,9.5,1.55,14.28,2.13,2.81,0.34,5.63.61,8.46,0.79a15.58,15.58,0,0,0-1.16-2.13,1.3,1.3,0,0,0-.83-0.33l-1.84-.39c-2.33-.48-4.67-0.91-7-1.3-4.75-.79-9.52-1.43-14.3-2.06-2.73-.36-5.45-0.72-8.18-1.11C358.56,298.95,369.39,300.06,358.74,298.53Zm-2-25.76-0.41.8a0.46,0.46,0,0,0,0,.64,4.69,4.69,0,0,0,.76,1.17,2.72,2.72,0,0,0,1.34.34l1.7,0.28,7.1,1.15c4.79,0.76,9.59,1.46,14.4,2q4.28,0.49,8.57.82c-0.52-.72-0.93-1.52-1.47-2.23s-1.45-.6-2.21-0.74q-3.55-.64-7.11-1.2c-4.81-.75-9.63-1.4-14.46-2l-8.28-1C356.54,273.14,367.26,274.08,356.73,272.77Zm35.91,42c-0.37-.76-0.61-1.61-1-2.34a0.61,0.61,0,0,0-.49-0.36c-0.6-.15-1.21-0.25-1.81-0.38q-3.62-.74-7.26-1.35c-4.82-.82-9.66-1.5-14.51-2.14-2.79-.37-5.59-0.72-8.38-1.07a3.55,3.55,0,0,0,.81,2.41,3.15,3.15,0,0,0,1.71.79c2.31,0.44,4.67.72,7,1.07,5.23,0.8,10.46,1.64,15.71,2.32,2.75,0.36,5.5.69,8.26,1C391.83,313.14,388.18,314.2,392.63,314.77Zm-2.16-25.91a23.31,23.31,0,0,0-1-2.33,0.59,0.59,0,0,0-.46-0.31c-0.6-.16-1.22-0.28-1.82-0.41-2.4-.52-4.81-1-7.23-1.36-4.82-.8-9.68-1.41-14.53-2-2.74-.34-5.48-0.68-8.22-1a3.25,3.25,0,0,0,.56,2.41,2.8,2.8,0,0,0,1.65.76c2.43,0.43,4.89.69,7.33,1,5.31,0.75,10.62,1.54,15.93,2.25,2.59,0.35,5.18.67,7.77,1C389.72,287.27,386.64,288.36,390.47,288.86Zm-30.2,26.56a3.35,3.35,0,0,0,.18,2.45,2.26,2.26,0,0,0,1.42.89c0.75,0.19,1.54.27,2.3,0.39l4.14,0.65q8.28,1.29,16.58,2.51c1.52,0.22,3.05.52,4.58,0.66a25.52,25.52,0,0,0,3.73-.22c-0.26-.41-0.49-0.84-0.72-1.27a1.82,1.82,0,0,0-.54-0.76,4.52,4.52,0,0,0-1.32-.25l-1.76-.3L382,319l-13.82-2.29-7.9-1.3C359.59,318.7,370.91,317.18,360.27,315.43Zm33.43,25.09,0.45-.81c0.2-.36.16-0.33-0.07-0.64a13.08,13.08,0,0,0-.83-1.1,1.78,1.78,0,0,0-1.17-.5l-1.74-.3-7.05-1.22c-4.76-.81-9.53-1.59-14.31-2.24q-4.15-.56-8.32-1c0.24,0.44.44,0.89,0.65,1.34a3.37,3.37,0,0,0,.43.84,1.73,1.73,0,0,0,1,.36l1.82,0.43c2.3,0.52,4.62,1,6.94,1.38,4.7,0.83,9.44,1.48,14.16,2.17,2.7,0.4,5.4.8,8.09,1.27C393.91,340.14,383.12,338.7,393.7,340.52Zm-0.44-8.63a3.21,3.21,0,0,0-.44-2.36,2.45,2.45,0,0,0-1.51-.75c-2.18-.41-4.4-0.68-6.59-1l-15.9-2.45L360.36,324c0.17,0.49.3,1,.44,1.5a3.33,3.33,0,0,0,.32,1,1.58,1.58,0,0,0,1,.37l1.84,0.4c2.33,0.5,4.67.94,7,1.35,4.73,0.82,9.48,1.51,14.23,2.17l8,1.13C393.59,328.76,382.55,330.34,393.26,331.89ZM358,290.11a3,3,0,0,0,.54,2.35,2.78,2.78,0,0,0,1.58.7c2.37,0.42,4.77.7,7.15,1.05,5.43,0.8,10.86,1.61,16.29,2.39a37.89,37.89,0,0,0,4,.51c1.26,0,2.52-.05,3.77-0.05a15.78,15.78,0,0,0-1.4-2.19,1.47,1.47,0,0,0-.9-0.31l-1.86-.33q-3.53-.61-7.06-1.19c-4.66-.75-9.33-1.44-14-2q-4-.5-8.1-0.9C357.71,293,368.62,291.15,358,290.11ZM362.35,341l-0.32.82c-0.13.33-.24,0.42,0,0.69a8.63,8.63,0,0,0,.81,1.08,2.25,2.25,0,0,0,1.24.42l1.83,0.34q3.41,0.63,6.83,1.23,7,1.22,14.11,2.25,4.16,0.6,8.33,1.11c-0.2-.45-0.37-0.92-0.54-1.38a3.3,3.3,0,0,0-.36-0.87,1.55,1.55,0,0,0-.93-0.36l-1.81-.44c-2.3-.53-4.61-1-6.93-1.41-4.7-.84-9.43-1.49-14.15-2.18-2.7-.4-5.4-0.81-8.08-1.29C362.18,341.49,372.92,342.92,362.35,341Zm0.84,8.49-0.31.78a2,2,0,0,0-.13.31,0.31,0.31,0,0,0,0,.31,3,3,0,0,0,.66,1.12,3.07,3.07,0,0,0,1.29.37l1.77,0.37q3.47,0.71,7,1.32c4.65,0.82,9.31,1.53,14,2.23,2.73,0.41,5.45.83,8.18,1.26-0.13-.49-0.22-1-0.32-1.5a1.58,1.58,0,0,0-.25-0.79,1.64,1.64,0,0,0-.61-0.2l-0.81-.22-1.79-.47c-2.27-.57-4.56-1-6.87-1.47-4.63-.85-9.29-1.48-14-2.17-2.62-.39-5.23-0.79-7.84-1.26C363,350,373.79,351.46,363.2,349.54Zm63.74-81a4,4,0,0,0,.75.77,2.54,2.54,0,0,0,1.17-.23l2.41-.63,4.91-1.29c3.18-.84,6.42-1.57,9.57-2.52a1.87,1.87,0,0,0,1.57-1.56,2.63,2.63,0,0,0-.07-0.75c0-.14-0.07-0.28-0.11-0.41a1.17,1.17,0,0,0-.08-0.22c-0.1-.18,0-0.12-0.24-0.12a6.86,6.86,0,0,0-1.19.22l-1.28.25c-3.2.66-6.38,1.44-9.52,2.32q-2.62.73-5.21,1.55c-0.61.19-1.63,0.29-2,.88a18.22,18.22,0,0,0-.68,1.76C427.21,268.78,427.28,267.77,426.94,268.51Zm23.26,28.29-0.33-.56a2.18,2.18,0,0,0-.33-0.56,1.7,1.7,0,0,0-.54.12l-0.72.16-2.52.59q-2.48.6-4.93,1.26-5,1.36-9.92,3a1.43,1.43,0,0,0-1,1c-0.32.73-.59,1.49-0.94,2.21C435,302.7,441,301,447,299.14l1.18-.36a3.4,3.4,0,0,0,1-.36,5.86,5.86,0,0,0,1-1.61C450,296.43,449.79,297.4,450.19,296.8ZM448.56,271a6.59,6.59,0,0,0-1.35-.69,1.75,1.75,0,0,0-.71.13l-1.29.32-5,1.23c-3.28.82-6.56,1.65-9.82,2.53a3.74,3.74,0,0,0-2,.84c-0.52.6-.88,1.33-1.38,1.95a15.9,15.9,0,0,0,3.27-.27c1.65-.24,3.3-0.54,4.93-0.87a92.4,92.4,0,0,0,9.7-2.4,17.24,17.24,0,0,0,1.67-.6c1-.42,1.35-1.35,2-2.15C447.59,270.5,447.89,271.81,448.56,271Zm0.61,7.17c-6.16,1.69-12.33,3.32-18.46,5.11A3,3,0,0,0,429,284a10.36,10.36,0,0,0-.79,1.63c-0.11.22-.12,0.22,0,0.43l0.32,0.43a1.13,1.13,0,0,0,.22.29c0.13,0.08.07,0,.24,0a4.74,4.74,0,0,0,.73-0.22l2.55-.75q5.06-1.49,10.11-3l2.82-.85a26.44,26.44,0,0,0,2.82-.86,1,1,0,0,0,.47-0.79c0.2-.72.38-1.45,0.62-2.17C441.84,280.13,448.55,280,449.16,278.13Zm2.75,43.94c-0.23-.17-0.43-0.39-0.67-0.55a0.89,0.89,0,0,0-.83,0l-2.38.64-4.77,1.3c-3.14.86-6.28,1.74-9.41,2.67a3,3,0,0,0-1.66.74,8.83,8.83,0,0,0-.76,1.45,1.69,1.69,0,0,0-.21.38,4131118.56,4131118.56,0,0,0,.68.79,1.94,1.94,0,0,0,.61-0.17l2.27-.6c3-.79,6.06-1.57,9.05-2.48,1.67-.51,3.33-1.06,5-1.68l1.18-.46a8.06,8.06,0,0,0,1.26-.53,2.9,2.9,0,0,0,.68-1.52C451.44,321.73,451.7,322.56,451.91,322.07Zm-1.78-17.65c-0.76.11-1.53,0.16-2.29,0.28a20.68,20.68,0,0,0-2.29.55q-2.46.67-4.91,1.37L435.83,308a24.06,24.06,0,0,0-4.2,1.31,1.8,1.8,0,0,0-1,1.16c-0.26.74-.43,1.51-0.71,2.24L440,309.89l4.78-1.34a39.13,39.13,0,0,0,4.22-1.22c1.3-.53,1.52-1.65,1.11-2.91C449,304.58,450.82,306.54,450.13,304.42Zm-1-16.54a12.67,12.67,0,0,0-3.18.28c-1.69.26-3.38,0.6-5.05,1a68.16,68.16,0,0,0-9.8,2.67,6.51,6.51,0,0,0-1.35.63,1.08,1.08,0,0,0-.46.8c-0.12.74-.07,1.5-0.18,2.25,5.8-1.65,11.61-3.29,17.41-5l1.17-.34a2.44,2.44,0,0,0,1-.36,2.19,2.19,0,0,0,.47-0.81,2,2,0,0,0,0-1.11C446.48,287.61,449.16,288.19,449.13,287.88Zm1.35,24.7-10,2.81-4.85,1.38a19.68,19.68,0,0,0-3.68,1.16,1.7,1.7,0,0,0-.86,2.21,1.34,1.34,0,0,0,.47.85,2.07,2.07,0,0,0,.64-0.18l0.64-.18,2.55-.72c3.31-.94,6.62-1.87,9.92-2.83l2.82-.82a10,10,0,0,0,2-.67c1.23-.67,1-2,0.36-3C444.65,314.22,451.73,314.8,450.48,312.58Zm-18.56,24.47a6.46,6.46,0,0,0,.58.94c0.12,0.13,0,.11.19,0.13A1,1,0,0,0,433,338l0.64-.19,2.27-.68,4.64-1.39c3-.91,6.05-1.83,9.07-2.8l1.08-.35a1.57,1.57,0,0,0,.72-0.34A3.75,3.75,0,0,0,452,331a2.82,2.82,0,0,0,.3-0.76,1.7,1.7,0,0,0-.38-0.4,0.87,0.87,0,0,0-.48-0.37,4.11,4.11,0,0,0-1.09.35l-1.18.37-9.11,2.89-5.18,1.67-1.27.42a3.75,3.75,0,0,0-1.09.38,3.7,3.7,0,0,0-.59,1.53C432.15,337.42,432.14,336.51,431.92,337.06Zm23.53,34.4c-6.3,1.78-12.69,3.4-18.7,6a2.16,2.16,0,0,0-1.41.92c-0.25.68-.36,1.41-0.58,2.1a158.19,158.19,0,0,0,18.68-5.89,1.9,1.9,0,0,0,1.43-.94c0.25-.72.35-1.49,0.59-2.22C448.24,373.49,455,372.94,455.45,371.46Zm-19,25,0.47,0.52,0.23,0.26q0.1,0.23.3,0.07a6.61,6.61,0,0,0,1.43-.5l2.86-1,5.71-2,5.7-2,1.42-.52a8.16,8.16,0,0,0,1.42-.52c0.5-.31.52-1.15,0.73-1.65a10.84,10.84,0,0,0-3,.38c-1.63.32-3.24,0.72-4.84,1.14a88.19,88.19,0,0,0-9.83,3,12.32,12.32,0,0,0-1.53.68c-0.84.47-.82,1.36-1.12,2.19C436.7,396.72,436.66,395.75,436.42,396.42Zm16.68-50.13-9.25,2.82c-3,.93-6.13,1.76-9.12,2.83a2.73,2.73,0,0,0-1.28,1.22,0.89,0.89,0,0,0-.15.63c0,0.14,0,.29,0,0.43s0,0.25.31,0.29a4.44,4.44,0,0,0,2,.05l2.37-.73q4.69-1.46,9.37-3c1.74-.56,3.56-1,5.26-1.71a1.62,1.62,0,0,0,.84-1.31,6.57,6.57,0,0,0-.4-1.54C446.77,348.23,453.36,347.38,453.1,346.29Zm2.31-41.88a0.55,0.55,0,0,0,.72.2l1.2-.3,2.3-.58,4.6-1.17c3.09-.79,6.18-1.6,9.26-2.45a3.39,3.39,0,0,0,1.07-.31,1,1,0,0,0,.23-0.53c0.18-.76.24-1.55,0.41-2.31L464,300.11l-5.31,1.52-1.32.38a2.82,2.82,0,0,0-1.11.45,4.26,4.26,0,0,0-.75.92,1.64,1.64,0,0,0-.11,1C455.53,304.52,455.42,304.11,455.41,304.42Zm0.32,9.4a135.43,135.43,0,0,0,17.65-5l1.12-.42a2,2,0,0,0,.89-0.43,6,6,0,0,0,.51-1.85,22.62,22.62,0,0,0-3.69.53c-1.71.34-3.42,0.74-5.11,1.16a69,69,0,0,0-9.27,2.82,5.49,5.49,0,0,0-1.24.61,1.18,1.18,0,0,0-.42.69c-0.17.62-.26,1.26-0.44,1.88C462.74,312.24,456.12,312.42,455.73,313.82ZM477.14,322l-9.72,2.84-4.47,1.32c-1.43.43-2.9,0.8-4.31,1.3a1.73,1.73,0,0,0-1.35,2,3.65,3.65,0,0,0,.32.88c0.13,0.26.14,0.32,0.42,0.23l0.66-.21c0.78-.24,1.56-0.47,2.34-0.69,3.11-.89,6.25-1.66,9.33-2.65a50.07,50.07,0,0,0,5.17-2,1.68,1.68,0,0,0,1.27-.94c0.16-.7.19-1.42,0.34-2.12C470.46,324,476.83,323.54,477.14,322Zm-44.65,24.52a148.25,148.25,0,0,0,18.68-5.5,1.88,1.88,0,0,0,1.4-.88c0.29-.71.45-1.47,0.73-2.18a140.82,140.82,0,0,0-18.71,5.45,1.94,1.94,0,0,0-1.43.87c-0.29.73-.41,1.51-0.67,2.25C439.68,345,433,345.1,432.49,346.55Zm-14-87.23,0,0.66c0,0.35,0,.32.36,0.34,0.5,0,1,.08,1.5.08a11,11,0,0,0,2.83-.6c1.92-.51,3.84-1,5.77-1.46,3.85-.94,7.72-1.87,11.52-3,2.13-.64,4.24-1.36,6.31-2.19a8.74,8.74,0,0,0-3.34,0c-1.89.21-3.77,0.54-5.64,0.9-4.53.88-9,2-13.45,3.27a58.45,58.45,0,0,0-5.89,2C418.55,259.65,425.24,256.54,418.53,259.32Zm16,104.28c3.77-1.19,7.54-2.36,11.31-3.56q2.8-.9,5.59-1.82c0.66-.22,1.6-0.32,2-1s0.48-1.24.78-1.83c-3.42.6-6.8,1.4-10.14,2.33-1.61.45-3.21,0.92-4.81,1.41l-2.38.73a10.35,10.35,0,0,0-1.79.62c-1.24.66-1,2-.55,3.07C440.64,361.67,433.52,361.39,434.49,363.61Zm20.4,0.52c-0.23-.15-0.43-0.36-0.67-0.5a0.78,0.78,0,0,0-.74,0l-2.35.69-4.61,1.36c-3.07.92-6.14,1.85-9.19,2.82l-1.08.35a1.86,1.86,0,0,0-.78.34,3.34,3.34,0,0,0-.61,1.34,3.19,3.19,0,0,0-.29.79,2.23,2.23,0,0,0,.73.79,1.75,1.75,0,0,0,.54-0.18l0.54-.18,1.17-.4,9.17-3.11,5.12-1.77,1.26-.44a4.3,4.3,0,0,0,1.17-.44,3.69,3.69,0,0,0,.62-1.49C454.44,363.83,454.67,364.64,454.89,364.13ZM454.76,296a3.43,3.43,0,0,0,.76.82,1.74,1.74,0,0,0,.55-0.15l0.64-.17,2.38-.65,4.57-1.24c3.09-.84,6.21-1.63,9.27-2.57a1.9,1.9,0,0,0,1.58-1.53,2.23,2.23,0,0,0-.09-0.75,2.26,2.26,0,0,0-.39-0.94,1.91,1.91,0,0,0-1,.2l-1.18.33c-3.07.85-6.14,1.7-9.2,2.58q-2.61.74-5.21,1.51a3.09,3.09,0,0,0-1.9.85c-0.33.53-.46,1.16-0.75,1.71C455,296.26,455.15,295.26,454.76,296Zm21.5,18.68a16.47,16.47,0,0,0-3.22.43c-1.71.32-3.42,0.7-5.11,1.11a70.38,70.38,0,0,0-9.41,2.7,4.16,4.16,0,0,0-1.14.56,1.62,1.62,0,0,0-.43,1c-0.12.72-.19,1.45-0.34,2.17,5.73-1.86,11.46-3.71,17.17-5.63l1.12-.38a3.38,3.38,0,0,0,1-.35,3.49,3.49,0,0,0,.36-1.65C473.53,314.63,476.12,315.29,476.26,314.67Zm-18.73,24.67,13.11-3.93,3.09-.93a16.86,16.86,0,0,0,2.66-.87,1.56,1.56,0,0,0,1-1.43,1.23,1.23,0,0,0-.39-1,1.81,1.81,0,0,0-.56.06,56.25,56.25,0,0,0-7,1.54c-2.66.7-5.31,1.46-7.91,2.37a20.23,20.23,0,0,0-2.81,1.13,1.43,1.43,0,0,0-.68.57,3.37,3.37,0,0,0-.23.91c-0.1.53-.2,1.06-0.33,1.58C464.18,337.34,457.93,337.72,457.53,339.34Zm20.61,0.58c-0.26-.15-0.49-0.38-0.76-0.5a1.11,1.11,0,0,0-.81.09l-2.47.7-4.85,1.39c-3.23.93-6.46,1.86-9.66,2.89a1.41,1.41,0,0,0-.85.88c-0.34.69-.63,1.41-1,2.09a140.88,140.88,0,0,0,17.61-5.08l1.15-.39a2,2,0,0,0,.86-0.38,6.82,6.82,0,0,0,.78-1.69C477.64,339.63,477.8,340.56,478.14,339.92Zm-42.57,47.63,0.66,0.95a1.09,1.09,0,0,0,.2.29c0.13,0.08.07,0,.23,0a4.61,4.61,0,0,0,.72-0.24l2.43-.8,5-1.66,4.94-1.65c1.63-.55,3.32-1,4.92-1.7a1.59,1.59,0,0,0,.78-1c0.31-.75.57-1.52,0.92-2.26-5.77,1.85-11.56,3.65-17.31,5.58a6.2,6.2,0,0,0-2,.84c-0.57.47-1,1.13-1.48,1.65C435.88,388,436.26,386.87,435.57,387.55Zm74.18-90.68a3.75,3.75,0,0,0-.64-0.93,2.36,2.36,0,0,0-1.13.26c-0.78.23-1.56,0.45-2.35,0.67-1.51.41-3,.8-4.55,1.21a59.21,59.21,0,0,0-9,3c-0.46.21-1.33,0.38-1.42,0.94s0,1.45-.07,2.15l10.77-3.34,5.13-1.62,1.34-.43a6.62,6.62,0,0,0,1.17-.38c0.49-.28.53-1.09,0.74-1.57C509.52,296.54,509.51,297.42,509.75,296.88Zm-31,51.34a4.43,4.43,0,0,0-.61-0.89l-0.1-.15-0.36.11-0.54.17-2.36.74-4.36,1.36c-3,.93-5.93,1.87-8.88,2.85a4.38,4.38,0,0,0-1.73.69,4.29,4.29,0,0,0-.68,1.44,2.71,2.71,0,0,0-.25.58,3.71,3.71,0,0,0,.78.81,3.49,3.49,0,0,0,1.08-.36l1.26-.42,8.83-3,4.86-1.65,1.26-.43a5,5,0,0,0,1.15-.41,3.45,3.45,0,0,0,.67-1.5C478.56,347.87,478.55,348.75,478.79,348.22ZM459.51,363.4a3.22,3.22,0,0,0,.71.78,3.46,3.46,0,0,0,1.08-.34l2.34-.74,4.49-1.42c2.93-.93,5.86-1.88,8.78-2.86a2.44,2.44,0,0,0,1.42-.77,14.85,14.85,0,0,0,.77-1.51c0.17-.31,0-0.36-0.23-0.62a1.8,1.8,0,0,0-.36-0.4,1.91,1.91,0,0,0-.54.17l-2.34.73c-2.94.92-5.88,1.84-8.81,2.78q-2.51.81-5,1.65a2.2,2.2,0,0,0-1.52.95c-0.29.52-.46,1.1-0.76,1.61C459.75,363.66,460,362.62,459.51,363.4Zm0.38,7.85,0.57,1c0.13,0.23.14,0.23,0.4,0.15l0.71-.21,2.38-.7c1.59-.47,3.17-0.95,4.75-1.44,3.14-1,6.25-2,9.31-3.23a1.89,1.89,0,0,0,1.35-.92c0.29-.68.47-1.4,0.75-2.08a148.15,148.15,0,0,0-16.93,5.06l-1.17.4a4.35,4.35,0,0,0-1,.36,5.91,5.91,0,0,0-1.15,1.6C460.13,371.65,460.34,370.66,459.89,371.24ZM480.23,372c-2.74.76-5.45,1.61-8.16,2.48-3.16,1-6.35,2-9.5,3.08a2.09,2.09,0,0,0-1.71,1.57,2.91,2.91,0,0,0,.5,1.58c0.13,0.23.12,0.28,0.36,0.23a3.37,3.37,0,0,0,.53-0.19l1.25-.45q4.71-1.7,9.42-3.4l5.31-2,1.24-.46a0.58,0.58,0,0,0,.5-0.38,13.85,13.85,0,0,0,.25-2.11C478.58,372.42,480,373.24,480.23,372Zm28.12-92a88.67,88.67,0,0,0-11.27,2.38q-2.75.78-5.44,1.74c-0.46.16-.92,0.32-1.37,0.51a0.5,0.5,0,0,0-.37.48c-0.12.66,0,1.35-.12,2a102.93,102.93,0,0,0,10.87-2.53,19.06,19.06,0,0,0,6-2.73,6.16,6.16,0,0,0,1.68-1.86C502.09,280.86,506.65,283,508.35,280Zm1.81,24.79a22.77,22.77,0,0,0-3.37.49c-1.58.31-3.15,0.67-4.71,1.06a76.34,76.34,0,0,0-8.74,2.59,10.82,10.82,0,0,0-1.36.59c-0.75.41-.76,1.17-1,1.92a12.6,12.6,0,0,0,3-.3c1.55-.26,3.09-0.59,4.62-0.94a73.69,73.69,0,0,0,9.09-2.55,10.49,10.49,0,0,0,1.4-.6c0.84-.46.83-1.44,1.13-2.26C506.47,304.9,509.88,305.53,510.16,304.74Zm-20.91-9.14A123.28,123.28,0,0,0,507,290.77c0.49-.17,1.4-0.27,1.57-0.84a17.94,17.94,0,0,0,.26-2.09,95.69,95.69,0,0,0-11.11,2.57,20.43,20.43,0,0,0-6.37,3,9.42,9.42,0,0,0-2.1,2.2C496.46,294.21,491.72,291.94,489.25,295.6ZM481,381a14.08,14.08,0,0,0-3.22.46c-1.7.35-3.39,0.78-5.06,1.23a68.75,68.75,0,0,0-9.39,3,4.85,4.85,0,0,0-1.23.65,2.63,2.63,0,0,0-.6,1c-0.28.63-.55,1.26-0.87,1.87a177.78,177.78,0,0,0,17.44-5.52l1.14-.42a2.88,2.88,0,0,0,.95-0.4A5.92,5.92,0,0,0,481,381C478.22,380.95,480.61,381.8,481,381Zm33.64-11.8a158.65,158.65,0,0,0-16.88,5.45l-1.08.45a1.86,1.86,0,0,0-.79.42,6.26,6.26,0,0,0-.52,1.89,50.07,50.07,0,0,0,8.58-2.07,66.1,66.1,0,0,0,8.69-3,4.6,4.6,0,0,0,1.09-.6,1.48,1.48,0,0,0,.41-0.76c0.17-.59.3-1.18,0.5-1.76C507.87,371.16,514.16,370.68,514.63,369.24Zm-59.91-80.86,8.75-2.36,4.37-1.21,2-.57a3.36,3.36,0,0,0,1.44-.67,1.32,1.32,0,0,0,.44-0.94,1.78,1.78,0,0,0-.14-0.68,2.19,2.19,0,0,0-.58-1,3.31,3.31,0,0,0-.9.24l-1.09.29-2.18.58c-2.93.77-5.87,1.55-8.79,2.35a8.12,8.12,0,0,0-3.16,1.14c-0.84.73-.56,1.9-0.16,2.79C459.88,287,453.63,285.92,454.72,288.38ZM493.9,369a26.39,26.39,0,0,0,7.92-1.22,51.4,51.4,0,0,0,8.46-3,12.91,12.91,0,0,0,3-1.75,13,13,0,0,0-6.19.12,49.48,49.48,0,0,0-9.22,3,7,7,0,0,0-2,1.1c-0.68.58-1.32,1.2-2,1.77C498.91,369.21,495.36,367.77,493.9,369Zm-76.46-72.87c-0.6-.29-1.17-0.62-1.75-1a5.09,5.09,0,0,0-1.22-.59,4.52,4.52,0,0,0-1.43,0c-0.67,0-1.34.07-2,.09-2.82.08-5.66,0.2-8.22,1.53,4.28,2.92,10.19,1.71,14.63-.12C415.7,295.25,411.55,298.52,417.45,296.09Zm-3.11-25.54c-2.92-3-10.24-2.53-13.33.63C405.78,272.86,410,271.53,414.33,270.55Zm-12.14,8.73c3.07,2.2,9.95,1.81,12.78-.73C412.12,276.42,405.07,276.82,402.19,279.28Zm18,68.13c-4.58-1.73-9.33-1.14-13.88.37,0.58,0.36,1.13.77,1.68,1.17a3.59,3.59,0,0,0,1.07.65,5,5,0,0,0,1.54-.07c0.64,0,1.28-.06,1.92-0.08,2.7-.1,5.43-0.36,7.66-2C415.82,345.76,416.88,349.91,420.2,347.41Zm-14.71-25.3c3.57,2.62,10.29,2.07,13.28-.94C413.94,319.65,409.73,320.75,405.49,322.11Zm-1.21-16.17c4.32,0.6,8.61,1.27,13.18-.85C414.46,302.56,407.22,302.88,404.29,305.94Zm14.94,24.85c-2.78-2.43-9.63-2.17-13,.2C408.64,333.05,413.88,333,419.22,330.78Zm-16.38-43.06c2.41,2.45,9.68,2.2,12.79-.44C413,285.25,406.39,285.47,402.84,287.72Zm15.09,25.77c-3-2.32-10.3-1.94-13.09.39C407.5,315.87,413.2,315.79,417.93,313.49Zm35.7-34.57a8.15,8.15,0,0,0,2.23,0c1.07-.09,2.13-0.25,3.19-0.44a22.71,22.71,0,0,0,5.82-1.61,2.23,2.23,0,0,0,.77-0.5c0.42-.52.05-1.5,0.05-2.11a30,30,0,0,0-8.25,1.54,6.87,6.87,0,0,0-3.81,3.1C455.85,279.37,455,276.21,453.63,278.92ZM408.16,356.3A7,7,0,0,0,413,358c1.67,0,3.31-.4,5-0.52,0.4,0,.82,0,1.21,0A1.23,1.23,0,0,0,420,357c0.25-.27.46-0.57,0.68-0.86a2.66,2.66,0,0,0,.34-0.42c0.09-.2,0-0.05,0-0.25a2.38,2.38,0,0,0-.25-0.47,0.43,0.43,0,0,0-.51-0.33l-0.78,0-1.55,0c-1,0-2,0-3,.06a18,18,0,0,0-6.7,1.64C411.6,359.38,412.26,354.32,408.16,356.3ZM407,339c2.62,2.72,9.5,2.37,13.43-.73C415.33,337,411.18,337.95,407,339Zm16.36,51.41c-3.08-2.68-10.29-2.06-12.83,1C415.15,392.63,419.23,391.7,423.35,390.45Zm-13.87-17c1.52,1.06,3.69,1.3,5.48,1.44a22,22,0,0,0,3.2,0,7.27,7.27,0,0,0,2.46-.42,3.82,3.82,0,0,0,1-.75c0.54-.5,1.06-1,1.62-1.49-4.61-.62-9.43-0.91-13.73,1.17C411.65,375,413.52,371.51,409.48,373.46Zm13.57,7.73c-5.89-1.47-11.13-.72-12.76,1.64C414.71,384.4,420.62,383.79,423.05,381.18ZM409,365.34a17,17,0,0,0,7.78,1,25.83,25.83,0,0,0,3.8-.68,0.77,0.77,0,0,0,.64-0.64c0.2-.53.36-1.08,0.58-1.61-4.35,0-9-.62-12.79,1.93C413,366.88,412.89,362.75,409,365.34ZM411.92,398a4.24,4.24,0,0,0-.27,1.12,1.86,1.86,0,0,0,.65.6,2.44,2.44,0,0,0,1.3.75c0.56,0,1.16-.14,1.72-0.18s1.19,0,1.79-.06c2.49-.07,5-0.36,6.86-2.12-3.92-1.37-8.07-1-12-.11C411.82,398.4,415.92,397.07,411.92,398ZM518.49,369.7a28.62,28.62,0,0,0,13.24-4.17C526.76,364.35,521.1,366,518.49,369.7ZM326.78,247.17l0.1-1.12a2,2,0,0,0,.05-0.6,1.58,1.58,0,0,0-.5-0.09l-2-.39c-1.41-.29-2.82-0.58-4.25-0.78a15.86,15.86,0,0,0-8.62.95l15.22,2C326.83,246.59,321.7,246.49,326.78,247.17ZM508,356.36a12.36,12.36,0,0,0-8.32,1c-1.15.54-2.25,1.18-3.38,1.77a2.71,2.71,0,0,0-1.26.81,18,18,0,0,0-.65,1.9l8.25-2.64,1.87-.61a11.83,11.83,0,0,0,1.59-.53,2.75,2.75,0,0,0,.62-0.5c0.42-.4.85-0.81,1.29-1.19C502.36,355,506.64,357.51,508,356.36ZM464,268.55c-0.52-.4-1-0.84-1.49-1.28a3.56,3.56,0,0,0-.89-0.7,2.6,2.6,0,0,0-1.39.16q-1.13.23-2.26,0.51t-2.23.61l-1.06.33a2.8,2.8,0,0,0-.81.3,2,2,0,0,0-.48,1c-0.19.68-.35,1.36-0.59,2l11.18-3C462.45,267.32,459.83,269.66,464,268.55Zm30.84,82.32a11.74,11.74,0,0,0,2.11,1.52,2.08,2.08,0,0,0,1.22-.18l1.59-.46c2.22-.68,4.4-1.45,6.6-2.17a4.42,4.42,0,0,0-2.73-1.54,10.38,10.38,0,0,0-4.47,1c-1.46.56-2.89,1.19-4.32,1.83C495.94,351.58,502.56,347.43,494.85,350.87Zm9.61-8.93a7.34,7.34,0,0,0-3.7-1.37,8.27,8.27,0,0,0-3.26.57c-1,.37-2,0.84-3,1.25a1,1,0,0,0-.79.88c-0.13.7-.16,1.41-0.3,2.11l11-3.45C500.28,339.08,500.65,343.13,504.46,341.94Zm2.66-94.54c-3.33-1.24-5.53-.63-7.56,1.22C501.85,248.45,504.3,250.44,507.12,247.4Zm17.56-13.65a4.91,4.91,0,0,0-.19-1q0-.23-0.13-0.16l-0.28,0-0.56.09-2.24.38-4.49.76a7,7,0,0,0,4.1,1.1,9.56,9.56,0,0,0,3.79-1.2C524.6,233.35,522.22,235,524.68,233.75Zm3.59,8.71c-3.58-1.94-6-.74-9.46.72C522.38,243.37,524.89,244.79,528.27,242.46Zm0.59,9.24c-3.35-2.79-4.63-2.68-7.16,0h7.16ZM522,259.25c2.14,0.19,4.39,2,6.86-.1C526.39,256.45,524.21,258.34,522,259.25Zm7.56,9.19c-2.26-3-2.26-3-7.29-.7Zm-29-12.64c5,2,5,2,6.48-1.06Zm-3.94-16.89a5.68,5.68,0,0,0,0,1c0,0.2,0,.19.27,0.27l0.52,0.15a5.55,5.55,0,0,0,1.83.12,11.62,11.62,0,0,0,3.5-1.09l0.38-.17c0.23-.1.23-0.09,0.19-0.34l-0.06-.4c0-.28,0-0.28-0.23-0.3a12.41,12.41,0,0,0-2.08.23l-4.36.48C496.7,239.32,498.89,238.67,496.68,238.91Zm32.75,37.43a8.29,8.29,0,0,0,.09-1.22,0.6,0.6,0,0,0-.31-0.48,3.4,3.4,0,0,0-.45-0.33A2.47,2.47,0,0,0,527,274a9.71,9.71,0,0,0-3.42,1.89l5.82,0.46C529.46,275.88,527.49,276.19,529.43,276.34ZM523,352.69l-0.22-1.05c-0.83.46-1.85-.06-2.71-0.1-1.49-.07-2.24,1.25-2.67,2.5l5.61-1.35C522.88,352.34,521.3,353.09,523,352.69Zm-15.1-87.19c-1.7-3-2.12-3-5.55-.36ZM525.13,284l4.93,0.67C529,281.88,529,281.88,525.13,284Zm0.93,7.9c1.45,0,3.26,1.57,4.78-.77C528.92,289.84,527.49,290.36,526.05,291.85Zm5.79,16.36a4.36,4.36,0,0,0-2.18-1.35,3.64,3.64,0,0,0-1.09.17,0.51,0.51,0,0,0-.48.27,4.84,4.84,0,0,0-.13.91h3.87C530,306.67,530.31,308.21,531.85,308.21Zm-24.21-37.09-5.3,1.46C506.46,273.47,506.46,273.47,507.64,271.12Zm14.83,73.54c-4.4-1.46-4.4-1.46-4.8,1.3Zm-5.75-8.72a6.4,6.4,0,0,0,.12,1.13,0.29,0.29,0,0,0,.23.29l0.3,0.12a2.27,2.27,0,0,0,1.22.09,5.24,5.24,0,0,0,2.59-2l-4.47.33C516.77,336.38,517.92,335.85,516.72,335.94Zm9.47-36.51c4.07,1.29,4.07,1.29,4.3-1.24Zm2.1,16c1.37,0.9,2.7,1.69,4.23-1Zm4,8.93,0.22-1.45-1.86.15-0.93.07a3,3,0,0,0-.56,0c-0.22.07-.19,0-0.19,0.3a1.85,1.85,0,0,0,0,.47,1.39,1.39,0,0,0,.46.06l0.93,0.11,1.94,0.24C532.36,323.85,531.18,324.2,532.29,324.33ZM516.46,328c1.42,2.18,2.38,1.2,3.93,0h-3.93Zm2.79-7.23c-2.4-.86-2.4-0.86-3.61.58Zm11.23,10.43,0.07,0.88c0.61-.05,1.21-0.09,1.82-0.18,0.27,0,.24,0,0.29-0.24a3.56,3.56,0,0,0,0-.61l-2.17.14C530.5,331.52,531.2,331.18,530.48,331.23Zm2.89,8.77,0-.84c0-.17,0-0.22-0.09-0.28a1.41,1.41,0,0,0-.43,0,2.16,2.16,0,0,0-1.18.14,10.07,10.07,0,0,0-1.54,1.35l3.26-.35C533.37,339.63,532.57,340.08,533.38,340Z"/></svg>