<?xml version="1.0" encoding="utf-8"?>
<!-- Generator: Adobe Illustrator 19.2.1, SVG Export Plug-In . SVG Version: 6.00 Build 0)  -->
<svg version="1.1" id="Layer_1" xmlns="http://www.w3.org/2000/svg" xmlns:xlink="http://www.w3.org/1999/xlink" x="0px" y="0px"
	 viewBox="0 0 1921 1081" style="enable-background:new 0 0 1921 1081;" xml:space="preserve">
<title>blend</title>
<path d="M458,433.6c-1.8-6.3-3.7-12.7-5.5-19c-3.6-12.5-6.9-25.1-11-37.3c-1.7-5.4-2.8-11-3.1-16.7c-0.1-1.5-0.1-3-0.3-4.5
	c-0.1-1-0.4-1.9-0.7-3.2c-1.2,0.3-2,0.4-2.7,0.6c-8.2,2.4-16.4,4.7-24.5,7.3c-3.4,1.2-7.1,1.4-10.7,0.8c-4.2-0.8-8.4-1.5-12.6-2.2
	c-5.6-0.9-11.3-1.7-17.3-2.7c0,2-0.2,3.7-0.1,5.3c0.3,3.6,0.5,7.2,1,10.8s-1.3,7-1.8,10.7c-1.8,14.6-4,29.1-5.9,43.7
	c-0.8,5.7-1.5,11.4-2.3,17.5c1,0.5,2,0.8,3,1.1c14.9,2.9,29.7,5.7,44.6,8.6c2.3,0.5,4.7,0.3,6.9-0.5c13.9-4.9,27.8-9.6,41.7-14.4
	c0.8-0.4,1.6-0.9,2.4-1.4C458.6,436.4,458.4,435,458,433.6z M411.4,365.2c-0.7,0.5-1.7,0.3-2.2-0.5c-0.1-0.1-0.2-0.3-0.2-0.5
	c0-0.6,0.3-1.1,0.7-1.4c1,0.1,2,0.3,3,0.6C412.4,364.1,411.9,364.7,411.4,365.2L411.4,365.2L411.4,365.2z M434.5,358.4
	c-0.6-0.4-1.1-1-1.4-1.6c0-0.5,0.7-1.2,1.3-2.2c0.8,1.1,1.7,1.7,1.6,2.3C435.7,357.4,435.2,358,434.5,358.4z"/>
</svg>
