<?xml version="1.0" encoding="utf-8"?>
<!-- Generator: Adobe Illustrator 19.2.0, SVG Export Plug-In . SVG Version: 6.00 Build 0)  -->
<svg version="1.1" id="Layer_1" xmlns="http://www.w3.org/2000/svg" xmlns:xlink="http://www.w3.org/1999/xlink" x="0px" y="0px"
	 viewBox="0 0 1921 1081" style="enable-background:new 0 0 1921 1081;" xml:space="preserve">
<title>perforated-surface</title>
<g>
	<path d="M508.4,411.8l22,3.7c7.2,1.2,14.3,2.7,21.5,3.6c7.2,0.9,14,3.1,21.6,3.2l0.8-7.5c9.9-3.6,19.7-7.1,29.5-10.7
		c9.7-3.6,20-6.8,30.7-11.3c-1.1-0.8-2.3-1.5-3.5-1.9c-5.6-1.1-11.3-1.9-17.1-2.8l-54.3-8.7c-11.6-1.9-23.2-3.7-34.7-5.6
		c-2.7-0.7-5.5-0.7-8.1,0.1c-10.5,3.5-21.1,6.9-31.6,10.4c-2.8,0.9-5.2,2.9-6.7,5.5c-2.9,4.7-6.8,8.7-11.3,11.7
		c-0.8,0.7-1.5,1.6-2.1,2.4c7.7,1.9,14.8,2.8,21.9,4C494,409.3,501.2,410.6,508.4,411.8z"/>
	<path d="M866.1,315.4l1.6-6.1c5.7-2.1,11.3-4.1,17.1-6.1c6.3-2.3,12.4-4.4,18.7-6.7c1.1-0.4,2.7-0.5,2-2.8l-14.4-1.9
		c-28.1-3.6-56.1-7.2-84.3-10.8c-2.5-0.4-5.1-0.1-7.6,0.8c-16.1,5.3-32.4,10.5-48.5,15.9c-1.2,0.5-2.4,1.2-3.6,1.9
		c5.7,1.3,106.3,15.2,115.7,16C863.8,315.6,865,315.6,866.1,315.4z"/>
	<path d="M846.6,275.7l81.2,10c4.7,0.5,9.3,1.1,14,1.5c0.7,0,1.3-0.3,1.9-0.5l1.1-5.1c11.2-4.7,22.9-8,34.9-13.2
		c-1.7-0.5-3.5-1.1-5.2-1.5c-8-1.1-16.1-1.9-24.1-2.8l-29.2-3.5c-12.7-1.5-25.3-2.9-38-4.5c-2.9-0.4-6-0.1-8.8,0.9
		c-13.7,4.5-27.5,9.1-41.2,13.5c-1.3,0.4-2.7,1.1-5.2,2.1c3.1,0.8,4.9,1.3,6.7,1.6C838.6,274.8,842.6,275.3,846.6,275.7z"/>
	<path d="M604,370.5l38.5,6c11.3,1.7,22.7,3.6,34,5.3c2,0.3,4.1,1.2,6.3-0.3l0.5-6c5.6-2.5,11.5-4.4,17.2-6.5
		c5.7-2.1,11.6-4.1,17.5-6.3c5.9-2.1,11.6-3.6,16.8-7.9c-8.8-1.1-17.9-2.5-26.9-3.9c-16.7-2.4-33.2-4.9-49.9-7.3
		c-9.3-1.3-18.5-2.8-27.7-4.1c-3.2-0.7-6.4-0.4-9.5,0.4c-20.4,6.8-40.8,13.3-61.3,20c-1.6,0.7-3.1,1.5-4.7,2.3
		c1.9,0.7,3.7,1.2,5.7,1.5C575,366,589.6,368.2,604,370.5z"/>
	<path d="M484.4,474.6c0.3-2.4,0.3-3.9-1.1-5.6C483.2,471,482.5,472.5,484.4,474.6z"/>
	<path d="M771.2,347.8c1.1-0.9,2.3-1.9,3.5-2.5c2.3-0.9,2.7-3.9,5.2-4.4c2.4-0.7,4.8-1.6,7.2-2.5c12.4-4.5,24.8-9.1,37.2-13.5
		c1.5-0.7,2.9-1.3,4.4-2.1c-2.9-1.5-6-2.3-9.2-2.4c-13.9-1.9-27.9-3.6-41.7-5.5c-17.3-2.4-34.5-4.8-51.9-7.2c-2.9-0.4-6-0.1-8.8,0.9
		c-8.3,2.8-16.5,5.5-24.9,8.1c-11.6,3.7-23.1,7.6-34.5,11.3c-1.5,0.7-2.9,1.5-4.4,2.3c1.7,0.5,3.5,1.1,5.2,1.5
		C696.1,337,733.7,342.8,771.2,347.8z"/>
	<path d="M496,468.9c-0.9-0.1-1.7-0.1-2.7,0l-1.9,5.6c0.4,0.7,0.9,1.1,1.5,1.5c50.3,9.6,100.4,19.2,150.7,28.7
		c2.9,0.5,5.9,0.9,9.2,1.5c0.5-2.8,1.2-5.2-0.7-8L496,468.9z"/>
	<path d="M477.4,449.7c13.9-5.6,28.4-9.9,43.9-16.1c-1.7-0.5-3.1-1.1-4.5-1.6c-19.3-3.5-38.7-6.8-58-10.1c-1.1,0-2.1,0.1-3.1,0.3
		c0.4,6.1,3.5,11.3,3.9,16.8c-0.4,0.4-0.8,0.8-1.2,1.1c-14.3,4.9-28.5,9.9-42.8,14.9c-1.9,0.7-3.7,0.8-5.6,0.4
		c-14.8-2.9-29.7-5.7-44.5-8.7c-0.8-0.3-1.6-0.7-2.4-1.1c-0.9-7.1,2.4-13.9,1.3-20.9c-5.6,0.5-22.7,6.1-27.5,9.1
		c0.3,1.3,0.5,2.8,1.1,4.1c6.4,16.7,12.9,33.3,19.3,50.1c0.7,2.3,2.7,3.9,5.1,4.1c16.5,3.2,33.1,6.5,49.6,9.7c0.9,0.1,1.9,0.1,2.9,0
		c1.6-4.4-0.8-8.4,0.3-12.9c2.4-0.9,4.9-2,7.5-2.9l51.6-18.9c1.2-0.5,2.5-1.2,3.7-1.9C477.6,460,476.6,455,477.4,449.7z"/>
	<path d="M149.7,446.8c0,0.4,0.7,0.8,1.7,2.1l-2.9-25.5C147.6,431.2,148.9,438.9,149.7,446.8z"/>
	<path d="M860.2,537.3c-1.2,2.4-2,4.8-2.1,7.3c4.9,1.2,9.3,3.1,14.4,2l-1.1-7.1C867.7,538,864.1,537.7,860.2,537.3z"/>
	<path d="M1075.6,577.3c-1.1-0.1-2.1-0.4-3.1-0.7l-82.9-15.5l-69.1-12.9c-10.9-2-21.7-4.1-32.7-6.1c-2.3-0.4-4.5-1.3-7.1-0.3
		l-2.1,6.7c1.3,0.4,2.8,0.9,4.1,1.2c8.1,1.6,16.3,3.1,24.4,4.7l56.5,10.7c24.3,4.5,48.5,9.2,72.9,13.7c13.5,2.5,26.8,5.1,40.3,7.5
		c0.9,0.1,2,0.1,2.9,0c0.4-0.7,0.7-1.5,0.8-2.1C1081,579.7,1080.8,577.6,1075.6,577.3z"/>
	<path d="M1265.6,612.6l-65.3-12.1c-17.6-3.3-35.2-6.5-52.8-9.9c-18-3.3-36-6.7-54-10c-1.1-0.1-2.1-0.1-3.2,0
		c-0.3,1.6-0.4,2.8-0.7,4c-0.4,1.1-0.8,2.1-1.2,3.2c0.4,0.4,0.9,0.7,1.5,0.8c75.3,14.3,150.7,28.4,226,42.7c1.9,0.4,3.7,0.7,5.7,0.9
		c0.3,0,0.4,0,0.7-0.1c0.1-0.1,0.3-0.3,0.4-0.4v-8.1c-2.4-0.5-4-1.1-5.6-1.3C1299.8,619,1282.8,615.8,1265.6,612.6z"/>
	<path d="M449.3,399c0.8,0.1,1.7,0.1,2.5-0.1c2.7-1.5,5.3-3.1,8-4.5c-3.9-0.5-7.7,0.4-11.1,2.7c-0.4,0.7-0.3,1.5,0.3,1.9
		C449.2,398.9,449.2,399,449.3,399z"/>
	<path d="M847.3,534.6c-60.7-11.3-121.3-22.7-182-34c-0.9-0.1-1.7-0.1-2.7,0c-0.1,1.1-0.4,2.1-0.7,3.2c-0.4,1.1-0.9,2.1-1.5,3.3
		c0.8,0.4,1.7,0.8,2.7,1.1c61.9,11.7,123.7,23.3,185.6,34.9c0.7,0,1.2,0,1.9-0.1c0.3-0.1,0.5-0.3,0.7-0.5l-0.9-6.8
		C849.4,535.3,848.4,534.9,847.3,534.6z"/>
	<path d="M1590.1,339.6l-50.8-6c-11.5-1.3-22.8-2.8-34.3-4.1c-9.3-1.1-18.7-2-28-3.1c-16.7-2-33.5-4-50.1-6
		c-12-1.5-24.1-2.8-36.3-4.1c-17.2-2-34.3-4.1-51.5-6.1c-12-1.5-24-2.8-36-4.1c-12.9-1.5-25.9-3.2-38.7-4.7
		c-12.8-1.5-25.9-3.1-38.8-4.5c-15.9-1.9-31.7-3.7-47.6-5.6c-16.1-1.9-32.1-3.7-48.3-5.6c-20.3-2.4-40.7-4.8-60.9-7.2
		c-12-1.5-24.1-2.8-36.3-4.1c-10.8-1.3-21.6-2.5-32.4-3.9c-2.1-0.4-4.3-0.1-6.3,0.5c-14,5.2-28.1,10.3-42.1,15.3
		c-0.9,0.4-2,0.8-1.3,2.3c0.4,0.3,0.8,0.4,1.2,0.5l50.8,6.4c15.6,1.9,31.3,3.7,46.9,5.7c15.5,1.9,30.9,3.9,46.3,5.9
		c18.7,2.3,37.2,4.4,55.9,6.8c19.2,2.4,38.5,4.8,57.7,7.2c16.5,2,33.1,4,49.5,6.1l54,6.7l48.9,6l37.5,4.5l55.9,6.9l46.9,5.9
		c15.1,1.9,30,3.6,45.1,5.5c11.9,1.5,23.7,3.1,35.5,4.5c15.9,2,31.7,3.9,47.6,5.9c2.1,0.3,4.3,0.4,6.4,0.7c1.7,0.3,3.5-0.3,4.7-1.3
		c7.9-6.5,15.7-13.1,23.7-19.6c0.9-0.9,1.7-2,2.4-3.1c-6.3-2.3-11.6-2.4-16.9-2.9C1630.2,344.4,1610.1,342,1590.1,339.6z"/>
	<path d="M1451,522.8c-23.3-3.9-46.7-7.6-70-11.3c-20-3.2-40-6.3-60-9.5c-22.3-3.6-44.5-7.3-66.8-10.9c-28.3-4.5-56.4-8.8-84.7-13.3
		c-22.3-3.6-44.5-7.3-66.8-10.9l-90.3-14.4l-52.4-8.4c-19.6-3.2-39.1-6.4-58.7-9.5c-16.9-2.8-34-5.5-51.1-8.1
		c-22.7-3.7-45.6-7.5-68.1-11.1s-45.1-7.1-67.6-10.7c-18.7-2.9-37.5-5.9-56.1-9.1c-2.9-0.5-5.9-0.3-8.7,0.8l-63.7,23.2
		c-1.6,0.7-3.2,1.3-4.7,2c-0.8,0.7-1.5,1.3-2.1,2.1c1.9,0.5,3.1,0.9,4.3,1.1c10.7,1.9,21.5,3.6,32.1,5.5
		c21.5,3.7,42.8,7.5,64.3,11.1l56.7,9.6c21.6,3.7,43.3,7.3,64.9,11.1l55.5,9.5c18,3.1,36.1,6.3,54.1,9.3
		c24.3,4.1,48.7,8.1,73.1,12.3l72.4,12.4c18,3.1,36.1,6.1,54.1,9.2c24.1,4.1,48.3,8.3,72.4,12.4c21.1,3.6,42,7.1,63.1,10.7
		c15.7,2.7,31.5,5.5,47.2,8.1c16.5,2.8,33.2,5.5,49.7,8.3c19.7,3.3,39.5,6.7,59.2,10.3c2.7,0.7,5.6-0.1,7.6-2
		c14.1-11.6,28.3-23.2,42.4-34.9c0.8-0.8,1.6-1.7,2.3-2.7C1454,522.5,1452.4,522.6,1451,522.8z"/>
	<path d="M1296.9,569.6l-90-16l-110.8-19.5c-20.4-3.6-40.7-7.1-61.1-10.7c-22.9-4.1-45.7-8.3-68.7-12.3c-18-3.2-36.1-6.3-54.1-9.5
		c-14.5-2.5-28.9-5.1-43.5-7.6l-108.9-19.2l-78.1-13.7c-14.8-2.5-29.7-5.2-44.7-7.9l-55.3-9.9c-12.1-2.1-24.4-4.3-36.5-6.4
		c-2.9-0.7-6-0.5-8.8,0.4c-12.7,4.7-25.2,9.2-37.9,13.9c-0.9,0.5-1.9,1.1-2.7,1.9c2,1.1,4.3,1.7,6.5,2c12,2.1,23.9,4.1,35.9,6.3
		c10.9,2,21.7,4.3,32.7,6.3c19.3,3.6,38.5,7.1,57.9,10.5c16.5,3.1,33.2,5.9,49.7,8.9c15.3,2.8,30.5,5.7,45.9,8.5
		c4.3,0.7,8.5,1.2,12.7,2c13.6,2.5,27.2,5.2,40.8,7.7c6.7,1.2,13.5,2.3,20.1,3.5c13.9,2.5,27.6,5.2,41.5,7.7
		c7.2,1.3,14.4,2.4,21.5,3.7c16,3.1,31.9,6.1,47.7,9.1c8,1.5,16,2.5,24,4c13.1,2.4,26,5.1,38.9,7.5c12.4,2.3,24.8,4.3,37.1,6.7
		c10.7,2.1,21.3,3.5,32,5.7c12.3,2.7,24.8,4.4,37.1,6.9c11.1,2.3,22.3,3.6,33.3,6c12.3,2.7,24.7,4.7,37.1,6.8
		c9.2,1.6,18.5,2.9,27.7,4.7c14.7,2.7,29.3,5.5,44,8.3c12.7,2.3,25.2,4.7,37.7,6.9c12.9,2.4,26,4.5,38.9,7.1
		c13.9,2.7,27.7,4.7,41.5,7.6c1.2,0.3,2.4,0.7,3.6,1.2c0.5,4.5,0.3,9.1-0.5,13.6c-0.4,2.1-2.4,3.7-4.7,3.5c-1.5,0-2.8-0.1-4.1-0.3
		l-2.7,8.3c4.5,0.9,8.5,2.4,13.1,2c0.3-1.3,0.5-2.5,0.7-3.9c0.1-3.5,0.3-6.8,0.3-10.3c-0.1-3.1,1.3-5.9,3.9-7.6
		c9.2-7.5,18.4-15.2,27.6-22.8c2-1.6,4.4-3.2,6-6.8c-2.3-0.7-4.5-1.2-7.3-1.5C1348.1,578.5,1322.5,574.1,1296.9,569.6z"/>
	<path d="M1466.1,462.2c-21.7-3.1-43.5-6.3-65.2-9.5c-24.1-3.6-48.4-7.2-72.7-10.8c-22.4-3.2-44.7-6.4-67.1-9.6
		c-20.1-2.9-40.1-6-60.1-8.9l-103.7-15.2c-17.9-2.5-35.9-5.2-53.7-7.9c-24.7-3.7-49.3-7.5-74-11.1c-19.6-2.9-39.2-5.7-58.8-8.5
		c-24.7-3.6-49.3-7.2-74-10.8c-16-2.4-32-4.8-48-7.2c-10.1-1.5-20.3-2.9-30.4-4.4c-3.1-0.4-6,0-8.8,1.1c-19.2,7.1-38.4,14-57.6,21.1
		c-1.3,0.5-2.7,1.2-4,2c1.3,0.7,2.7,1.2,4.1,1.6l51.2,8c18.1,2.8,36.3,5.6,54.4,8.4c17.5,2.8,34.9,5.6,52.4,8.3
		c15.1,2.3,30,4.4,44.9,6.8c18,2.8,35.9,5.7,53.7,8.5c15.3,2.5,30.8,4.8,46.1,7.2c12,1.9,24,3.9,36,5.7c15.1,2.3,30.3,4.5,45.5,6.9
		c17.2,2.8,34.4,5.6,51.7,8.3c15.3,2.4,30.8,4.5,46.1,6.9c23.2,3.7,46.3,7.5,69.5,11.1c17.7,2.8,35.3,5.3,53.1,8.1
		c21.7,3.5,43.3,6.9,65.1,10.3l68.8,10.8c14,2.1,27.9,4.3,41.7,6.5c3.3,0.7,6.8-0.3,9.3-2.7c10.8-9.1,21.7-18,32.5-26.9
		c1.6-1.3,3.1-2.8,5.2-4.7c-2.8-2.3-5.3-2.1-7.7-2.7C1496.5,466.6,1481.3,464.5,1466.1,462.2z"/>
	<path d="M1711.4,312.8c-1.2-0.5-2.4-0.8-3.7-1.2c-4.7-0.5-9.3-1.1-14-1.5l-30.3-3.5c-12.5-1.3-25.1-2.8-37.5-4.1
		c-17.6-1.9-35.2-3.7-52.8-5.6c-13.6-1.5-27.1-3.1-40.7-4.7c-13.6-1.6-27.1-2.8-40.7-4.4c-17.7-2-35.6-4-53.3-5.9
		c-17.7-1.9-35.2-3.7-52.8-5.6c-17.3-1.9-34.7-4-52.1-5.9c-17.5-1.9-35.2-3.7-52.8-5.6c-21.2-2.4-42.4-4.8-63.6-7.2
		c-17.6-1.9-35.2-3.7-52.8-5.6c-28.8-3.2-57.6-6.4-86.4-9.6c-3.9-0.5-7.7,0-11.2,1.5c-2.7,1.5-5.6,2.3-8.7,2.7l-1.9-6.3l-10.4-1.2
		c-13.7-1.6-27.6-3.1-41.3-4.7s-28-2.9-42-4.5c-2.5-0.4-5.1-0.1-7.5,0.7c-16,5.3-32,10.4-48,15.7c-1.2,0.4-2.3,1.1-3.3,1.6
		c0.3,0.4,0.5,0.8,0.9,1.2c34.9,4.3,69.7,8.4,104.7,12.5c1.5,0.1,3.1,0.1,4.5,0l1.3-5.5c8.9-3.2,18-6.5,26.9-9.6
		c1.6-0.7,3.5-0.4,4.9,0.5c0.9,2.1,0.4,3.7-1.9,4.7c-1.6,0.7-3.2,1.2-4.8,1.9c-6,2.1-12,4.4-18,6.7c-0.9,0.4-2.1,0.5-2.1,2.4
		c0.8,0,1.7,0.3,2.7,0.4c8.4,1.1,16.9,2,25.3,2.9l51.5,6l40,4.7l36.8,4.3l38.8,4.5c12.7,1.5,25.3,2.9,38.1,4.4
		c9.1,1.1,18.3,2,27.3,3.1c17.3,2,34.7,4,52,6.1c12.9,1.5,25.9,2.9,38.7,4.4c16.1,1.9,32.1,3.7,48.3,5.6c12.9,1.5,25.9,2.9,38.8,4.4
		c10.1,1.2,20.3,2.4,30.5,3.6l36.1,4.1c12.9,1.5,25.9,3.1,38.8,4.5c12.9,1.5,25.9,2.8,38.8,4.4c20.9,2.4,41.9,4.9,62.9,7.3
		c4,0.5,8,0.8,12.1,1.3c2.1,0.3,4.3-0.4,5.9-1.9c3.5-2.9,6.9-5.7,10.4-8.5c0.8-0.5,1.5-1.7,2.8-1.2c2.3,3.1-2,6.5,0.5,9.6l3.6-0.8
		l1.2,6.1c1.6-1.1,2.8-1.9,4-2.7c2.3-1.6,3.7-4.1,3.9-6.9c0.4-5.5,1.2-11.1,1.7-16.5C1711.8,315,1711.7,313.8,1711.4,312.8z"/>
	<path d="M1615,383.2c-8.3-1.1-16.5-2-24.8-2.9c-15.9-2-31.7-4-47.6-6.1l-46.3-5.9c-15.1-1.9-30-3.7-45.1-5.6
		c-11.5-1.5-22.8-2.8-34.3-4.3c-15.5-2-30.8-4-46.3-6c-12-1.6-24.1-3.1-36.1-4.5s-24.1-2.9-36.1-4.5c-8.4-1.1-16.9-2.3-25.3-3.3
		c-11.2-1.5-22.4-2.8-33.6-4.3c-11.6-1.5-23.3-2.8-34.9-4.3c-11.6-1.5-23.2-3.1-34.8-4.5c-18.7-2.4-37.2-4.5-55.9-6.9
		c-18.1-2.3-36.3-4.8-54.5-7.1c-15.9-2-31.7-3.9-47.6-5.9c-27.9-3.6-55.7-7.2-83.7-10.8c-2.3-0.4-4.7-0.1-6.9,0.8
		c-6,2.3-12,4.4-18,6.5c-8.8,3.2-17.6,6.4-26.4,9.6c-1.5,0.5-3.3,0.7-4.4,3.6l713.5,94.7c2.1,0.3,4.3,0.3,6.5,0.5
		c2.9-2.4,6-4.8,8.9-7.2c6.5-5.5,13.2-10.8,19.7-16.3c1.1-0.9,2.5-1.7,1.9-4C1620.4,384.1,1617.7,383.6,1615,383.2z"/>
	<path d="M1528.4,416.4c-17.3-2.4-34.7-4.7-52-6.9c-20.5-2.8-40.9-5.6-61.5-8.4c-14.1-2-28.3-3.7-42.4-5.7l-52.5-7.2
		c-17.1-2.3-34.3-4.7-51.3-6.9c-14.8-2-29.6-4-44.4-6c-14-1.9-27.9-3.7-41.9-5.6c-13.5-1.9-26.9-3.9-40.5-5.6
		c-14.4-2-28.8-3.7-43.1-5.7c-13.7-1.9-27.5-3.9-41.2-5.7c-23.9-3.2-47.7-6.3-71.6-9.6c-26.7-3.6-53.2-7.3-79.9-10.9
		c-18.1-2.5-36.4-4.8-54.5-7.3c-2.9-0.4-6-0.1-8.7,0.9c-12,4.5-24,8.8-36,13.2c-7.1,2.5-14,5.1-21.1,7.7c-1.1,0.5-2,1.1-2.9,1.7
		c1.1,2.1,2.7,1.9,4.1,2c27.2,3.9,54.4,7.9,81.6,11.7l64,9.2c22.1,3.2,44.3,6.5,66.4,9.6c19.2,2.8,38.4,5.5,57.6,8.1
		c25.5,3.7,51.1,7.5,76.5,11.1c22.1,3.2,44.3,6.3,66.4,9.3c16,2.3,32,4.8,48,7.1c19.5,2.7,38.8,5.3,58.3,8.3
		c22.1,3.2,44.3,6.5,66.4,9.7c25.1,3.6,50.3,7.1,75.3,10.7c28,4,56.1,8.1,84.1,12.3c2.9,0.7,6-0.1,8.3-2.1c3.9-3.3,7.9-6.5,11.7-9.9
		c0.8-0.7,1.6-1.6,2.8-0.7c1.5,4-1.2,7.9-0.8,12c0.4,4.1-1.6,7.9,0,12.5c1.1-0.8,2-1.7,2.9-2.8c0.4-1.1,0.5-2.1,0.4-3.2
		c0.4-5.3,0.9-10.7,1.3-16c0.8-9.2,0.5-7.7,6.7-12.8c3.1-2.7,6.3-5.2,9.3-7.7c0.8-0.9,1.6-2,2.3-3.2c-1.9-0.5-2.9-0.8-4-0.9
		L1528.4,416.4z"/>
</g>
</svg>
