<svg id="Layer_1" data-name="Layer 1" xmlns="http://www.w3.org/2000/svg" viewBox="0 0 1440 900"><title>laser</title><path d="M277.44,295.5h0.09L278,298l0.37-2.48h0.14v-0.22c1.22-.69,1-2.1,1.5-3.16,1.33-3.05,2.11-6.43,3.89-9.18a10.77,10.77,0,0,0,1.53-8.07A24.47,24.47,0,0,0,285,272a7,7,0,0,0-1.32-1.72,21,21,0,0,0-1.47,3.29c-0.74,3.09-1.31,6.21-2,9.31a11.53,11.53,0,0,1-.93,2.09c-0.06-5,1.65-9.71,2.89-14.48a14.79,14.79,0,0,0,.91-3.7,119.09,119.09,0,0,0-1.28-14.75,12.41,12.41,0,0,0-2-.63q-7.36-1-14.73-1.91a25,25,0,0,0-9,.44c-8.54,2-17.14,3.84-25.72,5.68a19.66,19.66,0,0,1-5.65.83,21.8,21.8,0,0,1-.59-2.51c-0.24-2.22-.4-4.46-0.62-6.68-0.09-.95-0.1-2-1.16-2.44a2.34,2.34,0,0,1-1.54-3c0.7-3.48-.59-6.65-1.65-9.77-1-2.82-3.85-4.29-6.92-4.15a6.14,6.14,0,0,0-5.95,4.7c-0.56,3.1-1.24,6.39,0,9.41,0.87,2.19-.08,3.26-1.67,4.37l0.79,6.26,3.87,1.31L212,282.62l-3.36,2.15c0.85,8.89,1.83,17.62,2.49,26.37,1.06,14.15,2.06,23.36,3.22,26.65l4.93,1.26c1.18,3.3.29,6.82,1.7,10.14,3.82,0.66,7.59,1.29,11.35,2a12.19,12.19,0,0,0,5.66-.42c2.24-.65,4.55-1.07,6.82-1.58a1.88,1.88,0,0,1,.92-0.75,1.88,1.88,0,0,0-.92.75h0l0,0.06-5.24,2.62c1.82,0.72,3.44,1,4.63,1.92a24.86,24.86,0,0,1,3.45,3.9c6.47-1.92,12.7-3.76,18.91-5.66a5,5,0,0,0,1.35-1.35L262.16,349l-1.09-6.44-2.86.93,0.13-.15h0c1.35-1.76,3.27-3.09,3.77-5.51a3.07,3.07,0,0,1,1.77-2c1.78-.48,2.51-2.17,3.95-3,0,0,0,.06,0,0.09l0.12-.11c0.3,1.32,1.18,1.19,2.41.7,0.45-1.76,1.67-3.45,1.4-5.65a5.21,5.21,0,0,1,.59-2.21c0.6-1.61,1.39-3.17,1.85-4.81,0.58-2.07.86-4.19-.49-6.1,0-.09,0-0.18,0-0.27l-0.14,0c0.95-5.24,1.87-10.49,2.87-15.73A26,26,0,0,1,277.44,295.5Zm-24.91,50.76h0a12,12,0,0,1,2.61-1.81A12,12,0,0,0,252.52,346.26Zm39.13-47.43c-2.35.53-4.48,1.1-6.65,1.49-3.09.55-4.67,2.32-4.63,5.49a20.21,20.21,0,0,0,.26,3.8c0.66,3.23-1.1,4.92-4,6.58,0.18-6.32,1.7-12,3.16-17.58,1.34-5.19,2.64-10.45,5.7-15.13,2,3.19,2,3.19,5,3.78C292.12,291.26,292.38,293.55,291.65,298.83Zm-27,272.42c-1.52.8-1.52,0.8-4,.16C261.7,569.22,261.7,569.22,264.67,571.25Z"/></svg>