<?xml version="1.0" encoding="utf-8"?>
<!-- Generator: Adobe Illustrator 19.2.1, SVG Export Plug-In . SVG Version: 6.00 Build 0)  -->
<svg version="1.1" id="Layer_1" xmlns="http://www.w3.org/2000/svg" xmlns:xlink="http://www.w3.org/1999/xlink" x="0px" y="0px"
	 viewBox="0 0 1920 1080" style="enable-background:new 0 0 1920 1080;" xml:space="preserve">
<title>belts</title>
<path d="M450.5,410.4c1.3-2.7,2.8-3,4.6-2.7c4.4,0.7,8.8,1.5,13.2,2.3c24.8,4.2,49.6,8.4,74.3,12.7c23.3,4,46.7,8.2,69.9,12.2
	c22,3.8,44.1,7.7,66.1,11.5c29.8,5.1,59.7,10.3,89.5,15.4c23.5,4,47.1,8,70.7,12c22.5,3.9,44.9,7.7,67.4,11.7l73.1,12.6
	c25.4,4.4,50.8,8.8,76.2,13.2l98.9,17.1c38.2,6.6,76.4,13.1,114.7,19.6c29.8,5.1,59.7,10.2,89.5,15.4c3.8,0.7,7.5,1.4,11.3,2.3
	c3.6,1,6.9,2.7,9.6,5.2c0,0.9-0.8,1.6-1.7,1.5c-0.2,0-0.3,0-0.5-0.1c-1.5-0.1-3-0.3-4.4-0.6c-10.8-2.7-21.9-3.4-32.7-5.7
	c-5-1.1-10-2.2-15-3.1c-16.4-2.9-32.7-5.8-49.1-8.6l-53.5-9.3l-72.5-12.5c-18.5-3.2-36.9-6.5-55.4-9.7l-46.7-8l-47.9-8.3
	c-16.6-2.9-33.2-5.7-49.8-8.6c-15.3-2.7-30.7-5.5-45.9-8.1c-13-2.3-26-4.5-39.1-6.8L803,472l-63.6-11l-109.6-19.1l-105.2-18.2
	l-68-11.8C454.5,411.5,452.5,411,450.5,410.4z M1452.6,513.2c-1.9-0.3-3.7-0.6-5.5-1c-10.2-2.5-20.7-2.7-30.9-4.8
	c-10.8-2.4-21.7-4.2-32.7-5.9c-18.1-2.8-36.2-5.7-54.3-8.6s-35.8-5.7-53.7-8.6l-92.8-14.7c-20.4-3.2-40.8-6.6-61.2-9.8
	c-20.2-3.2-40.4-6.2-60.6-9.4l-75.1-12c-21-3.3-42.1-6.6-63.2-9.9c-38.7-6.2-77.5-12.3-116.2-18.5c-31.6-5-63.2-9.8-94.8-14.8
	c-22.3-3.5-44.6-7.2-66.9-10.7c-25.9-4.1-51.8-8.1-77.7-12.2c-9.7-1.5-19.3-3.1-29-4.7c-0.8-0.1-1.6-0.4-2.6-0.6
	c2.3-2.7,5-2.3,7.8-1.9c6.3,0.9,12.6,1.9,19,2.9l63.2,9.9c22.1,3.5,44.2,7.1,66.3,10.5c18.3,2.9,36.6,5.7,55,8.6l75.2,11.9l61.3,9.6
	l63.2,10c18.1,2.8,36.2,5.6,54.3,8.4l50.5,8c23,3.6,45.9,7.2,68.9,10.8l60.6,9.5l61.9,9.8c17.7,2.8,35.4,5.6,53,8.4
	c15.4,2.4,30.7,4.7,46.1,7.1c11,1.7,21.9,3.4,32.8,5.2l46.1,7.3c6.1,1,12.2,1.9,18.3,2.8c4.5,0.5,8.8,2.1,12.5,4.6
	c0.7,0.5,1.5,0.9,2.2,1.2L1452.6,513.2z M1515.1,460.9c-7.7,0.4-14.5-2.3-21.6-2.8c-7.1-0.5-14.3-2.4-21.4-3.5s-13.9-2-20.9-3
	c-7.2-1.1-14.3-2.2-21.5-3.3s-14.4-1.9-21.5-3c-7.2-1-14.3-2.2-21.5-3.3c-7-1-13.9-2-20.9-3c-7-1-14.3-2-21.5-3.1
	s-14.3-2.2-21.5-3.2c-7.2-1.1-14.3-2-21.5-3c-7-1-13.9-2.1-20.9-3.1c-7.2-1-14.3-2-21.5-3.1c-7.2-1-14.3-2.1-21.5-3.2l-21.5-3.1
	l-20.9-3.1c-7.2-1.1-14.3-2.2-21.5-3.2c-7.2-1-14.4-2-21.5-3c-7.2-1-14.3-2.2-21.5-3.3c-7-1-13.9-1.9-20.9-2.9
	c-7.2-1-14.3-2.2-21.5-3.2s-14.3-2.1-21.5-3.1s-14.4-2-21.5-3c-7-1-13.9-2.2-20.8-3.2c-7.2-1.1-14.4-2-21.5-3s-14.3-2.1-21.5-3.2
	s-14.3-2-21.5-3.1l-20.9-3c-7.2-1.1-14.3-2.1-21.5-3.2c-7.2-1-14.4-2-21.5-3c-7.2-1.1-14.3-2.2-21.5-3.3c-7-1-13.9-2-20.9-3
	c-7.2-1-14.3-2.1-21.5-3.2s-14.3-2.1-21.5-3.1c-7.2-1-14.3-2-21.5-3.1c-7-1-13.9-2.1-20.9-3.1c-7.2-1-14.4-2-21.5-3.1
	s-14.3-2.2-21.5-3.2s-14.4-2-21.5-3c-7-1-13.9-2.2-20.9-3.2c-7.2-1-14.4-1.9-21.5-3s-14.3-1.6-21.5-3.4c2.9-2.4,2.9-2.5,5.6-2.1
	c5.3,0.7,10.5,1.5,15.8,2.3l58.9,8.5c19.6,2.9,39.2,5.8,58.8,8.6l55.7,8c19.4,2.8,38.8,5.7,58.2,8.5c19.8,2.9,39.7,5.6,59.5,8.4
	c15.2,2.2,30.4,4.5,45.5,6.7l49.3,7.1l39.8,5.8c13.3,1.9,26.6,3.8,39.9,5.7l57.6,8.4l56.3,8.2l77.8,11.3l74,10.7
	c22.6,3.3,45.1,6.7,67.7,9.9c13.3,1.9,26.6,3.7,39.9,5.7c3.6,0.6,7.1,1.4,10.6,2.4C1512.5,457.5,1514.3,458.9,1515.1,460.9z
	 M731.7,303.1c0.8-2.4,2.7-2.4,4.2-2.2c4,0.4,8,1.1,12,1.6l43.1,5.8l53.2,7.1l54.5,7.2c16.7,2.2,33.3,4.5,50.1,6.8
	c26.8,3.6,53.7,7.1,80.5,10.7c24.9,3.3,49.9,6.8,74.8,10.1c20.9,2.8,41.9,5.5,62.8,8.3c16.5,2.2,33,4.4,49.4,6.7l45.6,6.1
	c11,1.5,21.9,3.1,32.9,4.6c13.7,1.8,27.5,3.6,41.2,5.4l43.1,5.7l36.1,4.8l40.5,5.5l55.8,7.5l47.5,6.4c3.8,0.3,7.3,1.7,10.2,4.2
	c-1.3,0.8-2.9,1-4.4,0.5c-6.8-0.9-13.5-1.6-20.3-2.7c-33.7-5.3-67.5-9.5-101.3-14.1l-65.9-8.9l-57-7.6c-20.5-2.8-41-5.7-61.4-8.5
	c-23.9-3.2-47.8-6.3-71.6-9.5c-20.3-2.7-40.5-5.6-60.8-8.4c-23.9-3.2-47.8-6.3-71.6-9.5c-20.7-2.8-41.3-5.6-62.1-8.4
	c-14.4-1.9-28.7-3.7-43.1-5.7c-20.7-2.8-41.3-5.7-62.1-8.5c-12.9-1.8-25.8-3.6-38.7-5.1c-2.7-0.3-4.7-2.1-7.2-2.3
	c-2.5-0.2-5.1,0.7-7.5,0.3c-12.9-1.6-25.8-3.4-38.7-5.2l-44.4-6C744.9,305,738.4,304,731.7,303.1z M1617.5,376.3
	c-1.5,0.1-3,0.1-4.5,0L815.3,275.9c-0.1-1,0.6-1.9,1.6-2c0.2,0,0.5,0,0.7,0.1c4.7,0.5,9.3,1,14,1.5c20.3,2.5,40.6,5,60.9,7.5
	c15,1.9,30,3.9,45,5.8c15.7,1.9,31.3,3.7,47,5.7c15.4,1.9,30.9,4,46.3,5.9c14.8,1.9,29.6,3.6,44.4,5.5l48.9,6.1l43.1,5.3l45,5.6
	l50.1,6.2c18.7,2.3,37.2,4.7,55.8,7.1c12,1.5,24.1,2.9,36.2,4.4c15.4,1.9,30.9,3.9,46.3,5.8c12.3,1.5,24.5,2.9,36.8,4.5
	c14.4,1.8,28.8,3.6,43.1,5.4c9.1,1.1,18.2,2.2,27.3,3.4l37.4,4.7l45,5.6c6.3,0.8,12.7,1.5,19,2.5c2.1,0.4,4.1,0.9,6.1,1.7
	C1616.2,374.7,1616.9,375.5,1617.5,376.3z M1659.6,341.6c-4.8-0.5-9.7-1-14.5-1.6l-85.1-10.1c-23.3-2.8-46.6-5.6-69.9-8.3
	c-27.3-3.2-54.7-6.2-81.9-9.3c-29.2-3.4-58.4-6.8-87.7-10.2c-29.2-3.4-58.4-6.9-87.7-10.2c-23.9-2.8-47.8-5.7-71.8-8.5
	c-30.7-3.6-61.4-7.1-92.1-10.7c-19.9-2.4-39.8-4.9-59.6-7.2c-5.7-0.7-11.5-0.9-17-2.6c-0.6-0.1-1.3-0.2-1.9-0.2
	c-14.5-0.5-28.8-2.9-43.2-4.5c-9.7-1.1-19.5-2.3-29.2-3.4c-8.3-1-16.5-1.9-24.8-2.8c-1-0.1-2.2-0.1-2.7-1.7c1.7-1,3.6-0.6,5.3-0.4
	c8.5,0.9,16.9,2,25.4,3l39.4,4.6l48.9,5.7l39.4,4.5l59.7,7.1c16.1,1.9,32.2,3.7,48.3,5.6c13.8,1.6,27.5,3.3,41.3,4.9
	c15.9,1.8,31.8,3.6,47.7,5.3c13.3,1.5,26.7,3.2,40,4.7l34.9,4c18,2.1,36,4.3,54,6.3c12.7,1.5,25.4,2.8,38.1,4.3
	c15.9,1.8,31.8,3.7,47.6,5.6c16.5,2,33,4,49.6,5.9c16.1,1.9,32.2,3.7,48.3,5.6l51.5,6c14,1.6,28,3.3,41.9,4.9
	C1654.8,338.1,1657.6,338.7,1659.6,341.6L1659.6,341.6L1659.6,341.6z"/>
</svg>
