<?xml version="1.0" encoding="utf-8"?>
<!-- Generator: Adobe Illustrator 19.2.1, SVG Export Plug-In . SVG Version: 6.00 Build 0)  -->
<svg version="1.1" id="Layer_1" xmlns="http://www.w3.org/2000/svg" xmlns:xlink="http://www.w3.org/1999/xlink" x="0px" y="0px"
	 viewBox="0 0 1921 1081" style="enable-background:new 0 0 1921 1081;" xml:space="preserve">
<title>motors</title>
<path d="M341,577.8c0.7,6.9,1.3,13.4,1.9,20c1.1,11.9,2.2,23.7,3.5,35.6c0.5,2.5-0.2,5.1-1.9,7.1c1,1.6,1.9,3.3,2.5,5.1
	c0.2,1.9,0.3,3.8,0.1,5.7c-7,6.5-19.3,11.3-28.5,11.2c-0.9,0-1.7-0.1-2.5-0.2c-2.3-0.5-4.6-1-6.8-1.6c-6.6-1.7-13.2-3.4-19.9-5.1
	c-1.3-4.8-2-9.7-2.3-14.6c-1-11.9-2.1-23.8-3.2-35.6c-0.7-7.7-1.4-15.3-2.1-22.9c-0.3-3.1,0.1-6.4-3.4-8.4c-0.8-0.4-1-2.3-1-3.5
	c-0.1-2.1,0.2-4.2,0.3-6.6c1-0.1,2.1-0.1,3.1,0c13.3,3,26.6,5.9,39.9,9c1.4,0.3,2.8,0.9,4.5,1.4c0.5,4.3,1.1,8.5,1.3,12.7
	c0.6,8,1,16.2,1.5,24.2c0.1,1.9,0.6,3.9-0.9,5.5c-0.1,8-1.2,16,0.9,23.9c0.1,0.3,0.3,0.5,0.5,0.7c2.6,1,5.6,0.7,8-0.8
	c0.3-1.2,0.4-2.4,0.3-3.6c-1-5.4-0.6-11.1-3-16.2c0.8-3.3-2.3-5.6-2.4-8.8c-0.1-3.1-0.4-6.4-0.6-9.6c-0.5-7.4-1-14.9-1.4-22.3
	c-0.1-1.4,0-2.9,0-4.9c2.3,0.4,4.1,0.7,5.9,1.1S338.9,577.4,341,577.8z M301.8,537.1c-0.4-0.1-0.8-0.2-1.3-0.1
	c-2,0.5-3.6-0.5-5.3-1.2c-2.4-0.9-5.1-1.9-7.9-1.1v12.1c-2.5,1-5.1,1.9-7.6,3c-1,0.6-1.9,1.3-2.7,2.1c5.8,1.3,11,2.7,16.1,3.8
	c5.2,1.1,9.9,2.2,14.9,3.2c5,1,10.1,2.9,15.7,3c-0.2-6.5-1-12.9-2.3-19.3L301.8,537.1z M340.7,546.2c-4.6-1-8.9-1.9-13.2-2.8
	c-0.7,0.1-1.4,0.3-2,0.7l2.4,18.9c5,1.3,9.6,2.9,15,3.1L340.7,546.2z M279.7,258.4c-0.7-7-1.5-13.9-2.1-20.9c-0.3-3-0.5-5.9-0.5-8.9
	c0.1-0.8,0.4-1.6,1-2.2c0.5-0.2,1.1-0.2,1.6,0c0.5,1.2,0.8,2.4,1,3.6c0.9,8.5,1.7,16.9,2.5,25.3C283.2,257.5,283,257.8,279.7,258.4z
	"/>
</svg>
