<?xml version="1.0" encoding="utf-8"?>
<!-- Generator: Adobe Illustrator 19.2.0, SVG Export Plug-In . SVG Version: 6.00 Build 0)  -->
<svg version="1.1" id="Layer_1" xmlns="http://www.w3.org/2000/svg" xmlns:xlink="http://www.w3.org/1999/xlink" x="0px" y="0px"
	 viewBox="0 0 1440 810" style="enable-background:new 0 0 1440 810;" xml:space="preserve">
<title>laser</title>
<path d="M279.8,208.6c-1.5,5.6-3,11.3-3.2,17.6c2.9-1.7,4.7-3.3,4-6.6c-0.2-1.3-0.3-2.5-0.3-3.8c0-3.2,1.5-4.9,4.6-5.5
	c2.2-0.4,4.3-1,6.7-1.5h0c0.7-5.3,0.5-7.6-1.1-11.6c-3-0.6-3-0.6-5-3.8C282.4,198.2,281.1,203.4,279.8,208.6z"/>
<path d="M204.6,156.3l0.8,6.3l3.9,1.3l2.8,28.7l-3.4,2.1c0.8,8.9,1.8,17.6,2.5,26.4c1.1,14.2,2.1,23.4,3.2,26.7l4.9,1.3
	c1.2,3.3,0.3,6.8,1.7,10.1c3.8,0.7,7.6,1.3,11.4,2c1.9,0.3,3.8,0.2,5.7-0.4c2.2-0.7,4.6-1.1,6.8-1.6v0.1l-5.2,2.6
	c1.8,0.7,3.4,1,4.6,1.9c1.3,1.2,2.4,2.5,3.5,3.9c6.5-1.9,12.7-3.8,18.9-5.7c0.5-0.4,1-0.8,1.4-1.4l-5.8-1.7l-1.1-6.4l-2.9,0.9
	l0.1-0.2c1.4-1.8,3.3-3.1,3.8-5.5c0.3-0.9,0.9-1.6,1.8-2c1.8-0.5,2.5-2.2,4-3v0.1l0.1-0.1c0.3,1.3,1.2,1.2,2.4,0.7
	c0.5-1.8,1.7-3.5,1.4-5.7c0-0.8,0.2-1.5,0.6-2.2c0.6-1.6,1.4-3.2,1.8-4.8c0.6-2.1,0.9-4.2-0.5-6.1v-0.3h-0.1
	c1-5.2,1.9-10.5,2.9-15.7c0.2-1.1,0.6-2.2,1-3.2h0.1l0.5,2.5l0.4-2.5h0.1v-0.2c1.2-0.7,1-2.1,1.5-3.2c1.3-3,2.1-6.4,3.9-9.2
	c1.6-2.4,2.1-5.3,1.5-8.1c-0.1-1-0.2-1.9-0.4-2.9c-0.3-0.6-0.8-1.2-1.3-1.7c-0.6,1.1-1.1,2.2-1.5,3.3c-0.7,3.1-1.3,6.2-2,9.3
	c-0.2,0.7-0.6,1.4-0.9,2.1c-0.1-5,1.6-9.7,2.9-14.5c0.5-1.2,0.8-2.4,0.9-3.7c-0.1-5-0.5-9.9-1.3-14.8c-0.6-0.3-1.3-0.5-2-0.6
	c-4.9-0.7-9.8-1.3-14.7-1.9c-3-0.4-6.1-0.3-9,0.4c-8.5,2-17.1,3.8-25.7,5.7c-1.8,0.6-3.7,0.8-5.6,0.8c-0.2-0.8-0.4-1.7-0.6-2.5
	c-0.2-2.2-0.4-4.5-0.6-6.7c-0.1-0.9-0.1-2-1.2-2.4c-1.2-0.4-1.9-1.7-1.6-2.9v-0.1c0.7-3.5-0.6-6.6-1.7-9.8c-1-2.8-3.8-4.3-6.9-4.2
	c-2.8,0-5.3,1.9-6,4.7c-0.6,3.1-1.2,6.4,0,9.4C207.1,154.2,206.2,155.2,204.6,156.3z"/>
</svg>
