<svg id="Layer_1" data-name="Layer 1" xmlns="http://www.w3.org/2000/svg" viewBox="0 0 1440 810"><title>stops</title><path d="M488.46,292.8v0.73a2.11,2.11,0,0,1-1.17,1.93,21.93,21.93,0,0,1-2.18,1L450.51,309c-4.79,1.74-9.6,3.44-14.39,5.2-1.19.44-2.3,1.1-3.49,1.53a4,4,0,0,1-3.23-.34,1.15,1.15,0,0,1-.58-0.72,36.33,36.33,0,0,1-.36-3.79,1.58,1.58,0,0,1,1-1.51c1-.44,2-0.87,3.1-1.25,4.8-1.73,9.6-3.43,14.4-5.16,11.55-4.15,23.1-8.28,34.63-12.48a9.16,9.16,0,0,1,4.67-.5,2.17,2.17,0,0,1,2.16,2.1C488.45,292.41,488.46,292.73,488.46,292.8Zm22.25-10.46a6,6,0,0,1,.16-1.46,1.94,1.94,0,0,1,.8-1.1c1.91-.8,3.85-1.54,5.8-2.24l39.16-14c0.45-.16.92-0.27,1.35-0.47a6.41,6.41,0,0,1,4.66-.16,2,2,0,0,1,1.45,1.7,6.71,6.71,0,0,1,0,1.43,2.17,2.17,0,0,1-1.25,1.89c-0.44.19-.87,0.4-1.32,0.57-11.23,4.07-22.48,8.12-33.7,12.23-4.33,1.59-8.61,3.34-12.91,5a3.8,3.8,0,0,1-3.59-.71,1.27,1.27,0,0,1-.42-0.82A13.66,13.66,0,0,1,510.71,282.34ZM581,256.84a5.54,5.54,0,0,1,0-.84,1.76,1.76,0,0,1,1-1.49c1.47-.62,2.93-1.28,4.43-1.82q18-6.49,36-12.93c2-.7,3.91-1.41,5.89-2a6.09,6.09,0,0,1,2.35-.29c2.27,0.23,2.8.82,2.71,3a2.81,2.81,0,0,1-.17.93,1.49,1.49,0,0,1-.52.76,25.07,25.07,0,0,1-3,1.42q-20.46,7.47-40.94,14.9a29.37,29.37,0,0,0-3.1,1.26,4.7,4.7,0,0,1-2.8.33,1.93,1.93,0,0,1-2-2.19A1.34,1.34,0,0,0,581,256.84Zm110.39-37.69a8,8,0,0,1-.21,1.24,1.39,1.39,0,0,1-.53.75,10.17,10.17,0,0,1-1.72.8L657,233.55c-1.5.55-3,1.16-4.44,1.78a4.63,4.63,0,0,1-3.27-.08,1.21,1.21,0,0,1-.67-0.62,4.41,4.41,0,0,1-.15-3.26,2.65,2.65,0,0,1,.87-1.09,4.49,4.49,0,0,1,1.28-.64l33.74-12.1c0.6-.22,1.22-0.39,1.8-0.64a5.78,5.78,0,0,1,4.2.1,1.31,1.31,0,0,1,.85,1A9.35,9.35,0,0,1,691.39,219.15Zm54.19-20c0,1.54-.32,2.14-1.58,2.62-2.39.91-4.78,1.79-7.18,2.66-8.39,3.08-16.79,6.13-25.17,9.24a7,7,0,0,1-3.75.39,1.5,1.5,0,0,1-1.26-1.22,13.47,13.47,0,0,1-.07-1.91,1.71,1.71,0,0,1,.91-1.56c0.87-.4,1.75-0.79,2.64-1.12l29.74-10.7a7.85,7.85,0,0,1,3.73-.6,2,2,0,0,1,2,2q0,0.14,0,.24v0Zm13.62-6.32V192a2,2,0,0,1,1-1.56,8,8,0,0,1,1.31-.57l18.38-6.62a4.79,4.79,0,0,1,3.25-.11,1.8,1.8,0,0,1,1.42,1.66,2.3,2.3,0,0,1-1,2.48,11,11,0,0,1-1.72.81l-18.37,6.68a5.25,5.25,0,0,1-2.33.32,1.88,1.88,0,0,1-1.94-2.22v0ZM640.43,398.49a3.29,3.29,0,0,1,.88-0.72,0.91,0.91,0,0,1,1,.81,1.26,1.26,0,0,1-.52,1.21A1.46,1.46,0,0,1,640.43,398.49Zm0.92-6.66a4.76,4.76,0,0,1,.76.81,0.73,0.73,0,0,1-.66,1,0.91,0.91,0,0,1-.26-1.8h0.16Zm363.72,63.72a1.56,1.56,0,0,0-1.2-1.31c-2-.4-4.08-0.79-6.12-1.17l-19.32-3.56q-10.61-2-21.22-3.9-12.5-2.27-25-4.5c-6-1.08-11.94-2.22-17.92-3.31-5-.92-10.07-1.8-15.1-2.72l-16.51-3c-6.45-1.17-12.9-2.31-19.34-3.49-7.39-1.35-14.76-2.76-22.15-4.11-6.45-1.18-12.91-2.28-19.36-3.45q-14.63-2.66-29.25-5.36l-24.52-4.51q-8.49-1.55-17-3.06c-7.87-1.41-15.74-2.77-23.6-4.2-7.7-1.41-15.39-2.92-23.09-4.33-14.94-2.72-29.89-5.37-44.83-8.09-9.59-1.75-19.16-3.6-28.75-5.35-9.9-1.81-19.82-3.53-29.73-5.33-7.86-1.42-15.72-2.91-23.58-4.34l-40.1-7.31L519,365.76l-24.06-4.38-19.82-3.58q-14.39-2.63-28.77-5.3l-16-3c-7.86-1.41-15.75-2.68-23.6-4.18-8.63-1.64-17.29-3.19-25.94-4.75-3-.54-6-1.19-8.93-1.8a0.68,0.68,0,0,1-.39-0.25,0.38,0.38,0,0,1,.1-0.36,9,9,0,0,1,1.63-.94c6.61-2.41,13.23-4.78,19.84-7.19,2.85-1,5.69-2.13,8.52-3.22a1.85,1.85,0,0,0,1.29-1.83,14.08,14.08,0,0,0-.16-2.38,1.77,1.77,0,0,0-1.21-1.37,7.24,7.24,0,0,0-5.14-.08c-11.27,4.07-22.61,8-33.84,12.15-7.67,2.85-6.83.89-6.32,9.68a8.56,8.56,0,0,0,.09,1.43,28.26,28.26,0,0,0,.79,2.75,1.74,1.74,0,0,0,1.39,1.17l15.54,3q12,2.25,24,4.46c7.54,1.4,15.08,2.84,22.62,4.23,9.59,1.78,19.18,3.52,28.77,5.31q18.39,3.42,36.76,6.88c0.92,0.17,1.67.17,2.09-1.36a3.76,3.76,0,0,1,3.07-2.7,15.66,15.66,0,0,1,2.35-.39,1.88,1.88,0,0,1,2,1.67c0,1.12.76,2,.52,3.25s0.11,1.41,1.13,1.6l26.38,5,42.91,8,30.17,5.63,29.7,5.55q16.26,3,32.51,6.08c9,1.66,17.93,3.27,26.88,5,12.41,2.33,24.8,4.73,37.21,7.06,7.86,1.47,15.74,2.81,23.6,4.28,9.11,1.71,18.2,3.52,27.31,5.24,10.37,2,20.75,3.84,31.12,5.75,0.31,0.06.63,0.08,1,.13a1.21,1.21,0,0,0,1.35-1,2.66,2.66,0,0,1,.83-1.66,12.15,12.15,0,0,1,5.76-2.17,2.82,2.82,0,0,1,2.22.73,1.76,1.76,0,0,1,.43,1.72c-0.11,1.09,0,2.2,0,3.3a1,1,0,0,0,.67,1.08,48.61,48.61,0,0,0,7,1.43c9.42,1.77,18.84,3.57,28.26,5.33,9.58,1.79,19.18,3.54,28.76,5.33,7.38,1.38,14.75,2.8,22.14,4.18,6.44,1.2,12.89,2.36,19.33,3.56,9,1.67,17.9,3.38,26.86,5,9.43,1.75,18.86,3.47,28.29,5.22,7.54,1.4,15.07,2.84,22.61,4.24a3.49,3.49,0,0,0,4-2.87v-0.24c0.26-2.06.4-4.13,0.5-5.16,0-2.23,0-3.35,0-4.47h0Zm-354-61.81a1,1,0,0,1,.74,1,0.72,0.72,0,0,1-1,.65,5.09,5.09,0,0,1-.8-0.78,0.89,0.89,0,0,1,.89-0.89h0.19Zm-9.74-1.91a4.76,4.76,0,0,1,.76.81,0.73,0.73,0,0,1-.66,1,0.91,0.91,0,1,1-.25-1.8h0.15Zm0.41,8a1.46,1.46,0,0,1-1.33-1.29,3.29,3.29,0,0,1,.88-0.72,0.91,0.91,0,0,1,1,.81,1.26,1.26,0,0,1-.54,1.16h0v0Zm2-6.65a1.68,1.68,0,0,1,.53-0.71l3.63,0.61a1.18,1.18,0,0,1,.58,1.17,1.07,1.07,0,0,1-.54.67,25.34,25.34,0,0,1-3.65-.58,1.65,1.65,0,0,1-.5-1.21ZM648,401a0.46,0.46,0,0,1-.45,0c-0.9-.72-2.1-0.41-3-0.93a0.86,0.86,0,0,1,.09-1.46c1.06,0.09,2.12.23,3.19,0.32a3,3,0,0,1,1,1A11.44,11.44,0,0,1,648,401Zm3.35,0.64c-0.3.24-1.17-.48-1.32-1.16a2.74,2.74,0,0,1,.66-0.87,1,1,0,0,1,1.22.92,1.76,1.76,0,0,1-.56,1.1h0Z"/></svg>