<svg id="Layer_1" data-name="Layer 1" xmlns="http://www.w3.org/2000/svg" viewBox="0 0 1920 1080"><title>K_Mask_Motors_00000</title><path d="M1257.66,693.83a2.27,2.27,0,0,0-2.78.69c-0.33.37-1.39,2.15-2,2a7,7,0,0,1-1-1.71,10.31,10.31,0,0,0-.7-1,4.15,4.15,0,0,0-1.81-1.34c-2.75-1.06-5.83-1.13-8.64-2-3-.94-5.36.15-7.05,2.71a5.28,5.28,0,0,0-2.23-4.27c-1.66-1-3.81-1-5.67-1.28a20,20,0,0,1-3.66-.86,5.6,5.6,0,0,0-2.75-.53c-2,.3-3.54,2.31-4.79,3.75,0.1-1.77-.12-3.82-1.74-4.87a11.32,11.32,0,0,0-4.31-1.14,28.64,28.64,0,0,1-4.15-.79,9.84,9.84,0,0,0-3-.77c-2.24,0-3.7,1.83-4.68,3.63a6.32,6.32,0,0,0-2.43-4.61,10.41,10.41,0,0,0-4.42-1.28,25,25,0,0,1-3.87-.82,11.66,11.66,0,0,0-2.79-.62,4.57,4.57,0,0,0-4.46,2.78c-0.74-1.31-1.46-3-2.77-3.88s-3.39-1-5-1.37-2.9-.59-4.36-0.87a11,11,0,0,0-2.58-.33c-1.72.09-3,1.7-4.17,2.8,0-1.78-.64-3.47-2.33-4.27-1.48-.7-3.2-0.69-4.78-1-2-.39-4.12-1.23-6.22-1.27s-3.39,1.41-4.14,3.26c-0.54-1.49-1.1-3.22-2.34-4.3-1.43-1.24-3.45-.94-5.19-1.23a25.14,25.14,0,0,1-3.51-.87,7.35,7.35,0,0,0-2.78-.63c-1.91.14-3.3,1.81-4.51,3.13a5.76,5.76,0,0,0-2.11-4.15c-1.33-.93-2.93-0.95-4.47-1.19-2.25-.36-4.47-1.25-6.76-1.38-2.09-.12-3,2-4.12,3.4a5.75,5.75,0,0,0-2.51-4.58c-1.56-.9-3.44-0.87-5.16-1.2-2-.39-4.27-1.3-6.36-1.16-1.51.11-2.56,1.53-3.52,2.55a5.46,5.46,0,0,0-3-4c-1.6-.76-3.37-0.79-5.07-1.12s-3.61-1.17-5.48-1.12a4.78,4.78,0,0,0-4.05,3c-0.17-1.83-.86-3.58-2.61-4.4a16.81,16.81,0,0,0-4.5-.9c-1.7-.28-3.32-1-5.05-1.11-2.39-.15-4.19,1.25-5.48,3.16-0.06-1.82-.51-3.83-2.27-4.71-1.35-.67-2.92-0.59-4.37-0.8-1.72-.26-3.31-1.1-5-1.29-2.42-.26-4.1,1.24-5.22,3.26-0.2-1.82-.86-3.65-2.56-4.56a14.07,14.07,0,0,0-4.39-1c-1.71-.29-3.33-1-5.07-1.15-2.31-.17-4,1.16-5.15,3.07-0.18-1.8-.81-3.62-2.51-4.49a13.56,13.56,0,0,0-4.27-.88c-1.66-.24-3.22-1-4.89-1.15-2.33-.25-4,1-5.17,3-0.18-1.86-.87-3.69-2.65-4.52a17.31,17.31,0,0,0-4.52-.87c-1.62-.28-3.14-1.05-4.79-1.16-2.27-.15-3.75,1.4-4.69,3.32a5.85,5.85,0,0,0-2.14-4.24c-1.3-.91-2.91-1-4.42-1.25-2-.32-4-1.2-6-1.21a4.09,4.09,0,0,0-3.73,2.81c-0.63-1.33-1.18-2.92-2.37-3.86-1.45-1.14-3.62-.76-5.34-1.11a24.6,24.6,0,0,1-3.25-.92,4.78,4.78,0,0,0-2.33-.4c-1.66.25-2.76,1.82-3.61,3.12a5.29,5.29,0,0,0-2.48-4.23,12.84,12.84,0,0,0-4-.94c-1.64-.27-3.19-0.94-4.84-1.11a5.42,5.42,0,0,0-5.16,2.69,5,5,0,0,0-2.07-4c-1.63-1-3.88-.74-5.68-1.16-1.56-.37-3.36-1.28-5-1s-2.54,2-3.06,3.49a6.23,6.23,0,0,0-2.56-4.49,11.22,11.22,0,0,0-4.06-1.17,39.12,39.12,0,0,0-5-1,6.3,6.3,0,0,0-5.28,2.71c0.08-1.46-.12-3.13-1.48-4s-3.15-.78-4.63-1a21.8,21.8,0,0,1-3.48-.86,5.69,5.69,0,0,0-2.15-.4c-1.77.1-2.86,1.6-3.56,3.08A5.68,5.68,0,0,0,886,617.9a10.84,10.84,0,0,0-3.9-1c-3.36-.49-7.09-2.55-9.47,1-0.58-1.06-1.14-2.59-2.2-3.28s-2.57-.55-3.77-0.83a40.14,40.14,0,0,0-4.91-1.25,5.61,5.61,0,0,0-5,2.06,5.29,5.29,0,0,0-3.08-3.54,18.23,18.23,0,0,0-4.35-.78,10.71,10.71,0,0,1-2-.43,8.29,8.29,0,0,0-2.24-.67c-1.91-.1-3.15,1.51-3.93,3.05a5.54,5.54,0,0,0-2.34-4,9.75,9.75,0,0,0-3.7-1c-1.53-.23-3-0.75-4.52-1a5.27,5.27,0,0,0-5.11,2,4.05,4.05,0,0,0-2.68-3.75,37.32,37.32,0,0,0-4.34-.64c-1.42-.29-2.76-1-4.23-1-2.05,0-3.4,1.6-4.29,3.29,0-1.68-.37-3.61-1.95-4.51a9.92,9.92,0,0,0-3.93-.79c-1.54-.17-2.92-0.89-4.44-1.17-2.17-.39-3.65.84-4.6,2.72a5.26,5.26,0,0,0-2.54-3.85,11.84,11.84,0,0,0-4.15-1c-1.47-.19-2.85-0.8-4.32-1a4.32,4.32,0,0,0-4.26,2.36,4.65,4.65,0,0,0-2.32-3.48,12.68,12.68,0,0,0-3.84-.92c-1.49-.25-2.94-0.81-4.45-0.94a5.26,5.26,0,0,0-4.68,2.16,3.93,3.93,0,0,0-2.17-3.63,15.42,15.42,0,0,0-3.7-.62c-1.49-.23-2.88-0.92-4.38-1.1a4.77,4.77,0,0,0-4.64,2.38,4.53,4.53,0,0,0-2.17-3.59,11.16,11.16,0,0,0-3.68-.84c-3.17-.47-6.52-2.42-8.87.87-1.2-3.35-4-3.65-7.14-4-1.36-.18-2.64-0.9-4-1-1.75-.08-2.87,1.31-3.54,2.77a5.27,5.27,0,0,0-2.61-3.91,12.56,12.56,0,0,0-3.91-.86c-1.37-.2-2.67-0.79-4.05-0.92-1.94-.18-3.32,1-4.26,2.61a4.49,4.49,0,0,0-2-3.77,9.31,9.31,0,0,0-3.43-.75c-3.1-.37-6.51-2.63-8.74.75a9.09,9.09,0,0,0-1.78-2.34,7.51,7.51,0,0,0-3-1.21c-1.79-.44-3.63-0.87-5.46-1.15a3.75,3.75,0,0,0-4.25,2.15,4.76,4.76,0,0,0-2.23-3.24,10.55,10.55,0,0,0-3.43-.86c-3.21-.51-6.3-2.1-8.9.8a3.77,3.77,0,0,0-2.1-3.11,12.8,12.8,0,0,0-3.46-.66c-1.35-.19-2.62-0.73-4-0.94a4.62,4.62,0,0,0-4.47,1.79c-0.66-3.08-3.21-3.41-5.88-3.8-2.83-.41-5.84-2.29-7.94.68-1.81-2.47-5-3.79-8-4.16a10.4,10.4,0,0,0-4.34.28,6.65,6.65,0,0,0-1,.39,3,3,0,0,1-.7.42,6.1,6.1,0,0,1-.77-0.85,9,9,0,0,0-.91-0.76,13.23,13.23,0,0,0-8.83-2.39,8.71,8.71,0,0,0-2,.42,6.49,6.49,0,0,0-1,.43,2.13,2.13,0,0,1-.36.21c-0.39,0-.1,0-0.45-0.24-0.54-.43-1-1-1.55-1.41a11.3,11.3,0,0,0-2.18-1.2c-3-1.27-7.14-1.69-10,.28-0.71-2.77-3.12-3.08-5.54-3.48-2.84-.47-5.9-2.09-8.22.5-1.19-2.67-3.6-3.14-6.23-3.49-1.25-.16-2.39-0.67-3.62-0.86a3.66,3.66,0,0,0-3.67,1.85c-0.71-2.89-3.15-3.29-5.69-3.66-2.77-.4-5.62-2.17-7.81.56a8.34,8.34,0,0,0-1.77-2.06,7.75,7.75,0,0,0-2.83-1c-1.62-.37-3.25-0.73-4.88-1.05a3.29,3.29,0,0,0-3.94,1.75c-0.91-3-3.4-3.38-6.13-3.77-2.55-.35-5.47-2.28-7.07.81a10,10,0,0,0-5.82-3.55,15.08,15.08,0,0,0-3.79-.48,13.1,13.1,0,0,0-1.86.13c-0.63.09-1.25,0.37-1.86,0.44s-0.26.07-.65-0.21c-0.21-.15-0.39-0.38-0.59-0.55a8.84,8.84,0,0,0-1.4-.95,12.27,12.27,0,0,0-3.43-1.24,10.52,10.52,0,0,0-7.12.73c-0.87-2.5-3.25-2.78-5.53-3.17-2.59-.44-5.42-1.87-7.57.43a10.42,10.42,0,0,0-5.92-3.36,12.29,12.29,0,0,0-3.44-.31,17.41,17.41,0,0,0-3,.74c-0.38.09-.28,0.08-0.61-0.18s-0.36-.32-0.55-0.47a10.49,10.49,0,0,0-1.49-1,14.09,14.09,0,0,0-10.51-1.15c-0.47.12-.29,0.17-0.65-0.07a7.28,7.28,0,0,1-.58-0.55,8.78,8.78,0,0,0-1.4-1,13,13,0,0,0-3.35-1.27,14.45,14.45,0,0,0-3.67-.4,11.56,11.56,0,0,0-1.7.16,9,9,0,0,1-1.78.5,7.57,7.57,0,0,1-1.29-1.07,11.25,11.25,0,0,0-1.65-.94,13.53,13.53,0,0,0-3.61-1.09,11.83,11.83,0,0,0-3.64,0,8.32,8.32,0,0,0-1.7.44,0.68,0.68,0,0,1-.63.11,5.43,5.43,0,0,1-.71-0.91,6.64,6.64,0,0,0-3.52-1.61c-1.39-.28-2.8-0.56-4.2-0.8a4.55,4.55,0,0,0-2.52.08,9.9,9.9,0,0,0-2.61,2c0.2-1.29.15-2.81-1.15-3.47a10.66,10.66,0,0,0-3.16-.6,23.92,23.92,0,0,0-4-.83,4.88,4.88,0,0,0-4.15,2.73c0-1.68-.23-3.55-2.06-4.11-1.09-.33-2.29-0.35-3.41-0.59a13.38,13.38,0,0,0-3.7-.66,2.69,2.69,0,0,0-2.14,1.3c-0.2.32-.59,0.94-1.11,0.5a5.75,5.75,0,0,1-.36-1.86c-0.09-.49,0-0.59-0.42-0.79a3.73,3.73,0,0,0-.85-0.16l-1.5-.29-2-.38a3.42,3.42,0,0,1-1.13-.24,5.21,5.21,0,0,1-.1-1.77l-0.2-3.71-0.47-8.67c0-.88,0-1.8-0.14-2.67-0.08-.53-0.05-0.42-0.66-0.51l-7.67-1.11c-0.74-.11-0.55-0.3-0.59-1.06l-0.26-4.22c-0.06-.92.14-2-0.41-2.79-1.53-2.13-3.34-4.12-5-6.15l-9.41-11.59L342.3,444.43,334.6,435l-1.88-2.32c-0.43-.53-0.49-0.34-1.2-0.13l-15,4.55a7.38,7.38,0,0,1-2.62.65c-1.46-.14-2.94-0.57-4.38-0.85l-16.66-3.24-7.63-1.48a32,32,0,0,0-4.18-.81,10.15,10.15,0,0,0-3.17.91l-8.31,2.66-3.18,1a3.91,3.91,0,0,0-.93.31,10.24,10.24,0,0,0-1.51,1.7l-20.46,23L233,472.7l-3.18,3.57a4.56,4.56,0,0,0-1.07,1.28,4.27,4.27,0,0,0,.13,1.23l0.22,2.06,0.31,3a3.53,3.53,0,0,0-2.62-1.38c-1-.17-2-0.36-2.93-0.62-2.09-.55-3.78-0.35-4.79,1.79-0.39-.92-0.82-2.26-1.76-2.79s-2-.12-2.89.08c-0.62.14-.53,0.28-0.52,0.9s0,1,0,1.55c0,1.16.09,2.32,0.15,3.49,0.11,2.19.25,4.37,0.33,6.56s0.12,4.41.19,6.62c0,1,.08,2,0.14,3.07a4.58,4.58,0,0,0,.1,1.53,4.86,4.86,0,0,0,1.59.46,6,6,0,0,0,3.13.34,4.13,4.13,0,0,0,1.22-.63,3.33,3.33,0,0,1,.68-0.51,5.82,5.82,0,0,1,.86,1c2.43,2.33,6.38,3.52,9.57,2.11l2,18.62,2.47,23.39c0.11,1,0,.94,1,1.16l4.79,1.1L261.38,556l26.9,6.15,28.28,6.47,23.18,5.3c3.88,0.89,7.77,1.95,11.68,2.67,0.89,0.17,1.77-.47,2.6-0.81l10.83-4.45,13.2-5.43,5.1-2.1a16.5,16.5,0,0,0,2.84-1.17c0.25-.17.18,0,0.29-0.27a4.57,4.57,0,0,0,0-1.42V559.8a9.69,9.69,0,0,0,2.33.82,6.11,6.11,0,0,0,1.83-.6l1.53-.54a3.49,3.49,0,0,0,1.06-.37,0.91,0.91,0,0,0,.05-0.65l-0.69-12-0.23-4a11.15,11.15,0,0,0,3.26.66A3.26,3.26,0,0,0,398.1,541a5,5,0,0,0,3.46,3.71,35.49,35.49,0,0,0,4.77.85,9.62,9.62,0,0,0,3.39-.43,3.91,3.91,0,0,1,.85-0.17c0.59,0,.23,0,0.63.28s0.64,0.65,1,.93a11.19,11.19,0,0,0,5.24,2.12,9.57,9.57,0,0,0,2.69,0,6.1,6.1,0,0,0,1.13-.26c0.34-.12.7-0.43,1-0.5,0.81-.18,2.47,1.21,3.27,1.64a15,15,0,0,0,3.14,1.05c2,0.57,4.21,1.89,6.2.41l0.27-.22q0.25-.49.52,0a5,5,0,0,1,.78.63,12.86,12.86,0,0,0,4.82,2.22,15.06,15.06,0,0,0,3.54.37c1.07,0,2.43-.45,3.46-0.13a5.39,5.39,0,0,1,1,.58,12,12,0,0,0,1.5.64,31.78,31.78,0,0,0,3.74,1.3,11.34,11.34,0,0,0,3.87.39,8.82,8.82,0,0,0,1.91-.39,5.16,5.16,0,0,1,1.06-.42,2.42,2.42,0,0,1,.48.49,11.47,11.47,0,0,0,5.25,2.55,11.88,11.88,0,0,0,5.87,0c0.21-.06.44-0.18,0.65-0.22,0.41-.08.21-0.2,0.58,0a11.66,11.66,0,0,1,1,.88,12.07,12.07,0,0,0,2.71,1.45,14.84,14.84,0,0,0,6.31,1,11.24,11.24,0,0,0,1.57-.21,6.07,6.07,0,0,1,1.33-.39,2.78,2.78,0,0,1,.91.75,8.74,8.74,0,0,0,1.17.83,13.09,13.09,0,0,0,6.39,1.78,9.09,9.09,0,0,0,3-.4,3.52,3.52,0,0,1,1.22-.44,6.78,6.78,0,0,1,1.12,1c3.23,2.43,8.78,3.62,12.49,1.62,0.25,2.74,2.83,2.55,4.89,3,2.75,0.63,5.48,2,8-.13,2.12,2.74,6.47,3.76,9.77,3.66a9.72,9.72,0,0,0,2.29-.32c0.33-.09.66-0.29,1-0.35s0.15-.25.49,0a3.13,3.13,0,0,1,.47.8,2,2,0,0,0,1.88,1.23,18.62,18.62,0,0,1,3,.91c2,0.71,4.13,1.33,6.14.29a6.24,6.24,0,0,1,1.26-.79c0.56-.08.58,0.52,0.75,0.9a3.44,3.44,0,0,0,1.8,1.72c1.53,0.66,3.29.6,4.88,1a18.29,18.29,0,0,0,3.08.78,3.7,3.7,0,0,0,1.28-.07,5.37,5.37,0,0,0,1.34-.82c0.38-.21.23-0.22,0.66,0s0.67,0.45,1,.68a13.46,13.46,0,0,0,1.58,1,20.18,20.18,0,0,0,3.51,1c2.66,0.77,5.36,1.28,7.75-.5,1,3,3.72,2.93,6.38,3.33,2.51,0.37,5.3,2.44,6.81-.82,1,1.53,1.94,2.79,3.78,3.33a29.62,29.62,0,0,0,4.07.77,11.64,11.64,0,0,0,3,.26c1.13-.13,2.23-0.51,3.35-0.7,0.28,2.83,3.39,2.57,5.5,2.9,2.85,0.45,5.8,2.31,8.14-.38,1.24,2.48,3.57,3.22,6.15,3.51,1.19,0.14,2.33.31,3.5,0.55,1.58,0.32,3.08-.57,4.59-0.9,0.47,2.9,3.57,2.75,5.82,3.18,2.78,0.53,5.68,2.27,7.89-.49,0.69,0.83,1.11,2,2.15,2.46a23.82,23.82,0,0,0,4.64,1.15,33.57,33.57,0,0,0,4.53.79c1.19,0.08,2-1,3-1.54,0.79,2.9,3.43,3.15,6,3.59,3,0.52,5.93,2.07,8.36-.64,0.72,2.87,3.15,3.19,5.65,3.63,3,0.53,6.12,2.12,8.63-.47a7.51,7.51,0,0,0,4.41,3.48,28.47,28.47,0,0,0,4.43.76,8.51,8.51,0,0,0,2.81.07c1-.22,2-0.66,3.06-0.92,0.18,3.47,3.82,2.86,6.28,3.33,1.34,0.25,2.58.93,3.95,1.09a4.23,4.23,0,0,0,4.17-2.38,4.61,4.61,0,0,0,2.28,3.51,11.54,11.54,0,0,0,3.73.85c3,0.44,6.28,2.53,8.47-.74,1.52,2.37,4.43,3.68,7.1,4.24s5.8,0.53,8-1.15a3.73,3.73,0,0,0,2.31,3.2,22.72,22.72,0,0,0,3.88.69,38.42,38.42,0,0,0,4.36,1,5,5,0,0,0,4.49-2.33,4,4,0,0,0,1.79,3.5c1.48,0.82,3.48.75,5.11,1.12s3.33,1.27,4.93,1,2.37-1.78,2.9-3.11a5.79,5.79,0,0,0,2.28,4.1,8.81,8.81,0,0,0,3.58,1c1.51,0.22,2.93.75,4.42,1a5,5,0,0,0,5-1.92,4.07,4.07,0,0,0,2.57,3.58,27.38,27.38,0,0,0,4.15.69,29.27,29.27,0,0,0,4.22,1c2,0.1,3.47-1.26,4.43-2.94,0.11,1.69.61,3.48,2.22,4.3a12,12,0,0,0,3.95.78c1.5,0.21,2.87.92,4.36,1.16,2.12,0.34,3.6-.85,4.54-2.68a5.2,5.2,0,0,0,2.35,3.75,10.84,10.84,0,0,0,3.84,1c3.17,0.48,6.68,2.63,9-.73a8.31,8.31,0,0,0,2.31,2.73,13.91,13.91,0,0,0,4.54,1.3c1.57,0.31,3.07,1.06,4.67,1.21,2.1,0.2,3.53-1.18,4.49-2.91a5,5,0,0,0,2.13,4,10.43,10.43,0,0,0,3.82.94c1.6,0.24,3.11.88,4.72,1.1a5.12,5.12,0,0,0,5.06-2.33,4.79,4.79,0,0,0,2.77,4,20.09,20.09,0,0,0,4.27.76c1.51,0.26,2.9,1,4.43,1.17,2,0.17,3.35-1.25,4.18-3a5.6,5.6,0,0,0,2.56,4,11.86,11.86,0,0,0,4,1c1.58,0.26,3.11.83,4.7,1a5.25,5.25,0,0,0,5-2.25,4.94,4.94,0,0,0,2.27,3.69,5.7,5.7,0,0,0,2,.56,32.43,32.43,0,0,1,3.51.64c1.52,0.36,3.35,1,4.94.89,1.3-.13,2.27-1.38,3.13-2.24,0.69,3.75,3.89,4,7,4.59a35.52,35.52,0,0,0,4.73,1,5.29,5.29,0,0,0,4.7-2.57,4.91,4.91,0,0,0,2.22,3.95,5.64,5.64,0,0,0,2,.57,26,26,0,0,1,3.52.63c1.55,0.4,3.46,1.17,5.1,1,1.47-.18,2.62-1.73,3.58-2.7,0,1.67.43,3.26,2,4a21.52,21.52,0,0,0,5.11,1.08,36,36,0,0,1,3.53.87,5.06,5.06,0,0,0,2,.25c1.84-.23,2.7-2.13,3.19-3.7a6.87,6.87,0,0,0,2.72,4.76,10.43,10.43,0,0,0,4.1,1.21c1.69,0.26,3.32.87,5,1a5.49,5.49,0,0,0,5.27-2.65c0.18,1.84.87,3.65,2.67,4.42a18.26,18.26,0,0,0,4.27.75c1.61,0.27,3.09,1.08,4.72,1.25,2.26,0.23,3.79-1.21,4.79-3.11a5.65,5.65,0,0,0,2.45,4.32c1.65,1,3.74.84,5.56,1.21s3.52,1.32,5.29,1.11,2.79-1.93,3.37-3.5a6.31,6.31,0,0,0,2.74,4.66,12.68,12.68,0,0,0,4.34,1.19c1.7,0.3,3.34,1,5.06,1.13a5.57,5.57,0,0,0,5.27-2.85,4.85,4.85,0,0,0,2.05,4.15c1.5,0.89,3.46.9,5.12,1.28,1.9,0.43,4,1.24,6,1.18,1.55-.05,2.71-1.44,3.76-2.42a5.23,5.23,0,0,0,2.75,3.87c1.8,0.88,4,.76,5.92,1.25,1.56,0.4,3.49,1.16,5.14.94,1.4-.18,2.43-1.62,3.33-2.57a5.18,5.18,0,0,0,3.26,4.26,31.12,31.12,0,0,0,5.12,1c1.53,0.31,3,1,4.59,1,2.24,0,3.72-1.73,4.7-3.58,0.1,2,.64,4.09,2.5,5.09,1.38,0.74,3,.74,4.52,1,1.76,0.26,3.39,1.12,5.16,1.31,2.43,0.27,4.08-1.27,5.13-3.33a6,6,0,0,0,2.9,4.71,16.06,16.06,0,0,0,4.7,1.1c1.71,0.3,3.34,1.07,5.08,1.18,2.37,0.15,4-1.38,5.13-3.34,0.12,1.82.7,3.66,2.36,4.62a15.29,15.29,0,0,0,5,1.31,34.16,34.16,0,0,1,4.06.93,6.07,6.07,0,0,0,2.26.34c2-.17,3-2,3.66-3.66a7.07,7.07,0,0,0,3,4.86c1.53,0.91,3.26.94,5,1.26,2.06,0.39,4.16,1.34,6.29,1.27,1.67-.05,2.93-1.48,4.08-2.52,0.45,4.2,4.36,4.54,7.75,5.19,2,0.37,4,1.22,6,1.19s3.34-1.39,4.23-3.06a5,5,0,0,0,2.22,4.36,13.65,13.65,0,0,0,4.3,1.08c2.24,0.42,4.46,1.18,6.73,1.45a4.24,4.24,0,0,0,4.66-2.62,11.44,11.44,0,0,0,2.36,3.61,8.44,8.44,0,0,0,3.7,1.28l4,0.85c1.24,0.26,2.48.72,3.73,0.87,2.28,0.27,3.82-1.82,5.48-3.05-0.08,1.66.28,3.38,1.81,4.28a13.43,13.43,0,0,0,4.46,1.16,36.57,36.57,0,0,1,3.81.73,15.26,15.26,0,0,0,3,.81,4.48,4.48,0,0,0,4.4-2.81,15.17,15.17,0,0,0,2.63,3.53,7.59,7.59,0,0,0,3.34,1.34c2.33,0.53,4.68,1,7,1.6a4.18,4.18,0,0,0,3.33-.06,22.77,22.77,0,0,0,2.65-2.24c0.89,1.56,1.9,3.7,3.75,4.3a6.41,6.41,0,0,0,2.62.13c0.58-.06,1.16-0.15,1.73-0.24s0.57-.17.6-0.83q0-.74.07-1.48c0.38-7.55,1.06-15.08,1.65-22.62q0.13-1.66.26-3.32l0.12-1.58c0-.35.11-0.45-0.14-0.64a3.21,3.21,0,0,0-.83-0.2,25.86,25.86,0,0,1-3.81-1.23h0Z"/><path d="M496.32,319.32c3.65-.51,6.91-2.46,10.55-3.06a28.67,28.67,0,0,0,5.3-1.65,26.68,26.68,0,0,1,5.18-1.31c3.74-.61,7.3-2.34,10.89-3.5a54.69,54.69,0,0,1,6-1.67c1.79-.36,3.61-0.34,5.33-1,1.49-.56,2.87-1.39,4.38-1.92s3.08-.27,4.65-0.61a20.35,20.35,0,0,0,4.29-1.81,10.64,10.64,0,0,1,4.5-1c3.41-.1,6.21-2.57,9.6-2.89s6.31-2.58,9.74-3c3.69-.44,6.89-2.32,10.51-3a46.62,46.62,0,0,0,6.15-1.63c1.89-.64,3.72-1.49,5.64-2s3.66-.72,5.47-1.22,3.38-1.54,5.17-2.07,3.65-.72,5.46-1.17a54.11,54.11,0,0,0,5.71-2.16c3.85-1.44,7.82-2.71,11.79-3.81a56.09,56.09,0,0,1,5.92-1.08,22.77,22.77,0,0,0,4.89-1.68,18.53,18.53,0,0,1,5.27-1.28,23.54,23.54,0,0,0,5.59-1.56c3.91-1.46,7.92-2.4,11.91-3.57s7.87-2.89,11.87-4.16c2-.65,4.08-1.25,6.15-1.76s4.06-.73,6-1.25,3.66-1.26,5.5-1.87,3.82-.87,5.73-1.36c4-1,8-2.46,11.84-3.89a94.43,94.43,0,0,1,12.25-3.54c4.11-.91,8.14-2.21,12.17-3.42s7.75-2.73,11.67-4,8.27-2,12.36-3.12c8.3-2.33,16.53-4.95,24.83-7.31,4.11-1.17,8.15-2.52,12.2-3.88s8.18-2.29,12.28-3.43,8-2.86,12.1-4,8.25-1.9,12.3-3.14,8.16-2.68,12.3-3.83,8.29-2.3,12.42-3.51,8.33-2.58,12.49-3.89,8.28-2.29,12.42-3.45c8.35-2.33,16.52-5.27,24.88-7.55s16.65-4.7,24.91-7.29c4.18-1.31,8.34-2.66,12.54-3.92s8.29-2.27,12.43-3.42,8.27-2.32,12.35-3.64c2.1-.68,4.2-1.39,6.29-2.09a8,8,0,0,0,1.48-.49c0.4-.24.27,0.1,0.32-0.44a3.38,3.38,0,0,0-.09-0.64,4.81,4.81,0,0,0-1.51-.17L977,175c-4.09-.43-8.23-1.58-12.34-1-4.27.61-8.46,2.18-12.59,3.39q-25.46,7.43-50.93,14.79l-50.63,14.69q-25.39,7.38-50.76,14.8T749.3,236.57c-16.8,5-33.7,9.56-50.51,14.48s-33.76,9.8-50.64,14.69-33.83,9.93-50.74,14.94-33.67,9.46-50.37,14.69c-8.19,2.56-16.42,4.93-24.7,7.17l-6.42,1.74a5.09,5.09,0,0,0-1.52.42,5.78,5.78,0,0,0,.19,1.19,3.15,3.15,0,0,1-.38,1.81,4.65,4.65,0,0,1-2.83,1.72c-2,.61-4.11,1.15-6.16,1.74l-5.88,1.73-3,.9c-0.65.19-1.93,0.53-2.2,1.16a11,11,0,0,0-.25,2.8c-0.06.67,0,.79-0.61,1l-1.41.5-5.59,2c3.7,1.2,6.58-1.41,10.08-1.89h0Z"/><path d="M421.33,266.9a1.88,1.88,0,0,1-1.61,2.21,11.63,11.63,0,0,0-1.35.38,1.12,1.12,0,0,0-.78,1.36c0,4.09.22,8.07,0.59,12.14L433,281.12l3.52-.44a4,4,0,0,0,.75-0.09,4.39,4.39,0,0,0-.08-1.17L437,277.49,436.5,270,436,262.93a6.66,6.66,0,0,0-.12-1.63l0-.36-0.76-.21-0.75-.19a34.17,34.17,0,0,0-3.71-.71,26.71,26.71,0,0,0-7.23,0c-1.89.27-4.44,0.59-6,1.81a1.94,1.94,0,0,0-.78,1.81,2.94,2.94,0,0,0,.4,1.28,0.88,0.88,0,0,0,1,.31c1.59,0,3.09-.15,3.34,1.85h0Z"/><path d="M365.19,357.41c0.2-.28,1.16.09,1.43,0.14a7.23,7.23,0,0,0,2.36.05,15.72,15.72,0,0,0,4.21-1.46,3.17,3.17,0,0,0,.93-0.42,4.13,4.13,0,0,0-.07-1.27c0-.59.09-2.07-0.32-2.35a8.73,8.73,0,0,0-2.46-.51l-2.62-.56a31.14,31.14,0,0,0-9.86-.77c-3.25.39-6.45,1.6-9.59,2.51L338.11,356c4.75,2,10.25,1.19,14.86,3.5a10.94,10.94,0,0,1,1.64,1q0.37,0.28.72,0.59a0.66,0.66,0,0,0,.71.32,12.84,12.84,0,0,0,1.51-.55c0.56-.16,1.13-0.29,1.69-0.41,2.26-.5,4.54-1.06,5.94-3.07h0Z"/><path d="M1037.2,237.52l-11.14-12.7-13.53-15.43c-0.56-.64-1.08-0.46-2-0.51l-5.53-.31a9.76,9.76,0,0,1-.09,2.68,1.15,1.15,0,0,1-.91.5l-6.09,2.05-2.67.9a0.93,0.93,0,0,0-.79.46,4.09,4.09,0,0,0,0,1.16v1.9a4.22,4.22,0,0,1,0,1.55,2.25,2.25,0,0,1-.71.24l-1.63.55-5.17,1.75-13.36,4.53-8.39,2.84,7.14,0.78,17.24,1.88,20.77,2.26,18,2,8.78,1h0.12Z"/></svg>