<?xml version="1.0" encoding="utf-8"?>
<!-- Generator: Adobe Illustrator 19.2.1, SVG Export Plug-In . SVG Version: 6.00 Build 0)  -->
<svg version="1.1" id="Layer_1" xmlns="http://www.w3.org/2000/svg" xmlns:xlink="http://www.w3.org/1999/xlink" x="0px" y="0px"
	 viewBox="0 0 1920 1080" style="enable-background:new 0 0 1920 1080;" xml:space="preserve">
<title>Mask_Stops_ULSP</title>
<g>
	<path d="M646.4,479.4L491.6,451l43.8-16.1l-0.1-6.8l-6.4-0.9l-56.2,20.4l1.5,16.1l175.1,32.8c0,0-2-7.4,9.2-6.3
		c-0.1,1.7,0.4,1.3,0.7,1c0.4-0.3,1.5,0,0.3,1.1c-1.8,1.3-0.4,1.8,0.3,2.3c1.8,1.3-1,3.7-1,3.7l417.1,78c0,0,0.4-1.3-0.9-1.8
		c0.1-0.9,0.2-1.8,0.4-2.7l7.7-3.1l4.5,0.9l-1,8.7l247.7,46.4l3.5-2.9l1-16.1L646.4,479.4z"/>
	<polygon points="575.3,421 649.9,393.1 649.4,386.4 643.5,385.7 569.8,412.5 570,420.2 	"/>
	<polygon points="684.2,381 750.6,356.4 750.4,350.3 744.9,349.5 679.4,373 679.5,380 	"/>
	<polygon points="843,322.8 843.1,316.6 838,316 773.2,339.3 773.2,345.8 778.5,346.6 	"/>
	<polygon points="867.5,313.9 920.6,294.3 920.4,288.8 914.9,288.1 862.9,307 863.2,313.2 	"/>
	<polygon points="945,285.7 992.5,268 992.5,262.6 987.4,262.1 940.4,279 940.6,284.9 	"/>
	<polygon points="1044.8,249 1044.7,243.8 1040.2,243.3 1010.6,254 1010.6,259.3 1015.2,260 	"/>
</g>
</svg>
