<svg id="Layer_1" data-name="Layer 1" xmlns="http://www.w3.org/2000/svg" viewBox="0 0 1920 1080"><title>K_Mask_Main_Surfase_00000</title><path d="M1700.36,310.51q-31.61-3.55-63.24-7t-63.4-6.93q-31.62-3.5-63.25-6.95T1447,282.66q-31.77-3.52-63.55-7t-63.31-7q-31.58-3.48-63.17-6.9-31.76-3.46-63.5-7t-63.5-6.93l-31.65-3.5-15.82-1.76-7.91-.89a25,25,0,0,0-7.23,0,39.7,39.7,0,0,0-7,2.34c-2.39.9-4.8,1.76-7.2,2.63-5,1.78-9.91,3.6-14.86,5.41l-30.05,11-60.1,22L888.22,307l-60.08,22-59.89,21.89-60.08,22-60.08,22-60.08,22-60.08,22-30,11c-4.94,1.8-9.92,3.51-14.78,5.51a5.31,5.31,0,0,0-1.58.64,0.46,0.46,0,0,0,0,.65c0.25,0.44.07,0.18,0.48,0.35a9.16,9.16,0,0,0,1.95.32l2.34,0.38c2.62,0.44,5.22.94,7.83,1.42l62.63,11.53L619.47,482l62.93,11.59,62.85,11.6,62.83,11.6,62.8,11.55,62.81,11.55,62.87,11.6,62.65,11.56,62.59,11.55,62.77,11.57,62.75,11.54q31.34,5.77,62.68,11.58,7.83,1.47,15.65,3c2.53,0.48,5.06,1.1,7.61,1.44a8.22,8.22,0,0,0,5.47-1,53,53,0,0,0,5.93-4.74l6.16-5.07,12.31-10.14q24.63-20.27,49.29-40.51l49.16-40.35L1511,471.34l49.26-40.42,49.42-40.55,49.42-40.55,23.78-19.51c7.51-6.17,15.28-12.12,22.38-18.75A47.83,47.83,0,0,0,1700.36,310.51Z"/><path d="M281.16,428a5.77,5.77,0,0,0-.15-1.89,4.33,4.33,0,0,0-1.15-.19l-1.51-.24-2.59-.41c-3.3-.52-6.6-1-9.89-1.63-6.24-1.12-12.47-2.28-18.71-3.43-6-1.1-12-2-17.93-3.24a24.27,24.27,0,0,1-7.68-2.71,9.51,9.51,0,0,0-3.24-1.56,8.19,8.19,0,0,0-3.65.37c-6,1.74-12,3.69-18,5.5q-10,3-20,6a3,3,0,0,1,.43,2.62,2.86,2.86,0,0,1-1.89,1.13,6.74,6.74,0,0,0-1.21.31c-0.48.25-.28-0.15-0.36,0.51a5.79,5.79,0,0,0,.13,1.18l0.54,5q0.5,4.69,1,9.37c0.27,2.52.41,5.12,0.9,7.61a3,3,0,0,0,2.14,2.58,67.56,67.56,0,0,0,7.85,1.64l19.07,3.76q9.73,1.93,19.44,3.91,4.66,1,9.32,1.95c2.25,0.48,4.41.7,6.35-.77a16.53,16.53,0,0,0,2.48-2.59q1.65-1.93,3.31-3.85,3.07-3.55,6.18-7.06,3.23-3.67,6.45-7.35c1.94-2.22,3.75-4.77,6-6.65s5.12-2.55,7.94-3.42c1.69-.52,3.36-1.07,5-1.62l2.56-.83a4.1,4.1,0,0,0,1.11-.36,4.65,4.65,0,0,0-.11-1.46Zm-18.76-5h0Zm2.14,0.38-0.6-.11Zm2.22,0.4h0Zm-0.65-.12,0.16,0Z"/><path d="M1311.07,620l-2-.37Z"/><path d="M1320.79,621.8h0.06l-9.59-1.79,9.52,1.78-44.92-8.39-45.06-8.4-44.89-8.37-45.09-8.4-45.09-8.41-44.89-8.37L1005.75,563l-45.18-8.42-45.2-8.43-45.2-8.44-45-8.42L780,520.87l-45.18-8.43-45-8.36-45.15-8.4-45.15-8.42-45.15-8.44-44.95-8.42-22.57-4.23L475.47,464l-5.5-1a30.58,30.58,0,0,0-5.46-.78c-3.62,0-7,1.74-10.33,3-3.58,1.33-7.17,2.63-10.76,3.93-3.35,1.22-6.74,2.37-10.05,3.68-1.47.58-3.21,1.25-3.71,2.91-0.6,2,0,4.45.12,6.47,0.25,3.4.4,6.8,0.61,10.2l-8.5-1.7c-2.52-.5-5.15-0.83-7.64-1.48-2.22-.59-2.38-2.3-2.56-4.3-0.13-1.44-.32-2.87-0.46-4.3s-0.08-2.69-.2-4a4.08,4.08,0,0,0-2.52-3.74,7.41,7.41,0,0,1-1.38-.34,0.68,0.68,0,0,1-.16-0.69,0.66,0.66,0,0,1,.43-0.64,5.85,5.85,0,0,1,1.1-.8c0.62-.26,1.27.19,1.9,0.31,2.48,0.44,4.8-.66,7.06-1.5,2.85-1.06,5.72-2.06,8.57-3.08l67.59-24.29,67.58-24.32L629.05,393l67.84-24.45,67.65-24.39L832.2,319.8l68-24.52,67.68-24.38,67.67-24.38c5.44-2,10.9-3.84,16.21-6.12-2.7-1.86-6-1.84-9.14-2.18l-10.17-1.09c-7-.75-13.92-1.52-20.87-2.28l-20.72-2.29c-6.89-.77-13.78-1.7-20.68-2.33a23.27,23.27,0,0,0-9.59,1.26l-9.87,3.27-20.12,6.66-39.86,13.19-40,13.26L810.88,281l-40,13.25L731,307.48l-39.86,13.19-40,13.25-40,13.25-39.86,13.19-39.86,13.19-40,13.25-10.06,3.33c-1.59.53-3.2,1-4.78,1.59-0.67.24-1.33,0.5-2,.77a13.21,13.21,0,0,0-2.13.86c-0.31.2-.24,0-0.3,0.33a2.24,2.24,0,0,0,.21.75l0.3,1.11,0.69,2.5a25.62,25.62,0,0,0,1.31,4.39c0.63,1.29,2.15,2.15,3.26,3l1.91,1.48a8,8,0,0,0,.91.7,0.56,0.56,0,0,0,.49.17,3.88,3.88,0,0,0,.88-0.33,23.59,23.59,0,0,1,6.06-1.84,12.61,12.61,0,0,1,5.07,1,2.85,2.85,0,0,1,1.54.7,9.44,9.44,0,0,1,.2,2.62c0.13,1.66.25,3.33,0.29,5a7.87,7.87,0,0,0,.53,3.44,4.2,4.2,0,0,0,2.47,1.83,2.73,2.73,0,0,1,1.78,1.91,2.58,2.58,0,0,1,0,.9,0.6,0.6,0,0,1-.57.65l-2.47,1a92.78,92.78,0,0,1-9.25,3.44,7.55,7.55,0,0,1-6.57-1,8.29,8.29,0,0,1-2.24-2.56,3.53,3.53,0,0,0-.4-0.76,3.85,3.85,0,0,0-1.26-.42,11,11,0,0,0-2.31-.37c-3.37-.18-6.54,1.28-9.65,2.38q-4.94,1.75-9.9,3.47l-9.73,3.37c-3.23,1.12-6.47,2.51-9.78,3.36s-6.43,0-9.63-.64L416,433l-20.49-3.71-10.34-1.88c-3.29-.6-6.73-1.59-10.1-1.52s-6.42,1.49-9.51,2.53q-4.94,1.67-9.89,3.29c-6.13,2-12.32,3.85-18.23,6.44,10,12.53,20.19,24.92,30.29,37.38,2.35,2.9,4.66,5.84,7.1,8.67,1.9,2.2,3.86,4.49,4.72,7.33a10.84,10.84,0,0,1,.4,2,11.16,11.16,0,0,1,.06,1.22,3.53,3.53,0,0,0,0,.64,3,3,0,0,0,1,.2l6.08,1.22,12.15,2.43L448,509l48.79,9.76,48.59,9.72,49,9.79,48.58,9.72,48.77,9.75,48.77,9.75,48.77,9.75L838,587l48.77,9.75,48.78,9.76,48.58,9.72,48.78,9.76,48.79,9.76,48.79,9.76,48.8,9.76,48.8,9.76,48.81,9.76,23.53,4.71q0.83-13.84,1.4-27.7c0.16-3.74-.11-7.71,2.35-10.82a24.75,24.75,0,0,1,4.46-3.84c1.86-1.45,3.69-2.93,5.51-4.43s3.91-3.27,5.87-4.9a59.71,59.71,0,0,0,5.1-4.84c-1.41-.37-2.81-0.84-4.24-1.11Zm-885-182.91-0.32,0Zm-1.18.15-0.44.06Zm-2.82.36,0.13,0-0.12,0c7.09-.91,16.27-1.77,22.21,3.16-3.6,3.2-9,4.36-13.61,5a46.12,46.12,0,0,1-16.57-.34,15.13,15.13,0,0,1-6.48-2.81C421.23,440.57,426.64,440.06,431.79,439.4Z"/><path d="M1311.26,620l-0.18,0Z"/><path d="M430.87,439.51h0Z"/><path d="M431.69,439.41l-0.4.05Z"/><path d="M431,439.5h0Z"/><path d="M431.29,439.46l-0.32,0Z"/><path d="M431.79,439.4h0Z"/><path d="M1309.11,619.61l-0.26,0Z"/><path d="M1320.85,621.81h0Z"/><path d="M1308.85,619.56h0Z"/></svg>