<?xml version="1.0" encoding="utf-8"?>
<!-- Generator: Adobe Illustrator 19.2.0, SVG Export Plug-In . SVG Version: 6.00 Build 0)  -->
<svg version="1.1" id="Layer_1" xmlns="http://www.w3.org/2000/svg" xmlns:xlink="http://www.w3.org/1999/xlink" x="0px" y="0px"
	 viewBox="0 0 1920 1080" style="enable-background:new 0 0 1920 1080;" xml:space="preserve">
<title>Mask_Stops_ULSP</title>
<path d="M646.4,479.4L491.6,451l43.8-16.1l-0.1-6.8l-6.4-0.9l-56.2,20.4l1.5,16.1l175.1,32.8c0,0-2-7.4,9.2-6.3
	c-0.1,1.7,0.4,1.3,0.7,1c0.4-0.3,1.5,0,0.3,1.1c-1.8,1.3-0.4,1.8,0.3,2.3c1.8,1.3-1,3.7-1,3.7l417.1,78c0,0,0.4-1.3-0.9-1.8
	c0.1-0.9,0.2-1.8,0.4-2.7l7.7-3.1l4.5,0.9l-1,8.7l247.7,46.4l3.5-2.9l1-16.1L646.4,479.4z"/>
<path d="M575.3,421c3.2-1.2,6.5-2.4,9.7-3.6c7.4-2.8,14.8-5.5,22.2-8.3c8.1-3,16.3-6.1,24.4-9.1c5.4-2,10.9-4.1,16.3-6.1
	c0.5-0.2,1.1-0.3,1.6-0.6c0.4-0.2,0.4-0.1,0.3-0.7c-0.1-1.9-0.2-3.8-0.4-5.7c-0.1-0.5,0-0.4-0.6-0.5c-1-0.1-1.9-0.2-2.9-0.3
	c-0.8-0.1-1.7-0.4-2.5-0.2c-0.4,0.1-0.9,0.3-1.3,0.5c-2,0.7-4,1.5-6,2.2c-7.1,2.6-14.2,5.2-21.3,7.7c-8.2,3-16.4,6-24.6,9
	c-5.9,2.1-11.7,4.3-17.6,6.4c-0.7,0.2-1.4,0.5-2,0.7c-0.1,0-0.7,0.1-0.7,0.3c-0.1,0.2,0,1.1,0,1.4c0,1.1,0.1,2.1,0.1,3.2
	c0,0.9,0,1.8,0.1,2.7c0,0.6,0,0.5,0.5,0.6C572.1,420.5,573.7,420.8,575.3,421z"/>
<path d="M684.2,381c2.9-1.1,5.8-2.1,8.7-3.2c6.6-2.4,13.2-4.9,19.8-7.3c7.3-2.7,14.5-5.4,21.8-8.1c4.8-1.8,9.6-3.6,14.5-5.4
	c0.4-0.2,1-0.3,1.4-0.5c0.4-0.2,0.3-0.1,0.3-0.7c0-0.9-0.1-1.8-0.1-2.6c0-0.8,0.1-1.8-0.1-2.5c-0.1-0.4,0-0.3-0.6-0.4
	c-0.9-0.1-1.8-0.3-2.7-0.4c-0.7-0.1-1.6-0.4-2.4-0.3c-0.4,0.1-0.7,0.3-1.1,0.4c-1.8,0.6-3.5,1.3-5.3,1.9c-6.3,2.3-12.7,4.5-19,6.8
	c-7.3,2.6-14.7,5.3-22,7.9c-5.2,1.9-10.4,3.7-15.6,5.6c-0.6,0.2-1.2,0.4-1.8,0.6c-0.1,0-0.5,0.1-0.6,0.2c-0.2,0.2,0,1.2,0,1.4
	c0,0.9,0,1.9,0,2.8c0,0.8-0.1,1.6,0,2.3c0.1,0.5,0,0.4,0.5,0.5C681.4,380.4,682.8,380.7,684.2,381z"/>
<path d="M843,322.8c0-1.4,0-2.8,0.1-4.3c0-0.3,0.2-1.6,0-1.9c-0.1-0.2-0.9-0.2-1.2-0.2c-1.5-0.2-3.2-0.7-4.7-0.2
	c-4.2,1.5-8.3,3-12.5,4.5c-7,2.5-14,5-21,7.5c-6.7,2.4-13.5,4.9-20.2,7.3c-2.3,0.8-4.6,1.7-7,2.5c-0.7,0.3-1.5,0.5-2.2,0.8
	c-0.3,0.1-0.9,0.2-1.1,0.4c-0.3,0.3-0.1,1.3-0.1,1.8c0,1,0,1.9,0,2.9c0,0.4-0.2,1.5,0,1.8c0.1,0.2,0.8,0.2,1.1,0.2
	c0.9,0.1,1.8,0.3,2.7,0.4c0.5,0.1,1.1,0.3,1.7,0.2c1.1-0.2,2.3-0.9,3.4-1.3c2.3-0.9,4.7-1.7,7-2.6c6.8-2.5,13.5-5,20.3-7.5
	c6.9-2.6,13.9-5.1,20.8-7.7c4-1.5,8.1-3,12.1-4.5C842.6,322.9,842.8,322.9,843,322.8z"/>
<path d="M867.5,313.9c7.8-2.9,15.6-5.8,23.5-8.7c9.6-3.5,19.2-7.1,28.7-10.6c0.2-0.1,0.7-0.2,0.9-0.3c0.2-0.3,0-1.4,0-1.8
	c0-0.8-0.1-1.5-0.1-2.3c0-0.2,0.1-1.2-0.1-1.4c-0.1-0.1-0.7-0.1-0.9-0.1c-0.8-0.1-1.5-0.2-2.3-0.3c-1.2-0.2-2-0.4-3.1,0
	c-1.4,0.5-2.8,1-4.2,1.5c-11.1,4-22.2,8.1-33.3,12.1c-4.1,1.5-8.2,3-12.3,4.5c-0.4,0.1-0.9,0.2-1.2,0.4c-0.3,0.2-0.2,0-0.2,0.5
	c-0.1,1.4,0.1,2.9,0.2,4.2c0,0.3-0.1,1.2,0.1,1.5c0.1,0.2,0.5,0.2,0.8,0.3C865.2,313.5,866.3,313.7,867.5,313.9z"/>
<path d="M945,285.7c7.2-2.7,14.4-5.4,21.6-8c8.5-3.2,16.9-6.3,25.4-9.5c0.1,0,0.5-0.1,0.5-0.2c0.1-0.1,0-0.6,0-0.7
	c0-0.7,0-1.4,0-2.1c0-0.4,0.3-2.3,0-2.6c-0.2-0.2-1-0.1-1.3-0.1c-0.8-0.1-1.5-0.1-2.3-0.2c-1-0.1-1.4-0.2-2.4,0.2
	c-1.3,0.5-2.7,1-4,1.5c-10.2,3.7-20.3,7.3-30.5,11c-3.5,1.3-7.1,2.5-10.6,3.8c-1,0.4-1,0.2-0.9,1.4c0,1.4,0.1,2.7,0.1,4.1
	c0,0.2-0.1,0.6,0,0.7c0.1,0.2,1,0.2,1.3,0.2C942.9,285.3,944,285.5,945,285.7z"/>
<path d="M1044.8,249c0-1.5-0.1-3-0.1-4.5c0-0.6,0.1-0.6-0.3-0.8c-0.8-0.3-1.9-0.2-2.7-0.3c-0.7-0.1-1.3-0.2-1.9,0
	c-0.9,0.3-1.8,0.6-2.7,1c-6.9,2.5-13.7,5-20.6,7.4c-1.3,0.5-2.6,0.9-3.9,1.4c-0.4,0.2-1.6,0.3-1.9,0.7c-0.1,0.1-0.1,0.3-0.1,0.6
	c0,0.9,0,1.9,0,2.8c0,0.3-0.2,1.7,0,1.9c0.2,0.2,1.3,0.2,1.6,0.3c0.9,0.1,2.2,0.6,3.1,0.4c0.7-0.1,1.4-0.5,2.1-0.8
	c3.1-1.1,6.2-2.3,9.3-3.4c5.9-2.2,11.9-4.4,17.8-6.6C1044.6,249.1,1044.7,249,1044.8,249z"/>
</svg>
