<svg id="Layer_1" data-name="Layer 1" xmlns="http://www.w3.org/2000/svg" viewBox="0 0 1440 900"><title>motors</title><path d="M255.36,523c0.5,5.15,1,10.06,1.44,15,0.85,8.9,1.66,17.81,2.6,26.7a6.43,6.43,0,0,1-1.35,5.34,18.33,18.33,0,0,1,1.91,3.82,18.94,18.94,0,0,1,.07,4.26c-5.24,4.87-14.45,8.5-21.35,8.41a9.62,9.62,0,0,1-1.9-.18q-2.57-.56-5.13-1.21c-4.94-1.26-9.88-2.54-14.89-3.83a54.35,54.35,0,0,1-1.69-10.94q-1.18-13.36-2.39-26.72-0.79-8.59-1.68-17.17c-0.24-2.3.07-4.8-2.54-6.27-0.58-.33-0.72-1.72-0.76-2.63-0.05-1.56.14-3.13,0.24-4.93a11.18,11.18,0,0,1,2.32,0q15,3.32,29.91,6.72c1.07,0.24,2.1.66,3.37,1.07,0.35,3.19.79,6.34,1,9.5,0.43,6.05.77,12.12,1.09,18.18,0.07,1.39.47,2.89-.65,4.11-0.06,6-.89,12,0.66,17.92a2.38,2.38,0,0,0,.38.52,6.92,6.92,0,0,0,6-.59,10.31,10.31,0,0,0,.22-2.7c-0.74-4.06-.47-8.32-2.28-12.18,0.57-2.5-1.72-4.22-1.78-6.57s-0.28-4.78-.44-7.18c-0.36-5.58-.74-11.16-1.08-16.73-0.07-1.08,0-2.17,0-3.67,1.71,0.33,3.07.55,4.42,0.85S253.82,522.64,255.36,523ZM226,492.42a1.92,1.92,0,0,0-.94-0.09c-1.53.41-2.69-.41-4-0.91-1.83-.68-3.8-1.42-5.91-0.86v9.06c-1.9.74-3.83,1.43-5.7,2.25a12.3,12.3,0,0,0-2.06,1.59c4.38,1,8.24,2,12.11,2.83s7.45,1.66,11.2,2.4,7.54,2.17,11.8,2.26a85.75,85.75,0,0,0-1.73-14.44Zm29.17,6.86c-3.45-.74-6.68-1.46-9.93-2.11a4.19,4.19,0,0,0-1.52.5l1.8,14.14c3.78,1,7.21,2.15,11.23,2.36ZM209.38,283.43c-0.54-5.24-1.1-10.44-1.59-15.66-0.21-2.22-.34-4.45-0.39-6.67a2.71,2.71,0,0,1,.74-1.64,1.36,1.36,0,0,1,1.2,0,10.46,10.46,0,0,1,.73,2.72c0.65,6.34,1.25,12.68,1.85,19C212.06,282.77,211.84,283,209.38,283.43Zm100.91-84.65c-1-2.83-2.1-5.66-1.41-8.8a13.41,13.41,0,0,0,.25-3.78c-0.39-5.42-.87-10.83-1.34-16.24-0.07-.77-0.27-1.53-0.45-2.52-2.28-.34-4.49-1-6.65-0.89a35,35,0,0,0-7,1.61c-0.71.19-.69,1.56,0,2a5,5,0,0,0,1.32.48,1.61,1.61,0,0,1,1.39,1.67c0,0.94-.75,1.29-1.51,1.63a7.3,7.3,0,0,0-1.18.84c0.09,3.36-.07,6.69.9,10l4.76,1.28,0.17,2.93-4.5.63c0.88,4.22,1.55,8.21-1.27,12.07a24.77,24.77,0,0,0,18.36-1.1C311.33,199.77,310.51,199.38,310.29,198.78Z"/></svg>