<svg id="Layer_1" data-name="Layer 1" xmlns="http://www.w3.org/2000/svg" viewBox="0 0 1440 900"><title>cooling</title><path d="M369,308.35l1.38,21.21a63,63,0,0,1-12.27,3.77l-2.2-2.39-29.32,8.6c-0.85,1.39-1.1,3-3,3.45-3.41.82-6.73,2-10.12,2.92a5.47,5.47,0,0,1-3.26,0c-3.2-1.35-6.17-.26-8.71,1.18-4.05,2.3-8.05,2.53-12.45,1.67-4.22-.83-8.53-1.23-12.79-1.89-1.55-.24-3.07-0.68-4.47-1-1.43-5.51-1.15-10.26-.39-15.3a34.33,34.33,0,0,1,3.33-10.21,21.77,21.77,0,0,1,4.84-6.4c3.76-3.47,8.14-5.12,13.2-4a24.94,24.94,0,0,0,9,.21c11.88-1.53,23.78-2.91,35.68-4.36,1.27-.15,2.52-0.47,3.79-0.54a41.46,41.46,0,0,1,7.15-.18c6,0.69,12,1.66,18,2.54C367.21,307.83,368,308.09,369,308.35Z"/></svg>