<svg id="Layer_1" data-name="Layer 1" xmlns="http://www.w3.org/2000/svg" viewBox="0 0 1440 810"><title>perforated-surface</title><path d="M1090.6,393.21a13.93,13.93,0,0,1-1.69,2c-10.6,8.75-21.25,17.45-31.84,26.22a6.31,6.31,0,0,1-5.69,1.48c-14.78-2.67-29.59-5.19-44.4-7.71-12.44-2.11-24.91-4.12-37.35-6.24-11.82-2-23.61-4.13-35.43-6.15-15.75-2.69-31.52-5.32-47.27-8q-27.17-4.63-54.33-9.31-20.32-3.5-40.6-6.93l-54.34-9.27c-18.27-3.1-36.56-6.14-54.83-9.25-13.55-2.3-27.08-4.68-40.62-7l-41.58-7.15q-24.34-4.16-48.69-8.27l-42.53-7.23q-24.1-4.12-48.19-8.28c-8-1.38-16.07-2.72-24.11-4.1-0.89-.15-1.75-0.44-3.18-0.81a8.51,8.51,0,0,1,1.56-1.56A36.6,36.6,0,0,1,439,314.2l47.75-17.42a12.24,12.24,0,0,1,6.54-.62c14,2.37,28.07,4.61,42.12,6.84,16.89,2.68,33.8,5.28,50.68,8s34.08,5.54,51.12,8.28c12.78,2,25.57,4,38.35,6.07q22,3.51,44,7.06l39.28,6.32,67.69,10.77c16.72,2.69,33.42,5.52,50.14,8.19,21.15,3.37,42.32,6.6,63.46,10,16.72,2.67,33.42,5.5,50.14,8.19,15,2.41,30,4.7,45,7.1q26.27,4.2,52.53,8.5C1088.89,391.59,1090.11,391.53,1090.6,393.21ZM1039.54,416c1.46,1,1.46,1,2.54,0h-2.54ZM889.26,383.4l-0.85.1a2,2,0,0,0,.4.16,1.4,1.4,0,0,0,.44,0A1.27,1.27,0,0,0,889.26,383.4Zm127.78,0,0.06,0.22,0.31-.11Zm-67.71,3a0.51,0.51,0,1,0-.33.12,1,1,0,0,0,.34-0.12h0Zm-69.45,3,0.21-.18h-0.43Zm129.55,0,0.43-.1-0.34-.14ZM940.2,392l0.07,0.27,0.34-.15Zm130.63,0.3,0.35-.11-0.62-.1ZM1049,410.24h-0.4l0.42,0.26ZM1002.14,395a0.57,0.57,0,1,0-.37.14,1.13,1.13,0,0,0,.35-0.14h0Zm-70.75,2.88a0.55,0.55,0,1,0,.37-0.14,1.09,1.09,0,0,0-.39.14h0Zm132.2,0.07a0.8,0.8,0,0,0-.29-0.2,0.94,0.94,0,0,0-.36.1,0.81,0.81,0,0,0,.29.21A0.9,0.9,0,0,0,1063.59,398Zm-104.78,4.82-0.57-.25a0.72,0.72,0,0,0,0,.24,3.17,3.17,0,0,0,.58,0h0Zm62.49,2.92-0.69-.26a0.82,0.82,0,0,0,0,.25,4.78,4.78,0,0,0,.69,0h0Zm46.06,0a0.56,0.56,0,0,0-.09-0.28,1.11,1.11,0,0,0-.39,0L1067,406ZM828.91,380.52l0.06,0.23,0.3-.12ZM898,377.87l0.17-.14h-0.33Zm241.15-24.5c-1.58,1.44-2.7,2.55-3.9,3.55-8.12,6.74-16.32,13.39-24.37,20.22a8,8,0,0,1-7,2c-10.41-1.71-20.84-3.31-31.26-4.94L1021,366.1c-16.27-2.55-32.52-5.14-48.79-7.66-13.27-2.06-26.55-4-39.82-6.06-17.37-2.71-34.72-5.55-52.09-8.27-11.53-1.8-23.08-3.42-34.61-5.21-13-2-25.88-4.15-38.82-6.18-11.37-1.78-22.76-3.47-34.13-5.24-9-1.4-18-2.86-27-4.26-11.53-1.8-23.07-3.55-34.6-5.35-13.42-2.1-26.83-4.26-40.26-6.35-11.21-1.75-22.44-3.41-33.65-5.15-13.11-2-26.21-4.12-39.32-6.17q-20.38-3.18-40.76-6.32l-38.38-6a17.22,17.22,0,0,1-3.07-1.25,32.76,32.76,0,0,1,3-1.54c14.41-5.27,28.84-10.49,43.24-15.8a13,13,0,0,1,6.57-.79c7.59,1.12,15.19,2.16,22.78,3.27,12,1.77,24,3.58,36,5.35q27.75,4.09,55.51,8.15c14.71,2.15,29.43,4.25,44.13,6.42,18.5,2.74,37,5.54,55.49,8.29q20.16,3,40.32,5.92l77.81,11.44c15,2.21,30,4.47,45.06,6.66,16.76,2.44,33.54,4.78,50.31,7.24,18.19,2.66,36.36,5.43,54.54,8.11q24.44,3.6,48.87,7.11c11.39,1.66,22.78,3.31,34.16,5.06,1.74,0.28,3.58.2,5.7,1.84h0Zm-43.65,20.56a7.92,7.92,0,0,0-1.39-.63,1.45,1.45,0,0,0-.5.5,0.74,0.74,0,0,0,.3.23c0.46,0,.87,0,1.63-0.1h0Zm83.63-57.43-33.25-4.6c-13-1.76-26-3.46-39-5.23-15.37-2.09-30.73-4.23-46.09-6.32-10.61-1.45-21.23-2.84-31.85-4.27l-39.42-5.37q-19.25-2.6-38.5-5.17-16.64-2.25-33.26-4.52c-10.45-1.41-20.92-2.76-31.37-4.18-10.13-1.38-20.25-2.87-30.39-4.24-10.77-1.46-21.56-2.82-32.33-4.28-10.3-1.4-20.58-2.91-30.87-4.3-17.9-2.42-35.82-4.74-53.71-7.17-20-2.71-39.91-5.53-59.86-8.25-13.62-1.86-27.26-3.6-40.88-5.49a12.92,12.92,0,0,0-6.55.7c-9,3.36-18,6.6-27,9.89-5.26,1.92-10.52,3.8-15.77,5.76a13.43,13.43,0,0,0-2.2,1.33c0.78,1.57,2,1.35,3.07,1.5q30.61,4.4,61.23,8.77l48,6.85c16.61,2.39,33.21,4.85,49.82,7.24,14.4,2.07,28.81,4.07,43.21,6.15,19.14,2.76,38.28,5.58,57.43,8.33,16.61,2.38,33.24,4.66,49.85,7,12,1.73,24,3.6,36,5.33C950,314,964.57,316,979.12,318.11c16.61,2.39,33.2,4.9,49.81,7.3,18.83,2.71,37.67,5.32,56.5,8q31.57,4.54,63.12,9.19a7.09,7.09,0,0,0,6.2-1.65c2.88-2.54,5.88-4.94,8.85-7.37,0.57-.47,1.15-1.17,2.1-0.55,1.12,3-.91,5.92-0.55,9s-1.17,5.89,0,9.36a11.27,11.27,0,0,0,2.15-2.11,6.22,6.22,0,0,0,.34-2.35c0.35-4,.69-8,1-12,0.56-6.9.4-5.79,5-9.61,2.33-2,4.7-3.85,7-5.84a14.57,14.57,0,0,0,1.66-2.37c-1.59-.34-2.35-0.56-3.13-0.67h0ZM1035.36,438c-1.18,2.74-3,3.85-4.51,5.14-6.9,5.71-13.76,11.47-20.74,17.08a6.66,6.66,0,0,0-2.89,5.68c0,2.56-.11,5.12-0.24,7.67a27,27,0,0,1-.47,2.89c-3.42.26-6.42-.82-9.84-1.55l2-6.16c1,0.08,2,.21,3.07.23a3.23,3.23,0,0,0,3.49-2.62,35.13,35.13,0,0,0,.42-10.17,24.09,24.09,0,0,0-2.68-.91c-10.3-2.23-20.74-3.68-31.09-5.68-9.72-1.87-19.48-3.55-29.22-5.34q-14.13-2.6-28.26-5.24c-11-2.06-22-4.18-33-6.19-6.91-1.26-13.87-2.32-20.79-3.53-9.28-1.63-18.6-3.09-27.81-5.06-8.28-1.77-16.68-2.81-25-4.49-9.23-1.87-18.57-3.24-27.78-5.18-8-1.68-16-2.73-24-4.33-9.24-1.84-18.55-3.29-27.81-5-9.73-1.81-19.43-3.8-29.17-5.61-6-1.11-12-1.93-18-3-11.93-2.2-23.84-4.54-35.77-6.76-5.34-1-10.73-1.77-16.07-2.75-10.37-1.9-20.71-3.91-31.07-5.82-5-.93-10.08-1.7-15.11-2.64-10.2-1.89-20.38-3.86-30.58-5.75-3.14-.58-6.32-1-9.46-1.53-11.47-2.1-22.92-4.28-34.39-6.37-12.42-2.26-24.85-4.43-37.27-6.67q-21.7-3.91-43.38-7.88c-8.16-1.51-16.29-3.19-24.46-4.68-9-1.63-17.93-3.12-26.89-4.67a12.2,12.2,0,0,1-4.88-1.54,9.77,9.77,0,0,1,2-1.42c9.45-3.48,18.93-6.89,28.37-10.39a12.33,12.33,0,0,1,6.61-.27q13.7,2.39,27.4,4.81l41.54,7.38q16.77,3,33.54,5.88l58.57,10.29,81.71,14.41q16.29,2.87,32.6,5.68c13.54,2.36,27.08,4.69,40.62,7.08,17.16,3,34.3,6.13,51.46,9.16,15.27,2.69,30.54,5.32,45.82,8l83.14,14.56,67.5,12c19.2,3.39,38.43,6.69,57.63,10.06A44.29,44.29,0,0,1,1035.36,438Zm-23.26.24a9,9,0,0,0,1.43.29,1.8,1.8,0,0,0,.66-0.29,3.48,3.48,0,0,0-.82-0.24,7.2,7.2,0,0,0-1.27.21v0Zm-55.22-10a1.18,1.18,0,0,0-.26-0.28,0.79,0.79,0,0,0-.24.19,1.15,1.15,0,0,0,.26.27,0.75,0.75,0,0,0,.23-0.2v0Zm-66-2.3,0.53-.28a0.87,0.87,0,0,0-.39-0.11,2.59,2.59,0,0,0-.54.28Zm27,4.83h1.25a0.83,0.83,0,0,0,.08-0.27c-0.41,0-.82-0.06-1.23-0.07a1.51,1.51,0,0,0-.08.31Zm-132.8-24.44-0.43.13a2.7,2.7,0,0,0,.57.31,1,1,0,0,0,.43-0.11Zm200.38,27.12a0.59,0.59,0,0,0-.2-0.23,7.15,7.15,0,0,0-.79.09,0.59,0.59,0,0,0,.2.24,7.13,7.13,0,0,0,.8-0.1h0Zm-39,1.74-0.43.12a2.66,2.66,0,0,0,.56.36,0.89,0.89,0,0,0,.43-0.12ZM697.39,382.5a0.57,0.57,0,0,0,.21.21,5.87,5.87,0,0,0,.82-0.09,0.57,0.57,0,0,0-.21-0.21A8.06,8.06,0,0,0,697.39,382.5Zm307.44,63.65v-0.4l-1.53-.08v0.41ZM811.17,411.38a0.8,0.8,0,0,0-.28-0.2,0.87,0.87,0,0,0-.34.1,0.75,0.75,0,0,0,.27.2A1,1,0,0,0,811.17,411.38ZM709.6,393.11a0.61,0.61,0,0,0,.83,0,1.21,1.21,0,0,0-.41-0.16A1.24,1.24,0,0,0,709.6,393.11Zm87.23,6.79a0.9,0.9,0,0,0-.31-0.21,1.06,1.06,0,0,0-.39.1,0.9,0.9,0,0,0,.31.22,1,1,0,0,0,.39-0.11h0Zm25.3,4.58,0.06,0.24,0.29-.13Zm14.46,11.79a2.09,2.09,0,0,0,.45,0,0.85,0.85,0,0,0,0-.29,2,2,0,0,0-.45,0,1.12,1.12,0,0,0,0,.29h0ZM656.52,383.63l-0.64-.24a0.79,0.79,0,0,0,0,.23A4.36,4.36,0,0,0,656.52,383.63ZM864.13,421a0.93,0.93,0,0,0-.33-0.25,1,1,0,0,0-.4.14,0.85,0.85,0,0,0,.32.24,1.08,1.08,0,0,0,.4-0.14h0ZM645.55,372.81l-0.37.17a0.5,0.5,0,0,0,.74,0ZM766.79,197c6.35,0.75,12.7,1.46,19,2.2l38.59,4.49,30,3.49L882,210.36l29.06,3.38c9.52,1.11,19,2.24,28.57,3.34,6.83,0.78,13.66,1.49,20.49,2.28q19.5,2.27,39,4.58c9.68,1.13,19.37,2.21,29,3.33,12.07,1.4,24.14,2.83,36.21,4.22,9.69,1.11,19.38,2.18,29.07,3.28,7.62,0.87,15.24,1.78,22.87,2.66l27.14,3.13c9.69,1.13,19.37,2.3,29.05,3.41s19.39,2.14,29.07,3.26q23.58,2.73,47.15,5.52c3,0.35,6,.63,9.05,1a5.42,5.42,0,0,0,4.41-1.36c2.56-2.17,5.17-4.29,7.8-6.37,0.57-.45,1.08-1.27,2.08-0.86,1.7,2.26-1.53,4.87.4,7.16l2.71-.62,0.87,4.6c1.22-.83,2.14-1.42,3-2a6.49,6.49,0,0,0,2.87-5.21c0.3-4.14.93-8.26,1.35-12.39a11.8,11.8,0,0,0-.28-2.46,16.41,16.41,0,0,0-2.76-.85c-3.49-.43-7-0.76-10.49-1.14L1247,229.66c-9.37-1-18.75-2.11-28.12-3.12-13.19-1.42-26.39-2.77-39.58-4.21-10.17-1.11-20.33-2.34-30.49-3.46s-20.35-2.15-30.52-3.27c-13.35-1.46-26.69-3-40-4.45s-26.39-2.78-39.58-4.23c-13-1.43-26-3-39.07-4.4s-26.39-2.76-39.57-4.21c-15.89-1.75-31.76-3.63-47.65-5.38-13.19-1.45-26.39-2.75-39.57-4.2q-32.41-3.57-64.82-7.25a16,16,0,0,0-8.43,1.09,18.42,18.42,0,0,1-6.51,2l-1.44-4.67L784,179c-10.33-1.16-20.65-2.34-31-3.47s-21-2.23-31.47-3.44a12.76,12.76,0,0,0-5.64.51c-12,4-24,7.83-36,11.76a21.24,21.24,0,0,0-2.55,1.22,2.68,2.68,0,0,0,.72.89q39.26,4.73,78.53,9.38a30,30,0,0,0,3.39,0l1-4.14c6.73-2.41,13.48-4.86,20.25-7.22a3.93,3.93,0,0,1,3.67.44c0.69,1.62.3,2.8-1.38,3.46q-1.79.7-3.59,1.35c-4.5,1.65-9,3.29-13.51,5-0.71.26-1.59,0.4-1.63,1.79A18.7,18.7,0,0,0,766.79,197ZM1189,308.2c1.58,0.21,3.17.24,4.89,0.37,2.23-1.81,4.46-3.6,6.68-5.42q7.42-6.08,14.81-12.19c0.82-.68,1.93-1.28,1.4-3-1.87-.31-3.89-0.72-5.93-1-6.18-.78-12.38-1.47-18.56-2.25q-17.83-2.25-35.66-4.57l-34.72-4.44q-16.88-2.14-33.77-4.24c-8.56-1.07-17.13-2.09-25.69-3.18-11.57-1.46-23.14-3-34.71-4.45q-13.55-1.73-27.11-3.43c-9-1.13-18.08-2.23-27.12-3.38-6.34-.8-12.68-1.66-19-2.47q-12.6-1.61-25.2-3.18c-8.72-1.08-17.45-2.12-26.17-3.22s-17.42-2.3-26.14-3.4c-14-1.75-27.92-3.42-41.87-5.19-13.63-1.72-27.25-3.56-40.88-5.28-11.89-1.5-23.81-2.86-35.7-4.36q-31.39-4-62.77-8.07a10.25,10.25,0,0,0-5.16.55c-4.47,1.72-9,3.29-13.51,4.92-6.61,2.4-13.23,4.76-19.81,7.23-1.1.41-2.54,0.52-3.34,2.67Zm48.45-48.51c-15.08-1.77-30.16-3.62-45.24-5.43l-38.1-4.54c-8.57-1-17.14-2.07-25.71-3.06-7-.81-14-1.5-21-2.32q-18.81-2.22-37.62-4.52c-9-1.07-18.1-2.06-27.15-3.13-12.86-1.52-25.72-3.1-38.58-4.62-9-1.07-18-2.07-27-3.12-9.68-1.14-19.36-2.36-29-3.51s-19.38-2.26-29.06-3.4q-17.86-2.12-35.72-4.24c-12.07-1.41-24.14-2.78-36.2-4.2q-22.86-2.7-45.72-5.44c-9-1.07-18.11-2.08-27.16-3.14-8.1-1-16.2-1.88-24.29-2.91a9.63,9.63,0,0,0-4.7.38Q729.4,208.28,713.63,214c-0.72.26-1.48,0.65-1,1.69a4,4,0,0,0,.9.35l38.06,4.8c11.74,1.45,23.49,2.83,35.23,4.29,11.58,1.43,23.15,2.94,34.73,4.36,14,1.71,27.93,3.33,41.89,5.06,14.44,1.78,28.86,3.65,43.3,5.45,12.37,1.54,24.75,3,37.13,4.57l40.45,5,36.65,4.51,28.09,3.44,41.89,5.17,35.22,4.36c11.27,1.38,22.54,2.71,33.81,4.11,8.88,1.1,17.75,2.3,26.63,3.41q17.85,2.23,35.7,4.38c1.59,0.19,3.18.32,4.77,0.54a4.3,4.3,0,0,0,3.54-1c5.9-4.91,11.84-9.77,17.75-14.68a17.36,17.36,0,0,0,1.81-2.28c-4.76-1.28-8.75-1.41-12.7-1.88h0ZM387.19,323.62q-21.72-3.83-43.46-7.58a9,9,0,0,0-2.31.24c0.27,4.6,2.65,8.46,2.88,12.59a4,4,0,0,1-.91.82c-10.71,3.74-21.43,7.44-32.13,11.21a7.76,7.76,0,0,1-4.22.27q-16.71-3.24-33.43-6.45a8.76,8.76,0,0,1-1.77-.79c-0.74-5.33,1.78-10.42,1-15.68-4.16.39-17,4.61-20.61,6.78a24,24,0,0,0,.76,3.06c4.82,12.53,9.73,25,14.48,37.59a4.43,4.43,0,0,0,3.77,3.1c12.39,2.42,24.77,4.91,37.16,7.34a11.15,11.15,0,0,0,2.16,0c1.2-3.31-.56-6.32.23-9.66,1.79-.72,3.67-1.54,5.59-2.25L355.08,350a23.44,23.44,0,0,0,2.75-1.42c-0.32-3.94-1-7.56-.39-11.58,10.37-4.21,21.26-7.41,32.85-12.15A21.83,21.83,0,0,0,387.19,323.62Zm85.62-30.72c-4.25-.75-8.51-1.41-12.77-2.09l-40.7-6.52c-8.67-1.39-17.35-2.8-26-4.17a12.56,12.56,0,0,0-6.15.06c-7.88,2.64-15.78,5.21-23.67,7.79a9.36,9.36,0,0,0-5,4.12,27.8,27.8,0,0,1-8.54,8.76,10.66,10.66,0,0,0-1.59,1.83c5.8,1.43,11.15,2.11,16.44,3s10.71,1.86,16.07,2.78l16.54,2.81c5.35,0.91,10.69,2,16.07,2.72s10.52,2.27,16.18,2.36l0.65-5.58c7.4-2.69,14.75-5.32,22.08-8s15-5.14,23-8.55A12.31,12.31,0,0,0,472.81,292.9Zm57.73-30q-18.71-2.77-37.43-5.5c-7-1-13.89-2.07-20.84-3.08a15,15,0,0,0-7.09.34c-15.3,5.06-30.64,10-46,15a31.33,31.33,0,0,0-3.47,1.7,35.23,35.23,0,0,0,4.3,1.15c10.87,1.72,21.76,3.39,32.63,5.08l28.86,4.5c8.52,1.33,17,2.68,25.55,4,1.5,0.22,3.1.93,4.71-.17l0.39-4.47c4.21-1.9,8.61-3.3,12.94-4.86s8.73-3.08,13.06-4.71,8.74-2.73,12.64-5.9c-6.72-1-13.48-2.06-20.25-3.06v0Zm83.64-23c-10.44-1.39-20.89-2.72-31.33-4.14-13-1.76-25.92-3.59-38.88-5.4a13.8,13.8,0,0,0-6.57.71c-6.18,2.14-12.44,4.07-18.66,6.1q-13,4.24-25.92,8.54a26.5,26.5,0,0,0-3.3,1.73,35.45,35.45,0,0,0,3.88,1.06c28.29,3.9,56.51,8.23,84.55,12a15.56,15.56,0,0,1,2.6-1.94c1.66-.72,2-2.87,3.94-3.33a49.1,49.1,0,0,0,5.41-1.89q14-5.06,27.9-10.15a35.22,35.22,0,0,0,3.28-1.65,19.19,19.19,0,0,0-6.91-1.69v0Zm32.51-3.6a20.86,20.86,0,0,0,2.48-.11l1.2-4.6c4.35-1.58,8.55-3.11,12.75-4.62,4.66-1.68,9.33-3.31,14-5,0.78-.29,2-0.45,1.52-2.11l-10.79-1.35q-31.6-4-63.2-8.07A12.32,12.32,0,0,0,599,211c-12.12,4-24.29,7.9-36.43,11.86a21.56,21.56,0,0,0-2.7,1.44c4.37,1,79.74,11.43,86.8,12v0Zm83.85-36.49c-6-.76-12.06-1.42-18.08-2.12l-21.88-2.56c-9.52-1.12-19-2.21-28.55-3.37a14.78,14.78,0,0,0-6.6.67c-10.3,3.41-20.63,6.76-30.94,10.15-1,.34-2,0.82-3.94,1.62,2.33,0.55,3.66,1,5,1.16,3,0.43,6,.76,9,1.13L695.42,214c3.49,0.43,7,.79,10.48,1.13a4.69,4.69,0,0,0,1.44-.36l0.79-3.82c8.41-3.53,17.15-6,26.2-9.91a26.08,26.08,0,0,0-3.79-1.27v0ZM987.37,466.29q-19.31-3.63-38.62-7.22l-49-9.11q-19.78-3.69-39.56-7.42-20.25-3.78-40.5-7.52a14.4,14.4,0,0,0-2.43,0c-0.2,1.2-.28,2.14-0.52,3a22.4,22.4,0,0,1-.93,2.4,5,5,0,0,0,1.11.63q84.73,16,169.47,32c1.41,0.27,2.84.45,4.26,0.66a0.92,0.92,0,0,0,.47-0.08,1.75,1.75,0,0,0,.35-0.26v-6.13C989.8,466.89,988.6,466.53,987.37,466.29ZM661.74,411.93c6.11,1.18,12.24,2.31,18.35,3.47l42.4,8q27.33,5.15,54.66,10.27,15.08,2.83,30.17,5.61a12,12,0,0,0,2.18,0,8.09,8.09,0,0,0,.62-1.64c0.33-3.3.09-4.85-3.78-5.15A22.7,22.7,0,0,1,804,432l-62.22-11.6-51.85-9.71c-8.17-1.53-16.32-3.11-24.5-4.58-1.66-.3-3.39-1-5.26-0.18l-1.61,5A25.94,25.94,0,0,0,661.74,411.93Zm-26.64-11.3q-68.26-12.77-136.53-25.48a12.4,12.4,0,0,0-2,0,22.28,22.28,0,0,1-.53,2.42c-0.28.82-.69,1.59-1.11,2.51a12.48,12.48,0,0,0,2,.79Q566.52,394,636.17,407.09a4.11,4.11,0,0,0,1.39-.15,1.77,1.77,0,0,0,.5-0.37l-0.65-5.15a16.86,16.86,0,0,0-2.31-.8h0Zm-265.78-44q56.49,10.79,113,21.53c2.18,0.41,4.38.7,6.93,1.1,0.41-2.09.87-3.87-.49-6L371.63,351.37a12.26,12.26,0,0,0-2,0l-1.39,4.21a4.72,4.72,0,0,0,1.08,1h0Zm273.87,51.5c3.66,0.92,7,2.27,10.76,1.54l-0.76-5.32c-2.85-1.24-5.54-1.4-8.43-1.68a13.5,13.5,0,0,0-1.57,5.46h0ZM111.91,334.67c0,0.34.51,0.62,1.33,1.56L111,317.17C110.27,323,111.28,328.84,111.91,334.67Zm224.34-37.32a1,1,0,0,0,.46,1.51,3.57,3.57,0,0,0,1.85-.1c2-1.06,4-2.26,6-3.4a12,12,0,0,0-8.3,2h0Zm25.87,54c-0.1,1.48-.6,2.6.81,4.21,0.19-1.77.22-2.85-.81-4.25v0Zm680,64.68h-2.54c1.42,1,1.42,1,2.51,0ZM888.42,383.5a2,2,0,0,0,.4.16,1.4,1.4,0,0,0,.44,0,1.27,1.27,0,0,0,0-.24Zm128.69,0.13,0.31-.11-0.37-.1ZM949,386.27a0.19,0.19,0,1,0,0,.27l0,0a0.19,0.19,0,1,0,0-.27Zm-68.9,2.93h-0.43l0.21,0.18Zm129.77,0.1-0.34-.14-0.09.24Zm-69.6,3,0.34-.15L940.2,392Zm130.9-.07-0.62-.1,0.27,0.21Zm-22.59,18,0.42,0.26v-0.26h-0.42Zm-46.83-15.33a0.21,0.21,0,1,0,.37.14,1.13,1.13,0,0,0-.37-0.13h0Zm-70,3.16a0.21,0.21,0,1,0-.37-0.14,1.1,1.1,0,0,0,.36.16v0Zm131.57-.29a0.94,0.94,0,0,0-.36.1,0.81,0.81,0,0,0,.29.21,0.9,0.9,0,0,0,.36-0.11,0.8,0.8,0,0,0-.3-0.19h0Zm-105.06,4.78a0.72,0.72,0,0,0,0,.24,3.17,3.17,0,0,0,.54,0Zm62.36,2.91a0.82,0.82,0,0,0,0,.25,4.78,4.78,0,0,0,.66,0Zm46.66,0a1.11,1.11,0,0,0-.39,0l0.12,0.44,0.35-.13a0.56,0.56,0,0,0-.08-0.27v0ZM829,380.75l0.3-.12-0.36-.11Zm69.24-3h-0.33l0.16,0.15Zm195.95-4.43a1.45,1.45,0,0,0-.5.5,0.74,0.74,0,0,0,.3.23,10.58,10.58,0,0,0,1.59-.1,7.92,7.92,0,0,0-1.43-.65Zm-80.62,65.21a1.8,1.8,0,0,0,.66-0.29,3.48,3.48,0,0,0-.82-0.24,7.2,7.2,0,0,0-1.27.23,9,9,0,0,0,1.39.27ZM956.65,428a0.79,0.79,0,0,0-.24.19,1.15,1.15,0,0,0,.26.27,0.75,0.75,0,0,0,.24-0.19,1.18,1.18,0,0,0-.3-0.3Zm-65.19-2.3a0.87,0.87,0,0,0-.39-0.11,2.59,2.59,0,0,0-.54.28l0.39,0.11Zm27.74,5.09a0.83,0.83,0,0,0,.08-0.27c-0.41,0-.82-0.06-1.23-0.07a1.51,1.51,0,0,0-.11.35c0.4,0,.81,0,1.22,0ZM784.7,406.48a2.7,2.7,0,0,0,.57.31,1,1,0,0,0,.43-0.11l-0.58-.33Zm200.61,26.76a7.15,7.15,0,0,0-.79.09,0.59,0.59,0,0,0,.2.24,7.24,7.24,0,0,0,.8-0.1,0.59,0.59,0,0,0-.26-0.25Zm-39.2,2.09a2.66,2.66,0,0,0,.56.36,0.89,0.89,0,0,0,.43-0.12l-0.55-.36ZM697.6,382.71a5.87,5.87,0,0,0,.82-0.09,0.57,0.57,0,0,0-.21-0.21,8.17,8.17,0,0,0-.82.09A0.56,0.56,0,0,0,697.6,382.71Zm307.25,63-1.53-.08V446l1.53,0.08v-0.41Zm-194-34.57a0.87,0.87,0,0,0-.34.1,0.75,0.75,0,0,0,.27.2,1,1,0,0,0,.35-0.09,0.8,0.8,0,0,0-.24-0.17ZM710,393.27a0.24,0.24,0,1,0,0-.32,0.24,0.24,0,1,0,0,.34Zm86.5,6.42a1.06,1.06,0,0,0-.39.1,0.9,0.9,0,0,0,.31.22,1,1,0,0,0,.39-0.1,0.9,0.9,0,0,0-.3-0.22h0Zm25.67,5,0.29-.13-0.35-.11ZM837,416.26a0.85,0.85,0,0,0,0-.29,2,2,0,0,0-.45,0,1.12,1.12,0,0,0,0,.32A2.09,2.09,0,0,0,837,416.26ZM655.88,383.38a0.79,0.79,0,0,0,0,.23,4.36,4.36,0,0,0,.61,0Zm207.91,37.31a1,1,0,0,0-.4.14,0.85,0.85,0,0,0,.32.24,1.08,1.08,0,0,0,.41-0.13,0.93,0.93,0,0,0-.33-0.25h0ZM645.18,373a0.5,0.5,0,0,0,.74,0l-0.36-.18Z"/></svg>