<?xml version="1.0" encoding="utf-8"?>
<!-- Generator: Adobe Illustrator 19.2.1, SVG Export Plug-In . SVG Version: 6.00 Build 0)  -->
<svg version="1.1" id="Layer_1" xmlns="http://www.w3.org/2000/svg" xmlns:xlink="http://www.w3.org/1999/xlink" x="0px" y="0px"
	 viewBox="0 0 1921 1081" style="enable-background:new 0 0 1921 1081;" xml:space="preserve">
<title>laser</title>
<path d="M373.6,278.6c-2,7.5-4,15.1-4.3,23.5c3.9-2.3,6.3-4.4,5.3-8.8c-0.3-1.7-0.4-3.3-0.4-5.1c0-4.3,2-6.5,6.1-7.3
	c2.9-0.5,5.7-1.3,8.9-2l0,0c0.9-7.1,0.7-10.1-1.5-15.5c-4-0.8-4-0.8-6.7-5.1C377,264.8,375.3,271.7,373.6,278.6z"/>
<path d="M273.3,208.9l1.1,8.4l5.2,1.7l3.7,38.3l-4.5,2.8c1.1,11.9,2.4,23.5,3.3,35.2c1.5,18.9,2.8,31.2,4.3,35.6l6.5,1.7
	c1.6,4.4,0.4,9.1,2.3,13.5c5.1,0.9,10.1,1.7,15.2,2.7c2.5,0.4,5.1,0.3,7.6-0.5c2.9-0.9,6.1-1.5,9.1-2.1v0.1l-6.9,3.5
	c2.4,0.9,4.5,1.3,6.1,2.5c1.7,1.6,3.2,3.3,4.7,5.2c8.7-2.5,16.9-5.1,25.2-7.6c0.7-0.5,1.3-1.1,1.9-1.9l-7.7-2.3l-1.5-8.5l-3.9,1.2
	l0.1-0.3c1.9-2.4,4.4-4.1,5.1-7.3c0.4-1.2,1.2-2.1,2.4-2.7c2.4-0.7,3.3-2.9,5.3-4v0.1l0.1-0.1c0.4,1.7,1.6,1.6,3.2,0.9
	c0.7-2.4,2.3-4.7,1.9-7.6c0-1.1,0.3-2,0.8-2.9c0.8-2.1,1.9-4.3,2.4-6.4c0.8-2.8,1.2-5.6-0.7-8.1v-0.4h-0.1c1.3-6.9,2.5-14,3.9-20.9
	c0.3-1.5,0.8-2.9,1.3-4.3h0.1l0.7,3.3l0.5-3.3h0.1v-0.3c1.6-0.9,1.3-2.8,2-4.3c1.7-4,2.8-8.5,5.2-12.3c2.1-3.2,2.8-7.1,2-10.8
	c-0.1-1.3-0.3-2.5-0.5-3.9c-0.4-0.8-1.1-1.6-1.7-2.3c-0.8,1.5-1.5,2.9-2,4.4c-0.9,4.1-1.7,8.3-2.7,12.4c-0.3,0.9-0.8,1.9-1.2,2.8
	c-0.1-6.7,2.1-12.9,3.9-19.3c0.7-1.6,1.1-3.2,1.2-4.9c-0.1-6.7-0.7-13.2-1.7-19.7c-0.8-0.4-1.7-0.7-2.7-0.8
	c-6.5-0.9-13.1-1.7-19.6-2.5c-4-0.5-8.1-0.4-12,0.5c-11.3,2.7-22.8,5.1-34.3,7.6c-2.4,0.8-4.9,1.1-7.5,1.1c-0.3-1.1-0.5-2.3-0.8-3.3
	c-0.3-2.9-0.5-6-0.8-8.9c-0.1-1.2-0.1-2.7-1.6-3.2c-1.6-0.5-2.5-2.3-2.1-3.9v-0.1c0.9-4.7-0.8-8.8-2.3-13.1
	c-1.3-3.7-5.1-5.7-9.2-5.6c-3.7,0-7.1,2.5-8,6.3c-0.8,4.1-1.6,8.5,0,12.5C276.6,206.1,275.4,207.4,273.3,208.9z"/>
</svg>
