<svg id="Layer_1" data-name="Layer 1" xmlns="http://www.w3.org/2000/svg" viewBox="0 0 1920 1080"><title>K_Mask_Blend_00000</title><path d="M485.33,417.72L485,416.56l-0.61-2.48-0.56-2.29-0.3-1.21-0.14-.56a0.4,0.4,0,0,0-.3-0.41,4.16,4.16,0,0,0-1-.37c-0.29,0-.6,0-0.9,0a7.78,7.78,0,0,1-1.75-.3,5.73,5.73,0,0,1-2.52-1.54c-1.6-1.68-2.16-4.06-2.76-6.23q-1.42-5.21-2.87-10.41c-1.94-6.93-3.93-13.85-6-20.73-1-3.39-2.18-6.76-3.11-10.18a95.62,95.62,0,0,1-2.2-10.09,86.22,86.22,0,0,1-1-10.26c-0.07-1.66.06-3.37-.16-5s-0.72-3.22-1-4.84c-6.32,1.52-12.55,3.42-18.78,5.27-2.91.86-5.81,1.8-8.72,2.66a20.52,20.52,0,0,1-8.46.62c-3-.39-6-1-9-1.47s-6.16-1-9.25-1.45-6-.94-9-1.38c-1.1-.16-3-0.58-3.8.44a2.79,2.79,0,0,0-.47,1.62,20.13,20.13,0,0,0,.16,3c0.08,0.8.16,1.61,0.18,2.41a2.56,2.56,0,0,1-.15.92l-0.14.38c-0.07.21,0,.17-0.22,0.21a4,4,0,0,1-1-.12l-0.89-.1-2-.24,0.15,2.29,0.13,2.08a1.91,1.91,0,0,0,0,.55,0.89,0.89,0,0,0,.54.23l1,0.29,2.08,0.6a3.67,3.67,0,0,1,.64.18,0.45,0.45,0,0,1,.26.41q0.14,0.55.25,1.1a29.35,29.35,0,0,1-.06,9.46c-0.87,6.56-1.86,13.11-2.76,19.67s-1.8,13.14-2.66,19.72c-0.42,3.22-.77,6.46-1.25,9.68a10.1,10.1,0,0,1-2.06,5.35,6.1,6.1,0,0,1-2.29,1.58,8.54,8.54,0,0,1-1.59.46,3.54,3.54,0,0,0-1,.25,8.09,8.09,0,0,0-.86.57,0.39,0.39,0,0,0-.27.43v8.43c0.72,0.21,1.43.46,2.16,0.66s1.56,0.32,2.34.47l21.47,3.85q10.69,1.92,21.36,3.9c3.36,0.63,6.78,1.58,10.23,1.24a20.22,20.22,0,0,0,4.8-1.17l5.12-1.81q10.24-3.6,20.51-7.13l10.26-3.55c3.37-1.17,6.74-2.29,10-3.66a2.38,2.38,0,0,0,.64-0.26A0.75,0.75,0,0,0,485.33,417.72Zm-49.69-58.77-0.1.11,0,0c-0.12.11-.27,0.21-0.41,0.31a10.09,10.09,0,0,1-2.45,1.23l-0.08,0c-0.48.17-1,.34-1.58,0.51-0.88.27-1.76,0.51-2.64,0.76h0l-0.87.22-0.29.06c-0.28.06-.57,0.12-0.85,0.16l-0.21,0c-0.27,0-.54.05-0.8,0.06h-0.22a5.94,5.94,0,0,1-.92-0.07h-0.09l-0.16,0-0.36-.09-0.21-.07-0.45-.17-0.05,0a5.69,5.69,0,0,1-1.8-1.36l-0.12-.13-0.16-.18,0,0a8.65,8.65,0,0,1-.54-0.75c0.11-.16.21-0.32,0.31-0.47a5.19,5.19,0,0,0,.72-3.66,6.55,6.55,0,0,0-.3-1l-0.09-.22q-0.16-.4-0.36-0.78l-0.2-.36c-0.13-.22-0.26-0.45-0.4-0.66l-0.2-.31c-0.17-.25-0.34-0.5-0.51-0.74,1.47-.47,2.93-1,4.4-1.44l2.35-.77,0.54-.18,0.81-.25,1.93-.59,0.58-.18a17.47,17.47,0,0,1,2.8-.69l0.19,0h0.09a3.49,3.49,0,0,1,.6,0,3,3,0,0,1,.36.07l0.17,0a3,3,0,0,1,1.9,1.81,14.08,14.08,0,0,1,1,4.21v0.09l0,0.23c0,0.22,0,.44.06,0.66s0,0.24,0,.35,0,0.27,0,.4,0,0.37,0,.54v0.1a4.78,4.78,0,0,1-.88,2.75l-0.05.07A4.31,4.31,0,0,1,435.64,358.95Z"/><path d="M420.17,359.53c0.14,0.22.3,0.43,0.46,0.63C420.47,360,420.32,359.76,420.17,359.53Z"/><path d="M420.86,360.44l0.06,0.07,0.06,0.07Z"/></svg>