<?xml version="1.0" encoding="utf-8"?>
<!-- Generator: Adobe Illustrator 19.2.0, SVG Export Plug-In . SVG Version: 6.00 Build 0)  -->
<svg version="1.1" id="Layer_1" xmlns="http://www.w3.org/2000/svg" xmlns:xlink="http://www.w3.org/1999/xlink" x="0px" y="0px"
	 viewBox="0 0 1921 1082" style="enable-background:new 0 0 1921 1082;" xml:space="preserve">
<path d="M466.8,277.8l0-0.3c0-0.2-0.1-0.4-0.1-0.6c-0.1-0.8-0.3-1.7-0.4-2.5c-0.3-1.5-0.8-2.9-1.5-4.2c-1.3-2.6-3.8-5.1-6.6-6
	c-1.6-0.5-3.4-0.3-4.9,0.5c-1.6,0.8-3,2.1-4.4,3.2l-0.3-3.8l-1.1-14.9l-0.6-7.4l-0.3-3.7c0-0.2,0-0.4,0-0.6
	c-0.2-0.1-0.3-0.1-0.5-0.1l-0.8-0.1l-1.6-0.3c-4.9-0.8-9.8-1.3-14.7-1.9c-2.4-0.3-4.8-0.7-7.2-1c-1.6-0.2-3.4-0.2-4.8-1.1
	c-0.4-0.3-0.8-0.6-1.1-0.9c-0.2-0.3-0.5-0.6-0.7-0.9c-0.6-0.5-1.6-0.6-2.3-0.6c-2.3,0-4.7,0.2-7,0.8c-4.8,1-9.4,2.6-14.2,3.7
	c-4.8,1.2-9.8,1.7-14.7,2.6c-4.9,0.9-9.7,1.9-14.5,3.2c-1.2,0.3-2.4,0.7-3.6,1c-1,0.3-2.3,0.4-3,1.2c-0.1,0.2-0.2,0.5-0.1,0.8v1.6
	c0,0.2,0,0.3,0,0.5c-0.1,0.1-0.2,0.2-0.4,0.2l-3.6,1l-3.6,1c-0.2,0-0.4,0.1-0.6,0.2c-0.1,0.1-0.2,0.2-0.2,0.3
	c-0.1,0.2-0.1,0.4-0.1,0.6c-0.1,0.3-0.1,0.6,0,1c0.2,1.4,1.5,1.8,2.7,1.9h0.1c0,0.2,0,0.4,0.1,0.7c0,0.3,0.1,0.5,0.1,0.8
	c0.1,1.1,0.2,2.2,0.4,3.3c0.3,2.1,0.4,4.1,0.4,6.2c-0.1,2.9-0.8,6,0.4,8.7c0.3,0.7,0.8,1.4,1.3,2c0.5,0.6,1.3,1,1.6,1.6
	c0.3,0.7,0.4,1.4,0.5,2.2c0.1,1,0.2,2,0.3,3c0.4,4.3,0.7,8.7,1.1,13c0.3,4.3,0.7,8.7,1.1,13.1c0.2,2.1,0.3,4.3,0.5,6.4
	c0.2,1.7,0.1,3.7,1.2,5.1c0.9,1,2.3,1.3,3.5,0.8c0.7-0.4,1.4-0.9,2-1.5c0.2-0.2,0.4-0.3,0.6-0.5c0.2-0.1,0.1-0.1,0.2,0
	c0.1,0.1,0.2,0.2,0.2,0.3l0.8,1c0.8,0.9,1.5,1.8,2,2.9c0.5,1,0.8,2,1.1,3.1c0.4,1.3,0.8,3.2,2.4,3.5c2.1,0.4,4.3,0.6,6.5,0.8
	l3.2,0.3l1.7,0.2l0.8,0.1c0.4,0,0.4,0,0.6-0.3c0.2-0.2,0.3-0.4,0.4-0.7c-0.1-0.2-0.3-0.4-0.5-0.6l-0.9-1.1l-2-2.5l1.8-0.7
	c0.2,0,0.4-0.2,0.4-0.4c0.1-0.4,0.1-0.7,0.2-1.1c0.2-1.4,0.5-2.8,0.7-4.3c0.5-2.6,0.9-5.3,1.1-7.9c0.3-4.5,1.6-8.8,3.8-12.6
	c2-3.5,4.4-7,7.5-9.6c2.7-2.4,6-3.9,9.5-4.5c1.9-0.3,3.8-0.3,5.7,0c1.1,0.1,2.1,0.4,3.2,0.6c1.2,0.2,2.4,0.2,3.5,0.3l-0.5-9.2
	l-0.1-2.1c-0.1-0.3,0-0.5,0.1-0.8c0.1-0.2,0.3-0.3,0.5-0.4c0.7-0.4,1.4-0.7,2.2-1c0.6-0.3,1.1-0.8,1.2-1.5c0.2-0.8,0-1.6-0.5-2.2
	c-1-0.9-2.5-0.4-3.6-1.1c-0.1-0.1-0.3-0.2-0.4-0.3c-0.1-0.1-0.2-0.3-0.1-0.4c0,0,0,0,0,0c0.1-0.3,0.3-0.6,0.5-0.8
	c0.4-0.5,0.9-1,1.5-1.4c1.4-0.9,3.1-1.4,4.8-1.6c2.2-0.2,4.3-0.1,6.5,0.2c1.3,0.2,2.5,0.5,3.7,0.8c0.4,0.1,0.8,0.2,1.2,0.3
	c0.2,0,0.4,0.1,0.5,0.2c0,0.1,0,0.2,0,0.4l0.2,2.1l1.4,16.9l14.6-1.8l12.8-1.5l0.9-0.1c0.2,0,0.5,0,0.7-0.1
	C466.9,278.1,466.8,278,466.8,277.8z M350.8,251.5c-0.3,0.1-0.5,0.3-0.8,0.5c-0.1-0.8-0.7-1.7-0.2-2.4c0.9-1.2,2.3,0.1,3.2,0.5
	L350.8,251.5z"/>
</svg>
