<svg id="Layer_1" data-name="Layer 1" xmlns="http://www.w3.org/2000/svg" viewBox="0 0 1440 900"><title>cower</title><path d="M389.15,330c-0.29-4.95-.6-9.89-0.9-14.84q-0.67-11-1.34-22c-0.4-6.7-.79-13.4-1.2-20.1q-0.9-14.83-1.84-29.67c-0.1-1.59-.21-3.19-0.41-4.78a4.65,4.65,0,0,0-2.31-3.46,23,23,0,0,0-7.59-2.88q-5.86-1.25-11.79-2.11c-4.11-.59-8.25-0.95-12.38-1.42l-29.53-3.38c-10.32-1.17-20.65-2.29-31-3.51-4.94-.58-9.83-1.14-14.7.46a33.62,33.62,0,0,1-3.76.75L231,231.16c-3.13.64-6.26,1.28-9.38,2a1.57,1.57,0,0,0-1.41,2.08c0.49,2.66,1.21,5.29.58,8a1.18,1.18,0,0,0,.26.89c0.62,0.73.8,1.29-.36,1.58-4.09,1-8.25.83-12.4,0.63a1.31,1.31,0,0,1-1.36-1.11c-0.21-2.53-1.61-4.85-1.33-7.49a1,1,0,0,0-1.34-.94c-0.95.12-1.9,0.27-2.84,0.46-2.82.56-5.63,1.14-8.45,1.72-9.23,1.89-18.46,3.81-27.7,5.67a4.37,4.37,0,0,0-3.14,1.94c-0.34.54-.73,1.05-1.09,1.58-5.12,7.53-10.2,15.09-15.38,22.59a7.92,7.92,0,0,0-1.4,5.84q1.53,12.12,2.88,24.26c1.61,14.62,3.13,29.24,4.7,43.86,0.44,4.13.89,8.26,1.4,12.39,0.21,1.72.73,2.19,2.4,2.48,4.25,0.72,8.51,1.41,12.76,2.14l31.65,5.42L227,371.76c1.64,0.28,2.11-.1,2-1.64-0.19-2.71-.43-5.42-0.61-8.13a13,13,0,0,1,1-6.1,6.71,6.71,0,0,1,7.68-4.28c2.37,0.33,4.74.69,7.1,1.15,14.66,2.81,29.48,3.73,44.36,3.85,1.28,0,2.56,0,3.84,0,12.14-.44,24.28-1,36.32-2.71,7.11-1,14.18-2.35,21.21-3.83,8.61-1.81,16.92-4.72,25.28-7.45a67.11,67.11,0,0,0,8.74-3.87,16.73,16.73,0,0,0,3.48-2.51,5,5,0,0,0,1.77-3.8C389.15,331.64,389.19,330.84,389.15,330ZM217,309.24a2.31,2.31,0,0,1-.8,1,1.58,1.58,0,0,1-.93,0c-7.75-1.13-15.5-2.25-23.25-3.41a5.75,5.75,0,0,1-2.18-.85,1.71,1.71,0,0,1-.33-1.27,1.53,1.53,0,0,1,.77-0.46,2.81,2.81,0,0,1,.68-0.07c1.7,0.26,3.59.57,5.48,0.85,6,0.89,12,1.75,18,2.66a9.29,9.29,0,0,1,2.26.72A0.9,0.9,0,0,1,217,309.24Zm-0.45-6.19a1.13,1.13,0,0,1-.58.64,2.65,2.65,0,0,1-.85.14c-4.64-.67-9.2-1.32-13.77-2-3.46-.51-6.92-1-10.38-1.59a5.68,5.68,0,0,1-1.73-.64,0.9,0.9,0,0,1-.37-0.78,2.32,2.32,0,0,1,.82-1,1.51,1.51,0,0,1,.93,0c8,1.17,16.05,2.34,24.07,3.56a4.05,4.05,0,0,1,1.62.86A1,1,0,0,1,216.55,303.05Zm-3.23-32.73a1.55,1.55,0,0,1-1,.73,20.91,20.91,0,0,1-3.65-.67,1.34,1.34,0,0,1-.52-1.14,2,2,0,0,1,.83-0.89,2.66,2.66,0,0,1,.89,0c0.64,0.11,1.71.27,2.78,0.48A1.22,1.22,0,0,1,213.33,270.32Zm-5.7-7.84c0.45-.9,1.29-0.72,2-0.66a18.76,18.76,0,0,1,2.32.36,1.26,1.26,0,0,1,.81,1.48,3.39,3.39,0,0,1-1,.75,2.4,2.4,0,0,1-.77,0c-0.32-.05-0.94-0.14-1.56-0.26C208.16,263.92,207.31,263.12,207.62,262.48Zm-9.9,11.83a11.17,11.17,0,0,1,3.69-.69c3.92,0.44,7.81,1.13,11.71,1.75a1.2,1.2,0,0,1,.73.53,1.3,1.3,0,0,1,.12.89,1.05,1.05,0,0,1-.5.7,7.72,7.72,0,0,1-1.6.16c-4.62-.71-9.46-1.46-14.29-2.22a3,3,0,0,1-.82-0.43A3.33,3.33,0,0,1,197.73,274.31Zm-11.16,68.43a0.91,0.91,0,0,1-.59.6,7.36,7.36,0,0,1-1.9,0q-10.87-1.78-21.73-3.62a7.43,7.43,0,0,1-2.14-.88A0.91,0.91,0,0,1,160,338a1,1,0,0,1,.57-0.66,15.38,15.38,0,0,1,1.88.07c7.26,1.15,14,2.2,20.82,3.34a12.66,12.66,0,0,1,3,1.18A1,1,0,0,1,186.57,342.74Zm-7.07-64.21a0.49,0.49,0,0,1,.4.06,0.19,0.19,0,0,1,.06.14c0,0.06,0,.13,0,0.19h0a0.85,0.85,0,0,1-.38.12C179.17,278.92,179.13,278.71,179.5,278.53Zm-17.08,3.87c1.37-.32,2.75-0.61,3.64-0.8,4.63,0.64,8.72,1.18,12.8,1.8a4.48,4.48,0,0,1,1.68.8,1,1,0,0,1,.3.82,0.89,0.89,0,0,1-.5.65,5.85,5.85,0,0,1-1.86.11q-7.54-1-15.07-2.15a2.18,2.18,0,0,1-.83-0.42,0.63,0.63,0,0,1-.18-0.39A0.72,0.72,0,0,1,162.42,282.4Zm-7.64,4.94c0.45-.91,1.29-0.68,2.15-0.68,3.39,0.43,6.88.84,10.36,1.33q5.93,0.84,11.84,1.81a6.78,6.78,0,0,1,2.11.91,1,1,0,0,1,.17.84,1.2,1.2,0,0,1-.56.68,1.58,1.58,0,0,1-.92.13q-11.61-1.71-23.22-3.46C155.31,288.69,154.48,287.94,154.78,287.33Zm0.75,7.28a0.88,0.88,0,0,1-.33-0.78,1.62,1.62,0,0,1,.87-0.91c1.74,0.13,3.47.37,5.19,0.62q9.2,1.33,18.39,2.7a5.78,5.78,0,0,1,1.82.47,1.77,1.77,0,0,1,.69,1.09c0.14,0.61-.42.75-0.86,0.9a2.44,2.44,0,0,1-.52.05c-3.11-.43-6.26-0.84-9.41-1.3q-7.08-1-14.15-2.12A5,5,0,0,1,155.53,294.61Zm0.41,5.52a0.86,0.86,0,0,1,.5-0.63,8.94,8.94,0,0,1,2.35-.09q10.4,1.48,20.78,3a17.29,17.29,0,0,1,2.3.59c0.57,0.17,1.19,1.24.87,1.49a5,5,0,0,1-1.2.58,4.47,4.47,0,0,1-1,0l-6.59-1c-5-.74-10.08-1.45-15.11-2.23a10.53,10.53,0,0,1-2.63-1A1,1,0,0,1,155.94,300.13Zm0.78,6.32a0.94,0.94,0,0,1,.55-0.65,19.77,19.77,0,0,1,2.1,0l22.41,3.39a1.68,1.68,0,0,1,.87.34,2.83,2.83,0,0,1,.76,1.08,1,1,0,0,1-1.25,1l-14.6-2.21c-3-.45-6-0.89-8.94-1.39a4.79,4.79,0,0,1-1.68-.74A1,1,0,0,1,156.72,306.45Zm0.74,6.4a2.08,2.08,0,0,1,.89-0.88,1.31,1.31,0,0,1,.57,0l14.51,2.22c2.83,0.44,5.66.87,8.49,1.34a4.54,4.54,0,0,1,1.77.6,1.66,1.66,0,0,1,.37,1.22,0.89,0.89,0,0,1-.61.61,4.66,4.66,0,0,1-1.41-.07q-11.33-1.68-22.67-3.39a2.79,2.79,0,0,1-1.31-.5A1.56,1.56,0,0,1,157.46,312.85Zm0.61,6.26a1,1,0,0,1,.59-0.6,7.25,7.25,0,0,1,1.39-.1c3,0.44,6,.85,9,1.31,3.95,0.6,7.9,1.2,11.84,1.85,1.24,0.21,2.58.2,3.55,1.19a1.1,1.1,0,0,1,.27.84,0.9,0.9,0,0,1-.58.6,6.35,6.35,0,0,1-1.9,0q-10.89-1.72-21.77-3.51a8.13,8.13,0,0,1-2.18-.8A1,1,0,0,1,158.07,319.11Zm0.63,6.33a2,2,0,0,1,.94-0.81,0.88,0.88,0,0,1,.44,0c4.26,0.64,8.5,1.26,12.73,1.92,3.45,0.54,6.89,1.12,10.33,1.7a11,11,0,0,1,1.36.37,1.18,1.18,0,0,1,.7,1.52,1.59,1.59,0,0,1-1.12.6c-2-.23-4.08-0.56-6.11-0.88q-8.46-1.34-16.91-2.71a5,5,0,0,1-1.78-.59A1.39,1.39,0,0,1,158.7,325.44Zm0.59,6.15c0.62-1.11,1.69-.63,2.54-0.5,7.24,1.14,14.47,2.33,21.7,3.53a5.23,5.23,0,0,1,1.82.51,1.82,1.82,0,0,1,.52,1.21,1.08,1.08,0,0,1-.65.54,6.13,6.13,0,0,1-1.36.1l-7.15-1.14c-5-.81-10.07-1.6-15.1-2.44C159.93,333.11,158.92,332.26,159.29,331.59Zm1.32,22a1.44,1.44,0,0,1-1-.78,0.86,0.86,0,0,1,1-1.09,4.11,4.11,0,0,1,.91,1A2.49,2.49,0,0,1,160.62,353.57Zm26.55-4.74a1,1,0,0,1-.48.72,5.55,5.55,0,0,1-1.33.14l-16.58-2.78c-1.89-.31-3.79-0.55-5.67-0.91a8.2,8.2,0,0,1-2.17-.89,1,1,0,0,1-.31-0.81,0.85,0.85,0,0,1,.54-0.61,10,10,0,0,1,2.36,0q11.11,1.79,22.21,3.66A2.78,2.78,0,0,1,187,348,1.07,1.07,0,0,1,187.17,348.83Zm-0.22-70a2.25,2.25,0,0,1,1.25-.49c2.53,0.26,5.05.6,7.57,0.94,5.2,0.7,10.4,1.39,15.6,2.14a10.21,10.21,0,0,1,2.71.82,1.33,1.33,0,0,1,.54,1.15,2.06,2.06,0,0,1-1,.69,2.14,2.14,0,0,1-.65.06c-1.24-.15-2.67-0.31-4.08-0.5Q199.41,282.34,190,281a14.35,14.35,0,0,1-2.28-.61C187.2,280.26,186.65,279,186.95,278.82Zm0.66,6.83a0.85,0.85,0,0,1,.56-0.58,23.54,23.54,0,0,1,3.31.06c2.37,0.26,4.73.6,7.1,0.93,4.57,0.64,9.14,1.27,13.7,1.94a7.42,7.42,0,0,1,2.26.68,1.35,1.35,0,0,1,.51,1.16,2.06,2.06,0,0,1-.94.8,2.75,2.75,0,0,1-.88,0c-2-.27-4.33-0.57-6.69-0.91-5.35-.76-10.71-1.5-16.06-2.31a10.15,10.15,0,0,1-2.61-1A1,1,0,0,1,187.61,285.65Zm1.47,5.76a1.55,1.55,0,0,1,.65,0c1.56,0.16,3.31.27,5,.52q9.44,1.34,18.86,2.78a6.11,6.11,0,0,1,2.06,1,1,1,0,0,1,.17.85,1.15,1.15,0,0,1-.56.65,1.64,1.64,0,0,1-.92.13Q203,295.66,191.72,294a14.28,14.28,0,0,1-2.77-.65,1.33,1.33,0,0,1-.7-1A2,2,0,0,1,189.07,291.41Zm0.16,67a1.27,1.27,0,0,1-.93-0.79,1.43,1.43,0,0,1,.53-1.15c0.4-.3,1.22.44,1.27,1.24A2,2,0,0,1,189.24,358.38Zm5.44-47.29c6.33,0.88,12.65,1.85,19,2.83a18.28,18.28,0,0,1,3.24.82,1.72,1.72,0,0,1,.79,1c0.23,0.69-.45.69-0.84,0.86a5.35,5.35,0,0,1-1.15,0c-0.6-.08-1.87-0.24-3.14-0.42-6-.88-12-1.71-18-2.7-1.54-.26-3.63.24-4.27-2C191.6,310,193.22,310.89,194.67,311.09Zm-4,7a2.39,2.39,0,0,1,.87-0.94,1.57,1.57,0,0,1,.93,0c8,1.19,16,2.38,24,3.62a3.84,3.84,0,0,1,1.58.9,1,1,0,0,1,.21.84,1.12,1.12,0,0,1-.58.64,3.92,3.92,0,0,1-1.12.11l-5.46-.85c-6.11-1-12.22-1.9-18.33-2.88a5.61,5.61,0,0,1-1.73-.65A0.89,0.89,0,0,1,190.7,318.08Zm0.68,6.18a1,1,0,0,1,.52-0.64,2.84,2.84,0,0,1,.88-0.15c4.92,0.73,9.82,1.44,14.7,2.19q4.73,0.73,9.44,1.56a4.73,4.73,0,0,1,1.68.78,1,1,0,0,1,.21.84,1,1,0,0,1-.52.69,3.19,3.19,0,0,1-1.38.1q-11.58-1.79-23.14-3.65a7,7,0,0,1-2.13-.9A1,1,0,0,1,191.38,324.26Zm0.82,6.47a2,2,0,0,1,1-.76,1.94,1.94,0,0,1,.69,0c0.1,0,.42,0,0.73.07,7.25,1.13,14.49,2.26,21.73,3.42a13.47,13.47,0,0,1,2.7.85,1.51,1.51,0,0,1,.46.77,0.86,0.86,0,0,1-.8.93,28.47,28.47,0,0,1-2.85-.2q-10.16-1.55-20.32-3.16a12,12,0,0,1-2.75-.76A1.33,1.33,0,0,1,192.2,330.73Zm0.54,6.06a0.9,0.9,0,0,1,.73-0.46c1.89,0.18,3.79.38,5.67,0.67q8.71,1.35,17.4,2.8a16.81,16.81,0,0,1,3.15,1,1.28,1.28,0,0,1,.37.82c0.15,0.67-.42.73-0.84,0.88a5.31,5.31,0,0,1-.92.06l-5.21-.84c-6.11-1-12.23-2-18.34-3a3.93,3.93,0,0,1-1.71-.65A1.7,1.7,0,0,1,192.74,336.79Zm0.78,7.33a1.14,1.14,0,0,1-.22-0.85,0.91,0.91,0,0,1,.62-0.56,7.27,7.27,0,0,1,1.89,0q11.29,1.81,22.58,3.68a6.63,6.63,0,0,1,2.09.93,1,1,0,0,1-.42,1.49c-0.94,0-1.88-.08-2.11-0.1-7.62-1.21-14.52-2.31-21.42-3.42C195.44,345.15,194.26,345.1,193.51,344.12Zm24.93,19.35a1.09,1.09,0,0,1-.94-1.34,1.63,1.63,0,0,1,1-.88c0.43-.12,1,0.84,1,1.59A2.62,2.62,0,0,1,218.44,363.47Zm2.33-8.37a4.64,4.64,0,0,1-1.16.21c-2.45-.4-5.13-0.82-7.81-1.27-5.35-.9-10.7-1.8-16-2.75a4.37,4.37,0,0,1-1.63-.79,1.34,1.34,0,0,1-.11-0.87,0.44,0.44,0,0,1,.26-0.33,4.1,4.1,0,0,1,1.36-.17q7.81,1.16,15.61,2.38c2.52,0.4,5,.83,7.55,1.32a8.67,8.67,0,0,1,2.18.84,1,1,0,0,1,.33.81A1,1,0,0,1,220.78,355.09Z"/></svg>