<svg id="Layer_1" data-name="Layer 1" xmlns="http://www.w3.org/2000/svg" viewBox="0 0 1440 900"><title>belts</title><path d="M337.87,397.78c1-2,2.12-2.27,3.44-2,3.31,0.55,6.62,1.13,9.93,1.7Q379.12,402.22,407,407c17.48,3,35,6.12,52.44,9.17q24.8,4.32,49.61,8.6,33.55,5.78,67.12,11.53,26.47,4.53,53,9,25.28,4.34,50.55,8.75l54.81,9.42q28.59,4.93,57.18,9.91l74.19,12.86q43,7.4,86,14.73,33.56,5.75,67.11,11.54c2.83,0.49,5.66,1.08,8.46,1.72a18,18,0,0,1,7.23,3.87,1.21,1.21,0,0,1-1.64,1.08,19.21,19.21,0,0,1-3.32-.47c-8.07-2-16.4-2.53-24.51-4.31-3.74-.82-7.47-1.67-11.23-2.34-12.27-2.2-24.56-4.32-36.84-6.46l-40.16-7-54.34-9.38c-13.86-2.41-27.71-4.89-41.57-7.31q-17.48-3-35-6l-35.92-6.2c-12.45-2.14-24.9-4.25-37.34-6.42-11.49-2-23-4.09-34.46-6.11q-14.64-2.57-29.3-5.07L602.28,444l-47.73-8.27-82.2-14.31-78.92-13.68-51-8.83A46.33,46.33,0,0,1,337.87,397.78Zm751.55,77.1c-1.39-.25-2.79-0.43-4.16-0.76-7.62-1.86-15.52-2-23.17-3.63-8.11-1.77-16.29-3.12-24.5-4.39-13.58-2.1-27.15-4.3-40.72-6.46s-26.83-4.31-40.24-6.43q-34.81-5.49-69.63-11c-15.31-2.42-30.61-4.93-45.92-7.34-15.16-2.39-30.33-4.68-45.48-7.07l-56.36-9q-23.68-3.75-47.37-7.46-43.57-6.92-87.14-13.88c-23.68-3.74-47.38-7.38-71.07-11.12-16.74-2.64-33.45-5.41-50.19-8.06-19.42-3.08-38.85-6.09-58.26-9.15-7.26-1.15-14.51-2.35-21.77-3.55-0.62-.1-1.22-0.3-1.92-0.47,1.7-2,3.76-1.76,5.82-1.45q7.12,1.06,14.22,2.18l47.38,7.41c16.58,2.62,33.14,5.29,49.72,7.91,13.74,2.17,27.48,4.29,41.22,6.45l56.37,8.9,45.94,7.23,47.37,7.47c13.58,2.12,27.17,4.19,40.75,6.32l37.89,6q25.82,4.07,51.64,8.1l45.47,7.15,46.43,7.33c13.26,2.1,26.52,4.23,39.78,6.31,11.53,1.81,23.06,3.54,34.59,5.34q12.32,1.92,24.63,3.9l34.56,5.49c4.58,0.72,9.16,1.4,13.74,2.11a20.94,20.94,0,0,1,9.36,3.44,14.45,14.45,0,0,0,1.68.92Zm46.91-39.24c-5.74.29-10.89-1.71-16.23-2.09s-10.69-1.78-16.05-2.62-10.44-1.47-15.66-2.25c-5.38-.79-10.74-1.67-16.12-2.45s-10.77-1.45-16.15-2.23-10.74-1.65-16.11-2.45c-5.22-.77-10.44-1.49-15.67-2.23s-10.76-1.5-16.14-2.29-10.74-1.64-16.12-2.43-10.76-1.5-16.14-2.28c-5.22-.76-10.43-1.59-15.65-2.35-5.38-.78-10.76-1.51-16.14-2.29s-10.75-1.6-16.13-2.38L911.88,403l-15.66-2.29c-5.38-.8-10.75-1.63-16.13-2.4s-10.77-1.47-16.15-2.25-10.74-1.66-16.12-2.44c-5.22-.76-10.45-1.42-15.66-2.17-5.38-.77-10.75-1.62-16.13-2.41s-10.75-1.58-16.13-2.35-10.77-1.48-16.15-2.27c-5.22-.76-10.42-1.62-15.63-2.39-5.38-.79-10.77-1.49-16.14-2.26s-10.75-1.6-16.13-2.39-10.76-1.53-16.14-2.3L704,372.81c-5.38-.79-10.75-1.61-16.12-2.39s-10.77-1.47-16.14-2.26-10.74-1.66-16.11-2.45c-5.22-.77-10.45-1.47-15.67-2.23-5.38-.78-10.75-1.61-16.12-2.39s-10.76-1.54-16.14-2.31-10.76-1.53-16.13-2.32c-5.22-.76-10.43-1.57-15.65-2.32-5.38-.78-10.77-1.51-16.15-2.3s-10.74-1.64-16.12-2.42-10.77-1.49-16.14-2.27c-5.22-.76-10.42-1.62-15.64-2.38-5.38-.78-10.78-1.42-16.15-2.27s-10.7-1.2-16.15-2.58c2.16-1.81,2.18-1.88,4.23-1.61,4,0.52,7.91,1.13,11.87,1.71l44.14,6.37c14.71,2.14,29.41,4.32,44.12,6.45l41.77,6c14.55,2.11,29.1,4.29,43.65,6.38,14.87,2.14,29.75,4.2,44.62,6.33,11.39,1.64,22.77,3.35,34.16,5q18.5,2.69,37,5.35l29.88,4.36c10,1.44,19.93,2.85,29.89,4.29l43.18,6.27,42.24,6.12,58.38,8.44,55.53,8c16.92,2.45,33.84,5,50.77,7.39,10,1.44,19.95,2.78,29.9,4.27a67,67,0,0,1,7.92,1.79A4.81,4.81,0,0,1,1136.33,435.64ZM548.8,317.36c0.59-1.8,2-1.78,3.18-1.65,3,0.32,6,.79,9,1.19l32.33,4.37,39.93,5.33L674.13,332c12.52,1.68,25,3.41,37.55,5.09q30.19,4,60.38,8.06c18.7,2.51,37.39,5.08,56.09,7.58,15.69,2.1,31.39,4.11,47.09,6.19q18.54,2.46,37.08,5l34.23,4.58c8.24,1.12,16.46,2.31,24.7,3.42,10.3,1.38,20.61,2.71,30.91,4.07l32.33,4.27,27.1,3.6L1092,388l41.84,5.6,35.65,4.78a13.56,13.56,0,0,1,7.67,3.13,4.1,4.1,0,0,1-3.32.39c-5.07-.65-10.15-1.22-15.19-2-25.27-4-50.65-7.16-76-10.55l-49.44-6.64-42.78-5.74c-15.36-2.09-30.72-4.27-46.08-6.34-17.9-2.41-35.82-4.69-53.72-7.1-15.21-2-30.39-4.22-45.6-6.27-17.91-2.41-35.83-4.72-53.73-7.12-15.53-2.08-31-4.23-46.58-6.32-10.77-1.45-21.56-2.8-32.33-4.25-15.53-2.1-31-4.27-46.57-6.39-9.66-1.32-19.32-2.71-29-3.84-2-.24-3.51-1.61-5.38-1.75s-3.81.49-5.65,0.26c-9.68-1.2-19.33-2.57-29-3.87l-33.27-4.49C558.66,318.74,553.77,318,548.8,317.36Zm664.3,54.85a31.26,31.26,0,0,1-3.36,0L611.46,296.9a1.33,1.33,0,0,1,1.69-1.43q5.25,0.51,10.48,1.16,22.84,2.8,45.68,5.65c11.26,1.41,22.51,2.93,33.77,4.33,11.74,1.46,23.49,2.81,35.23,4.27,11.58,1.44,23.14,3,34.72,4.43,11.1,1.4,22.21,2.73,33.31,4.12L843,324l32.36,4,33.78,4.21q18.8,2.32,37.59,4.64c14,1.75,27.9,3.54,41.86,5.29,9,1.13,18.09,2.19,27.13,3.32,11.58,1.44,23.14,2.94,34.72,4.38,9.2,1.14,18.41,2.2,27.61,3.34,10.79,1.33,21.57,2.72,32.35,4.07,6.82,0.85,13.64,1.67,20.46,2.52l28.06,3.53,33.78,4.22c4.76,0.6,9.52,1.15,14.26,1.84a24.79,24.79,0,0,1,4.6,1.26A6.45,6.45,0,0,1,1213.1,372.21Zm31.59-26c-3.63-.4-7.27-0.77-10.89-1.21L1170,337.4c-17.46-2.09-34.92-4.22-52.39-6.26-20.48-2.39-41-4.68-61.46-7q-32.88-3.81-65.75-7.68t-65.75-7.68c-17.94-2.11-35.87-4.31-53.82-6.41-23-2.69-46.07-5.29-69.1-8C786.8,292.58,771.89,290.7,757,289c-4.29-.5-8.61-0.64-12.78-1.93a5.52,5.52,0,0,0-1.43-.13c-10.88-.37-21.62-2.17-32.42-3.34-7.31-.79-14.61-1.7-21.91-2.55-6.19-.72-12.39-1.4-18.58-2.13-0.74-.09-1.64-0.06-2-1.3,1.29-.75,2.7-0.42,4-0.27,6.36,0.7,12.71,1.49,19.06,2.23L720.51,283l36.68,4.28Q772,289,786.73,290.69L831.51,296c12.07,1.41,24.15,2.77,36.22,4.19,10.32,1.21,20.63,2.49,30.94,3.69,11.91,1.38,23.83,2.68,35.74,4,10,1.15,20,2.37,30,3.54l26.2,3c13.5,1.58,27,3.19,40.49,4.75,9.53,1.1,19.07,2.11,28.6,3.21,11.91,1.37,23.82,2.79,35.73,4.19Q1114,328.8,1132.6,331q18.1,2.11,36.21,4.18l38.6,4.48c10.48,1.22,21,2.48,31.44,3.7C1241.08,343.6,1243.21,344,1244.69,346.25Z"/></svg>