<svg id="Layer_1" data-name="Layer 1" xmlns="http://www.w3.org/2000/svg" viewBox="0 0 1920 1080"><title>Cam_01_OpenCower_K_Mask_Spraying_system-01</title><path d="M318.43,209.65a4.62,4.62,0,0,1-.1-0.56C318.12,207.6,318.64,211.67,318.43,209.65Z"/><path d="M314.57,166.93c0.76,8.94,1.59,17.88,2.38,26.82,0.39,4.45.78,8.9,1.22,13.34,0.16,1.59.05,3.38,1.49,4.42a8.29,8.29,0,0,0,3.89,1.09c3.37,0.43,6.75.88,10.12,1.32l1.5,0.22c1.9,0.31,3.69-.31,5.53-0.76,1.65-.4,3.32-0.77,5-1.11,0.32-.06.64-0.09,1-0.16,1-.22.91-1.34,1.25-2.17a10.94,10.94,0,0,1,1.51-2.34c0.58-.79.34-1.73,0.24-2.65-0.48-4.48-.8-9-1.19-13.48q-0.82-9.45-1.65-18.9l-1.07-12.09c-0.13-1.48-.28-3-0.39-4.45,0-.61,0-1.22-0.11-1.82a3.5,3.5,0,0,0-3.26-3.07c-1.87-.34-3.82-0.45-5.7-0.67-2.47-.29-5-0.66-7.44-0.79-4.23-.23-8.47.88-12.58,1.75-1.48.31-2.66,0.81-2.77,2.5a43.73,43.73,0,0,0,.49,6.45q0.28,3.27.58,6.54C315.24,174.82,314.32,164.11,314.57,166.93Z"/><path d="M353.45,159q0.92,10.69,1.8,21.39,0.43,5.33.89,10.65,0.22,2.67.44,5.33c0.07,0.91.14,1.82,0.21,2.73a7.26,7.26,0,0,1,.14,1.54,1.83,1.83,0,0,0,0-.37c0.1,0.73.76,2.65,1.68,2.73a2.85,2.85,0,0,0,1.06-.62,7.3,7.3,0,0,1,2.1-1c2.48-.68,5.05,0,7.54.36,2.26,0.3,4.53.56,6.78,0.87,1.5,0.21,3,.45,4.51.61,1.33,0.15,3.14.58,4.43,0.1a1.24,1.24,0,0,0,.8-1.13,5.93,5.93,0,0,1,.7-1.88,14.79,14.79,0,0,0,.94-1.38,5.05,5.05,0,0,0,.16-2.55c-0.18-2.75-.52-5.5-0.74-8.24q-1.12-14-2.25-28c-0.25-3.12-.46-6.25-0.73-9.38-0.12-1.43-.21-2.87-0.41-4.29a3.3,3.3,0,0,0-1.3-2.42c-1.67-1.16-4.33-1-6.26-1.22-3-.32-6-0.79-9-0.94-4-.19-8.15,1.21-12.12,1.92-2.76.49-2.5,3-2.21,5.24,0.41,3.28.58,6.61,0.86,9.9C354.12,166.73,353.21,156.15,353.45,159Z"/><path d="M332.1,234.55a25.67,25.67,0,0,0,4.16-.08,45,45,0,0,0,8.74-.92c0.9-.22,3-0.58,3.38-1.52a3.64,3.64,0,0,0-.71-3.45c-0.85-.66-2.45-0.58-3.47-0.73,0,0.63.21,1.48-.27,2a5.44,5.44,0,0,1-2.34.8,33.71,33.71,0,0,1-5.45.84,21.27,21.27,0,0,1-5.73-.23,7.26,7.26,0,0,1-2.15-.67c-0.7-.42-0.63-1.28-0.64-2-1,.29-2.61.45-3.32,1.1a1.7,1.7,0,0,0-.46,1.17,4.38,4.38,0,0,0,.14,1.52,1.34,1.34,0,0,0,.92.49,4.32,4.32,0,0,0,1.45.09c0.65,0,.58.32,1.06,0.53a3,3,0,0,0,1.13,0c0.46,0,.93,0,1.39.06a6.74,6.74,0,0,1,1.64.06c0.29,0.27-.2,1.23.52,1C332.48,234.59,331.73,234.68,332.1,234.55Z"/><path d="M402,403.88a15.11,15.11,0,0,1-.36-3,1.8,1.8,0,0,1,.13-1.33c0.67-1.27,1.42-2.5,2-3.8a3.43,3.43,0,0,1,1.36-2c0.23-.1.5-0.16,0.75-0.24,0.74-.23,1.48-0.49,2.22-0.73l2.39-.79a1.73,1.73,0,0,0,1.31-.7,3.88,3.88,0,0,0-.08-1.35c0-.62.15-0.94-0.52-1.17a12.94,12.94,0,0,0-1.86-.38c-0.76-.14-1.52-0.36-2.27-0.53,4,0.86,6.42-5.38,2.89-7.36a4.94,4.94,0,0,0-1.58-.55,5.27,5.27,0,0,1-1.5-.21c-0.36-.18-0.19,0-0.31-0.25a5.21,5.21,0,0,1,0-1.76,0.74,0.74,0,0,0-.77-0.89c-0.25,0-.51,0-0.76-0.07-0.49-.07-1-0.16-1.46-0.24-1-.17-2-0.32-3-0.5a6.21,6.21,0,0,0-3.25.47c-1,.32-2,0.69-3,1s-1.59.17-1.6,1.21a24.21,24.21,0,0,0,.33,3.23c0.22,1.75.32,3.53,0.49,5.29a10.14,10.14,0,0,1,.18,1.6c-0.1,1.18-2.42.45-2.6,1.54a11.4,11.4,0,0,0,.25,2.52q0.5,5.86,1,11.71a2.86,2.86,0,0,0,.11,1,2.5,2.5,0,0,0,1.12.3l3.35,0.68,3.3,0.66c0.41,0.08.82,0.15,1.22,0.25a4.62,4.62,0,0,0,1.74.24,8.1,8.1,0,0,0,2.06-.78,33.57,33.57,0,0,1-3.32-3.06C401.85,403.33,402.57,404.52,402,403.88Z"/><path d="M451.44,404.52c0.9,1.13-.64,1.66-1.49,1.7a1.85,1.85,0,0,1-1.33-.27c-0.37-.37,0-1,0-1.5,0-1.12-1-.6-1.46-1.35a3.08,3.08,0,0,0-1-1.31,5.33,5.33,0,0,0-2-.77,5.25,5.25,0,0,0,2-.69c0.42-.44.14-1.31,0.11-1.9,0-.8-0.1-1.61-0.17-2.41-0.09-1.07-.15-2.15-0.26-3.22a14,14,0,0,1-.2-2.91,2.8,2.8,0,0,1,1.13-1.76c0.8-.79,1.56-1.64,2.33-2.46,0.25-.27.51-0.51,0.77-0.76a3.39,3.39,0,0,0,.92-1.12,4.36,4.36,0,0,0-.11-1.61c-0.15-1.44-.2-2.91-0.3-4.36-0.28-4.07-.52-8.15-0.84-12.23-0.08-1-.17-1.93-0.24-2.9,0-.63-0.37-1.79.11-2.21a8,8,0,0,1,2.45-.87c1.3-.42,2.6-0.82,3.91-1.21l3.35-1a3.85,3.85,0,0,0,1.36-.42,2.73,2.73,0,0,0-.07-0.83l-0.15-1.75c-0.11-1.3-.23-2.61-0.33-3.91s-0.19-2.58-.29-3.88-0.19-2.4-.27-3.61,0-2.66-.23-3.95a5.72,5.72,0,0,0-3.79-4.72c-1-.4-0.39-0.78.36-1.05a1,1,0,0,0,.71-1.38c0-.47-0.07-0.94-0.09-1.41,0-.75.09-1.06-0.63-1.36a12.65,12.65,0,0,0-1.24-.37c-1-.32-2.05-0.73-3.07-1.1l-2.18-.78c-0.49-.18-1-0.36-1.48-0.53a5.88,5.88,0,0,1-.65-0.19c-0.61-.28-0.5-0.63-0.54-1.23-0.1-1.84-.31-3.67-0.46-5.51-0.07-.95-0.17-1.89-0.21-2.84,0-.1,0-0.19,0-0.29a1.17,1.17,0,0,0-.56-1c-0.87-.82-0.75-1.83-0.77-3a30.16,30.16,0,0,0-1-7.25,23.56,23.56,0,0,0-1.09-3.23c-0.22-.52-0.53-1-0.76-1.5a4.5,4.5,0,0,1-.36-1.78c-0.07-1.88-.23-3.76-0.37-5.64,0-.63.12-2.51-0.52-2.86a4.83,4.83,0,0,0-1.08-.2c-0.48-.09-0.75-0.22-1,0.22s0.2,0.52-.46.73a4.4,4.4,0,0,1-1.64,0c-1.12-.24-0.12-1.33-1.18-1.57-0.43-.1-0.93-0.11-1.36-0.18-1.14-.18-2.28-0.37-3.42-0.58a6.45,6.45,0,0,0-3.47.47l-1.48.49a0.88,0.88,0,0,0-.71,1.28,39.67,39.67,0,0,0-16.75,1.87A60.09,60.09,0,0,0,413.4,282a30.22,30.22,0,0,0,1.92-12.33q3.54,0.4,7.11.48,1.64,0,3.28,0c0.65,0,1.31,0,2,0a5.17,5.17,0,0,1,1.77.13,1.61,1.61,0,0,1,.31.3,2.89,2.89,0,0,0,.46.36,1.8,1.8,0,0,1,.5.14c0.15,0.15,0,.14.09,0.33a3,3,0,0,0,.67,1.15c0.53,0.51,1.83,1.27,1.88,1.89,0,0.14-.24.41-0.24,0.62a1,1,0,0,0,.17.47,2.47,2.47,0,0,1,.41,1c0,0.58-.07,1.14-0.06,1.71a2.62,2.62,0,0,0,.56,1.31c0.45,0.84-.58,1.79-0.06,2.52,0.35,0.48,1.61.48,2.15,0.51s2.11,0,2.44-.8a1.23,1.23,0,0,0-.21-1.17c-0.22-.33-0.48-0.43-0.29-0.91,0.3-.75.79-0.68,0.42-1.6a3.56,3.56,0,0,1-.21-1.7,11.7,11.7,0,0,0,.45-1.24c0-.72-0.53-0.87-0.24-1.64a27.53,27.53,0,0,1,1.48-2.55c0.39-.77.11-1.52,0.64-2.17a2,2,0,0,0,.6-1.09c0.11-.75-0.13-1,0.36-1.69,0.62-.82,1.28-1.61,1.9-2.43a24.45,24.45,0,0,0,2.79-3.82,1.55,1.55,0,0,0-.61-2.1,1.23,1.23,0,0,0-1.81.65,30,30,0,0,1-3.74,5.16,5.4,5.4,0,0,1-2.13,1.7,1.6,1.6,0,0,0-.74.23c-0.25.23-.35,0.71-0.64,1a4.68,4.68,0,0,1-2.4,1.07,1.78,1.78,0,0,1-1.19-.17,3.12,3.12,0,0,0-1.47-.41c-1-.08-1.58-1.12-2.38-1.68a16.49,16.49,0,0,0-3-1.58,38.48,38.48,0,0,0-7.19-2.08,71.74,71.74,0,0,0-7.63-1.12,63.08,63.08,0,0,0-7.14-.45l4.25-.15a19.21,19.21,0,0,0,1.93-.09c0.4-.06,1.38-0.16,1.31-0.75a1.82,1.82,0,0,0-1.3-.93c0.6,1.09-2.5,1.6-2.88,1.11a1.54,1.54,0,0,1,.56-1.61c0.4-.17,1.15.34,1.47-0.08a2.68,2.68,0,0,0-.92-0.41c1.24-.47,2.64-0.56,3.85-1.06,0.72-.29.65-0.74,0.57-1.44,0-.35-0.12-0.68-0.16-1-0.11-1-.16-2-0.24-3-0.18-2.2-.44-4.42-0.54-6.63a5.62,5.62,0,0,0-.08-1.58c-0.24-.67-1.13-0.59-1.79-0.63a19.59,19.59,0,0,1-2.22-.24,3.57,3.57,0,0,1-1.35-.3c-0.12-.12-0.09-0.5-0.23-0.64a2.24,2.24,0,0,0-1.09-.23c-0.74-.1-1.48-0.14-2.22-0.23-0.94-.11-2.68-0.42-3.48.26-0.4.33-.12,1.41-0.08,1.94a10.93,10.93,0,0,0,.2,2.25c0.11,0.36.33,0.64,0.44,1a8.35,8.35,0,0,1,.17,2.06c0,0.6.07,1.19,0.11,1.78l0.16,2.23a6.54,6.54,0,0,1,.15,2.09c-0.19.38-.35,0.18-0.77,0.32s-0.48.44-.47,1c0,1.57.13,3.22,0.29,4.78a59.48,59.48,0,0,0-13.16.19,15,15,0,0,0-5.58,1.84,8.67,8.67,0,0,0-2,1.75c-0.66.75-1,1.64-1.64,2.42-0.26,0-.16-0.67-0.33-0.81-0.35-.28-0.88.09-1.26,0-0.74-.11-0.59-0.94-0.65-1.58a7.6,7.6,0,0,1-.19-2c0.14-.39,1.54-0.59,2-0.72l3.07-.84a12.54,12.54,0,0,0,1.33-.36c0.65-.26.49-0.62,0.46-1.26s-0.07-1.2-.08-1.79a3.23,3.23,0,0,0-.07-1.48c-0.15-.2-0.55-0.21-0.7-0.4a2.79,2.79,0,0,1-.11-1.34,5,5,0,0,0-.41-2.72,1.41,1.41,0,0,0-1.33-.56,2.29,2.29,0,0,1-1-.11,2.71,2.71,0,0,1-.25-1.34,6,6,0,0,0-.33-1.8,1.93,1.93,0,0,0-.54-0.61c-0.19-.22-0.28-0.29-0.12-0.55s0.32-.11.42-0.23a1.7,1.7,0,0,0,.12-0.89,1.27,1.27,0,0,0-.81-1.37,10.8,10.8,0,0,0-4.29-.13c-0.8.09-2.47,0.14-2.85,0.94a2.68,2.68,0,0,0,.12,1.7c0.1,0.16.4,0.22,0.48,0.38,0.26,0.52-.29.53-0.47,0.9-0.28.6,0.12,1.81,0.14,2.47,0,1.19-.3,1.47-1.47,1.25l-1.39-.24-3.68-.61c-1.46-.23-2.92.35-4.31,0.7a4.83,4.83,0,0,0-1.37.36,1.18,1.18,0,0,0-.24.67,4.79,4.79,0,0,1-1.7.52c-0.71.18-1.42,0.36-2.14,0.51a1.45,1.45,0,0,0-1.21.54c-0.3.61,0.15,1.87,0.24,2.53,0.32,2.44.45,4.91,0.68,7.35,0.1,1.05.21,2.1,0.29,3.16s0.17,0.92,1.27,1,0.45,0.55,1,1.17a4.23,4.23,0,0,0,1.72.94c3,1.11,6.69.84,9.87,0.8,0.88,0,1.74,0,2.61-.09a5.6,5.6,0,0,0,2.12-.41c1.08-.66-0.52-1.48-1.16-1.68,1.32,1.39-1.24,1.63-2.2,1.31a0.82,0.82,0,0,1-.59-1.12c0.31-.64,1.45-0.67,2-0.62,0-.3-0.89-0.35-1.08-0.39,1.35-.8,3.13-0.42,4.63-0.36l3,0.12c-0.34,1-.54,2.36-1.46,3a6.69,6.69,0,0,1-2.22.68q-1.3.31-2.62,0.5a41.74,41.74,0,0,1-11,.08,1.18,1.18,0,0,1-.35,1,3.1,3.1,0,0,0-.09,1.33c0,0.71.16,1.35,1,1.37-4.63,2.34-6.23,8.44-6.86,13.17l-2.16-23.73q-0.34-3.72-.66-7.45l-0.65-7.41c-0.06-.67-0.14-1.35-0.18-2,0-.44,0-0.87,0-1.31a3.73,3.73,0,0,0-.43-1.82,7.57,7.57,0,0,0-1.32-1.37c-0.91-.82-1.67-1.79-2.55-2.64a1.88,1.88,0,0,0-1.78-.64c-0.36,0-.71.13-1.07,0.18-0.64.09-1.29,0.12-1.93,0.18a62.21,62.21,0,0,1-15.9-.07L325.91,255q1.65,18.31,3.28,36.62,0.46,5.11.92,10.21a31,31,0,0,0,.44,4.82c0.32,1.22,1.69,1.69,2.8,1.94a19.58,19.58,0,0,0,3.73.36c0.72,0,1.44.05,2.16,0.05,0.54,0,1.75-.29,2.22,0s0.37,1.76.47,2.45l0.31,2.3c0.33,2.42.51,4.91,1,7.3a3,3,0,0,0,1.58,2.38c1.1,0.43,2.42-.18,3.33-0.79,2.26-1.52,3.73-4.26,4.79-6.7a21.46,21.46,0,0,0,1.87-7.91c0.08-2.73.17-5.45,0.25-8.18,0.16-5.77.19-11.94,2.27-17.42a12.14,12.14,0,0,1,2.23-3.7q0.1,1.66.23,3.32c0.08,1,0,1.72,1.1,2.12a12,12,0,0,0,6.46-.05l1.15,11.7c0.09,0.95.39,1.13,1.42,1.5a9.83,9.83,0,0,0,5.05,0,4.44,4.44,0,0,0,1.95-.47c0.53-.47,0-2.55,0-3.27q-0.24-3.89-.29-7.8c0-2.88-.07-5.77,0-8.65a15.84,15.84,0,0,1,.38-4.27c0.41-1.26,1.28-2.3,1.73-3.55-0.34,8.91-.2,17.83.25,26.73l1.5-.43,0.58-.17c0.65-.17.83-0.14,0.78-0.89-0.07-1.07-.2-2.14-0.27-3.21l-0.12-1.76a3.28,3.28,0,0,1,0-1.52c0.58-.77,1.4.18,1.29-1.22,0-.54-0.1-1.09-0.14-1.63l-0.43-5.5-0.29-3.66a9,9,0,0,0-.18-2.57c-0.41-.85-1.55-0.2-2.07-0.86-0.33-.42-0.11-1.5-0.12-2a9.24,9.24,0,0,0-.27-1.9,3.86,3.86,0,0,1,.58-2.38,1.14,1.14,0,0,1,1-.18,1.78,1.78,0,0,0,1.61-.58,7.17,7.17,0,0,1-1.23-.32c1.56-1.7,3.91-2.36,6.11-2.68a51.22,51.22,0,0,1,7.88-.39c1.73,0,3.45.08,5.18,0.12,0.67,0,3.2-.4,3.47.1a11.15,11.15,0,0,1-2.06.61c-0.53.19-.52,0.31-0.5,0.92,0,0.36.11,1.69,0.53,1.78a5.66,5.66,0,0,1,.48-0.55A1.45,1.45,0,0,1,403,265a1.35,1.35,0,0,1,1,.38c0.11,0.17,0,.46.07,0.59a3.4,3.4,0,0,0,.64.29,2.14,2.14,0,0,1,.12,1c0,0.35,0,.69,0,1a9,9,0,0,0,.16,2.36,3.34,3.34,0,0,1,.42.66,4.12,4.12,0,0,1,0,1.07,4,4,0,0,0,.08,1.24,3.18,3.18,0,0,0,1.25-.12,6.93,6.93,0,0,0,2.26-.69c0.76-.43.52-1,0.42-1.79s-0.12-1.28-.17-1.91l1.69,0.12a4.53,4.53,0,0,1,1.65.16c0.32,0.28.15,1.4,0.13,1.77,0,0.72-.08,1.45-0.16,2.17a29.81,29.81,0,0,1-.86,4.6,38.13,38.13,0,0,1-3.34,8.33c-0.58,1.09-1.68,2.28-1.7,3.56,0,0.79.5,2,.15,2.7a1.93,1.93,0,0,1-1.38.66,22.72,22.72,0,0,0-2.16.71c-1.52.57-3,1.21-4.47,1.9a75.83,75.83,0,0,0-7.69,4.21,39.88,39.88,0,0,0-12.57,11.77,78.27,78.27,0,0,0-4.54,8.09c-1.31,2.63-2.26,5.41-3.67,8-2.78,5.12-7.53,8.6-12.66,11.17a29.77,29.77,0,0,1-8.57,2.73,22,22,0,0,1-4.42.3,3.06,3.06,0,0,1-1-.07c-0.44-.21-0.28-0.35-0.28-0.83,0-.77,0-1.54,0-2.31-0.05-2.61-.33-5.47-1.75-7.73a9.89,9.89,0,0,0-4.7-3.8c-2.68-1.09-5.42-.94-8.25-1a90.85,90.85,0,0,1-10.86-.73c-3.09-.41-6.26-1.06-8.88-2.85a21,21,0,0,1-6.36-7c0,1.84-.12,3.69,0,5.54a4.65,4.65,0,0,0,.48,2.27,8.45,8.45,0,0,0,1.39,1.52,18.93,18.93,0,0,0,7.56,4,42.57,42.57,0,0,0,9.76,1.56c3.38,0.19,6.81-.23,10.18.15,2.67,0.3,6.06,1.44,6.32,4.59a1.45,1.45,0,0,0,.07.73,2.93,2.93,0,0,0,.57.16,2.19,2.19,0,0,1,.26,1.49c0.05,0.74.16,1.49,0.23,2.23,0,0.51.07,1,.14,1.53,0.1,0.74.16,0.73,0.91,0.91,1.32,0.32,3.18,0,4.22,1a26.78,26.78,0,0,1,2,2.75,1.29,1.29,0,0,0,1.51.54c0.86-.12,1.72-0.34,2.57-0.52a44.52,44.52,0,0,0,9.86-3.34,36.35,36.35,0,0,0,7.54-4.52,26.9,26.9,0,0,0,5.56-6.24,70.77,70.77,0,0,0,4.26-8.67,53.18,53.18,0,0,1,4.95-9.33,40.81,40.81,0,0,1,7-7.11,53.52,53.52,0,0,1,27.43-11.68,38.3,38.3,0,0,1,5.22-.29,4.49,4.49,0,0,1,1.88.17c0.52,0.3.44,1.18,0.5,1.74,0.41,3.53.48,7.11,0.76,10.66,0.14,1.81.16,3.68,0.42,5.48,0.08,0.55.45,1.67,0,2.06a2.36,2.36,0,0,1-1,.28,5.83,5.83,0,0,0-1.2.46,1.24,1.24,0,0,0-.81,1.49c0.09,0.8.16,1.6,0.22,2.4-4.45-2.3-9.57-3-14.51-3.31,0.05,1.55.16,3.1,0.27,4.64,0.06,0.77.12,1.55,0.18,2.32,0,0.54-.19,2.06.21,2.48s1.54,0.28,2,.32a21.86,21.86,0,0,1,2.2.34,28.71,28.71,0,0,1,4.63,1.31c0.27,0.1,1.68.49,1.69,0.89s-0.5.27-.74,0.32c-0.42.1-.38,0-0.53,0.45a7.44,7.44,0,0,0,0,2.34c0,1.28-1.48,2-2.37,2.79-0.48.41-1,.75-1.48,1.19-0.61.6-.4,1.28-0.39,2.07,0.13,6.38-.2,12.78.07,19.16a3.11,3.11,0,0,0,.21,1.68,2.47,2.47,0,0,0,1.18.4c1.55,0.36,3.14.6,4.71,0.86s3.06,0.47,4.6.69c1.11,0.16,1.31.13,1.38,1.25,0.27,4.25.61,8.49,0.91,12.74q0.24,3.36.48,6.71c0,0.65.1,1.3,0.13,1.95,0,0.29,0,.59,0,0.88a1.51,1.51,0,0,0,.87,1.27c0.92,0.68,1.79,1.43,2.72,2.1s2.47,1.38,2.62,2.64c0.06,0.53.08,1.07,0.12,1.6q0.17,2.35.35,4.69c0.08,1.1.06,2.26,0.23,3.34,0.11,0.68.75,0.63,1.37,0.75l1.94,0.38c-1.34.52-3.2,0.81-4-.63-0.52-.91-1-1.81-1.57-2.71l-1.73-3-6.55-11.38c-0.3-.51-0.62-1-0.89-1.55a3.55,3.55,0,0,0-1.05-1.66c-0.68-.35-1.78.07-2.51,0.07l0.84,8.32c1.88-1.13,5.46-.47,6.26,1.76a13,13,0,0,1,.38,4c0,1.54.21,3.1,0.34,4.64,0.08,0.95.45,2.44-.52,3.09-0.68.46-1.72,0.18-2.47,0.09-0.92-.11-1.68-0.06-1.69-1.12a5.2,5.2,0,0,0-1-3.56c-1.07-1.23-2.75-1.22-4.25-1.44l-4.09-.61a10,10,0,0,1-2.93-.53,2.58,2.58,0,0,0-2.91-.14,5,5,0,0,0-2,2.14,7.77,7.77,0,0,0-.11,6.41,2.22,2.22,0,0,0,2.24,1.53,9.66,9.66,0,0,1,4.27.49l-2.56,1.17,14.69,2.65c7.26,1.31,14.61,2.83,22,1.32a11.87,11.87,0,0,0,4.95-1.93,2.53,2.53,0,0,0,1-1.32c0.22-1-.15-2.36-1.21-2.62C451.78,405,452.64,404.81,451.44,404.52ZM351.12,313.85a21.59,21.59,0,0,1-1.88,3.54c-0.75,1.17-1.73,2.64-3.1,3.15-1-3.4-1-7.1-1.68-10.57a1.26,1.26,0,0,1,0-1.12,1.78,1.78,0,0,1,.79-0.13l0.42-.08c0.78-.13,1.56-0.28,2.35-0.42l3.93-.71a17,17,0,0,1-.87,6.33C350.58,315.18,351.81,311.81,351.12,313.85Zm58.09-47.24c-0.06-.6-0.12-1.2-0.16-1.8a4,4,0,0,1,2.63,2Zm3.46-3.41a58.37,58.37,0,0,1,7.83,1.35c2.29,0.55,5.73,1.23,7.24,3.26l-8.61-.35-1.27-.05c-0.63,0-2.36.19-2.83-.13a6.58,6.58,0,0,1-1.25-2,9,9,0,0,1-1.12-2.09C415.57,263.49,412.75,263.54,412.67,263.2Z"/></svg>