<svg id="Layer_1" data-name="Layer 1" xmlns="http://www.w3.org/2000/svg" viewBox="0 0 1920 1080"><title>Cam_01_CloseCower_K_Mask_Main_Surfase-01</title><path d="M1699.78,305a1.92,1.92,0,0,0-.89-0.12,1.27,1.27,0,0,1,.47.06Z"/><path d="M1701.39,305.51a15.16,15.16,0,0,0-1.5-.47,1.85,1.85,0,0,0,.4,0l-0.42-.06h-0.09l0.1,0h-0.73c-13.8-1.83-27.66-3.15-41.49-4.7s-27.67-3.1-41.49-4.75-27.58-3.16-41.37-4.69-27.55-3.23-41.34-4.74-27.67-3-41.49-4.58c-13.66-1.57-27.34-3-41-4.62s-27.55-3.14-41.32-4.68-27.6-3.26-41.42-4.76-27.48-3-41.21-4.62-27.46-3-41.18-4.63-27.62-3.16-41.44-4.66-27.52-3.11-41.28-4.71-27.63-3-41.44-4.63-27.66-3.19-41.5-4.67-27.41-3.27-41.13-4.76c-3.36-.37-6.71-0.93-10.08-1.09s-6.14.82-9.15,2c-1.49.56-3,1.09-4.5,1.62a17.28,17.28,0,0,1-2.77,1c-1.29.21-1.67-.61-1.79-1.78-0.14-1.35.16-2.87-.78-4s-2.71-1.17-4.06-1.34c-0.89-.11-1.78-0.16-2.66-0.26l-4.26-.51c-6.43-.76-12.86-1.46-19.29-2.16-13.83-1.5-27.65-3-41.47-4.66l-10.48-1.25c-3.38-.4-6.79-1-10.19-1.18-6.82-.4-13,2.44-19.33,4.59q-11.51,3.91-23,7.77-9,3-18,6.06c-1.53.52-3.12,0.94-4.63,1.53-0.52.21-2,.64-1.75,1.37s2.24,1,2.85,1.09c1.68,0.35,3.37.59,5.07,0.79,3.48,0.42,7,.77,10.46,1.17q15.71,1.8,31.4,3.72c13.81,1.7,27.63,3.3,41.45,5s27.6,3.43,41.42,5,27.7,3.21,41.55,4.88,27.7,3.42,41.55,5.08,27.67,3.22,41.5,4.89,27.48,3.3,41.22,5,27.59,3.32,41.39,4.91,27.69,3.33,41.54,5,27.67,3.38,41.5,5,27.67,3.22,41.49,4.89l23.54,2.87,28.85,3.5c13.88,1.66,27.77,3.29,41.64,5s27.7,3.26,41.55,4.88,27.71,3.35,41.56,5,27.55,3.35,41.33,5,27.44,3.39,41.18,5q9.88,1.17,19.77,2.28c6,0.67,12.49.82,17.29,4.89q-22.78-2.63-45.55-5.39c-15.14-1.84-30.27-3.77-45.42-5.58s-30.08-3.54-45.11-5.44-30.14-3.61-45.22-5.39-30.27-3.6-45.4-5.47-30.29-3.69-45.43-5.51-30.16-3.71-45.24-5.54-30.13-3.57-45.2-5.34-30.2-3.63-45.3-5.45-30.15-3.63-45.21-5.49-30.26-3.53-45.38-5.43-30.32-3.79-45.5-5.54-30.15-3.54-45.21-5.42-30.08-3.56-45.11-5.42l-11.3-1.4c-3.72-.46-7.44-1.12-11.17-1.4a16.57,16.57,0,0,0-2.44-.18,4.81,4.81,0,0,0-2.23.18c-0.89.44-1.09,1.48-1.39,2.33-0.74,2.09-2.69,2.56-4.57,3.27l-13.4,5.06-17,6.41-5.9,2.21-3.76,1.41c-1.73.65-4.65,2-6.12,0.13a4,4,0,0,1,1.49-5.92c2.2-.93,4.51-1.67,6.75-2.5l7.61-2.83,14.84-5.57,3.91-1.46c2.49-.93,5.42-1.53,7.48-3.29-1.61-1.87-4.6-1.74-6.88-2l-2.17-.24-6.45-.72c-9.6-1.08-19.18-2.31-28.76-3.46q-15.6-1.86-31.19-3.76c-5-.62-10-1.07-15-1.81a33.87,33.87,0,0,0-7.62-.49,29.2,29.2,0,0,0-7.35,1.82c-7.15,2.54-14.38,4.88-21.58,7.3l-19.91,6.68-9.28,3.1c-1.41.47-2.82,0.92-4.22,1.43a7.83,7.83,0,0,0-2.9,1.38,4.32,4.32,0,0,0-.41.47c-0.28.37-.39,0.37-0.11,0.67a2.81,2.81,0,0,0,1.36.46c2.36,0.45,4.86.58,7.24,0.9q20,2.69,40.08,5.18c20.92,2.64,41.83,5.4,62.75,8.08s41.78,5.39,62.67,8.06,41.5,5.28,62.24,8,41.67,5.35,62.51,8l21.44,2.77,27.78,3.57,28.75,3.7,17.36,2.23,62.46,8,62.24,8,62.31,8c20.83,2.65,41.65,5.4,62.47,8.08s41.59,5.26,62.37,7.93,41.74,5.54,62.63,8.17c4.49,0.57,9,1,13.49,1.66,3.88,0.61,7.9,1.63,11,4.17-2.35.36-4.9-.24-7.24-0.54l-7.08-.92-12.39-1.6-59.74-7.7q-35.22-4.6-70.46-9.07t-70.43-9.09c-23.43-3-47.17-6.1-70.75-9.15s-46.86-6.13-70.31-9.1-47.08-6.09-70.62-9.16-47.06-6-70.58-9.07-47-6-70.54-9c-23.35-3-46.68-6.13-70-9.19q-14.9-2-29.82-3.75l-6.12-.73c-1.13-.13-2.27-0.29-3.4-0.4a2.64,2.64,0,0,0-2.14.37c-1,.89-0.48,2.37-1,3.45-0.77,1.52-2.62,1.9-4.09,2.45-1.22.45-2.42,0.92-3.63,1.38l-3.37,1.22-13.18,5-23.1,8.8c-2.2.83-5,2.62-7.37,1.87-2.16-.69-2.61-3.66-1.78-5.51s3.81-2.27,5.5-2.92c4.3-1.64,8.62-3.21,12.93-4.81L902.35,287l2.27-.83c0.85-.31,4.64-1.14,4-2.66-0.44-1-2.46-.83-3.43-1l-3.33-.44c-3-.4-6-0.77-9-1.18L864.38,277c-14.26-1.93-28.54-3.71-42.81-5.55-1.75-.23-3.5-0.44-5.25-0.68-2.75-.37-5.77-1.17-8.55-0.9-2.49.24-5,1.37-7.33,2.14-6.63,2.16-13.21,4.47-19.82,6.7l-23.6,8-12,4L738.25,293a22.19,22.19,0,0,0-2.78,1,1.73,1.73,0,0,0-1.12,1c-0.09.91,1.47,1.28,2,1.41,2.12,0.49,4.43.59,6.59,0.89l7.16,1,32.9,4.52,70.27,9.67,70.48,9.67c23.58,3.26,47.16,6.58,70.75,9.78s46.9,6.48,70.35,9.71,47.11,6.43,70.66,9.69,47.12,6.46,70.67,9.68l70.11,9.63,70.64,9.79q35.29,4.89,70.59,9.72l70.08,9.62c11.86,1.64,23.72,3.23,35.57,4.9,5.68,0.8,11.35,1.71,17,2.39s11.21,1.34,16.55,3.39c0.54,0.21,5,1.54,4.21,2.74-0.53.85-3.25-.08-4.07-0.19q-8.65-1.13-17.28-2.36-17.68-2.49-35.37-4.89-35.3-4.85-70.59-9.75l-70.37-9.77-70.63-9.79-70.49-9.8-31.24-4.36-33.54-4.7-23.51-3.28q-35-4.82-70-9.78c-23.5-3.29-47-6.43-70.53-9.7s-47-6.46-70.44-9.75c-20.67-2.9-41.35-5.75-62-8.67-4.49-.63-9-1.29-13.46-1.9-1.12-.15-2.25-0.28-3.38-0.36s-2.44-.39-3.25.45-0.68,2-1.31,2.77a6.4,6.4,0,0,1-2.83,1.79c-3,1.24-6.08,2.23-9.11,3.36q-14.92,5.59-29.82,11.23l-16.29,6.19c-2.49,1-5.2,2.42-7.93,2.32a22.48,22.48,0,0,1-4-.73c-0.68-.15-2.15-0.25-2.4-1.11s1.39-1.73,2-2.14a13.5,13.5,0,0,0,2.34-2.68c0.78-.9,2.22-1.2,3.29-1.63,1.46-.58,2.94-1.12,4.41-1.68l16.27-6,18.28-6.74,6.37-2.36,4.53-1.67c0.7-.26,6.19-1.78,4.06-3.3a4.7,4.7,0,0,0-2-.42l-1.76-.25-9-1.25-17.21-2.38c-11.85-1.66-23.7-3.37-35.55-5l-17.6-2.47-8.9-1.24c-2.8-.39-5.59-0.91-8.39-1.21a14,14,0,0,0-8.1.87l-2.73.94-7.1,2.38q-20.57,6.9-41.13,13.85l-15.62,5.32c-2.73.93-5.48,1.81-8.26,2.6a4.47,4.47,0,0,0-2.72,1.69c-0.56,1,.56,1.08,1.27,1.21,5.71,1,11.44,1.81,17.18,2.66q35.1,5.13,70.23,10.37c23.5,3.5,47,7.11,70.49,10.6s47,7,70.55,10.46,46.83,6.94,70.19,10.41,46.64,7,70,10.52,46.82,6.89,70.22,10.42,46.83,6.93,70.23,10.5,46.65,6.85,70,10.41,46.88,7,70.33,10.46,46.88,6.93,70.3,10.48,46.63,7,70,10.4q17.68,2.58,35.36,5.23l17.36,2.58c5.66,0.83,11.12,1.8,16.41,4.09a14.29,14.29,0,0,1,3.39,1.63,0.84,0.84,0,1,1-.85,1.42c-0.9-.16-1.8-0.28-2.7-0.41l-8.41-1.2q-17.69-2.59-35.37-5.25l-70-10.47-70.14-10.48c-23.51-3.48-47-7.1-70.52-10.61s-46.74-7-70.11-10.5-46.8-7.07-70.2-10.57l-70.42-10.57c-23.43-3.51-46.86-7.07-70.3-10.53S920.32,372,897,368.48q-35.29-5.34-70.6-10.58-34-5-67.89-10.16c-2.2-.34-4.42-0.62-6.62-1-1.53-.27-3.9-0.81-4.56,1.11-0.46,1.36,0,2.89-.5,4.23a3,3,0,0,1-2,1.52c-1.26.51-2.55,0.93-3.82,1.41l-3.19,1.21-5.7,2.16-20,7.51-24.54,9.25c-1.14.43-2.28,0.86-3.41,1.34-2,.83-5.45,1.91-7-0.4a5.56,5.56,0,0,1-.43-2.79,4.45,4.45,0,0,1,.57-2.77,6.14,6.14,0,0,1,2.81-1.58c1.34-.54,2.7-1,4.06-1.49,3-1.06,6-2.2,9-3.31l26.7-9.89,9.66-3.58,3.78-1.4,3.34-1.23c1.47-.54,3.3-0.94,4.1-2.44-2.81-1.32-6-1.45-9-1.9l-3.81-.58-6.41-1-17.88-2.7q-21.15-3.19-42.31-6.28c-7.64-1.12-15.28-2.23-22.91-3.44-3.69-.59-7-0.84-10.69.29s-7.27,2.41-10.88,3.67c-6.66,2.34-13.36,4.56-20,6.82l-31.49,10.61-20.78,7c-1.39.47-3.55,0.65-4.51,1.81-1.44,1.74,2.1,1.89,3,2,2.45,0.36,4.9.79,7.35,1.18q17.18,2.76,34.35,5.57c15.35,2.53,30.7,5.08,46.07,7.52s30.49,4.89,45.72,7.39,30.66,5,46,7.49,30.59,4.89,45.88,7.37l46.07,7.49c15.36,2.49,30.57,4.87,45.85,7.38s30.48,5,45.72,7.4,30.64,4.93,46,7.44,30.52,5,45.78,7.45,30.51,4.91,45.76,7.41,30.61,5,45.92,7.46,30.48,4.94,45.72,7.43,30.51,4.94,45.77,7.38,30.67,4.9,46,7.44,30.49,5,45.75,7.43,30.61,4.91,45.91,7.4,30.5,4.92,45.74,7.38,30.48,5,45.72,7.51q5.79,1,11.58,1.85a75.89,75.89,0,0,1,10.73,2q2.57,0.78,5.07,1.79c1.62,0.65,3.3,1.24,4.85,2a2.52,2.52,0,0,1,1.59,1.49c0.17,0.79-.4.85-1,0.78-1.74-.2-3.49-0.52-5.22-0.78-15.18-2.29-30.31-4.9-45.46-7.39-11.41-1.88-22.84-3.65-34.25-5.51l-11.83-1.81-20.81-3.39-22.4-3.61-16.19-2.64-19.37-3.15-45.95-7.48-45.63-7.45-45.44-7.43q-22.83-3.78-45.69-7.43c-15.23-2.43-30.42-5-45.63-7.49s-30.64-4.93-46-7.44-30.52-5-45.79-7.53-30.6-5-45.9-7.47l-38.15-6.26-13.81-2.26L827,412.2l-15.4-2.52-9.24-1.51L781,404.67l-25.76-4.21L709.32,393l-46.16-7.5L617.22,378l-46.13-7.55q-15.7-2.56-31.4-5.09c-2.21-.36-4.41-0.84-6.63-1.14a21.77,21.77,0,0,0-10.58,1.4c-3,1.06-6,2.08-9,3.11q-8.25,2.83-16.53,5.58c-3.59,1.2-7.19,2.36-10.77,3.57a11.45,11.45,0,0,0-3.53,1.42c-1.11.9-.66,2.35-0.22,3.49a13.71,13.71,0,0,1,1.22,4.47,9,9,0,0,1-1.16,4.87c-1.71,2.91-4.45,4.58-7.13,6.48-1.48,1-2.93,2.13-4.33,3.29a15.64,15.64,0,0,0-3.36,3.37c-1.71,2.68,1.44,3,3.37,3.45,6.34,1.31,12.81,2.21,19.19,3.34l17.48,3.09q22,3.89,44,7.87l45.94,8.18q22.94,4.07,45.74,8.08t45.74,8.09Q712,451.46,735,455.53l45.63,8.07q22.81,4,45.61,8.09c15.24,2.72,30.47,5.47,45.71,8.16s30.37,5.33,45.55,8L963.19,496l45.42,8.06,45.74,8.11,45.67,8.11,45.75,8.12,45.75,8.13,45.42,8q22.72,4,45.55,8.12c15.28,2.71,30.57,5.38,45.86,8.1l21,3.76a67.94,67.94,0,0,1,9.56,2A74.68,74.68,0,0,1,1367,570a21.81,21.81,0,0,1,2.6,1.24c0.84,0.55,1.88,2.21.13,2.27a16.77,16.77,0,0,1-3.24-.56l-1.86-.32L1361,572l-12.42-2.09q-10.09-1.79-20.18-3.61l-21.72-3.89L1286,558.68l-45.74-8.19-45.83-8.19-45.63-8.16-46-8.27q-23-4.14-45.73-8.12t-45.63-8.16q-22.81-4.1-45.81-8.19-22.83-4-45.66-8.12t-45.6-8.17c-15.25-2.71-30.5-5.38-45.75-8.11s-30.19-5.47-45.3-8.17-30.34-5.4-45.5-8.13-30.55-5.5-45.83-8.21-30.41-5.39-45.61-8.1-30.55-5.51-45.84-8.21-30.37-5.34-45.55-8.06-30.55-5.51-45.82-8.25l-22.72-4.07-11.36-2c-3.6-.64-7.27-1.67-10.92-1.86a3.19,3.19,0,0,0-2.92,2.44,4.66,4.66,0,0,1,1.75.93c0.44,6.82.82,11.1,1.06,17.43,0.07,1.84-3.37,3.68-5.08,4.18a68.56,68.56,0,0,1-22,2.87A36.82,36.82,0,0,1,426.25,438c-1.43-.48-2.73-0.94-3.08-2.54a8.16,8.16,0,0,1-.27-2.31c-0.34-3.78-.55-7.57-0.86-11.35a8.12,8.12,0,0,1,.69-4.88,15.88,15.88,0,0,1,2.74-3,10,10,0,0,0,2.18-2.65,1,1,0,0,0,0-1.18c-0.44-.42-1.22,0-1.69.13-3.43,1-6.81,2.09-10.19,3.27-4.54,1.58-9.09,3.1-13.64,4.65l-15.34,5.22-9,3c-1.57.51-3.55,0.87-4.43,2.4-0.69,1.2-1.2,2-2.72,2.14-2.73.23-4.25-1.69-4.47-4.2-0.1-1.16-.06-2.33-0.13-3.5s0-2.79-1.13-3.55c-1.36-.91-3.27.12-4.68,0.59l-9.09,3c-3.69,1.22-7.38,2.42-11.06,3.67-1.82.62-3.63,1.24-5.44,1.89-1.17.43-2.41,1-2.34,2.47a13,13,0,0,0,1.3,3.72q1,2.68,2.06,5.35l1.43,3.7,6.18,16,6.86,17.8,0.51,1.32c0.44,1.14.85,2.28,1.3,3.41,0.55,1.36.94,3.09,2,4.15,1.22,1.21,3,1.39,4.63,1.71l3.18,0.63,2.86,0.58,20.1,4.21c15.19,3.08,30.38,6.14,45.56,9.3s30.25,6.29,45.38,9.4,30.3,6.18,45.45,9.3,30.24,6.24,45.36,9.34l8.43,1.73,19,3.91,22.5,4.61,18.44,3.78,10.77,2.21,45.51,9.3,45.5,9.28q22.75,4.64,45.66,9.36Q805,580,827.74,584.66L873.33,594l45.44,9.33,45.63,9.41q22.71,4.66,45.43,9.26c15.15,3.06,30.27,6.21,45.41,9.33l45.62,9.37L1146.4,650l21.86,4.48,15.41,3.16,22,4.51,21.06,4.32,12.69,2.6,7.6,1.56,21.55,4.41,11.59,2.38,8,1.64c1.76,0.36,3.56.87,5.33,1.11a6.69,6.69,0,0,0,4.45-.65,17.55,17.55,0,0,0,3.32-2.72c2.65-2.52,5.49-4.86,8.26-7.26,1.29-1.12,2.63-2.18,3.93-3.28a19.93,19.93,0,0,0,3.6-3.48c1.7-2.4,1.22-6,1.34-8.74,0.08-1.87-.11-3.85.61-5.62,0.63-1.56,2-2.55,3.26-3.62s2.75-2.41,4.12-3.62,2.73-2.06,3.9-3.29c2.46-2.6,2-6.22,2.13-9.53q0.09-2.79.27-5.57a20.14,20.14,0,0,1,.63-5.08,7.8,7.8,0,0,1,3-3.59c1.48-1.12,2.86-2.38,4.28-3.58q8.77-7.46,17.64-14.79c5.82-4.81,11.49-9.8,17.3-14.62q17.74-14.74,35.41-29.57t35.43-29.88l35.6-30c11.78-9.94,23.54-19.91,35.39-29.77,7.13-5.94,14.31-11.82,21.48-17.71,1.26-1,2.52-2.07,3.8-3.08,0.5-.39,2.08-1.79,2.81-1.07a4.26,4.26,0,0,1,.39,1.7,12,12,0,0,1,0,2.19c-0.16,1.73-.53,3.42-0.76,5.13-0.51,3.71-.81,7.47-1.11,11.2-0.08,1-.69,3.36.7,3.64s2.41-1.6,2.68-2.71a35.5,35.5,0,0,0,.46-5.23c0.16-1.88.33-3.77,0.49-5.65,0.31-3.63.35-7.33,0.82-10.94a11.16,11.16,0,0,1,4.22-7.54c1.17-1,2.41-1.92,3.6-2.9l14.73-12.23q3.81-3.16,7.6-6.35l16.62-13.94,8.28-7,14.4-12.08,9.81-8.23,14.41-12.09,8-6.73,15.76-13.22,12.89-10.82c2.31-1.94,4.63-3.88,7-5.73,0.87-.68,2.09-0.81,2.49.48a7.7,7.7,0,0,1-.29,3.43c-0.2.91-1.41,4.76,0,5.41,0.7,0.32,1.74-.53,2.35-0.85s1.15-.57,1.72-0.86a33,33,0,0,0,.61,5c0.38,1.35,1.38,1,2.25.3,1.91-1.45,4.31-2.84,5.2-5.2a17,17,0,0,0,.67-4.64c0.13-1.74.3-3.48,0.48-5.22a100.18,100.18,0,0,0,1-10.06A2.89,2.89,0,0,0,1701.39,305.51Zm-660-64.63a3,3,0,0,1-1.12,1.76,1,1,0,0,0-.37.18l-0.05,0a6.9,6.9,0,0,0-.72.34,2.31,2.31,0,0,1,.67-0.33l-0.33.1c-8,3.36-16.26,6.23-24.4,9.3-1.79.67-4,1.76-5.83,0.83a3.07,3.07,0,0,1-1.44-3.42,3.44,3.44,0,0,1,2.34-2.61c3-1.37,6.19-2.27,9.26-3.43s6.36-2.45,9.56-3.61c1.79-.65,3.59-1.27,5.4-1.89a17.53,17.53,0,0,1,2.56-.67,6.35,6.35,0,0,1,2.52.23,2.1,2.1,0,0,1,1.68,1A3.06,3.06,0,0,1,1041.36,240.88ZM646.87,389c0,0.26,0,.16,0,0h0Zm0,0v0c-0.4,2-2.92,2.49-4.57,3.14l-2.6,1-6.17,2.32-7.3,2.74q-16.49,6.19-33,12.35c-6.42,2.42-13,4.63-19.27,7.46a4.28,4.28,0,0,1-2.62.61c-0.77-.14-2.17-0.31-2.72-0.92a5,5,0,0,1-.7-2.59,8.74,8.74,0,0,1,.11-3.28c0.59-1.84,3.12-2.4,4.71-3,2.23-.85,4.5-1.61,6.75-2.44q20-7.37,39.93-14.78l12.54-4.7c1.29-.48,2.58-1,3.86-1.48,2.76-1.12,8.39-3.59,10.51-.14a4.6,4.6,0,0,1,.6,2A16.78,16.78,0,0,1,646.84,389Zm684.08,223.42h0c0,1.38-.15,2.75-0.19,4.13s-0.11,3-.17,4.45v-0.06a11.87,11.87,0,0,1-.06,1.47c-0.08,2.23-2.94,3.8-4.91,3.67a24.73,24.73,0,0,0-3.07-.35c-1.44.08-1.58,1.26-1.82,2.49-0.38,1.9-2.76,3.79-1.57,5.76,0.54,0.9,1.08,1.84-.11,2.53-1,.58-2.66.27-3.73,0.09a7.65,7.65,0,0,1-2.4-.59c-1.22-.68-0.65-2.08-0.2-3s-0.47-1.9-.75-2.92a17.23,17.23,0,0,1-.36-3.89,3.57,3.57,0,0,0-.73-2.34c-0.87-.94-2.51-1.09-3.68-1.35-1.36-.3-2.73-0.47-4.1-0.72l-24.73-4.67q-22.46-4.27-44.92-8.58c-23.75-4.55-47.47-9.22-71.23-13.69q-11.78-2.22-23.55-4.48l-28.74-5.47-8.6-1.64-5.76-1.1c-2.89-.55-5.76-1.21-8.65-1.74a25.93,25.93,0,0,0-4-.61c-1.32,0-1.65,1.06-1.86,2.19a8.67,8.67,0,0,1-.76,2.9,18.46,18.46,0,0,0-1.61,2.45c-0.88,2.28,1.12,3.77,2.82,4.79,0.69,0.41,1.71.93,1.09,1.89-0.5.79-2.07,1-2.88,1.27a15.66,15.66,0,0,1-8.24,0c-0.92-.26-2.55-0.63-3.17-1.41-0.75-1,.3-1.73,1.1-2,1.58-.64,3.84-0.88,4.28-2.89a3.17,3.17,0,0,0-.64-2.64,5.65,5.65,0,0,1-1.46-2.94c-0.26-2.14.58-5.13-1.94-6.12a14.2,14.2,0,0,0-2.6-.57c-1.37-.26-2.73-0.56-4.1-0.84q-4.46-.91-8.93-1.78-8.94-1.76-17.9-3.44-17.77-3.36-35.52-6.75L929.3,550.26,891,542.87l-9.94-2-3-.59c-1.46-.3-3.73-1.15-4.8.37a14.28,14.28,0,0,0-1.38,3.54,6.24,6.24,0,0,0-.32,1.6,7,7,0,0,0,.43,1.87c0.37,2.15-3.51,2.19-4.82,1.76a2,2,0,0,1-1.59-1.91,7.64,7.64,0,0,0,.07-2,10.68,10.68,0,0,0-.75-1.79,10.21,10.21,0,0,1-.87-3.56c-0.12-1.32-.5-2.53-1.91-2.89-1.14-.29-2.34-0.45-3.5-0.68q-1.32-.27-2.65-0.49c-1.06-.18-2.59-0.68-3.41.33a9.64,9.64,0,0,0-1.1,3,14.72,14.72,0,0,0-.64,2.2c-0.11.68,0.11,1.31,0,2-0.18,2.06-3.35,2.27-4.85,1.62a2.28,2.28,0,0,1-1.31-2.38c0.08-1.44-.48-2.29-0.91-3.63a19.62,19.62,0,0,1-.61-3.68,2.43,2.43,0,0,0-1.28-2.08,7.84,7.84,0,0,0-2.41-.66c-1.22-.21-2.44-0.49-3.66-0.72l-4.11-.77-5.11-1-16.66-3.2q-28-5.37-55.9-10.76T698.18,505.7l-25.26-4.83-8.28-1.59-1.89-.36c-1.31-.25-2.64-0.52-4-0.71-1-.15-1.93-0.24-2.49.75a11,11,0,0,0-.65,2.18A18.37,18.37,0,0,1,654,504a3.08,3.08,0,0,0-.21,3,10.38,10.38,0,0,0,2.25,2.3,0.93,0.93,0,0,1,.44,1.19,2.89,2.89,0,0,1-1.69.86,17.48,17.48,0,0,1-3.87.79,15,15,0,0,1-4-.2c-0.77-.14-2.09-0.21-2.59-0.91-1.14-1.55,3.28-2.33,4-2.88a2.49,2.49,0,0,0,1.12-2.49c-0.24-1-1.22-1.75-1.75-2.63-1.19-2-.18-4.71-1.71-6.47a4.43,4.43,0,0,0-2.62-1.24c-1.47-.34-3-0.62-4.44-0.92-6.3-1.24-12.61-2.43-18.91-3.64l-22.51-4.35-28.9-5.51-23.2-4.43c-11.81-2.28-23.59-4.65-35.41-6.9-5.31-1-10.62-2-16-2.94a43.3,43.3,0,0,0-4.48-.78c-2.37-.17-2.53,2-2.87,3.8a13.14,13.14,0,0,1-.69,3.19,3.46,3.46,0,0,1-2.88,1.79c-0.9.11-2.1,0.12-2.53-.83a3.8,3.8,0,0,1-.11-1.55,4.89,4.89,0,0,0-.59-2.1,10.57,10.57,0,0,1-1.25-3.54c-0.17-1.16-.37-2.29-1.46-2.93-1.67-1-3.89-.52-4.83-2.56a10.76,10.76,0,0,1-.63-2.65c-0.26-1.47-.49-2.94-0.64-4.42s-0.21-2.81-.23-4.21-0.2-2.69,1-3.55a13.59,13.59,0,0,1,3.26-1.44l2-.74,1.36-.51c8-3,15.91-6,23.87-8.89l12.07-4.46c2-.75,4.09-1.46,6.11-2.26,2.26-.9,4.63-2.08,7.11-2.15,2.13-.06,4.61.5,5,2.93,0.18,1.12.44,2.78-.24,3.78s-2,1.33-3.09,1.78c-2.4,1-4.87,1.92-7.32,2.84l-3.57,1.34-15.81,5.93c-1.64.61-3.27,1.25-4.91,1.84-1.17.42-2.36,0.77-3.51,1.23-0.69.28-3.18,1-3.38,1.82-0.32,1.32,2.33,1.6,3,1.72,5.54,1,11.1,1.85,16.59,3.06,2.9,0.64,31,5.88,33.76,6.43,2.92,0.59,23.13,4.31,26,4.89s22.43,4.2,25.13,4.77c5.67,1.19,11.37,2.13,17.08,3.1s11.32,2.25,17,3.28,23,4.23,25.84,4.81,31.07,5.81,33.84,6.37,48.61,9.07,50.14,9.37c3,0.57,5.9,1.19,8.86,1.77s27.74,5.12,33.33,6.19c2.83,0.54,22.43,4,25.28,4.63s22.72,4.43,25.56,5,5.66,0.94,8.49,1.44,21.73,4.13,24,4.56l12.86,2.45,23.82,4.53c3,0.45,5.94,1.08,8.9,1.65s28.41,5.62,34.3,6.6c2.94,0.6,29,5.32,34.88,6.39l34,6.31c2.91,0.55,22.5,4.18,25.26,4.68,3,0.58,5.92,1.2,8.89,1.74s28.52,5.52,34.22,6.52c2.91,0.51,28.49,5.33,34.1,6.32,2.89,0.51,28.35,5.2,34,6.31,2.89,0.56,28.07,5.21,28.07,5.21q5.93,1.14,11.87,2.23c3.5,0.74,19.92,3.64,21.19,3.9q6.55,1.3,13.11,2.55l25.86,5c5.83,1,45.52,8.46,50.82,9.52,2.77,0.53,22.64,4.17,23.93,4.43,1.6,0.32,4.52.35,5.54,1.87C1331.11,609.86,1330.92,611.32,1330.92,612.42Z"/><path d="M1039.77,242.85l0.05,0,0,0Z"/><path d="M447.07,402.92h0C446.2,402.49,448.51,403.73,447.07,402.92Z"/><path d="M447,402.87h0l-0.21-.08Z"/><path d="M447,402.87l0.16,0.06-0.13-.06h0Z"/><path d="M446.53,402.56a7.16,7.16,0,0,1,.71.39l0,0a31.66,31.66,0,0,0,4.3,1.94,3,3,0,0,0,2.08.3c0.75-.27,1.27-1.27,1.84-1.82,1.18-1.13,2.55-2.07,3.78-3.17q0.9-.8,1.75-1.64a24.13,24.13,0,0,0,1.57-2c2.07-2.51,5.32-4.08,8-5.93a9.57,9.57,0,0,0,3-2.57,3.65,3.65,0,0,0-.6-3.81c-0.88-1.13-2.12-1.06-3.4-.77A44.14,44.14,0,0,0,464.8,385c-1.8.63-3.6,1.29-5.41,1.89-2.65.88-5.29,1.82-8,2.65a22.38,22.38,0,0,0-4.23,1.59c-1.4.77-1.46,2.31-1.33,3.74a20.78,20.78,0,0,1-.2,5.42A2.26,2.26,0,0,0,446.53,402.56Z"/></svg>