<svg id="Layer_1" data-name="Layer 1" xmlns="http://www.w3.org/2000/svg" viewBox="0 0 1920 1080"><title>Cam_01_CloseCower_K_Mask_Stops</title><path d="M860.51,519.78l-55.86-10.44-54.13-10.11L699,489.62l-47.93-8.95-43.32-8.09-38.09-7.13-31.78-6-24.49-4.63q-8.25-1.57-16.5-3.17l-4.86-1a15.13,15.13,0,0,1-2.5-.53,0.86,0.86,0,0,1-.33-0.1c3.34-1.41,6.79-2.6,10.18-3.88L518.55,439l8.63-3.27,3.45-1.31a15.42,15.42,0,0,0,2.52-1,1.76,1.76,0,0,0,.39-0.15,6,6,0,0,0-.06-2c0-.7-0.06-1.4-0.1-2.11a9.12,9.12,0,0,0-.12-2.22l0-.38-0.75-.1-1.13-.16-2.26-.32a6.56,6.56,0,0,0-2-.2,21.55,21.55,0,0,0-3,1.1q-15.89,5.79-31.77,11.61-7.55,2.77-15.09,5.55L473,445.6c-0.3.11-.61,0.22-0.9,0.35-1.42.65-1.16,1.81-1.08,3.13q0.23,3.5.44,7a17,17,0,0,0,.16,2.92c0.14,0.56.32,0.21,0.6,0.57a4.62,4.62,0,0,1,.18,1.81,7.78,7.78,0,0,0,.08,1c0.12,0.57.19,0.49,0.76,0.59l3.14,0.59c0.6,0.12,2,.15,2.3.69a4.38,4.38,0,0,1,0,1.78c0,1.76.17,3.12,1.52,4.32a0.66,0.66,0,0,1,.42.44,2.39,2.39,0,0,1,0,.49c0,0.58,0,1.17.06,1.75a0.94,0.94,0,0,1-.46,1.1c-0.32.32-.28,0.24,0.08,0.38a8.82,8.82,0,0,0,2.49.24,9.75,9.75,0,0,0,1.8.08,6.4,6.4,0,0,0,2.43-.74,0.77,0.77,0,0,0,.52-0.92,0.91,0.91,0,0,0-.47-0.45,1.33,1.33,0,0,0-.51-0.12q0-.34,0-0.67a6.43,6.43,0,0,1,0-1.34c0.1-.39.54-0.84,0.69-1.24a9.76,9.76,0,0,0,.46-3.56l6.81,1.3,14.36,2.75,19.73,3.78,23.19,4.44,24.5,4.69L600,487.26l20.87,4,15.93,3,8.88,1.7a4.1,4.1,0,0,1,.89.17,1,1,0,0,1,.22,0c0.29,0.28.13,1.88,0.15,2.32,0.06,1.36.11,2.73,0.19,4.09,0,0.62-.08.93,0.56,1.1,0.32,0.08.63,0.16,1,.22l0.44,0.08c0.55,0.09.39,0,.53,0.46a9.78,9.78,0,0,1,.09,2.19,1.55,1.55,0,0,1-.22,1.35,2.89,2.89,0,0,0-.88.93,1.75,1.75,0,0,0,.26,1.65c0.4,0.45,1.24.28,1.53,0.76,0.15,0.26-.12.71,0,1a1.37,1.37,0,0,0,1.09.16c0.84,0,1.68-.11,2.53-0.11a2.3,2.3,0,0,1,.13-1.22c0.3-.36,1.29-0.3,1.54-0.74a4.06,4.06,0,0,0,0-1.67c-0.12-.35,0-0.14-0.32-0.44a4.72,4.72,0,0,1-1.24-.82,2.57,2.57,0,0,1-.05-0.86,9.5,9.5,0,0,1,0-2.3,1.21,1.21,0,0,1,0-.32,3.7,3.7,0,0,1,1.18-.58,1.5,1.5,0,0,0,1-.76,3.56,3.56,0,0,0,0-.94c0-1.27,0-2.54-.05-3.82l6.81,1.31,18.17,3.49,26.17,5L738,513.63l31.93,6.13,29.92,5.74,24.43,4.68,15.57,3,2.1,0.4,0.74,0.14c0.69,0.13.47,0.41,0.47,1.18a15,15,0,0,0,.4,4.44,1.7,1.7,0,0,0,.82,1.17,1.22,1.22,0,0,1,.57.19,4.22,4.22,0,0,1,.11,1.71c0,0.72.3,1.86-.27,2.39-0.42.38-.72,0.41,0,0.66a11.09,11.09,0,0,0,2.51.38,6.54,6.54,0,0,0,4.1-.79c0.8-.49.88-1.21,0.06-1.7a1,1,0,0,1-.67-1.72c0.21-.47.76-0.93,1-1.4a5.9,5.9,0,0,0,.55-1.27,5.13,5.13,0,0,0,.16-2,3.54,3.54,0,0,1-.2-1.07c0.13-.3.67-0.05,1,0,1.82,0.32,3.64.69,5.46,1l2.87,0.57,1.56,0.31a2.77,2.77,0,0,1,.6.12q0.49-.05.25,0.42,0,0.26-.05.52a12.13,12.13,0,0,0,.22,4.55c0.22,0.72.73,1.72,1.63,1.64l0,2.36a3.94,3.94,0,0,1,0,1.11,2.42,2.42,0,0,1-.83.76,9.62,9.62,0,0,0,5.16.78,3.63,3.63,0,0,0,2.35-1,1,1,0,0,0-.19-1.56c-0.16-.11-0.46-0.12-0.58-0.24a1,1,0,0,1-.13-0.8,2.46,2.46,0,0,1,.17-1.19c0.17-.28.5-0.49,0.69-0.78,0.89-1.35.78-3.35,0.75-4.89l10.49,2L904,545.48l26.94,5.18,30.77,5.92,31.79,6.13,29.69,5.73,24.78,4.79,17,3.28,4.63,0.9a3.81,3.81,0,0,1,1.73.44c0.6,0.61.39,2.52,0.4,3.28a28.24,28.24,0,0,0,0,4.25c0.08,0.47,0,.44.56,0.6l0.89,0.26c0.7,0.21.84,0.16,0.84,0.89s0,1.27,0,1.9a5.38,5.38,0,0,1,0,.89c-0.1.55,0,.22-0.27,0.53a8.93,8.93,0,0,0-1.13.91,1.83,1.83,0,0,0,.09,1.84,7.32,7.32,0,0,0,1.42.66c0.71,0.52.14,1.53,0.79,2s1.67,0.19,2.31.1a2.46,2.46,0,0,0,1.06-.22,1.06,1.06,0,0,0,0-.8c0.06-.7.58-0.67,1.12-0.83,0.93-.28,1-1,1-1.93,0-.74,0-1.36-0.76-1.63a1.8,1.8,0,0,1-.69-0.22,4.26,4.26,0,0,1-.13-1.81,5.9,5.9,0,0,1,0-1.52,1.81,1.81,0,0,1,1-.91c0.56-.39,1.57-0.92,1.7-1.55a14.65,14.65,0,0,0,0-2.1c0-1,.09-1.94.12-2.9l9.37,1.79,19.44,3.74,26.7,5.14,31.64,6.09,33.8,6.51,33.22,6.4,30.12,5.81,24.46,4.72,16,3.1,4.06,0.79a3.46,3.46,0,0,1,.91.18c0.64,0.37.15,2,.09,2.67-0.14,1.5-.56,5.28,2,4.91,0,0.49,0,1,0,1.46a14.21,14.21,0,0,1,0,2c-0.09.46-1.32,1.1-1.29,1.36,0.06,0.42,4.41.68,4.92,0.74s1.94,0.46,2.33.2,0.24-1.57.25-1.91a2.24,2.24,0,0,0,0-.76c-0.15-.3-0.86-0.43-1.1-0.77-0.55-.78.17-1.06,0.73-1.44a3.25,3.25,0,0,0,.89-1.35,13.14,13.14,0,0,0,1-1.88,4,4,0,0,0-.16-2.37,1.48,1.48,0,0,1-.06-0.91c0.18-.27.82,0,1.18,0l3.15,0.57a5.67,5.67,0,0,0,1.72.32,7.12,7.12,0,0,0,1.84-1.37l1.55-1.18a1,1,0,0,0,.43-1l0.14-2.6q0.18-3.33.35-6.67,0.08-1.58.16-3.15a8.45,8.45,0,0,0,.11-2.35,0.92,0.92,0,0,0-.91-0.39l-5-1-9.11-1.72-12.82-2.41-16.31-3.07-19.53-3.67-22.48-4.22-25.17-4.73-27.6-5.18-29.76-5.59-31.65-5.94-33.28-6.24-34.82-6.53-35.75-6.7-36.59-6.86-37.16-7-37.46-7-37.5-7-18.14-3.39C668,483.78,1084,561.6,860.51,519.78Z"/><path d="M681.41,378q13-5,26.09-9.89l32.2-12.19,5-1.91a13.43,13.43,0,0,0,2.74-1,1.23,1.23,0,0,0,.25-0.09,4.07,4.07,0,0,0,0-1.26q0-1,0-1.93a11.11,11.11,0,0,0,0-2.51c-0.11-.39.18-0.11-0.28-0.32a2.53,2.53,0,0,0-.53-0.07l-1.47-.21a28.77,28.77,0,0,0-2.88-.35,5.83,5.83,0,0,0-2.11.6l-4,1.47q-19.56,7.22-39.14,14.4L682,368.27l-4,1.48a2.74,2.74,0,0,0-.85.31,5.14,5.14,0,0,0,0,2c0,1.1.07,2.19,0.11,3.29q0,0.69.05,1.37c0,0.68.45,0.58,1.06,0.7,1,0.21,2.06.38,3.09,0.55C691.42,374.14,680,377.73,681.41,378Z"/><path d="M572.38,419.14l32.69-12.43,35.84-13.62,4.67-1.77a12.19,12.19,0,0,0,1.32-.5,1.46,1.46,0,0,0,.33-0.12c0.32-.33,0-1.81,0-2.31,0-1-.11-2-0.16-3.05a3.51,3.51,0,0,0,0-1.09,4.27,4.27,0,0,0-1.78-.36c-1.24-.18-2.93-0.74-4.15-0.53a10.8,10.8,0,0,0-1.77.65l-8.43,3.13q-21.05,7.83-42.09,15.69l-16.11,6-4.26,1.59a3,3,0,0,0-.91.34,4.87,4.87,0,0,0,0,1.81q0.07,1.83.14,3.67,0,0.65.05,1.3a2.27,2.27,0,0,0,0,.67,3.64,3.64,0,0,0,1,.23c1.18,0.25,2.37.48,3.56,0.7C586.85,413.63,571,418.88,572.38,419.14Z"/><path d="M767.26,341.82c2.51,0.31,5,.8,7.5,1.12a2.94,2.94,0,0,0,1.76-.3l4-1.55,13.86-5.3,33.88-13,10.45-4a8.9,8.9,0,0,0,1.1-.42c0.6-.33.41-0.3,0.41-1.27,0-1.17,0-2.33,0-3.5a3.89,3.89,0,0,0,0-.93c-0.13-.42.22-0.15-0.33-0.37a10.9,10.9,0,0,0-2.39-.33,8.52,8.52,0,0,0-3.06-.23c-0.66.18-1.31,0.49-2,.72q-20.76,7.7-41.52,15.36-7.85,2.91-15.7,5.83c-1.11.42-2.23,0.82-3.33,1.26a1.84,1.84,0,0,0-1.47,1.43,8.32,8.32,0,0,1,.09,1.44,2.1,2.1,0,0,1-.58.16,11.57,11.57,0,0,0-2.43.92c-1.12.64-2.12,2.46-.28,2.89C770.37,342.21,765.34,341.38,767.26,341.82Z"/><path d="M864.74,309.5l20.57-7.91,29.06-11.18,1.79-.69a3.89,3.89,0,0,0,1.07-.41c0.36-.34.18-1.29,0.18-1.81s0-1.25,0-1.88c0-.38,0-0.76,0-1.15s0-.51,0-0.76l-0.39,0a7.7,7.7,0,0,0-2-.17l-1.51-.1a7.85,7.85,0,0,0-1.62-.09,12.48,12.48,0,0,0-2.11.78l-4.84,1.79q-15.5,5.73-31,11.48c-3.86,1.43-7.72,2.86-11.57,4.32a6.36,6.36,0,0,0-2.07.8,3.47,3.47,0,0,0,0,1.21c0,0.74,0,1.47,0,2.21s0,1.37,0,2.06-0.1.73,0.52,0.84C862.12,309,863.43,309.26,864.74,309.5Z"/><path d="M941.79,280.26c7-2.62,14-5.27,21-7.91q12.52-4.73,25-9.48l1.37-.52a1.67,1.67,0,0,0,.45-0.17c0.35-.32.17-1.45,0.17-2a17.41,17.41,0,0,0,0-3.07c-0.09-.47-0.12-0.36-0.6-0.4l-1.27-.11a15.25,15.25,0,0,0-3.13-.29,13,13,0,0,0-2.37.87l-4.44,1.64-26.91,10-10.63,3.95a11.08,11.08,0,0,0-2.49.93,1.53,1.53,0,0,0-.28,1.39,25.42,25.42,0,0,0,0,4,1.48,1.48,0,0,0,0,.48,6.51,6.51,0,0,0,1.7.32c0.81,0.15,1.61.29,2.43,0.39C945.73,278.78,940.7,280.13,941.79,280.26Z"/><path d="M1041.7,242.66v-2.94a6,6,0,0,0,0-2,3.19,3.19,0,0,0-1.37-.21c-0.67-.07-1.34-0.16-2-0.24a3.87,3.87,0,0,0-2.29.19l-2.33.85q-7.88,2.88-15.74,5.81-3.61,1.34-7.2,2.71l-2.4.93a1.33,1.33,0,0,0-.64.33,4.11,4.11,0,0,0,0,1.3,22.63,22.63,0,0,0,0,3.57c0.1,0.57,0,.43.72,0.56a21.08,21.08,0,0,0,3.38.51,9.93,9.93,0,0,0,3.1-1.06l4.14-1.6q11.31-4.36,22.64-8.67C1041.7,240.64,1033.18,245.89,1041.7,242.66Z"/></svg>