<svg id="Layer_1" data-name="Layer 1" xmlns="http://www.w3.org/2000/svg" viewBox="0 0 1920 1080"><title>Cam_01_OpenCower_K_Mask_Aspiration_system-01</title><path d="M471.57,390h0Z"/><path d="M424.28,328.6l-0.52-8.15c0-.77-0.1-0.69-0.93-1.06a26.86,26.86,0,0,0-4.46-1.54,50.75,50.75,0,0,0-9.39-1.37c0.08,2.2.25,4.39,0.42,6.58,0.05,0.69-.17,2.48.38,2.91s2.27,0.32,3,.43a28.71,28.71,0,0,1,6.08,1.59,10.18,10.18,0,0,1,1.18.53,0.93,0.93,0,0,0,.61.22,3.81,3.81,0,0,0,.57-0.1A16.63,16.63,0,0,1,424.28,328.6Z"/><path d="M481.31,379.44c0.37,0.75.72,1.51,1,2.28C486.67,389.51,480,375.38,481.31,379.44Z"/><path d="M482.16,381.71a34.84,34.84,0,0,0-2.06-4.55c-0.91-1.61-1.91-3.17-3-4.7-2.21-3.25-4.54-6.42-6.9-9.55s-4.82-6.25-7.3-9.32c-1-1.24-2.17-2.42-3.05-3.76l0.27,3.11,0.2,2.37a5,5,0,0,1,.13,1.56c-0.18.51-1.82,0.74-2.37,0.91l-3.34,1a8.74,8.74,0,0,1,1.73,1.95q1,1.24,2,2.5c2.46,3.08,4.84,6.23,7.08,9.47s4.34,6.59,6.29,10c0.5,0.88,1,1.78,1.48,2.67a5.45,5.45,0,0,1,.92,1.86c0.14,1.22-1.89,2.06-2.77,2.66,0.19-.13,2.45-1.67,2.45-1.66s-5.59,4-6.14,4.42a53,53,0,0,0-6.16,5.38q-0.74.77-1.44,1.58a4.3,4.3,0,0,1-1.13,1.31,1.58,1.58,0,0,1-.61-0.19,0.77,0.77,0,0,0-.23-0.18,1.84,1.84,0,0,0-.63.64c-1.77,2.07-3.29,4.44-5.15,6.42-2.59,2.74-7.26,3.14-10.78,3.27a49.93,49.93,0,0,1-7.47-.3q-1.87-.21-3.72-0.54c-0.72-.13-1-0.37-1.53,0a27.67,27.67,0,0,0-2.57,2.72l-2.55,2.69c-0.61.64-1.24,1.27-1.85,1.9-0.89.93-.22,2.92-0.12,4.11l0.37,4.67c0.24,3,.3,6,0.74,9,0.36,2.47,4,3.16,6,3.54a65.09,65.09,0,0,0,17.44.75,51.85,51.85,0,0,0,9.72-1.68c2.55-.72,5.63-1.82,7.41-3.9a2.49,2.49,0,0,0,.28-2.18c-0.09-.79-0.12-1.59-0.17-2.38-0.13-1.72-.26-3.43-0.37-5.15s-0.22-3.43-.32-5.14c-0.09-1.39.22-3.48-1.32-4.18l0.27-.27-0.8-.59,5.55-6.67c-0.93-.57,1.3-2.4,1.79-2.89a37,37,0,0,1,3.17-2.78c2.44-1.92,5.12-3.5,7.56-5.4a12.22,12.22,0,0,0,4.48-6.35,11.7,11.7,0,0,0-1.58-8.26C481.74,380.65,483.68,384.46,482.16,381.71Z"/><path d="M354.88,307.43a9.3,9.3,0,0,1-.1,1.34c0,0.62-.16.76,0.28,1.12a7.54,7.54,0,0,0,2.06,1.24c0.77,0.23,1.24-.56,1.8-1l-2-1.21a6.4,6.4,0,0,1-2.08-1.44C354.86,307.24,355,307.74,354.88,307.43Z"/><path d="M355.13,299.42q-0.07,1.81-.13,3.63c0,0.68-.09,1.38-0.07,2.06,0,0.47,0,.31.27,0.59,1,0.84,2.25,1.41,3.3,2.18a6.68,6.68,0,0,0,1.18.79c0.55,0.24.67,0,1-.54s0.78-1.31,1.2-2l2-3.14L356,298Z"/><path d="M368,290.18c-3.1-.67-5.94.71-8.11,2.87,1.3,1.11,2.66,2.17,3.93,3.32a18.07,18.07,0,0,1,4.93,7.8,27.12,27.12,0,0,1,3.3-6.49c-0.88,0-3-.26-3.43-1.18a7.24,7.24,0,0,1-.19-2Z"/></svg>