<svg id="Layer_1" data-name="Layer 1" xmlns="http://www.w3.org/2000/svg" viewBox="0 0 1920 1080"><defs><style>.cls-1{fill:#1d1d1b;}</style></defs><title>Cam_01_OpenCower_K_Mask_Motors</title><path class="cls-1" d="M341.8,637.7a1.83,1.83,0,0,1,.82-1.73,6.65,6.65,0,0,0,1.34-.62c0.4-.44.11-1.55,0.07-2.09-0.13-1.7-.3-3.4-0.47-5.11l-0.17-1.74a7,7,0,0,0-.17-1.71,2.72,2.72,0,0,0-.42-0.5,4.76,4.76,0,0,1-.13-1.35q-1-10.23-2-20.47-0.9-9.52-1.78-19l-0.56-6c0-.44,0-1.62-0.27-1.89a2.76,2.76,0,0,0-.84-0.19l-1.5-.34-4-.91-5.52-1.24q0.44,6.59.9,13.18c0.48,7,1,14.09,1.48,21.13a36.37,36.37,0,0,0,.4,5.07,1.56,1.56,0,0,0,1,1.09c0.52,0.25,2.08.58,1.83,1.46-0.19.68-1.31,0.68-1.49,1.47s0.55,1.34.91,1.95a14.9,14.9,0,0,1,1.43,4.48c0.44,2,.75,4.11,1,6.19,0.23,1.82.42,3.65,0.55,5.48,0.08,1.17.4,2.82-.6,3.69a7,7,0,0,1-3.64,1.11c-1.22.13-3.53,0.35-4.45-.64s-0.87-3-.94-4.39c-0.09-1.82-.14-3.63-0.25-5.45-0.18-3-1-5.92-.06-8.81a7.25,7.25,0,0,0,.63-2.36c0-1.05-.45-1-1.22-1.42a1.06,1.06,0,0,1-.19-1.79c0.57-.41,1.63-0.23,2-0.91a3.9,3.9,0,0,0,0-1.78q0-1.07-.11-2.15c-0.21-3.83-.47-7.66-0.74-11.48-0.54-7.66-1.08-15.33-1.83-23a18.3,18.3,0,0,0-.29-2.57c-0.12-.48-0.15-0.42-0.65-0.53-2-.43-3.94-0.89-5.91-1.34L294.4,565.6c-6-1.38-12.09-2.77-18.14-4.13l-1.65-.37c0.12,1,.25,2,0.36,3a7.55,7.55,0,0,1,.14,2.36c-0.08.34-.34,0.6-0.45,0.94a3.7,3.7,0,0,0,.05,1.54,21.64,21.64,0,0,0,.35,2.66,0.68,0.68,0,0,0,.72.6c0.41,0.11.84,0.16,1.26,0.24a2.3,2.3,0,0,1,1.26.36,2.05,2.05,0,0,1,.09.69c0.37,3.17.69,6.36,1,9.53q1.74,16.83,3.43,33.66,0.64,6.34,1.27,12.69c0.09,1,.26,1.94.28,2.9a1.65,1.65,0,0,1,0,.55c0,0.09-.23,0-0.25.14a1.86,1.86,0,0,0,0,.49c0.07,0.73.15,1.46,0.22,2.19,0.17,1.72.32,3.43,0.46,5.15q0.13,1.49.26,3a15.15,15.15,0,0,0,.31,3,4.59,4.59,0,0,0,.64.84,7.13,7.13,0,0,1,.17,2c0.07,0.79-.08,2.61.66,3a11.37,11.37,0,0,0,2.58.69c6.5,1.67,13,3.19,19.51,4.91a38.79,38.79,0,0,0,5.25,1.23,20.9,20.9,0,0,0,5.18-.22,50.32,50.32,0,0,0,13.09-3.63,50.92,50.92,0,0,0,11.33-6.36,4.6,4.6,0,0,0,.93-0.75,1.15,1.15,0,0,0,.11-0.88c-0.07-1-.09-2-0.12-3s-0.05-1.77-.09-2.66c0-.56.11-1.81-0.32-2.17a5.88,5.88,0,0,0-1.53-.38,1.8,1.8,0,0,1-1-1.8C341.7,635.6,341.9,640.2,341.8,637.7Z"/><path class="cls-1" d="M300.7,292.2c0,0.91.06,1.82,0.1,2.72a1.4,1.4,0,0,0,.9,1.58c0.95,0.26,2.34-.55,3.1.1a1.63,1.63,0,0,0,.3.5,5.13,5.13,0,0,0,1.53.21l2.56,0.36,5.43,0.82c2.95,0.45,6,1.14,9,.94,0.54,0,2.77,0,3-.74,0.18-.53-0.51-0.48.21-0.79a10.57,10.57,0,0,1,2.7-.2c-1.29-13.71-2.44-27.43-3.56-41.15q-0.35-4.36-.69-8.73c-0.07-1-.14-1.9-0.2-2.86a3.89,3.89,0,0,0-.05-0.9,5.9,5.9,0,0,0-1.36-1.39c-0.58-.59-1.16-1.18-1.73-1.77s-1.71-2.24-2.74-2.32a1.51,1.51,0,0,1-1-.08c-0.36-.34.06-1-0.21-1.36s-1.43-.33-1.91-0.38c-0.92-.1-1.87-0.15-2.78-0.34-0.49-.1-0.38,0-0.52-0.45a8.69,8.69,0,0,1-.08-2.15,8.91,8.91,0,0,1-.09-2.32,4.62,4.62,0,0,1,1.48-.19,8.09,8.09,0,0,0,1.65-.39,0.67,0.67,0,0,0,.58-0.85c0-.69.13-0.39,0.66-0.76s0.31-.93.26-1.56a14.91,14.91,0,0,0-.31-3.27c-0.13-.4-0.22-0.35-0.68-0.48a11.78,11.78,0,0,0-1.32-.3,15.21,15.21,0,0,0-1.58-.16,8.24,8.24,0,0,1-2.8-.32c-1-.43-0.59-1.36-1.25-1.91a3,3,0,0,0-.46-0.19q-0.31.09-.29-0.23t-0.08-.49a16.11,16.11,0,0,1-.08-2.15,4,4,0,0,1,.11-1.7,2.91,2.91,0,0,1,1.09-.29c1.93-.42,4.22-0.47,6-1.36a44.61,44.61,0,0,0-16.23,3,23.23,23.23,0,0,0-3.58,1.78c-0.46.29-.39,0.36-0.35,0.88,0.33,4.5.77,9,1.18,13.5q1,11.55,2.11,23.1,1,11.25,2.07,22.5c0.36,3.88.94,7.81,1.09,11.7,0,0.78-.5.65-1.19,0.85C300.7,293.3,301.4,292,300.7,292.2Z"/><path class="cls-1" d="M404.5,356.6c0.17,1.44-1.56,1.91-2.68,1.6s-0.18-1.81-1.32-2.16c-0.58-.18-1.16.16-1.27-0.8a4.57,4.57,0,0,0,.12-1,0.65,0.65,0,0,0-1-.22,1.35,1.35,0,0,1-1.17.42c-0.59-.08-1.18-0.19-1.77-0.28a46,46,0,0,1-4.79-.81,1.87,1.87,0,0,1-.74-0.22,5.48,5.48,0,0,1-.16-1.57q-0.15-1.49-.28-3t-0.25-2.86a5.1,5.1,0,0,1-.12-1.39c0.18-.27,1.12-0.13,1.3-0.4a2.53,2.53,0,0,0-.08-0.92c-0.06-.58-0.13-1.16-0.2-1.73-0.15-1.29-.31-2.58-0.44-3.87-0.07-.74-0.37-1.55.37-1.94a7.17,7.17,0,0,1,1.73-.55,4,4,0,0,1,1-.18,2.65,2.65,0,0,1,1,.47c1.52,0.74,3.3.17,4.82-.25,3.54-1,7-2.14,10.54-3.27,0.53-.17.7-0.1,0.8-0.57a5.91,5.91,0,0,0-.09-1.38q-0.1-1.5-.21-3-0.21-3-.43-6-0.83-11.43-1.74-22.86a55.32,55.32,0,0,0-21.15,12.55c-1.55,1.51-3,3-3,5.33,0,0.94.15,1.89,0.23,2.83q0.32,3.83.63,7.66,0.82,10,1.61,20,0.3,3.83.58,7.65a28.87,28.87,0,0,0,.49,5c0.55,2.15,2.36,2.82,4.37,3.06,1.15,0.14,2.32.16,3.45,0.38a1.73,1.73,0,0,1,1.23.5c0.2,0.37-.22.82,0.35,1.05a2.22,2.22,0,0,0,1-.13c0.8-.17,1.59-0.38,2.38-0.59,1.8-.49,3.6-1,5.37-1.63a0.93,0.93,0,0,0,.87-0.69,4.26,4.26,0,0,0,0-1.64,10.29,10.29,0,0,0-.32-2.06c-0.2-.6-0.52-0.47-1.16-0.58C404.7,358.3,405.1,356.7,404.5,356.6Z"/><path class="cls-1" d="M383.9,306c4-4.53,9.67-7.49,15.1-9.91,2.05-.92,4.14-1.74,6.24-2.55a7.6,7.6,0,0,0,1.65-.65,1.15,1.15,0,0,0,.29-0.15,2.76,2.76,0,0,0,0-.82L407,290c-0.32-4.31-.63-8.62-1-12.92q-0.13-1.53-.27-3.07a9.28,9.28,0,0,0-.48-3,8.43,8.43,0,0,1-.25-3,3.28,3.28,0,0,0-.18-1.49c-0.21-.24-0.06-0.11-0.39-0.06s-0.9.37-1.38,0.45c-0.66.1-1.25,0.17-1.38-.56s-0.12-1.23-.18-1.83c-0.14-1.38-.45-2.13-1.93-2.19-1.13,0-2.28,0-3.42,0a46.27,46.27,0,0,0-11.39,1.08,4.92,4.92,0,0,0-2.35.92,2.59,2.59,0,0,0-.44,1.87,4.1,4.1,0,0,1,0,1.79c-0.4.54-2.13-.06-2.62-0.24,0,0.9,0,1.79.1,2.69,0,0.43.05,0.85,0.07,1.28q0,0.32,0,.63c0,0.49-.1.56,0.35,0.8s1.33,0.13,1.57.51a4.13,4.13,0,0,1,.14,1.35c0.25,2.71.46,5.42,0.68,8.14q0.15,1.84.29,3.67a3.24,3.24,0,0,1,.09,1c-0.12.15-.82,0.16-1,0.31a0.72,0.72,0,0,0-.28.84c0,3.27.31,6.54,0.6,9.79q0.24,2.75.53,5.5c0,0.43,0,2,.31,2.29s0.75-.28,1.06-0.53C391.1,297.8,383.4,306.4,383.9,306Z"/><path class="cls-1" d="M318.9,540.1c-5.49-1.4-11-2.59-16.57-3.8a9.84,9.84,0,0,1-1.58-.35c-0.57-.24-0.37-0.77-0.86-1.12a3.56,3.56,0,0,0-2.53-.48c-0.62.21-.83,0.82-1.55,0.9a2.1,2.1,0,0,1-2.31-1.44,1.47,1.47,0,0,0-1.36-.74l-2.57-.54c-1.82-.36-3.65-0.7-5.47-1,0.19,3.6.56,7.19,0.88,10.78,0.07,0.76.38,1.36-.34,1.77a20.8,20.8,0,0,1-2.78,1.16c-2.42.92-4.88,1.76-7.3,2.67-0.54.2-1.73,0.41-1.33,1.27,0.23,0.5,1.14.53,1.61,0.64q16,3.57,32,7.19c4.84,1.1,9.69,2.17,14.51,3.34-0.57-6.75-1.61-13.47-2.4-20.2C313.4,538.7,319.5,545.2,318.9,540.1Z"/><path class="cls-1" d="M337.9,543.1a4,4,0,0,0-2,.49,4.13,4.13,0,0,1-2.15-.25l-5.71-1.24c-1.57-.34-3.14-0.69-4.72-1a2.31,2.31,0,0,0-.94-0.13,10.13,10.13,0,0,0,.28,2.55c0.54,4.5,1.15,9,1.7,13.49q0.18,1.44.35,2.87a4.24,4.24,0,0,0,.14,1.21,1.54,1.54,0,0,0,1,.47c1.77,0.48,3.55.89,5.34,1.29q3.07,0.69,6.15,1.32a16.58,16.58,0,0,0,3.09.61c-0.06-.74-0.14-1.47-0.21-2.21l-0.06-.64a0.3,0.3,0,0,0-.28-0.45,1.24,1.24,0,0,1-.46-0.41,8.17,8.17,0,0,1-.14-2.14c-0.15-2.05-.31-4.1-0.48-6.15s-0.36-4.16-.56-6.24a27.39,27.39,0,0,0-.41-3.46C336,543,338.2,544.4,337.9,543.1Z"/><path class="cls-1" d="M320.4,229.7c2.05-.13,3.94-1.29,6-1.51,0.61-.06.74-0.1,0.91,0.48,0.11,0.37.21,0.73,0.34,1.1a3.53,3.53,0,0,0,.26.83,1.62,1.62,0,0,0,.36.08,5.43,5.43,0,0,0,1,.21,27.16,27.16,0,0,0,5.71.57,26.6,26.6,0,0,0,4-.36,18.35,18.35,0,0,0,4.69-1.16,0.73,0.73,0,0,0,.52-0.82,6.79,6.79,0,0,0,.05-0.83c0-.32.05-0.37-0.13-0.51a2.59,2.59,0,0,0-.88-0.16c-1.21-.19-2.43-0.35-3.65-0.52-3.68-.49-7.36-0.95-11.05-1.38-3.09-.37-6.19-0.81-9.29-1,0,0.92-.43,5,1.2,5S319.2,229.7,320.4,229.7Z"/><path class="cls-1" d="M380.3,246.1c0.06,0.93.12,1.87,0.2,2.8,0.53-.13.79,0,0.9-0.52a6,6,0,0,0,0-1.18c1.52,0.25,3.06.44,4.59,0.67,0.83,0.12,1.66.24,2.48,0.39a1,1,0,0,1,1,1.08,15.83,15.83,0,0,1,.1,1.59,3.5,3.5,0,0,1,0,1.32c-0.23.29-1.31,0.08-1.6,0.06-1.84-.15-3.66-0.48-5.49-0.74a1.07,1.07,0,0,1-.7-0.21c-0.28-.31.11-0.51-0.44-0.6a0.71,0.71,0,0,0-.52.18,3.52,3.52,0,0,0,0,1.21c0,0.55.06,1.11,0.09,1.66a3,3,0,0,0,.06,1c0.2,0.3.68,0.08,1.09,0.21s0.27,0,.36.45a6.32,6.32,0,0,1,.06,1c0,0.93.09,1.87,0.17,2.8A3.26,3.26,0,0,0,383,261a5,5,0,0,0,1.47-.33c0.71-.15,1.42-0.27,2.14-0.37,1.42-.2,2.86-0.32,4.29-0.41s3.15-.14,4.73-0.16c1.11,0,2.71.28,3.76-.13s0.79-1.48.68-2.31-0.22-1.36-.28-2.05a1.21,1.21,0,0,1,.12-1A2.62,2.62,0,0,1,401,254c-0.62-6.09-1.32-12.19-1.83-18.29-0.26-3.15-.49-6.3-0.71-9.45a11,11,0,0,0-.14-2,1.41,1.41,0,0,0,0-.35,3.57,3.57,0,0,0-.76-0.12l-1.77-.25c-1.57-.21-3.14-0.38-4.71-0.57a12,12,0,0,0-3.19-.29c-1,.17-2,0.51-3,0.76l-4.13,1.07a5.8,5.8,0,0,0-1.8.49,1.23,1.23,0,0,0,0,.31,20.56,20.56,0,0,0,.34,3.88q0.28,3.19.55,6.39l0.59,6.91,0.2,2.36C380.65,245.34,380.91,246,380.3,246.1Zm-0.6-15.8c0-2.86,4.8-2.86,4.8,0S379.7,233.16,379.7,230.3Z"/></svg>