<svg id="Layer_1" data-name="Layer 1" xmlns="http://www.w3.org/2000/svg" viewBox="0 0 1920 1080"><title>Cam_01_OpenCower_K_Mask_Spraying_system</title><path d="M318.3,209.21c0.37,3.08,3.17,3.25,5.59,3.56l10.76,1.41a9.91,9.91,0,0,0,2,.22,31.09,31.09,0,0,0,4-.88l5.36-1.19a3.7,3.7,0,0,0,1.2-.26,5.27,5.27,0,0,0,.46-1.47,11,11,0,0,1,.77-1.68c0.31-.55,1-1.1,1.25-1.65a0.88,0.88,0,0,0,.07-0.46,16.85,16.85,0,0,0-.16-1.91q-0.33-3.86-.68-7.73-1-11.51-2-23l-1.63-18.45a5.86,5.86,0,0,0-.59-3c-1.08-1.49-3.19-1.5-4.85-1.7l-6.19-.72c-3.32-.38-6.35-0.84-9.69-0.24q-3.75.67-7.48,1.45c-1.4.29-2.7,0.5-3,2.17a21.72,21.72,0,0,0,.31,4.9q0.36,4.24.74,8.47,1,11.84,2.1,23.68c0.52,5.76,1,11.52,1.58,17.27,0,0.4.07,0.8,0.12,1.19C318.7,212.46,318.07,207.61,318.3,209.21Z"/><path d="M356.84,200a4.18,4.18,0,0,0,1.32,2.88c0.41,0.36.31,0.3,0.67,0.12,0.64-.33,1.17-0.82,1.86-1.11a8.3,8.3,0,0,1,3.53-.64c1.65,0.06,3.39.44,5,.64l6.07,0.77c2.49,0.32,5,.78,7.52.9a4.9,4.9,0,0,0,2.51-.2,1.94,1.94,0,0,0,.46-1.31,7.62,7.62,0,0,1,.87-1.89,4,4,0,0,0,1-1.7,37.28,37.28,0,0,0-.4-5l-0.75-9.36q-0.92-11.5-1.85-23c-0.39-4.81-.69-9.64-1.2-14.45-0.3-2.81-2.53-3.1-4.8-3.34-3.68-.4-7.36-0.8-11-1.18-2.91-.3-5.64.43-8.48,1l-4.64.91a2.22,2.22,0,0,0-2,1.61c-0.4,1.46.07,3.45,0.18,4.92q0.35,4.28.71,8.56,1,11.58,1.94,23.16c0.46,5.53.94,11.06,1.38,16.59,0,0.36.06,0.72,0.08,1.08C357,202.34,356.78,198.66,356.84,200Z"/><path d="M346.93,228.37l-2.76-.41c0,0.6.18,1.54-.27,2a3.52,3.52,0,0,1-1.29.52,28.46,28.46,0,0,1-5.33,1,24.78,24.78,0,0,1-6.24,0,9.66,9.66,0,0,1-2.58-.7,1,1,0,0,1-.79-0.83,12,12,0,0,1-.08-1.25l-1.43.44a7.5,7.5,0,0,0-1.79.55,1.83,1.83,0,0,0-.47,1.85,3.55,3.55,0,0,0,.1,1.14,1.06,1.06,0,0,0,.69.17c0.2,0.07.19,0.2,0.36,0.25a4,4,0,0,0,1,0,2.69,2.69,0,0,1,.86,0,1.84,1.84,0,0,1,.33.48,3.75,3.75,0,0,0,1.26,0l2.24,0.09a2.41,2.41,0,0,1,.75,0c0.3,0.16,0-.15.17,0.31v0.32q-0.15.57,0.41,0.37a4.51,4.51,0,0,0,1.14,0l2.45-.06c2.14-.08,4.28-0.21,6.41-0.49a16.85,16.85,0,0,0,5.68-1.4,1.5,1.5,0,0,0,.57-0.38,5.74,5.74,0,0,0,0-2.3A1.74,1.74,0,0,0,346.93,228.37Z"/><path d="M482.25,381.74c-2.22-5.37-5.86-10.26-9.25-14.94s-6.9-9.17-10.51-13.63l-1.61-2a5.51,5.51,0,0,1-.76-0.92,2.88,2.88,0,0,1-.13-1q-0.16-2-.31-4c-0.11-1.43-.21-2.87-0.29-4.31a9.05,9.05,0,0,0-.67-3.86A6.06,6.06,0,0,0,456,334.6c-0.35-.17-1.37-0.3-1-0.79s1.13-.35,1.45-0.72a0.76,0.76,0,0,0,.14-0.75l-0.11-1.76a3.41,3.41,0,0,0-.07-1.09,5.58,5.58,0,0,0-1.75-.62l-3.7-1.32-3.2-1.14a1.76,1.76,0,0,1-1-.46,2.82,2.82,0,0,1-.07-0.89l-0.14-1.69-0.32-3.86L446,316.39a1.85,1.85,0,0,0,0-.51,1.4,1.4,0,0,0-.21-0.18c-0.41-.48-0.86-0.55-1-1.22-0.18-1.12-.07-2.35-0.17-3.5s-0.21-2-.38-3a29.44,29.44,0,0,0-1.13-4.58,18.31,18.31,0,0,0-1.09-2.61,5.64,5.64,0,0,1-.44-0.77,9.89,9.89,0,0,1-.15-2.08l-0.28-3.81-0.24-3.23c-0.07-.91-0.22-0.72-1.17-0.88a3.08,3.08,0,0,0-1.12-.17c-0.23.18,0,.88-0.26,1a4.58,4.58,0,0,1-1.59,0,0.92,0.92,0,0,1-.92-0.19c-0.18-.28.07-1-0.16-1.23a2.78,2.78,0,0,0-.94-0.15l-3.65-.57a8.06,8.06,0,0,0-2-.28,18.26,18.26,0,0,0-3.16,1,3.43,3.43,0,0,0-1.16.38,2.53,2.53,0,0,0,0,1c-5.52-.74-11.48.25-16.75,1.87,3.15-5,6-10.41,7.13-16.25a37.87,37.87,0,0,0,.29-6.69,80.77,80.77,0,0,0,10,.5,29,29,0,0,1,3.92.08c0.52,0.09.23,0.08,0.68,0.53a0.94,0.94,0,0,0,.61.25c0.45,0.17.18,0.07,0.28,0.62a2.83,2.83,0,0,0,1.09,1.28l1.52,1.43a1,1,0,0,0-.29,1,2.23,2.23,0,0,0,.45.55,7,7,0,0,1,.07,2.1,1.8,1.8,0,0,0,.36,1.46,0.72,0.72,0,0,1,.32.58,1.51,1.51,0,0,1-.16.94,1.31,1.31,0,0,0-.12.94c0.11,0.45.22,0.4,0.71,0.51a10.06,10.06,0,0,0,1.18.18,4,4,0,0,0,2.28-.31,1,1,0,0,0,.49-0.45,2.46,2.46,0,0,0,0-1c-0.09-.17-0.33-0.18-0.43-0.34-0.49-.82.38-1.06,0.55-1.64a1,1,0,0,0-.37-0.88,2.61,2.61,0,0,1,0-.76,4.36,4.36,0,0,1,0-1.14,1.56,1.56,0,0,1,.29-0.4c0.42-.77-0.32-1.13-0.28-1.67a7,7,0,0,1,1-1.89,9.92,9.92,0,0,0,.91-1.66,3.21,3.21,0,0,0,0-.86,0.71,0.71,0,0,1,.37-0.74,2.29,2.29,0,0,0,.57-0.73,6.16,6.16,0,0,0,0-1.44,4.64,4.64,0,0,1,.87-1.15l1.66-2.2c0.57-.76,1.13-1.52,1.69-2.28a4.54,4.54,0,0,0,1.08-1.79,1.68,1.68,0,0,0-1.61-1.76,1.47,1.47,0,0,0-1.08,1q-0.65,1.07-1.37,2.09a21.44,21.44,0,0,1-3.8,4.37,2,2,0,0,1-1.08.34c-0.38.11-.25,0.08-0.44,0.48a2.14,2.14,0,0,1-.32.48,3.24,3.24,0,0,1-1.11.78,4.88,4.88,0,0,1-2.11.54,4,4,0,0,1-1.08-.54c-0.48-.19-1.17,0-1.57-0.18a5.3,5.3,0,0,1-.77-0.81,10.59,10.59,0,0,0-1.8-1.29,22.8,22.8,0,0,0-4.84-2c-6.1-1.86-12.58-2.44-18.93-2.72h-0.39l5.22-.19a6.33,6.33,0,0,0,1.59-.18c1.47-.43.26-1.3-0.62-1.56,0.4,0.73-.62,1-1.15,1.11a4.39,4.39,0,0,1-1.73,0,2,2,0,0,1,.42-1.56c0.35-.21,1.34.23,1.61-0.13a2.63,2.63,0,0,0-.92-0.41,18.41,18.41,0,0,1,2.88-.83,3.19,3.19,0,0,0,1.55-.54,5.64,5.64,0,0,0-.15-1.87l-0.26-3.28-0.56-6.9a4.92,4.92,0,0,0-.13-1.65,4.22,4.22,0,0,0-1.72-.3,17.65,17.65,0,0,1-3.31-.46c-0.46-.16-0.12.06-0.36-0.42s0-.33-0.48-0.42c-1.09-.2-2.22-0.26-3.32-0.38a4.6,4.6,0,0,0-1.94,0,4.22,4.22,0,0,0-1.33.36,2,2,0,0,0,0,.75c0.09,1.12.12,2.26,0.28,3.38,0.07,0.51.35,0.52,0.44,1,0.17,1,.15,2,0.22,3l0.29,3.92a4.33,4.33,0,0,1,.09,1.24c-0.09.31,0,.21-0.51,0.29s-0.56,0-.69.36a5.7,5.7,0,0,0,.07,1.71c0.05,1.25.06,2.52,0.19,3.76a61.92,61.92,0,0,0-12.45.11,15.82,15.82,0,0,0-6.45,2,10,10,0,0,0-3,3.2,4.6,4.6,0,0,1-.53.89c-0.24,0-.15-0.69-0.33-0.81-0.38-.26-1.23.17-1.63,0a0.77,0.77,0,0,1-.21-0.73l-0.17-2a2.89,2.89,0,0,1-.08-1,2.46,2.46,0,0,1,.8-0.22l1.7-.47,3.67-1c0.87-.24.75-0.21,0.7-1.14l-0.09-2a4.87,4.87,0,0,0-.07-1.46,7.63,7.63,0,0,0-.7-0.4,4.11,4.11,0,0,1-.11-1.34c-0.07-.82.08-2.07-0.41-2.72a1.24,1.24,0,0,0-1-.58,4,4,0,0,1-1.33-.09,4.07,4.07,0,0,1-.25-1.34,10.33,10.33,0,0,0-.33-1.8,1.6,1.6,0,0,0-.06-0.31,1.52,1.52,0,0,1-.67-0.51c-0.1-.5.3-0.3,0.49-0.57a2.34,2.34,0,0,0,0-1.48,0.68,0.68,0,0,0-.39-0.69,5.38,5.38,0,0,0-1.88-.26,14.24,14.24,0,0,0-3.1.09,11.12,11.12,0,0,0-1.66.36c-0.71.21-.84,0.24-0.82,0.95a3.84,3.84,0,0,0,.07,1.11c0.15,0.36,0,.07.27,0.33s0.49,0.21.29,0.68c-0.09.21-.41,0.27-0.48,0.44a4.33,4.33,0,0,0,.07,1.4,14.76,14.76,0,0,1,.08,1.78c-0.08,1-1.15.58-1.91,0.45l-4.32-.69a4.21,4.21,0,0,0-1.89-.07l-3.61.93a0.77,0.77,0,0,0-.67.32c-0.23.57,0.26,0.38-.36,0.6-1.14.39-2.37,0.61-3.54,0.91-0.52.13-1.09,0.09-1.21,0.54a8.21,8.21,0,0,0,.22,2.31l0.73,7.87,0.28,3c0.06,0.65-.11.83,0.56,0.89a3.86,3.86,0,0,1,1.38.15c0.12,0.12,0,.6.09,0.79a1.63,1.63,0,0,0,.45.45,7.08,7.08,0,0,0,3.07,1.12,38.38,38.38,0,0,0,8.27.42,17.16,17.16,0,0,0,4.46-.39c1.58-.51,0-1.51-0.88-1.79,0.36,0.38.72,0.87,0.16,1.17a4.87,4.87,0,0,1-2.36.14,0.8,0.8,0,0,1-.33-1.44,3.57,3.57,0,0,1,1.78-.3c0-.26-0.88-0.35-1.08-0.39,1.14-.67,2.59-0.44,3.85-0.39l3.77,0.15c-0.35,1-.69,2.82-1.83,3.18a30.49,30.49,0,0,1-7.13,1.27,42.48,42.48,0,0,1-8.35-.19,0.75,0.75,0,0,1-.28.83,1.11,1.11,0,0,0-.16.93c0,0.85-.16,1.89,1,1.91-4.47,2.26-6.25,8.57-6.86,13.17L351,262.3l-1.3-14.84a10.25,10.25,0,0,0-.24-2.7A8.08,8.08,0,0,0,347.8,243l-1.75-1.78a6.08,6.08,0,0,0-1.44-1.39,5.74,5.74,0,0,0-2,.16l-2.52.24q-2.08.17-4.16,0.27c-2.1.1-4.21,0.13-6.31,0.05a32.77,32.77,0,0,1-4.92-.44l1.39,15.47q1.35,15,2.69,30c0.61,6.81,1.21,13.62,1.85,20.43a2,2,0,0,0,.72,1.73c1.69,1.25,4.53,1.21,6.52,1.29q1.52,0.06,3,0a1.3,1.3,0,0,1,.87.07,5.74,5.74,0,0,1,.26,1.91l0.49,3.58q0.42,3.07.83,6.14c0.23,1.65,1.07,3.23,3,2.82,2.49-.52,4.26-2.89,5.46-5a23.26,23.26,0,0,0,2.74-7,3.69,3.69,0,0,0,.11-1.85c0.49,0.25,1,.54,1.43.81a5.28,5.28,0,0,0,1.41.84c0.44,0,1.17-.85,1.54-1.17l-3.28-2a1.34,1.34,0,0,1-.76-0.65,6.55,6.55,0,0,1,.05-1.91l2.85,1.82c0.36,0.23,2,1.59,2.38,1.46a4.17,4.17,0,0,0,.73-1.13l1.22-1.9,1.76-2.74-7.89-5-0.85,1.39a69.33,69.33,0,0,1,.48-8.63,41.13,41.13,0,0,1,1.29-6.81,12.11,12.11,0,0,1,2.71-5.3c0.08,1.35.18,2.71,0.29,4.06a1.08,1.08,0,0,0,.43,1.11,4.3,4.3,0,0,0,1.58.5,14.88,14.88,0,0,0,5.49-.28l0.69,6.08a8.76,8.76,0,0,0-7.53,2.18c-0.61.56-.87,0.72-0.31,1.27,1,1,2.34,1.76,3.4,2.76a25.72,25.72,0,0,1,5.19,7.13c0.64-1.34,1.35-2.64,2-4q0.31-.65.6-1.3c0.25-.56.36-0.52,1-0.56a17.39,17.39,0,0,0,2.47-.31c0.43-.09,2-0.26,2.28-0.67a2.18,2.18,0,0,0-.05-0.76c-0.4-5.31-.53-10.64-0.43-16a49.52,49.52,0,0,1,.26-6.73,11.56,11.56,0,0,1,1.34-2.65,12.6,12.6,0,0,0,.5-1.21c-0.34,8.9-.2,17.84.25,26.73l2.1-.6a2.15,2.15,0,0,0,.75-0.22,4.09,4.09,0,0,0-.09-1.33l-0.33-4.9a1.79,1.79,0,0,1,0-.93c0.25-.31,1.14-0.2,1.32-0.54a2.43,2.43,0,0,0-.06-0.82l-0.14-1.78-0.77-9.84c0-.5.07-1.61-0.28-1.92s-1.52-.13-1.89-0.55a4.87,4.87,0,0,1-.12-1.64,9.3,9.3,0,0,0-.17-2.06c-0.13-.4-0.24-0.06-0.21-0.51a5.89,5.89,0,0,1,.42-1.27c0.3-.9.16-1,1.1-1a1.66,1.66,0,0,0,1.75-.55,7.17,7.17,0,0,1-1.23-.32c2.39-2.61,6.8-2.85,10.08-3,2.22-.11,4.43-0.08,6.65,0l3.22,0.07c0.33,0,2.55-.18,2.69.08,0,0.09-2.44.63-2.53,0.81a4.67,4.67,0,0,0,.25,2.11c0.25,0.71.26,0.31,0.51,0a1.5,1.5,0,0,1,2,0c0.12,0.18,0,.62.13,0.73s0.46,0,.58.15a4.09,4.09,0,0,1,.1,1.39l0.17,2.33a3,3,0,0,0,.06.87c0.07,0.14.28,0.11,0.34,0.22a3.86,3.86,0,0,1,.07,1.19c0,0.47.06,0.95,0.08,1.42a8.79,8.79,0,0,0,3.15-.65,2.07,2.07,0,0,0,.88-0.54,4.78,4.78,0,0,0-.13-1.56l-0.14-1.76,2.78,0.19c0.61,0,.51-0.07.64,0.38a6.62,6.62,0,0,1,0,1.84,25,25,0,0,1-.3,3.24,35.31,35.31,0,0,1-3.2,9.89q-0.71,1.46-1.52,2.86c-0.26.44-.58,0.87-0.8,1.32a2.27,2.27,0,0,0-.17,1.32c0,0.52.37,2.23,0,2.6a5.47,5.47,0,0,1-1.59.49c-1.11.37-2.2,0.78-3.29,1.23a68,68,0,0,0-10.41,5.36,45,45,0,0,0-10.09,8.25,37.57,37.57,0,0,0-4.75,7.08,73.24,73.24,0,0,0-3.56,6.79c-1.49,3.63-2.93,7.17-5.59,10.13a24.23,24.23,0,0,1-4.74,3.95,38,38,0,0,1-5.66,3.33,30.58,30.58,0,0,1-10.06,2.68,16.37,16.37,0,0,1-2.65,0,2.1,2.1,0,0,1-.85-0.13,2.47,2.47,0,0,1,0-.75q0-1,0-1.95a26,26,0,0,0-.53-5.07c-1.19-5.41-6.22-7.87-11.42-7.81a97.36,97.36,0,0,1-12.94-.63c-3.37-.41-6.7-1-9.55-2.93a21.54,21.54,0,0,1-5.6-5.76c-0.27-.4-0.53-0.8-0.76-1.21,0,1.45-.07,2.91-0.05,4.37a21,21,0,0,0,.14,2.33,2.42,2.42,0,0,0,.75,1.56c2.76,3.31,7.48,4.95,11.57,5.78a53.47,53.47,0,0,0,10.85.89c3.27,0,6.94-.41,9.94,1.17a4.31,4.31,0,0,1,2.48,3.78,1.7,1.7,0,0,0,0,.4c0.1,0.18.61,0.1,0.74,0.28a4,4,0,0,1,.13,1.33l0.25,2.47a16.39,16.39,0,0,0,.17,1.7c0.1,0.46,0,.3.38,0.44,1.25,0.43,2.7.29,4,.66,0.82,0.24,1.33,1.34,1.86,2,0.35,0.45,1,1.63,1.49,1.79a5.07,5.07,0,0,0,1.71-.24c1.15-.19,2.3-0.44,3.43-0.73a43.57,43.57,0,0,0,10.09-3.92,26.85,26.85,0,0,0,13.51-14.34c1.07-2.25,2.09-4.53,3.17-6.78a53.82,53.82,0,0,1,3.38-6.23,31.5,31.5,0,0,1,4.9-5.42,50.72,50.72,0,0,1,11.29-8,53.43,53.43,0,0,1,20.51-6,30.29,30.29,0,0,1,3.44-.08c0.44,0,.89,0,1.33.1s0.6,0,.68.54c0.43,2.62.43,5.39,0.63,8q0.36,4.7.72,9.4a6,6,0,0,1,.15,2,1.81,1.81,0,0,1-.77.27,5.76,5.76,0,0,0-2.07.86c-0.49.43-.23,1.08-0.18,1.68s0.1,1.25.15,1.88c-4.36-2.25-9.68-3-14.51-3.31,0.09,2.58.32,5.16,0.51,7.74a4.75,4.75,0,0,0,.15,1.71,6.45,6.45,0,0,0,2,.32,28.69,28.69,0,0,1,7.52,1.92,2.22,2.22,0,0,1,1,.62c0.08,0.41-.78.26-1,0.37s-0.19-.07-0.27.4a10.35,10.35,0,0,0,0,1.77c0,0.73.18,1.21-.36,1.67-0.84.73-1.71,1.45-2.56,2.17a5,5,0,0,0-1.3,1.14,4.26,4.26,0,0,0,0,1.25c0,4.87-.05,9.74,0,14.61,0,2,0,4.06.13,6.09,0,0.71.38,0.69,1,.85,1,0.26,2.09.44,3.14,0.62,2.29,0.4,4.59.74,6.89,1.07,1.08,0.15.93,0.12,1,1.19l0.9,12.62,0.48,6.75,0.16,2.32a4.22,4.22,0,0,0,.08,1.17,2.46,2.46,0,0,0,.78.68l2.73,2.11a18.36,18.36,0,0,1,2.33,1.8,0.91,0.91,0,0,1,.29.81l0.48,6.51,0.22,2.92c0,0.61-.09.7,0.53,0.82l2.78,0.55a11,11,0,0,1-1.55.47,3.71,3.71,0,0,1-1.42-.25,1,1,0,0,1-.92-0.63l-2.89-5-8-13.89a5.67,5.67,0,0,0-.89-1.55c-0.47-.33-2,0-2.65,0l0.84,8.32c1.28-.77,2.57-0.48,3.94-0.24a3.25,3.25,0,0,1,2.32,2,14.7,14.7,0,0,1,.38,4c0.14,1.8.24,3.61,0.41,5.41a4.45,4.45,0,0,1,0,1.37c-0.27,1.22-1.23,1.29-2.3,1.12-0.56-.09-2.23-0.13-2.42-0.59a3.55,3.55,0,0,1,0-.92,7.28,7.28,0,0,0-.16-1.4,3.75,3.75,0,0,0-1.79-2.61,8.1,8.1,0,0,0-2.56-.57l-6.73-1a3.89,3.89,0,0,1-.92-0.14,1.78,1.78,0,0,1-.28-0.24,2.33,2.33,0,0,0-2.54-.13c-2.94,1.39-3.52,5.35-2.56,8.16,0.48,1.41,1.2,2.25,2.71,2a8.09,8.09,0,0,1,4,.52l-2.56,1.17,16.62,3,2.37,0.43-5.53,5.84-1.46,1.54a3.07,3.07,0,0,0-.64.68,6.69,6.69,0,0,0,.16,2.08q0.43,5.45.87,10.89c0.12,1.44.23,2.88,0.36,4.33a2.13,2.13,0,0,0,1,1.7c2,1.42,4.81,1.84,7.16,2.19a64.25,64.25,0,0,0,11.21.61,59.72,59.72,0,0,0,11.61-1.33c3-.68,6.27-1.66,8.71-3.66a4.24,4.24,0,0,0,1.27-1.28,5.1,5.1,0,0,0-.08-1.69q-0.2-2.78-.41-5.56c-0.23-3.16-.41-6.33-0.61-9.49a2,2,0,0,0-1.17-1.81c0.1-.06.16-0.2,0.27-0.27l-0.8-.59,5.55-6.67c-0.31-.19-0.39-0.21-0.28-0.52a3.41,3.41,0,0,1,.63-0.8c0.45-.55.94-1.07,1.44-1.57a38.24,38.24,0,0,1,3.45-3c2.06-1.61,4.24-3.05,6.39-4.54a13.62,13.62,0,0,0,5.13-6.17c1.09-3.06.18-6.33-1.34-9.08C478.12,371.74,487.08,390.46,482.25,381.74Zm-136-60.92c-0.4-2.78-.82-5.56-1.24-8.34l-0.32-2.1a4.48,4.48,0,0,1-.2-1.42,3,3,0,0,1,.93-0.17l6.7-1.21a17,17,0,0,1-.87,6.33,17.78,17.78,0,0,1-5,6.9C345.59,316.51,351.64,315.93,346.2,320.82Zm63.09-54.15c-0.06-.6-0.12-1.2-0.16-1.8a4,4,0,0,1,2.63,2Zm2.84-3.26c5.25,0.23,11.31,1.33,15.69,4.46l-8.84-.36-2.45-.1a4.89,4.89,0,0,1-1.4-.06,1.65,1.65,0,0,1-.55-0.88,7.94,7.94,0,0,0-2.46-3.07C422.4,263.85,413.9,264.58,412.13,263.41Zm61.7,125c-4.6,3.14-9.24,6.37-13,10.5q-0.6.66-1.18,1.35a4,4,0,0,1-.52.65c-0.47.32,0,.17-0.36,0.09-0.77-.17-0.4-0.69-1,0-1.74,2.06-3.43,4.15-5.05,6.3,0.13-1,0-2.43-1.2-2.72a1,1,0,0,1-.84,1.62c-0.49.1-1.75,0.23-2.09-.32a0.84,0.84,0,0,1,.07-0.76,3,3,0,0,0-.05-1.2c-0.2-.37-0.58-0.15-1-0.34s-0.14.06-.37-0.41a2.81,2.81,0,0,0-.54-0.95,5.31,5.31,0,0,0-2.45-1.13c0.58-.2,2-0.41,2.23-0.92a3.27,3.27,0,0,0-.06-1l-0.11-1.89L446,392.83a16.16,16.16,0,0,1-.19-3.22,2.85,2.85,0,0,1,1-1.27l3-3.17a4.54,4.54,0,0,0,1.15-1.3,5.84,5.84,0,0,0-.11-1.61l-1.14-16.59-0.22-3.27a5.18,5.18,0,0,1-.12-1.7c0.18-.39,1.43-0.57,1.87-0.72l2-.66a5,5,0,0,1,1.45-.47,2.32,2.32,0,0,1,.83.87l1.73,2.09q1.57,1.93,3.09,3.89,3,3.84,5.72,7.84t5,7.92q1.16,2,2.25,4c0.49,0.91,1.56,2.13.46,2.94C466.94,393.09,474.76,387.71,473.84,388.38Z"/><path d="M401.54,400.11l2.18-4.06a8.26,8.26,0,0,1,1-1.9,2.21,2.21,0,0,1,.89-0.37L411,392c0.53-.17.71-0.1,0.82-0.54a5.48,5.48,0,0,0-.08-1.35,3.24,3.24,0,0,0-.06-1,6.82,6.82,0,0,0-2.2-.52l-2.39-.56a3.63,3.63,0,0,0,4.27-2.61c0.52-1.78.41-3.77-1.38-4.75a5.54,5.54,0,0,0-1.29-.49c-0.56-.14-1.26-0.08-1.79-0.27s-0.24,0-.32-0.41a8.38,8.38,0,0,1,0-1.16,2.54,2.54,0,0,0-.1-1.17,4,4,0,0,0-1.32-.22l-4.61-.76a3.19,3.19,0,0,0-1.89.05l-4.3,1.4a4.79,4.79,0,0,0-1.51.49c-0.14.15,0,.09-0.08,0.36a19.27,19.27,0,0,0,.33,3.58l0.44,4.78,0.17,1.79a2,2,0,0,1,.06.67,5.34,5.34,0,0,1-1.67.57,2.18,2.18,0,0,0-.93.37,2.33,2.33,0,0,0,.07.78l0.13,1.53,0.39,4.54,0.69,8.11c0.05,0.64,0,.56.66,0.69l3.89,0.79,4.53,0.91a3.87,3.87,0,0,0,2.08.19c0.58-.21,1.14-0.49,1.71-0.73l-1.48-1.35A9.88,9.88,0,0,1,402,404a4.62,4.62,0,0,1-.22-1.69Z"/></svg>