<?xml version="1.0" encoding="utf-8"?>
<!-- Generator: Adobe Illustrator 19.2.0, SVG Export Plug-In . SVG Version: 6.00 Build 0)  -->
<svg version="1.1" id="Layer_1" xmlns="http://www.w3.org/2000/svg" xmlns:xlink="http://www.w3.org/1999/xlink" x="0px" y="0px"
	 viewBox="0 0 1920 1080" style="enable-background:new 0 0 1920 1080;" xml:space="preserve">
<title>Cam_01_CloseCower_K_Mask_Main_Surfase</title>
<path d="M1702.1,302.1c-13.1-1.7-26.3-3-39.5-4.5s-26.4-2.9-39.5-4.5s-26.3-3.1-39.4-4.5s-26.4-3-39.6-4.5s-26.4-2.8-39.6-4.3
	s-26.1-3-39.2-4.4s-26.4-3.1-39.6-4.5s-26.3-2.9-39.5-4.5s-26.2-2.8-39.4-4.4s-26.4-3.1-39.6-4.5s-26.4-3.1-39.6-4.5
	s-26.2-2.8-39.3-4.3s-26.2-3.1-39.3-4.5s-26.4-2.9-39.6-4.5s-26.3-2.8-39.5-4.3c-6.4-0.7-12.9-1.5-19.3-2.3
	c-3.3-0.4-6.6-0.8-9.9-1.1c-3.2-0.3-6.5-0.9-9.7-1s-5.9,1.1-8.9,2.2c-1.5,0.6-3,1.1-4.5,1.6c-0.9,0.3-3.2,1.6-3.8,0.2
	s-0.1-3-0.6-4.3c-0.3-0.9-1.1-1.6-2-1.8c-1.6-0.3-3.2-0.5-4.8-0.6l-4.9-0.6c-13.1-1.5-26.3-2.9-39.5-4.4s-26.4-3.1-39.5-4.6
	c-3.2-0.5-6.4-0.3-9.5,0.3c-3.2,0.8-6.2,2-9.3,3.1c-6.3,2.1-12.5,4.2-18.8,6.4l-19,6.4c-3,1-6.1,2.1-9.1,3.1
	c-0.6,0.2-1.1,0.4-1.7,0.6c-0.3,0.1-1.6,0.7-1.6,1.1c-0.1,0.6,1,0.9,1.4,1c0.8,0.2,1.5,0.4,2.3,0.5c3.2,0.6,6.4,0.9,9.7,1.2l9.9,1.1
	c6.6,0.8,13.2,1.5,19.9,2.3c13.2,1.6,26.3,3.2,39.5,4.8s26.3,3.2,39.4,4.8c13.2,1.6,26.4,3,39.5,4.6s26.4,3.2,39.6,4.8
	s26.3,3.2,39.5,4.7s26.3,3.1,39.5,4.7s26.2,3.3,39.4,4.8s26.4,3,39.5,4.6s26.4,3.1,39.6,4.8s26.3,3.3,39.5,4.8s26.4,3.1,39.5,4.7
	l15.3,1.9c11.9,1.5,23.8,2.9,35.7,4.3c13.2,1.5,26.4,3.2,39.6,4.8s26.4,3,39.5,4.6s26.4,3.2,39.6,4.8s26.2,3.2,39.3,4.7
	s26.4,3.3,39.6,4.8c6.3,0.7,12.7,1.5,19,2.2c3,0.4,6.1,0.7,9,1.3c2.5,0.6,4.8,1.8,6.7,3.4c-25.1-2.9-50.2-5.9-75.2-9
	c-12.8-1.6-25.7-3.1-38.6-4.6s-25.5-3.2-38.3-4.7c-25.7-3-51.4-6-77-9.2s-51.1-6.1-76.6-9.3s-51.3-6.1-77-9.2s-51.2-6.1-76.7-9.3
	c-12.8-1.6-25.5-3-38.3-4.5c-12.9-1.6-25.9-3.2-38.8-4.8c-12.7-1.5-25.5-2.9-38.2-4.5s-25.6-3.2-38.5-4.7s-25.5-3.1-38.3-4.7
	c-3-0.5-6.1-0.8-9.2-0.8c-2.3,0.1-1.8,2.5-3,3.9c-0.9,0.8-1.9,1.3-3,1.6l-4.5,1.7l-9.3,3.5l-18.3,6.9l-9,3.4
	c-1.6,0.6-4.2,1.7-5.7,0.4c-1.3-1.1-1.2-4.1-0.1-5.3c0.8-0.9,2.1-1.1,3.1-1.5c1.6-0.6,3.2-1.2,4.8-1.8l18.2-6.8l8.6-3.2
	c1.3-0.5,2.7-1,4-1.5c1.2-0.3,2.3-0.9,3.3-1.8c-0.4-0.4-0.8-0.8-1.2-1.1c-0.6-0.2-1.2-0.4-1.8-0.4c-1.4-0.3-2.8-0.4-4.2-0.5
	l-8.4-0.9c-5.5-0.6-11-1.3-16.6-2c-11.2-1.3-22.3-2.7-33.5-4c-5.4-0.7-10.9-1.3-16.3-2c-2.8-0.3-5.6-0.7-8.4-1
	c-2.6-0.5-5.3-0.7-8-0.5c-2.5,0.4-4.9,1-7.3,1.9l-7.9,2.7l-16,5.4l-17.9,6l-9,3c-1.5,0.5-2.9,1-4.4,1.5c-0.6,0.2-1.3,0.5-1.9,0.8
	c-0.5,0.4-0.9,0.8-1.2,1.4c1.1,0.8,2.9,0.7,4.3,0.9l5.1,0.7l9.9,1.3c6.5,0.9,12.9,1.7,19.4,2.5c13.1,1.6,26.1,3.3,39.1,5
	c25.9,3.4,51.8,6.6,77.7,10s52,6.6,78,10s51.8,6.6,77.7,10l77.8,10c26,3.3,51.9,6.6,77.9,9.9s51.7,6.7,77.5,10s52,6.6,77.9,10
	s51.8,6.7,77.8,9.9c12.9,1.6,25.8,3.4,38.8,5s25.8,3.5,38.7,5c5.4,0.6,11.7,1.2,16,4.8c-1,0.2-2,0.2-3,0l-3.9-0.5l-7.7-1l-15.5-2
	c-10.2-1.3-20.4-2.6-30.6-3.9c-20.6-2.6-41.1-5.4-61.7-8s-41.3-5.2-61.9-7.9s-41-5.3-61.6-7.9s-41.1-5.4-61.7-8s-41.2-5.4-61.8-8
	s-41.2-5.3-61.7-8s-41-5.3-61.6-7.9s-41.2-5.3-61.9-7.9s-41.2-5.3-61.8-8s-41.2-5.5-61.8-8l-7.9-0.9l-3.5-0.4
	c-1-0.1-1.9-0.2-2.5,0.8s-0.2,1.9-0.6,2.8c-0.3,0.8-0.9,1.4-1.7,1.7c-0.7,0.3-1.5,0.6-2.2,0.9l-6.6,2.5l-27.4,10.4l-10.9,4.1
	c-2.4,0.9-6,2.9-7.7,0c-0.7-1.4-0.7-3,0-4.4c0.8-1.2,2.7-1.6,4-2.1s2.5-1,3.7-1.4l10.6-4l23.6-8.7l0.5-0.2c1-0.4,2.1-0.8,3.2-1.2
	c0.8-0.3,2.5-0.8,2.3-1.8s-1.9-0.9-2.8-1.1l-4-0.5l-7.7-1l-30.8-4.2c-10.3-1.3-20.5-2.7-30.8-4l-15.5-2c-2.5-0.3-5-0.7-7.6-1
	s-4.5,0.7-6.8,1.4c-6.3,2-12.5,4.2-18.8,6.3l-25.2,8.5l-13.6,4.6l-7.3,2.5c-1.2,0.4-5.4,1.5-2.5,3c1.1,0.4,2.2,0.6,3.3,0.6l4,0.5
	l7.9,1.1c20.6,2.8,41.3,5.6,61.9,8.5c20.6,2.8,41.2,5.7,61.7,8.5c20.7,2.8,41.3,5.7,61.9,8.5c20.6,2.8,41.1,5.7,61.7,8.5
	s41.1,5.7,61.7,8.5s41,5.6,61.6,8.4s41.1,5.7,61.6,8.5s41.1,5.6,61.6,8.4s41.1,5.7,61.7,8.5s41.2,5.7,61.7,8.6s41.2,5.6,61.8,8.5
	s41.2,5.6,61.8,8.5c10.3,1.4,20.6,2.8,30.9,4.2c5.2,0.7,10.4,1.5,15.6,2.2c5,0.7,10.1,1,14.9,2.3c2.3,0.6,4.5,1.4,6.7,2.4
	c0.5,0.2,2.2,0.8,1.8,1.7c-0.3,0.6-3.1-0.1-3.7-0.1c-5.1-0.6-10.2-1.4-15.3-2.1c-10.3-1.5-20.7-2.9-31-4.3
	c-20.6-2.8-41.1-5.7-61.7-8.5s-41.1-5.7-61.5-8.5c-20.5-2.8-41-5.7-61.5-8.5c-20.7-2.9-41.3-5.7-62-8.6c-20.7-2.9-41.3-5.7-62-8.6
	l-62.1-8.7c-20.6-2.9-41.2-5.6-61.8-8.6s-41.2-5.7-61.9-8.6s-41.1-5.7-61.7-8.5s-41.1-5.8-61.6-8.5c-10.2-1.4-20.4-2.9-30.6-4.3
	l-15.3-2.2c-1.2-0.2-2.5-0.3-3.8-0.4c-1,0-2.1-0.3-2.9,0.5c-0.6,0.6-0.6,1.6-1,2.3c-0.4,0.7-1.1,1.3-1.8,1.7c-2.2,1.1-4.7,1.8-7,2.7
	l-7.5,2.8l-14.6,5.5c-9.8,3.7-19.5,7.4-29.3,11.1c-2.3,0.9-4.6,2-7.2,1.5c-1.3-0.2-2.6-0.5-3.8-0.8c-0.7-0.1-1.8-0.5-1.4-1.5
	c0.5-0.6,1.2-1.1,1.9-1.5c0.8-0.6,1.5-1.3,2-2.2c0.4-0.7,1-1.2,1.8-1.4c1.2-0.5,2.4-1,3.7-1.4c9.7-3.7,19.5-7.2,29.2-10.8l14.7-5.4
	c2.4-0.9,4.7-1.7,7.1-2.6c0.8-0.3,2.1-1,1.3-2c-0.4-0.4-0.9-0.5-1.4-0.5l-2.2-0.3c-10.3-1.5-20.6-2.8-30.9-4.3
	c-20.6-2.9-41.1-5.8-61.7-8.7c-2.4-0.5-4.9-0.8-7.4-0.9c-2.4,0-4.7,1-7,1.8l-14.8,5c-9.9,3.3-19.8,6.7-29.7,10l-14.9,5.1
	c-4.5,1.5-9,3.2-13.5,4.4c-0.8,0.2-1.5,0.5-2.2,1.1c-0.4,0.3-0.7,0.7-0.8,1.1c0.1,0.6,1.2,0.6,1.6,0.7c4.6,0.9,9.3,1.5,13.9,2.2
	c20.4,3,40.9,6,61.3,9.1c20.5,3,41.1,6.2,61.6,9.3s41.1,6.1,61.6,9.1s40.8,6.1,61.3,9.1s41.1,6.1,61.6,9.2s41.2,6.2,61.7,9.3
	c20.6,3.1,41,6,61.6,9.1s40.8,6,61.2,9.1c20.6,3.2,41.2,6,61.7,9.1s41.1,6.3,61.7,9.3s41.2,6,61.8,9.1s41.3,6.3,62,9.4
	s41.1,6,61.7,9.1c10.4,1.6,20.8,3.1,31.2,4.6c4.7,0.6,9.2,1.9,13.5,3.9c0.5,0.3,1.1,0.5,1.6,0.8c0.5,0.2,0.9,0.4,1.3,0.7
	c0.2,0.3,0.2,0.7,0.2,1c-0.3,0.6-1.2,0.2-1.7,0.1l-7.4-1.1c-20.6-3-41.1-6.1-61.7-9.2s-41-6.2-61.5-9.2s-40.9-6.1-61.4-9.2
	s-41-6.2-61.5-9.3s-41.1-6.1-61.7-9.2s-41.1-6.2-61.7-9.3s-40.9-6.1-61.4-9.2c-20.5-3.1-40.9-6.1-61.4-9.2s-41.1-6.1-61.6-9.1
	s-41-6.1-61.5-9.2s-41-6.1-61.5-9.2s-41.1-6.1-61.7-9.2l-7-1.1c-1-0.3-2.1-0.3-3.1-0.2c-2.8,0.7-0.5,5.2-2.6,6.5c-1,0.5-2,0.9-3,1.2
	c-1.2,0.5-2.4,0.9-3.5,1.4l-7.4,2.8l-14.5,5.5l-29.2,11l-3.5,1.3c-1.1,0.5-2.3,0.9-3.5,1.2c-1.1,0.2-2.3,0-3.3-0.6
	c-0.8-0.4-1.2-1.2-1.2-2.1c-0.1-1.8-0.5-4.1,1.4-5c2.2-1.1,4.6-1.8,7-2.7l34.8-12.9l12.7-4.7l4-1.5c1.5-0.5,3.2-0.9,3.9-2.4
	c-2.8-1.3-6-1.4-9-1.9l-9.4-1.4l-18.9-2.9c-12.6-1.9-25.2-3.8-37.8-5.6c-6.3-0.9-12.5-1.8-18.8-2.8c-3.1-0.5-6.3-1-9.4-1.5
	c-2.9-0.6-5.9-0.6-8.8,0.2c-6,1.8-11.8,4-17.7,6l-18.1,6.1c-12.1,4.1-24.1,8.1-36.2,12.2l-8.9,3l-4.1,1.4c-1,0.3-3.8,0.8-3.9,2.1
	c-0.2,1.3,2.3,1.2,3.1,1.4l5.1,0.8l9.2,1.5c25.1,4,50.1,8.3,75.2,12.2s50.2,8.2,75.4,12.2s50.2,8,75.2,12.1s50.2,8,75.2,12.1
	s50.2,8.1,75.4,12.2s50.3,8.3,75.4,12.2c25,4,50,8.2,75,12.2s50.2,8.2,75.4,12.2s50.3,8,75.4,12.2c25,4.1,50,8,75,12.1
	s50.2,8.1,75.4,12.2c12.6,2,25.1,4.3,37.7,6.2c3,0.4,5.9,0.9,8.8,1.7c2.7,0.8,5.4,1.8,8,2.9c1.2,0.4,2.4,1,3.6,1.6
	c0.4,0.3,0.7,0.8,0.7,1.3c-0.1,0.8-0.9,0.5-1.4,0.4c-3.1-0.5-6.2-0.9-9.3-1.4c-12.4-1.9-24.8-4-37.1-6.1s-25-4-37.5-6l-75.4-12.3
	c-25.1-4.1-50.3-8.2-75.4-12.3s-50-8.1-75-12.2s-50.3-8.1-75.4-12.3s-50.3-8.1-75.4-12.3s-50-8.2-75-12.2
	c-14.4-2.4-28.8-4.7-43.3-7.1l-53-8.7l-34.8-5.7c-19.5-3.2-39.1-6.4-58.6-9.6c-25.1-4.1-50.2-8.2-75.3-12.3
	c-25-4.1-49.9-8.1-74.9-12.2c-6.3-1-12.5-2-18.8-3l-9.4-1.5c-3-0.5-6.1-1.3-9.1-1.2s-5.8,1.2-8.7,2.2l-9,3.1c-6,2-12,4.1-18.1,6.1
	c-3,1-5.9,1.9-8.9,2.9c-1,0.4-2.9,0.8-3.1,2.1c-0.2,1.5,1,3.4,1.4,4.8c0.6,2.2,0.4,4.5-0.6,6.6c-1.2,2.1-2.9,3.9-4.9,5.2
	c-2.3,1.6-4.7,3.3-6.9,5.1c-0.9,0.7-1.7,1.4-2.4,2.2c-0.6,0.6-1.5,1.8-1.3,2.8c0.2,1.2,2.6,1.5,3.5,1.6c3,0.6,6,1,9,1.6l9.4,1.6
	l18.7,3.3c12.4,2.2,24.8,4.4,37.3,6.7c25,4.5,50,8.9,75,13.3c25.1,4.5,50.3,8.8,75.4,13.3c25,4.5,49.9,8.8,74.9,13.3
	s50.1,8.9,75.1,13.4s50.3,8.9,75.4,13.3s50,8.9,75,13.3s50.3,8.9,75.4,13.4s50.3,9,75.4,13.4s50,8.9,75,13.3s50.3,9,75.4,13.4
	c12.6,2.2,25.1,4.4,37.7,6.7l18.8,3.4c1.3,0.2,2.7,0.5,4,0.8c1.6,0.4,3.1,1,4.6,1.7c1.3,0.6,2.6,1.2,3.9,1.8l2.1,1
	c0.8,0.3,1.5,0.7,2.2,1.2c0.7,0.8,0.7,1.8-0.5,1.8c-0.8-0.1-1.6-0.2-2.3-0.4l-2.7-0.5l-9.4-1.6c-6.3-1.1-12.5-2.2-18.8-3.3
	l-37.5-6.7c-25-4.5-50-9-75-13.4c-25-4.5-50.1-8.9-75.2-13.4c-25-4.5-50-9-75.1-13.5c-25-4.4-50-8.9-74.8-13.4
	c-25.1-4.5-50.2-8.9-75.2-13.4s-50.1-9-75.2-13.4s-49.8-9-74.8-13.4s-50.1-9-75.1-13.5s-50.1-8.9-75.2-13.4s-49.8-8.8-74.8-13.3
	c-25.1-4.5-50.1-9-75.2-13.5c-3-0.5-6.1-1.3-9.2-1.6c-1-0.2-2,0.3-2.4,1.2c-0.2,0.5-0.2,1.1,0,1.5c0.2,0.8,0.4,1.6,0.6,2.5
	c0.5,3,0.5,6,0.7,9.1c0.2,2.4-0.2,5.7,1.9,7.3c0.8,0.6,1.7,1.2,1.6,2.3s-1.4,2-2.4,2.5c-2.7,1.3-5.5,2.2-8.4,2.8
	c-6.1,1.2-12.3,1.7-18.5,1.4c-3,0-6.1-0.4-9-1.2c-1.3-0.3-2.5-0.7-3.7-1.2c-1.2-0.7-1.3-1.9-1.5-3.1c-0.3-3.1-0.6-6.2-0.8-9.3
	c-0.1-1.6-0.2-3.2-0.3-4.8c-0.2-1.4-0.3-2.9-0.1-4.3c0.5-2.5,2.6-3.9,4.2-5.6c0.5-0.5,2.1-2.3,1.4-3c-0.4-0.4-1.3,0-1.8,0.2
	c-0.7,0.2-1.4,0.3-2.1,0.5c-3,0.8-5.9,2-8.9,3l-9,3.1L391,420l-8.9,3c-1.4,0.5-2.8,0.9-4.1,1.4c-0.4,0.2-0.8,0.4-1.2,0.7
	c-0.4,0.5-0.7,1-0.9,1.6c-1,1.7-3.5,1.6-5,0.7c-2.3-1.3-1.7-4.7-1.9-6.9c-0.1-1.1,0-2.8-0.9-3.5c-1.1-1-2.3-0.5-3.5-0.1l-9,3
	c-6,2-12,3.9-18,6.1c-1,0.4-2.1,0.8-2.3,1.9s0.7,2.9,1.1,4c1.1,3,2.3,5.9,3.4,8.9l13.8,35.7c0.5,1.3,1,2.7,1.6,4.1s0.9,2.7,1.8,3.6
	c0.7,0.6,1.7,1,2.6,1.2c1.6,0.4,3.3,0.7,5,1l18.2,3.7c12.5,2.5,24.9,5,37.4,7.6c24.9,5.2,49.9,10.4,74.8,15.5s50,10.3,75.1,15.4
	l74.7,15.3c25,5.1,50,10.2,75,15.3c25,5.1,49.9,10.3,74.9,15.3c24.8,5,49.6,10.2,74.4,15.2c25,5.1,49.9,10.2,74.9,15.4
	s49.9,10.3,74.9,15.3c24.8,5.1,49.6,10.2,74.4,15.3c25,5.1,50,10.3,75.1,15.4l75.1,15.4l37.4,7.7l9.4,1.9l4.3,0.9
	c1.4,0.4,2.8,0.6,4.2,0.5c2.7-0.3,4.7-2.8,6.6-4.5c2.4-2.1,4.7-4.1,7.1-6.2c2.3-2,4.8-3.8,6.9-6s1.8-4.5,1.9-7.1
	c0.1-1.6,0.2-3.2,0.2-4.8c-0.1-1.2,0.2-2.5,0.7-3.6c0.6-1,1.4-1.9,2.4-2.7c1.2-1,2.3-2,3.4-3s2.2-2,3.4-2.9c1-0.7,1.9-1.6,2.7-2.5
	c1.4-2.1,1.3-4.6,1.3-7.1c0.1-3,0.2-5.9,0.4-8.8c0-1.5,0.3-3,0.9-4.3c0.8-1.1,1.7-2,2.8-2.7c2.3-1.9,4.5-3.8,6.8-5.7
	c4.8-4.1,9.7-8.1,14.5-12.2c4.8-3.9,9.5-8,14.2-12s9.6-8,14.4-12c19.3-16.1,38.6-32.4,57.8-48.6c19.4-16.3,38.7-32.7,58.1-49
	c9.7-8.2,19.4-16.3,29.2-24.3l7.3-6c1.1-0.9,2.1-1.8,3.2-2.6c0.6-0.5,1.1-0.9,1.8-1.3c0.2-0.2,0.5-0.3,0.7-0.3h0.6
	c0.3-0.1,0.4,0,0.4,0.4c0.6,1.1,0.4,3,0.3,4.1c-0.2,1.6-0.5,3.2-0.7,4.8c-0.4,3-0.6,6.1-0.9,9.1c-0.2,1.4-0.3,2.8-0.3,4.2
	c0,0.7,0,1.1,0.7,1.3c0.6,0.2,1.3-0.1,1.7-0.6c0.9-0.9,1.3-2.1,1.3-3.3c0.1-1.7,0.3-3.3,0.4-5c0.3-3.1,0.5-6.2,0.8-9.4
	c0.2-2.8,0.1-5.7,0.8-8.4c0.9-3.7,4.3-5.7,7.1-8l18.5-15.4l28.5-23.9l24.4-20.5l20.8-17.5l26.9-22.6c2.2-1.9,4.5-3.8,6.7-5.6
	c1.1-0.9,2.2-1.8,3.3-2.6c0.8-0.6,1.6-1.5,2.6-0.9s0.6,2.1,0.5,3c-0.1,1.3-0.6,2.5-0.7,3.9c-0.1,0.7-0.3,2.8,0.8,2.9
	c0.6-0.1,1.2-0.4,1.8-0.8l2-1c0.2,1.5,0.3,3.1,0.5,4.6c0.2,1.5,1,1.8,2.1,0.9c2.2-1.7,5.1-3.3,5.6-6.2c0.2-1.6,0.4-3.2,0.5-4.8
	c0.2-1.7,0.3-3.4,0.5-5.1c0.2-1.7,0.4-3.4,0.6-5.3c0.2-1.4,0.4-2.9,0.4-4.4C1705.7,302.9,1704.1,302.3,1702.1,302.1
	C1700.4,301.8,1705.1,302.4,1702.1,302.1z M1042.4,240.1c-5.4,2.2-10.8,4.2-16.2,6.2l-8.4,3.2c-2,0.8-4.3,1.9-6.2,0.3
	c-0.6-0.7-0.9-1.6-0.8-2.5c-0.1-1.2,0.6-2.3,1.7-2.8c2.5-1.2,5.3-2.1,7.9-3c5.4-2,10.8-4.2,16.3-6c1.2-0.5,2.5-0.8,3.7-1
	c0.7,0,1.3,0.1,2,0.3c0.5,0,0.9,0.2,1.3,0.5c0.7,0.8,0.9,1.9,0.6,2.9C1044,239.1,1043.3,239.8,1042.4,240.1
	C1041,240.7,1043.9,239.4,1042.4,240.1L1042.4,240.1z M649.8,385.9c-0.1,1.1-1,2.1-2.1,2.3c-1.5,0.6-2.9,1.2-4.4,1.7l-8.9,3.4
	l-17.9,6.7c-11.8,4.4-23.6,8.7-35.3,13.3l-3.9,1.6c-0.9,0.4-1.9,1-2.8,0.9c-0.7-0.1-1.4-0.3-2.1-0.5c-0.7,0-1.3-0.5-1.4-1.2
	c-0.4-1.3-0.5-2.7-0.3-4c-0.1-1.2,0.6-2.4,1.7-2.8c2.8-1.3,5.8-2.2,8.7-3.3c11.9-4.4,23.7-8.8,35.6-13.2l19.9-7.4
	c3-1.1,6.4-2.9,9.7-2.5C649.2,381.1,650,383.4,649.8,385.9C649.7,386.8,649.9,385.3,649.8,385.9z M1333.4,619.5
	c-0.1,1.4-1.4,2.5-2.5,3.2c-1.5,0.8-2.7,0.5-4.3,0.2c-0.7-0.1-2-0.2-2.4,0.4c-0.3,0.9-0.6,1.8-0.7,2.7c-0.5,1.5-2.5,3.2-1.6,4.8
	c0.4,0.6,1,1.2,0.8,2c-0.3,0.7-1,1-1.7,1c-1,0.1-1.9,0-2.9-0.2c-0.7-0.1-2.2-0.3-2.7-0.9c-0.3-0.5-0.3-1.1-0.2-1.7
	c0.1-0.6,0.8-1.2,0.7-1.8c-0.1-0.3-0.3-0.7-0.5-0.9c-0.2-0.4-0.4-0.8-0.5-1.2c-0.2-0.9-0.3-1.8-0.3-2.7c-0.1-1.8,0.2-3.5-1.8-4.3
	c-2-0.6-4-1-6-1.3l-13.1-2.5l-25.8-4.9c-17.4-3.3-34.8-6.7-52.2-10c-17.3-3.3-34.6-6.7-52-10l-52-9.9l-13.1-2.5
	c-4-0.8-8-1.7-12.1-2.3c-0.8-0.1-1.5-0.2-1.9,0.6c-0.6,1.1-0.5,2.6-0.9,3.8c-0.6,1.6-2.3,2.5-2.1,4.4s1.6,2.6,3,3.5
	c0.6,0.4,1.4,0.7,1.3,1.5s-1.2,1.1-2,1.3c-2,0.7-4,1-6.1,0.8c-2-0.1-4-0.6-5.9-1.6c-0.6-0.2-0.9-0.8-0.7-1.4c0-0.1,0.1-0.3,0.2-0.4
	c0.6-0.7,2-0.9,2.8-1.2c1.8-0.6,2.8-1.6,2.5-3.6c-0.2-1.3-1.5-2-1.9-3.3c-0.5-1.8,0-3.8-0.5-5.6s-2.9-1.8-4.4-2.2
	c-17.3-3.6-34.7-6.7-52.1-10.1c-17.4-3.3-34.8-6.6-52.1-9.9s-34.7-6.6-52.1-10l-26-5l-6.4-1.2c-1.5-0.3-4-1.2-4.9,0.6
	c-0.4,0.9-0.7,1.8-1,2.7c-0.4,0.9-0.6,1.9-0.6,2.9c0.1,0.8,0.9,1.4,0.3,2.2c-0.6,0.6-1.3,0.9-2.1,1c-1.3,0.2-3.5,0-4-1.4
	c-0.3-0.8,0.1-1.5,0.1-2.3c-0.2-0.8-0.6-1.6-1-2.4c-0.3-0.8-0.5-1.7-0.7-2.6c0-0.9-0.2-1.8-0.5-2.7c-0.5-0.6-1.2-1-2-1l-3.1-0.6
	c-1-0.2-2-0.4-3-0.5c-0.8-0.3-1.7-0.2-2.5,0.1c-0.7,0.4-0.8,1.5-1.1,2.2c-0.4,1.1-0.7,2.2-1,3.3c-0.2,0.8,0.2,1.5,0,2.3
	c-0.1,0.7-0.7,1.2-1.4,1.3c-1.4,0.4-3.6,0.5-4.5-0.9c-0.3-0.5-0.4-1.2-0.2-1.8c0.1-0.8-0.2-1.7-0.6-2.4c-0.3-0.8-0.6-1.7-0.8-2.5
	c-0.2-0.9-0.1-1.9-0.3-2.8c-0.4-1.9-3.1-1.9-4.6-2.2c-2.1-0.5-4.3-0.8-6.4-1.2l-26-5c-17.3-3.3-34.6-6.7-51.9-10
	c-17.3-3.3-34.6-6.6-51.9-9.9l-26.2-5l-12.8-2.5c-1-0.2-2-0.4-2.9-0.5c-0.8-0.2-1.6-0.3-2.5-0.4c-1.9,0-1.7,2.3-2.3,3.6
	s-2,2.7-1.9,4.3s1.6,2.4,2.5,3.3c0.3,0.2,0.5,0.5,0.6,0.9c-0.1,0.4-0.4,0.7-0.8,0.8c-1,0.4-2,0.7-3.1,0.9c-2,0.4-4.1,0.4-6.2,0
	c-0.7-0.2-2-0.3-2.3-1s0.5-1.3,1.1-1.5c1.5-0.5,3.4-0.8,4.1-2.4s-0.6-2.5-1.4-3.7c-1.1-1.5-0.9-3.2-1.1-5c-0.2-1.4-1.2-2.6-2.7-2.8
	c-2.1-0.5-4.2-0.9-6.3-1.3c-4.3-0.9-8.7-1.7-13.1-2.5l-25.9-5l-52.3-10c-17.4-3.3-34.7-6.9-52.2-10l-3-0.5c-0.8-0.2-1.7-0.4-2.6-0.4
	c-1.7,0.2-1.8,2.2-2.1,3.5s-0.3,2.9-1,4c-0.6,0.7-1.5,1.2-2.4,1.3c-0.8,0.1-2,0.2-2.6-0.5c-0.3-0.5-0.3-1-0.2-1.5
	c0-0.9-0.2-1.8-0.7-2.6c-0.5-0.8-0.8-1.6-1.1-2.5c-0.1-0.9-0.2-1.8-0.5-2.7c-0.8-1.5-2.7-1.5-4.1-2c-2-0.7-2.1-2.7-2.4-4.5
	c-0.4-2.1-0.7-4.3-0.8-6.5c-0.1-1-0.1-2-0.1-3.1c-0.1-0.8,0.1-1.6,0.7-2.2c0.7-0.5,1.5-0.9,2.4-1.1c1-0.4,2-0.8,3.1-1.2l24.8-9.2
	l12.5-4.6l6.2-2.3c1.8-0.8,3.8-1.5,5.7-2c1.7-0.3,4-0.2,5.4,0.9c0.6,0.6,0.9,1.4,0.9,2.2c0.2,1,0.2,2,0,3c-0.3,0.7-1,1.3-1.7,1.5
	c-1,0.4-1.9,0.9-2.9,1.3c-2,0.8-4,1.5-6,2.3l-24.6,9.2c-1.9,0.6-3.8,1.3-5.5,2.1c-0.4,0.2-0.7,0.4-1,0.8c0,0.4,0.2,0.7,0.4,0.9
	c0.7,0.4,1.4,0.7,2.2,0.7c2.1,0.4,4.2,0.8,6.3,1.2s4.4,0.6,6.5,1c4.2,0.9,8.3,1.9,12.5,2.6c2.1,0.4,4.1,0.7,6.2,1.1
	c2,0.5,4,0.8,6.1,0.9c2,0.1,3.8,0.9,5.8,1.3c2,0.3,4.1,0.8,6.2,1.2c4.2,0.8,8.4,1.7,12.6,2.3c1,0.1,2,0.2,3,0.3
	c0.9,0.2,1.9,0.5,2.8,0.8c2,0.6,4,0.8,6,1.2c4.1,0.8,8.2,1.7,12.4,2.4c2.1,0.4,4.3,0.5,6.4,0.8c2.1,0.3,4,1.1,6,1.5
	c4.3,0.9,8.6,1.8,12.9,2.6s8.3,1.3,12.5,2.2s8.6,1.7,12.9,2.5s8.5,1.3,12.7,2s8.5,1.9,12.7,2.8c2.1,0.4,4.3,0.8,6.4,1.2
	c0.9,0.2,1.8,0.5,2.7,0.6c1,0.1,2,0.2,3,0.2c2,0.1,4,0.5,5.9,1.1c1.9,0.6,3.9,1,5.9,1.3c4.2,0.7,8.3,1.6,12.5,2.4
	c2,0.4,4.1,0.4,6.2,0.7c2,0.3,4,0.8,6,1.5c3.8,1.3,8,1.5,12,2.3c4.2,0.9,8.4,1.6,12.6,2c2,0.1,3.8,1,5.7,1.4
	c2.2,0.5,4.4,0.9,6.6,1.3c4.2,0.8,8.5,1.8,12.7,2.3c2.1,0.2,4.2,0.2,6.2,0.6s3.8,1.2,5.7,1.7c4.2,1,8.5,1.6,12.7,2.4
	c2.1,0.4,4.1,0.8,6.2,1.1c2.1,0.2,4.3,0.5,6.4,0.9c2,0.5,3.9,1.1,5.9,1.5s4,0.7,6,1c4.1,0.7,8.2,1.8,12.3,2.3c1,0.1,2,0.2,3,0.3
	c1,0,2,0,3,0.3c2,0.6,4,1.2,6,1.7c4.1,1,8.3,1.6,12.4,2.3c2,0.3,4.1,0.7,6.1,1.1s4,0.4,6,0.7s4.1,1.2,6.1,1.6s4.3,0.8,6.4,1.2
	l13,2.5c2.1,0.4,4.3,0.8,6.4,1.2s4.2,0.3,6.2,0.7c2,0.4,4,0.9,5.9,1.6c1.9,0.5,3.9,0.9,5.9,1.2c4.3,0.8,8.5,1.7,12.8,2.4
	s8.5,0.6,12.5,2c4.1,1.2,8.3,2.2,12.5,2.8c4.2,0.9,8.4,1.7,12.7,2.2c2.1,0.1,4.1,0.3,6.1,0.8c2,0.6,3.9,1.2,5.9,1.6
	c4.3,0.9,8.6,1.7,12.9,2.4c2.1,0.4,4.2,0.8,6.3,1.1c2,0.3,4,0.4,5.9,0.7s4.1,1,6.1,1.5s4.2,0.9,6.2,1.3c4.2,0.8,8.5,1.5,12.8,2.3
	c2,0.5,4.1,0.8,6.2,1c1,0.1,2-0.1,3,0.1c1.1,0.3,2.1,0.6,3.1,1c3.8,1.2,7.9,1.6,11.8,2.4c4.3,0.9,8.5,1.7,12.8,2.4
	c2,0.3,4,0.4,5.9,0.6c2.1,0.4,4.1,0.9,6.2,1.5c4.1,1.1,8.4,1.8,12.6,2.6c4.1,0.9,8.3,1.6,12.5,2.1c2,0.1,4.1,0.3,6.1,0.8
	c1.9,0.5,3.8,1.2,5.8,1.7c4.2,1,8.5,1.7,12.8,2.5c4.1,0.8,8.3,1.4,12.5,1.8c4.1,0.3,7.7,2,11.7,2.7c4.3,0.8,8.6,1.6,12.9,2.4
	c2,0.4,4,0.8,6,1.2c1.9,0.3,3.8,0.5,5.8,0.6c1.9,0.1,3.8,0.4,5.5,1c0.9,0.4,1.9,0.7,2.8,0.8l3.2,0.6c4.3,0.8,8.6,1.6,12.8,2.4
	l6.4,1.2c1.8,0.4,3.7,0.7,5.6,0.8c1.8,0,3.6,0.1,5.4,0.6c0.8,0.4,1.7,0.7,2.6,1l3.4,0.7c4.2,0.8,8.4,1.6,12.5,2.5l6.5,1.2
	c2.1,0.5,4.2,0.8,6.3,0.9c2,0,3.9,0.3,5.8,0.9c1.9,0.7,3.9,1.3,5.9,1.8c4.2,0.8,8.4,1.5,12.6,2.3c4.2,1,8.4,1.7,12.7,2.2
	c2.1,0,4.1,0.3,6.2,0.7c1.9,0.5,3.8,1.2,5.8,1.7c4.2,1.1,8.7,1.7,13,2.5c4.2,0.8,8.3,1.7,12.5,2.2c1.9,0.2,3.9,0.4,5.8,0.6
	s3.6,1.1,5.4,1.6s3.8,0.8,5.7,1.2c1.5,0.3,3.4,0.5,3.7,2.4c0.2,2,0.1,4-0.1,6c-0.1,2.1-0.2,4.3-0.2,6.4
	C1333.4,621.3,1333.6,615.5,1333.4,619.5z"/>
<path d="M392.9,447c1.6,0.9,3.3,1.7,5,2.3c0.6,0.3,1.3,0.3,1.9,0c0.3-0.3,0.6-0.7,0.9-1.1c0.4-0.4,0.8-0.8,1.3-1.2
	c1.9-1.4,3.6-3,5.3-4.6c0.7-1,1.4-1.9,2.3-2.8c1.2-0.9,2.4-1.7,3.6-2.5s2.6-1.7,3.8-2.6c1-0.7,2.4-1.5,2.7-2.8
	c0.1-1.2-0.2-2.5-1.1-3.4c-0.9-1-2.3-0.8-3.5-0.5c-3,0.7-5.9,2-8.9,2.9l-9,3c-1.5,0.4-3,1-4.4,1.7c-1.3,0.8-1.3,2.3-1.2,3.7
	c0.2,1.6,0.2,3.2,0,4.8c-0.3,0.6-0.3,1.4-0.1,2C392,446.3,392.4,446.7,392.9,447C394.8,447.9,392.1,446.6,392.9,447z"/>
</svg>
