<svg id="Layer_1" data-name="Layer 1" xmlns="http://www.w3.org/2000/svg" viewBox="0 0 1920 1080"><title>Cam_01_CloseCower_K_Mask_Belts</title><path d="M1370.44,571.2a15.05,15.05,0,0,0-3-1.33l-8.6-3.79-1.52-.27-4.47-.79-7.26-1.29-9.9-1.76-12.39-2.2-14.73-2.62-17-3-19-3.37-20.85-3.7-22.59-4L1205,538.77l-25.6-4.54-26.88-4.77-28-5-29-5.15L1065.68,514l-30.5-5.41-31-5.51-31.5-5.59L941,491.92l-31.7-5.63-31.62-5.61-31.39-5.57-31-5.5-30.48-5.41L755,458.91l-29-5.14-28-5L671.28,444l-25.55-4.54-24.11-4.28-22.52-4-20.78-3.69-18.89-3.35-16.84-3-14.65-2.6-12.3-2.18-9.81-1.74-7.16-1.27-4.36-.77-1.41-.25,0.23,3a3.29,3.29,0,0,0,.09,1.14,1,1,0,0,0,.15,0,3,3,0,0,0,.91.16l4.19,0.75,7.21,1.29,10.09,1.8,12.73,2.28,15.23,2.72,17.62,3.15L581,432.22l21.77,3.89,23.59,4.21,25.08,4.48,26.71,4.77,27.92,5,29,5.19,30.09,5.38,30.69,5.48,31.48,5.63,31.92,5.7,32,5.72,32.28,5.77,32.1,5.74,31.85,5.69,31.52,5.63,30.73,5.49,30.15,5.39,29.2,5.22,27.92,5,26.8,4.79,25.26,4.51,23.63,4.22,21.9,3.91,19.8,3.54,17.77,3.17,15.44,2.76,12.86,2.3,10.27,1.84,7.41,1.32,4.4,0.79a4.58,4.58,0,0,1,1,.18,1.23,1.23,0,0,1,.21,0h0c0.2,0.16.1,0.69,0.3,0.85a1.45,1.45,0,0,0,.36.07,34.38,34.38,0,0,0,4.63.83l7.56,1.35c4.05,0.72,8.1,1.54,12.16,2.18,1.92,0.3,3.91.05,5.85,0.36a16.48,16.48,0,0,1,3.22.85c0.54,0.2,1.06.53,1.6,0.68s1.27,0.22,1.89.33l11.63,2-1.31-1.62A9.91,9.91,0,0,0,1370.44,571.2Z"/><path d="M1443.91,510.84a19.07,19.07,0,0,0-3.35-1.42l-7.92-3.34-1.61-.26-4.69-.76-7.66-1.24-10.38-1.68L1395.24,500l-15.43-2.5L1362,494.64l-19.9-3.22-21.87-3.54L1296.58,484l-25.26-4.09-26.91-4.36L1216.33,471l-29.42-4.77-30.26-4.9-31.29-5.07-31.8-5.15L1061,445.86l-32.7-5.3-33-5.35-33.05-5.36-32.95-5.34-32.68-5.3L864.52,414l-31.75-5.15-30.81-5L771.87,399,743,394.33l-27.78-4.5L689,385.58l-24.82-4-23-3.72-21.17-3.43-19.14-3.1L584,368.56l-14.59-2.36-12-2-9.44-1.53-6.56-1.06-3.59-.58a3,3,0,0,0-.61-0.1,4.86,4.86,0,0,0-1.15.38l-5.77,2,1.71,0.28,5,0.81,8.1,1.32,11,1.79,13.74,2.24,16.31,2.66,18.69,3,20.9,3.4,22.93,3.73,24.78,4L699.84,391l28,4.57,29.37,4.78,30.43,5,31.39,5.11,32.18,5.24L884,421l33.22,5.41,33.47,5.45,33.55,5.46,33.45,5.45,33.27,5.42,32.71,5.33,32.17,5.24,31.26,5.09,30.28,4.93,29.11,4.74,27.76,4.52,26.24,4.27,24.54,4,22.67,3.69,20.67,3.37,18.37,3,16,2.61,13.37,2.18,10.6,1.73,7.66,1.25,4.54,0.74a4.3,4.3,0,0,1,1,.17,1.07,1.07,0,0,1,.21,0s0,0.07.05,0.15c0.45,0.62-.1.73,0.64,0.89,4.38,0.91,8.86,1.47,13.27,2.21l7.31,1.21c0.94,0.16,1.9.39,2.85,0.45,1.72,0.12,3.6-.24,5.29.12s3.43,1.2,5.2,1.6c3.66,0.82,7.48,1.21,11.18,1.8A12.2,12.2,0,0,0,1443.91,510.84Z"/><path d="M1507.32,458.34A21.29,21.29,0,0,0,1504,457l-7.19-3-1.53-.23-4.5-.67-7.31-1.09-10-1.48-12.47-1.86-14.82-2.2-17-2.53L1410.2,441l-20.95-3.12-22.68-3.38-24.26-3.61-25.61-3.81-27-4-28.08-4.18-29.05-4.32-29.77-4.43-30.53-4.54-31-4.62-31.39-4.67-31.59-4.7-31.64-4.71-31.54-4.69-31.28-4.65L953,373l-30.3-4.51-29.58-4.4-28.71-4.27-27.68-4.12-26.5-3.94L785.11,348l-23.68-3.52-22-3.28-20.19-3-18.31-2.72-16.21-2.41-14-2.08-11.55-1.72-9-1.34-6.27-.93-3.4-.51a3,3,0,0,0-.57-0.08,5.63,5.63,0,0,0-1.3.43l-5.45,1.88,1.63,0.24,4.75,0.71,7.73,1.16,10.52,1.58,13.1,2,15.65,2.34,17.83,2.67,19.93,3,22,3.3L770,349.21,795.33,353l26.76,4L850,361.19l29.21,4.37,30,4.49,30.8,4.61,31.39,4.7,31.71,4.75,32.05,4.8,32.13,4.81,31.94,4.78,31.87,4.77,31.25,4.68,30.74,4.6,30,4.49,28.94,4.33,28,4.19,26.55,4,25.11,3.76,23.64,3.54,21.71,3.25,19.82,3,17.69,2.65,15.34,2.3,13,1.94L1453,451.5l7.47,1.12,4.49,0.67a4.94,4.94,0,0,1,1.07.16,1.14,1.14,0,0,1,.24,0,5.14,5.14,0,0,0,.29.77,5,5,0,0,0,1.52.23l2.81,0.42,7.55,1.14,7.25,1.09c1.12,0.17,2.26.43,3.39,0.51,1.64,0.12,3.39-.31,5-0.05,1.41,0.22,2.73,1,4.14,1.31,3.59,0.74,7.29,1.12,10.91,1.68A9.81,9.81,0,0,0,1507.32,458.34Z"/><path d="M1562.35,412.68c-1-.53-2.19-0.89-3.26-1.33l-6.45-2.63-1.47-.2-4.3-.59-7-1-9.53-1.31L1518.42,404l-14.18-2L1488,399.81l-18.24-2.51-20-2.76-21.71-3-23.22-3.2L1380.16,385l-25.81-3.55-26.89-3.7-27.81-3.83-28.6-3.94-29.14-4-29.72-4.09-30.06-4.14-30.26-4.17-30.3-4.17-30.11-4.15-30-4.13L1031.94,337l-29-4-28.35-3.9L947,325.33l-26.54-3.65-25.41-3.5L871,314.85l-22.72-3.13-21.16-2.91-19.45-2.68L790,303.71l-15.58-2.15L761,299.72l-11.13-1.53-8.69-1.2-6.09-.84-3.36-.46a3.14,3.14,0,0,0-.59-0.08,2.48,2.48,0,0,0-.62.2l-5.19,1.87,10.25,1.43,24.76,3.45,30.27,4.22,26.79,3.73,14.31,2a2.14,2.14,0,0,0,.82,0c0.79-.15,1.55-0.7,2.35-0.77a16.11,16.11,0,0,1,3,.33c0.43,0,2,0,2.25.28s-0.09,1.11.17,1.36a1,1,0,0,0,.17,0,3.58,3.58,0,0,0,1,.14l1.88,0.26,6.28,0.87,9.45,1.31,12.4,1.72,15.13,2.09,17.64,2.44,19.93,2.76,22,3,23.84,3.3,25.47,3.53,26.88,3.72,28.06,3.88,29,4,29.78,4.12,30.3,4.19,30.61,4.24,30.7,4.25,30.56,4.23,30.21,4.18,29.63,4.1,28.84,4L1348,384l26.59,3.68,25.13,3.48,23.46,3.25,21.56,3,19.44,2.69,17.11,2.37,14.55,2,11.77,1.63,8.78,1.22,5.56,0.77a6.35,6.35,0,0,1,2.12.29c0.11,0.11,0,.45.09,0.56a2.58,2.58,0,0,0,.84.12l5.33,0.74,13.78,1.9a9.68,9.68,0,0,0,2.36.17,16.33,16.33,0,0,1,5.21.39c0.86,0.2,1.58.63,2.38,0.9a9.89,9.89,0,0,0,1.7.23l3.27,0.43,5,0.66A6,6,0,0,0,1562.35,412.68Z"/><path d="M1610.76,372.45c-0.94-.48-2-0.8-3-1.2l-5.66-2.29-1.41-.18-4.13-.53-6.7-.86-9.17-1.18-11.4-1.46L1555.68,363l-15.61-2-17.48-2.24-19.28-2.47-20.74-2.66-22.33-2.86-23.57-3-24.74-3.17-25.86-3.32-26.66-3.42L1332,334.31l-28.12-3.61-28.39-3.64-28.91-3.71-29-3.72-29.05-3.73-29.05-3.73-28.62-3.67-28.44-3.65-27.83-3.57-27.17-3.49-26.47-3.39-25.44-3.26L971.12,288l-23.14-3-21.79-2.79-20.35-2.61-18.64-2.39-16.86-2.16-15-1.92-12.83-1.65-10.71-1.37-8.33-1.07-5.85-.75-3.23-.41a2.93,2.93,0,0,0-.57-0.07,2.13,2.13,0,0,0-.52.17l-5,1.83,1.49,0.19,4.34,0.56,7.09,0.91,9.62,1.24,12,1.55,14.27,1.84,16.35,2.11,18.29,2.36,20.07,2.59L933.63,286l23.09,3,24.57,3.17,25.56,3.29,26.74,3.45,27.41,3.53,28.3,3.65,28.75,3.7,29.14,3.75,29.37,3.78,29.45,3.79,29.37,3.78,29.14,3.76,28.85,3.72,28.12,3.62,27.61,3.56,26.57,3.42,25.75,3.32,24.5,3.16,23.18,3,21.71,2.8,20.09,2.59,18.31,2.36,16.38,2.11,14.33,1.85,12,1.55,9.67,1.25,7.06,0.91,4.4,0.57a4.71,4.71,0,0,1,1.51.19c0.47,0.32.1,0.43,0.6,0.58a11.7,11.7,0,0,0,1.67.21l6.19,0.78,12.18,1.54a25.78,25.78,0,0,0,3.25.09,6.61,6.61,0,0,1,1.85.14c0.85,0.23,1.7.54,2.56,0.71,3,0.6,6.22.79,9.29,1.18A5,5,0,0,0,1610.76,372.45Z"/><path d="M1654.48,337l-4.41-1.76a37.57,37.57,0,0,0-4.41-1.76c-0.11,0-.23,0-0.34,0-0.9-.14-1.82-0.22-2.73-0.33l-5.34-.64-7.81-.93-10.1-1.21L1607,328.81l-14.32-1.71-16.27-1.95-18-2.16-19.59-2.35-21.22-2.54-22.42-2.68-23.7-2.84-24.76-3L1421,306.54l-26.47-3.17-27-3.23-27.72-3.32-27.88-3.34-28.2-3.38-28.29-3.39-28.13-3.37L1199.13,280l-27.6-3.3-27.22-3.26-26.6-3.18-25.84-3.09-24.94-3-23.82-2.85-22.72-2.72L999,256l-19.94-2.39-18.34-2.2-16.54-2-14.77-1.77-12.65-1.51-10.54-1.26-8.23-1-5.79-.69-3.21-.38a3.32,3.32,0,0,0-.58-0.07,1.93,1.93,0,0,0-.35.1c-1.64.43-3.24,1.15-4.84,1.72l9.33,1.12,22.55,2.7L943,251.74l25.27,3,14.57,1.74a4.47,4.47,0,0,0,1.05.13c0.26,0,.42-0.33.68-0.39a8,8,0,0,1,2.25.21l1.6,0.15a3.71,3.71,0,0,1,1.15.11c0.22,0.14.13,0.58,0.33,0.73a1.19,1.19,0,0,0,.15,0,9.65,9.65,0,0,0,2.68.32l5.82,0.7,8.73,1,11.44,1.38,14,1.68,16.27,2,18.38,2.21,20.36,2.45,22,2.64,23.49,2.82,24.87,3,25.87,3.11,26.76,3.22,27.54,3.31,27.93,3.36,28.21,3.39,28.38,3.41,28.15,3.38,27.82,3.34,27.38,3.29,26.64,3.2,25.51,3.07,24.54,3,23.19,2.79,21.55,2.59,19.8,2.38,17.9,2.15,15.67,1.88,13.31,1.6,10.77,1.3,8,1,5,0.6a5.41,5.41,0,0,1,1.81.22,3.89,3.89,0,0,0,.28.57,4,4,0,0,0,1.23.15l5.4,0.64L1639.1,336c0.83,0.1,1.63.18,2.46,0.2a14.79,14.79,0,0,1,2.12.09c0.76,0.13,1.49.42,2.24,0.56,3,0.56,6.17.75,9.24,1.12Z"/></svg>