<?xml version="1.0" encoding="utf-8"?>
<!-- Generator: Adobe Illustrator 19.2.0, SVG Export Plug-In . SVG Version: 6.00 Build 0)  -->
<svg version="1.1" id="Layer_1" xmlns="http://www.w3.org/2000/svg" xmlns:xlink="http://www.w3.org/1999/xlink" x="0px" y="0px"
	 viewBox="0 0 1920 1081.6" style="enable-background:new 0 0 1920 1081.6;" xml:space="preserve">
<title>Mask_Optical_sistem</title>
<path d="M689.2,373.5c0,2.2,0.2,4.4,0.3,6.5c0.1,2,0.1,4-0.3,5.9c-0.2,1-0.6,2-1,2.9c-0.4,0.9,0.3,1.9,0.6,2.8
	c0.7,2,0.8,4.2,0.8,6.3c-0.1,2.5-0.4,5-0.1,7.5c-2.2,0-4.3-0.1-6.5,0.2c-1.5,0.2-3.1,0.7-4.3,1.7c-1.3,1.1-2,2.6-2.5,4.2
	c-0.4,1.2-0.6,2.5-1,3.7c-0.4,1.5-0.7,3-1.1,4.5c-1.4,6.1-2.8,12.1-4.2,18.2c-1.4,6.1-2.8,12.1-4.2,18.2c-1.4,6.1-2.8,12.1-4.2,18.2
	l-4.2,18.2l-4.2,18.2c-1.4,6.1-2.8,12.2-4.2,18.2c-0.7,3-1.3,6-2.1,8.9c-0.2,0.7-0.4,1.4-0.6,2.2c0,0.2-0.1,0.3-0.1,0.5
	c-0.1,0.2,0,0.1-0.2,0.1c-0.1,0-0.1,0-0.2-0.1c-0.2-0.1-0.4-0.2-0.5-0.4c-0.5-0.6-0.3-1.5-0.3-2.2c-0.1-1.5,0-3,0-4.5v-4.7
	c0-3.1,0-6.2,0-9.3c0-6.2,0-12.5,0-18.7s0-12.5,0-18.7s0-12.5,0-18.7c0-6.3,0-12.5,0-18.7c0-6.2,0-12.5,0-18.7c0-6.2,0-12.5,0-18.7
	v-9.3c0-1.6-0.1-3.2,0.1-4.8c0.1-1,0.4-1.9,1.1-2.6c0.9-0.9,2.1-1.4,3.3-1.8c2.4-1,4.8-1.8,7.2-2.7c2.9-1.1,5.8-2.2,8.7-3.3
	l17.4-6.7C684.7,374.9,687,374.2,689.2,373.5C689.1,379.3,686.7,374.3,689.2,373.5z"/>
<path d="M734.7,234.8V115.2c0-2.1,0.1-4.2,0-6.3c-0.2-3.8-1-7.5-2.4-11c-0.4-0.9-0.8-1.8-1.2-2.7c-0.1-0.2-0.2-0.4-0.3-0.6
	c-0.1-0.2-0.2-0.4-0.3-0.6c-0.1,0-0.2,0.1-0.3,0.1l-0.4,0.1c-0.3,0-0.6,0.1-0.9,0.1c-2,0.1-4,0.1-6-0.3c-2-0.3-3.9-0.7-5.9-1.1
	c-1.5-0.3-3.2-0.7-4.8-0.4c-0.8,0.2-1.5,0.5-2.1,1c-0.2,0.1-0.3,0.3-0.5,0.4c-0.1,0.1-0.2,0.2-0.3,0.2c-0.1,0.1-0.2,0.2-0.2,0.3
	c0,0.2,0,0.5,0,0.7v37.2c0,0.1,0,0.2-0.1,0.3c-0.2,0.2-0.4,0.3-0.6,0.5c-1.5,0.9-3.1,1.3-4.8,1.5c-0.8,0.1-1.6,0.2-2.4,0.4
	c-0.4,0.1-0.8,0.2-1.1,0.3c-0.1,0.1-0.3,0.1-0.4,0.1c-0.1-0.1-0.1-0.1-0.1-0.2c-0.2-0.2-0.3-0.4-0.4-0.6c-0.7-1.5-0.4-3.2-0.4-4.8
	c0-8.5,0-17,0-25.5c0-2.1,0-4.2,0-6.3c0-1.9,0.1-3.8-0.6-5.7c-0.2-0.4-0.4-0.8-0.5-1.2c-0.1-0.4-0.2-0.9-0.2-1.3c0-0.9,0-1.7,0-2.6
	c0-1.3,0.4-2.7,1-3.9c1.2-2.3,3.4-3.7,5.9-4.1c0.7-0.1,1.5-0.1,2.2-0.1c0.9,0,1.8,0,2.6,0.1c0.8,0.1,1.6,0.3,2.4,0.7
	c0.8,0.5,1.7,0.9,2.6,1.2c1.8,0.6,3.6,1,5.5,1.3c1.8,0.3,3.6,0.6,5.3,1.1s3.5,0.9,5.3,1.3l1.4,0.4l0.7,0.2c0.1,0,0.2,0.1,0.3,0
	c0.1,0,0.2-0.1,0.3-0.2c0.7-0.3,1.4-0.6,2.1-0.8c3-0.8,6.2-0.1,8.7,1.8c2.1,1.7,2.9,4.2,2.9,6.8c0,2,0.1,4,0.1,6.1c0,1-0.1,2-0.3,3
	c-0.2,1-0.5,2-0.7,2.9c-0.4,1.9-0.1,3.9-0.1,5.8c0,2.1,0,4.2,0,6.3c0,8.5,0,17,0,25.5c0,8.5,0,17.1,0,25.6c0,8.5,0,17.1,0,25.6
	c0,8.5,0,17,0,25.5v6.4c0,1.9,0.1,3.8-0.1,5.7c-0.1,0.9-0.1,1.9-0.6,2.7c-0.4,0.7-1.2,1-1.9,1.1
	C740.4,235.8,737.6,235.2,734.7,234.8C734.7,231.5,737.2,235.1,734.7,234.8z"/>
<path d="M802.7,393.8v9.8c0,0.2,0.1,0.4-0.2,0.5c-0.1,0.1-0.3,0.2-0.5,0.2c-0.4,0.1-0.8,0.2-1.1,0.3c-0.7,0-1.4,0-2.1-0.1
	c-1.6-0.2-3.1-0.4-4.7-0.6c-6.7-0.8-13.4-1.7-20.2-2.5l-10.1-1.3l-5.1-0.6c-1.6-0.2-3.2-0.5-4.8-0.6c-0.7-0.1-1.5,0-2.2,0
	c-0.8,0.1-1.6,0.3-2.4,0.5c-1.6,0.3-3.2,0.2-4.7,0c-1.6-0.3-3.1-0.7-4.6-1.2c-1.1-0.4-2.1-0.9-3-1.6c-1.7-1.4-3-3.3-3.5-5.4
	c-0.3-1.1-0.4-2.3-0.3-3.5c0-0.6,0.1-1.2,0.2-1.8c0-0.3,0.1-0.5,0.2-0.8c0.2-0.3,0.4-0.5,0.7-0.7c1.8-1.7,2-4,1.9-6.4
	c-0.1-3-0.1-5.9-0.1-8.9v-91.5c0-1.7,0-3.4,0-5c-0.1-1.5-0.1-3,0-4.5c0.1-0.8,0.2-1.6,0.4-2.4c0-0.1,0-0.2,0.1-0.2
	c0.1-0.2,0-0.1,0.2-0.1h5.4c0.2,0,0.4,0,0.6,0c0.1,0.1,0.3,0.3,0.3,0.5c0.8,1.2,0.9,2.5,0.9,3.9c0,0.6-0.1,1.3-0.1,2
	c0,0.8,0,1.6,0,2.4c0,6.8,0,13.6,0,20.3c0,6.8,0,13.6,0,20.3V382c0,0.1,0,0.2,0,0.3c0.1,0.1,0.2,0.2,0.3,0.2
	c0.6,0.4,1.3,0.7,1.9,1.1c2.5,1.5,5.2,2.6,7.9,3.5c3,0.9,6.2,1.1,9.3,1.5c3.4,0.4,6.7,0.8,10.1,1.2c6.7,0.8,13.4,1.7,20.1,2.5
	l4.8,0.6c0.8,0.1,1.5,0.2,2.3,0.3C801.4,393.4,802,393.6,802.7,393.8C802.7,397.2,801.8,393.5,802.7,393.8z"/>
<path d="M917.9,405.8c0.5,0.2,0.9,0.5,1.3,0.7c0.5,0.2,1,0.3,1.5,0.3c1.3,0.2,2.6,0.3,3.8,0.5c2.5,0.3,5.1,0.6,7.6,0.9
	c2,0.3,4,0.6,6,0.3c1.7-0.3,3.2-1,4.5-2.1c0.8-0.7,1.5-1.4,2.1-2.3l0.3-0.4c0,0,0.1-0.1,0.1-0.1c0.1-0.1,0-0.1,0.2-0.1
	c0.3,0.1,0.6,0.2,0.9,0.4l1.9,0.9l-1.5,2.6l-0.3,0.6c-0.1,0.1-0.1,0.2-0.2,0.3c0.1,0.1,0.2,0.2,0.3,0.3c0.4,0.4,0.7,0.8,1.1,1.2
	c1.5,1.5,2.8,3.2,3.8,5.1c0.4,0.8,1,1.7,1,2.6c0,0.4-0.1,0.8-0.2,1.2c-0.2,0.4-0.4,0.7-0.7,1c-1.2,1.5-2.5,3.1-4.2,4
	c-1.6,0.8-3.4,1-5.1,0.5c-2.1-0.6-4.3-1.1-6.5-1.4c-4.3-0.7-8.7-1.2-13.1-1.6c-2.2-0.2-4.4-0.5-6.6-0.8c-1.1-0.1-2.2-0.3-3.2-0.5
	c-1-0.2-2-0.3-3-0.3c-1,0-2,0.2-3,0.6c-0.4,0.2-0.8,0.4-1.3,0.5c-0.4,0.1-0.8,0.1-1.2,0.1c-0.8-0.1-1.6-0.3-2.4-0.8
	c-0.8-0.5-1.7-0.8-2.6-1c-0.5-0.1-0.9-0.1-1.4-0.1c-0.5,0.1-1,0.2-1.4,0.4c-0.8,0.2-1.4-0.5-1.9-0.9c-1.3-1-2.8-1.4-4.4-1.8
	c-1.5-0.3-3.1-0.6-4.6-1.2c-0.8-0.3-1.5-0.7-2.1-1.2c-0.1-0.1-0.1-0.1-0.2-0.2c-0.1-0.1-0.3-0.1-0.4-0.1l-0.9-0.2l-1.7-0.3
	c-2.2-0.4-4.5-0.8-6.7-1.2c-2.2-0.3-4.6-0.6-6.9-0.9c-4.5-0.6-9.1-1.2-13.6-1.8c-4.6-0.6-9.1-1.2-13.7-1.7l-6.8-0.8
	c-1.6-0.2-3.7-0.4-4.1-2.3c-0.2-0.8,0-1.7,0.4-2.4c0.4-0.8,1.1-1.4,1.9-1.9c1.6-0.9,3.5-1,5.2-0.8c4.6,0.5,9.2,1.2,13.7,1.8
	c4.6,0.6,9.2,1.1,13.7,1.8c4.5,0.6,8.9,1.1,13.4,1.4c2.2,0.2,4.3,0.1,6.5-0.1c1.1-0.1,2.2-0.3,3.2-0.6c0.5-0.2,1-0.3,1.5-0.4
	c0.5-0.1,1-0.1,1.5-0.1c1,0.1,1.9,0.3,3,0.3c0.9,0,1.8-0.2,2.7-0.6c0.9-0.4,1.7-1,2.6-1.3c0.8-0.4,1.7-0.6,2.6-0.7
	c1.8-0.1,3.6,0.3,5,1.3c0.7,0.5,1.4,1,2,1.6c0.3,0.3,0.6,0.6,1,0.9c0.7,0.5,1.6,0.6,2.5,0.6c0.8,0,1.6,0,2.4-0.1c0.1,0,0.2,0,0.3,0
	c0.1-0.1,0.2-0.2,0.2-0.3l0.3-0.6l0.7-1.3l0.7-1.3l0.4-0.7c0.1-0.2,0.2-0.6,0.4-0.7c0.2,0,0.4,0,0.5,0l0.6,0l1.5,0.1
	C918.6,402.4,918.3,404.1,917.9,405.8C918.8,406.2,918.1,404.9,917.9,405.8z"/>
<path d="M677.4,453.3l6.4,1.1c0.3,0,0.5,0.1,0.8,0.1c0.1,0,0.1,0,0.1,0.1c0,0.1,0.1,0.1,0.1,0.2c0,0.1,0.1,0.3,0.1,0.4
	c0.2,0.5,0.3,1,0.5,1.4c0.3,1,0.3,2,0.3,3c0,4.6,0,9.2,0,13.8c0,4.6,0,9.2,0,13.7c0,4.6,0,9.2,0,13.8c0,1,0.1,2-0.1,2.9
	c-0.1,0.5-0.2,0.9-0.3,1.3c-0.1,0.2-0.1,0.1-0.3,0.2l-0.4,0.1c-0.3,0-0.5,0.1-0.8,0.1c-1.1,0.2-2.1,0-3.2-0.2
	c-1.1-0.1-2.2-0.3-3.4-0.5c-2.2-0.3-4.5-0.7-6.7-1.1c-1.1-0.2-2.5-0.4-3.5-1.1c-0.7-0.5-0.9-1.3-0.8-2.1c0.1-1.7,0.6-3.3,1-4.9
	c1-4.4,2-8.9,3-13.3c1-4.4,2-8.9,3-13.3c0.5-2.2,1-4.4,1.5-6.6c0.3-1.1,0.5-2.2,0.8-3.3c0.2-1,0.5-2.1,0.8-3.1
	C676.6,455.1,677.1,454.2,677.4,453.3C680,453.8,676.9,454.7,677.4,453.3z"/>
<path d="M741,249.3c0.3,2,0.5,4.1,0.5,6.1c0,1-0.1,1.9-0.2,2.9c0,0.2-0.1,0.5-0.1,0.7c0,0.3,0,0.5-0.1,0.7c-0.2,0-0.5,0-0.7,0h-3
	c-0.1,0-0.3,0-0.4,0c-0.1-0.1-0.2-0.3-0.2-0.4L736,256l-0.8-3.3l-0.4-1.6l-0.1-0.4c0-0.2,0-0.2,0.1-0.3c0.1-0.1,0.3-0.3,0.4-0.4
	c0.3-0.2,0.6-0.2,0.9-0.2l1.4-0.1L741,249.3C741.6,253.3,738.8,249.5,741,249.3z"/>
</svg>
