<?xml version="1.0" encoding="utf-8"?>
<!-- Generator: Adobe Illustrator 19.2.0, SVG Export Plug-In . SVG Version: 6.00 Build 0)  -->
<svg version="1.1" id="Layer_1" xmlns="http://www.w3.org/2000/svg" xmlns:xlink="http://www.w3.org/1999/xlink" x="0px" y="0px"
	 viewBox="0 0 1920 1081.6" style="enable-background:new 0 0 1920 1081.6;" xml:space="preserve">
<title>Mask_Element_cower</title>
<path d="M889.2,275.2c-1.3,0-2.6,0.2-3.9,0.7c-0.7,0.3-1.4,0.6-2.1,0.9c-0.3,0.1-0.7,0.2-1,0.4c-0.1,0.5-0.1,1,0,1.4
	c-0.1,3.3-0.2,6.6-0.2,9.9v21.1c0,14,0.2,27.9,0.2,41.9s-0.1,27.9-0.1,41.8v21.1c0,7-0.2,14.1,0.2,21.1c0.3,3.3,0.4,6.6,0.3,9.9
	c-0.2,3.4-0.4,6.8-0.5,10.2c-0.1,7.1,0,14.1,0,21.3v20.9c0,7-0.3,14,0.3,21c0.2,3,0.2,6.1,0.1,9.1c0.2,2.6-0.4,5.2-1.7,7.4
	c-0.8,0.9-1.3,2-1.5,3.2c0,0.6-0.1,1.3-0.2,1.9c-0.3,0.7-0.8,1.2-1.5,1.5c-2.6,1.7-5.7,1.8-8.6,2.2c-13.9,1.9-27.8,3.8-41.7,5.5
	l-20.7,2.6c-6.8,0.9-13.7,2.1-20.6,2.6c-13.9,0.9-27.9,1.2-41.8,1.7l-5.1,0.2c-1.7,0.2-3.4,0.2-5.1,0.1c-0.7,0-1.3-0.2-1.8-0.8
	c-0.3-0.6-0.5-1.2-0.5-1.9c-0.1-1.5-0.1-2.9,0-4.4V434.1c0.2-3.3,0-6.6-0.5-9.9c-0.8-3.2-1.9-6.3-3.3-9.3l-3.9-9.7
	c-5.2-12.9-10.3-25.7-15.6-38.5c-2.5-6.1-5.3-11.9-5.8-18.6s-0.1-13.8-0.1-20.6V158.3c0-6.5,0-12.9,0.2-19.4c4.3,0.3,8.6,0.9,12.9,2
	c4.4,0.9,8.8,1.6,13.2,2.5c9.2,1.7,18.5,3.5,27.8,5.3c2.1,0.5,4.2,0.8,6.4,0.9c2.4-0.2,4.7-0.7,7-1.4c4.7-1.1,9.3-2.2,14-3.3
	l6.4-1.4c2-0.3,4-0.8,6-1.5c0.7-0.3,1.3-0.8,1.8-1.4c0.3-0.3,0.5-0.8,0.7-1c0.3-0.2-0.2-0.3,0.8-0.3c2.4,0.2,4.8,0.7,7.2,1.5
	c8.6,2.3,17.2,4.4,25.7,7.2c8.5,2.7,17,6.3,25.5,9.8c8.4,3.5,17.2,6.9,25.8,10.3c3.1,1.2,6.8,2.2,9.1,4.9c2.3,2.7,2.5,6.7,2.8,10
	c0.1,0.9,0.1,1.8,0,2.7c-0.3,1-0.5,2-0.7,3c-0.1,2.2,0.1,4.6,0.1,6.7v148.3c0,2.2,0.6,4.2,0.8,6.3c0,2.2-0.2,4.5-0.6,6.7
	c-0.2,2.4-0.2,4.7-0.2,7.1c0,4.6,0,9.2,0,13.8c0,4.8,0,9.6,0,14.4c0,1.6,0.5,4.1-0.5,5.5c-0.8,1.3-2.3,2-3.9,1.8
	c-0.7-0.2-0.5-0.5-0.6-1.2c-0.1-0.7-0.1-1.2-0.2-1.8c0-1-0.1-2-0.1-3v-7.1c0.1-4.8,0-9.5,0-14.3v-55.5c0-9.3-0.2-18.6,0-27.8
	C889.9,284,889.7,279.5,889.2,275.2C888.1,275.3,890.1,281.3,889.2,275.2z M846.8,249.8c0.4-1.2,1.1-3-0.3-3.9
	c-0.8-0.4-1.7-0.6-2.7-0.7l-4.1-0.8c-5-1-10-1.8-15-2.8c-2.1-0.5-4.3-0.9-6.4-1.1c-0.5,0-3.1-0.4-3.5,0c-0.2,1-0.2,2,0,3
	c0.3,0.7,2.6,0.8,3.4,1l3.7,0.8l7.5,1.5C835.3,247.9,841.1,248.9,846.8,249.8C847.7,247.4,835.9,248.1,846.8,249.8z M815.8,217
	l16.1,3l7.9,1.5l3.9,0.7c1.1,0.4,2.3,0.4,3.4,0.1c0.8-0.3,1.4-1.1,1.3-2c-0.2-0.9-0.9-1.7-1.9-1.8c-2.6-0.7-5.3-1.3-8-1.6
	c-5.2-0.9-10.5-2.1-15.8-2.9c-0.6-0.1-1.3-0.1-1.9,0c-0.6,0.1-1.4,0.8-1.9,0.9c-0.7-0.2-1.4-0.5-2.1-0.7
	C815.4,214,815.8,216,815.8,217C825.6,218.9,815.9,213.8,815.8,217L815.8,217L815.8,217z M847,259.6c-7.3-1.9-14.8-3.3-22.3-4.3
	c-1-0.1-2.1-0.2-3-0.2h-1.3c-0.8,0-0.9,0-1,0.9c-0.2,2.4,1.5,2.5,3.4,2.9l8.2,1.6c5.7,1.1,11.5,2.2,17.2,3l-1.2-4.1
	C831.3,255.9,847.4,260.9,847,259.6L847,259.6L847,259.6z M820.6,204.4c9.3,1.4,18.5,3.9,27.9,4.8c0.1-1.1,0-2.2-0.3-3.3
	c0.1-0.4-0.1-0.6-0.6-0.5l-1.1-0.3l-1.6-0.4l-6.6-1.5c-3-0.7-6.1-1.3-9.1-1.8c-1.8-0.3-3.6-0.5-5.4-0.5h-2.2c-0.4,0-0.7,0-1.1,0.1
	c-0.3,0.3,0.1,2.7,0.2,3.3C829.9,205.9,820.5,203.1,820.6,204.4L820.6,204.4z M821,227.9c-0.6,2.2-0.2,3.5,2.1,3.9
	c2.8,0.6,5.7,1.1,8.5,1.6c5.5,1,11.1,2.1,16.7,2.9c0.2-1,0.2-2.1-0.2-3c-0.7-0.9-1.8-1.5-2.9-1.6c-2.7-0.6-5.5-1.1-8.2-1.5
	C831.7,229.2,826.4,227.9,821,227.9C820.4,230,822.5,227.9,821,227.9L821,227.9L821,227.9z M815.9,226.6c-0.8,0.7-1.7,1.2-1.4,2.5
	c0.1,0.8,0.9,1.4,1.7,1.3c0,0,0,0,0,0h0.2c0.8-0.4,1.4-1.2,1.4-2.1C817.7,227.3,816.9,226.6,815.9,226.6
	C815.6,226.9,817.7,226.8,815.9,226.6z M818.3,256l-2.2-2.4c-0.8,0.9-2.4,2.1-1,3.3C816.5,258.2,817.4,256.6,818.3,256
	C817.4,255,817.4,256.7,818.3,256z M862.9,210c-0.3-1.6-1.8-2.7-3.4-2.4c-0.4,0.1-0.8,0.2-1.1,0.5L862.9,210z M862.3,222.1
	c-0.7-0.3-0.9-0.5-1.4,0C861.6,222.6,861.6,222.7,862.3,222.1C861.9,221.9,862,222.2,862.3,222.1L862.3,222.1z M862.6,236v0.4
	c0.2,0,0.4-0.1,0.5-0.2C862.9,236.1,862.8,236,862.6,236L862.6,236L862.6,236z"/>
<path d="M891.8,533.2c-1.6-2.7-2.4-5.8-2.2-8.9V421.4c0-1.5,0.2-2.9,0.3-4.4c3.5,0.4,4.5,1,4.7,3.2c0.2,1.3,0,2.6,0.1,3.8
	c0,3.2,0.3,6.3,0.7,9.5c0.6,3-0.7,6.2-0.7,9.4c-0.1,22.6,0,45.1,0,67.7c-0.1,0.8-0.1,1.7,0,2.6c1.5,5.6,0.7,11.5-2.2,16.4
	C892.2,530.8,891.9,532,891.8,533.2z"/>
</svg>
