<?xml version="1.0" encoding="utf-8"?>
<!-- Generator: Adobe Illustrator 19.2.0, SVG Export Plug-In . SVG Version: 6.00 Build 0)  -->
<svg version="1.1" id="Layer_1" xmlns="http://www.w3.org/2000/svg" xmlns:xlink="http://www.w3.org/1999/xlink" x="0px" y="0px"
	 viewBox="0 0 1920 1081.6" style="enable-background:new 0 0 1920 1081.6;" xml:space="preserve">
<title>Mask_Element_Laser_cower</title>
<path d="M633.3,590.3V68.7c0-0.2,0-0.3,0.2-0.4c0.3-0.2,0.7-0.3,1-0.5c0.6-0.3,1.3-0.5,1.9-0.7c1.2-0.4,2.5-0.6,3.8-0.8
	c2.5-0.4,5.1-0.6,7.6-1c5.7-0.9,11.4-1.8,17.1-2.7c5.7-0.9,11.4-1.7,17.1-2.5c2.8-0.4,5.7-1,8.5-1.2c2.7-0.2,5.5-0.1,8.2,0.4
	c1.4,0.3,2.8,0.6,4.2,1l4.2,1.1c2.8,0.7,5.6,1.4,8.4,2.2c5.6,1.4,11.2,2.8,16.8,4.2c5.6,1.4,11.1,2.8,16.7,4.3
	c5.4,1.5,10.8,3.3,16.1,5.1c5.4,1.9,10.8,3.9,16.1,6c2.7,1,5.4,2,8,3.1c1.3,0.5,2.6,1,3.9,1.5s2.5,1.1,3.7,1.7
	c0.3,0.1,0.6,0.3,0.9,0.4c0.1,0,0.1,0.1,0.1,0.2c0,0.1,0,0.3,0,0.4c0,0.3,0.1,0.7,0.1,1c0.1,0.9,0.1,1.8,0.2,2.7
	c0.1,2.5,0.2,5,0.2,7.5c0.1,3.1,0.1,6.2,0.1,9.3c0,3.3,0,6.6,0,9.9c0,3.1-0.1,6.2-0.2,9.2c-0.1,2.5-0.1,4.9-0.3,7.4
	c0,0.9-0.1,1.7-0.2,2.6c0,0.3-0.1,0.6-0.1,0.9c0,0.1,0,0.3-0.1,0.4c0,0.1,0,0.1,0,0.2c0,0,0,0,0,0.1c-0.2,0.1-0.3,0.1-0.5,0.1
	c-5.5,1.3-11.1,2.6-16.6,3.9c-2.8,0.7-5.6,1.3-8.4,1.9c-1.4,0.3-2.8,0.6-4.2,0.9c-1.3,0.3-2.7,0.6-4.1,0.8c-1.3,0.2-2.7,0.1-4-0.1
	c-1.4-0.2-2.8-0.5-4.2-0.8l-8.5-1.6c-5.7-1.1-11.4-2.1-17-3.2l-17-3.3l-8.5-1.6c-1.4-0.3-2.8-0.5-4.2-0.9c-1.2-0.4-2.4-0.7-3.7-0.9
	c-1.6-0.2-3.3-0.1-4.5,1c-1.5,1.3-2.1,3.4-2.4,5.3c-0.2,1.4-0.3,2.7-0.5,4.1c-0.1,0.7-0.2,1.4-0.3,2.1c-0.1,0.7-0.1,1.4-0.3,2.1
	c-0.1,0.5-0.4,1-0.2,1.6c0.2,0.6,0.5,1.3,0.6,2c0.3,1.3,0.4,2.6,0.4,3.9c0,2.7-0.2,5.3-0.2,8c0,2.9,0,5.8,0.1,8.7
	c0,5.8,0,11.6,0,17.3c0,5.8,0,11.6,0,17.3c0,2.9-0.1,5.8,0,8.6c0,2.6,0.4,5.2,0.1,7.9c-0.1,1.3-0.5,2.6-1,3.9
	c-0.2,0.5-0.2,1.1,0,1.6c0.3,0.6,0.5,1.3,0.6,1.9c0.6,2.6,0.4,5.2,0.2,7.8c-0.1,2.8,0,5.6,0,8.4c0,2.9,0,5.8,0,8.7
	c0,5.8,0,11.6,0,17.3c0,5.8,0,11.6-0.1,17.4c0,1.4,0,2.9,0,4.3c0,1.3,0.1,2.6,0.1,3.9c0.1,2.6,0,5.2-1,7.7c-0.2,0.6-0.1,1.1,0.2,1.6
	c0.2,0.6,0.4,1.3,0.6,1.9c0.2,1.3,0.4,2.6,0.3,3.9c0,1.3-0.1,2.6-0.2,3.9c0,1.4,0,2.8,0,4.2c0,5.8,0,11.6,0,17.4
	c0,5.8,0,11.6,0,17.4c0,5.8,0,11.6-0.1,17.3c0,2.6,0.4,5.3,0.1,7.9c-0.1,0.7-0.2,1.3-0.4,2c-0.1,0.3-0.2,0.6-0.3,1
	c-0.1,0.3-0.2,0.5-0.3,0.8c0,0.5,0.2,1.1,0.4,1.6c0.2,0.6,0.3,1.2,0.3,1.9c0.3,2.7,0.4,5.3,0.2,8c-0.1,1.4-0.2,2.8-0.4,4.2
	c0,0.2,0,0.3-0.1,0.5c-0.1,0.2,0,0.1-0.1,0.1c-0.1,0-0.2,0-0.2,0l-1.1-0.1c-0.6,0-1.2-0.1-1.8-0.1c-1.8,0-3.7,0.2-5.3,1
	c-1.4,0.7-2.5,1.7-3.2,3.1c-1.1,2-1.4,4.3-2,6.4c-0.7,2.8-1.3,5.6-2,8.4c-1.3,5.6-2.6,11.3-3.9,16.9l-3.9,17l-3.9,16.9l-3.9,16.9
	l-3.9,17l-3.9,16.9l-3.9,16.9l-3.9,17l-3.9,16.9l-1.8,7.8c-0.3,1.3-0.6,2.5-0.9,3.8c-0.2,0.6-0.4,1.3-0.5,1.9l-0.1,0.4
	c0,0.1,0,0.2-0.1,0.2c-0.1,0.1,0,0.1-0.2,0.1L633.3,590.3C633.2,416.3,633.7,590.4,633.3,590.3z"/>
<path d="M685,505.6c-4.3-0.1-8.5-0.7-12.6-1.5c-1-0.2-2.1-0.4-3.1-0.6c-0.7-0.2-1.5-0.3-2.2-0.7c-1.1-0.7-1.1-2.2-0.9-3.3
	c0.9-4.3,1.9-8.6,2.9-12.9c1-4.3,2-8.6,3-12.9s2-8.6,3-12.9c0.5-2,0.9-4,1.7-5.9l0.3-0.6c0.1-0.3,0.2-0.5,0.3-0.8
	c0.1-0.1,0-0.1,0.1-0.1c0.1,0,0.1,0,0.2,0l0.4,0.1l0.9,0.1l3,0.5l1.5,0.3l0.8,0.1c0.1,0,0.2,0,0.4,0.1c0.1,0,0.2,0.2,0.2,0.3
	c0.3,0.9,0.8,1.7,0.9,2.6c0.1,1.1,0,2.2,0,3.3v41.6c0,0.5,0,1,0,1.4C685.5,504.4,685.2,505,685,505.6
	C679.2,505.5,685.3,504.5,685,505.6z"/>
</svg>
