<?xml version="1.0" encoding="utf-8"?>
<!-- Generator: Adobe Illustrator 19.2.0, SVG Export Plug-In . SVG Version: 6.00 Build 0)  -->
<svg version="1.1" id="Layer_1" xmlns="http://www.w3.org/2000/svg" xmlns:xlink="http://www.w3.org/1999/xlink" x="0px" y="0px"
	 viewBox="0 0 1920 1081.6" style="enable-background:new 0 0 1920 1081.6;" xml:space="preserve">
<title>Mask_Position_sistem</title>
<path d="M741.2,406.4c2,0.6,4.2,0.9,6.3,0.4c0.9-0.2,1.8-0.6,2.6-1.1c0.4-0.3,0.8-0.6,1.2-0.9c0.4-0.4,0.8-0.7,1.2-1
	c0.9-0.6,2-0.7,3-0.4c0.6,0.2,1.1,0.4,1.6,0.7c0.1,0.1,0.3,0.1,0.4,0.2c0.1,0.1,0.1,0.3,0.1,0.5c0.1,0.3,0.1,0.7,0.1,1
	c0.3,2.7,0,5.3,0.1,8c0.1,1-0.1,2-0.5,3c-0.5,1.1-1.3,2-2.3,2.7c1.4,0.1,2.7,0.3,4.1,0.4c1.2,0.1,2.4,0.1,3.6,0.1
	c3-0.1,5.9,0.3,8.8,1c1.4,0.4,2.8,0.8,4.2,1.1c1.4,0.3,2.8,0.2,4.2-0.4c0.7-0.3,1.5-0.3,2.1,0c0.6,0.3,1.2,0.8,1.7,1.3
	c0.5,0.5,1.1,0.9,1.7,1.1c0.3,0.1,0.7,0.1,1,0.1c0.2,0,0.3-0.1,0.5-0.1c0.3-0.1,0.7,0.1,1.1,0.1c2.9,0.5,5.8,0.9,8.7,1.1
	c3,0.2,6,0.2,9,0c0.4,0,0.7-0.1,1.1-0.1l0.5-0.1c0.1,0,0.2,0,0.2,0c0.1-0.1,0.1-0.2,0.1-0.3c0.3-0.6,0.6-1.2,0.9-1.9
	c0.2-0.6,0.3-1.3,0.2-2c0-0.8,0-1.5,0-2.3c0-1.5-0.2-2.9-0.5-4.4c-0.3-1.5-0.7-2.9-1.1-4.4c-0.7-2.9-1-5.8-1.1-8.8
	c0-0.8,0-1.5,0.1-2.3c0.1-0.7,0.1-1.4-0.1-2.1c-0.1-0.3-0.2-0.6-0.3-1c0-0.2,0-0.1-0.2-0.1c-0.1,0-0.1,0-0.2,0l-0.5,0.1
	c-0.4,0.1-0.9,0.2-1.3,0.3c-0.5,0.1-0.8,0.4-0.9,0.9c-0.1,0.5-0.1,1-0.1,1.5c0,0.7-0.1,1.5-0.1,2.2c0,0.7-0.1,1.5-0.1,2.2
	c0,0.4,0,0.7-0.1,1.1c0,0.1,0,0.2,0,0.3c-0.1,0.2,0,0.1-0.1,0.1c-0.2,0-0.4,0-0.7,0c-1.3,0.1-2.6,0-3.9-0.1l-9.4-1.2l-18.7-2.4
	l-9.4-1.2l-4.7-0.6c-1.3-0.2-2.7-0.5-4-0.1c-1.4,0.4-2.9,0.6-4.3,0.5c-1.2-0.1-2.4-0.2-3.6-0.1c-0.7,0-1.3,0.3-1.8,0.8
	c-0.5,0.6-0.6,1.4-0.7,2.2C741.1,403.6,741.2,405,741.2,406.4C745.8,407.7,741.2,405.2,741.2,406.4z"/>
<path d="M809.3,408.4c2.4-4.4,3.8-9.3,4.2-14.3c0-0.3,0-0.6,0.1-0.8c0-0.1,0-0.3,0-0.4c-0.1-0.1-0.3-0.1-0.4-0.1
	c-0.5-0.1-0.9-0.1-1.4,0c-0.8,0.1-1.4,0.5-1.8,1.2c-0.5,0.8-0.7,1.8-0.8,2.7c-0.2,1.1-0.3,2.2-0.4,3.4
	C808.6,402.8,808.8,405.6,809.3,408.4C812.2,402.9,808.5,403.2,809.3,408.4z"/>
<path d="M744.2,413.9c-3.2,0.1-3.2,0.2-1.9,3.2L744.2,413.9z"/>
<path d="M811.5,425.7l-0.1-0.4l-0.8,0.4c0.1,0.1,0.3,0.2,0.4,0.3C811.2,425.9,811.4,425.8,811.5,425.7
	C811.5,425.5,811.4,425.8,811.5,425.7z"/>
<path d="M888.3,416.8c-1.7-0.9-3.3-2-5-2.7c-1.8-0.7-3.7-1.1-5.6-1.4c-4.1-0.7-8.2-1.1-12.3-1.7c-8.3-1.1-16.6-2.1-25-3.2l-6.2-0.8
	c-1.6-0.2-3.6-0.2-4.8-1.4c-0.5-0.6-1-1.2-1.3-2c-0.2-0.4-0.4-0.8-0.6-1.2c0-0.1-0.1-0.2-0.2-0.3c-0.1-0.1-0.2-0.1-0.3-0.1h-0.8
	c-2,0-4-0.1-6,0c-1.3,0.1-2.8,0.1-3.9,0.9c-0.9,0.7-1.2,1.7-1.2,2.7c0,0.9,0,1.8,0.2,2.7c0.1,1,0.2,2,0.4,3c0.3,2,0.7,4.1,1.2,6.1
	c0.5,1.9,1,3.8,1.2,5.8c0.1,1.4,0.4,2.7,1.5,3.7c0.5,0.5,1,0.9,1.7,1.2c0.2,0.1,0.3,0.1,0.5,0.2c0.1,0.1,0.1,0.2,0.1,0.3
	c0,0.1,0,0.3,0,0.4c0,0.5,0,1.1,0,1.6c0,2.1,0,4.2,0,6.3c0,2.1,0,4.1-0.1,6.2c0,1.5-0.1,3.1,0.8,4.4c0.8,1.2,2.3,1.9,3.7,2.3
	c1.9,0.5,3.8,0.8,5.7,0.9c1,0.1,2,0.2,3,0.4c0.8,0.2,1.7,0.4,2.5,0.5c1.6,0.2,3.1,0.2,4.7-0.1c3.1-0.6,5.7-2.4,7.9-4.6
	c0.1-0.1,0.1-0.2,0.2-0.3c0-0.1,0-0.2,0-0.4l0-0.7l0.1-1.6l0.1-3.1l0.2-6.1l0.1-1.5l0-0.8v-0.4v-0.3h0.2c0.8-0.1,1.7-0.2,2.5-0.2
	c1,0.1,1.9,0.2,2.9,0.3l3.2,0.4c4.1,0.6,8.2,1.1,12.3,1.7c2.1,0.3,4.2,0.6,6.3,0.9c1.5,0.2,2.9,0.4,4.4,0.3c2.2-0.2,4-1.3,5-3.3
	c0.5-1.1,0.8-2.3,0.9-3.6c0.2-1.9,0.1-3.8,0.1-5.7C888.4,420.8,888.3,418.8,888.3,416.8C886.1,415.6,888.3,420.5,888.3,416.8z
	 M823.2,425.9c-0.6,0.1-1.2-0.4-1.4-0.9c-0.2-0.7-0.1-1.4,0.4-1.9c1.2-1.4,2.5,0.7,3.2,1.5C824.7,425,824,425.8,823.2,425.9
	L823.2,425.9L823.2,425.9z M823.2,414.8c-0.6,0.1-1.2-0.2-1.5-0.8c-0.2-0.6,0.2-1.3,0.6-1.7c0.4-0.4,0.9-0.6,1.4-0.3
	c0.6,0.4,1.2,1,1.8,1.4c-0.5,0.3-0.9,0.6-1.3,0.9C823.9,414.5,823.6,414.7,823.2,414.8L823.2,414.8L823.2,414.8z M845.3,412.6
	c0.1,0.1,0.1,0.2,0.1,0.4c0,0.1-0.4,0.2-0.5,0.2l-0.1-0.7C844.9,412.5,845.1,412.6,845.3,412.6L845.3,412.6L845.3,412.6z M845,424.5
	l-1.1-1.2l1.1-0.8c0.1,0.2,0.3,0.5,0.4,0.7c0.2,0.2,0.3,0.4,0.3,0.7C845.7,424.1,845.2,424.3,845,424.5
	C844.7,424.1,845.3,424.3,845,424.5L845,424.5z"/>
<path d="M850.2,276.6c0-2.2-0.1-4.4-0.2-6.5c0-0.9-0.1-1.9-0.2-2.8c-0.1-0.6-0.1-1.5-0.7-1.9c-0.6-0.5-1.1-1.2-1.4-1.9
	c-0.2-0.7-0.3-1.5-0.3-2.2c0-2.1,0-4.1,0-6.2c0-2.1-0.1-4.2,0-6.3c0-0.7,0.2-1.5,0.6-2.1c0.3-0.3,0.6-0.6,1-0.8
	c0.3-0.2,0.6-0.5,0.9-0.8c0.9-1.1,1.3-2.5,1-3.8c-0.2-1.6-1.2-2.8-1.7-4.3c-0.7-1.8-0.8-3.7-0.8-5.6c0-2.1,0-4.2,0-6.4
	c0-4.4,0.1-8.8,0.1-13.2c0-2.2,0-4.4,0.1-6.6c0-1.1,0-2.2,0-3.3c0-0.7,0.1-1.5,0-2.2c0-0.8-0.3-1.5-0.7-2.2
	c-0.1-0.2-0.2-0.4-0.4-0.5c-0.1-0.2-0.3-0.4-0.5-0.5c-0.2-0.1-0.5-0.1-0.7-0.1l-0.7-0.1c-1.9-0.3-3.9-0.5-5.8-0.8
	c-3.9-0.4-7.9-0.6-11.8,0c-2,0.3-3.9,0.8-5.8,1.5c-0.5,0.2-1,0.4-1.5,0.6c-0.1,0-0.3,0.1-0.4,0.2c-0.1,0.1-0.2,0.2-0.1,0.3v6.7
	c1.7-0.9,3.3-1.9,5-2.7c0.7-0.4,1.5-0.5,2.2-0.3c0.7,0.2,1.3,0.7,1.6,1.3c0.8,1.3,0.6,2.9-0.5,3.9c-1.4,1.3-3.6,0.8-5.4,1
	c-1.1,0.1-2.2,0.4-2.7,1.5c-0.3,0.6-0.5,1.3-0.5,2c0,0.4,0.1,0.9,0.3,1.3c0,0.2,0.1,0.4,0.2,0.6c0.1,0.1,0.6,0,0.7,0
	c3.9,0,7.9,0.1,11.7,1.2c0.2,0.1,0.4,0.1,0.6,0.2c0.1,0,0.2,0.1,0.3,0.2c0,0.1,0,0.3,0,0.4c0,0.5,0,1,0,1.5c0,0.4,0,0.9,0,1.3
	s0,0.8-0.2,1.2c-0.1,0.2-0.3,0.3-0.4,0.5c-0.1,0.1-0.1,0.2-0.2,0.2c-0.1,0-0.3,0.1-0.4,0.1l-1.5,0.2l-2.9,0.5l-6.1,1l-1.5,0.2
	c-0.1,0-0.2,0-0.3,0.1c0,0.1,0,0.3,0,0.4c0,0.3,0,0.6,0,0.9c0,1.1,0,2.2,0,3.2c0,2.2,0,4.3,0,6.5c0,1.7,0,3.6-0.7,5.2
	c-0.4,0.9-1.1,1.5-1.4,2.4c-0.3,0.8-0.4,1.6-0.4,2.5c0,0.9,0.1,1.7,0.3,2.6c0.1,1,0.3,2,0.4,2.9c0.3,2.1,0.5,4.3,0.5,6.4
	c0,2.2-0.1,4.3,0,6.5c0,0.9,0.1,1.7,0,2.6c0,0.8-0.1,1.5-0.1,2.3c-0.1,1.5,0,3,0.5,4.4c0.3,0.8,0.8,1.5,1.3,2
	c0.2,0.3,0.6,0.5,0.7,0.8c0.1,0.4,0.1,0.7,0.1,1.1c0,2.1,0,4.1,0,6.2c0,4.4,0,8.7,0,13.1c0,4.4,0,8.7,0,13c0,4.4,0,8.7,0,13.1
	s0,8.8,0,13.1c0,4.3,0,8.7,0,13s0,8.7,0,13.1c0,4.4,0,8.7,0,13.1c0,4.4,0,8.7,0,13c0,1.1,0,2.1,0,3.2c0,1,0,2.1-0.4,3
	c-0.1,0.2-0.2,0.5-0.3,0.7c-0.1,0.1-0.5,0.1-0.7,0.2l-1.4,0.2l-1.4,0.2l-0.4,0.1c-0.2,0-0.2,0-0.2,0.2c-0.1,0.2-0.1,0.4-0.1,0.7
	l-1.1,5.2c2.3-0.5,4.7-0.4,7.1-0.4c2.2,0,4.5,0,6.7-0.5c1.1-0.3,2.1-0.8,3.2-0.9c1.1-0.1,2.2,0.1,3.3,0.2c2.6,0.2,5.1,0.5,7.6,0.7
	l3.8,0.4l0.9,0.1l0.4,0c0.2,0,0.4,0.1,0.6,0.1c0.1-0.1,0.2-0.2,0.2-0.4c0.1-0.1,0.1-0.3,0.2-0.4c0.1-0.3,0.2-0.6,0.3-0.9
	c0.2-1.1,0.3-2.2,0.2-3.3c0-1.2-0.1-2.3-0.1-3.5c0-5.2,0-10.4,0-15.7c0-5.2,0-10.5,0-15.7c0-5.2,0-10.5,0-15.7c0-5.2,0-10.5,0-15.7
	c0-5.2,0-10.4,0-15.7s0-10.5,0-15.7c0-5.2,0-10.5,0-15.7C850.2,279.1,850.2,277.8,850.2,276.6L850.2,276.6L850.2,276.6z M831,290.1
	c0.2,0.2,0.4,0.4,0.6,0.6c0.1,0.1,0.2,0.2,0.2,0.3c0,0.2-0.1,0.4-0.2,0.6c-0.1,0.3-0.3,0.5-0.4,0.8c-0.2-0.1-0.3-0.3-0.4-0.4
	c0-0.2,0-0.4,0-0.6C830.9,291,831,290.6,831,290.1C831.5,290.6,831,290.9,831,290.1z M831.9,334.1c-0.1,0.5-0.3,1-0.6,1.5l0,0
	c-0.1-0.1-0.3-0.2-0.4-0.4c0-0.2,0-0.4,0-0.5c0-0.4,0.1-0.9,0.1-1.3C831.1,333.5,831.9,333.9,831.9,334.1L831.9,334.1L831.9,334.1z
	 M831.2,377c0.2,0.2,0.5,0.3,0.6,0.6c0.1,0.3-0.2,0.7-0.4,1c-0.2-0.2-0.5-0.3-0.6-0.6C830.8,377.7,831.1,377.3,831.2,377
	C831.4,377.2,831.1,377.3,831.2,377L831.2,377z M825.5,397.5c-0.3,0.1-0.8-0.8-0.9-1c-0.3-0.6-0.2-1,0.3-1.5c0.4-0.4,1-0.7,1.5-0.4
	c0.7,0.3,1.3,1,1.9,1.4C827.5,396.5,826.5,397.3,825.5,397.5L825.5,397.5L825.5,397.5z M831.9,395c-0.6,0.2-1.3,0-1.7-0.5
	c-0.5-0.6-0.3-1.2,0.1-1.7c0.4-0.4,1-1,1.6-0.8c0.7,0.2,1.3,0.7,2,1.1c-0.4,0.4-0.7,0.8-1.1,1.2C832.5,394.6,832.2,394.8,831.9,395
	L831.9,395L831.9,395z"/>
</svg>
