<?xml version="1.0" encoding="UTF-8" standalone="no"?>
<svg width="11px" height="8px" viewBox="0 0 11 8" version="1.1" xmlns="http://www.w3.org/2000/svg" xmlns:xlink="http://www.w3.org/1999/xlink">
    <!-- Generator: Sketch 39.1 (31720) - http://www.bohemiancoding.com/sketch -->
    <title>arrow</title>
    <desc>Created with Sketch.</desc>
    <defs></defs>
    <g id="02-machine" stroke="none" stroke-width="1" fill="none" fill-rule="evenodd">
        <g id="01-Lascom-Machine-D-v.1" transform="translate(-1142.000000, -2727.000000)" fill="#F89DAC">
            <g id="principles" transform="translate(0.000000, 700.000000)">
                <g id="img-3" transform="translate(0.000000, 1800.000000)">
                    <g id="menu" transform="translate(1120.000000, 16.000000)">
                        <g id="4" transform="translate(22.000000, 204.000000)">
                            <g id="arrow" transform="translate(0.000000, 7.000000)">
                                <path d="M8.64041233,4.35958767 C8.83900712,4.16099288 8.84487712,3.84487712 8.64041233,3.64041233 L4.35958767,-0.640412331 C4.16099288,-0.839007117 3.84306335,-0.843063354 3.65162659,-0.651626587 L2.34837341,0.651626587 C2.15597209,0.84402791 2.16129303,1.16129303 2.3559202,1.3559202 L4.6440798,3.6440798 C4.8406491,3.8406491 4.83870697,4.16129303 4.6440798,4.3559202 L2.3559202,6.6440798 C2.1593509,6.8406491 2.15693665,7.15693665 2.34837341,7.34837341 L3.65162659,8.65162659 C3.84402791,8.84402791 4.15512288,8.84487712 4.35958767,8.64041233 L8.64041233,4.35958767 Z" id="Path-25" transform="translate(5.499094, 4.001266) rotate(90.000000) translate(-5.499094, -4.001266) "></path>
                            </g>
                        </g>
                    </g>
                </g>
            </g>
        </g>
    </g>
</svg>